# https://github.com/mikedh/trimesh
v -0.00910453 0.00144154 -0.03138679
v 0.00931245 0.00144154 -0.03138679
v -0.00952784 0.00144154 -0.03137889
v -0.00973240 0.00271647 -0.04086744
v 0.00973170 0.00144154 -0.03137889
v -0.00973240 0.00144154 -0.03137493
v -0.01018204 0.00297915 -0.04149606
v -0.01012736 0.00306457 -0.04191909
v -0.00973240 0.00286810 -0.04149606
v 0.00986741 0.00144154 -0.03135912
v -0.01014356 0.00144154 -0.03125237
v -0.01033192 0.00346606 -0.04149606
v -0.01028331 0.00144154 -0.03082143
v -0.01034002 0.00144154 -0.03019677
v -0.00973240 0.00307312 -0.04190723
v -0.01020837 0.00345966 -0.04212468
v -0.01013546 0.00366467 -0.04255957
v -0.00973240 0.00366467 -0.04255957
v -0.00973240 0.00335074 -0.04222352
v 0.01014286 0.00144154 -0.03125237
v -0.01034610 0.00346606 -0.04086744
v -0.01034002 0.00472392 -0.04275329
v -0.01030357 0.01539752 -0.05405654
v -0.01021850 0.00470897 -0.04339377
v -0.01021445 0.00408324 -0.04276120
v -0.01034407 0.00144154 -0.02956815
v -0.00562084 0.00439717 -0.04182421
v -0.00594895 0.00399141 -0.04146839
v -0.00614542 0.00373942 -0.04123908
v -0.01013951 0.00428612 -0.04319214
v -0.01009090 0.01503875 -0.05441631
v -0.01007672 0.01379584 -0.05314722
v -0.01006457 0.01255507 -0.05187417
v -0.01004837 0.01131430 -0.05060507
v -0.01004229 0.01131430 -0.05060507
v 0.01016919 0.00144154 -0.03117726
v -0.00572818 0.00380562 -0.04114024
v -0.00520158 0.00448260 -0.04172537
v -0.00470941 0.00490971 -0.04193886
v -0.00470941 0.00647509 -0.04351238
v -0.00536969 0.00976174 -0.04713384
v -0.00596516 0.01274941 -0.05042321
v -0.00596516 0.01431692 -0.05199673
v -0.00557830 0.01441302 -0.05190184
v -0.00596516 0.01494692 -0.05262139
v -0.00559248 0.01504302 -0.05252651
v -0.00488157 0.01495546 -0.05197301
v -0.00368658 0.01437245 -0.05067228
v -0.00250780 0.01382147 -0.04935179
v 0.01006184 0.00248583 -0.03177424
v 0.01016514 0.00158248 -0.03128796
v -0.01034610 0.00786321 -0.04589243
v -0.01034205 0.00535178 -0.04338191
v -0.01034610 0.00346606 -0.02077543
v -0.01034610 0.00911893 -0.04714966
v -0.01034610 0.01288395 -0.05091740
v -0.01034610 0.01665324 -0.05468515
v -0.01029344 0.01602538 -0.05468515
v -0.01015166 0.01543810 -0.05464957
v -0.01015369 0.01480597 -0.05401700
v -0.01014356 0.00552903 -0.04446519
v -0.01034407 0.00144154 -0.01951819
v -0.00996532 0.01379584 -0.05314722
v -0.00992684 0.01503875 -0.05441631
v -0.00950758 0.01511776 -0.05433328
v -0.00558641 0.00751725 -0.04498310
v -0.00519348 0.00510832 -0.04236584
v -0.01007875 0.01567728 -0.05502516
v 0.01031299 0.00158248 -0.03082539
v 0.01028261 0.00144154 -0.03082143
v -0.00683810 0.01504942 -0.05314722
v -0.00641885 0.01514980 -0.05304838
v -0.00684418 0.01567728 -0.05377583
v -0.00611301 0.01556837 -0.05325001
v -0.00642492 0.01591006 -0.05366909
v -0.00514689 0.01539752 -0.05240395
v -0.00477625 0.01539752 -0.05209162
v -0.00306073 0.01429557 -0.05006739
v -0.00302022 0.01476966 -0.05011879
v -0.00248754 0.01414180 -0.04937552
v -0.00115078 0.01351395 -0.04760037
v 0.01006995 0.00283820 -0.03178215
v 0.01017527 0.00225092 -0.03147773
v -0.01034610 0.02325858 -0.02077543
v -0.01034610 0.02325858 -0.05468515
v -0.01019622 0.01665324 -0.05515958
v -0.01014558 0.01602538 -0.05510028
v -0.01032585 0.00144154 -0.01903190
v -0.01034407 0.02325858 -0.01951819
v -0.00996532 0.01567728 -0.05502516
v -0.00973645 0.01539752 -0.05468120
v -0.00784878 0.01579260 -0.05429375
v -0.00722091 0.01559827 -0.05385490
v -0.00973240 0.01665324 -0.05529796
v -0.00974658 0.01600830 -0.05512005
v 0.01034540 0.00221034 -0.03082539
v 0.01031502 0.00144154 -0.03068306
v -0.00735053 0.01622399 -0.05446375
v -0.00693330 0.01651443 -0.05435701
v -0.00627504 0.01632863 -0.05374421
v -0.00446231 0.01539752 -0.05179905
v -0.00330378 0.01476966 -0.05043112
v -0.00416660 0.01539752 -0.05148277
v -0.00385266 0.01539752 -0.05113090
v -0.00358936 0.01539752 -0.05081857
v -0.00327542 0.01539752 -0.05043507
v -0.00302225 0.01539752 -0.05012274
v -0.00270629 0.01476966 -0.04971157
v -0.00192651 0.01414180 -0.04865992
v -0.00138167 0.01414180 -0.04791665
v -0.00115280 0.01414180 -0.04760432
v -0.00083684 0.01351395 -0.04716152
v 0.01006387 0.00316708 -0.03177820
v 0.01019957 0.00283820 -0.03145005
v -0.00061810 0.01602538 -0.04684919
v -0.00062012 0.01728110 -0.04684523
v -0.00009352 0.02167612 -0.04607429
v -0.00009757 0.02293397 -0.04607033
v 0.00012117 0.02325858 -0.04575405
v -0.01019622 0.02325858 -0.05515958
v -0.00997343 0.02325858 -0.05524261
v -0.00973240 0.01728110 -0.05532959
v -0.01031977 0.00144154 -0.01889353
v -0.01031977 0.01602538 -0.01889353
v -0.01031774 0.02325858 -0.01889353
v -0.00910453 0.01623040 -0.05505283
v -0.00877034 0.01632863 -0.05500539
v -0.00954607 0.01578620 -0.05495004
v -0.00847665 0.01728110 -0.05524656
v -0.00910453 0.01665324 -0.05520307
v -0.00910453 0.01728110 -0.05531772
v -0.00852729 0.01665965 -0.05507656
v 0.01010640 0.02325858 -0.02829115
v 0.01015906 0.02325858 -0.02799859
v 0.01021375 0.02325858 -0.02768230
v 0.01027856 0.02325858 -0.02705764
v 0.01031299 0.02325858 -0.02642902
v 0.01032717 0.02325858 -0.02580041
v 0.01034540 0.02325858 -0.01951819
v 0.01034540 0.00158248 -0.03019677
v 0.01033932 0.00144154 -0.03019677
v -0.00835108 0.01645677 -0.05493818
v -0.00783258 0.01665965 -0.05487493
v -0.00761181 0.01728110 -0.05496586
v -0.00690494 0.01693300 -0.05437282
v -0.00627302 0.01665324 -0.05374816
v -0.00504360 0.01602538 -0.05246721
v -0.00473979 0.01602538 -0.05215092
v -0.00442585 0.01602538 -0.05182277
v -0.00416052 0.01602538 -0.05151044
v -0.00358936 0.01790896 -0.05081857
v -0.00384659 0.01602538 -0.05113090
v -0.00327542 0.01602538 -0.05043507
v -0.00302832 0.01665324 -0.05011879
v -0.00384659 0.02104826 -0.05113090
v -0.00384861 0.02230397 -0.05112299
v -0.00270831 0.01539752 -0.04970762
v -0.00247336 0.01476966 -0.04939924
v -0.00169764 0.01476966 -0.04834364
v -0.00116293 0.01728110 -0.04758850
v 0.00708450 0.02325858 -0.03456546
v 0.00749161 0.02325858 -0.03390522
v 0.00771238 0.02325858 -0.03354544
v 0.00783998 0.02325858 -0.03333590
v 0.00809720 0.02325858 -0.03291287
v 0.00843140 0.02325858 -0.03234751
v 0.00868255 0.02325858 -0.03192053
v 0.00878179 0.02325858 -0.03175052
v 0.00886281 0.02325858 -0.03160029
v 0.00894990 0.02325858 -0.03143819
v 0.00926384 0.02325858 -0.03082934
v 0.00941979 0.02325858 -0.03051306
v 0.00948258 0.02325858 -0.03035887
v 0.00954739 0.02325858 -0.03019677
v 0.00978234 0.02325858 -0.02956815
v 0.00043511 0.02325858 -0.04528358
v 0.00053436 0.02325858 -0.04513334
v 0.00074095 0.02325858 -0.04480915
v 0.00099615 0.02325858 -0.04440588
v 0.00115210 0.02325858 -0.04415681
v 0.00996462 0.02325858 -0.02893954
v 0.01004159 0.02325858 -0.02860744
v 0.01007400 0.02325858 -0.02845325
v -0.00062620 0.01899383 -0.04683733
v -0.00040746 0.02167612 -0.04650918
v -0.00041151 0.02293397 -0.04650127
v -0.00009757 0.02325858 -0.04606638
v -0.00973240 0.02325858 -0.05532959
v -0.00943062 0.02325858 -0.05533749
v -0.00910453 0.01853682 -0.05534540
v -0.00910453 0.01790896 -0.05534144
v -0.01020837 0.00144154 -0.01826491
v -0.01020837 0.00346606 -0.01826491
v -0.01020635 0.01979254 -0.01826491
v -0.01020432 0.02325858 -0.01826491
v -0.00803107 0.01687534 -0.05503702
v -0.00847665 0.01790896 -0.05531377
v -0.00792574 0.01728110 -0.05510028
v 0.01031907 0.02325858 -0.01889353
v 0.01034540 0.00144154 -0.01951819
v 0.01034540 0.00144154 -0.03005444
v -0.00788524 0.01790896 -0.05514377
v -0.00757130 0.01790896 -0.05497376
v -0.00690494 0.01706754 -0.05437282
v -0.00627302 0.01790896 -0.05374816
v -0.00535551 0.01728110 -0.05279535
v -0.00504157 0.01665324 -0.05246721
v -0.00473979 0.01790896 -0.05215487
v -0.00442585 0.02325858 -0.05182277
v -0.00416052 0.01853682 -0.05151044
v -0.00360759 0.02167612 -0.05081461
v -0.00361569 0.02293397 -0.05080671
v -0.00304453 0.01916468 -0.05010297
v -0.00271439 0.01665324 -0.04969971
v -0.00385064 0.02293397 -0.05111904
v -0.00416255 0.02230397 -0.05151044
v -0.00416457 0.02293397 -0.05151044
v -0.00416660 0.02325858 -0.05151044
v -0.00401469 0.02325858 -0.05132067
v -0.00247742 0.01602538 -0.04939133
v -0.00220804 0.01539752 -0.04903156
v -0.00086520 0.02042040 -0.04714966
v -0.00041151 0.02325858 -0.04649732
v -0.00910453 0.02325858 -0.05534540
v -0.00847665 0.01853682 -0.05532168
v -0.01011115 0.00144154 -0.01796049
v -0.01008280 0.02325858 -0.01787351
v 0.01029476 0.00144154 -0.01875120
v 0.01031907 0.00144154 -0.01889353
v 0.01020565 0.02325858 -0.01826491
v 0.01020767 0.01163037 -0.01826491
v -0.00788524 0.01853682 -0.05514772
v -0.00757130 0.02042040 -0.05497376
v -0.00757130 0.02325858 -0.05496981
v -0.00741534 0.02325858 -0.05481958
v -0.00724926 0.02325858 -0.05465748
v -0.00627909 0.01885929 -0.05374421
v -0.00504360 0.02325858 -0.05246721
v -0.00504157 0.02293397 -0.05246721
v -0.00473979 0.02293397 -0.05215487
v -0.00535551 0.02042040 -0.05279535
v -0.00430028 0.02325858 -0.05167254
v -0.00458788 0.02325858 -0.05199278
v -0.00361772 0.02325858 -0.05080275
v -0.00228703 0.02325858 -0.04901970
v -0.00373924 0.02325858 -0.05096485
v -0.00272249 0.01790896 -0.04969180
v -0.00385266 0.02325858 -0.05111509
v -0.00248147 0.01665324 -0.04938738
v -0.00171789 0.01979254 -0.04831201
v -0.00140395 0.01979254 -0.04788897
v -0.00063835 0.02230397 -0.04681756
v -0.00088342 0.02230397 -0.04714966
v -0.00077405 0.02325858 -0.04698756
v -0.00880274 0.02325858 -0.05533354
v -0.00847665 0.02167612 -0.05532168
v -0.01008280 0.00144154 -0.01787351
v -0.00992279 0.00158248 -0.01755722
v -0.00999976 0.02325858 -0.01771141
v 0.01020767 0.00144154 -0.01826491
v 0.01008210 0.02325858 -0.01787351
v 0.01008412 0.00974679 -0.01787351
v -0.00788524 0.02293397 -0.05514772
v -0.00788726 0.02325858 -0.05514772
v -0.00119129 0.02325858 -0.04754897
v -0.00118521 0.02230397 -0.04755688
v -0.00847665 0.02325858 -0.05531772
v -0.00992279 0.00144154 -0.01755722
v -0.00992077 0.01602538 -0.01755722
v -0.00960683 0.02167612 -0.01708280
v -0.00992077 0.02325858 -0.01756118
v 0.01008412 0.00144154 -0.01787351
v 0.00992007 0.02325858 -0.01756118
v 0.00992209 0.01665324 -0.01755722
v -0.00960683 0.00144154 -0.01708280
v -0.00940226 0.00144154 -0.01684163
v -0.00934150 0.00283820 -0.01677046
v -0.00946910 0.02325858 -0.01692465
v -0.00960683 0.02325858 -0.01708675
v -0.00975873 0.02325858 -0.01731606
v 0.00992209 0.00144154 -0.01755722
v 0.00960613 0.02325858 -0.01708675
v 0.00960613 0.02230397 -0.01708280
v 0.00992007 0.01979254 -0.01755722
v 0.00960815 0.01539752 -0.01708280
v -0.00934150 0.00144154 -0.01677046
v -0.00933340 0.02325858 -0.01677046
v -0.00825183 0.00144154 -0.01554486
v 0.00960815 0.00144154 -0.01708280
v 0.00933270 0.02325858 -0.01677046
v 0.00934283 0.00283820 -0.01677046
v -0.00810196 0.00144154 -0.01541044
v -0.00917137 0.02325858 -0.01663604
v 0.00934283 0.00144154 -0.01677046
v 0.00901876 0.02325858 -0.01652930
v 0.00782580 0.00144154 -0.01518113
v 0.00824911 0.00144154 -0.01554486
v -0.00780422 0.00144154 -0.01516532
v -0.00901946 0.02325858 -0.01652930
v 0.00846785 0.02325858 -0.01629999
v 0.00780352 0.00144154 -0.01516532
v -0.00779612 0.00144154 -0.01516136
v -0.00873388 0.02325858 -0.01637906
v 0.00784808 0.02325858 -0.01624069
v 0.00722021 0.00144154 -0.01495973
v 0.00778124 0.00144154 -0.01515741
v -0.00738294 0.00144154 -0.01496764
v -0.00846855 0.02325858 -0.01629999
v -0.00242273 0.02325858 -0.01623673
v 0.00659233 0.00144154 -0.01495578
v -0.00722091 0.00144154 -0.01495973
v -0.00807765 0.02325858 -0.01624859
v -0.00659303 0.02325858 -0.01623673
v 0.00565660 0.00144154 -0.01495578
v -0.00784878 0.02325858 -0.01624069
f 1 2 5
f 1 5 10
f 1 10 20
f 1 20 36
f 1 36 70
f 1 70 97
f 1 97 141
f 1 141 201
f 1 201 200
f 1 200 229
f 1 229 228
f 1 228 260
f 1 260 272
f 1 272 281
f 1 281 289
f 1 289 294
f 1 294 297
f 1 297 296
f 1 296 301
f 1 301 306
f 1 306 305
f 1 305 310
f 1 310 314
f 1 314 311
f 1 311 307
f 1 307 302
f 1 302 298
f 1 298 292
f 1 292 288
f 1 288 286
f 1 286 276
f 1 276 275
f 1 275 268
f 1 268 257
f 1 257 226
f 1 226 192
f 1 192 123
f 1 123 88
f 1 88 62
f 1 62 26
f 1 26 14
f 1 14 13
f 1 13 11
f 1 11 6
f 1 6 3
f 1 3 4
f 1 4 2
f 2 4 5
f 3 6 4
f 4 7 8
f 4 8 9
f 4 9 10
f 4 10 5
f 4 6 11
f 4 11 7
f 7 12 8
f 7 11 13
f 7 13 14
f 7 14 12
f 8 15 9
f 8 12 16
f 8 16 17
f 8 17 18
f 8 18 19
f 8 19 15
f 9 15 10
f 10 15 20
f 12 21 22
f 12 22 23
f 12 23 24
f 12 24 25
f 12 25 16
f 12 14 21
f 14 26 21
f 15 19 27
f 15 27 28
f 15 28 29
f 15 29 20
f 16 25 17
f 17 25 30
f 17 30 31
f 17 31 32
f 17 32 33
f 17 33 34
f 17 34 35
f 17 35 18
f 18 27 19
f 18 35 27
f 20 29 37
f 20 37 28
f 20 28 27
f 20 27 38
f 20 38 39
f 20 39 40
f 20 40 41
f 20 41 42
f 20 42 43
f 20 43 44
f 20 44 45
f 20 45 46
f 20 46 47
f 20 47 48
f 20 48 49
f 20 49 50
f 20 50 51
f 20 51 36
f 21 52 53
f 21 53 22
f 21 26 62
f 21 62 54
f 21 54 84
f 21 84 85
f 21 85 57
f 21 57 56
f 21 56 55
f 21 55 52
f 22 53 23
f 23 55 56
f 23 56 57
f 23 57 58
f 23 58 59
f 23 59 60
f 23 60 24
f 23 53 52
f 23 52 55
f 24 60 25
f 25 60 61
f 25 61 30
f 27 35 63
f 27 63 64
f 27 64 65
f 27 65 66
f 27 66 67
f 27 67 38
f 28 37 29
f 30 61 31
f 31 60 59
f 31 59 68
f 31 68 90
f 31 90 64
f 31 64 63
f 31 63 32
f 31 61 60
f 32 63 35
f 32 35 34
f 32 34 33
f 36 51 69
f 36 69 70
f 38 67 39
f 39 67 66
f 39 66 40
f 40 66 41
f 41 66 42
f 42 66 71
f 42 71 43
f 43 71 72
f 43 72 44
f 44 72 45
f 45 72 46
f 46 72 73
f 46 73 74
f 46 74 47
f 47 74 75
f 47 75 76
f 47 76 77
f 47 77 48
f 48 77 78
f 48 78 49
f 49 78 79
f 49 79 80
f 49 80 81
f 49 81 50
f 50 81 82
f 50 82 83
f 50 83 51
f 51 83 69
f 54 62 89
f 54 89 84
f 57 85 120
f 57 120 86
f 57 86 58
f 58 86 87
f 58 87 59
f 59 87 68
f 62 88 89
f 64 90 91
f 64 91 65
f 65 91 92
f 65 92 93
f 65 93 71
f 65 71 66
f 68 87 94
f 68 94 95
f 68 95 90
f 69 96 97
f 69 97 70
f 69 83 96
f 71 93 73
f 71 73 72
f 73 93 92
f 73 92 98
f 73 98 74
f 74 98 75
f 75 98 99
f 75 99 100
f 75 100 76
f 76 100 77
f 77 100 101
f 77 101 78
f 78 102 79
f 78 101 102
f 79 102 103
f 79 103 104
f 79 104 105
f 79 105 106
f 79 106 107
f 79 107 108
f 79 108 109
f 79 109 80
f 80 109 81
f 81 109 110
f 81 110 111
f 81 111 112
f 81 112 82
f 82 113 114
f 82 114 83
f 82 112 115
f 82 115 116
f 82 116 117
f 82 117 118
f 82 118 119
f 82 119 113
f 83 114 96
f 84 89 125
f 84 125 195
f 84 195 227
f 84 227 259
f 84 259 271
f 84 271 280
f 84 280 279
f 84 279 278
f 84 278 287
f 84 287 293
f 84 293 299
f 84 299 303
f 84 303 308
f 84 308 312
f 84 312 315
f 84 315 313
f 84 313 309
f 84 309 304
f 84 304 300
f 84 300 295
f 84 295 290
f 84 290 282
f 84 282 273
f 84 273 261
f 84 261 230
f 84 230 199
f 84 199 139
f 84 139 138
f 84 138 137
f 84 137 136
f 84 136 135
f 84 135 134
f 84 134 133
f 84 133 183
f 84 183 182
f 84 182 181
f 84 181 175
f 84 175 174
f 84 174 173
f 84 173 172
f 84 172 171
f 84 171 170
f 84 170 169
f 84 169 168
f 84 168 167
f 84 167 166
f 84 166 165
f 84 165 164
f 84 164 163
f 84 163 162
f 84 162 161
f 84 161 180
f 84 180 179
f 84 179 178
f 84 178 177
f 84 177 176
f 84 176 119
f 84 119 187
f 84 187 223
f 84 223 254
f 84 254 265
f 84 265 245
f 84 245 244
f 84 244 246
f 84 246 248
f 84 248 219
f 84 219 218
f 84 218 242
f 84 242 209
f 84 209 243
f 84 243 238
f 84 238 236
f 84 236 235
f 84 235 234
f 84 234 264
f 84 264 267
f 84 267 255
f 84 255 224
f 84 224 189
f 84 189 188
f 84 188 121
f 84 121 120
f 84 120 85
f 86 120 121
f 86 121 122
f 86 122 94
f 86 94 87
f 88 123 124
f 88 124 89
f 89 124 125
f 90 95 126
f 90 126 127
f 90 127 128
f 90 128 98
f 90 98 92
f 90 92 91
f 94 129 130
f 94 130 95
f 94 122 131
f 94 131 129
f 95 130 132
f 95 132 126
f 96 133 134
f 96 134 135
f 96 135 136
f 96 136 137
f 96 137 138
f 96 138 139
f 96 139 200
f 96 200 201
f 96 201 140
f 96 140 141
f 96 141 97
f 96 114 133
f 98 128 127
f 98 127 142
f 98 142 143
f 98 143 99
f 99 143 144
f 99 144 145
f 99 145 100
f 100 145 146
f 100 146 147
f 100 147 101
f 101 147 148
f 101 148 149
f 101 149 103
f 101 103 102
f 103 149 104
f 104 149 150
f 104 150 105
f 105 151 153
f 105 153 106
f 105 150 152
f 105 152 155
f 105 155 151
f 106 153 107
f 107 154 108
f 107 153 155
f 107 155 156
f 107 156 154
f 108 154 157
f 108 157 220
f 108 220 158
f 108 158 109
f 109 159 110
f 109 158 159
f 110 159 111
f 111 159 160
f 111 160 116
f 111 116 115
f 111 115 112
f 113 161 162
f 113 162 163
f 113 163 164
f 113 164 165
f 113 165 166
f 113 166 167
f 113 167 168
f 113 168 169
f 113 169 170
f 113 170 171
f 113 171 172
f 113 172 173
f 113 173 174
f 113 174 175
f 113 175 114
f 113 119 176
f 113 176 177
f 113 177 178
f 113 178 179
f 113 179 180
f 113 180 161
f 114 175 181
f 114 181 182
f 114 182 183
f 114 183 133
f 116 184 118
f 116 118 117
f 116 160 184
f 118 184 185
f 118 185 186
f 118 186 223
f 118 223 187
f 118 187 119
f 121 188 122
f 122 189 190
f 122 190 191
f 122 191 131
f 122 188 189
f 123 192 193
f 123 193 124
f 124 193 194
f 124 194 125
f 125 194 195
f 126 132 196
f 126 196 127
f 127 196 142
f 129 131 197
f 129 197 198
f 129 198 196
f 129 196 130
f 130 196 132
f 131 191 197
f 139 199 229
f 139 229 200
f 140 201 141
f 142 196 143
f 143 196 144
f 144 196 198
f 144 198 202
f 144 202 203
f 144 203 145
f 145 203 233
f 145 233 204
f 145 204 205
f 145 205 146
f 146 205 241
f 146 241 206
f 146 206 207
f 146 207 147
f 147 207 148
f 148 207 208
f 148 208 149
f 149 209 210
f 149 210 150
f 149 208 240
f 149 240 209
f 150 210 155
f 150 155 152
f 151 155 153
f 154 211 212
f 154 212 213
f 154 213 247
f 154 247 214
f 154 214 157
f 154 156 215
f 154 215 211
f 155 210 216
f 155 216 217
f 155 217 218
f 155 218 156
f 156 218 219
f 156 219 215
f 157 214 220
f 158 220 221
f 158 221 159
f 159 221 222
f 159 222 160
f 160 222 184
f 184 222 185
f 185 222 186
f 186 222 223
f 189 224 190
f 190 224 256
f 190 256 225
f 190 225 191
f 191 225 197
f 192 226 193
f 193 226 227
f 193 227 194
f 194 227 195
f 197 202 198
f 197 225 202
f 199 228 229
f 199 230 231
f 199 231 228
f 202 225 232
f 202 232 203
f 203 232 263
f 203 263 233
f 204 233 234
f 204 234 235
f 204 235 236
f 204 236 205
f 205 236 237
f 205 237 238
f 205 238 239
f 205 239 240
f 205 240 241
f 206 241 240
f 206 240 208
f 206 208 207
f 209 242 216
f 209 216 210
f 209 240 243
f 211 215 212
f 212 244 245
f 212 245 213
f 212 215 246
f 212 246 244
f 213 245 247
f 214 247 249
f 214 249 220
f 215 248 246
f 215 219 248
f 216 242 217
f 217 242 218
f 220 249 250
f 220 250 251
f 220 251 222
f 220 222 221
f 222 252 223
f 222 251 252
f 223 252 251
f 223 251 253
f 223 253 254
f 224 255 256
f 225 256 263
f 225 263 232
f 226 257 227
f 227 257 268
f 227 268 258
f 227 258 259
f 228 231 260
f 230 261 231
f 231 261 262
f 231 262 272
f 231 272 260
f 233 263 234
f 234 263 264
f 236 238 237
f 238 243 240
f 238 240 239
f 245 265 266
f 245 266 247
f 247 266 249
f 249 266 250
f 250 266 251
f 251 266 253
f 253 266 254
f 254 266 265
f 255 267 256
f 256 267 264
f 256 264 263
f 258 269 259
f 258 268 275
f 258 275 270
f 258 270 269
f 259 269 271
f 261 273 274
f 261 274 262
f 262 274 281
f 262 281 272
f 269 270 271
f 270 276 277
f 270 277 278
f 270 278 279
f 270 279 280
f 270 280 271
f 270 275 276
f 273 282 283
f 273 283 284
f 273 284 274
f 274 284 283
f 274 283 285
f 274 285 289
f 274 289 281
f 276 286 277
f 277 287 278
f 277 286 288
f 277 288 287
f 282 290 283
f 283 291 285
f 283 290 291
f 285 291 294
f 285 294 289
f 287 288 292
f 287 292 293
f 290 295 296
f 290 296 297
f 290 297 291
f 291 297 294
f 292 298 293
f 293 298 299
f 295 300 301
f 295 301 296
f 298 302 303
f 298 303 299
f 300 304 305
f 300 305 306
f 300 306 301
f 302 307 303
f 303 307 308
f 304 309 310
f 304 310 305
f 307 311 312
f 307 312 308
f 309 313 314
f 309 314 310
f 311 314 313
f 311 313 315
f 311 315 312

