# https://github.com/mikedh/trimesh
v 0.01031757 0.00336425 -0.03270632
v 0.00566065 0.00336425 -0.03270539
v 0.01031709 0.00336369 -0.03270539
v 0.01019714 0.00293487 -0.03270539
v 0.01031757 0.00336425 -0.04086913
v 0.00563187 0.00336425 -0.03270539
v 0.00973414 0.00268591 -0.03270539
v 0.01019714 0.00293501 -0.04086913
v 0.01030606 0.00336425 -0.04137685
v 0.00596677 0.00326302 -0.03270539
v 0.00541884 0.00336425 -0.03890169
v 0.00910608 0.00265407 -0.03270539
v 0.00973414 0.00268633 -0.04024194
v 0.00973414 0.00271497 -0.04086913
v 0.01018275 0.00297721 -0.04149725
v 0.01030078 0.00336425 -0.04149725
v 0.00631174 0.00315881 -0.03270539
v 0.00541644 0.00336425 -0.03898569
v 0.00847803 0.00268626 -0.03270539
v 0.00910608 0.00265463 -0.03898569
v 0.00910608 0.00265476 -0.03961381
v 0.00910608 0.00267611 -0.04024194
v 0.00910608 0.00278116 -0.04086913
v 0.00973414 0.00286806 -0.04149725
v 0.01012853 0.00306356 -0.04192098
v 0.01018995 0.00336425 -0.04207871
v 0.00785045 0.00279583 -0.03270539
v 0.00593318 0.00322214 -0.03898569
v 0.00624745 0.00314379 -0.03898569
v 0.00553974 0.00336425 -0.03961008
v 0.00601475 0.00322464 -0.03960075
v 0.00625560 0.00314594 -0.03938328
v 0.00785045 0.00279075 -0.03898569
v 0.00847803 0.00268821 -0.03898569
v 0.00847803 0.00269272 -0.03961381
v 0.00847803 0.00275307 -0.04024194
v 0.00785045 0.00288322 -0.04024194
v 0.00695227 0.00316305 -0.04051260
v 0.00737113 0.00311111 -0.04065166
v 0.00914159 0.00302637 -0.04150005
v 0.00973414 0.00307225 -0.04191071
v 0.00973414 0.00334986 -0.04222430
v 0.00973414 0.00336425 -0.04224017
v 0.00659482 0.00306662 -0.03898569
v 0.00631942 0.00316110 -0.03980234
v 0.00592166 0.00336425 -0.04024194
v 0.00596677 0.00334951 -0.04024194
v 0.00655500 0.00309318 -0.03960075
v 0.00722240 0.00294315 -0.03961381
v 0.00785045 0.00280139 -0.03961381
v 0.00718593 0.00305035 -0.04027834
v 0.00673828 0.00311202 -0.04009354
v 0.00655500 0.00320226 -0.04027834
v 0.00596581 0.00336425 -0.04027834
v 0.00666967 0.00336425 -0.04079446
v 0.00679298 0.00336425 -0.04086819
v 0.00937477 0.00313406 -0.04183418
v 0.00922363 0.00336425 -0.04201431
v 0.00594134 0.00336425 -0.04025967
v 0.00752515 0.00336425 -0.04122192
f 1 2 3
f 1 3 4
f 1 4 5
f 1 5 9
f 1 9 16
f 1 16 26
f 1 26 43
f 1 43 58
f 1 58 60
f 1 60 56
f 1 56 55
f 1 55 54
f 1 54 59
f 1 59 46
f 1 46 30
f 1 30 18
f 1 18 11
f 1 11 6
f 1 6 2
f 2 6 10
f 2 10 17
f 2 17 27
f 2 27 19
f 2 19 12
f 2 12 7
f 2 7 4
f 2 4 3
f 4 7 8
f 4 8 5
f 5 8 9
f 6 11 10
f 7 12 13
f 7 13 8
f 8 13 14
f 8 14 15
f 8 15 9
f 9 15 16
f 10 11 17
f 11 18 17
f 12 19 20
f 12 20 13
f 13 20 21
f 13 21 22
f 13 22 14
f 14 22 23
f 14 23 24
f 14 24 25
f 14 25 15
f 15 25 16
f 16 25 26
f 17 18 28
f 17 28 29
f 17 29 27
f 18 30 31
f 18 31 32
f 18 32 28
f 19 27 33
f 19 33 34
f 19 34 21
f 19 21 20
f 21 34 35
f 21 35 22
f 22 35 36
f 22 36 23
f 23 36 37
f 23 37 38
f 23 38 39
f 23 39 24
f 24 40 41
f 24 41 25
f 24 39 40
f 25 41 42
f 25 42 43
f 25 43 26
f 27 29 44
f 27 44 33
f 28 32 29
f 29 32 44
f 30 45 31
f 30 46 47
f 30 47 45
f 31 45 32
f 32 33 44
f 32 45 48
f 32 48 49
f 32 49 50
f 32 50 33
f 33 50 35
f 33 35 34
f 35 50 36
f 36 50 37
f 37 51 38
f 37 50 45
f 37 45 52
f 37 52 51
f 38 51 52
f 38 52 53
f 38 53 47
f 38 47 54
f 38 54 55
f 38 55 39
f 39 55 56
f 39 56 40
f 40 57 41
f 40 56 57
f 41 57 42
f 42 57 43
f 43 57 58
f 45 50 49
f 45 49 48
f 45 47 52
f 46 59 47
f 47 59 54
f 47 53 52
f 56 60 57
f 57 60 58

