# https://github.com/mikedh/trimesh
v 0.00563092 0.00336425 -0.03270352
v 0.00565928 0.00336425 -0.03270352
v 0.00596511 0.00326298 -0.03270352
v -0.01006185 0.00248464 -0.03177249
v -0.01006995 0.00283787 -0.03177999
v -0.01006387 0.00316652 -0.03177624
v -0.00973171 0.00317507 -0.03178373
v -0.00973171 0.00327046 -0.03144841
v -0.00973171 0.00334260 -0.03082086
v -0.00910383 0.00334528 -0.03082086
v -0.00973171 0.00336425 -0.02761755
v 0.01031971 0.00336425 -0.03260423
v 0.01031566 0.00336371 -0.03270352
v 0.00631146 0.00315877 -0.03270352
v -0.00973171 0.00214743 -0.03168070
v -0.00973171 0.00158205 -0.03145029
v -0.01010438 0.00119435 -0.03118990
v -0.01016514 0.00158205 -0.03128544
v -0.01017527 0.00224897 -0.03147464
v 0.00784873 0.00279565 -0.03270352
v 0.00847660 0.00268610 -0.03270352
v -0.01019957 0.00283787 -0.03144841
v -0.01011450 0.00320981 -0.03144841
v -0.01015704 0.00324588 -0.03082086
v -0.01032717 0.00336425 -0.02589975
v -0.01022388 0.00336425 -0.02657600
v -0.01017122 0.00336425 -0.02688509
v 0.01033794 0.00336425 -0.03197481
v 0.01034402 0.00220996 -0.03082086
v 0.01032174 0.00095414 -0.03019331
v 0.01018401 0.00097257 -0.03080962
v 0.01019616 0.00293459 -0.03270352
v -0.00973171 0.00115560 -0.03121800
v -0.01012666 0.00063484 -0.03062792
v -0.01018337 0.00097257 -0.03080962
v -0.00973171 0.00084165 -0.03095199
v -0.01031299 0.00158205 -0.03082086
v -0.01034540 0.00220996 -0.03082086
v 0.00910448 0.00265377 -0.03270352
v -0.01030489 0.00283787 -0.03082086
v -0.01032920 0.00336425 -0.02579672
v 0.01034604 0.00336425 -0.03134726
v 0.01034402 0.00095414 -0.02956576
v 0.01032984 0.00063484 -0.02924543
v 0.01026908 0.00063484 -0.02992169
v 0.01023060 0.00063484 -0.03019331
v 0.01017794 0.00063484 -0.03041811
v 0.01012730 0.00063484 -0.03062792
v 0.01010502 0.00119435 -0.03118990
v 0.00973235 0.00268584 -0.03270352
v -0.01015299 0.00063484 -0.03052301
v -0.00973171 0.00063484 -0.03074406
v -0.01032312 0.00095414 -0.03019331
v -0.00910383 0.00084004 -0.03095199
v -0.00931852 0.00063484 -0.03074593
v -0.01034540 0.00095414 -0.02956576
v -0.01034540 0.00336425 -0.01951934
v 0.00973235 0.00084165 -0.03095012
v 0.00910448 0.00084004 -0.03095199
v 0.01034604 0.00336425 -0.02077444
v 0.01034402 0.00063484 -0.02736091
v 0.01034199 0.00063484 -0.02799033
v 0.01033997 0.00063484 -0.02861788
v 0.01002198 0.00063484 -0.03068037
v -0.01022995 0.00063484 -0.03019331
v -0.01028059 0.00063484 -0.02958824
v -0.01033122 0.00063484 -0.02893634
v 0.00910448 0.00063484 -0.03074593
v -0.01033932 0.00063484 -0.02830879
v -0.01034337 0.00063484 -0.02705369
v -0.01034540 0.00063484 -0.02642427
v -0.01034540 0.00063484 -0.01951934
v -0.01033325 0.00063484 -0.01921025
v -0.01031907 0.00336425 -0.01889179
v 0.00973235 0.00063484 -0.03074406
v 0.01034402 0.00336425 -0.01951934
v 0.01034402 0.00063484 -0.01951934
v -0.01031907 0.00063484 -0.01889179
v -0.01026438 0.00063484 -0.01858270
v -0.01020767 0.00336425 -0.01826237
v 0.01031971 0.00336425 -0.01889179
v 0.01033187 0.00063484 -0.01919901
v -0.01020767 0.00063484 -0.01826237
v -0.01008412 0.00336425 -0.01787085
v 0.01030149 0.00336425 -0.01878876
v 0.01031971 0.00063484 -0.01889179
v -0.01008412 0.00063484 -0.01787085
v -0.00994842 0.00336425 -0.01760859
v 0.01020832 0.00336425 -0.01826237
v 0.01020832 0.00063484 -0.01826237
v -0.00992209 0.00063484 -0.01755801
v -0.00992209 0.00336425 -0.01755801
v 0.01018806 0.00336425 -0.01819867
v 0.01008274 0.00063484 -0.01787272
v -0.00775897 0.00063484 -0.01393882
v -0.00960816 0.00336425 -0.01708220
v 0.01008274 0.00336425 -0.01787272
v 0.01005641 0.00336425 -0.01782027
v 0.01000173 0.00063484 -0.01771162
v -0.00722021 0.00063484 -0.01357541
v -0.00901674 0.00336425 -0.01654456
v -0.00933068 0.00336425 -0.01676748
v 0.00992274 0.00336425 -0.01755801
v 0.00992274 0.00063484 -0.01755801
v -0.00659234 0.00063484 -0.01356979
v -0.00784809 0.00336425 -0.01633101
v -0.00847393 0.00336425 -0.01636286
v 0.00960677 0.00336425 -0.01708407
v 0.00775961 0.00063484 -0.01393882
v -0.00609207 0.00336425 -0.01632914
v 0.00659299 0.00063484 -0.01356979
v 0.00956424 0.00336425 -0.01703349
v 0.00723098 0.00063484 -0.01357915
v 0.00932929 0.00336425 -0.01677123
v 0.00927663 0.00336425 -0.01672815
v 0.00901536 0.00336425 -0.01654456
v -0.00232281 0.00336425 -0.01632914
v 0.00722086 0.00063484 -0.01357541
v 0.00784873 0.00336425 -0.01633101
v 0.00892422 0.00336425 -0.01649773
v 0.00847458 0.00336425 -0.01636286
v 0.00835305 0.00336425 -0.01634787
f 1 2 13
f 1 13 32
f 1 32 50
f 1 50 39
f 1 39 21
f 1 21 20
f 1 20 14
f 1 14 3
f 1 3 4
f 1 4 5
f 1 5 6
f 1 6 7
f 1 7 8
f 1 8 9
f 1 9 10
f 1 10 11
f 1 11 27
f 1 27 26
f 1 26 25
f 1 25 41
f 1 41 57
f 1 57 74
f 1 74 80
f 1 80 84
f 1 84 88
f 1 88 92
f 1 92 96
f 1 96 102
f 1 102 101
f 1 101 107
f 1 107 106
f 1 106 110
f 1 110 117
f 1 117 119
f 1 119 122
f 1 122 121
f 1 121 120
f 1 120 116
f 1 116 115
f 1 115 114
f 1 114 112
f 1 112 108
f 1 108 103
f 1 103 98
f 1 98 97
f 1 97 93
f 1 93 89
f 1 89 85
f 1 85 81
f 1 81 76
f 1 76 60
f 1 60 42
f 1 42 28
f 1 28 12
f 1 12 2
f 2 12 13
f 3 14 4
f 4 15 16
f 4 16 17
f 4 17 18
f 4 18 19
f 4 19 5
f 4 14 20
f 4 20 21
f 4 21 15
f 5 19 22
f 5 22 6
f 6 22 23
f 6 23 8
f 6 8 7
f 8 23 9
f 9 11 10
f 9 23 24
f 9 24 25
f 9 25 26
f 9 26 27
f 9 27 11
f 12 28 29
f 12 29 30
f 12 30 13
f 13 30 31
f 13 31 32
f 15 21 16
f 16 33 17
f 16 21 33
f 17 34 35
f 17 35 18
f 17 33 36
f 17 36 34
f 18 35 37
f 18 37 19
f 19 37 38
f 19 38 22
f 21 39 33
f 22 40 23
f 22 38 40
f 23 40 24
f 24 40 25
f 25 40 41
f 28 42 29
f 29 43 30
f 29 42 43
f 30 44 45
f 30 45 46
f 30 46 31
f 30 43 44
f 31 46 47
f 31 47 48
f 31 48 32
f 32 48 49
f 32 49 50
f 33 39 36
f 34 51 35
f 34 36 52
f 34 52 55
f 34 55 68
f 34 68 75
f 34 75 64
f 34 64 48
f 34 48 47
f 34 47 46
f 34 46 45
f 34 45 44
f 34 44 63
f 34 63 62
f 34 62 61
f 34 61 77
f 34 77 82
f 34 82 86
f 34 86 90
f 34 90 94
f 34 94 99
f 34 99 104
f 34 104 109
f 34 109 113
f 34 113 118
f 34 118 111
f 34 111 105
f 34 105 100
f 34 100 95
f 34 95 91
f 34 91 87
f 34 87 83
f 34 83 79
f 34 79 78
f 34 78 73
f 34 73 72
f 34 72 71
f 34 71 70
f 34 70 69
f 34 69 67
f 34 67 66
f 34 66 65
f 34 65 51
f 35 51 53
f 35 53 37
f 36 54 55
f 36 55 52
f 36 39 54
f 37 53 38
f 38 56 71
f 38 71 72
f 38 72 57
f 38 57 41
f 38 41 40
f 38 53 56
f 39 50 58
f 39 58 59
f 39 59 54
f 42 60 77
f 42 77 61
f 42 61 43
f 43 61 62
f 43 62 63
f 43 63 44
f 48 64 49
f 49 64 50
f 50 64 58
f 51 65 53
f 53 65 66
f 53 66 67
f 53 67 56
f 54 59 68
f 54 68 55
f 56 67 69
f 56 69 70
f 56 70 71
f 57 72 73
f 57 73 74
f 58 64 75
f 58 75 59
f 59 75 68
f 60 76 77
f 73 78 74
f 74 78 79
f 74 79 80
f 76 81 82
f 76 82 77
f 79 83 80
f 80 83 87
f 80 87 84
f 81 85 86
f 81 86 82
f 84 87 88
f 85 89 90
f 85 90 86
f 87 91 88
f 88 91 92
f 89 93 90
f 90 93 94
f 91 95 92
f 92 95 96
f 93 97 94
f 94 97 98
f 94 98 99
f 95 100 101
f 95 101 102
f 95 102 96
f 98 103 99
f 99 103 104
f 100 105 106
f 100 106 107
f 100 107 101
f 103 108 109
f 103 109 104
f 105 110 106
f 105 111 117
f 105 117 110
f 108 112 109
f 109 112 114
f 109 114 115
f 109 115 116
f 109 116 113
f 111 118 119
f 111 119 117
f 113 116 120
f 113 120 118
f 118 120 121
f 118 121 122
f 118 122 119

