# https://github.com/mikedh/trimesh
v -0.01034540 0.00336425 -0.01951839
v -0.01032920 0.00336425 -0.02579741
v -0.01031907 0.00336425 -0.01889127
v -0.01034540 0.02607300 -0.01951839
v -0.01033527 0.02607300 -0.02579741
v -0.01033122 0.02669981 -0.02768138
v -0.01032717 0.00336425 -0.02589911
v -0.01032717 0.02669981 -0.02830980
v -0.01022590 0.00336425 -0.01836454
v -0.01031907 0.02418996 -0.01889127
v -0.01031704 0.02607300 -0.01889127
v -0.01033325 0.02669981 -0.01951839
v -0.01033325 0.02669981 -0.02014681
v -0.01026236 0.02732923 -0.02768138
v -0.01022388 0.00336425 -0.02657707
v -0.01029071 0.02669981 -0.02880524
v -0.01025831 0.02732923 -0.02830980
v -0.01027654 0.02683300 -0.02880524
v -0.01020767 0.00336425 -0.01826285
v -0.01020767 0.01163029 -0.01826285
v -0.01020565 0.02293373 -0.01826285
v -0.01020362 0.02607300 -0.01826285
v -0.01030489 0.02669981 -0.01889127
v -0.01026236 0.02732923 -0.01951839
v -0.01012463 0.02784373 -0.02768138
v -0.01012261 0.02783851 -0.02830980
v -0.01017122 0.00336425 -0.02688477
v -0.00999298 0.01853563 -0.02880524
v -0.01010438 0.02778889 -0.02880524
v -0.01021983 0.02732923 -0.02880524
v -0.01008412 0.00336425 -0.01787041
v -0.01008412 0.00974725 -0.01787041
v -0.01008210 0.02607300 -0.01787301
v -0.01007602 0.02669981 -0.01788736
v -0.01019147 0.02669981 -0.01826285
v -0.01023400 0.02732923 -0.01889127
v -0.01011045 0.02780978 -0.01889127
v -0.01012463 0.02784373 -0.01951839
v -0.00999703 0.02815975 -0.02768138
v -0.00999501 0.02815453 -0.02830980
v -0.00973170 0.00336425 -0.02761749
v -0.00993627 0.01790882 -0.02880524
v -0.00997273 0.02810490 -0.02880524
v -0.00994842 0.00336425 -0.01760704
v -0.00992209 0.01414274 -0.01755620
v -0.00992007 0.02607300 -0.01755880
v -0.00992209 0.01665520 -0.01755750
v -0.00991399 0.02669981 -0.01757314
v -0.01006184 0.02709156 -0.01791604
v -0.01012058 0.02731095 -0.01825372
v -0.01008007 0.02772882 -0.01845841
v -0.00998083 0.02812319 -0.01889127
v -0.00999703 0.02815975 -0.01951839
v -0.00973170 0.02858546 -0.02328502
v -0.00972765 0.02858546 -0.02768138
v -0.00972158 0.02858546 -0.02830980
v -0.00964664 0.02862463 -0.02880524
v -0.00360486 0.00896374 -0.02880524
v -0.00329093 0.00866600 -0.02880524
v -0.00294053 0.00835260 -0.02880524
v -0.00262660 0.00808098 -0.02880524
v 0.00303845 0.00336425 -0.02880524
v -0.00974588 0.01748050 -0.02880524
v -0.00963246 0.01724022 -0.02880524
v -0.00809518 0.01457890 -0.02880524
v -0.00782378 0.01413491 -0.02880524
v -0.00758275 0.01375621 -0.02880524
v -0.00737414 0.01345325 -0.02880524
v -0.00700754 0.01292569 -0.02880524
v -0.00683133 0.01268019 -0.02880524
v -0.00646068 0.01216830 -0.02880524
v -0.00641612 0.01210823 -0.02880524
v -0.00628650 0.01193586 -0.02880524
v -0.00607383 0.01166424 -0.02880524
v -0.00578622 0.01130121 -0.02880524
v -0.00572749 0.01122808 -0.02880524
v -0.00566875 0.01116018 -0.02880524
v -0.00545406 0.01091207 -0.02880524
v -0.00514012 0.01056210 -0.02880524
v -0.00507936 0.01049681 -0.02880524
v -0.00459934 0.00998491 -0.02880524
v -0.00453250 0.00991440 -0.02880524
v -0.00423476 0.00960099 -0.02880524
v -0.00385399 0.00920924 -0.02880524
v -0.00992209 0.00336425 -0.01755620
v -0.00960815 0.01539897 -0.01708162
v -0.00960613 0.02104808 -0.01708162
v -0.00960613 0.02607300 -0.01708553
v -0.00960005 0.02669981 -0.01709466
v -0.00955549 0.02732923 -0.01714811
v -0.00988969 0.02731095 -0.01767875
v -0.01001931 0.02750944 -0.01803860
v -0.00992412 0.02794559 -0.01825372
v -0.00956765 0.02859590 -0.01831500
v -0.00969525 0.02858546 -0.01889127
v -0.00972765 0.02858546 -0.01951839
v -0.00973170 0.02858546 -0.02077524
v -0.00946638 0.02894848 -0.02328502
v -0.00946233 0.02894587 -0.02768138
v -0.00946030 0.02894326 -0.02830980
v -0.00944410 0.02892498 -0.02876743
v -0.00947853 0.02887013 -0.02880524
v 0.01034407 0.00336425 -0.02880524
v -0.00960815 0.00336425 -0.01708162
v -0.00829772 0.02607300 -0.01548579
v -0.00827341 0.02669981 -0.01548579
v -0.00823898 0.02694270 -0.01548579
v -0.00821063 0.02713596 -0.01548579
v -0.00812759 0.02746243 -0.01548579
v -0.00798783 0.02797171 -0.01548579
v -0.00948663 0.02778628 -0.01723546
v -0.00962031 0.02797954 -0.01760444
v -0.00950486 0.02839219 -0.01779348
v -0.00934283 0.02881268 -0.01814029
v -0.00942384 0.02890408 -0.01855880
v -0.00944612 0.02892759 -0.01889127
v -0.00946435 0.02894587 -0.01951839
v -0.00946638 0.02894848 -0.02077524
v -0.00910383 0.02925928 -0.02391344
v -0.00910383 0.02925405 -0.02642584
v -0.00910383 0.02925144 -0.02768138
v -0.00910383 0.02924622 -0.02830980
v -0.00938941 0.02896677 -0.02880524
v -0.00944005 0.02892237 -0.02880524
v 0.01034610 0.00346610 -0.02880524
v 0.01034407 0.00336425 -0.01951839
v -0.00933067 0.00336425 -0.01676741
v -0.00829569 0.02574915 -0.01548579
v -0.00788859 0.02817020 -0.01548579
v -0.00938131 0.02820676 -0.01737497
v -0.00915244 0.02863508 -0.01757054
v -0.00892357 0.02901378 -0.01776611
v -0.00912206 0.02908168 -0.01831500
v -0.00875343 0.02950478 -0.01889127
v -0.00910383 0.02922010 -0.01889127
v -0.00910383 0.02925405 -0.01951839
v -0.00910383 0.02925928 -0.02014681
v -0.00946435 0.02894848 -0.02014681
v -0.00878382 0.02952306 -0.02516899
v -0.00878179 0.02952306 -0.02579741
v -0.00877774 0.02952045 -0.02768138
v -0.00877369 0.02951783 -0.02830980
v -0.00914636 0.02916264 -0.02880524
v 0.01034610 0.00346610 -0.02077524
v 0.01034610 0.02544358 -0.02880524
v 0.01031977 0.00336425 -0.01889127
v 0.01034407 0.02607300 -0.01951839
v -0.00901674 0.00336425 -0.01654446
v -0.00827747 0.02544358 -0.01548579
v -0.00767390 0.02852800 -0.01548579
v -0.00745920 0.02880223 -0.01548579
v -0.00737009 0.02889886 -0.01548579
v -0.00876356 0.02887536 -0.01734759
v -0.00718577 0.02909474 -0.01548579
v -0.00677057 0.02943426 -0.01548579
v -0.00863191 0.02943687 -0.01826285
v -0.00831797 0.02960402 -0.01826285
v -0.00843950 0.02966409 -0.01889127
v -0.00877976 0.02952045 -0.01951839
v -0.00878382 0.02952306 -0.02014681
v -0.00846988 0.02967976 -0.02516899
v -0.00846380 0.02967715 -0.02768138
v -0.00845975 0.02967454 -0.02830980
v -0.00841924 0.02965364 -0.02880524
v -0.00866634 0.02952828 -0.02880524
v -0.00873318 0.02949433 -0.02880524
v 0.01034610 0.02544358 -0.02077524
v 0.01032382 0.02607300 -0.02880524
v 0.01032787 0.02669981 -0.02830980
v 0.01034205 0.02607300 -0.02830980
v 0.01034407 0.02607300 -0.02768138
v 0.01030154 0.00336425 -0.01878827
v 0.01031977 0.01602839 -0.01889127
v 0.01033192 0.02669981 -0.01951839
v 0.01031774 0.02607300 -0.01889127
v -0.00847393 0.00336425 -0.01636323
v -0.00825519 0.02516152 -0.01548579
v -0.00663892 0.02952045 -0.01548579
v -0.00645663 0.02962491 -0.01548579
v -0.00820455 0.02954656 -0.01790822
v -0.00596446 0.02982863 -0.01548579
v -0.00784808 0.02977117 -0.01826285
v -0.00784808 0.02988609 -0.01889127
v -0.00846583 0.02967715 -0.01951839
v -0.00784808 0.02991481 -0.01951839
v -0.00846988 0.02967976 -0.02014681
v -0.00784808 0.02991742 -0.02391344
v -0.00784808 0.02991481 -0.02768138
v -0.00784808 0.02990959 -0.02830980
v -0.00784808 0.02987041 -0.02880524
v 0.01029141 0.02669981 -0.02880524
v 0.01033192 0.02669981 -0.02768138
v 0.01025698 0.02732923 -0.02830980
v 0.01020837 0.00346610 -0.01826285
v 0.01020837 0.00336425 -0.01826285
v 0.01020635 0.01979186 -0.01826285
v 0.01030559 0.02669981 -0.01889127
v 0.01026103 0.02732923 -0.01951839
v 0.01020432 0.02607300 -0.01826285
v -0.00784808 0.00336425 -0.01633064
v -0.00822278 0.02499698 -0.01548579
v -0.00533658 0.02998533 -0.01548579
v -0.00722021 0.03000100 -0.01889127
v -0.00722021 0.03002189 -0.01951839
v -0.00722021 0.03002189 -0.02768138
v -0.00722021 0.03001667 -0.02830980
v -0.00722021 0.02998011 -0.02880524
v 0.01022053 0.02732923 -0.02880524
v 0.01026103 0.02732923 -0.02768138
v 0.01013141 0.02768181 -0.02880524
v 0.01012331 0.02783851 -0.02830980
v 0.01018812 0.00336425 -0.01819896
v 0.01008280 0.02481677 -0.01787301
v 0.01019217 0.02669981 -0.01826285
v 0.01023470 0.02732923 -0.01889127
v 0.01011115 0.02780717 -0.01889127
v 0.01012533 0.02784373 -0.01951839
v 0.01008280 0.02607300 -0.01787432
v -0.00671993 0.00336425 -0.01632934
v -0.00722021 0.02445897 -0.01548579
v -0.00731337 0.02446419 -0.01548579
v -0.00784808 0.02459478 -0.01548579
v -0.00786023 0.02460261 -0.01548579
v -0.00470871 0.03003756 -0.01548579
v -0.00659233 0.03003756 -0.01889127
v -0.00659233 0.03004540 -0.01951839
v -0.00659233 0.03004540 -0.02768138
v -0.00659233 0.03004018 -0.02830980
v -0.00659233 0.03000361 -0.02880524
v 0.01012533 0.02784373 -0.02768138
v 0.01010305 0.02778889 -0.02880524
v 0.01007672 0.02785418 -0.02880524
v 0.00999571 0.02815191 -0.02830980
v 0.01008280 0.00336425 -0.01787171
v 0.01008280 0.01853563 -0.01787171
v 0.00992077 0.02607300 -0.01756011
v 0.00992077 0.02356054 -0.01755880
v 0.01007470 0.02669981 -0.01788736
v 0.01011925 0.02731095 -0.01825502
v 0.01006254 0.02708895 -0.01791734
v 0.01008077 0.02772882 -0.01845841
v 0.00999773 0.02815714 -0.01951839
v 0.00998153 0.02812319 -0.01889127
v -0.00470871 0.00336425 -0.01632803
v 0.00219791 0.02445636 -0.01548579
v -0.00470871 0.03004018 -0.01575046
v -0.00408083 0.03004540 -0.01548579
v 0.00659303 0.03004540 -0.02768138
v 0.00659303 0.03004018 -0.02830980
v 0.00659303 0.03000361 -0.02880524
v 0.00999773 0.02815714 -0.02768138
v 0.00997343 0.02810229 -0.02880524
v 0.00971012 0.02852278 -0.02880524
v 0.00972228 0.02858546 -0.02830980
v 0.00972835 0.02858546 -0.02768138
v 0.00992077 0.00336425 -0.01755750
v 0.00992077 0.01727940 -0.01755750
v 0.00960683 0.02607300 -0.01708553
v 0.00960683 0.02167750 -0.01708292
v 0.00991266 0.02669981 -0.01757314
v 0.00959873 0.02669981 -0.01709596
v 0.01002001 0.02750944 -0.01803990
v 0.00988836 0.02731095 -0.01767875
v 0.00992482 0.02794559 -0.01825502
v 0.00973240 0.02858546 -0.02328502
v 0.00973038 0.02858546 -0.02077524
v 0.00972835 0.02858546 -0.01951839
v 0.00969392 0.02858546 -0.01889127
v 0.00956835 0.02859590 -0.01831500
v -0.00408083 0.00336425 -0.01632803
v 0.00659303 0.02445636 -0.01548579
v 0.00408153 0.03004540 -0.01548579
v 0.00722091 0.03002189 -0.02768138
v 0.00659303 0.03004540 -0.01951839
v 0.00722091 0.03001667 -0.02830980
v 0.00708925 0.02998533 -0.02880524
v 0.00973038 0.02858546 -0.02579741
v 0.00964531 0.02862463 -0.02880524
v 0.00944480 0.02892498 -0.02876613
v 0.00946100 0.02894326 -0.02830980
v 0.00946302 0.02894587 -0.02768138
v 0.00946505 0.02894587 -0.02705295
v 0.00946505 0.02894848 -0.02579741
v 0.00987013 0.00336425 -0.01748058
v 0.00960683 0.01163029 -0.01708162
v 0.00828829 0.02639424 -0.01548579
v 0.00829639 0.02607300 -0.01548579
v 0.00955619 0.02732923 -0.01714941
v 0.00821133 0.02729005 -0.01548579
v 0.00827411 0.02669981 -0.01548579
v 0.00962101 0.02797954 -0.01760444
v 0.00948733 0.02778628 -0.01723546
v 0.00950556 0.02839219 -0.01779348
v 0.00946708 0.02894848 -0.02391344
v 0.00946708 0.02894848 -0.02328502
v 0.00946505 0.02894587 -0.02077524
v 0.00946302 0.02894587 -0.01951839
v 0.00944480 0.02892759 -0.01889127
v 0.00942454 0.02890408 -0.01855880
v 0.00934353 0.02881268 -0.01814029
v 0.00772320 0.00336425 -0.01633064
v 0.00722091 0.02445897 -0.01548579
v 0.00470941 0.03003756 -0.01548579
v 0.00470941 0.03004018 -0.01575046
v 0.00722091 0.03002189 -0.01951839
v 0.00784878 0.02991742 -0.02391344
v 0.00784878 0.02991481 -0.02768138
v 0.00659303 0.03003756 -0.01889127
v 0.00784878 0.02990959 -0.02830980
v 0.00722091 0.02998011 -0.02880524
v 0.00947923 0.02886752 -0.02880524
v 0.00938808 0.02896677 -0.02880524
v 0.00914706 0.02916264 -0.02880524
v 0.00877439 0.02951783 -0.02830980
v 0.00910453 0.02924622 -0.02830980
v 0.00910453 0.02925405 -0.02768138
v 0.00910453 0.02925666 -0.02642584
v 0.00910453 0.02925928 -0.02454187
v 0.00960683 0.00535175 -0.01708162
v 0.00960683 0.00409552 -0.01708292
v 0.00960683 0.00336425 -0.01708423
v 0.00827614 0.02544358 -0.01548579
v 0.00927669 0.00336425 -0.01672699
v 0.00932935 0.00336425 -0.01677001
v 0.00956429 0.00336425 -0.01703338
v 0.00798853 0.02797171 -0.01548579
v 0.00938201 0.02820676 -0.01737497
v 0.00915314 0.02863508 -0.01757054
v 0.00910453 0.02925928 -0.02391344
v 0.00910453 0.02925405 -0.01951839
v 0.00910453 0.02921749 -0.01889127
v 0.00875211 0.02950478 -0.01889127
v 0.00912276 0.02908168 -0.01831500
v 0.00892427 0.02901378 -0.01776741
v 0.00784878 0.00336425 -0.01633194
v 0.00784878 0.02459478 -0.01548579
v 0.00507398 0.03000884 -0.01548579
v 0.00722091 0.03000100 -0.01889127
v 0.00784878 0.02991481 -0.01951839
v 0.00847058 0.02967976 -0.02014681
v 0.00847058 0.02967976 -0.02454187
v 0.00846855 0.02967976 -0.02579741
v 0.00846653 0.02967715 -0.02768138
v 0.00846045 0.02967454 -0.02830980
v 0.00841994 0.02965364 -0.02880524
v 0.00829032 0.02970327 -0.02880524
v 0.00784878 0.02987041 -0.02880524
v 0.00873388 0.02949433 -0.02880524
v 0.00878046 0.02952045 -0.02768138
v 0.00848678 0.02962230 -0.02880524
v 0.00878452 0.02952306 -0.02516899
v 0.00822348 0.02499698 -0.01548579
v 0.00892427 0.00336425 -0.01649752
v 0.00901339 0.00336425 -0.01654446
v 0.00767460 0.02852800 -0.01548579
v 0.00745990 0.02880223 -0.01548579
v 0.00757130 0.02867425 -0.01548579
v 0.00876426 0.02887536 -0.01734889
v 0.00878452 0.02952306 -0.02014681
v 0.00878046 0.02952045 -0.01951839
v 0.00843817 0.02966409 -0.01889127
v 0.00831867 0.02960402 -0.01826285
v 0.00863261 0.02943687 -0.01826285
v 0.00701229 0.02924100 -0.01548579
v 0.00718445 0.02909474 -0.01548579
v 0.00677127 0.02943426 -0.01548579
v 0.00835310 0.00336425 -0.01634759
v 0.00533728 0.02998533 -0.01548579
v 0.00784878 0.02988609 -0.01889127
v 0.00846653 0.02967715 -0.01951839
v 0.00878249 0.02952306 -0.02579741
v 0.00847463 0.00336425 -0.01636323
v 0.00733230 0.02893804 -0.01548579
v 0.00784878 0.02977117 -0.01826285
v 0.00596516 0.02982863 -0.01548579
v 0.00626087 0.02970849 -0.01548579
v 0.00645733 0.02962491 -0.01548579
v 0.00820322 0.02954656 -0.01790822
v 0.00570185 0.02989914 -0.01548579
f 1 2 7
f 1 7 15
f 1 15 27
f 1 27 41
f 1 41 62
f 1 62 103
f 1 103 126
f 1 126 146
f 1 146 172
f 1 172 195
f 1 195 212
f 1 212 234
f 1 234 256
f 1 256 284
f 1 284 321
f 1 321 325
f 1 325 324
f 1 324 323
f 1 323 354
f 1 354 353
f 1 353 372
f 1 372 367
f 1 367 335
f 1 335 301
f 1 301 270
f 1 270 244
f 1 244 219
f 1 219 200
f 1 200 176
f 1 176 148
f 1 148 127
f 1 127 104
f 1 104 85
f 1 85 44
f 1 44 31
f 1 31 19
f 1 19 9
f 1 9 3
f 1 3 10
f 1 10 4
f 1 4 5
f 1 5 6
f 1 6 2
f 2 6 8
f 2 8 7
f 3 9 10
f 4 10 11
f 4 11 23
f 4 23 12
f 4 12 13
f 4 13 6
f 4 6 5
f 6 13 14
f 6 14 17
f 6 17 8
f 7 8 16
f 7 16 15
f 8 17 18
f 8 18 16
f 9 19 20
f 9 20 10
f 10 21 22
f 10 22 11
f 10 20 21
f 11 22 35
f 11 35 23
f 12 23 36
f 12 36 24
f 12 24 14
f 12 14 13
f 14 24 38
f 14 38 25
f 14 25 26
f 14 26 17
f 15 16 27
f 16 18 30
f 16 30 29
f 16 29 43
f 16 43 57
f 16 57 102
f 16 102 124
f 16 124 123
f 16 123 143
f 16 143 166
f 16 166 165
f 16 165 164
f 16 164 190
f 16 190 207
f 16 207 229
f 16 229 250
f 16 250 276
f 16 276 310
f 16 310 347
f 16 347 346
f 16 346 345
f 16 345 350
f 16 350 348
f 16 348 313
f 16 313 312
f 16 312 311
f 16 311 278
f 16 278 253
f 16 253 252
f 16 252 232
f 16 232 231
f 16 231 210
f 16 210 208
f 16 208 191
f 16 191 168
f 16 168 145
f 16 145 125
f 16 125 103
f 16 103 62
f 16 62 61
f 16 61 60
f 16 60 59
f 16 59 58
f 16 58 84
f 16 84 83
f 16 83 82
f 16 82 81
f 16 81 80
f 16 80 79
f 16 79 78
f 16 78 77
f 16 77 76
f 16 76 75
f 16 75 74
f 16 74 73
f 16 73 72
f 16 72 71
f 16 71 70
f 16 70 69
f 16 69 68
f 16 68 67
f 16 67 66
f 16 66 65
f 16 65 64
f 16 64 63
f 16 63 42
f 16 42 28
f 16 28 27
f 17 26 29
f 17 29 30
f 17 30 18
f 19 31 32
f 19 32 20
f 20 32 33
f 20 33 21
f 21 33 22
f 22 33 34
f 22 34 35
f 23 35 36
f 24 36 37
f 24 37 38
f 25 38 53
f 25 53 39
f 25 39 40
f 25 40 26
f 26 40 29
f 27 28 41
f 28 42 41
f 29 40 43
f 31 44 32
f 32 44 45
f 32 45 33
f 33 46 48
f 33 48 34
f 33 45 47
f 33 47 46
f 34 48 49
f 34 49 35
f 35 49 50
f 35 50 36
f 36 50 51
f 36 51 37
f 37 51 52
f 37 52 53
f 37 53 38
f 39 53 97
f 39 97 54
f 39 54 55
f 39 55 40
f 40 55 56
f 40 56 57
f 40 57 43
f 41 58 59
f 41 59 60
f 41 60 61
f 41 61 62
f 41 42 63
f 41 63 64
f 41 64 65
f 41 65 66
f 41 66 67
f 41 67 68
f 41 68 69
f 41 69 70
f 41 70 71
f 41 71 72
f 41 72 73
f 41 73 74
f 41 74 75
f 41 75 76
f 41 76 77
f 41 77 78
f 41 78 79
f 41 79 80
f 41 80 81
f 41 81 82
f 41 82 83
f 41 83 84
f 41 84 58
f 44 85 45
f 45 86 46
f 45 46 47
f 45 85 104
f 45 104 86
f 46 87 88
f 46 88 89
f 46 89 48
f 46 86 87
f 48 89 90
f 48 90 91
f 48 91 49
f 49 91 92
f 49 92 50
f 50 92 51
f 51 92 93
f 51 93 52
f 52 93 94
f 52 94 95
f 52 95 53
f 53 95 96
f 53 96 97
f 54 97 118
f 54 118 98
f 54 98 55
f 55 98 99
f 55 99 100
f 55 100 56
f 56 100 101
f 56 101 102
f 56 102 57
f 86 104 105
f 86 105 87
f 87 105 88
f 88 105 89
f 89 105 106
f 89 106 90
f 90 107 108
f 90 108 109
f 90 109 110
f 90 110 111
f 90 111 91
f 90 106 107
f 91 111 92
f 92 111 112
f 92 112 93
f 93 112 113
f 93 113 94
f 94 113 114
f 94 114 115
f 94 115 95
f 95 115 116
f 95 116 96
f 96 116 117
f 96 117 97
f 97 117 118
f 98 118 137
f 98 137 119
f 98 119 99
f 99 119 120
f 99 120 121
f 99 121 100
f 100 121 122
f 100 122 101
f 101 122 123
f 101 123 124
f 101 124 102
f 103 125 144
f 103 144 126
f 104 127 105
f 105 128 149
f 105 149 177
f 105 177 201
f 105 201 223
f 105 223 222
f 105 222 221
f 105 221 220
f 105 220 245
f 105 245 271
f 105 271 302
f 105 302 336
f 105 336 352
f 105 352 322
f 105 322 287
f 105 287 286
f 105 286 290
f 105 290 289
f 105 289 326
f 105 326 355
f 105 355 357
f 105 357 356
f 105 356 373
f 105 373 365
f 105 365 364
f 105 364 366
f 105 366 377
f 105 377 376
f 105 376 375
f 105 375 379
f 105 379 368
f 105 368 337
f 105 337 303
f 105 303 272
f 105 272 247
f 105 247 224
f 105 224 202
f 105 202 181
f 105 181 179
f 105 179 178
f 105 178 155
f 105 155 154
f 105 154 152
f 105 152 151
f 105 151 150
f 105 150 129
f 105 129 110
f 105 110 109
f 105 109 108
f 105 108 107
f 105 107 106
f 105 127 128
f 110 129 111
f 111 129 130
f 111 130 112
f 112 130 113
f 113 130 131
f 113 131 114
f 114 131 132
f 114 132 133
f 114 133 115
f 115 133 134
f 115 134 135
f 115 135 116
f 116 135 136
f 116 136 117
f 117 136 137
f 117 137 138
f 117 138 118
f 118 138 137
f 119 137 160
f 119 160 139
f 119 139 120
f 120 139 121
f 121 139 140
f 121 140 141
f 121 141 122
f 122 141 142
f 122 142 123
f 123 142 143
f 125 145 167
f 125 167 144
f 126 144 167
f 126 167 147
f 126 147 173
f 126 173 146
f 127 148 128
f 128 148 149
f 129 150 130
f 130 150 151
f 130 151 131
f 131 151 152
f 131 152 153
f 131 153 132
f 132 153 154
f 132 154 155
f 132 155 156
f 132 156 133
f 133 156 134
f 134 156 157
f 134 157 158
f 134 158 159
f 134 159 135
f 135 159 136
f 136 159 160
f 136 160 137
f 139 160 186
f 139 186 161
f 139 161 140
f 140 161 162
f 140 162 141
f 141 162 163
f 141 163 142
f 142 163 164
f 142 164 165
f 142 165 166
f 142 166 143
f 145 168 169
f 145 169 170
f 145 170 171
f 145 171 147
f 145 147 167
f 146 173 172
f 147 171 192
f 147 192 174
f 147 174 197
f 147 197 175
f 147 175 173
f 148 176 177
f 148 177 149
f 152 154 153
f 155 178 156
f 156 178 179
f 156 179 180
f 156 180 157
f 157 179 181
f 157 181 182
f 157 182 183
f 157 183 158
f 157 180 179
f 158 184 159
f 158 183 185
f 158 185 184
f 159 184 186
f 159 186 160
f 161 186 187
f 161 187 188
f 161 188 162
f 162 188 163
f 163 188 189
f 163 189 164
f 164 189 190
f 168 191 169
f 169 192 170
f 169 191 208
f 169 208 193
f 169 193 209
f 169 209 192
f 170 192 171
f 172 194 195
f 172 173 194
f 173 175 196
f 173 196 194
f 174 192 209
f 174 209 198
f 174 198 215
f 174 215 197
f 175 197 214
f 175 214 199
f 175 199 196
f 176 200 201
f 176 201 177
f 181 202 183
f 181 183 182
f 183 202 203
f 183 203 185
f 184 185 186
f 185 187 186
f 185 203 204
f 185 204 187
f 187 204 205
f 187 205 188
f 188 205 206
f 188 206 189
f 189 206 207
f 189 207 190
f 193 208 210
f 193 210 211
f 193 211 209
f 194 212 195
f 194 196 213
f 194 213 212
f 196 199 213
f 197 215 214
f 198 216 215
f 198 209 230
f 198 230 217
f 198 217 216
f 199 218 213
f 199 214 218
f 200 219 220
f 200 220 221
f 200 221 222
f 200 222 223
f 200 223 201
f 202 224 203
f 203 224 204
f 204 224 225
f 204 225 226
f 204 226 227
f 204 227 205
f 205 227 228
f 205 228 206
f 206 228 229
f 206 229 207
f 209 211 230
f 210 231 211
f 211 231 232
f 211 232 233
f 211 233 251
f 211 251 230
f 212 213 235
f 212 235 234
f 213 218 236
f 213 236 237
f 213 237 257
f 213 257 235
f 214 238 218
f 214 215 239
f 214 239 240
f 214 240 238
f 215 216 241
f 215 241 239
f 216 217 242
f 216 242 243
f 216 243 241
f 217 230 251
f 217 251 242
f 218 238 260
f 218 260 236
f 219 244 220
f 220 244 245
f 224 246 226
f 224 226 225
f 224 247 246
f 226 247 272
f 226 272 274
f 226 274 248
f 226 248 227
f 226 246 247
f 227 248 249
f 227 249 228
f 228 249 250
f 228 250 229
f 232 252 233
f 233 252 253
f 233 253 254
f 233 254 255
f 233 255 251
f 234 235 257
f 234 257 256
f 236 258 259
f 236 259 237
f 236 260 261
f 236 261 258
f 237 259 257
f 238 240 260
f 239 241 262
f 239 262 240
f 240 262 263
f 240 263 260
f 241 243 264
f 241 264 262
f 242 251 265
f 242 265 266
f 242 266 267
f 242 267 268
f 242 268 243
f 243 268 269
f 243 269 264
f 244 270 271
f 244 271 245
f 248 273 275
f 248 275 249
f 248 274 305
f 248 305 273
f 249 275 276
f 249 276 250
f 251 255 277
f 251 277 265
f 253 278 254
f 254 278 279
f 254 279 280
f 254 280 255
f 255 280 281
f 255 281 282
f 255 282 283
f 255 283 294
f 255 294 277
f 256 257 284
f 257 285 284
f 257 259 285
f 258 261 286
f 258 286 287
f 258 287 259
f 259 287 285
f 260 263 288
f 260 288 261
f 261 289 290
f 261 290 286
f 261 288 289
f 262 264 291
f 262 291 292
f 262 292 263
f 263 292 288
f 264 269 293
f 264 293 291
f 265 277 294
f 265 294 295
f 265 295 266
f 266 295 296
f 266 296 297
f 266 297 267
f 267 297 298
f 267 298 268
f 268 298 299
f 268 299 269
f 269 299 300
f 269 300 293
f 270 301 302
f 270 302 271
f 272 303 304
f 272 304 274
f 273 305 306
f 273 306 307
f 273 307 309
f 273 309 275
f 274 304 303
f 274 303 308
f 274 308 305
f 275 309 310
f 275 310 276
f 278 311 279
f 279 311 312
f 279 312 313
f 279 313 314
f 279 314 315
f 279 315 280
f 280 315 316
f 280 316 281
f 281 316 282
f 282 316 317
f 282 317 283
f 283 317 318
f 283 318 294
f 284 319 320
f 284 320 321
f 284 285 319
f 285 287 319
f 287 322 323
f 287 323 324
f 287 324 325
f 287 325 320
f 287 320 319
f 288 292 289
f 289 292 326
f 291 293 327
f 291 327 292
f 292 327 326
f 293 300 328
f 293 328 327
f 294 318 329
f 294 329 295
f 295 329 330
f 295 330 297
f 295 297 296
f 297 330 298
f 298 330 331
f 298 331 299
f 299 331 332
f 299 332 333
f 299 333 300
f 300 333 334
f 300 334 328
f 301 335 336
f 301 336 302
f 303 337 338
f 303 338 305
f 303 305 308
f 305 338 339
f 305 339 306
f 306 339 340
f 306 340 341
f 306 341 342
f 306 342 307
f 307 342 343
f 307 343 344
f 307 344 309
f 309 344 345
f 309 345 346
f 309 346 347
f 309 347 310
f 313 348 314
f 314 349 316
f 314 316 315
f 314 348 350
f 314 350 344
f 314 344 343
f 314 343 349
f 316 349 351
f 316 351 317
f 317 351 318
f 318 351 359
f 318 359 329
f 320 325 321
f 322 352 353
f 322 353 354
f 322 354 323
f 326 327 355
f 327 328 356
f 327 356 357
f 327 357 355
f 328 334 358
f 328 358 356
f 329 359 330
f 330 359 360
f 330 360 331
f 331 360 332
f 332 360 361
f 332 361 362
f 332 362 363
f 332 363 333
f 333 363 334
f 334 364 365
f 334 365 358
f 334 363 366
f 334 366 364
f 335 367 336
f 336 367 352
f 337 368 338
f 338 368 369
f 338 369 339
f 339 369 361
f 339 361 370
f 339 370 340
f 340 370 360
f 340 360 359
f 340 359 351
f 340 351 341
f 341 351 342
f 342 351 371
f 342 371 349
f 342 349 343
f 344 350 345
f 349 371 351
f 352 367 372
f 352 372 353
f 356 358 373
f 358 365 373
f 360 370 361
f 361 369 362
f 362 369 374
f 362 374 375
f 362 375 376
f 362 376 377
f 362 377 378
f 362 378 363
f 363 378 377
f 363 377 366
f 368 379 369
f 369 379 375
f 369 375 374

