# https://github.com/mikedh/trimesh
v 0.00659273 0.03000362 -0.02880524
v 0.00659273 0.02999319 -0.02894033
v -0.00659257 0.03000362 -0.02880524
v 0.00722098 0.02998015 -0.02880524
v -0.00659257 0.02999319 -0.02894033
v 0.00722098 0.02996972 -0.02894033
v 0.00973401 0.02631645 -0.05468553
v 0.00910575 0.02633210 -0.05468553
v -0.00722082 0.02998015 -0.02880524
v 0.00784924 0.02986802 -0.02880524
v -0.00722082 0.02996972 -0.02894033
v 0.00847749 0.02632688 -0.05468553
v 0.00784924 0.02985759 -0.02894033
v 0.01019661 0.02603222 -0.05468553
v 0.01014611 0.02594096 -0.05510640
v 0.00973401 0.02603483 -0.05516614
v 0.00840881 0.02964898 -0.02894033
v 0.00873405 0.02949513 -0.02880524
v 0.00910575 0.02603744 -0.05517134
v -0.00784908 0.02987063 -0.02880524
v 0.00828962 0.02970374 -0.02880524
v -0.00722082 0.02981848 -0.02956642
v -0.00784908 0.02985759 -0.02894033
v 0.00847749 0.02603222 -0.05515835
v 0.00798054 0.02593835 -0.05509600
v 0.00780278 0.02609741 -0.05473489
v -0.00789352 0.02967245 -0.02961578
v 0.01034610 0.02544551 -0.05468553
v 0.00906737 0.02922655 -0.02880524
v 0.00938857 0.02896579 -0.02880524
v 0.00947947 0.02886931 -0.02880524
v 0.00964512 0.02862680 -0.02880524
v 0.00971178 0.02852249 -0.02880524
v 0.00997238 0.02810267 -0.02880524
v 0.01007742 0.02785494 -0.02880524
v 0.01010369 0.02778975 -0.02880524
v 0.01013197 0.02768023 -0.02880524
v 0.01019661 0.02544551 -0.05515835
v 0.00973401 0.02544551 -0.05533241
v 0.00910575 0.02544551 -0.05534540
v 0.00841891 0.02965420 -0.02880524
v -0.00840865 0.02964898 -0.02894033
v -0.00841875 0.02965420 -0.02880524
v -0.00829552 0.02959161 -0.02943653
v 0.00847749 0.02544551 -0.05531682
v 0.00734623 0.02594878 -0.05456083
v 0.00788762 0.02544551 -0.05514536
v 0.00757450 0.02544551 -0.05496870
v 0.00717048 0.02610263 -0.05410880
v -0.00813189 0.02951599 -0.02985479
v 0.01021883 0.02732821 -0.02880524
v 0.01023499 0.02719522 -0.02880524
v 0.01028954 0.02669977 -0.02880524
v 0.01032388 0.02607395 -0.02880524
v 0.01034610 0.02544551 -0.02880524
v 0.01034610 0.01665525 -0.05468553
v 0.01019661 0.01665525 -0.05515835
v 0.00973401 0.01728108 -0.05533241
v 0.00910575 0.01853795 -0.05534540
v 0.00847749 0.02104908 -0.05532202
v 0.00847749 0.02356021 -0.05531942
v -0.00872177 0.02948731 -0.02894033
v -0.00873389 0.02949513 -0.02880524
v -0.00849349 0.02941691 -0.02961578
v 0.00483523 0.02594878 -0.05204866
v 0.00725128 0.02544551 -0.05465696
v 0.00693615 0.02544551 -0.05434261
v 0.00788560 0.02293177 -0.05514796
v 0.00757248 0.02418864 -0.05497130
v 0.00757450 0.02481708 -0.05497130
v 0.00690382 0.01706725 -0.05437379
v 0.00591397 0.02610263 -0.05285142
v -0.00888540 0.02897883 -0.03000027
v 0.00528773 0.02610263 -0.05222272
v 0.00465948 0.02610002 -0.05159403
v 0.00405950 0.02608438 -0.05092637
v 0.01034610 0.00346855 -0.02880524
v 0.01034610 0.01225881 -0.05028988
v 0.01030166 0.01539838 -0.05405684
v 0.01029358 0.01602681 -0.05468553
v 0.01014611 0.01602681 -0.05509860
v 0.00973401 0.01665525 -0.05529864
v 0.00910575 0.01728108 -0.05531942
v 0.00910575 0.01790951 -0.05534280
v 0.00847749 0.01853795 -0.05532202
v 0.00788560 0.01916377 -0.05515056
v -0.00900862 0.02908313 -0.02956642
v -0.00940457 0.02888495 -0.02918713
v -0.00916013 0.02913528 -0.02896371
v -0.00939043 0.02896579 -0.02880524
v 0.00425343 0.02594617 -0.05141737
v 0.00505340 0.02544551 -0.05245653
v 0.00474028 0.02544551 -0.05214219
v 0.00442514 0.02544551 -0.05182265
v 0.00627355 0.01790951 -0.05374769
v 0.00627557 0.01853795 -0.05374509
v 0.00565741 0.02042064 -0.05310861
v 0.00757046 0.01853795 -0.05497390
v 0.00757046 0.02230595 -0.05497130
v 0.00690382 0.01693166 -0.05437379
v -0.00910357 0.02858247 -0.03019512
v -0.00947527 0.02835039 -0.02997170
v -0.00932174 0.02879108 -0.02956642
v 0.00367770 0.02592010 -0.05072373
v -0.00007769 0.02591227 -0.04568900
v 0.01034408 0.00336425 -0.02880524
v 0.01034610 0.00346855 -0.04087249
v 0.01034610 0.01163038 -0.04966119
v 0.01029358 0.01414412 -0.05279946
v 0.01021883 0.00470717 -0.04339505
v 0.01015419 0.01480645 -0.05401787
v 0.01015217 0.01544010 -0.05464916
v 0.01034610 0.00786238 -0.04589164
v 0.01034206 0.00535125 -0.04337947
v 0.01034004 0.00472281 -0.04275337
v 0.01033600 0.00409438 -0.04212468
v 0.01033196 0.00346855 -0.04149859
v 0.01007945 0.01568000 -0.05502586
v 0.00974613 0.01600856 -0.05512198
v 0.00910575 0.01665525 -0.05520252
v 0.00847749 0.01728108 -0.05524668
v 0.00847749 0.01790951 -0.05531682
v 0.00788560 0.01853795 -0.05515056
v -0.00956618 0.02847556 -0.02956642
v -0.00962072 0.02863984 -0.02896371
v -0.00947729 0.02887191 -0.02880524
v -0.00944093 0.02892146 -0.02880524
v 0.00504128 0.02293177 -0.05246693
v 0.00417869 0.02544551 -0.05151090
v 0.00442514 0.02481708 -0.05182524
v 0.00384739 0.02167751 -0.05112901
v 0.00627355 0.01665525 -0.05374769
v 0.00565741 0.01665525 -0.05310861
v 0.00757248 0.01790951 -0.05497390
v 0.00693211 0.01651705 -0.05435560
v 0.00627557 0.01633190 -0.05374769
v 0.00761086 0.01728108 -0.05496611
v -0.00932376 0.02810788 -0.03038996
v -0.00955810 0.02792274 -0.03018732
v -0.00987929 0.02792535 -0.02954045
v 0.00310399 0.02584448 -0.05002230
v 0.00122326 0.02583665 -0.04750493
v 0.00179899 0.02591488 -0.04820637
v -0.00063121 0.02577407 -0.04495899
v -0.00944093 0.02769067 -0.03053544
v 0.00303934 0.00336425 -0.02880524
v 0.01034408 0.00336425 -0.03134859
v 0.01031580 0.00336425 -0.04087249
v 0.01030570 0.00336425 -0.04137908
v 0.01021479 0.00408395 -0.04276117
v 0.01013601 0.00366412 -0.04255853
v 0.01014207 0.00490795 -0.04382890
v 0.01014409 0.00552857 -0.04446539
v 0.01008955 0.01504114 -0.05441535
v 0.01029964 0.00336425 -0.04149859
v 0.01020267 0.00336425 -0.04200518
v 0.01020873 0.00346073 -0.04212728
v 0.00996632 0.01568000 -0.05502586
v 0.00910575 0.01623282 -0.05505444
v 0.00803105 0.01687429 -0.05503885
v 0.00792600 0.01728108 -0.05509860
v 0.00788560 0.01790951 -0.05514276
v -0.00996616 0.02808963 -0.02894033
v -0.00964496 0.02862680 -0.02880524
v -0.00991566 0.02819393 -0.02880524
v 0.00386557 0.02544551 -0.05110043
v 0.00385143 0.02293177 -0.05112121
v 0.00385345 0.02356021 -0.05111602
v 0.00416051 0.01790951 -0.05151090
v 0.00384739 0.01916377 -0.05113420
v 0.00442514 0.01602681 -0.05182524
v 0.00359084 0.01853795 -0.05081986
v 0.00302116 0.01539838 -0.05012362
v 0.00474028 0.01602681 -0.05215258
v 0.00783308 0.01666307 -0.05487778
v 0.00735229 0.01622760 -0.05446471
v 0.00642506 0.01591208 -0.05366976
v 0.00504330 0.01602681 -0.05246693
v 0.00514834 0.01539838 -0.05240458
v 0.00477462 0.01539838 -0.05209023
v 0.00446150 0.01539838 -0.05179667
v -0.00975405 0.02732821 -0.03019512
v -0.00999646 0.02732821 -0.02974568
v -0.01006717 0.02769327 -0.02931183
v 0.00175253 0.02544551 -0.04826612
v 0.00042329 0.02544551 -0.04648136
v 0.00011018 0.02544551 -0.04605790
v -0.00012012 0.02544551 -0.04574356
v -0.00043323 0.02544551 -0.04527853
v -0.00063525 0.02544551 -0.04496419
v -0.00983485 0.02669977 -0.03019512
v 0.00300904 0.00336425 -0.02912218
v -0.00262506 0.00808142 -0.02880524
v -0.00302504 0.00827177 -0.03019512
v -0.00429974 0.00888456 -0.03459077
v -0.00433812 0.00885327 -0.03521946
v -0.00439468 0.00880634 -0.03616769
v -0.00444922 0.00875940 -0.03710294
v -0.00376642 0.00817790 -0.03741209
v 0.01004914 0.01131486 -0.05060423
v 0.01005722 0.01193547 -0.05124072
v 0.01007136 0.01317930 -0.05251109
v 0.01008348 0.01442052 -0.05378146
v 0.01018853 0.00336425 -0.04207792
v 0.00973401 0.00336425 -0.04223899
v 0.00973401 0.00366412 -0.04255853
v 0.00992592 0.01504114 -0.05441535
v 0.00784924 0.01579474 -0.05429325
v 0.00954614 0.01578952 -0.05495052
v 0.00877041 0.01633190 -0.05500508
v 0.00973603 0.01539838 -0.05468293
v 0.00835225 0.01645968 -0.05494013
v -0.01000050 0.02803748 -0.02880524
v -0.00997222 0.02810267 -0.02880524
v -0.01009747 0.02777672 -0.02894033
v 0.00361104 0.02230595 -0.05081206
v 0.00302924 0.01665525 -0.05011842
v 0.00303328 0.01728108 -0.05011583
v 0.00416051 0.01602681 -0.05151090
v 0.00358881 0.01728108 -0.05081986
v 0.00384739 0.01602681 -0.05113420
v 0.00416657 0.01539838 -0.05148492
v 0.00385345 0.01539838 -0.05113420
v 0.00327570 0.01539838 -0.05043796
v 0.00302116 0.01477255 -0.05011842
v 0.00270602 0.01477255 -0.04971315
v 0.00270804 0.01539838 -0.04971055
v 0.00684322 0.01568000 -0.05377627
v 0.00611396 0.01557048 -0.05324890
v 0.00488169 0.01495769 -0.05197073
v 0.00368780 0.01437359 -0.05067178
v 0.00305954 0.01429797 -0.05006647
v 0.00330398 0.01477255 -0.05043277
v -0.01003686 0.02669977 -0.02985219
v -0.01010555 0.02732821 -0.02943133
v -0.01020857 0.02732821 -0.02894033
v 0.00119296 0.02356021 -0.04754650
v 0.00041521 0.02418864 -0.04649175
v 0.00010614 0.02481708 -0.04606310
v -0.00043525 0.02481708 -0.04528113
v 0.00010210 0.02418864 -0.04606570
v 0.00009604 0.02293177 -0.04607089
v -0.00012214 0.02418864 -0.04575135
v -0.00063727 0.02481708 -0.04496938
v -0.00329574 0.01288725 -0.04080754
v -0.00381087 0.01037612 -0.04000219
v -0.00432196 0.00974768 -0.03918386
v -0.00451589 0.00974768 -0.03886951
v -0.00502092 0.01037612 -0.03804078
v -0.00571584 0.01100455 -0.03689770
v -0.00690972 0.01193808 -0.03491031
v 0.00298480 0.00336425 -0.02972490
v -0.00345331 0.00790671 -0.03773163
v -0.00306949 0.00760162 -0.03773163
v -0.00294020 0.00835261 -0.02880524
v -0.00298666 0.00830567 -0.02956642
v -0.00386743 0.00871768 -0.03270729
v -0.00465932 0.00900451 -0.03641709
v -0.00426135 0.00892107 -0.03396207
v -0.00509162 0.00936697 -0.03647424
v -0.00476436 0.00902537 -0.03710294
v -0.00446741 0.00874375 -0.03773163
v -0.00377653 0.00817008 -0.03773163
v 0.01004308 0.01131486 -0.05060423
v 0.01002288 0.01193547 -0.05124072
v 0.00994612 0.01442052 -0.05378146
v 0.00971784 0.00336425 -0.04223379
v 0.00561903 0.00439686 -0.04182592
v 0.00950775 0.01511937 -0.05433482
v 0.00722098 0.01560177 -0.05385680
v -0.01010353 0.02778975 -0.02880524
v -0.01021867 0.02732821 -0.02880524
v 0.00271815 0.01728108 -0.04969497
v 0.00305146 0.02042064 -0.05009244
v 0.00358881 0.01539838 -0.05081986
v 0.00250805 0.01382338 -0.04935204
v 0.00248785 0.01414412 -0.04937802
v 0.00221716 0.01414412 -0.04903250
v 0.00192626 0.01414412 -0.04866100
v 0.00247169 0.01477255 -0.04939880
v 0.00194040 0.01790951 -0.04864022
v 0.00171819 0.01979221 -0.04831288
v 0.00683716 0.01505157 -0.05314758
v 0.00641900 0.01515066 -0.05304886
v 0.00559277 0.01504635 -0.05252668
v 0.00438676 0.01445182 -0.05123812
v 0.00318681 0.01387814 -0.04994436
v -0.01014191 0.02669977 -0.02953785
v -0.00759656 0.01351568 -0.03375684
v -0.00828138 0.01477255 -0.03259818
v -0.00878237 0.01602681 -0.03174866
v -0.00894398 0.01602681 -0.03143432
v -0.00942275 0.01693948 -0.03051466
v -0.01028130 0.02669977 -0.02894033
v 0.00117478 0.02042064 -0.04756988
v 0.00041117 0.02293177 -0.04650214
v -0.00043525 0.02418864 -0.04528373
v -0.00063929 0.02418864 -0.04496938
v 0.00063339 0.02104908 -0.04682688
v 0.00009200 0.02167751 -0.04607349
v 0.00062531 0.01899167 -0.04683727
v 0.00061925 0.01728108 -0.04684507
v -0.00012214 0.02293177 -0.04575655
v -0.00309979 0.01288725 -0.04112189
v -0.00361290 0.01037612 -0.04031654
v -0.00405328 0.00974768 -0.03961511
v -0.00379673 0.00937219 -0.03997102
v -0.00447549 0.00924441 -0.03880456
v -0.00481891 0.00974768 -0.03836032
v -0.00521081 0.01037612 -0.03772643
v -0.00501284 0.00974768 -0.03801480
v -0.00565523 0.01005277 -0.03680158
v -0.00696629 0.01184942 -0.03459077
v -0.00819452 0.01377123 -0.03248387
v -0.00824502 0.01414412 -0.03256440
v -0.00877833 0.01539838 -0.03171489
v 0.00297268 0.00336425 -0.03034320
v -0.00275435 0.00737476 -0.03773163
v -0.00377855 0.00816747 -0.03809533
v -0.00304928 0.00761466 -0.03836032
v -0.00273617 0.00738779 -0.03836032
v -0.00321695 0.00860033 -0.02880524
v -0.00329978 0.00865770 -0.02894033
v -0.00379269 0.00878287 -0.03157720
v -0.00511182 0.00933829 -0.03710294
v -0.00328968 0.00866552 -0.02880524
v -0.00369774 0.00886892 -0.03019512
v -0.00365532 0.00891064 -0.02956642
v -0.00502496 0.00942955 -0.03551302
v -0.00504920 0.00940869 -0.03584815
v -0.00541888 0.00979201 -0.03579360
v -0.00567543 0.01003191 -0.03596506
v -0.00444114 0.00876461 -0.03821484
v 0.00922292 0.00336425 -0.04201557
v 0.00614628 0.00373974 -0.04124139
v 0.00594831 0.00399007 -0.04147001
v 0.00572812 0.00380754 -0.04114267
v 0.00538066 0.00423519 -0.04151158
v 0.00520087 0.00448291 -0.04172980
v 0.00540692 0.00475150 -0.04209610
v 0.00559883 0.00626913 -0.04371979
v 0.00558671 0.00751817 -0.04498237
v -0.01029140 0.02669977 -0.02880524
v 0.00178687 0.01309325 -0.04818558
v 0.00130608 0.01263431 -0.04742700
v -0.00004335 0.01188332 -0.04562925
v 0.00118488 0.01305414 -0.04755170
v 0.00140305 0.01351568 -0.04791540
v 0.00115054 0.01351568 -0.04760106
v 0.00169597 0.01414412 -0.04834665
v 0.00169799 0.01477255 -0.04834406
v 0.00193232 0.01602681 -0.04865061
v 0.00117276 0.01979221 -0.04757508
v 0.00596447 0.01181291 -0.04947934
v 0.00558469 0.00814400 -0.04561106
v 0.00537460 0.00788063 -0.04524736
v 0.00596447 0.01431883 -0.05199671
v 0.00596447 0.01463435 -0.05231105
v 0.00596447 0.01494987 -0.05262280
v 0.00596447 0.01275165 -0.05042238
v 0.00470998 0.01403721 -0.05103029
v 0.00470998 0.01435012 -0.05133424
v 0.00557863 0.01441531 -0.05190058
v 0.00433222 0.01127835 -0.04812843
v 0.00317469 0.01322363 -0.04932606
v 0.00360700 0.01372951 -0.05007166
v 0.00245553 0.01315583 -0.04876232
v -0.00978233 0.01853795 -0.02956642
v -0.00996414 0.01853795 -0.02894033
v -0.00858440 0.01539838 -0.03207860
v -0.00888540 0.01539838 -0.03140054
v -0.00916013 0.01602681 -0.03082381
v -0.00946315 0.01685343 -0.03019512
v -0.00993788 0.01790951 -0.02880524
v -0.00999242 0.01853795 -0.02880524
v -0.00012214 0.02167751 -0.04575914
v -0.00043525 0.01288725 -0.04528373
v -0.00063929 0.01225881 -0.04496938
v -0.00329978 0.01100455 -0.04081014
v 0.00061723 0.01602681 -0.04684767
v 0.00008998 0.02042064 -0.04607349
v 0.00115458 0.01477255 -0.04760106
v 0.00115256 0.01414412 -0.04760365
v -0.00329978 0.01037612 -0.04080754
v -0.00381087 0.00974768 -0.03999700
v -0.00320281 0.00934872 -0.04062829
v -0.00366946 0.00895236 -0.03981774
v -0.00392803 0.00914532 -0.03961251
v -0.00427953 0.00906970 -0.03900460
v -0.00063525 0.01192243 -0.04496159
v -0.00252405 0.01004234 -0.04182852
v -0.00508152 0.00936436 -0.03758615
v -0.00516030 0.00974768 -0.03770045
v -0.00438256 0.00882720 -0.03863310
v -0.00567341 0.01003452 -0.03647424
v -0.00644510 0.01105410 -0.03521946
v -0.00680266 0.01153390 -0.03459077
v -0.00726526 0.01225881 -0.03396207
v -0.00819856 0.01376862 -0.03207860
v -0.00881873 0.01503592 -0.03129143
v -0.00752182 0.01261084 -0.03333598
v -0.00853390 0.01477255 -0.03207860
v 0.00297066 0.00336425 -0.03082381
v -0.00228770 0.00707488 -0.03836032
v -0.00230386 0.00706184 -0.03773163
v -0.00373208 0.00820919 -0.03851620
v -0.00349573 0.00797451 -0.03832655
v -0.00294020 0.00770332 -0.03898642
v -0.00262708 0.00746602 -0.03898642
v -0.00215841 0.00712182 -0.03898901
v -0.00192206 0.00689495 -0.03878378
v -0.00081908 0.00615700 -0.03898642
v -0.00360482 0.00896279 -0.02880524
v -0.00361290 0.00895236 -0.02894033
v -0.00391995 0.00927571 -0.02880524
v -0.00487143 0.00958862 -0.03333598
v -0.00526737 0.00981027 -0.03459077
v -0.00564917 0.01006320 -0.03554679
v -0.00646126 0.01112711 -0.03396207
v -0.00648954 0.01108278 -0.03459077
v -0.00623905 0.01074118 -0.03521946
v 0.00752400 0.00336425 -0.04122321
v 0.00679272 0.00336425 -0.04086989
v 0.00659273 0.00341901 -0.04087249
v 0.00594831 0.00361719 -0.04090886
v 0.00533823 0.00371367 -0.04068804
v 0.00501098 0.00377625 -0.04056594
v 0.00533823 0.00388577 -0.04100239
v 0.00365144 0.00436296 -0.04063608
v 0.00438070 0.00440469 -0.04119203
v 0.00470998 0.00433428 -0.04128556
v 0.00307167 0.00500704 -0.04122061
v 0.00470998 0.00491056 -0.04194283
v 0.00519279 0.00510874 -0.04236628
v 0.00150608 0.01220927 -0.04719578
v 0.00128588 0.01196937 -0.04681130
v 0.00059702 0.01191722 -0.04623196
v -0.00009992 0.01122098 -0.04503693
v -0.00072817 0.01118448 -0.04443941
v 0.00065561 0.01273340 -0.04680870
v 0.00083742 0.01351568 -0.04716201
v 0.00083742 0.01414412 -0.04716201
v 0.00062127 0.01315323 -0.04684507
v 0.00557661 0.01065253 -0.04812843
v 0.00557257 0.01190679 -0.04938581
v 0.00557055 0.01316105 -0.05064320
v 0.00412819 0.01165906 -0.04837783
v 0.00345347 0.01058473 -0.04693599
v 0.00339286 0.01098891 -0.04729191
v 0.00359285 0.01309325 -0.04945076
v 0.00515238 0.01263692 -0.04991059
v 0.00432414 0.01064731 -0.04750493
v 0.00307975 0.00751296 -0.04373018
v 0.00309995 0.00878026 -0.04497458
v 0.00240099 0.01123924 -0.04691001
v 0.00243331 0.01251436 -0.04814662
v 0.00316459 0.01258737 -0.04870516
v 0.00186162 0.00565112 -0.04119983
v 0.00124750 0.01068382 -0.04558508
v -0.00974597 0.01747925 -0.02880524
v -0.00881873 0.01503592 -0.03100566
v -0.00012214 0.01288725 -0.04575914
v 0.00008998 0.01288725 -0.04607349
v -0.00309575 0.01037612 -0.04112189
v -0.00258466 0.01100455 -0.04192724
v 0.00061723 0.01351568 -0.04684767
v -0.00257254 0.00936697 -0.04124139
v -0.00302302 0.00892889 -0.04045423
v -0.00325130 0.00868899 -0.04003597
v -0.00188974 0.01005277 -0.04244422
v -0.00384319 0.00872550 -0.03939948
v -0.00120492 0.01075944 -0.04365225
v -0.00397248 0.00861337 -0.03898642
v -0.00363916 0.00829785 -0.03898642
v -0.00332604 0.00801623 -0.03898642
v -0.00701881 0.01178684 -0.03396207
v -0.00817836 0.01380513 -0.03168371
v -0.00770363 0.01294462 -0.03270729
v -0.00798645 0.01345571 -0.03207860
v -0.00729355 0.01225881 -0.03333598
v 0.00250401 0.00440469 -0.03932155
v 0.00431000 0.00375017 -0.03946703
v 0.00533823 0.00342422 -0.03961511
v 0.00553823 0.00336425 -0.03961251
v -0.00199074 0.00685063 -0.03773163
v -0.00118270 0.00633953 -0.03836032
v -0.00086958 0.00613614 -0.03836032
v -0.00003325 0.00564591 -0.03880456
v 0.00120104 0.00500965 -0.03885652
v -0.00197458 0.00686106 -0.03836032
v -0.00253617 0.00752860 -0.03933713
v -0.00184732 0.00694971 -0.03920204
v -0.00161096 0.00672285 -0.03898901
v -0.00113421 0.00638126 -0.03898642
v -0.00072615 0.00621958 -0.03948261
v 0.00002331 0.00567720 -0.03922542
v -0.00027163 0.00581540 -0.03900460
v -0.00423307 0.00960166 -0.02880524
v -0.00424317 0.00959123 -0.02894033
v -0.00567341 0.01066556 -0.03162137
v -0.00499870 0.01008667 -0.03082381
v -0.00540272 0.01031614 -0.03207860
v -0.00544716 0.01026921 -0.03270729
v -0.00579866 0.01053779 -0.03333598
v -0.00588755 0.01044652 -0.03459077
v -0.00641076 0.01117405 -0.03333598
v -0.00636227 0.01122359 -0.03270729
v -0.00677438 0.01147392 -0.03396207
v 0.00666949 0.00336425 -0.04079715
v 0.00596447 0.00336425 -0.04028017
v 0.00594023 0.00336425 -0.04026199
v 0.00592003 0.00336425 -0.04024380
v 0.00533823 0.00355721 -0.04024380
v 0.00487361 0.00372671 -0.04024380
v 0.00302318 0.00436296 -0.04004636
v 0.00323327 0.00444641 -0.04046722
v 0.00284743 0.00486884 -0.04088028
v 0.00344741 0.00458983 -0.04085690
v 0.00396254 0.00449595 -0.04105435
v 0.00265148 0.00510874 -0.04109591
v 0.00285955 0.00536689 -0.04148040
v 0.00306560 0.00562505 -0.04185190
v 0.00345347 0.00521565 -0.04163108
v 0.00390597 0.00510613 -0.04174539
v 0.00002735 0.00757033 -0.04179475
v 0.00054854 0.01062384 -0.04501355
v 0.00057076 0.01126792 -0.04562405
v 0.00004553 0.00821180 -0.04240525
v -0.00062313 0.00880894 -0.04243643
v -0.00057060 0.01011275 -0.04364965
v -0.00054636 0.01076726 -0.04425496
v 0.00470998 0.00960948 -0.04665802
v 0.00410798 0.00850385 -0.04525255
v 0.00267168 0.00827438 -0.04422898
v 0.00307167 0.00688192 -0.04310669
v 0.00219696 0.00555203 -0.04129855
v 0.00219696 0.00587277 -0.04161289
v 0.00265350 0.00700447 -0.04298459
v 0.00196868 0.01074901 -0.04614883
v 0.00198282 0.01138787 -0.04676713
v 0.00162728 0.00662898 -0.04197920
v 0.00074045 0.00700187 -0.04173759
v 0.00044552 0.00741908 -0.04193763
v 0.00156870 0.00991979 -0.04508629
v 0.00217675 0.00522348 -0.04088028
v 0.00161920 0.00553378 -0.04084132
v 0.00001927 0.00630563 -0.04053996
v 0.00022330 0.00654554 -0.04093744
v 0.00072833 0.00636300 -0.04111410
v 0.00001321 0.00693146 -0.04117645
v 0.00114650 0.00621698 -0.04125958
v 0.00165960 0.00604227 -0.04143884
v -0.00963284 0.01724196 -0.02880524
v -0.00829552 0.01425103 -0.03082381
v -0.00863692 0.01480384 -0.03080822
v -0.00814806 0.01448311 -0.02933002
v -0.00810967 0.01455351 -0.02894033
v -0.00192004 0.00939566 -0.04184670
v -0.00260486 0.00871246 -0.04064128
v -0.00282505 0.00849081 -0.04024380
v -0.00262506 0.00808142 -0.04003337
v -0.00304322 0.00826917 -0.03981774
v -0.00123522 0.01008146 -0.04304953
v -0.00321291 0.00811271 -0.03939948
v -0.00699255 0.01183899 -0.03333598
v -0.00759656 0.01373733 -0.02894033
v -0.00813795 0.01386771 -0.03126545
v -0.00749152 0.01263170 -0.03270729
v -0.00767131 0.01301763 -0.03207860
v -0.00761676 0.01309064 -0.03145250
v -0.00753394 0.01320277 -0.03051726
v -0.00737435 0.01345310 -0.02880524
v 0.00225554 0.00458722 -0.03956575
v 0.00260502 0.00444901 -0.03973981
v 0.00281915 0.00432906 -0.03956575
v 0.00345347 0.00409438 -0.03961511
v 0.00097075 0.00515307 -0.03903577
v 0.00126366 0.00504094 -0.03927478
v 0.00409384 0.00386230 -0.03965148
v 0.00441706 0.00378929 -0.03988529
v 0.00465948 0.00366152 -0.03965148
v 0.00026371 0.00551814 -0.03900460
v -0.00129178 0.00689235 -0.03997102
v -0.00060898 0.00630563 -0.03990088
v -0.00036455 0.00605791 -0.03966187
v 0.00012836 0.00573978 -0.03961511
v 0.00044350 0.00556768 -0.03961511
v 0.00165556 0.00491578 -0.03961511
v -0.00453205 0.00991457 -0.02880524
v -0.00490577 0.01018576 -0.02956642
v -0.00564109 0.01069946 -0.03120051
v -0.00631177 0.01127835 -0.03207860
v -0.00672589 0.01152608 -0.03333598
v -0.00515222 0.01055083 -0.02894033
v 0.00281915 0.00453246 -0.04025159
v 0.00237069 0.00495750 -0.04067505
v 0.00264542 0.00573978 -0.04174019
v 0.00345347 0.00615700 -0.04257671
v 0.00411202 0.00662116 -0.04336648
v -0.00031203 0.00705924 -0.04105694
v -0.00031203 0.00737215 -0.04135310
v -0.00066757 0.00751296 -0.04121801
v 0.00006573 0.00885849 -0.04301836
v -0.00031203 0.00802144 -0.04195842
v -0.00064535 0.00815965 -0.04182852
v -0.00108573 0.00770332 -0.04104655
v -0.00088978 0.00853514 -0.04196361
v -0.00153420 0.00789628 -0.04084132
v 0.00431808 0.00813879 -0.04499017
v 0.00094448 0.00660812 -0.04149859
v 0.00119296 0.00562766 -0.04061010
v 0.00077479 0.00575543 -0.04040747
v -0.00019082 0.00617265 -0.04012170
v -0.00036455 0.00640733 -0.04029576
v -0.00068171 0.00687409 -0.04060491
v -0.00031203 0.00673850 -0.04074260
v -0.00809553 0.01457959 -0.02880524
v -0.00818846 0.01441531 -0.02974828
v -0.00782484 0.01413369 -0.02880524
v -0.00173015 0.00832393 -0.04105435
v -0.00216851 0.00851689 -0.04084651
v -0.00239073 0.00829264 -0.04045163
v -0.00133623 0.00747645 -0.04062829
v -0.00110189 0.00705663 -0.04038928
v -0.00195842 0.00748688 -0.04000999
v -0.00694205 0.01190157 -0.03270729
v -0.00721274 0.01225881 -0.03270729
v -0.00754404 0.01370082 -0.02880524
v -0.00758242 0.01375819 -0.02880524
v -0.00708345 0.01222231 -0.03212276
v -0.00738243 0.01277773 -0.03145250
v -0.00701275 0.01243092 -0.03082381
v -0.00628753 0.01193547 -0.02880524
v -0.00688548 0.01260302 -0.02937418
v -0.00683296 0.01267864 -0.02880524
v -0.00700669 0.01292636 -0.02880524
v 0.00178081 0.00498097 -0.04005675
v 0.00217675 0.00485319 -0.04025679
v -0.00091200 0.00675936 -0.04020483
v 0.00057076 0.00563287 -0.03998921
v -0.00459871 0.00998498 -0.02880524
v -0.00484719 0.01024834 -0.02880524
v -0.00551382 0.01084027 -0.02956642
v -0.00545524 0.01091329 -0.02880524
v -0.00573806 0.01121316 -0.02894033
v -0.00507950 0.01049607 -0.02880524
v 0.00195252 0.00508006 -0.04047501
v -0.00088372 0.00728610 -0.04082573
v -0.00691174 0.01193808 -0.03236177
v -0.00572594 0.01122620 -0.02880524
v -0.00635419 0.01184942 -0.02956642
v -0.00616026 0.01177380 -0.02880524
v -0.00646126 0.01217016 -0.02880524
v -0.00649560 0.01221709 -0.02880524
v -0.00610370 0.01153390 -0.02956642
v -0.00609360 0.01166949 -0.02889357
f 1 2 5
f 1 5 3
f 1 3 9
f 1 9 20
f 1 20 43
f 1 43 63
f 1 63 90
f 1 90 127
f 1 127 126
f 1 126 164
f 1 164 165
f 1 165 214
f 1 214 213
f 1 213 271
f 1 271 272
f 1 272 343
f 1 343 375
f 1 375 374
f 1 374 460
f 1 460 553
f 1 553 617
f 1 617 619
f 1 619 629
f 1 629 628
f 1 628 572
f 1 572 636
f 1 636 635
f 1 635 654
f 1 654 653
f 1 653 633
f 1 633 652
f 1 652 650
f 1 650 644
f 1 644 646
f 1 646 642
f 1 642 641
f 1 641 589
f 1 589 498
f 1 498 415
f 1 415 413
f 1 413 326
f 1 326 322
f 1 322 255
f 1 255 193
f 1 193 146
f 1 146 106
f 1 106 77
f 1 77 55
f 1 55 54
f 1 54 53
f 1 53 52
f 1 52 51
f 1 51 37
f 1 37 36
f 1 36 35
f 1 35 34
f 1 34 33
f 1 33 32
f 1 32 31
f 1 31 30
f 1 30 29
f 1 29 18
f 1 18 41
f 1 41 21
f 1 21 10
f 1 10 4
f 1 4 6
f 1 6 2
f 2 6 7
f 2 7 8
f 2 8 5
f 3 5 11
f 3 11 9
f 4 10 13
f 4 13 6
f 5 8 12
f 5 12 11
f 6 13 7
f 7 14 15
f 7 15 16
f 7 16 8
f 7 13 17
f 7 17 18
f 7 18 14
f 8 16 19
f 8 19 12
f 9 11 20
f 10 21 17
f 10 17 13
f 11 22 23
f 11 23 20
f 11 12 22
f 12 19 24
f 12 24 25
f 12 25 26
f 12 26 27
f 12 27 22
f 14 28 15
f 14 18 29
f 14 29 30
f 14 30 31
f 14 31 32
f 14 32 33
f 14 33 34
f 14 34 35
f 14 35 36
f 14 36 37
f 14 37 28
f 15 28 38
f 15 38 39
f 15 39 16
f 16 39 40
f 16 40 19
f 17 21 41
f 17 41 18
f 19 40 24
f 20 23 42
f 20 42 43
f 22 27 23
f 23 27 44
f 23 44 42
f 24 40 45
f 24 45 25
f 25 46 26
f 25 45 47
f 25 47 48
f 25 48 46
f 26 46 49
f 26 49 50
f 26 50 27
f 27 50 44
f 28 37 51
f 28 51 52
f 28 52 53
f 28 53 54
f 28 54 55
f 28 55 77
f 28 77 107
f 28 107 113
f 28 113 108
f 28 108 78
f 28 78 56
f 28 56 57
f 28 57 38
f 38 57 58
f 38 58 39
f 39 58 59
f 39 59 40
f 40 59 85
f 40 85 60
f 40 60 61
f 40 61 45
f 42 44 62
f 42 62 63
f 42 63 43
f 44 50 64
f 44 64 62
f 45 61 47
f 46 65 49
f 46 48 66
f 46 66 67
f 46 67 65
f 47 61 68
f 47 68 69
f 47 69 70
f 47 70 48
f 48 70 71
f 48 71 66
f 49 65 72
f 49 72 50
f 50 73 64
f 50 72 74
f 50 74 75
f 50 75 76
f 50 76 73
f 56 78 79
f 56 79 80
f 56 80 57
f 57 80 81
f 57 81 82
f 57 82 58
f 58 83 84
f 58 84 59
f 58 82 83
f 59 84 85
f 60 85 123
f 60 123 86
f 60 86 68
f 60 68 61
f 62 64 87
f 62 87 88
f 62 88 89
f 62 89 63
f 63 89 90
f 64 73 87
f 65 91 75
f 65 75 74
f 65 74 72
f 65 67 92
f 65 92 93
f 65 93 94
f 65 94 91
f 66 95 96
f 66 96 67
f 66 71 95
f 67 96 97
f 67 97 92
f 68 86 69
f 69 86 98
f 69 98 99
f 69 99 71
f 69 71 70
f 71 100 132
f 71 132 95
f 71 99 98
f 71 98 100
f 73 101 102
f 73 102 103
f 73 103 87
f 73 76 91
f 73 91 104
f 73 104 105
f 73 105 101
f 75 91 76
f 77 106 147
f 77 147 107
f 78 108 79
f 79 109 110
f 79 110 111
f 79 111 112
f 79 112 80
f 79 108 113
f 79 113 114
f 79 114 115
f 79 115 116
f 79 116 117
f 79 117 109
f 80 112 81
f 81 112 118
f 81 118 82
f 82 118 119
f 82 119 120
f 82 120 121
f 82 121 83
f 83 121 122
f 83 122 84
f 84 122 85
f 85 122 123
f 86 123 98
f 87 103 88
f 88 103 124
f 88 124 125
f 88 125 126
f 88 126 127
f 88 127 90
f 88 90 89
f 91 94 104
f 92 97 93
f 93 97 128
f 93 128 94
f 94 129 104
f 94 128 130
f 94 130 131
f 94 131 129
f 95 97 96
f 95 132 133
f 95 133 97
f 97 133 171
f 97 171 130
f 97 130 128
f 98 123 134
f 98 134 100
f 100 135 136
f 100 136 132
f 100 134 137
f 100 137 135
f 101 105 102
f 102 138 139
f 102 139 140
f 102 140 124
f 102 124 103
f 102 105 138
f 104 129 141
f 104 141 142
f 104 142 143
f 104 143 105
f 105 143 142
f 105 142 144
f 105 144 145
f 105 145 139
f 105 139 138
f 106 146 192
f 106 192 252
f 106 252 317
f 106 317 403
f 106 403 484
f 106 484 512
f 106 512 511
f 106 511 510
f 106 510 509
f 106 509 423
f 106 423 422
f 106 422 334
f 106 334 267
f 106 267 205
f 106 205 204
f 106 204 156
f 106 156 155
f 106 155 149
f 106 149 148
f 106 148 147
f 107 147 148
f 107 148 149
f 107 149 117
f 107 117 116
f 107 116 115
f 107 115 114
f 107 114 113
f 109 117 110
f 110 117 150
f 110 150 151
f 110 151 152
f 110 152 153
f 110 153 111
f 111 154 112
f 111 153 154
f 112 154 118
f 117 149 155
f 117 155 156
f 117 156 157
f 117 157 150
f 118 158 119
f 118 154 207
f 118 207 158
f 119 158 159
f 119 159 160
f 119 160 120
f 120 160 121
f 121 160 161
f 121 161 122
f 122 162 123
f 122 161 162
f 123 162 134
f 124 140 163
f 124 163 125
f 125 164 126
f 125 163 165
f 125 165 164
f 129 166 141
f 129 131 167
f 129 167 168
f 129 168 166
f 130 169 170
f 130 170 131
f 130 171 219
f 130 219 169
f 131 170 172
f 131 172 173
f 131 173 167
f 132 136 133
f 133 136 174
f 133 174 171
f 134 162 137
f 135 175 176
f 135 176 177
f 135 177 136
f 135 137 175
f 136 178 174
f 136 177 179
f 136 179 180
f 136 180 181
f 136 181 178
f 137 162 161
f 137 161 160
f 137 160 175
f 139 145 182
f 139 182 183
f 139 183 140
f 140 183 184
f 140 184 163
f 141 166 142
f 142 166 185
f 142 185 186
f 142 186 187
f 142 187 188
f 142 188 144
f 144 188 189
f 144 189 190
f 144 190 191
f 144 191 182
f 144 182 145
f 146 193 194
f 146 194 195
f 146 195 196
f 146 196 197
f 146 197 198
f 146 198 199
f 146 199 192
f 150 157 151
f 151 200 201
f 151 201 202
f 151 202 203
f 151 203 154
f 151 154 153
f 151 153 152
f 151 157 204
f 151 204 205
f 151 205 206
f 151 206 264
f 151 264 200
f 154 203 266
f 154 266 207
f 156 204 157
f 158 208 176
f 158 176 209
f 158 209 210
f 158 210 159
f 158 207 211
f 158 211 208
f 159 210 160
f 160 210 212
f 160 212 175
f 163 213 214
f 163 214 165
f 163 184 215
f 163 215 213
f 166 168 216
f 166 216 185
f 167 173 168
f 168 173 217
f 168 217 218
f 168 218 216
f 169 219 221
f 169 221 170
f 170 220 172
f 170 221 275
f 170 275 220
f 171 174 181
f 171 181 222
f 171 222 223
f 171 223 275
f 171 275 219
f 172 220 224
f 172 224 173
f 173 224 225
f 173 225 226
f 173 226 227
f 173 227 217
f 174 178 181
f 175 212 176
f 176 212 209
f 176 208 228
f 176 228 229
f 176 229 177
f 177 229 230
f 177 230 179
f 179 230 180
f 180 230 231
f 180 231 232
f 180 232 181
f 181 232 233
f 181 233 222
f 182 191 234
f 182 234 183
f 183 234 235
f 183 235 184
f 184 235 236
f 184 236 215
f 185 216 274
f 185 274 237
f 185 237 238
f 185 238 186
f 186 238 239
f 186 239 187
f 187 239 188
f 188 240 189
f 188 239 241
f 188 241 242
f 188 242 243
f 188 243 240
f 189 240 244
f 189 244 190
f 190 244 191
f 191 244 245
f 191 245 246
f 191 246 247
f 191 247 248
f 191 248 249
f 191 249 250
f 191 250 251
f 191 251 234
f 192 199 253
f 192 253 254
f 192 254 252
f 193 255 256
f 193 256 194
f 194 256 257
f 194 257 195
f 195 258 196
f 195 257 259
f 195 259 260
f 195 260 258
f 196 258 197
f 197 258 198
f 198 258 261
f 198 261 262
f 198 262 263
f 198 263 199
f 199 263 253
f 200 264 265
f 200 265 201
f 201 265 266
f 201 266 203
f 201 203 202
f 205 267 206
f 206 267 268
f 206 268 265
f 206 265 264
f 207 269 211
f 207 266 268
f 207 268 269
f 208 270 228
f 208 211 269
f 208 269 270
f 209 212 210
f 213 215 271
f 215 236 272
f 215 272 271
f 216 273 274
f 216 218 227
f 216 227 273
f 217 227 218
f 219 275 221
f 220 275 224
f 222 233 225
f 222 225 223
f 223 225 275
f 224 275 225
f 225 233 232
f 225 232 276
f 225 276 277
f 225 277 278
f 225 278 279
f 225 279 226
f 226 279 280
f 226 280 227
f 227 280 281
f 227 281 282
f 227 282 273
f 228 270 283
f 228 283 284
f 228 284 285
f 228 285 229
f 229 285 230
f 230 285 286
f 230 286 287
f 230 287 231
f 231 287 276
f 231 276 232
f 234 288 235
f 234 251 289
f 234 289 290
f 234 290 291
f 234 291 292
f 234 292 293
f 234 293 288
f 235 288 294
f 235 294 236
f 236 294 343
f 236 343 272
f 237 274 282
f 237 282 238
f 238 282 281
f 238 281 295
f 238 295 353
f 238 353 296
f 238 296 241
f 238 241 239
f 240 243 303
f 240 303 297
f 240 297 298
f 240 298 244
f 241 296 299
f 241 299 242
f 242 300 243
f 242 299 301
f 242 301 302
f 242 302 300
f 243 300 303
f 244 298 304
f 244 304 245
f 245 304 246
f 246 304 305
f 246 305 306
f 246 306 247
f 247 306 307
f 247 307 248
f 248 307 308
f 248 308 309
f 248 309 310
f 248 310 250
f 248 250 249
f 250 310 251
f 251 310 309
f 251 309 311
f 251 311 312
f 251 312 313
f 251 313 314
f 251 314 315
f 251 315 316
f 251 316 290
f 251 290 289
f 252 254 318
f 252 318 317
f 253 263 319
f 253 319 254
f 254 319 320
f 254 320 321
f 254 321 318
f 255 322 323
f 255 323 324
f 255 324 257
f 255 257 256
f 257 324 259
f 258 260 261
f 259 324 260
f 260 325 261
f 260 324 323
f 260 323 326
f 260 326 327
f 260 327 328
f 260 328 329
f 260 329 330
f 260 330 331
f 260 331 332
f 260 332 325
f 261 325 262
f 262 325 333
f 262 333 319
f 262 319 263
f 265 268 266
f 267 334 335
f 267 335 336
f 267 336 268
f 268 336 337
f 268 337 338
f 268 338 339
f 268 339 340
f 268 340 341
f 268 341 269
f 269 283 270
f 269 341 342
f 269 342 283
f 273 282 274
f 276 287 344
f 276 344 345
f 276 345 346
f 276 346 347
f 276 347 348
f 276 348 349
f 276 349 277
f 277 349 278
f 278 349 279
f 279 350 351
f 279 351 280
f 279 349 350
f 280 351 352
f 280 352 299
f 280 299 353
f 280 353 281
f 281 353 295
f 283 354 284
f 283 342 355
f 283 355 356
f 283 356 354
f 284 357 358
f 284 358 359
f 284 359 285
f 284 354 360
f 284 360 357
f 285 361 362
f 285 362 286
f 285 359 363
f 285 363 364
f 285 364 361
f 286 362 365
f 286 365 366
f 286 366 287
f 287 366 365
f 287 365 367
f 287 367 345
f 287 345 344
f 288 368 369
f 288 369 294
f 288 293 368
f 290 316 370
f 290 370 291
f 291 370 316
f 291 316 292
f 292 316 293
f 293 316 371
f 293 371 372
f 293 372 373
f 293 373 374
f 293 374 369
f 293 369 368
f 294 369 375
f 294 375 343
f 296 353 299
f 297 303 376
f 297 376 462
f 297 462 377
f 297 377 378
f 297 378 298
f 298 378 379
f 298 379 304
f 299 352 301
f 300 302 380
f 300 380 381
f 300 381 303
f 301 352 351
f 301 351 382
f 301 382 302
f 302 382 383
f 302 383 380
f 303 381 376
f 304 379 305
f 305 379 384
f 305 384 385
f 305 385 306
f 306 385 307
f 307 386 387
f 307 387 388
f 307 388 389
f 307 389 308
f 307 385 390
f 307 390 391
f 307 391 386
f 308 392 393
f 308 393 311
f 308 311 309
f 308 389 394
f 308 394 392
f 311 393 312
f 312 395 396
f 312 396 397
f 312 397 313
f 312 393 392
f 312 392 325
f 312 325 395
f 313 397 398
f 313 398 314
f 314 399 400
f 314 400 371
f 314 371 315
f 314 398 401
f 314 401 399
f 315 371 402
f 315 402 316
f 316 402 371
f 317 318 403
f 318 321 404
f 318 404 405
f 318 405 403
f 319 333 406
f 319 406 407
f 319 407 320
f 320 408 409
f 320 409 410
f 320 410 411
f 320 411 321
f 320 407 406
f 320 406 408
f 321 411 412
f 321 412 404
f 322 326 323
f 325 392 333
f 325 332 395
f 326 413 414
f 326 414 328
f 326 328 327
f 328 414 329
f 329 415 416
f 329 416 417
f 329 417 331
f 329 331 330
f 329 414 413
f 329 413 415
f 331 417 418
f 331 418 332
f 332 418 419
f 332 419 420
f 332 420 421
f 332 421 395
f 333 392 394
f 333 394 406
f 334 422 335
f 335 337 336
f 335 422 423
f 335 423 424
f 335 424 425
f 335 425 337
f 337 425 426
f 337 426 427
f 337 427 428
f 337 428 429
f 337 429 430
f 337 430 431
f 337 431 338
f 338 431 339
f 339 431 432
f 339 432 433
f 339 433 434
f 339 434 340
f 340 434 341
f 341 434 342
f 342 434 433
f 342 433 356
f 342 356 355
f 345 435 436
f 345 436 437
f 345 437 346
f 345 367 435
f 346 437 438
f 346 438 439
f 346 439 391
f 346 391 390
f 346 390 440
f 346 440 347
f 347 440 349
f 347 349 348
f 349 441 442
f 349 442 383
f 349 383 350
f 349 440 443
f 349 443 441
f 350 383 382
f 350 382 351
f 354 444 360
f 354 356 444
f 356 433 445
f 356 445 444
f 357 363 358
f 357 360 444
f 357 444 445
f 357 445 446
f 357 446 363
f 358 363 359
f 361 364 362
f 362 364 447
f 362 447 448
f 362 448 449
f 362 449 450
f 362 450 365
f 363 446 451
f 363 451 452
f 363 452 364
f 364 452 535
f 364 535 453
f 364 453 454
f 364 454 447
f 365 455 456
f 365 456 367
f 365 450 457
f 365 457 458
f 365 458 455
f 367 456 459
f 367 459 435
f 369 374 375
f 371 400 372
f 372 400 374
f 372 374 373
f 374 400 461
f 374 461 460
f 376 381 463
f 376 463 462
f 377 462 378
f 378 462 463
f 378 463 390
f 378 390 464
f 378 464 384
f 378 384 465
f 378 465 379
f 379 465 384
f 380 383 442
f 380 442 441
f 380 441 466
f 380 466 463
f 380 463 381
f 384 464 385
f 385 464 390
f 386 467 468
f 386 468 469
f 386 469 387
f 386 391 470
f 386 470 467
f 387 469 471
f 387 471 388
f 388 471 389
f 389 471 394
f 390 463 443
f 390 443 440
f 391 439 472
f 391 472 470
f 394 471 473
f 394 473 474
f 394 474 475
f 394 475 406
f 395 421 396
f 396 421 476
f 396 476 397
f 397 476 398
f 398 476 401
f 399 477 461
f 399 461 400
f 399 401 478
f 399 478 568
f 399 568 479
f 399 479 477
f 401 476 480
f 401 480 478
f 403 481 482
f 403 482 483
f 403 483 484
f 403 405 485
f 403 485 486
f 403 486 487
f 403 487 488
f 403 488 489
f 403 489 481
f 404 490 405
f 404 412 490
f 405 490 485
f 406 475 408
f 408 491 492
f 408 492 409
f 408 475 491
f 409 492 410
f 410 492 411
f 411 492 493
f 411 493 494
f 411 494 412
f 412 487 486
f 412 486 490
f 412 494 495
f 412 495 496
f 412 496 497
f 412 497 488
f 412 488 487
f 415 417 416
f 415 498 499
f 415 499 500
f 415 500 501
f 415 501 502
f 415 502 503
f 415 503 417
f 417 503 504
f 417 504 505
f 417 505 418
f 418 505 419
f 419 506 507
f 419 507 508
f 419 508 420
f 419 505 504
f 419 504 502
f 419 502 501
f 419 501 500
f 419 500 506
f 420 508 476
f 420 476 421
f 423 509 424
f 424 509 425
f 425 509 510
f 425 510 511
f 425 511 426
f 426 511 512
f 426 512 427
f 427 512 513
f 427 513 514
f 427 514 515
f 427 515 516
f 427 516 429
f 427 429 428
f 429 516 517
f 429 517 518
f 429 518 430
f 430 518 519
f 430 519 517
f 430 517 432
f 430 432 431
f 432 517 520
f 432 520 521
f 432 521 522
f 432 522 523
f 432 523 524
f 432 524 433
f 433 524 445
f 435 459 525
f 435 525 436
f 436 526 527
f 436 527 437
f 436 525 528
f 436 528 526
f 437 527 529
f 437 529 438
f 438 530 531
f 438 531 439
f 438 529 530
f 439 531 470
f 439 470 472
f 441 443 466
f 443 463 466
f 445 524 532
f 445 532 446
f 446 532 533
f 446 533 522
f 446 522 451
f 447 454 448
f 448 454 534
f 448 534 449
f 449 457 450
f 449 534 457
f 451 522 452
f 452 522 535
f 453 535 536
f 453 536 537
f 453 537 538
f 453 538 454
f 454 538 534
f 455 539 540
f 455 540 456
f 455 458 541
f 455 541 542
f 455 542 543
f 455 543 544
f 455 544 539
f 456 540 525
f 456 525 459
f 457 534 458
f 458 534 538
f 458 538 537
f 458 537 536
f 458 536 520
f 458 520 545
f 458 545 546
f 458 546 547
f 458 547 548
f 458 548 549
f 458 549 550
f 458 550 551
f 458 551 610
f 458 610 552
f 458 552 541
f 460 461 553
f 461 477 554
f 461 554 555
f 461 555 556
f 461 556 557
f 461 557 553
f 467 558 559
f 467 559 468
f 467 470 558
f 468 559 469
f 469 559 560
f 469 560 561
f 469 561 562
f 469 562 471
f 470 531 563
f 470 563 558
f 471 562 564
f 471 564 473
f 473 564 474
f 474 564 475
f 475 564 491
f 476 565 480
f 476 508 565
f 477 566 567
f 477 567 554
f 477 479 568
f 477 568 569
f 477 569 570
f 477 570 571
f 477 571 572
f 477 572 566
f 478 480 568
f 480 565 568
f 481 573 574
f 481 574 575
f 481 575 576
f 481 576 482
f 481 489 577
f 481 577 578
f 481 578 573
f 482 576 579
f 482 579 580
f 482 580 581
f 482 581 483
f 483 581 580
f 483 580 513
f 483 513 512
f 483 512 484
f 485 490 486
f 488 497 496
f 488 496 582
f 488 582 577
f 488 577 489
f 491 564 583
f 491 583 584
f 491 584 492
f 492 584 495
f 492 495 493
f 493 495 494
f 495 584 585
f 495 585 586
f 495 586 496
f 496 586 587
f 496 587 588
f 496 588 573
f 496 573 578
f 496 578 577
f 496 577 582
f 498 589 590
f 498 590 500
f 498 500 499
f 500 590 591
f 500 591 507
f 500 507 506
f 502 504 503
f 507 592 593
f 507 593 508
f 507 591 594
f 507 594 592
f 508 593 565
f 513 580 514
f 514 580 515
f 515 574 595
f 515 595 516
f 515 580 574
f 516 595 596
f 516 596 517
f 517 596 520
f 517 519 518
f 520 596 545
f 520 536 521
f 521 536 597
f 521 597 522
f 522 533 598
f 522 598 524
f 522 524 523
f 522 597 535
f 524 598 599
f 524 599 532
f 525 543 550
f 525 550 600
f 525 600 601
f 525 601 602
f 525 602 528
f 525 540 543
f 526 528 603
f 526 603 527
f 527 603 604
f 527 604 602
f 527 602 605
f 527 605 529
f 528 602 604
f 528 604 603
f 529 605 606
f 529 606 607
f 529 607 530
f 530 607 608
f 530 608 531
f 531 608 563
f 532 599 609
f 532 609 598
f 532 598 533
f 535 597 536
f 539 544 540
f 540 544 543
f 541 552 610
f 541 610 542
f 542 610 543
f 543 610 550
f 545 596 546
f 546 596 611
f 546 611 547
f 547 611 612
f 547 612 613
f 547 613 584
f 547 584 614
f 547 614 615
f 547 615 616
f 547 616 548
f 548 616 550
f 548 550 549
f 550 610 551
f 550 616 615
f 550 615 600
f 553 557 617
f 554 618 555
f 554 567 619
f 554 619 618
f 555 618 556
f 556 618 619
f 556 619 557
f 557 619 617
f 558 620 621
f 558 621 559
f 558 563 620
f 559 621 622
f 559 622 560
f 560 622 561
f 561 623 615
f 561 615 624
f 561 624 625
f 561 625 562
f 561 622 623
f 562 625 583
f 562 583 564
f 563 608 620
f 565 626 627
f 565 627 568
f 565 593 592
f 565 592 626
f 566 628 629
f 566 629 619
f 566 619 567
f 566 572 628
f 568 627 569
f 569 627 630
f 569 630 570
f 570 630 631
f 570 631 632
f 570 632 633
f 570 633 634
f 570 634 571
f 571 634 635
f 571 635 636
f 571 636 572
f 573 588 574
f 574 588 637
f 574 637 638
f 574 638 595
f 574 580 576
f 574 576 575
f 576 580 579
f 583 625 624
f 583 624 615
f 583 615 639
f 583 639 584
f 584 613 640
f 584 640 586
f 584 586 585
f 584 639 615
f 584 615 614
f 586 640 637
f 586 637 587
f 587 637 588
f 589 641 590
f 590 641 642
f 590 642 591
f 591 642 594
f 592 594 643
f 592 643 644
f 592 644 645
f 592 645 626
f 594 642 646
f 594 646 644
f 594 644 643
f 595 638 596
f 596 638 647
f 596 647 611
f 598 609 599
f 600 615 601
f 601 615 602
f 602 615 648
f 602 648 623
f 602 623 606
f 602 606 605
f 606 623 608
f 606 608 607
f 608 623 622
f 608 622 621
f 608 621 620
f 611 647 612
f 612 647 613
f 613 647 640
f 615 623 648
f 626 649 627
f 626 645 650
f 626 650 649
f 627 649 630
f 630 649 633
f 630 633 632
f 630 632 631
f 633 649 651
f 633 651 652
f 633 653 634
f 634 653 654
f 634 654 635
f 637 647 638
f 637 640 647
f 644 650 645
f 649 650 655
f 649 655 651
f 650 652 656
f 650 656 655
f 651 656 652
f 651 655 656

