# https://github.com/mikedh/trimesh
v 0.01034540 0.00063457 -0.01951626
v 0.01031907 0.00063457 -0.01888870
v 0.01034540 -0.00093020 -0.01951626
v 0.01034540 0.00063457 -0.02673128
v 0.01020768 0.00063457 -0.01826114
v 0.00771449 0.00017289 0.00183215
v 0.00799804 -0.00030220 0.00120459
v 0.00807095 -0.00030220 0.00057703
v 0.01031907 -0.00093020 -0.01888870
v 0.01033933 -0.00155778 -0.01951626
v 0.01034135 -0.00155778 -0.02014382
v 0.01034540 -0.00093020 -0.02328542
v 0.01034540 0.00032581 -0.02642321
v 0.01034135 0.00063457 -0.02799021
v 0.01014489 0.00063457 -0.01805956
v 0.00722234 0.00033963 0.00183215
v 0.00722234 0.00029061 0.00245971
v 0.00763551 0.00012387 0.00245971
v 0.00788867 -0.00030220 0.00183215
v 0.00794741 -0.00093020 0.00120459
v 0.01030692 -0.00155778 -0.01888870
v 0.01025831 -0.00218579 -0.01951626
v 0.01027046 -0.00218579 -0.02014382
v 0.01034135 -0.00155778 -0.02265786
v 0.01034338 0.00032581 -0.02705077
v 0.01033933 0.00063457 -0.02861776
v 0.01008413 0.00063457 -0.01786939
v 0.00659246 0.00034508 0.00308727
v 0.00659246 0.00030444 0.00371483
v 0.00724664 0.00017289 0.00307586
v 0.00705424 0.00013770 0.00371483
v 0.00757070 0.00005768 0.00285906
v 0.00782589 -0.00093020 0.00183215
v 0.00772462 -0.00030220 0.00245971
v 0.00776108 -0.00155778 0.00120459
v 0.01016920 -0.00224109 -0.01883926
v 0.01011451 -0.00261311 -0.01951626
v 0.01012464 -0.00263071 -0.02014382
v 0.01008616 -0.00256368 -0.01901421
v 0.01027046 -0.00218579 -0.02202650
v 0.01024414 -0.00218579 -0.02265786
v 0.01031097 -0.00155778 -0.02328542
v 0.01031705 0.00032581 -0.02893725
v 0.01033325 0.00032581 -0.02830969
v 0.01033122 0.00063457 -0.02924532
v 0.00992211 0.00063457 -0.01755371
v 0.00596461 0.00034298 0.00434238
v 0.00660664 0.00017750 0.00432717
v 0.00600106 0.00021018 0.00500798
v 0.00695499 0.00006857 0.00411038
v 0.00758082 -0.00030220 0.00288569
v 0.00719398 -0.00030220 0.00371483
v 0.00744310 -0.00030220 0.00319756
v 0.00763551 -0.00157328 0.00180553
v 0.00763753 -0.00094612 0.00249394
v 0.00758690 -0.00137512 0.00230757
v 0.00756057 -0.00074754 0.00283624
v 0.00754842 -0.00189462 0.00158112
v 0.00758487 -0.00194782 0.00120459
v 0.00988160 -0.00292732 -0.01951626
v 0.00990185 -0.00294492 -0.02014382
v 0.01012464 -0.00263071 -0.02202650
v 0.01009831 -0.00257750 -0.02265786
v 0.01016920 -0.00010026 -0.02893725
v 0.01020768 0.00027218 -0.02961045
v 0.01026844 0.00063457 -0.02991852
v 0.00775905 0.00063457 -0.01393669
v 0.00533675 0.00034508 0.00497375
v 0.00538334 0.00021185 0.00564695
v 0.00640613 0.00012010 0.00482161
v 0.00581676 0.00012304 0.00546819
v 0.00646284 -0.00030220 0.00489387
v 0.00677676 -0.00030220 0.00445268
v 0.00697322 -0.00030220 0.00413700
v 0.00694689 -0.00079697 0.00409516
v 0.00708462 -0.00097586 0.00377188
v 0.00742690 -0.00094612 0.00306445
v 0.00749981 -0.00179323 0.00199950
v 0.00751804 -0.00116607 0.00272594
v 0.00743905 -0.00157328 0.00249394
v 0.00732158 -0.00213677 0.00180553
v 0.00698132 -0.00257708 0.00183215
v 0.00956767 -0.00324153 -0.01951626
v 0.00958793 -0.00325913 -0.02014382
v 0.00990185 -0.00294492 -0.02077138
v 0.00988768 -0.00294492 -0.02139894
v 0.00984717 -0.00294450 -0.02202650
v 0.00947856 -0.00315565 -0.02237641
v 0.01006185 -0.00251592 -0.02298875
v 0.01011654 -0.00004915 -0.02943549
v 0.01017325 0.00043934 -0.03019237
v 0.01022996 0.00063457 -0.03019237
v 0.00723044 0.00063457 -0.01357537
v 0.00470890 0.00034508 0.00560131
v 0.00408105 0.00033209 0.00622886
v 0.00473118 0.00020138 0.00625929
v 0.00520713 0.00012304 0.00606912
v 0.00589574 -0.00030220 0.00555567
v 0.00620967 -0.00030220 0.00520956
v 0.00560410 -0.00030220 0.00586754
v 0.00642233 -0.00093020 0.00484063
v 0.00690031 -0.00121550 0.00401910
v 0.00676664 -0.00097586 0.00431957
v 0.00692056 -0.00189336 0.00342957
v 0.00699145 -0.00199265 0.00308727
v 0.00708462 -0.00220673 0.00243689
v 0.00699753 -0.00155778 0.00357030
v 0.00721626 -0.00155778 0.00308727
v 0.00693069 -0.00252429 0.00220868
v 0.00655398 -0.00292858 0.00184736
v 0.00631701 -0.00315146 0.00164578
v 0.00910590 -0.00347154 -0.01951626
v 0.00910590 -0.00350547 -0.02014382
v 0.00958793 -0.00325913 -0.02077138
v 0.00953324 -0.00318917 -0.02202650
v 0.00957172 -0.00323399 -0.02139894
v 0.00847804 -0.00362655 -0.02014382
v 0.00659246 -0.00360351 -0.02077138
v 0.00596461 -0.00351134 -0.02139894
v -0.00947653 -0.00315565 -0.02237641
v 0.00910590 0.00002291 -0.02984626
v 0.00973375 0.00002877 -0.02984626
v 0.01011654 0.00056670 -0.03059172
v 0.01012869 0.00063457 -0.03062595
v 0.00722234 0.00063457 -0.01357157
v 0.00219749 0.00034508 0.00685642
v 0.00282534 0.00033963 0.00685642
v 0.00345319 0.00027092 0.00685642
v 0.00403244 0.00014608 0.00684881
v 0.00453675 0.00010502 0.00663583
v 0.00529017 -0.00030220 0.00614139
v 0.00585321 -0.00093020 0.00550622
v 0.00616714 -0.00093020 0.00515631
v 0.00555144 -0.00093020 0.00582190
v 0.00635144 -0.00139691 0.00474935
v 0.00650537 -0.00158669 0.00438042
v 0.00682132 -0.00155778 0.00388598
v 0.00624613 -0.00181502 0.00461243
v 0.00637980 -0.00200354 0.00419405
v 0.00656816 -0.00215772 0.00367299
v 0.00633727 -0.00255278 0.00349803
v 0.00675044 -0.00230686 0.00308727
v 0.00684765 -0.00243003 0.00262706
v 0.00643651 -0.00264118 0.00308727
v 0.00662081 -0.00271157 0.00243689
v 0.00625018 -0.00311166 0.00206796
v 0.00601119 -0.00326290 0.00184736
v 0.00533675 -0.00350966 0.00183215
v 0.00847804 -0.00360686 -0.01951626
v 0.00722234 -0.00364121 -0.01951626
v 0.00659246 -0.00364498 -0.02014382
v 0.00596461 -0.00362152 -0.02077138
v 0.00470890 -0.00361565 0.00183215
v 0.00408105 -0.00364372 0.00183215
v 0.00408105 -0.00364498 0.00120459
v -0.00596460 -0.00351134 -0.02139894
v -0.00659246 -0.00360351 -0.02077138
v -0.00847602 -0.00362613 -0.02014382
v -0.00953122 -0.00318917 -0.02202650
v -0.00984514 -0.00294534 -0.02202650
v -0.01009628 -0.00257792 -0.02265786
v -0.01006185 -0.00251634 -0.02298875
v -0.01011654 -0.00004915 -0.02943549
v -0.00973172 0.00002877 -0.02984626
v -0.00910387 0.00002291 -0.02984626
v 0.00910590 0.00022400 -0.03019237
v 0.00973375 0.00023154 -0.03019237
v 0.00973375 0.00052858 -0.03063736
v 0.00973375 0.00063457 -0.03074386
v 0.01002135 0.00063457 -0.03067920
v 0.00659246 0.00063457 -0.01356776
v 0.00031393 0.00034005 0.00748398
v 0.00094178 0.00032664 0.00748398
v 0.00156963 0.00028810 0.00748398
v 0.00282534 0.00017289 0.00738509
v 0.00345319 0.00010418 0.00725958
v 0.00459751 -0.00030220 0.00667766
v 0.00491143 -0.00030220 0.00645326
v 0.00379142 0.00003087 0.00718351
v 0.00523751 -0.00093020 0.00609574
v 0.00576005 -0.00144928 0.00540353
v 0.00513625 -0.00142749 0.00600827
v 0.00600309 -0.00163194 0.00501558
v 0.00564865 -0.00186739 0.00528182
v 0.00582688 -0.00206471 0.00486345
v 0.00563448 -0.00248366 0.00463905
v 0.00601929 -0.00224360 0.00441465
v 0.00620967 -0.00242207 0.00392021
v 0.00595853 -0.00298346 0.00313291
v 0.00579043 -0.00261772 0.00422068
v 0.00598689 -0.00272162 0.00371102
v 0.00617119 -0.00306013 0.00245971
v 0.00574587 -0.00317869 0.00295034
v 0.00585726 -0.00323106 0.00245971
v 0.00533675 -0.00343425 0.00245971
v 0.00470890 -0.00351008 0.00308727
v 0.00470890 -0.00358004 0.00245971
v 0.00659246 -0.00364498 -0.01951626
v -0.00659246 -0.00364498 -0.02014382
v -0.00596460 -0.00362152 -0.02077138
v 0.00408105 -0.00360686 0.00308727
v 0.00408105 -0.00363576 0.00245971
v 0.00345319 -0.00363953 0.00308727
v 0.00345319 -0.00364498 0.00245971
v -0.00847602 -0.00360686 -0.01951626
v -0.00910387 -0.00350547 -0.02014382
v -0.00722031 -0.00364121 -0.01951626
v -0.00408105 -0.00364498 0.00120459
v -0.00408105 -0.00364372 0.00183215
v -0.00470890 -0.00361565 0.00183215
v -0.00533675 -0.00351008 0.00183215
v -0.00957172 -0.00323399 -0.02139894
v -0.00958793 -0.00325955 -0.02077138
v -0.00988565 -0.00294534 -0.02139894
v -0.01012464 -0.00263113 -0.02202650
v -0.01024413 -0.00218579 -0.02265786
v -0.01016717 -0.00010026 -0.02893725
v -0.01020768 0.00027218 -0.02961425
v -0.01017325 0.00043934 -0.03019237
v -0.01011654 0.00056670 -0.03059172
v -0.00973172 0.00023154 -0.03019237
v -0.00910387 0.00022400 -0.03019237
v 0.00910590 0.00052690 -0.03063736
v 0.00910590 0.00063457 -0.03074766
v -0.00659246 0.00063457 -0.01356776
v -0.00031190 0.00034005 0.00748398
v 0.00031393 0.00017331 0.00795560
v 0.00094178 0.00015990 0.00793278
v 0.00156963 0.00012136 0.00788714
v 0.00202938 0.00006480 0.00783769
v 0.00453675 -0.00093020 0.00663583
v 0.00410535 -0.00030220 0.00699334
v 0.00377522 -0.00064113 0.00717591
v 0.00485067 -0.00093020 0.00641143
v 0.00282534 -0.00030220 0.00759428
v 0.00345319 -0.00030220 0.00733565
v 0.00379142 -0.00030220 0.00718351
v 0.00539144 -0.00164744 0.00565075
v 0.00500460 -0.00184602 0.00589797
v 0.00445573 -0.00133574 0.00658258
v 0.00473118 -0.00159046 0.00624408
v 0.00502485 -0.00250083 0.00528562
v 0.00551498 -0.00223899 0.00503460
v 0.00517878 -0.00218579 0.00543396
v 0.00535093 -0.00283809 0.00436140
v 0.00516865 -0.00260557 0.00497375
v 0.00563043 -0.00311753 0.00336872
v 0.00551296 -0.00305133 0.00371483
v 0.00538739 -0.00328343 0.00313291
v 0.00470890 -0.00338565 0.00371483
v 0.00408105 -0.00353647 0.00371483
v -0.00659246 -0.00364498 -0.01951626
v 0.00345319 -0.00361105 0.00371483
v 0.00282534 -0.00363912 0.00371483
v 0.00219749 -0.00364498 0.00371483
v -0.00910387 -0.00347112 -0.01951626
v -0.00956565 -0.00324111 -0.01951626
v -0.00958590 -0.00325913 -0.02014382
v -0.00345319 -0.00364498 0.00245971
v -0.00345319 -0.00363953 0.00308727
v -0.00408105 -0.00363576 0.00245971
v -0.00408105 -0.00360686 0.00308727
v -0.00470890 -0.00358004 0.00245971
v -0.00470890 -0.00351008 0.00308727
v -0.00533675 -0.00343425 0.00245971
v -0.00600916 -0.00326290 0.00184736
v -0.00989983 -0.00294534 -0.02014382
v -0.00990185 -0.00294534 -0.02077138
v -0.01027046 -0.00218579 -0.02202650
v -0.01012464 -0.00263113 -0.02014382
v -0.01034135 -0.00155778 -0.02265786
v -0.01031705 0.00032581 -0.02893725
v -0.01022996 0.00063457 -0.03019237
v -0.01015299 0.00063457 -0.03052326
v -0.01012666 0.00063457 -0.03062975
v -0.00973172 0.00063457 -0.03074386
v -0.00973172 0.00052858 -0.03063736
v -0.00910387 0.00052690 -0.03063736
v -0.00910387 0.00063457 -0.03074766
v -0.00722031 0.00063457 -0.01357157
v -0.00093975 0.00032664 0.00748398
v -0.00031190 0.00017331 0.00795560
v -0.00219749 0.00034508 0.00685642
v -0.00282534 0.00033963 0.00685642
v -0.00031190 -0.00030220 0.00810774
v 0.00031393 -0.00030220 0.00810393
v 0.00094178 -0.00030220 0.00805829
v 0.00156963 -0.00030220 0.00796321
v 0.00206989 -0.00030220 0.00784530
v 0.00238584 -0.00030220 0.00775783
v 0.00402434 -0.00088244 0.00697052
v 0.00368206 -0.00105965 0.00713027
v 0.00282534 -0.00093020 0.00752582
v 0.00346535 -0.00088244 0.00726338
v 0.00429776 -0.00175385 0.00647989
v 0.00458738 -0.00205214 0.00606152
v 0.00476156 -0.00223103 0.00576105
v 0.00408712 -0.00154982 0.00670809
v 0.00435447 -0.00247067 0.00588275
v 0.00470890 -0.00259971 0.00542255
v 0.00468865 -0.00291517 0.00494712
v 0.00488510 -0.00305887 0.00450593
v 0.00506941 -0.00314978 0.00408756
v 0.00519903 -0.00320760 0.00371483
v 0.00468865 -0.00321807 0.00431576
v 0.00408105 -0.00340115 0.00434238
v 0.00345319 -0.00352935 0.00434238
v 0.00282534 -0.00360057 0.00434238
v 0.00219749 -0.00363074 0.00434238
v 0.00156963 -0.00364079 0.00434238
v -0.00219749 -0.00364498 0.00371483
v -0.00631701 -0.00315146 0.00164959
v -0.00987957 -0.00292774 -0.01951626
v -0.00698132 -0.00257708 0.00183215
v -0.00282534 -0.00363912 0.00371483
v -0.00345319 -0.00361147 0.00371483
v -0.00408105 -0.00353689 0.00371483
v -0.00470890 -0.00338607 0.00371483
v -0.00538738 -0.00328343 0.00313291
v -0.00574587 -0.00317911 0.00295034
v -0.00585726 -0.00323106 0.00245971
v -0.01011451 -0.00261353 -0.01951626
v -0.01027046 -0.00218579 -0.02014382
v -0.01025831 -0.00218579 -0.01951626
v -0.01034540 -0.00093020 -0.02328542
v -0.01034337 0.00032581 -0.02705077
v -0.01033932 0.00032581 -0.02767833
v -0.01033325 0.00032581 -0.02830969
v -0.01034135 -0.00155778 -0.02014382
v -0.01033122 0.00063457 -0.02893725
v -0.01028059 0.00063457 -0.02958763
v -0.00775905 0.00063457 -0.01393669
v -0.00470890 0.00034508 0.00560131
v -0.00156963 0.00028307 0.00748398
v -0.00093975 0.00015990 0.00793278
v -0.00408105 0.00033209 0.00622886
v -0.00345319 0.00027092 0.00685642
v -0.00093975 -0.00030220 0.00805829
v -0.00031190 -0.00093020 0.00803548
v 0.00031393 -0.00093020 0.00803548
v 0.00094178 -0.00093020 0.00798603
v 0.00159394 -0.00094696 0.00787953
v 0.00198685 -0.00074838 0.00782248
v 0.00219749 -0.00094696 0.00773120
v 0.00326484 -0.00137638 0.00722535
v 0.00346535 -0.00157412 0.00703898
v 0.00219749 -0.00155778 0.00753723
v 0.00283547 -0.00157412 0.00731663
v 0.00388054 -0.00196207 0.00660920
v 0.00411750 -0.00221637 0.00625168
v 0.00358484 -0.00238102 0.00643805
v 0.00393522 -0.00259175 0.00601968
v 0.00407902 -0.00282133 0.00559750
v 0.00422282 -0.00305049 0.00514110
v 0.00446586 -0.00315774 0.00472272
v 0.00404054 -0.00321095 0.00494712
v 0.00345319 -0.00336429 0.00497375
v 0.00282534 -0.00348620 0.00497375
v 0.00219749 -0.00355742 0.00497375
v 0.00156963 -0.00358214 0.00497375
v -0.00156963 -0.00364079 0.00434238
v -0.00625018 -0.00311166 0.00206796
v -0.00655195 -0.00292858 0.00184736
v -0.01008616 -0.00256410 -0.01901421
v -0.00758285 -0.00194866 0.00120459
v -0.00693069 -0.00252429 0.00220868
v -0.00732158 -0.00213719 0.00180553
v -0.00219749 -0.00363074 0.00434238
v -0.00282534 -0.00360057 0.00434238
v -0.00345319 -0.00352935 0.00434238
v -0.00408105 -0.00340157 0.00434238
v -0.00468865 -0.00321807 0.00431576
v -0.00506941 -0.00315020 0.00408756
v -0.00519903 -0.00320760 0.00371483
v -0.00563043 -0.00311753 0.00337252
v -0.00617119 -0.00306055 0.00245971
v -0.00595853 -0.00298388 0.00313291
v -0.01033932 -0.00155778 -0.01951626
v -0.01016920 -0.00224151 -0.01883926
v -0.01030692 -0.00155778 -0.01888870
v -0.01034540 0.00032581 -0.02642321
v -0.01034540 -0.00093020 -0.01951626
v -0.01033932 0.00063457 -0.02830969
v -0.00992211 0.00063457 -0.01755371
v -0.00596460 0.00034298 0.00434238
v -0.00533675 0.00034508 0.00497375
v -0.00538333 0.00021185 0.00564695
v -0.00282534 0.00017289 0.00738509
v -0.00156963 0.00011633 0.00788334
v -0.00473118 0.00020138 0.00625929
v -0.00403244 0.00014608 0.00684881
v -0.00345319 0.00010418 0.00725958
v -0.00093975 -0.00093020 0.00798603
v -0.00202128 0.00005810 0.00783009
v -0.00156963 -0.00030220 0.00795941
v -0.00093975 -0.00141953 0.00786432
v -0.00031190 -0.00147483 0.00788714
v 0.00031393 -0.00147483 0.00788714
v 0.00094178 -0.00141953 0.00786432
v 0.00140153 -0.00133490 0.00783389
v 0.00182078 -0.00116732 0.00778445
v 0.00305015 -0.00179449 0.00713407
v 0.00159394 -0.00154940 0.00769317
v 0.00219749 -0.00204209 0.00728620
v 0.00263293 -0.00194322 0.00721774
v 0.00340661 -0.00217741 0.00669288
v 0.00316560 -0.00251382 0.00655595
v 0.00345319 -0.00301740 0.00573442
v 0.00340661 -0.00267135 0.00622886
v 0.00380358 -0.00314224 0.00531225
v 0.00345319 -0.00319294 0.00542255
v 0.00282331 -0.00325326 0.00563173
v 0.00219749 -0.00338188 0.00560131
v -0.00156963 -0.00358214 0.00497375
v 0.00156963 -0.00340660 0.00560131
v -0.00662081 -0.00271199 0.00243689
v -0.00775905 -0.00155778 0.00120459
v -0.00754842 -0.00189504 0.00158112
v -0.00643651 -0.00264160 0.00308727
v -0.00684765 -0.00243003 0.00262706
v -0.00708461 -0.00220673 0.00243689
v -0.00749981 -0.00179365 0.00199950
v -0.00219749 -0.00355742 0.00497375
v -0.00282534 -0.00348620 0.00497375
v -0.00345319 -0.00336429 0.00497375
v -0.00404054 -0.00321095 0.00494712
v -0.00446586 -0.00315774 0.00472272
v -0.00551296 -0.00305175 0.00371483
v -0.00488308 -0.00305887 0.00450593
v -0.00535093 -0.00283851 0.00436140
v -0.00598688 -0.00272204 0.00371102
v -0.00633727 -0.00255320 0.00350184
v -0.01031907 -0.00093020 -0.01888870
v -0.00794741 -0.00093020 0.00120459
v -0.00799804 -0.00030220 0.00120459
v -0.00807095 -0.00030220 0.00057703
v -0.01034540 0.00063457 -0.02642321
v -0.01033325 0.00063457 -0.01920819
v -0.01034540 0.00063457 -0.01951626
v -0.01008413 0.00063457 -0.01786939
v -0.00659246 0.00034508 0.00308727
v -0.00659246 0.00030486 0.00371483
v -0.00600106 0.00021018 0.00500798
v -0.00520511 0.00012304 0.00606912
v -0.00581676 0.00012304 0.00546819
v -0.00453675 0.00010544 0.00663583
v -0.00379142 0.00003129 0.00718351
v -0.00159394 -0.00094696 0.00787953
v -0.00140153 -0.00133490 0.00783389
v -0.00282534 -0.00030220 0.00759808
v -0.00237977 -0.00030220 0.00775783
v -0.00206584 -0.00030220 0.00784150
v -0.00198685 -0.00074880 0.00782248
v -0.00093975 -0.00173290 0.00771599
v 0.00094178 -0.00173290 0.00771599
v 0.00283547 -0.00216568 0.00696672
v 0.00153318 -0.00221637 0.00733185
v 0.00171748 -0.00244595 0.00712646
v 0.00219749 -0.00235588 0.00705800
v 0.00282534 -0.00258085 0.00662822
v 0.00282331 -0.00292355 0.00619083
v 0.00302990 -0.00309783 0.00585993
v 0.00261065 -0.00315230 0.00595502
v 0.00219749 -0.00319629 0.00603870
v -0.00156963 -0.00340618 0.00560131
v -0.00219749 -0.00338188 0.00560131
v 0.00156963 -0.00320634 0.00607292
v -0.00763550 -0.00157370 0.00180553
v -0.00782589 -0.00093020 0.00183215
v -0.00675043 -0.00230728 0.00308727
v -0.00699145 -0.00199307 0.00308727
v -0.00692056 -0.00189378 0.00342957
v -0.00743702 -0.00157370 0.00249394
v -0.00758690 -0.00137554 0.00230757
v -0.00282129 -0.00325326 0.00563173
v -0.00345319 -0.00319294 0.00542255
v -0.00380357 -0.00314266 0.00531225
v -0.00422282 -0.00305091 0.00514110
v -0.00468865 -0.00291517 0.00494712
v -0.00579043 -0.00261772 0.00422068
v -0.00516865 -0.00260599 0.00497375
v -0.00563448 -0.00248366 0.00463905
v -0.00656815 -0.00215814 0.00367299
v -0.00620967 -0.00242249 0.00392021
v -0.01031907 0.00063457 -0.01888870
v -0.00788867 -0.00030220 0.00183215
v -0.00763550 0.00012429 0.00245971
v -0.00771247 0.00017289 0.00183215
v -0.01014692 0.00063457 -0.01806717
v -0.00722031 0.00033963 0.00183215
v -0.00705221 0.00013812 0.00371483
v -0.00660664 0.00017792 0.00432717
v -0.00722031 0.00029103 0.00245971
v -0.00640613 0.00012010 0.00482161
v -0.00560410 -0.00030220 0.00586754
v -0.00529017 -0.00030220 0.00614139
v -0.00589574 -0.00030220 0.00555567
v -0.00491143 -0.00030220 0.00645326
v -0.00459751 -0.00030220 0.00667766
v -0.00410535 -0.00030220 0.00699334
v -0.00379142 -0.00030220 0.00718351
v -0.00345319 -0.00030220 0.00733565
v -0.00182077 -0.00116732 0.00778445
v -0.00219749 -0.00155778 0.00753723
v -0.00159394 -0.00154940 0.00769317
v -0.00377522 -0.00064155 0.00717591
v -0.00282534 -0.00093020 0.00752582
v -0.00219749 -0.00094696 0.00773120
v -0.00153318 -0.00221637 0.00733185
v -0.00130026 -0.00251131 0.00717971
v -0.00122938 -0.00251131 0.00717971
v 0.00130026 -0.00251089 0.00717971
v 0.00219749 -0.00268559 0.00674232
v 0.00219749 -0.00299938 0.00635057
v 0.00156963 -0.00303164 0.00638480
v -0.00156963 -0.00320592 0.00607292
v -0.00219749 -0.00319629 0.00603870
v -0.00156963 -0.00303164 0.00638480
v -0.00763753 -0.00094696 0.00249394
v -0.00772462 -0.00030220 0.00245971
v -0.00637980 -0.00200396 0.00419405
v -0.00624613 -0.00181544 0.00461243
v -0.00682132 -0.00155778 0.00388598
v -0.00699752 -0.00155778 0.00357030
v -0.00721626 -0.00155778 0.00308727
v -0.00751804 -0.00116732 0.00272594
v -0.00261065 -0.00315230 0.00595502
v -0.00302990 -0.00309825 0.00585993
v -0.00345319 -0.00301782 0.00573442
v -0.00407902 -0.00282133 0.00559750
v -0.00470890 -0.00259971 0.00542255
v -0.00502485 -0.00250083 0.00528562
v -0.00582688 -0.00206513 0.00486345
v -0.00601726 -0.00224360 0.00441465
v -0.00551498 -0.00223899 0.00503460
v -0.00564865 -0.00186780 0.00528182
v -0.01020768 0.00063457 -0.01826114
v -0.00756867 0.00005810 0.00285906
v -0.00724664 0.00017289 0.00307586
v -0.00695499 0.00006899 0.00411038
v -0.00646284 -0.00030220 0.00489387
v -0.00620967 -0.00030220 0.00520956
v -0.00555144 -0.00093020 0.00582190
v -0.00585321 -0.00093020 0.00550622
v -0.00523751 -0.00093020 0.00609574
v -0.00485067 -0.00093020 0.00641143
v -0.00453472 -0.00093020 0.00663583
v -0.00283547 -0.00157454 0.00731663
v -0.00263091 -0.00194322 0.00721774
v -0.00219749 -0.00204251 0.00728620
v -0.00368205 -0.00106049 0.00713027
v -0.00346534 -0.00088286 0.00726338
v -0.00402231 -0.00088286 0.00697052
v -0.00326281 -0.00137638 0.00722535
v -0.00171748 -0.00244637 0.00712646
v -0.00219749 -0.00268559 0.00674232
v -0.00219749 -0.00299980 0.00635057
v -0.00756057 -0.00074838 0.00283624
v -0.00758082 -0.00030220 0.00288569
v -0.00600309 -0.00163236 0.00501558
v -0.00634942 -0.00139733 0.00474935
v -0.00650537 -0.00158669 0.00438042
v -0.00690031 -0.00121676 0.00401910
v -0.00742690 -0.00094696 0.00306445
v -0.00282129 -0.00292355 0.00619083
v -0.00316559 -0.00251382 0.00655595
v -0.00340661 -0.00267135 0.00622886
v -0.00393522 -0.00259216 0.00601968
v -0.00435447 -0.00247109 0.00588275
v -0.00476156 -0.00223145 0.00576105
v -0.00500460 -0.00184644 0.00589797
v -0.00517878 -0.00218579 0.00543396
v -0.00539144 -0.00164786 0.00565075
v -0.00576005 -0.00144969 0.00540353
v -0.00744310 -0.00030220 0.00319756
v -0.00719398 -0.00030220 0.00371483
v -0.00697322 -0.00030220 0.00413700
v -0.00677676 -0.00030220 0.00445268
v -0.00642031 -0.00093020 0.00484063
v -0.00616714 -0.00093020 0.00515631
v -0.00513624 -0.00142791 0.00601207
v -0.00445573 -0.00133616 0.00658258
v -0.00305015 -0.00179491 0.00713407
v -0.00283547 -0.00216609 0.00696672
v -0.00219749 -0.00235630 0.00705800
v -0.00346534 -0.00157454 0.00703898
v -0.00408510 -0.00155024 0.00670809
v -0.00282534 -0.00258085 0.00662822
v -0.00676664 -0.00097628 0.00431957
v -0.00694689 -0.00079781 0.00409516
v -0.00708461 -0.00097628 0.00377188
v -0.00358484 -0.00238102 0.00643805
v -0.00340661 -0.00217741 0.00669288
v -0.00411750 -0.00221679 0.00625168
v -0.00458535 -0.00205214 0.00606152
v -0.00429776 -0.00175427 0.00647989
v -0.00472915 -0.00159088 0.00624408
v -0.00387851 -0.00196249 0.00660920
f 1 2 9
f 1 9 3
f 1 3 12
f 1 12 13
f 1 13 4
f 1 4 14
f 1 14 26
f 1 26 45
f 1 45 66
f 1 66 92
f 1 92 124
f 1 124 170
f 1 170 169
f 1 169 224
f 1 224 279
f 1 279 276
f 1 276 275
f 1 275 274
f 1 274 273
f 1 273 331
f 1 331 330
f 1 330 383
f 1 383 437
f 1 437 439
f 1 439 438
f 1 438 485
f 1 485 537
f 1 537 489
f 1 489 440
f 1 440 384
f 1 384 332
f 1 332 280
f 1 280 225
f 1 225 171
f 1 171 125
f 1 125 93
f 1 93 67
f 1 67 46
f 1 46 27
f 1 27 15
f 1 15 5
f 1 5 2
f 2 5 6
f 2 6 7
f 2 7 8
f 2 8 9
f 3 9 10
f 3 10 11
f 3 11 24
f 3 24 12
f 4 13 14
f 5 15 16
f 5 16 6
f 6 16 17
f 6 17 18
f 6 18 7
f 7 18 19
f 7 19 20
f 7 20 21
f 7 21 8
f 8 21 9
f 9 21 10
f 10 22 23
f 10 23 11
f 10 21 22
f 11 23 40
f 11 40 24
f 12 24 25
f 12 25 13
f 13 25 26
f 13 26 14
f 15 27 16
f 16 28 29
f 16 29 17
f 16 27 28
f 17 30 18
f 17 29 31
f 17 31 30
f 18 30 31
f 18 31 32
f 18 32 19
f 19 33 20
f 19 32 34
f 19 34 33
f 20 33 35
f 20 35 36
f 20 36 21
f 21 36 22
f 22 37 38
f 22 38 23
f 22 36 39
f 22 39 37
f 23 38 62
f 23 62 40
f 24 40 41
f 24 41 42
f 24 42 43
f 24 43 44
f 24 44 26
f 24 26 25
f 26 44 45
f 27 46 28
f 28 47 29
f 28 46 47
f 29 48 31
f 29 47 49
f 29 49 48
f 31 48 50
f 31 50 32
f 32 51 34
f 32 50 52
f 32 52 53
f 32 53 51
f 33 54 35
f 33 34 55
f 33 55 56
f 33 56 54
f 34 51 57
f 34 57 55
f 35 54 58
f 35 58 59
f 35 59 39
f 35 39 36
f 37 60 61
f 37 61 38
f 37 39 60
f 38 61 85
f 38 85 62
f 39 59 60
f 40 62 41
f 41 62 63
f 41 63 64
f 41 64 43
f 41 43 42
f 43 64 65
f 43 65 66
f 43 66 45
f 43 45 44
f 46 67 47
f 47 68 69
f 47 69 49
f 47 67 68
f 48 49 70
f 48 70 50
f 49 71 70
f 49 69 71
f 50 70 72
f 50 72 73
f 50 73 74
f 50 74 52
f 51 53 57
f 52 74 75
f 52 75 76
f 52 76 53
f 53 76 77
f 53 77 57
f 54 56 78
f 54 78 58
f 55 57 79
f 55 79 56
f 56 79 80
f 56 80 78
f 57 77 79
f 58 78 81
f 58 81 59
f 59 81 82
f 59 82 60
f 60 83 84
f 60 84 61
f 60 82 83
f 61 84 114
f 61 114 85
f 62 86 87
f 62 87 63
f 62 85 86
f 63 87 88
f 63 88 89
f 63 89 90
f 63 90 64
f 64 90 65
f 65 91 92
f 65 92 66
f 65 90 91
f 67 93 94
f 67 94 68
f 68 94 69
f 69 94 95
f 69 95 96
f 69 96 97
f 69 97 71
f 70 71 98
f 70 98 99
f 70 99 72
f 71 97 100
f 71 100 98
f 72 101 73
f 72 99 101
f 73 101 75
f 73 75 74
f 75 102 76
f 75 101 103
f 75 103 102
f 76 102 77
f 77 102 79
f 78 80 104
f 78 104 105
f 78 105 106
f 78 106 81
f 79 102 107
f 79 107 108
f 79 108 80
f 80 108 104
f 81 106 109
f 81 109 82
f 82 109 110
f 82 110 111
f 82 111 83
f 83 112 113
f 83 113 84
f 83 111 112
f 84 113 114
f 85 114 86
f 86 114 87
f 87 115 88
f 87 114 116
f 87 116 115
f 88 115 117
f 88 117 118
f 88 118 119
f 88 119 156
f 88 156 120
f 88 120 165
f 88 165 121
f 88 121 122
f 88 122 90
f 88 90 89
f 90 122 123
f 90 123 91
f 91 123 124
f 91 124 92
f 93 125 126
f 93 126 94
f 94 126 127
f 94 127 95
f 95 127 128
f 95 128 96
f 96 128 129
f 96 129 130
f 96 130 97
f 97 131 100
f 97 130 131
f 98 132 99
f 98 100 132
f 99 132 133
f 99 133 101
f 100 131 180
f 100 180 134
f 100 134 132
f 101 133 135
f 101 135 103
f 102 103 135
f 102 135 136
f 102 136 137
f 102 137 107
f 104 108 107
f 104 107 137
f 104 137 138
f 104 138 139
f 104 139 140
f 104 140 141
f 104 141 142
f 104 142 105
f 105 142 143
f 105 143 106
f 106 143 109
f 109 143 144
f 109 144 145
f 109 145 110
f 110 145 146
f 110 146 111
f 111 146 147
f 111 147 112
f 112 147 148
f 112 148 113
f 113 148 149
f 113 149 117
f 113 117 115
f 113 115 116
f 113 116 114
f 117 150 151
f 117 151 152
f 117 152 118
f 117 149 148
f 117 148 153
f 117 153 154
f 117 154 155
f 117 155 150
f 118 152 119
f 119 152 200
f 119 200 156
f 120 156 157
f 120 157 158
f 120 158 159
f 120 159 160
f 120 160 161
f 120 161 162
f 120 162 163
f 120 163 164
f 120 164 165
f 121 165 222
f 121 222 166
f 121 166 122
f 122 166 167
f 122 167 123
f 123 168 169
f 123 169 170
f 123 170 124
f 123 167 168
f 125 171 172
f 125 172 126
f 126 172 127
f 127 172 173
f 127 173 174
f 127 174 128
f 128 174 175
f 128 175 176
f 128 176 129
f 129 176 130
f 130 177 178
f 130 178 131
f 130 176 179
f 130 179 177
f 131 178 180
f 132 181 133
f 132 134 181
f 133 181 135
f 134 180 182
f 134 182 181
f 135 138 136
f 135 181 183
f 135 183 138
f 136 138 137
f 138 183 184
f 138 184 185
f 138 185 186
f 138 186 187
f 138 187 139
f 139 188 140
f 139 187 188
f 140 188 141
f 141 189 144
f 141 144 143
f 141 143 142
f 141 188 190
f 141 190 191
f 141 191 189
f 144 189 192
f 144 192 145
f 145 192 146
f 146 192 193
f 146 193 194
f 146 194 147
f 147 194 195
f 147 195 148
f 148 195 196
f 148 196 197
f 148 197 153
f 150 198 151
f 150 155 198
f 151 199 200
f 151 200 152
f 151 198 155
f 151 155 204
f 151 204 255
f 151 255 311
f 151 311 259
f 151 259 208
f 151 208 252
f 151 252 199
f 153 197 201
f 153 201 202
f 153 202 154
f 154 202 203
f 154 203 204
f 154 204 155
f 156 200 157
f 157 200 158
f 158 205 206
f 158 206 159
f 158 200 199
f 158 199 207
f 158 207 208
f 158 208 209
f 158 209 210
f 158 210 211
f 158 211 205
f 159 212 160
f 159 206 212
f 160 212 213
f 160 213 214
f 160 214 215
f 160 215 161
f 161 215 216
f 161 216 217
f 161 217 163
f 161 163 162
f 163 217 218
f 163 218 219
f 163 219 220
f 163 220 164
f 164 220 221
f 164 221 222
f 164 222 165
f 166 222 278
f 166 278 223
f 166 223 168
f 166 168 167
f 168 223 224
f 168 224 169
f 171 225 226
f 171 226 172
f 172 226 282
f 172 282 227
f 172 227 173
f 173 227 228
f 173 228 174
f 174 228 229
f 174 229 175
f 175 229 230
f 175 230 176
f 176 230 179
f 177 231 234
f 177 234 178
f 177 179 232
f 177 232 233
f 177 233 231
f 178 234 180
f 179 230 235
f 179 235 236
f 179 236 237
f 179 237 232
f 180 234 182
f 181 184 183
f 181 182 238
f 181 238 184
f 182 239 238
f 182 234 240
f 182 240 241
f 182 241 239
f 184 242 243
f 184 243 186
f 184 186 185
f 184 238 239
f 184 239 244
f 184 244 242
f 186 245 190
f 186 190 188
f 186 188 187
f 186 243 242
f 186 242 246
f 186 246 245
f 189 191 247
f 189 247 193
f 189 193 192
f 190 248 191
f 190 245 248
f 191 248 247
f 193 247 249
f 193 249 194
f 194 249 195
f 195 249 250
f 195 250 196
f 196 250 251
f 196 251 201
f 196 201 197
f 199 252 207
f 201 251 253
f 201 253 202
f 202 253 203
f 203 253 254
f 203 254 255
f 203 255 204
f 205 211 206
f 206 211 256
f 206 256 257
f 206 257 258
f 206 258 213
f 206 213 212
f 207 252 208
f 208 259 209
f 209 259 260
f 209 260 261
f 209 261 210
f 210 261 262
f 210 262 263
f 210 263 211
f 211 263 264
f 211 264 265
f 211 265 266
f 211 266 256
f 213 258 267
f 213 267 268
f 213 268 214
f 214 268 215
f 215 269 216
f 215 268 270
f 215 270 323
f 215 323 269
f 216 269 271
f 216 271 272
f 216 272 217
f 217 272 218
f 218 272 273
f 218 273 219
f 219 273 274
f 219 274 220
f 220 274 275
f 220 275 276
f 220 276 277
f 220 277 221
f 221 277 222
f 222 277 278
f 223 278 279
f 223 279 224
f 225 280 226
f 226 281 282
f 226 280 283
f 226 283 284
f 226 284 281
f 227 282 285
f 227 285 286
f 227 286 228
f 228 286 287
f 228 287 229
f 229 287 230
f 230 287 288
f 230 288 289
f 230 289 290
f 230 290 235
f 231 240 234
f 231 233 291
f 231 291 240
f 232 237 233
f 233 292 291
f 233 237 236
f 233 236 235
f 233 235 293
f 233 293 294
f 233 294 292
f 235 290 293
f 239 241 295
f 239 295 296
f 239 296 297
f 239 297 242
f 239 242 244
f 240 295 241
f 240 291 292
f 240 292 298
f 240 298 295
f 242 297 299
f 242 299 300
f 242 300 301
f 242 301 246
f 245 246 302
f 245 302 303
f 245 303 248
f 246 301 302
f 247 248 303
f 247 303 304
f 247 304 249
f 249 304 250
f 250 304 303
f 250 303 305
f 250 305 306
f 250 306 251
f 251 306 307
f 251 307 253
f 253 307 308
f 253 308 309
f 253 309 254
f 254 309 310
f 254 310 255
f 255 310 361
f 255 361 311
f 256 266 312
f 256 312 257
f 257 313 258
f 257 312 314
f 257 314 313
f 258 313 267
f 259 311 260
f 260 311 315
f 260 315 316
f 260 316 261
f 261 316 262
f 262 316 317
f 262 317 264
f 262 264 263
f 264 317 318
f 264 318 265
f 265 318 319
f 265 319 320
f 265 320 321
f 265 321 266
f 266 321 312
f 267 270 268
f 267 313 322
f 267 322 270
f 269 323 329
f 269 329 271
f 270 322 324
f 270 324 323
f 271 325 326
f 271 326 327
f 271 327 328
f 271 328 272
f 271 329 382
f 271 382 325
f 272 328 330
f 272 330 331
f 272 331 273
f 276 279 277
f 277 279 278
f 280 332 333
f 280 333 283
f 281 334 335
f 281 335 282
f 281 284 334
f 282 335 285
f 283 333 284
f 284 336 337
f 284 337 334
f 284 333 336
f 285 335 338
f 285 338 393
f 285 393 339
f 285 339 340
f 285 340 286
f 286 340 287
f 287 340 341
f 287 341 288
f 288 341 342
f 288 342 343
f 288 343 289
f 289 343 290
f 290 343 344
f 290 344 293
f 292 294 293
f 292 293 345
f 292 345 346
f 292 346 298
f 293 344 347
f 293 347 348
f 293 348 345
f 295 298 349
f 295 349 296
f 296 299 297
f 296 349 350
f 296 350 299
f 298 346 349
f 299 350 351
f 299 351 352
f 299 352 353
f 299 353 300
f 300 353 354
f 300 354 301
f 301 355 302
f 301 354 355
f 302 355 303
f 303 355 305
f 305 355 306
f 306 355 356
f 306 356 357
f 306 357 307
f 307 357 358
f 307 358 359
f 307 359 308
f 308 359 309
f 309 359 360
f 309 360 310
f 310 360 414
f 310 414 361
f 311 361 315
f 312 321 362
f 312 362 363
f 312 363 314
f 313 364 322
f 313 314 365
f 313 365 364
f 314 363 366
f 314 366 367
f 314 367 365
f 315 361 368
f 315 368 316
f 316 368 369
f 316 369 370
f 316 370 317
f 317 370 371
f 317 371 318
f 318 371 372
f 318 372 373
f 318 373 374
f 318 374 319
f 319 374 375
f 319 375 320
f 320 376 362
f 320 362 321
f 320 375 377
f 320 377 376
f 322 364 324
f 323 324 378
f 323 378 329
f 324 364 379
f 324 379 380
f 324 380 378
f 325 381 326
f 325 382 439
f 325 439 437
f 325 437 381
f 326 381 383
f 326 383 327
f 327 383 328
f 328 383 330
f 329 378 382
f 332 384 385
f 332 385 386
f 332 386 333
f 333 386 387
f 333 387 336
f 334 337 388
f 334 388 389
f 334 389 335
f 335 389 338
f 336 387 390
f 336 390 337
f 337 390 391
f 337 391 392
f 337 392 388
f 338 389 394
f 338 394 395
f 338 395 393
f 339 393 396
f 339 396 397
f 339 397 398
f 339 398 340
f 340 398 399
f 340 399 341
f 341 399 400
f 341 400 342
f 342 400 401
f 342 401 343
f 343 401 344
f 344 401 347
f 345 402 346
f 345 348 402
f 346 402 349
f 347 401 400
f 347 400 403
f 347 403 404
f 347 404 405
f 347 405 348
f 348 405 402
f 349 351 350
f 349 402 406
f 349 406 351
f 351 406 407
f 351 407 352
f 352 408 353
f 352 407 409
f 352 409 408
f 353 410 354
f 353 408 410
f 354 410 355
f 355 410 356
f 356 410 357
f 357 410 411
f 357 411 412
f 357 412 358
f 358 412 413
f 358 413 359
f 359 413 415
f 359 415 360
f 360 415 414
f 361 414 368
f 362 376 416
f 362 416 363
f 363 416 366
f 364 365 417
f 364 417 379
f 365 367 418
f 365 418 417
f 366 416 419
f 366 419 420
f 366 420 421
f 366 421 367
f 367 421 422
f 367 422 418
f 368 414 423
f 368 423 369
f 369 423 424
f 369 424 370
f 370 424 425
f 370 425 371
f 371 425 426
f 371 426 427
f 371 427 372
f 372 427 373
f 373 428 375
f 373 375 374
f 373 427 429
f 373 429 430
f 373 430 428
f 375 428 431
f 375 431 377
f 376 377 419
f 376 419 416
f 377 431 432
f 377 432 419
f 378 380 433
f 378 433 382
f 379 417 434
f 379 434 380
f 380 434 435
f 380 435 436
f 380 436 433
f 381 437 383
f 382 433 438
f 382 438 439
f 384 440 441
f 384 441 385
f 385 442 443
f 385 443 387
f 385 387 386
f 385 441 442
f 387 444 390
f 387 443 445
f 387 445 444
f 388 394 389
f 388 392 394
f 390 446 391
f 390 444 446
f 391 446 392
f 392 446 447
f 392 447 394
f 393 395 448
f 393 448 449
f 393 449 396
f 394 450 451
f 394 451 452
f 394 452 395
f 394 447 450
f 395 452 453
f 395 453 448
f 396 449 454
f 396 454 397
f 397 454 455
f 397 455 398
f 398 455 399
f 399 455 400
f 400 455 403
f 402 405 456
f 402 456 406
f 403 455 457
f 403 457 404
f 404 458 459
f 404 459 405
f 404 457 458
f 405 459 456
f 406 456 407
f 407 460 461
f 407 461 462
f 407 462 409
f 407 456 459
f 407 459 460
f 408 409 462
f 408 462 410
f 410 462 411
f 411 462 412
f 412 462 463
f 412 463 464
f 412 464 413
f 413 464 415
f 414 415 465
f 414 465 466
f 414 466 423
f 415 464 467
f 415 467 516
f 415 516 465
f 417 418 468
f 417 468 469
f 417 469 434
f 418 422 468
f 419 432 420
f 420 432 470
f 420 470 471
f 420 471 421
f 421 471 422
f 422 471 472
f 422 472 473
f 422 473 474
f 422 474 468
f 423 466 424
f 424 466 475
f 424 475 425
f 425 476 477
f 425 477 426
f 425 475 476
f 426 477 427
f 427 477 478
f 427 478 479
f 427 479 429
f 428 430 480
f 428 480 431
f 429 479 481
f 429 481 430
f 430 481 482
f 430 482 480
f 431 480 432
f 432 483 472
f 432 472 470
f 432 480 484
f 432 484 483
f 433 485 438
f 433 436 485
f 434 469 486
f 434 486 435
f 435 486 487
f 435 487 488
f 435 488 485
f 435 485 436
f 440 489 490
f 440 490 441
f 441 490 442
f 442 491 492
f 442 492 443
f 442 490 493
f 442 493 491
f 443 492 494
f 443 494 445
f 444 445 495
f 444 495 496
f 444 496 446
f 445 494 497
f 445 497 495
f 446 496 498
f 446 498 499
f 446 499 447
f 447 500 501
f 447 501 502
f 447 502 450
f 447 499 500
f 448 453 503
f 448 503 449
f 449 503 504
f 449 504 505
f 449 505 454
f 450 502 506
f 450 506 507
f 450 507 451
f 451 507 508
f 451 508 453
f 451 453 452
f 453 508 503
f 454 505 509
f 454 509 510
f 454 510 511
f 454 511 455
f 455 511 512
f 455 512 457
f 457 512 458
f 458 512 513
f 458 513 459
f 459 513 460
f 460 514 461
f 460 513 514
f 461 514 462
f 462 514 463
f 463 514 464
f 464 514 515
f 464 515 467
f 465 516 517
f 465 517 466
f 466 517 475
f 467 515 518
f 467 518 516
f 468 474 469
f 469 474 519
f 469 519 520
f 469 520 486
f 470 472 471
f 472 483 521
f 472 521 522
f 472 522 523
f 472 523 524
f 472 524 525
f 472 525 473
f 473 525 526
f 473 526 474
f 474 526 519
f 475 517 527
f 475 527 528
f 475 528 476
f 476 528 477
f 477 528 529
f 477 529 530
f 477 530 478
f 478 530 531
f 478 531 479
f 479 531 532
f 479 532 481
f 480 482 484
f 481 532 482
f 482 533 522
f 482 522 534
f 482 534 484
f 482 532 535
f 482 535 536
f 482 536 533
f 483 484 521
f 484 534 521
f 485 488 537
f 486 520 538
f 486 538 487
f 487 538 491
f 487 491 539
f 487 539 493
f 487 493 488
f 488 493 490
f 488 490 537
f 489 537 490
f 491 540 492
f 491 493 539
f 491 538 540
f 492 540 494
f 494 541 542
f 494 542 497
f 494 540 541
f 495 543 545
f 495 545 496
f 495 497 544
f 495 544 543
f 496 545 498
f 497 542 544
f 498 546 499
f 498 545 546
f 499 546 547
f 499 547 506
f 499 506 500
f 500 506 501
f 501 506 502
f 503 508 504
f 504 508 507
f 504 507 548
f 504 548 549
f 504 549 550
f 504 550 505
f 505 550 509
f 506 551 552
f 506 552 507
f 506 547 553
f 506 553 551
f 507 552 551
f 507 551 554
f 507 554 548
f 509 550 555
f 509 555 510
f 510 555 556
f 510 556 557
f 510 557 518
f 510 518 515
f 510 515 511
f 511 515 512
f 512 515 514
f 512 514 513
f 516 518 517
f 517 518 557
f 517 557 527
f 519 526 558
f 519 558 520
f 520 558 559
f 520 559 538
f 521 534 522
f 522 533 536
f 522 536 560
f 522 560 561
f 522 561 562
f 522 562 523
f 523 563 524
f 523 562 563
f 524 563 526
f 524 526 525
f 526 563 564
f 526 564 558
f 527 557 528
f 528 557 565
f 528 565 566
f 528 566 567
f 528 567 529
f 529 567 568
f 529 568 530
f 530 568 569
f 530 569 531
f 531 569 532
f 532 569 570
f 532 570 571
f 532 571 572
f 532 572 536
f 532 536 535
f 536 572 571
f 536 571 573
f 536 573 574
f 536 574 560
f 538 559 575
f 538 575 576
f 538 576 540
f 540 576 577
f 540 577 578
f 540 578 541
f 541 578 579
f 541 579 580
f 541 580 542
f 542 580 544
f 543 581 545
f 543 544 574
f 543 574 581
f 544 580 574
f 545 581 546
f 546 582 547
f 546 581 582
f 547 582 553
f 548 554 583
f 548 583 549
f 549 583 584
f 549 584 585
f 549 585 550
f 550 585 555
f 551 586 554
f 551 553 582
f 551 582 587
f 551 587 586
f 554 586 583
f 555 585 556
f 556 585 588
f 556 588 557
f 557 588 565
f 558 564 575
f 558 575 559
f 560 574 561
f 561 579 589
f 561 589 563
f 561 563 562
f 561 574 580
f 561 580 579
f 563 589 590
f 563 590 591
f 563 591 564
f 564 591 575
f 565 588 566
f 566 592 568
f 566 568 567
f 566 588 585
f 566 585 584
f 566 584 593
f 566 593 592
f 568 592 569
f 569 592 594
f 569 594 595
f 569 595 570
f 570 595 571
f 571 595 596
f 571 596 597
f 571 597 581
f 571 581 573
f 573 581 574
f 575 591 576
f 576 591 590
f 576 590 577
f 577 590 578
f 578 590 579
f 579 590 589
f 581 597 582
f 582 597 596
f 582 596 587
f 583 593 584
f 583 586 598
f 583 598 593
f 586 587 598
f 587 596 598
f 592 593 598
f 592 598 594
f 594 598 595
f 595 598 596

