# https://github.com/mikedh/trimesh
v 0.01033990 0.02538286 -0.02155629
v 0.01032775 0.02661799 -0.01970264
v 0.01033180 0.02600042 -0.01970264
v 0.01033990 0.01644277 -0.02155629
v 0.01033990 0.02538286 -0.02773288
v 0.01027108 0.02723689 -0.01970264
v 0.01031763 0.02661799 -0.01908475
v 0.01032573 0.02600042 -0.01908475
v 0.01033383 0.02600042 -0.02773288
v 0.01032573 0.02661799 -0.02773288
v 0.01027108 0.02723689 -0.02773288
v 0.01032775 0.02352883 -0.01908475
v 0.01032775 0.01644277 -0.01908475
v 0.01033990 0.01644277 -0.02958877
v 0.01033990 0.02476396 -0.02958877
v 0.01010914 0.02785446 -0.01970264
v 0.01025893 0.02723689 -0.01908475
v 0.01024071 0.02661799 -0.01846687
v 0.01024881 0.02600042 -0.01846687
v 0.01032978 0.02538286 -0.02958877
v 0.00999780 0.02785446 -0.02823659
v 0.01010914 0.02785446 -0.02773288
v 0.01025083 0.02352883 -0.01846687
v 0.01025083 0.01644277 -0.01846687
v 0.01031156 0.01644277 -0.03637429
v 0.00994315 0.02826040 -0.01970264
v 0.01009699 0.02785446 -0.01908475
v 0.01017998 0.02723689 -0.01846687
v 0.01004436 0.02661799 -0.01784899
v 0.01005246 0.02600042 -0.01784899
v 0.01018808 0.02538286 -0.03020665
v 0.01023869 0.01796806 -0.03637429
v 0.00992290 0.02822846 -0.02813137
v 0.00994315 0.02826040 -0.02773288
v 0.01005448 0.02167612 -0.01784899
v 0.01015974 0.01644277 -0.01817808
v -0.01031156 0.01644277 -0.03637429
v 0.00974477 0.02857052 -0.02032052
v 0.00974275 0.02857052 -0.01970264
v 0.00973667 0.02855987 -0.01908475
v 0.00993505 0.02824975 -0.01908475
v 0.00991481 0.02821382 -0.01865268
v 0.00999983 0.02788507 -0.01845568
v 0.00994517 0.02769874 -0.01802361
v 0.00997958 0.02719031 -0.01782884
v 0.00990469 0.02600042 -0.01751318
v 0.00989254 0.02695339 -0.01753109
v 0.00812941 0.02661799 -0.01350366
v 0.00990469 0.02476396 -0.01751094
v 0.00993707 0.02574488 -0.03054022
v 0.01001197 0.02597114 -0.03015292
v 0.01006663 0.01848048 -0.03637429
v 0.00937838 0.02889660 -0.02819853
v 0.00974275 0.02857052 -0.02773288
v 0.00558897 0.02951417 -0.03431244
v 0.00496145 0.03002526 -0.03485644
v 0.00974477 0.02857052 -0.02340994
v 0.01005448 0.01644277 -0.01784899
v 0.00998566 0.01644277 -0.01769004
v -0.01031156 0.01644943 -0.03637429
v -0.01033990 0.01644277 -0.02958877
v 0.00943506 0.02895916 -0.02032052
v 0.00943506 0.02895649 -0.01970264
v 0.00942696 0.02894718 -0.01908475
v 0.00937635 0.02889527 -0.01846687
v 0.00971238 0.02844141 -0.01845568
v 0.00986420 0.02811133 -0.01824076
v 0.00985206 0.02736599 -0.01761169
v 0.00790877 0.02784514 -0.01350366
v 0.00802618 0.02750974 -0.01350366
v 0.00807678 0.02721027 -0.01350366
v 0.00812941 0.02660734 -0.01350366
v 0.01006258 0.01849113 -0.03637429
v 0.00625900 0.02585136 -0.03637429
v 0.00874479 0.02946359 -0.02816719
v 0.00910106 0.02926395 -0.02773288
v 0.00943303 0.02895516 -0.02773288
v 0.00943506 0.02895783 -0.02402782
v 0.00507683 0.02970849 -0.03496166
v 0.00625293 0.02585801 -0.03637429
v 0.00592297 0.02616014 -0.03637429
v 0.00463352 0.02970849 -0.03513180
v 0.00463352 0.03002792 -0.03487435
v 0.00463352 0.03003990 -0.03453183
v 0.00499586 0.03002792 -0.03453183
v 0.00701607 0.03002792 -0.02773288
v 0.00732578 0.03001328 -0.02773288
v 0.00772456 0.02994008 -0.02773288
v 0.00834196 0.02973112 -0.02773288
v 0.00990469 0.01644277 -0.01751094
v -0.01033990 0.02476396 -0.02958877
v -0.01032978 0.02538286 -0.02958877
v -0.01023869 0.01796806 -0.03637429
v -0.01033990 0.01644277 -0.02155629
v 0.00910510 0.02926794 -0.02032052
v 0.00910713 0.02926661 -0.02402782
v 0.00910308 0.02926528 -0.01970264
v 0.00909296 0.02925596 -0.01908475
v 0.00903021 0.02920405 -0.01846687
v 0.00931158 0.02882739 -0.01807286
v 0.00945530 0.02848134 -0.01786018
v 0.00740878 0.02877149 -0.01350366
v 0.00760311 0.02846271 -0.01350366
v 0.00790472 0.02785446 -0.01350366
v 0.00808690 0.02616280 -0.01350366
v 0.00879134 0.02949554 -0.02773288
v 0.00561934 0.02632119 -0.03637429
v 0.00401612 0.02970849 -0.03513628
v 0.00561326 0.02632385 -0.03637429
v 0.00560517 0.02632651 -0.03637429
v 0.00523878 0.02634514 -0.03637429
v 0.00401612 0.02909092 -0.03536687
v -0.00463352 0.03002792 -0.03487435
v -0.00463352 0.03003990 -0.03453183
v 0.00648774 0.03003990 -0.02773288
v 0.00704036 0.03002792 -0.02587923
v 0.00735007 0.03001461 -0.02587923
v 0.00735615 0.03001461 -0.02526135
v 0.00772456 0.02994274 -0.02526135
v 0.00834196 0.02973378 -0.02464570
v 0.00879742 0.02949820 -0.02402782
v 0.00980145 0.01644277 -0.01736543
v -0.01033990 0.02538286 -0.02773288
v -0.01033383 0.02600042 -0.02773288
v -0.01032573 0.02661799 -0.02773288
v -0.01027107 0.02723689 -0.02773288
v -0.00999780 0.02785446 -0.02823659
v -0.01018808 0.02538286 -0.03020665
v -0.01006258 0.01849113 -0.03637429
v -0.00993707 0.02574488 -0.03054022
v -0.01032776 0.01644277 -0.01908475
v -0.01033180 0.02600042 -0.01970264
v -0.01033990 0.02538286 -0.02155629
v 0.00879742 0.02949687 -0.02032052
v 0.00879539 0.02949687 -0.01970264
v 0.00878325 0.02948888 -0.01908475
v 0.00872252 0.02944762 -0.01846687
v 0.00866382 0.02940769 -0.01813778
v 0.00677721 0.02938640 -0.01350366
v 0.00709907 0.02907761 -0.01350366
v 0.00773671 0.02589528 -0.01350366
v 0.00895936 0.01644277 -0.01669829
v 0.00918203 0.01644277 -0.01676769
v 0.00937433 0.01644277 -0.01682814
v 0.00954032 0.01644277 -0.01702738
v 0.00968404 0.01644277 -0.01720200
v -0.00401612 0.02970849 -0.03513628
v 0.00463352 0.02634648 -0.03637429
v -0.00401612 0.02909092 -0.03536687
v -0.00496145 0.03002526 -0.03485644
v -0.00463352 0.02970849 -0.03513180
v -0.00499586 0.03002792 -0.03453183
v -0.00701000 0.03002792 -0.02773288
v -0.00648774 0.03003990 -0.02773288
v 0.00704846 0.03002792 -0.02464570
v 0.00704644 0.03002792 -0.02526135
v 0.00648774 0.03003990 -0.01970264
v 0.00735817 0.03001461 -0.02464570
v 0.00772456 0.02994274 -0.02402782
v 0.00834196 0.02973378 -0.02402782
v 0.00834196 0.02973245 -0.01970264
v -0.01032776 0.02661799 -0.01970264
v -0.01010914 0.02785446 -0.02773288
v -0.01027107 0.02723689 -0.01970264
v -0.00992290 0.02822846 -0.02813137
v -0.01001197 0.02597114 -0.03015292
v -0.00625900 0.02585136 -0.03637429
v -0.00558897 0.02951417 -0.03431244
v -0.01025083 0.01644277 -0.01846687
v -0.01032776 0.02352883 -0.01908475
v -0.01032573 0.02600042 -0.01908475
v 0.00834196 0.02971914 -0.01908475
v 0.00834196 0.02963662 -0.01846687
v 0.00646952 0.02956608 -0.01350366
v 0.00770027 0.02587665 -0.01350366
v 0.00867191 0.01644277 -0.01668038
v -0.00463352 0.02634648 -0.03637429
v -0.00525294 0.02634248 -0.03637429
v -0.00592297 0.02616014 -0.03637429
v -0.00592905 0.02615482 -0.03637429
v -0.00507683 0.02970849 -0.03496166
v -0.00937838 0.02889660 -0.02819853
v -0.00874479 0.02946359 -0.02816719
v -0.00834196 0.02973112 -0.02773288
v -0.00772456 0.02993875 -0.02773288
v -0.00731971 0.03001195 -0.02773288
v -0.00561326 0.02632385 -0.03637429
v -0.00733186 0.03001328 -0.02402782
v -0.00735615 0.03001328 -0.02032052
v -0.00704846 0.03002792 -0.02032052
v -0.00648774 0.03003990 -0.01970264
v 0.00704846 0.03002792 -0.02402782
v 0.00401612 0.03003990 -0.01350366
v 0.00463352 0.03003458 -0.01350366
v 0.00648774 0.03003591 -0.01908475
v 0.00701000 0.03002792 -0.01970264
v 0.00703024 0.03002792 -0.02032052
v 0.00735817 0.03001461 -0.02402782
v 0.00772456 0.02994008 -0.01970264
v 0.00772456 0.02992943 -0.01908475
v -0.01031763 0.02661799 -0.01908475
v -0.00994315 0.02826040 -0.02773288
v -0.01010914 0.02785446 -0.01970264
v -0.01025893 0.02723689 -0.01908475
v -0.00974274 0.02857052 -0.02773288
v -0.01014557 0.01644277 -0.01813554
v -0.01025083 0.02414639 -0.01846687
v -0.01024881 0.02600042 -0.01846687
v 0.00772456 0.02985356 -0.01846687
v 0.00587034 0.02983759 -0.01350366
v 0.00710514 0.02578215 -0.01350366
v 0.00834196 0.01644277 -0.01666023
v -0.00943506 0.02895516 -0.02773288
v -0.00910106 0.02926395 -0.02773288
v -0.00879337 0.02949554 -0.02773288
v -0.00834196 0.02973245 -0.02711500
v -0.00772456 0.02994008 -0.02649711
v -0.00772456 0.02994141 -0.01970264
v -0.00734198 0.03001328 -0.01970264
v -0.00772456 0.02994141 -0.02402782
v -0.00703429 0.03002792 -0.01970264
v -0.00648774 0.03003591 -0.01908475
v -0.00463352 0.03003458 -0.01350366
v -0.00401612 0.03003990 -0.01350366
v 0.00497562 0.03002393 -0.01350366
v 0.00694725 0.03002526 -0.01908475
v 0.00731971 0.03001195 -0.01970264
v 0.00733793 0.03001195 -0.02032052
v 0.00725696 0.03000796 -0.01908475
v 0.00529343 0.02998001 -0.01350366
v -0.01024071 0.02661799 -0.01846687
v -0.00974477 0.02857052 -0.02587923
v -0.00994315 0.02826040 -0.01970264
v -0.01009699 0.02785446 -0.01908475
v -0.01017998 0.02723689 -0.01846687
v -0.00943506 0.02895649 -0.02711500
v -0.01005448 0.01644277 -0.01784899
v -0.01005448 0.02105723 -0.01784899
v -0.01005246 0.02600042 -0.01784899
v 0.00648774 0.02578082 -0.01350366
v -0.00834196 0.01644277 -0.01666023
v -0.00910510 0.02926661 -0.02587923
v -0.00910308 0.02926528 -0.02711500
v -0.00910713 0.02926794 -0.02402782
v -0.00879742 0.02949820 -0.02402782
v -0.00834196 0.02973378 -0.02526135
v -0.00834196 0.02973245 -0.01970264
v -0.00772456 0.02992943 -0.01908475
v -0.00834196 0.02973378 -0.02402782
v -0.00726101 0.03000929 -0.01908475
v -0.00695130 0.03002526 -0.01908475
v -0.00498574 0.03002260 -0.01350366
v 0.00498574 0.03002260 -0.01350366
v -0.01004436 0.02661799 -0.01784899
v -0.00974477 0.02857052 -0.02340994
v -0.00943506 0.02895916 -0.02464570
v -0.00993505 0.02824975 -0.01908475
v -0.00974274 0.02857052 -0.01970264
v -0.00999983 0.02788507 -0.01845568
v -0.00991481 0.02821382 -0.01865268
v -0.00997958 0.02719031 -0.01782884
v -0.00994517 0.02769874 -0.01802361
v -0.00997553 0.01644277 -0.01766765
v -0.00990469 0.02476396 -0.01751094
v -0.00990469 0.02600042 -0.01751318
v -0.00652215 0.02578082 -0.01350366
v -0.00895936 0.01644277 -0.01669829
v -0.00712538 0.02578215 -0.01350366
v -0.00770027 0.02587665 -0.01350366
v -0.00943506 0.02895916 -0.02340994
v -0.00943506 0.02895649 -0.02032052
v -0.00910510 0.02926528 -0.02032052
v -0.00879539 0.02949687 -0.02032052
v -0.00879337 0.02949554 -0.01970264
v -0.00878325 0.02948888 -0.01908475
v -0.00834196 0.02971914 -0.01908475
v -0.00772456 0.02985356 -0.01846687
v -0.00587034 0.02983759 -0.01350366
v -0.00530962 0.02997601 -0.01350366
v -0.00529343 0.02998001 -0.01350366
v -0.00528533 0.02998134 -0.01350366
v -0.00989254 0.02695339 -0.01753109
v -0.00813144 0.02661799 -0.01350366
v -0.00973465 0.02855987 -0.01908475
v -0.00942696 0.02894718 -0.01908475
v -0.00943303 0.02895516 -0.01970264
v -0.00986420 0.02811133 -0.01824076
v -0.00971238 0.02844141 -0.01845568
v -0.00802820 0.02750175 -0.01350366
v -0.00985205 0.02736599 -0.01761169
v -0.00802415 0.02751905 -0.01350366
v -0.00790472 0.02785446 -0.01350366
v -0.00990469 0.01644277 -0.01751094
v -0.00915369 0.01644277 -0.01675874
v -0.00808690 0.02616280 -0.01350366
v -0.00910106 0.02926395 -0.01970264
v -0.00909093 0.02925596 -0.01908475
v -0.00872252 0.02944762 -0.01846687
v -0.00834196 0.02963662 -0.01846687
v -0.00646952 0.02956608 -0.01350366
v -0.00807678 0.02720095 -0.01350366
v -0.00937635 0.02889527 -0.01846687
v -0.00931158 0.02882739 -0.01807286
v -0.00789662 0.02787176 -0.01350366
v -0.00760311 0.02846271 -0.01350366
v -0.00740878 0.02877149 -0.01350366
v -0.00978728 0.01644277 -0.01734528
v -0.00937433 0.01644277 -0.01682814
v -0.00968404 0.01644277 -0.01720200
v -0.00952008 0.01644277 -0.01700276
v -0.00903021 0.02920405 -0.01846687
v -0.00866382 0.02940769 -0.01813778
v -0.00676911 0.02939172 -0.01350366
v -0.00709907 0.02907761 -0.01350366
v -0.00678733 0.02937708 -0.01350366
v -0.00677721 0.02938640 -0.01350366
f 1 2 3
f 1 3 4
f 1 4 14
f 1 14 15
f 1 15 5
f 1 5 9
f 1 9 2
f 2 6 7
f 2 7 8
f 2 8 3
f 2 9 10
f 2 10 11
f 2 11 6
f 3 8 12
f 3 12 13
f 3 13 4
f 4 13 24
f 4 24 36
f 4 36 58
f 4 58 59
f 4 59 90
f 4 90 122
f 4 122 146
f 4 146 145
f 4 145 144
f 4 144 143
f 4 143 142
f 4 142 176
f 4 176 212
f 4 212 241
f 4 241 267
f 4 267 294
f 4 294 308
f 4 308 310
f 4 310 309
f 4 309 307
f 4 307 293
f 4 293 263
f 4 263 237
f 4 237 206
f 4 206 169
f 4 169 131
f 4 131 94
f 4 94 61
f 4 61 37
f 4 37 25
f 4 25 14
f 5 15 9
f 6 16 27
f 6 27 17
f 6 17 7
f 6 11 22
f 6 22 16
f 7 17 18
f 7 18 19
f 7 19 8
f 8 19 23
f 8 23 12
f 9 15 10
f 10 15 20
f 10 20 11
f 11 20 21
f 11 21 22
f 12 23 24
f 12 24 13
f 14 25 15
f 15 25 20
f 16 26 27
f 16 22 34
f 16 34 26
f 17 27 28
f 17 28 18
f 18 28 29
f 18 29 30
f 18 30 19
f 19 30 23
f 20 31 21
f 20 25 32
f 20 32 31
f 21 33 22
f 21 31 33
f 22 33 34
f 23 30 35
f 23 35 36
f 23 36 24
f 25 37 60
f 25 60 93
f 25 93 129
f 25 129 167
f 25 167 180
f 25 180 179
f 25 179 187
f 25 187 178
f 25 178 177
f 25 177 148
f 25 148 111
f 25 111 110
f 25 110 109
f 25 109 107
f 25 107 81
f 25 81 80
f 25 80 74
f 25 74 73
f 25 73 52
f 25 52 32
f 26 38 39
f 26 39 40
f 26 40 41
f 26 41 27
f 26 34 57
f 26 57 38
f 27 41 42
f 27 42 43
f 27 43 28
f 28 43 44
f 28 44 45
f 28 45 29
f 29 46 30
f 29 45 47
f 29 47 48
f 29 48 46
f 30 46 49
f 30 49 35
f 31 50 51
f 31 51 33
f 31 32 50
f 32 52 50
f 33 53 54
f 33 54 34
f 33 51 50
f 33 50 55
f 33 55 56
f 33 56 53
f 34 54 57
f 35 58 36
f 35 49 59
f 35 59 58
f 37 61 91
f 37 91 60
f 38 62 39
f 38 57 62
f 39 62 63
f 39 63 40
f 40 64 65
f 40 65 66
f 40 66 42
f 40 42 41
f 40 63 64
f 42 66 67
f 42 67 43
f 43 67 44
f 44 68 45
f 44 67 69
f 44 69 70
f 44 70 68
f 45 68 70
f 45 70 47
f 46 48 49
f 47 70 71
f 47 71 48
f 48 71 70
f 48 70 69
f 48 69 104
f 48 104 103
f 48 103 102
f 48 102 140
f 48 140 139
f 48 139 174
f 48 174 210
f 48 210 230
f 48 230 253
f 48 253 225
f 48 225 194
f 48 194 193
f 48 193 224
f 48 224 223
f 48 223 252
f 48 252 281
f 48 281 280
f 48 280 279
f 48 279 278
f 48 278 300
f 48 300 313
f 48 313 316
f 48 316 315
f 48 315 314
f 48 314 306
f 48 306 305
f 48 305 304
f 48 304 292
f 48 292 291
f 48 291 289
f 48 289 301
f 48 301 283
f 48 283 295
f 48 295 269
f 48 269 268
f 48 268 266
f 48 266 240
f 48 240 211
f 48 211 175
f 48 175 141
f 48 141 105
f 48 105 72
f 48 72 59
f 48 59 49
f 50 52 73
f 50 73 74
f 50 74 55
f 53 75 76
f 53 76 77
f 53 77 54
f 53 56 75
f 54 77 78
f 54 78 57
f 55 74 79
f 55 79 56
f 56 79 80
f 56 80 81
f 56 81 82
f 56 82 83
f 56 83 84
f 56 84 85
f 56 85 86
f 56 86 87
f 56 87 88
f 56 88 89
f 56 89 75
f 57 78 62
f 59 72 90
f 60 91 92
f 60 92 93
f 61 94 133
f 61 133 123
f 61 123 91
f 62 95 63
f 62 78 96
f 62 96 95
f 63 95 97
f 63 97 64
f 64 97 98
f 64 98 65
f 65 99 100
f 65 100 66
f 65 98 99
f 66 100 67
f 67 100 101
f 67 101 102
f 67 102 103
f 67 103 104
f 67 104 69
f 72 105 90
f 74 80 79
f 75 89 106
f 75 106 76
f 76 106 121
f 76 121 96
f 76 96 77
f 77 96 78
f 81 107 82
f 82 108 83
f 82 107 109
f 82 109 110
f 82 110 111
f 82 111 112
f 82 112 108
f 83 113 114
f 83 114 84
f 83 108 147
f 83 147 113
f 84 114 154
f 84 154 191
f 84 191 224
f 84 224 193
f 84 193 157
f 84 157 115
f 84 115 86
f 84 86 85
f 86 115 116
f 86 116 117
f 86 117 87
f 87 117 88
f 88 117 118
f 88 118 119
f 88 119 89
f 89 119 120
f 89 120 121
f 89 121 106
f 90 105 122
f 91 123 124
f 91 124 125
f 91 125 92
f 92 125 126
f 92 126 127
f 92 127 128
f 92 128 93
f 93 128 130
f 93 130 129
f 94 131 132
f 94 132 133
f 95 134 135
f 95 135 97
f 95 96 121
f 95 121 134
f 97 135 98
f 98 135 136
f 98 136 137
f 98 137 99
f 99 137 138
f 99 138 100
f 100 138 139
f 100 139 140
f 100 140 102
f 100 102 101
f 105 141 142
f 105 142 143
f 105 143 144
f 105 144 145
f 105 145 146
f 105 146 122
f 108 112 149
f 108 149 147
f 111 148 112
f 112 148 177
f 112 177 149
f 113 150 114
f 113 147 151
f 113 151 150
f 114 150 152
f 114 152 153
f 114 153 154
f 115 155 156
f 115 156 116
f 115 157 192
f 115 192 155
f 116 156 118
f 116 118 117
f 118 156 155
f 118 155 158
f 118 158 119
f 119 158 198
f 119 198 159
f 119 159 160
f 119 160 120
f 120 160 121
f 121 160 161
f 121 161 134
f 123 133 162
f 123 162 124
f 124 162 125
f 125 162 126
f 126 163 127
f 126 162 164
f 126 164 203
f 126 203 163
f 127 163 165
f 127 165 128
f 128 165 166
f 128 166 130
f 129 130 167
f 130 166 165
f 130 165 168
f 130 168 167
f 131 169 207
f 131 207 170
f 131 170 132
f 132 170 171
f 132 171 162
f 132 162 133
f 134 161 135
f 135 161 172
f 135 172 136
f 136 172 137
f 137 173 174
f 137 174 138
f 137 172 173
f 138 174 139
f 141 175 142
f 142 175 176
f 147 149 151
f 149 177 178
f 149 178 151
f 150 151 179
f 150 179 180
f 150 180 167
f 150 167 181
f 150 181 168
f 150 168 165
f 150 165 182
f 150 182 183
f 150 183 184
f 150 184 185
f 150 185 186
f 150 186 153
f 150 153 152
f 151 178 187
f 151 187 179
f 153 186 188
f 153 188 189
f 153 189 190
f 153 190 154
f 154 190 191
f 155 192 198
f 155 198 158
f 157 193 194
f 157 194 195
f 157 195 196
f 157 196 197
f 157 197 192
f 159 198 199
f 159 199 161
f 159 161 160
f 161 199 200
f 161 200 172
f 162 171 201
f 162 201 164
f 163 202 165
f 163 203 233
f 163 233 202
f 164 201 204
f 164 204 234
f 164 234 203
f 165 202 205
f 165 205 182
f 167 168 181
f 169 206 207
f 170 207 171
f 171 207 208
f 171 208 231
f 171 231 201
f 172 200 209
f 172 209 173
f 173 209 210
f 173 210 174
f 175 211 212
f 175 212 176
f 182 205 213
f 182 213 214
f 182 214 183
f 183 214 215
f 183 215 184
f 184 215 216
f 184 216 185
f 185 216 217
f 185 217 186
f 186 217 189
f 186 189 188
f 189 218 219
f 189 219 221
f 189 221 190
f 189 217 220
f 189 220 218
f 190 221 191
f 191 221 222
f 191 222 223
f 191 223 224
f 192 197 198
f 194 225 226
f 194 226 195
f 195 226 196
f 196 227 197
f 196 226 227
f 197 227 228
f 197 228 198
f 198 228 199
f 199 228 227
f 199 227 200
f 200 227 229
f 200 229 230
f 200 230 210
f 200 210 209
f 201 231 204
f 202 232 205
f 202 233 255
f 202 255 232
f 203 234 233
f 204 231 235
f 204 235 234
f 205 236 213
f 205 232 236
f 206 237 238
f 206 238 207
f 207 238 239
f 207 239 208
f 208 239 254
f 208 254 231
f 211 240 212
f 212 240 266
f 212 266 241
f 213 236 242
f 213 242 243
f 213 243 214
f 214 243 215
f 215 243 242
f 215 242 244
f 215 244 245
f 215 245 216
f 216 245 246
f 216 246 217
f 217 246 220
f 218 247 248
f 218 248 219
f 218 220 246
f 218 246 249
f 218 249 247
f 219 248 250
f 219 250 251
f 219 251 221
f 221 251 222
f 222 251 223
f 223 251 252
f 225 253 229
f 225 229 226
f 226 229 227
f 229 253 230
f 231 254 235
f 232 255 270
f 232 270 256
f 232 256 236
f 233 234 257
f 233 257 284
f 233 284 258
f 233 258 255
f 234 235 259
f 234 259 260
f 234 260 257
f 235 254 261
f 235 261 262
f 235 262 259
f 236 256 244
f 236 244 242
f 237 263 238
f 238 263 264
f 238 264 239
f 239 264 265
f 239 265 254
f 241 266 268
f 241 268 269
f 241 269 267
f 244 256 270
f 244 270 271
f 244 271 272
f 244 272 273
f 244 273 245
f 245 249 246
f 245 273 247
f 245 247 249
f 247 273 274
f 247 274 275
f 247 275 276
f 247 276 248
f 248 276 277
f 248 277 278
f 248 278 279
f 248 279 280
f 248 280 250
f 250 280 281
f 250 281 252
f 250 252 251
f 254 282 261
f 254 265 283
f 254 283 282
f 255 258 270
f 257 260 284
f 258 284 285
f 258 285 286
f 258 286 271
f 258 271 270
f 259 262 287
f 259 287 260
f 260 287 288
f 260 288 284
f 261 282 289
f 261 289 290
f 261 290 262
f 262 290 291
f 262 291 292
f 262 292 287
f 263 293 283
f 263 283 264
f 264 283 265
f 267 269 295
f 267 295 294
f 271 286 272
f 272 286 296
f 272 296 274
f 272 274 273
f 274 296 275
f 275 296 297
f 275 297 298
f 275 298 276
f 276 298 299
f 276 299 277
f 277 299 278
f 278 299 300
f 282 283 301
f 282 301 289
f 283 293 295
f 284 288 302
f 284 302 285
f 285 297 296
f 285 296 286
f 285 302 297
f 287 303 288
f 287 292 304
f 287 304 305
f 287 305 306
f 287 306 303
f 288 303 302
f 289 291 290
f 293 307 295
f 294 295 308
f 295 307 309
f 295 309 310
f 295 310 308
f 297 302 311
f 297 311 298
f 298 311 312
f 298 312 300
f 298 300 299
f 300 312 313
f 302 303 311
f 303 312 311
f 303 306 314
f 303 314 315
f 303 315 316
f 303 316 312
f 312 316 313

