# https://github.com/mikedh/trimesh
v 0.00050945 0.00034681 -0.01205650
v -0.00710612 0.00034681 -0.01205650
v 0.00050945 -0.00037109 -0.01205650
v 0.00050945 0.00090905 -0.01416875
v -0.00771783 0.00024228 -0.01205650
v -0.00648804 0.00090905 -0.01416875
v -0.00688841 0.00090905 -0.01417151
v -0.00710612 0.00090905 -0.01417427
v -0.00767004 0.00090905 -0.01428733
v -0.00793236 0.00090905 -0.01440038
v -0.00810121 -0.00037109 -0.01205650
v 0.00050945 -0.00037109 -0.02712353
v 0.00050945 0.00090905 -0.03438129
v -0.00784209 0.00013876 -0.01205650
v -0.00799926 0.00090905 -0.01445278
v -0.00990554 0.00090905 -0.01751085
v -0.00808634 -0.00007807 -0.01205650
v -0.01005635 0.00090905 -0.01784727
v -0.01005635 -0.00037109 -0.01784727
v -0.00897311 -0.00037109 -0.02712353
v -0.00896037 -0.00013384 -0.03885673
v -0.00834229 -0.00013371 -0.03885673
v 0.00050945 -0.00013986 -0.03329483
v 0.00050945 0.00066290 -0.03438129
v -0.00753411 0.00090905 -0.03988803
v -0.00999581 0.00090905 -0.01771215
v -0.01025175 0.00090905 -0.01846771
v -0.01018803 -0.00037109 -0.01826365
v -0.00958270 -0.00037109 -0.02712077
v -0.00957845 -0.00012920 -0.03885673
v -0.00896037 0.00000114 -0.03947441
v -0.00834229 0.00000127 -0.03947441
v -0.00772420 -0.00011642 -0.03885673
v 0.00050945 -0.00004410 -0.03391251
v 0.00050945 0.00020280 -0.03430132
v -0.00741091 0.00034781 -0.03978876
v -0.00772420 0.00090905 -0.03999282
v -0.01032716 0.00090905 -0.01908539
v -0.01025175 0.00004501 -0.01846771
v -0.01025069 -0.00037109 -0.01846771
v -0.00988218 -0.00037109 -0.02696359
v -0.01011051 0.00011482 -0.03885673
v -0.01003936 0.00019090 -0.03947441
v -0.00957845 0.00001443 -0.03947441
v -0.01003511 -0.00037109 -0.02670990
v -0.01007759 -0.00037109 -0.02649757
v -0.01032503 -0.00037109 -0.02464729
v -0.00896037 0.00024216 -0.03990182
v -0.00834229 0.00024216 -0.03990182
v -0.00772420 0.00006995 -0.03947441
v -0.00772420 0.00029329 -0.03984667
v -0.00834229 0.00066290 -0.04015275
v -0.00772420 0.00066290 -0.03996800
v -0.00797059 0.00090905 -0.04009761
v -0.01033990 0.00090905 -0.01970307
v -0.01032716 -0.00037109 -0.01908539
v -0.01033353 0.00066290 -0.03885673
v -0.01019547 0.00066290 -0.03947441
v -0.00994271 0.00029379 -0.03983840
v -0.00957845 0.00025306 -0.03988252
v -0.01033990 -0.00037109 -0.02402960
v -0.00896037 0.00066290 -0.04016378
v -0.00896037 0.00090905 -0.04022721
v -0.00858867 0.00090905 -0.04021894
v -0.00834229 0.00090905 -0.04020790
v -0.01033990 -0.00037109 -0.01970307
v -0.01033990 0.00090905 -0.03823904
v -0.01033990 0.00066290 -0.03823904
v -0.01033353 0.00090905 -0.03885673
v -0.01019653 0.00090905 -0.03947441
v -0.00997670 0.00090905 -0.03987700
v -0.00997457 0.00066290 -0.03987425
v -0.00957845 0.00066290 -0.04006176
v -0.00957845 0.00090905 -0.04009485
f 1 2 5
f 1 5 14
f 1 14 17
f 1 17 11
f 1 11 3
f 1 3 12
f 1 12 23
f 1 23 34
f 1 34 35
f 1 35 24
f 1 24 13
f 1 13 4
f 1 4 6
f 1 6 2
f 2 6 7
f 2 7 8
f 2 8 9
f 2 9 10
f 2 10 5
f 3 11 19
f 3 19 28
f 3 28 40
f 3 40 56
f 3 56 66
f 3 66 61
f 3 61 47
f 3 47 46
f 3 46 45
f 3 45 41
f 3 41 29
f 3 29 20
f 3 20 12
f 4 13 25
f 4 25 37
f 4 37 54
f 4 54 65
f 4 65 64
f 4 64 63
f 4 63 74
f 4 74 71
f 4 71 70
f 4 70 69
f 4 69 67
f 4 67 55
f 4 55 38
f 4 38 27
f 4 27 18
f 4 18 26
f 4 26 16
f 4 16 15
f 4 15 10
f 4 10 9
f 4 9 8
f 4 8 7
f 4 7 6
f 5 10 15
f 5 15 16
f 5 16 14
f 11 17 18
f 11 18 19
f 12 20 21
f 12 21 22
f 12 22 23
f 13 24 25
f 14 16 17
f 16 26 17
f 17 26 18
f 18 27 28
f 18 28 19
f 20 29 21
f 21 30 31
f 21 31 32
f 21 32 22
f 21 29 30
f 22 32 33
f 22 33 23
f 23 33 34
f 24 35 36
f 24 36 25
f 25 36 37
f 27 38 56
f 27 56 39
f 27 39 28
f 28 39 40
f 29 41 30
f 30 42 43
f 30 43 44
f 30 44 31
f 30 41 45
f 30 45 46
f 30 46 47
f 30 47 42
f 31 44 48
f 31 48 49
f 31 49 32
f 32 50 33
f 32 49 50
f 33 50 34
f 34 50 36
f 34 36 35
f 36 50 51
f 36 51 52
f 36 52 53
f 36 53 37
f 37 53 54
f 38 55 66
f 38 66 56
f 39 56 40
f 42 57 43
f 42 47 57
f 43 57 58
f 43 58 59
f 43 59 44
f 44 59 60
f 44 60 48
f 47 61 57
f 48 62 49
f 48 60 62
f 49 62 52
f 49 52 51
f 49 51 50
f 52 62 63
f 52 63 64
f 52 64 65
f 52 65 54
f 52 54 53
f 55 67 68
f 55 68 61
f 55 61 66
f 57 61 68
f 57 68 67
f 57 67 69
f 57 69 70
f 57 70 58
f 58 70 71
f 58 71 72
f 58 72 59
f 59 72 73
f 59 73 60
f 60 73 62
f 62 73 63
f 63 73 74
f 71 74 72
f 72 74 73

