# https://github.com/mikedh/trimesh
v 0.01033990 -0.00037122 -0.01969778
v 0.01032573 -0.00037122 -0.01908076
v 0.01033990 -0.00119127 -0.01969778
v 0.01033990 -0.00037122 -0.02422715
v 0.01032573 -0.00119127 -0.01908076
v 0.00804237 -0.00037122 0.00105666
v 0.01032168 -0.00180911 -0.01969778
v 0.01032371 -0.00180911 -0.02031824
v 0.01033990 -0.00119127 -0.02278974
v 0.01033990 -0.00057311 -0.02402377
v 0.01032371 -0.00037122 -0.02484416
v 0.01029942 -0.00180911 -0.01908076
v 0.00804237 -0.00037218 0.00105666
v 0.00802010 -0.00037122 0.00114973
v 0.00785411 -0.00057311 0.00192876
v 0.01018201 -0.00242694 -0.01969778
v 0.01019213 -0.00242694 -0.02031824
v 0.01032371 -0.00180911 -0.02217273
v 0.01033180 -0.00119127 -0.02340676
v 0.01031763 -0.00057311 -0.02464423
v 0.01007270 -0.00037122 -0.02653664
v 0.01013140 -0.00242694 -0.01908076
v 0.00802415 -0.00078396 0.00088776
v 0.00786423 -0.00119127 0.00130830
v 0.00798569 -0.00057599 0.00128072
v 0.00763549 -0.00037122 0.00254577
v 0.00767598 -0.00057311 0.00254577
v 0.00773468 -0.00119127 0.00192876
v 0.00997553 -0.00285025 -0.01969778
v 0.00997958 -0.00285856 -0.02031824
v 0.00997958 -0.00285920 -0.02093525
v 0.00997958 -0.00285952 -0.02155227
v 0.01019213 -0.00242694 -0.02155227
v 0.01019011 -0.00242694 -0.02217273
v 0.01030549 -0.00180911 -0.02278974
v 0.01003424 -0.00037122 -0.02670899
v 0.01007877 -0.00243462 -0.02278285
v 0.00993910 -0.00280193 -0.01908076
v 0.00758084 -0.00186382 0.00135311
v 0.00745129 -0.00216522 0.00117386
v 0.00753023 -0.00172304 0.00192876
v 0.00748570 -0.00037122 0.00302491
v 0.00749380 -0.00057311 0.00304214
v 0.00745736 -0.00102073 0.00295597
v 0.00753833 -0.00121271 0.00257335
v 0.00746748 -0.00160305 0.00238376
v 0.00965773 -0.00315932 -0.01969778
v 0.00966987 -0.00316764 -0.02031824
v 0.00997958 -0.00285120 -0.02217273
v 0.00994922 -0.00280705 -0.02257258
v 0.00958688 -0.00037122 -0.02711574
v 0.00682377 -0.00276034 0.00172539
v 0.00740878 -0.00210602 0.00158751
v 0.00702214 -0.00247270 0.00192876
v 0.00736627 -0.00203147 0.00192876
v 0.00741283 -0.00037122 0.00320071
v 0.00736424 -0.00057311 0.00335237
v 0.00739258 -0.00143284 0.00279740
v 0.00731161 -0.00121271 0.00316279
v 0.00728530 -0.00180911 0.00257335
v 0.00931360 -0.00338073 -0.01927379
v 0.00934801 -0.00340249 -0.01969778
v 0.00936218 -0.00341081 -0.02031824
v 0.00965975 -0.00316796 -0.02093525
v 0.00935206 -0.00340153 -0.02093525
v 0.00931765 -0.00337977 -0.02131442
v 0.00957878 -0.00285025 -0.02261395
v 0.00957878 -0.00037122 -0.02712263
v 0.00676709 -0.00270914 0.00213558
v 0.00653227 -0.00292512 0.00192876
v 0.00696142 -0.00231816 0.00254577
v 0.00686830 -0.00220585 0.00302491
v 0.00687842 -0.00037122 0.00422447
v 0.00714562 -0.00057311 0.00377980
v 0.00684603 -0.00103257 0.00417276
v 0.00698368 -0.00121943 0.00382461
v 0.00689664 -0.00168048 0.00364537
v 0.00701000 -0.00185550 0.00320415
v 0.00677923 -0.00209227 0.00343510
v 0.00598370 -0.00326299 0.00192876
v 0.00895936 -0.00353239 -0.01969778
v 0.00895936 -0.00354903 -0.02031824
v 0.00567399 -0.00339897 0.00192876
v 0.00648774 -0.00359703 -0.02093525
v 0.00643511 -0.00343609 -0.02157640
v 0.00619220 -0.00335610 -0.02186595
v 0.00834196 -0.00362134 -0.02031824
v 0.00895936 -0.00037122 -0.02712608
v 0.00587034 -0.00335738 -0.02186939
v 0.00668612 -0.00262723 0.00254577
v 0.00626507 -0.00280417 0.00303869
v 0.00637641 -0.00288096 0.00254577
v 0.00652215 -0.00246598 0.00323862
v 0.00676709 -0.00037122 0.00440026
v 0.00669219 -0.00057311 0.00454849
v 0.00688652 -0.00057311 0.00423825
v 0.00631163 -0.00119127 0.00487250
v 0.00664361 -0.00121943 0.00438647
v 0.00677721 -0.00144435 0.00405901
v 0.00669017 -0.00185550 0.00382461
v 0.00624281 -0.00219113 0.00418655
v 0.00636831 -0.00232040 0.00377980
v 0.00616791 -0.00272642 0.00345234
v 0.00582986 -0.00321212 0.00254233
v 0.00551002 -0.00333594 0.00274915
v 0.00559707 -0.00336986 0.00233551
v 0.00525294 -0.00351736 0.00192876
v 0.00463352 -0.00361366 0.00192876
v 0.00834196 -0.00362198 -0.01969778
v 0.00528331 -0.00343673 0.00254233
v 0.00587034 -0.00359958 -0.02093525
v 0.00587034 -0.00346104 -0.02155227
v 0.00710514 -0.00363894 -0.02031824
v 0.00772456 -0.00363478 -0.01969778
v -0.00895936 -0.00037122 -0.02712608
v -0.00587034 -0.00335738 -0.02186939
v 0.00592500 -0.00296575 0.00321105
v 0.00636021 -0.00037122 0.00493455
v 0.00638450 -0.00057311 0.00496213
v 0.00623066 -0.00158674 0.00477254
v 0.00613147 -0.00057311 0.00527236
v 0.00605657 -0.00119127 0.00518273
v 0.00636021 -0.00179951 0.00439337
v 0.00609706 -0.00199884 0.00459674
v 0.00568411 -0.00224169 0.00485182
v 0.00586022 -0.00242246 0.00438647
v 0.00606265 -0.00262916 0.00377980
v 0.00562338 -0.00278241 0.00417276
v 0.00575294 -0.00286592 0.00377980
v 0.00538857 -0.00328123 0.00316279
v 0.00497157 -0.00336506 0.00351094
v 0.00508088 -0.00339961 0.00316279
v 0.00463352 -0.00351064 0.00316279
v 0.00463352 -0.00357975 0.00254577
v 0.00401612 -0.00360246 0.00316279
v 0.00401612 -0.00363094 0.00254577
v 0.00463352 -0.00362806 0.00130830
v -0.00587034 -0.00359958 -0.02093525
v -0.00587034 -0.00346104 -0.02155227
v 0.00710514 -0.00363958 -0.01969778
v -0.00710514 -0.00363894 -0.02031824
v 0.00401612 -0.00363862 0.00192876
v 0.00401612 -0.00363958 0.00130830
v -0.00957878 -0.00037122 -0.02712263
v -0.00619220 -0.00335610 -0.02186595
v 0.00621042 -0.00037122 0.00512069
v 0.00564565 -0.00163153 0.00541713
v 0.00587237 -0.00181519 0.00501728
v 0.00574686 -0.00119127 0.00552399
v 0.00579342 -0.00037122 0.00557225
v 0.00582378 -0.00057311 0.00560327
v 0.00550193 -0.00204331 0.00526546
v 0.00545537 -0.00265347 0.00458640
v 0.00509100 -0.00225193 0.00546194
v 0.00527319 -0.00245286 0.00504141
v 0.00504445 -0.00280033 0.00481735
v 0.00525092 -0.00289600 0.00438647
v 0.00520639 -0.00318076 0.00374533
v 0.00480558 -0.00330362 0.00392458
v 0.00439264 -0.00337658 0.00416242
v 0.00461328 -0.00341177 0.00374533
v 0.00401612 -0.00353239 0.00377980
v 0.00339873 -0.00363414 0.00316279
v 0.00339873 -0.00360502 0.00377980
v -0.00648774 -0.00359703 -0.02093525
v -0.00643511 -0.00343609 -0.02157640
v -0.00710514 -0.00363958 -0.01969778
v -0.00834196 -0.00362166 -0.02031824
v -0.00772456 -0.00363478 -0.01969778
v 0.00339873 -0.00363958 0.00254577
v -0.00988242 -0.00037122 -0.02696407
v -0.00957878 -0.00285025 -0.02261395
v -0.00994922 -0.00280705 -0.02257258
v -0.00931765 -0.00337977 -0.02131442
v 0.00543715 -0.00119127 0.00583422
v 0.00502218 -0.00160401 0.00601002
v 0.00526104 -0.00182382 0.00564463
v 0.00552622 -0.00057311 0.00591350
v 0.00561529 -0.00037122 0.00575839
v 0.00486024 -0.00201548 0.00587214
v 0.00483392 -0.00266371 0.00522755
v 0.00444729 -0.00222377 0.00603759
v 0.00464162 -0.00244390 0.00564119
v 0.00461328 -0.00321180 0.00438303
v 0.00442300 -0.00278913 0.00540679
v 0.00463150 -0.00290336 0.00502073
v 0.00417806 -0.00330906 0.00457606
v 0.00376714 -0.00337082 0.00475531
v 0.00398981 -0.00341657 0.00438303
v 0.00339873 -0.00352216 0.00440026
v 0.00277930 -0.00363350 0.00377980
v 0.00216191 -0.00363958 0.00377980
v 0.00277930 -0.00359287 0.00440026
v 0.00216191 -0.00362358 0.00440026
v -0.00401612 -0.00363958 0.00130830
v -0.00834196 -0.00362230 -0.01969778
v -0.00895936 -0.00354935 -0.02031824
v -0.00401612 -0.00363862 0.00192876
v -0.01003424 -0.00037122 -0.02670899
v -0.00997958 -0.00285120 -0.02217273
v -0.01019011 -0.00242694 -0.02217273
v -0.01007877 -0.00243462 -0.02278285
v -0.00935206 -0.00340153 -0.02093525
v 0.00512744 -0.00119127 0.00610309
v 0.00473878 -0.00119127 0.00641332
v 0.00434203 -0.00151954 0.00657188
v 0.00460113 -0.00176783 0.00623063
v 0.00518614 -0.00037122 0.00615134
v 0.00521651 -0.00057311 0.00617892
v 0.00414770 -0.00263555 0.00582043
v 0.00414163 -0.00193165 0.00645123
v 0.00372868 -0.00213450 0.00657533
v 0.00393920 -0.00238503 0.00620650
v 0.00373475 -0.00274946 0.00596176
v 0.00397159 -0.00286176 0.00562395
v 0.00398981 -0.00319740 0.00498281
v 0.00339873 -0.00330171 0.00519308
v 0.00305663 -0.00334746 0.00530683
v 0.00339873 -0.00340857 0.00488284
v 0.00282181 -0.00345560 0.00506554
v 0.00216191 -0.00354711 0.00501728
v 0.00154451 -0.00363414 0.00440026
v 0.00092508 -0.00363446 0.00440026
v -0.00216191 -0.00363958 0.00377980
v 0.00154451 -0.00358263 0.00501728
v -0.00339873 -0.00363958 0.00254577
v -0.00463352 -0.00362806 0.00130830
v -0.00463352 -0.00361366 0.00192876
v -0.00895936 -0.00353271 -0.01969778
v -0.00934802 -0.00340249 -0.01969778
v -0.00936219 -0.00341081 -0.02031824
v -0.00339873 -0.00363414 0.00316279
v -0.00401612 -0.00363094 0.00254577
v -0.01007675 -0.00037122 -0.02649873
v -0.01030549 -0.00180911 -0.02278974
v -0.00965975 -0.00316796 -0.02093525
v -0.00966987 -0.00316764 -0.02031824
v -0.00997958 -0.00285952 -0.02155227
v -0.01032371 -0.00180911 -0.02217273
v -0.01019213 -0.00242694 -0.02155227
v 0.00484202 -0.00057311 0.00648915
v 0.00442907 -0.00119127 0.00663048
v 0.00396754 -0.00175887 0.00665806
v 0.00395540 -0.00112984 0.00694760
v 0.00355662 -0.00129493 0.00710961
v 0.00495943 -0.00037122 0.00633748
v 0.00337039 -0.00177519 0.00696829
v 0.00277930 -0.00199340 0.00710961
v 0.00339873 -0.00223529 0.00665806
v 0.00339873 -0.00254437 0.00636850
v 0.00339873 -0.00307613 0.00563429
v 0.00292100 -0.00266979 0.00648915
v 0.00339873 -0.00281921 0.00605827
v 0.00264368 -0.00338649 0.00541024
v 0.00282181 -0.00325211 0.00562395
v 0.00216191 -0.00330234 0.00582388
v 0.00216191 -0.00342041 0.00551365
v 0.00154451 -0.00344537 0.00556190
v -0.00092509 -0.00363446 0.00440026
v -0.00277930 -0.00363350 0.00377980
v -0.00154451 -0.00363414 0.00440026
v -0.00154451 -0.00358263 0.00501728
v -0.00401612 -0.00360246 0.00316279
v -0.00463352 -0.00357975 0.00254577
v -0.00525295 -0.00351704 0.00192876
v -0.00567399 -0.00339897 0.00192876
v -0.00598370 -0.00326299 0.00192876
v -0.00931360 -0.00338073 -0.01927379
v -0.00965773 -0.00315932 -0.01969778
v -0.00339873 -0.00360502 0.00377980
v -0.01031763 -0.00057311 -0.02464423
v -0.01032371 -0.00037122 -0.02464423
v -0.01033180 -0.00119127 -0.02340676
v -0.00997553 -0.00285057 -0.01969778
v -0.00997958 -0.00285856 -0.02031824
v -0.00997958 -0.00285920 -0.02093525
v -0.01019213 -0.00242694 -0.02031824
v -0.01033990 -0.00119127 -0.02278974
v -0.01032371 -0.00180911 -0.02031824
v 0.00451004 -0.00037122 0.00668563
v 0.00453231 -0.00057311 0.00669942
v 0.00370641 -0.00088283 0.00718200
v 0.00314569 -0.00154674 0.00720268
v 0.00337039 -0.00112984 0.00724749
v 0.00277930 -0.00168432 0.00727852
v 0.00245745 -0.00211082 0.00717511
v 0.00274084 -0.00244902 0.00676146
v 0.00274084 -0.00289280 0.00627199
v 0.00251008 -0.00274850 0.00657533
v 0.00216191 -0.00305438 0.00625475
v 0.00154451 -0.00283553 0.00669942
v -0.00154451 -0.00344537 0.00556190
v -0.00216191 -0.00362358 0.00440026
v -0.00216191 -0.00354711 0.00501728
v -0.00277930 -0.00359287 0.00440026
v -0.00401612 -0.00353239 0.00377980
v -0.00463352 -0.00351064 0.00316279
v -0.00528331 -0.00343673 0.00254233
v -0.00559707 -0.00336986 0.00233551
v -0.00551003 -0.00333594 0.00274915
v -0.00582986 -0.00321212 0.00254233
v -0.00637641 -0.00288096 0.00254577
v -0.00653227 -0.00292512 0.00192876
v -0.00682377 -0.00276034 0.00172539
v -0.00993910 -0.00280225 -0.01908076
v -0.00339873 -0.00352216 0.00440026
v -0.01033990 -0.00057311 -0.02402377
v -0.01033990 -0.00037122 -0.02402377
v -0.01013140 -0.00242694 -0.01908076
v -0.01018403 -0.00242694 -0.01969778
v -0.01032168 -0.00180911 -0.01969778
v -0.01033990 -0.00119127 -0.01969778
v 0.00373880 -0.00037122 0.00719923
v 0.00404244 -0.00057311 0.00700620
v 0.00373273 -0.00057311 0.00719579
v 0.00339873 -0.00057311 0.00734056
v 0.00277930 -0.00057311 0.00759564
v 0.00277930 -0.00119127 0.00747155
v 0.00213761 -0.00116151 0.00769216
v 0.00221454 -0.00186670 0.00737158
v 0.00149188 -0.00175183 0.00761632
v 0.00204450 -0.00218825 0.00723370
v 0.00221454 -0.00240743 0.00698897
v 0.00216191 -0.00279681 0.00663393
v 0.00154451 -0.00257764 0.00700965
v -0.00154451 -0.00283521 0.00669942
v -0.00216191 -0.00330234 0.00582388
v -0.00216191 -0.00342041 0.00551365
v -0.00282181 -0.00345560 0.00506554
v -0.00461328 -0.00341177 0.00374533
v -0.00398981 -0.00341657 0.00438303
v -0.00439264 -0.00337658 0.00416242
v -0.00497157 -0.00336506 0.00351094
v -0.00508088 -0.00339961 0.00316279
v -0.00538857 -0.00328123 0.00316279
v -0.00592500 -0.00296607 0.00321105
v -0.00676709 -0.00270914 0.00213558
v -0.00626507 -0.00280417 0.00303869
v -0.00702215 -0.00247270 0.00192876
v -0.00740878 -0.00210602 0.00158751
v -0.00745129 -0.00216458 0.00117386
v -0.00758084 -0.00186382 0.00135311
v -0.00339873 -0.00340857 0.00488284
v -0.00376714 -0.00337082 0.00475531
v -0.01033990 -0.00037122 -0.01969778
v -0.01029942 -0.00180911 -0.01908076
v -0.00786424 -0.00119127 0.00130830
v -0.01032573 -0.00119127 -0.01908076
v 0.00358293 -0.00037122 0.00726473
v 0.00302626 -0.00037122 0.00746810
v 0.00231575 -0.00057311 0.00776110
v 0.00191697 -0.00093562 0.00781280
v 0.00166191 -0.00134773 0.00775420
v 0.00125099 -0.00150771 0.00780246
v 0.00154451 -0.00226856 0.00729575
v -0.00154451 -0.00226856 0.00729575
v -0.00154451 -0.00257732 0.00700965
v -0.00216191 -0.00279649 0.00663393
v -0.00216191 -0.00305374 0.00625475
v -0.00282181 -0.00325211 0.00562395
v -0.00305663 -0.00334746 0.00530683
v -0.00264368 -0.00338649 0.00541024
v -0.00417807 -0.00330906 0.00457606
v -0.00461328 -0.00321180 0.00438303
v -0.00480558 -0.00330362 0.00392458
v -0.00520639 -0.00318076 0.00374533
v -0.00575294 -0.00286592 0.00377980
v -0.00616791 -0.00272642 0.00345234
v -0.00668612 -0.00262723 0.00254577
v -0.00696142 -0.00231816 0.00254577
v -0.00736627 -0.00203147 0.00192876
v -0.00753023 -0.00172304 0.00192876
v -0.00339873 -0.00330171 0.00519308
v -0.00398981 -0.00319740 0.00498281
v -0.01032573 -0.00037122 -0.01908076
v -0.00802415 -0.00078396 0.00088776
v -0.00804237 -0.00037218 0.00105666
v -0.00773468 -0.00119127 0.00192876
v -0.00785411 -0.00057311 0.00192876
v -0.00798569 -0.00057599 0.00128072
v 0.00199996 -0.00037122 0.00783348
v 0.00154451 -0.00057311 0.00794379
v 0.00149188 -0.00116151 0.00784727
v 0.00092508 -0.00154354 0.00781625
v 0.00092508 -0.00119127 0.00792310
v 0.00030769 -0.00119127 0.00797137
v 0.00030769 -0.00158258 0.00784383
v -0.00204450 -0.00218793 0.00723370
v -0.00221454 -0.00240710 0.00698897
v -0.00030769 -0.00157938 0.00784038
v -0.00092509 -0.00154034 0.00781625
v -0.00125099 -0.00150771 0.00780246
v -0.00149188 -0.00175183 0.00761632
v -0.00251008 -0.00274850 0.00657533
v -0.00274084 -0.00289280 0.00627199
v -0.00339873 -0.00307613 0.00563429
v -0.00463150 -0.00290336 0.00502073
v -0.00504445 -0.00280033 0.00481735
v -0.00525092 -0.00289600 0.00438647
v -0.00562338 -0.00278241 0.00417276
v -0.00606265 -0.00262916 0.00377980
v -0.00636831 -0.00232040 0.00377980
v -0.00677923 -0.00209227 0.00343510
v -0.00652215 -0.00246598 0.00323862
v -0.00686830 -0.00220585 0.00302491
v -0.00728530 -0.00180911 0.00257335
v -0.00746748 -0.00160305 0.00238376
v -0.00397159 -0.00286176 0.00562395
v -0.00442300 -0.00278913 0.00540679
v -0.00804237 -0.00037122 0.00105666
v -0.00753833 -0.00121271 0.00257335
v -0.00767598 -0.00057311 0.00254577
v -0.00758894 -0.00037122 0.00274225
v -0.00775088 -0.00037122 0.00214247
v 0.00176110 -0.00037122 0.00788864
v 0.00092508 -0.00057311 0.00803686
v 0.00030769 -0.00057311 0.00808856
v -0.00030769 -0.00119127 0.00797137
v -0.00245745 -0.00211082 0.00717511
v -0.00166191 -0.00134773 0.00775420
v -0.00221454 -0.00186670 0.00737158
v -0.00092509 -0.00119127 0.00792310
v -0.00149188 -0.00116151 0.00784727
v -0.00274084 -0.00244902 0.00676146
v -0.00292100 -0.00266979 0.00648915
v -0.00339873 -0.00281921 0.00605827
v -0.00373475 -0.00274946 0.00596176
v -0.00545537 -0.00265347 0.00458640
v -0.00483392 -0.00266371 0.00522755
v -0.00586022 -0.00242246 0.00438647
v -0.00624281 -0.00219113 0.00418655
v -0.00669017 -0.00185550 0.00382461
v -0.00689664 -0.00168048 0.00364537
v -0.00701000 -0.00185550 0.00320415
v -0.00739258 -0.00143284 0.00279740
v -0.00414770 -0.00263555 0.00582043
v -0.00745736 -0.00102073 0.00295597
v -0.00749380 -0.00057311 0.00304214
v -0.00748570 -0.00037122 0.00302491
v 0.00116192 -0.00037122 0.00797826
v 0.00092508 -0.00037122 0.00800239
v 0.00030769 -0.00037122 0.00804375
v -0.00030769 -0.00057311 0.00808856
v 0.00051821 -0.00037122 0.00803341
v -0.00277930 -0.00168432 0.00727852
v -0.00277930 -0.00199340 0.00710961
v -0.00339873 -0.00223529 0.00665806
v -0.00191697 -0.00093562 0.00781280
v -0.00213761 -0.00116151 0.00769216
v -0.00092509 -0.00057311 0.00803686
v -0.00154451 -0.00057311 0.00794379
v -0.00339873 -0.00254437 0.00636850
v -0.00393920 -0.00238503 0.00620650
v -0.00527319 -0.00245286 0.00504141
v -0.00568411 -0.00224169 0.00485182
v -0.00464162 -0.00244390 0.00564119
v -0.00509100 -0.00225193 0.00546194
v -0.00609706 -0.00199884 0.00459674
v -0.00636021 -0.00179951 0.00439337
v -0.00677721 -0.00144435 0.00405901
v -0.00731161 -0.00121271 0.00316279
v -0.00698368 -0.00121943 0.00382461
v -0.00444729 -0.00222377 0.00603759
v -0.00736424 -0.00057311 0.00335237
v -0.00702822 -0.00037122 0.00396249
v -0.00030769 -0.00037122 0.00804375
v -0.00092509 -0.00037122 0.00800239
v -0.00277930 -0.00119127 0.00747155
v -0.00314569 -0.00154674 0.00720268
v -0.00337039 -0.00177519 0.00696829
v -0.00372868 -0.00213450 0.00657533
v -0.00231575 -0.00057311 0.00776110
v -0.00154451 -0.00037122 0.00791966
v -0.00200199 -0.00037122 0.00783348
v -0.00216393 -0.00037122 0.00779557
v -0.00550193 -0.00204331 0.00526546
v -0.00486024 -0.00201548 0.00587214
v -0.00587237 -0.00181519 0.00501728
v -0.00623066 -0.00158674 0.00477254
v -0.00684603 -0.00103225 0.00417276
v -0.00664361 -0.00121943 0.00438647
v -0.00414163 -0.00193165 0.00645123
v -0.00460113 -0.00176783 0.00623063
v -0.00714562 -0.00057311 0.00377980
v -0.00688652 -0.00057311 0.00423825
v -0.00687842 -0.00037122 0.00422447
v -0.00370641 -0.00088283 0.00718200
v -0.00337039 -0.00112984 0.00724749
v -0.00277930 -0.00057311 0.00759909
v -0.00355662 -0.00129493 0.00710961
v -0.00396754 -0.00175887 0.00665806
v -0.00373880 -0.00037122 0.00719923
v -0.00526104 -0.00182382 0.00564463
v -0.00564565 -0.00163153 0.00541713
v -0.00502218 -0.00160401 0.00601002
v -0.00605657 -0.00119127 0.00518273
v -0.00631163 -0.00119127 0.00487250
v -0.00669219 -0.00057311 0.00454849
v -0.00434203 -0.00151954 0.00657188
v -0.00654644 -0.00037122 0.00468292
v -0.00373273 -0.00057311 0.00719579
v -0.00404244 -0.00057311 0.00700620
v -0.00453231 -0.00057311 0.00669942
v -0.00442907 -0.00119127 0.00663048
v -0.00395540 -0.00112984 0.00694760
v -0.00339873 -0.00057311 0.00734056
v -0.00388050 -0.00037122 0.00710961
v -0.00574686 -0.00119127 0.00552399
v -0.00543715 -0.00119127 0.00583422
v -0.00473878 -0.00119127 0.00641332
v -0.00512744 -0.00119127 0.00610309
v -0.00613147 -0.00057311 0.00527236
v -0.00638450 -0.00057311 0.00496213
v -0.00636021 -0.00037122 0.00493455
v -0.00451004 -0.00037122 0.00668563
v -0.00484202 -0.00057311 0.00648915
v -0.00552622 -0.00057311 0.00591350
v -0.00582379 -0.00057311 0.00560327
v -0.00521651 -0.00057311 0.00617892
v -0.00597965 -0.00037122 0.00537232
v -0.00469425 -0.00037122 0.00655809
v -0.00518614 -0.00037122 0.00615134
v -0.00537238 -0.00037122 0.00599278
v -0.00579342 -0.00037122 0.00557225
f 1 2 5
f 1 5 3
f 1 3 9
f 1 9 10
f 1 10 4
f 1 4 11
f 1 11 21
f 1 21 36
f 1 36 51
f 1 51 68
f 1 68 88
f 1 88 115
f 1 115 144
f 1 144 171
f 1 171 199
f 1 199 234
f 1 234 272
f 1 272 308
f 1 308 345
f 1 345 375
f 1 375 410
f 1 410 414
f 1 414 413
f 1 413 439
f 1 439 465
f 1 465 486
f 1 486 500
f 1 500 514
f 1 514 520
f 1 520 524
f 1 524 523
f 1 523 522
f 1 522 521
f 1 521 515
f 1 515 507
f 1 507 492
f 1 492 475
f 1 475 474
f 1 474 473
f 1 473 467
f 1 467 466
f 1 466 442
f 1 442 444
f 1 444 441
f 1 441 440
f 1 440 415
f 1 415 381
f 1 381 350
f 1 350 349
f 1 349 313
f 1 313 280
f 1 280 246
f 1 246 208
f 1 208 179
f 1 179 150
f 1 150 146
f 1 146 118
f 1 118 94
f 1 94 73
f 1 73 56
f 1 56 42
f 1 42 26
f 1 26 14
f 1 14 6
f 1 6 2
f 2 6 13
f 2 13 5
f 3 5 7
f 3 7 8
f 3 8 18
f 3 18 9
f 4 10 11
f 5 12 7
f 5 13 12
f 6 14 15
f 6 15 13
f 7 16 17
f 7 17 8
f 7 12 16
f 8 17 33
f 8 33 18
f 9 18 19
f 9 19 10
f 10 19 11
f 11 19 20
f 11 20 21
f 12 22 16
f 12 13 23
f 12 23 24
f 12 24 22
f 13 15 25
f 13 25 23
f 14 26 15
f 15 26 27
f 15 27 28
f 15 28 24
f 15 24 25
f 16 29 17
f 16 22 29
f 17 30 31
f 17 31 32
f 17 32 33
f 17 29 30
f 18 33 34
f 18 34 35
f 18 35 19
f 19 35 20
f 20 35 21
f 21 35 37
f 21 37 36
f 22 38 29
f 22 24 39
f 22 39 40
f 22 40 38
f 23 25 24
f 24 28 41
f 24 41 39
f 26 42 27
f 27 42 43
f 27 43 44
f 27 44 45
f 27 45 28
f 28 45 46
f 28 46 41
f 29 47 48
f 29 48 30
f 29 38 47
f 30 48 31
f 31 48 32
f 32 49 34
f 32 34 33
f 32 48 49
f 34 49 50
f 34 50 37
f 34 37 35
f 36 37 50
f 36 50 51
f 38 40 52
f 38 52 47
f 39 41 53
f 39 53 40
f 40 53 54
f 40 54 52
f 41 46 55
f 41 55 53
f 42 56 43
f 43 56 57
f 43 57 44
f 44 58 45
f 44 57 59
f 44 59 58
f 45 58 46
f 46 58 60
f 46 60 55
f 47 61 62
f 47 62 63
f 47 63 48
f 47 52 61
f 48 63 64
f 48 64 49
f 49 64 65
f 49 65 66
f 49 66 50
f 50 66 67
f 50 67 68
f 50 68 51
f 52 54 69
f 52 69 70
f 52 70 61
f 53 55 71
f 53 71 54
f 54 71 69
f 55 60 72
f 55 72 71
f 56 73 74
f 56 74 57
f 57 74 75
f 57 75 76
f 57 76 59
f 58 59 77
f 58 77 78
f 58 78 60
f 59 76 77
f 60 78 79
f 60 79 72
f 61 70 80
f 61 80 62
f 62 81 82
f 62 82 63
f 62 80 83
f 62 83 81
f 63 82 65
f 63 65 64
f 65 82 66
f 66 84 85
f 66 85 86
f 66 86 67
f 66 82 87
f 66 87 84
f 67 86 68
f 68 86 89
f 68 89 88
f 69 71 90
f 69 90 91
f 69 91 92
f 69 92 70
f 70 92 80
f 71 72 90
f 72 79 93
f 72 93 90
f 73 94 95
f 73 95 96
f 73 96 74
f 74 96 75
f 75 96 95
f 75 95 97
f 75 97 98
f 75 98 99
f 75 99 76
f 76 99 77
f 77 79 78
f 77 99 100
f 77 100 79
f 79 100 101
f 79 101 102
f 79 102 103
f 79 103 93
f 80 92 104
f 80 104 105
f 80 105 106
f 80 106 83
f 81 83 107
f 81 107 108
f 81 108 82
f 82 108 109
f 82 109 87
f 83 106 110
f 83 110 107
f 84 111 112
f 84 112 85
f 84 87 113
f 84 113 111
f 85 112 86
f 86 112 89
f 87 109 114
f 87 114 113
f 88 89 116
f 88 116 115
f 89 112 139
f 89 139 116
f 90 93 103
f 90 103 91
f 91 103 117
f 91 117 92
f 92 117 104
f 94 118 119
f 94 119 95
f 95 119 97
f 97 120 98
f 97 119 121
f 97 121 122
f 97 122 120
f 98 120 99
f 99 120 123
f 99 123 100
f 100 123 101
f 101 123 124
f 101 124 125
f 101 125 126
f 101 126 127
f 101 127 102
f 102 127 103
f 103 127 128
f 103 128 129
f 103 129 117
f 104 117 105
f 105 117 130
f 105 130 131
f 105 131 132
f 105 132 110
f 105 110 106
f 107 110 133
f 107 133 134
f 107 134 108
f 108 134 135
f 108 135 136
f 108 136 137
f 108 137 109
f 109 137 114
f 110 132 133
f 111 138 139
f 111 139 112
f 111 113 141
f 111 141 138
f 113 114 140
f 113 140 167
f 113 167 141
f 114 137 142
f 114 142 143
f 114 143 140
f 115 116 144
f 116 139 145
f 116 145 144
f 117 129 130
f 118 146 119
f 119 146 121
f 120 124 123
f 120 122 147
f 120 147 148
f 120 148 124
f 121 149 122
f 121 146 150
f 121 150 151
f 121 151 149
f 122 149 147
f 124 148 152
f 124 152 125
f 125 153 126
f 125 152 154
f 125 154 155
f 125 155 153
f 126 128 127
f 126 153 128
f 128 153 156
f 128 156 157
f 128 157 158
f 128 158 129
f 129 158 130
f 130 158 131
f 131 158 159
f 131 159 160
f 131 160 161
f 131 161 133
f 131 133 132
f 133 135 134
f 133 161 162
f 133 162 135
f 135 163 136
f 135 162 164
f 135 164 163
f 136 163 142
f 136 142 137
f 138 141 165
f 138 165 139
f 139 165 166
f 139 166 145
f 140 143 170
f 140 170 192
f 140 192 224
f 140 224 226
f 140 226 195
f 140 195 167
f 141 168 165
f 141 167 169
f 141 169 168
f 142 163 170
f 142 170 143
f 144 145 172
f 144 172 173
f 144 173 171
f 145 166 174
f 145 174 172
f 147 152 148
f 147 149 175
f 147 175 176
f 147 176 177
f 147 177 152
f 149 151 178
f 149 178 175
f 150 179 151
f 151 179 178
f 152 177 180
f 152 180 154
f 153 155 181
f 153 181 156
f 154 181 155
f 154 180 182
f 154 182 183
f 154 183 181
f 156 184 157
f 156 181 185
f 156 185 186
f 156 186 184
f 157 184 158
f 158 184 159
f 159 184 160
f 160 162 161
f 160 184 187
f 160 187 188
f 160 188 189
f 160 189 162
f 162 189 190
f 162 190 164
f 163 164 191
f 163 191 192
f 163 192 170
f 164 190 193
f 164 193 194
f 164 194 191
f 165 168 174
f 165 174 166
f 167 195 169
f 168 169 196
f 168 196 197
f 168 197 174
f 169 195 198
f 169 198 196
f 171 173 199
f 172 174 173
f 173 174 200
f 173 200 201
f 173 201 202
f 173 202 199
f 174 197 203
f 174 203 200
f 175 178 204
f 175 204 176
f 176 204 205
f 176 205 206
f 176 206 207
f 176 207 180
f 176 180 177
f 178 179 208
f 178 208 209
f 178 209 204
f 180 207 182
f 181 183 210
f 181 210 185
f 182 207 211
f 182 211 212
f 182 212 213
f 182 213 210
f 182 210 183
f 184 186 187
f 185 210 214
f 185 214 215
f 185 215 216
f 185 216 186
f 186 216 187
f 187 216 188
f 188 190 189
f 188 216 217
f 188 217 218
f 188 218 219
f 188 219 190
f 190 219 220
f 190 220 221
f 190 221 193
f 191 194 222
f 191 222 192
f 192 222 223
f 192 223 259
f 192 259 224
f 193 221 225
f 193 225 194
f 194 225 222
f 195 226 198
f 196 198 227
f 196 227 228
f 196 228 197
f 197 228 229
f 197 229 230
f 197 230 231
f 197 231 203
f 198 226 232
f 198 232 233
f 198 233 227
f 199 202 235
f 199 235 234
f 200 203 236
f 200 236 237
f 200 237 238
f 200 238 201
f 201 239 235
f 201 235 202
f 201 238 240
f 201 240 239
f 203 231 236
f 204 209 241
f 204 241 205
f 205 241 242
f 205 242 206
f 206 243 211
f 206 211 207
f 206 242 244
f 206 244 245
f 206 245 243
f 208 246 241
f 208 241 209
f 210 213 214
f 211 243 212
f 212 243 247
f 212 247 248
f 212 248 249
f 212 249 250
f 212 250 213
f 213 250 214
f 214 251 215
f 214 250 252
f 214 252 253
f 214 253 251
f 215 251 216
f 216 251 217
f 217 251 218
f 218 254 220
f 218 220 219
f 218 251 255
f 218 255 256
f 218 256 254
f 220 254 257
f 220 257 221
f 221 257 258
f 221 258 225
f 222 225 223
f 223 225 262
f 223 262 259
f 224 260 232
f 224 232 226
f 224 259 261
f 224 261 260
f 225 258 292
f 225 292 262
f 227 233 228
f 228 233 263
f 228 263 264
f 228 264 265
f 228 265 229
f 229 265 266
f 229 266 230
f 230 266 267
f 230 267 268
f 230 268 269
f 230 269 231
f 231 269 237
f 231 237 236
f 232 260 270
f 232 270 263
f 232 263 233
f 234 271 272
f 234 235 271
f 235 239 273
f 235 273 271
f 237 269 274
f 237 274 275
f 237 275 276
f 237 276 238
f 238 276 277
f 238 277 240
f 239 278 273
f 239 240 277
f 239 277 279
f 239 279 312
f 239 312 278
f 241 280 281
f 241 281 242
f 241 246 280
f 242 281 282
f 242 282 244
f 243 245 283
f 243 283 247
f 244 282 245
f 245 282 284
f 245 284 283
f 247 283 248
f 248 283 285
f 248 285 286
f 248 286 249
f 249 287 252
f 249 252 250
f 249 286 287
f 251 253 288
f 251 288 255
f 252 287 289
f 252 289 288
f 252 288 253
f 254 256 257
f 255 288 290
f 255 290 256
f 256 258 257
f 256 290 291
f 256 291 258
f 258 291 292
f 259 262 261
f 260 261 293
f 260 293 270
f 261 262 293
f 262 292 294
f 262 294 295
f 262 295 293
f 263 270 296
f 263 296 297
f 263 297 264
f 264 297 265
f 265 297 298
f 265 298 266
f 266 298 299
f 266 299 267
f 267 299 300
f 267 300 301
f 267 301 302
f 267 302 303
f 267 303 268
f 268 303 304
f 268 304 269
f 269 305 274
f 269 304 305
f 270 293 295
f 270 295 306
f 270 306 296
f 271 273 307
f 271 307 272
f 272 307 308
f 273 278 307
f 274 305 309
f 274 309 310
f 274 310 277
f 274 277 275
f 275 277 276
f 277 310 311
f 277 311 279
f 278 312 345
f 278 345 308
f 278 308 307
f 279 311 312
f 280 313 281
f 281 313 314
f 281 314 282
f 282 314 315
f 282 315 316
f 282 316 317
f 282 317 318
f 282 318 284
f 283 284 318
f 283 318 285
f 285 318 319
f 285 319 320
f 285 320 286
f 286 320 321
f 286 321 322
f 286 322 323
f 286 323 289
f 286 289 287
f 288 289 290
f 289 323 324
f 289 324 290
f 290 324 291
f 291 324 325
f 291 325 357
f 291 357 326
f 291 326 292
f 292 326 327
f 292 327 328
f 292 328 294
f 294 306 295
f 294 328 329
f 294 329 306
f 296 330 297
f 296 306 331
f 296 331 332
f 296 332 330
f 297 330 333
f 297 333 334
f 297 334 298
f 298 334 300
f 298 300 299
f 300 334 333
f 300 333 335
f 300 335 336
f 300 336 301
f 301 336 302
f 302 337 303
f 302 336 338
f 302 338 337
f 303 337 304
f 304 337 339
f 304 339 340
f 304 340 341
f 304 341 305
f 305 341 342
f 305 342 309
f 306 329 343
f 306 343 344
f 306 344 331
f 309 346 310
f 309 342 347
f 309 347 346
f 310 346 311
f 311 346 348
f 311 348 312
f 312 348 375
f 312 375 345
f 313 349 316
f 313 316 315
f 313 315 314
f 316 349 317
f 317 349 350
f 317 350 351
f 317 351 318
f 318 351 319
f 319 351 352
f 319 352 353
f 319 353 320
f 320 353 354
f 320 354 321
f 321 354 355
f 321 355 322
f 322 355 323
f 323 355 325
f 323 325 324
f 325 355 356
f 325 356 357
f 326 357 358
f 326 358 359
f 326 359 327
f 327 360 361
f 327 361 362
f 327 362 328
f 327 359 360
f 328 362 329
f 329 362 361
f 329 361 343
f 330 332 333
f 331 344 332
f 332 344 363
f 332 363 364
f 332 364 365
f 332 365 333
f 333 365 366
f 333 366 335
f 335 366 367
f 335 367 336
f 336 367 368
f 336 368 338
f 337 338 369
f 337 369 370
f 337 370 339
f 338 368 369
f 339 370 340
f 340 342 341
f 340 370 371
f 340 371 372
f 340 372 342
f 342 372 347
f 343 361 344
f 344 361 373
f 344 373 374
f 344 374 363
f 346 347 376
f 346 376 377
f 346 377 348
f 347 372 378
f 347 378 379
f 347 379 380
f 347 380 376
f 348 377 410
f 348 410 375
f 350 381 351
f 351 381 382
f 351 382 352
f 352 382 383
f 352 383 353
f 353 383 354
f 354 384 355
f 354 383 385
f 354 385 386
f 354 386 384
f 355 384 387
f 355 387 356
f 356 388 389
f 356 389 357
f 356 387 390
f 356 390 391
f 356 391 392
f 356 392 393
f 356 393 388
f 357 389 358
f 358 389 394
f 358 394 359
f 359 394 395
f 359 395 360
f 360 396 361
f 360 395 396
f 361 396 373
f 363 374 397
f 363 397 364
f 364 398 399
f 364 399 366
f 364 366 365
f 364 397 398
f 366 399 400
f 366 400 367
f 367 400 368
f 368 400 401
f 368 401 402
f 368 402 403
f 368 403 404
f 368 404 369
f 369 404 405
f 369 405 370
f 370 405 371
f 371 405 406
f 371 406 407
f 371 407 372
f 372 407 378
f 373 396 374
f 374 396 408
f 374 408 409
f 374 409 397
f 376 380 377
f 377 380 379
f 377 379 410
f 378 407 411
f 378 411 412
f 378 412 379
f 379 412 413
f 379 413 414
f 379 414 410
f 381 415 382
f 382 415 416
f 382 416 383
f 383 416 385
f 384 386 387
f 385 416 417
f 385 417 386
f 386 417 443
f 386 443 418
f 386 418 387
f 387 418 390
f 388 393 419
f 388 419 389
f 389 419 394
f 390 418 391
f 391 418 392
f 392 420 421
f 392 421 393
f 392 418 422
f 392 422 423
f 392 423 420
f 393 421 419
f 394 419 424
f 394 424 425
f 394 425 395
f 395 426 396
f 395 425 426
f 396 426 427
f 396 427 408
f 397 409 398
f 398 428 400
f 398 400 399
f 398 409 429
f 398 429 428
f 400 428 430
f 400 430 401
f 401 430 431
f 401 431 402
f 402 431 403
f 403 431 432
f 403 432 433
f 403 433 434
f 403 434 406
f 403 406 405
f 403 405 404
f 406 434 435
f 406 435 407
f 407 435 411
f 408 427 409
f 409 427 436
f 409 436 429
f 411 435 437
f 411 437 412
f 412 438 439
f 412 439 413
f 412 437 438
f 415 440 416
f 416 440 441
f 416 441 417
f 417 442 466
f 417 466 443
f 417 441 444
f 417 444 442
f 418 443 422
f 419 421 445
f 419 445 446
f 419 446 447
f 419 447 424
f 420 423 448
f 420 448 449
f 420 449 421
f 421 449 445
f 422 443 450
f 422 450 423
f 423 450 451
f 423 451 448
f 424 447 425
f 425 447 452
f 425 452 427
f 425 427 426
f 427 452 453
f 427 453 436
f 428 429 454
f 428 454 455
f 428 455 430
f 429 436 456
f 429 456 457
f 429 457 454
f 430 455 431
f 431 455 458
f 431 458 459
f 431 459 432
f 432 459 460
f 432 460 433
f 433 461 435
f 433 435 434
f 433 460 462
f 433 462 461
f 435 461 437
f 436 453 463
f 436 463 456
f 437 461 464
f 437 464 438
f 438 464 439
f 439 464 465
f 443 466 467
f 443 467 450
f 445 449 468
f 445 468 469
f 445 469 446
f 446 469 470
f 446 470 471
f 446 471 447
f 447 471 452
f 448 472 449
f 448 451 472
f 449 472 468
f 450 467 473
f 450 473 451
f 451 473 474
f 451 474 475
f 451 475 472
f 452 471 453
f 453 471 463
f 454 457 455
f 455 457 476
f 455 476 458
f 456 463 457
f 457 463 477
f 457 477 476
f 458 476 478
f 458 478 479
f 458 479 459
f 459 479 460
f 460 480 462
f 460 479 481
f 460 481 480
f 461 462 464
f 462 480 464
f 463 471 482
f 463 482 483
f 463 483 477
f 464 484 465
f 464 480 484
f 465 485 486
f 465 484 485
f 468 487 488
f 468 488 469
f 468 472 489
f 468 489 487
f 469 490 491
f 469 491 470
f 469 488 490
f 470 491 471
f 471 491 482
f 472 475 489
f 475 492 489
f 476 477 493
f 476 493 494
f 476 494 478
f 477 483 495
f 477 495 493
f 478 494 479
f 479 494 496
f 479 496 497
f 479 497 481
f 480 481 497
f 480 497 498
f 480 498 485
f 480 485 484
f 482 491 499
f 482 499 483
f 483 499 495
f 485 498 486
f 486 498 500
f 487 501 502
f 487 502 503
f 487 503 504
f 487 504 505
f 487 505 490
f 487 490 488
f 487 489 506
f 487 506 501
f 489 492 506
f 490 505 499
f 490 499 491
f 492 507 503
f 492 503 502
f 492 502 501
f 492 501 506
f 493 495 494
f 494 508 496
f 494 495 509
f 494 509 508
f 495 499 510
f 495 510 511
f 495 511 509
f 496 508 512
f 496 512 497
f 497 513 498
f 497 512 513
f 498 513 514
f 498 514 500
f 499 505 504
f 499 504 510
f 503 507 515
f 503 515 516
f 503 516 504
f 504 516 510
f 508 509 517
f 508 517 518
f 508 518 512
f 509 511 517
f 510 516 511
f 511 519 517
f 511 516 519
f 512 518 520
f 512 520 514
f 512 514 513
f 515 521 516
f 516 521 522
f 516 522 519
f 517 519 523
f 517 523 524
f 517 524 518
f 518 524 520
f 519 522 523

