# https://github.com/mikedh/trimesh
v 0.00810225 -0.00037115 -0.01191483
v 0.00810225 -0.00037115 -0.01205650
v 0.00808639 -0.00007817 -0.01205650
v 0.00808639 -0.00009208 -0.00054384
v 0.00810067 -0.00037115 -0.00054384
v -0.00810185 -0.00037115 -0.01205650
v 0.00771841 0.00024223 -0.01205650
v 0.00772475 0.00020983 -0.00054384
v 0.00772475 0.00019036 0.00007400
v 0.00807846 -0.00011155 0.00007400
v 0.00808956 -0.00037115 0.00007400
v -0.00810026 -0.00037115 -0.00054384
v -0.00808599 -0.00009208 -0.00054384
v -0.00808599 -0.00007817 -0.01205650
v 0.00750586 0.00028680 -0.01205650
v 0.00710615 0.00033938 0.00130967
v 0.00710615 0.00033741 0.00192751
v 0.00710615 0.00030536 0.00254535
v 0.00772475 0.00013145 0.00069183
v 0.00805943 -0.00017046 0.00069183
v 0.00804198 -0.00022789 0.00105782
v 0.00804198 -0.00037115 0.00105585
v -0.00809709 -0.00037115 -0.00027428
v -0.00807964 -0.00011155 0.00007400
v -0.00772435 0.00019036 0.00007400
v -0.00772435 0.00020983 -0.00054384
v -0.00771800 0.00024223 -0.01205650
v -0.00784172 0.00013869 -0.01205650
v 0.00710615 0.00034676 -0.01205650
v 0.00648755 0.00033987 0.00254535
v 0.00648755 0.00033917 0.00316319
v 0.00709029 0.00034683 -0.01205650
v 0.00648755 0.00031049 0.00378300
v 0.00698719 0.00000851 0.00378300
v 0.00755979 0.00000345 0.00254535
v 0.00764861 0.00003543 0.00192751
v 0.00801977 -0.00037115 0.00115029
v 0.00747731 -0.00010600 0.00300381
v 0.00763593 -0.00037115 0.00254535
v -0.00808916 -0.00037115 0.00007400
v -0.00807806 -0.00037115 0.00038291
v -0.00805902 -0.00017039 0.00069183
v -0.00772435 0.00013145 0.00069183
v -0.00710575 0.00030536 0.00254535
v -0.00710575 0.00033741 0.00192751
v -0.00710575 0.00033938 0.00130967
v -0.00710575 0.00034676 -0.01205650
v 0.00587054 0.00033987 0.00378300
v 0.00525194 0.00033846 0.00501867
v 0.00587054 0.00033755 0.00440083
v 0.00648755 0.00034690 -0.01205650
v 0.00154353 0.00033987 0.00687219
v 0.00278072 0.00033987 0.00625435
v 0.00401633 0.00033987 0.00563651
v 0.00463493 0.00033987 0.00501867
v 0.00592130 0.00009532 0.00506590
v 0.00651452 0.00007346 0.00440674
v 0.00686823 -0.00010094 0.00420604
v 0.00741386 -0.00037115 0.00320254
v 0.00748683 -0.00037115 0.00302742
v -0.00804316 -0.00037115 0.00105782
v -0.00804316 -0.00022789 0.00105782
v -0.00764821 0.00003543 0.00192751
v -0.00755939 0.00000345 0.00254535
v -0.00698679 0.00000851 0.00378300
v -0.00648874 0.00031042 0.00378300
v -0.00648874 0.00033917 0.00316319
v -0.00648874 0.00033987 0.00254535
v -0.00648874 0.00034690 -0.01205650
v -0.00587014 0.00033987 0.00378300
v -0.00463453 0.00033987 0.00501867
v -0.00401593 0.00033987 0.00563651
v 0.00339773 0.00033973 0.00625435
v 0.00463493 0.00033790 0.00563651
v 0.00530904 0.00009560 0.00569357
v -0.00154471 0.00033987 0.00687219
v 0.00030791 0.00033150 0.00749003
v 0.00216212 0.00033945 0.00687219
v 0.00632735 -0.00006579 0.00489274
v 0.00574841 -0.00006453 0.00552436
v 0.00636066 -0.00037115 0.00493603
v 0.00676830 -0.00037115 0.00440280
v 0.00687933 -0.00037115 0.00422571
v -0.00775131 -0.00037115 0.00214395
v -0.00758952 -0.00037115 0.00274408
v -0.00747691 -0.00010600 0.00300381
v -0.00686783 -0.00010101 0.00420604
v -0.00651570 0.00007346 0.00440674
v -0.00592089 0.00009532 0.00506590
v -0.00587014 0.00033755 0.00440083
v -0.00525154 0.00033846 0.00501867
v -0.00339892 0.00033973 0.00625435
v 0.00278072 0.00033481 0.00687219
v 0.00401633 0.00033052 0.00625435
v 0.00466507 0.00008934 0.00629370
v 0.00513933 -0.00006530 0.00611268
v -0.00216172 0.00033945 0.00687219
v -0.00030751 0.00033150 0.00749003
v 0.00092651 0.00032258 0.00749003
v 0.00030791 0.00003009 0.00795636
v 0.00620998 -0.00037115 0.00512099
v 0.00561517 -0.00037115 0.00575850
v 0.00579441 -0.00037115 0.00557355
v -0.00748642 -0.00037115 0.00302742
v -0.00702803 -0.00037115 0.00396402
v -0.00687893 -0.00037115 0.00422571
v -0.00654742 -0.00037115 0.00468417
v -0.00636184 -0.00037115 0.00493603
v -0.00632695 -0.00006579 0.00489274
v -0.00574800 -0.00006453 0.00552436
v -0.00530864 0.00009560 0.00569357
v -0.00463453 0.00033790 0.00563651
v -0.00278032 0.00033481 0.00687219
v 0.00154353 0.00025819 0.00749003
v 0.00339773 0.00023408 0.00687219
v 0.00447949 -0.00007493 0.00666362
v 0.00397509 0.00000998 0.00687022
v 0.00518691 -0.00037115 0.00615400
v -0.00030751 0.00003009 0.00795636
v -0.00092611 0.00032258 0.00749003
v 0.00092651 0.00002067 0.00793275
v 0.00030791 -0.00037115 0.00804490
v -0.00597958 -0.00037115 0.00537285
v -0.00579400 -0.00037115 0.00557355
v -0.00537367 -0.00037115 0.00599265
v -0.00514051 -0.00006530 0.00611268
v -0.00466466 0.00008934 0.00629370
v -0.00401593 0.00033052 0.00625435
v -0.00339892 0.00023408 0.00687219
v -0.00154471 0.00026227 0.00749003
v 0.00154353 -0.00004365 0.00788552
v 0.00278072 0.00003283 0.00740345
v 0.00339773 -0.00006762 0.00727752
v 0.00496009 -0.00037115 0.00633896
v 0.00374193 -0.00019738 0.00720078
v 0.00451121 -0.00037115 0.00668526
v -0.00092611 0.00002067 0.00793275
v -0.00030751 -0.00037115 0.00804490
v 0.00051887 -0.00037115 0.00803506
v 0.00092651 -0.00037115 0.00800358
v -0.00518651 -0.00037115 0.00615400
v -0.00447908 -0.00007493 0.00666362
v -0.00397469 0.00000998 0.00687022
v -0.00339892 -0.00006769 0.00727752
v -0.00278032 0.00003283 0.00740542
v -0.00154471 -0.00003957 0.00788552
v 0.00116126 -0.00037115 0.00797997
v 0.00199399 -0.00015542 0.00783240
v 0.00302658 -0.00037115 0.00747035
v 0.00358331 -0.00037115 0.00726572
v 0.00373876 -0.00037115 0.00719882
v -0.00092611 -0.00037115 0.00800358
v -0.00469480 -0.00037115 0.00655933
v -0.00374153 -0.00019738 0.00720078
v -0.00199517 -0.00015001 0.00783240
v -0.00154471 -0.00037115 0.00792094
v 0.00176083 -0.00037115 0.00788946
v 0.00200034 -0.00037115 0.00783436
v -0.00451081 -0.00037115 0.00668526
v -0.00388111 -0.00037115 0.00711224
v -0.00373835 -0.00037115 0.00719882
v -0.00216331 -0.00037115 0.00779501
v -0.00200152 -0.00037115 0.00783436
f 1 2 3
f 1 3 4
f 1 4 5
f 1 5 11
f 1 11 22
f 1 22 37
f 1 37 39
f 1 39 60
f 1 60 59
f 1 59 83
f 1 83 82
f 1 82 81
f 1 81 101
f 1 101 103
f 1 103 102
f 1 102 118
f 1 118 134
f 1 134 136
f 1 136 151
f 1 151 150
f 1 150 149
f 1 149 158
f 1 158 157
f 1 157 147
f 1 147 140
f 1 140 139
f 1 139 122
f 1 122 138
f 1 138 152
f 1 152 156
f 1 156 163
f 1 163 162
f 1 162 161
f 1 161 160
f 1 160 159
f 1 159 153
f 1 153 141
f 1 141 125
f 1 125 124
f 1 124 123
f 1 123 108
f 1 108 107
f 1 107 106
f 1 106 105
f 1 105 104
f 1 104 85
f 1 85 84
f 1 84 61
f 1 61 41
f 1 41 40
f 1 40 23
f 1 23 12
f 1 12 6
f 1 6 2
f 2 6 14
f 2 14 28
f 2 28 27
f 2 27 47
f 2 47 69
f 2 69 51
f 2 51 32
f 2 32 29
f 2 29 15
f 2 15 7
f 2 7 3
f 3 7 4
f 4 8 9
f 4 9 10
f 4 10 5
f 4 7 8
f 5 10 11
f 6 12 13
f 6 13 14
f 7 15 16
f 7 16 8
f 8 16 17
f 8 17 9
f 9 17 18
f 9 18 19
f 9 19 10
f 10 19 20
f 10 20 11
f 11 20 21
f 11 21 22
f 12 23 13
f 13 23 24
f 13 24 25
f 13 25 26
f 13 26 27
f 13 27 28
f 13 28 14
f 15 29 16
f 16 30 31
f 16 31 17
f 16 29 32
f 16 32 30
f 17 31 33
f 17 33 18
f 18 33 34
f 18 34 35
f 18 35 36
f 18 36 19
f 19 36 20
f 20 36 21
f 21 37 22
f 21 36 35
f 21 35 38
f 21 38 39
f 21 39 37
f 23 40 24
f 24 40 41
f 24 41 42
f 24 42 43
f 24 43 25
f 25 43 44
f 25 44 45
f 25 45 26
f 26 45 46
f 26 46 27
f 27 46 47
f 30 48 31
f 30 32 48
f 31 48 49
f 31 49 50
f 31 50 33
f 32 51 52
f 32 52 53
f 32 53 54
f 32 54 55
f 32 55 48
f 33 50 56
f 33 56 57
f 33 57 34
f 34 57 58
f 34 58 38
f 34 38 35
f 38 59 60
f 38 60 39
f 38 58 59
f 41 61 62
f 41 62 42
f 42 62 63
f 42 63 43
f 43 63 44
f 44 63 64
f 44 64 65
f 44 65 66
f 44 66 45
f 45 66 67
f 45 67 46
f 46 67 68
f 46 68 47
f 47 68 70
f 47 70 71
f 47 71 72
f 47 72 69
f 48 55 49
f 49 55 54
f 49 54 73
f 49 73 74
f 49 74 75
f 49 75 50
f 50 75 56
f 51 69 76
f 51 76 52
f 52 76 98
f 52 98 77
f 52 77 78
f 52 78 73
f 52 73 53
f 53 73 54
f 56 79 57
f 56 75 80
f 56 80 79
f 57 79 58
f 58 79 81
f 58 81 82
f 58 82 83
f 58 83 59
f 61 84 62
f 62 64 63
f 62 84 85
f 62 85 86
f 62 86 64
f 64 86 65
f 65 86 87
f 65 87 88
f 65 88 66
f 66 88 89
f 66 89 90
f 66 90 67
f 67 90 91
f 67 91 70
f 67 70 68
f 69 72 76
f 70 91 71
f 71 91 72
f 72 92 76
f 72 91 92
f 73 78 93
f 73 93 74
f 74 93 94
f 74 94 75
f 75 94 95
f 75 95 96
f 75 96 80
f 76 97 98
f 76 92 97
f 77 99 93
f 77 93 78
f 77 98 119
f 77 119 100
f 77 100 99
f 79 101 81
f 79 80 101
f 80 96 102
f 80 102 103
f 80 103 101
f 85 104 86
f 86 104 105
f 86 105 87
f 87 105 106
f 87 106 107
f 87 107 108
f 87 108 109
f 87 109 88
f 88 109 89
f 89 109 110
f 89 110 111
f 89 111 90
f 90 111 91
f 91 111 112
f 91 112 92
f 92 112 113
f 92 113 97
f 93 99 114
f 93 114 115
f 93 115 94
f 94 115 95
f 95 116 96
f 95 115 117
f 95 117 116
f 96 116 118
f 96 118 102
f 97 113 98
f 98 113 120
f 98 120 119
f 99 100 121
f 99 121 114
f 100 122 121
f 100 119 138
f 100 138 122
f 108 123 109
f 109 123 110
f 110 123 124
f 110 124 125
f 110 125 126
f 110 126 111
f 111 126 127
f 111 127 128
f 111 128 112
f 112 128 113
f 113 129 130
f 113 130 120
f 113 128 129
f 114 121 131
f 114 131 132
f 114 132 115
f 115 132 133
f 115 133 117
f 116 134 118
f 116 117 133
f 116 133 135
f 116 135 136
f 116 136 134
f 119 137 138
f 119 120 137
f 120 130 137
f 121 122 139
f 121 139 140
f 121 140 131
f 125 141 126
f 126 141 142
f 126 142 127
f 127 142 143
f 127 143 129
f 127 129 128
f 129 143 144
f 129 144 145
f 129 145 130
f 130 145 146
f 130 146 137
f 131 140 147
f 131 147 148
f 131 148 132
f 132 148 133
f 133 148 135
f 135 148 149
f 135 149 150
f 135 150 151
f 135 151 136
f 137 146 152
f 137 152 138
f 141 153 142
f 142 153 154
f 142 154 144
f 142 144 143
f 144 154 155
f 144 155 145
f 145 155 146
f 146 155 156
f 146 156 152
f 147 157 148
f 148 157 158
f 148 158 149
f 153 159 154
f 154 160 161
f 154 161 162
f 154 162 155
f 154 159 160
f 155 162 163
f 155 163 156

