# https://github.com/mikedh/trimesh
v 0.00813143 0.02661912 -0.01350155
v 0.00808686 0.02616313 -0.01350155
v 0.00807890 0.02718557 -0.01350155
v 0.00807731 0.02720182 -0.00054453
v 0.00812347 0.02661912 -0.00054453
v 0.00773664 0.02589553 -0.01350155
v 0.00807890 0.02625441 -0.00054453
v 0.00807731 0.02720182 -0.01350155
v 0.00802796 0.02751068 -0.00054453
v 0.00807094 0.02715764 0.00007468
v 0.00810914 0.02661912 0.00007468
v 0.00807094 0.02626233 0.00007468
v 0.00770002 0.02587761 -0.01350155
v 0.00802796 0.02751068 -0.01350155
v 0.00790538 0.02785539 -0.00054453
v 0.00789105 0.02785539 0.00007468
v 0.00802000 0.02746650 0.00007468
v 0.00800089 0.02734729 0.00069179
v 0.00805024 0.02703843 0.00069179
v 0.00803751 0.02695174 0.00102358
v 0.00807094 0.02661912 0.00069179
v 0.00803910 0.02630318 0.00103204
v 0.00805343 0.02628484 0.00069179
v 0.00772390 0.02613729 0.00007468
v 0.00772390 0.02616021 0.00069179
v 0.00710624 0.02578258 -0.01350155
v 0.00710624 0.02606018 0.00192810
v 0.00790538 0.02785539 -0.01350155
v 0.00760292 0.02846310 -0.00054453
v 0.00759496 0.02845309 0.00007468
v 0.00757586 0.02842600 0.00069179
v 0.00785285 0.02785539 0.00069179
v 0.00777325 0.02785539 0.00130889
v 0.00795632 0.02718932 0.00126239
v 0.00781305 0.02723725 0.00192810
v 0.00783693 0.02661912 0.00192810
v 0.00797065 0.02661912 0.00135116
v 0.00803910 0.02661912 0.00104260
v 0.00767296 0.02661912 0.00254521
v 0.00747079 0.02625316 0.00299113
v 0.00753765 0.02620481 0.00254521
v 0.00761247 0.02618522 0.00192810
v 0.00710624 0.02607977 0.00254521
v 0.00648859 0.02578216 -0.01350155
v 0.00587093 0.02606018 0.00440074
v 0.00463402 0.02606018 0.00563494
v 0.00277946 0.02606184 0.00687125
v 0.00030882 0.02606226 0.00749047
v 0.00648859 0.02607810 0.00378152
v 0.00760292 0.02846310 -0.01350155
v 0.00740871 0.02877237 -0.00054453
v 0.00740075 0.02876195 0.00007468
v 0.00738164 0.02873486 0.00069179
v 0.00753606 0.02836556 0.00130889
v 0.00747238 0.02826219 0.00192810
v 0.00764590 0.02785539 0.00192810
v 0.00748989 0.02782454 0.00250928
v 0.00763316 0.02723725 0.00254521
v 0.00749785 0.02661912 0.00305875
v 0.00735777 0.02661912 0.00336730
v 0.00686109 0.02625024 0.00419574
v 0.00696457 0.02620273 0.00378152
v -0.00652203 0.02578216 -0.01350155
v 0.00591073 0.02616021 0.00505799
v 0.00530103 0.02616021 0.00568566
v 0.00401636 0.02606559 0.00625415
v 0.00339871 0.02611061 0.00687125
v 0.00154414 0.02610436 0.00749047
v 0.00092648 0.02606976 0.00749047
v 0.00030882 0.02618730 0.00793639
v -0.00030883 0.02606226 0.00749047
v 0.00650291 0.02617438 0.00440074
v 0.00740871 0.02877237 -0.01350155
v 0.00709829 0.02907748 -0.00054453
v 0.00709192 0.02907123 0.00007468
v 0.00710784 0.02906914 -0.01350155
v 0.00707281 0.02905455 0.00069179
v 0.00702983 0.02901412 0.00130889
v 0.00733866 0.02867442 0.00130889
v 0.00726862 0.02857105 0.00192810
v 0.00742940 0.02818925 0.00227892
v 0.00735140 0.02800961 0.00269103
v 0.00743418 0.02759821 0.00290236
v 0.00747238 0.02723725 0.00299113
v 0.00734344 0.02723725 0.00329968
v 0.00710147 0.02723725 0.00378152
v 0.00714445 0.02661912 0.00378152
v 0.00689293 0.02661912 0.00424857
v 0.00669076 0.02661912 0.00455712
v 0.00638193 0.02661912 0.00496712
v 0.00630870 0.02622690 0.00487836
v -0.00710625 0.02578258 -0.01350155
v 0.00573084 0.02622690 0.00551236
v 0.00512751 0.02622690 0.00609354
v 0.00465790 0.02616438 0.00628163
v 0.00397020 0.02620356 0.00686492
v 0.00339871 0.02623565 0.00726434
v 0.00277946 0.02618689 0.00737846
v 0.00154414 0.02622940 0.00787510
v 0.00092648 0.02619481 0.00791737
v -0.00030883 0.02618730 0.00793639
v 0.00030882 0.02661912 0.00808644
v -0.00092649 0.02606976 0.00749047
v -0.00277947 0.02606184 0.00687125
v 0.00677831 0.02938675 -0.00054453
v 0.00709033 0.02908623 -0.01350155
v 0.00676876 0.02938050 0.00007468
v 0.00674647 0.02936383 0.00069179
v 0.00669394 0.02932340 0.00130889
v 0.00695979 0.02894827 0.00192810
v 0.00686109 0.02884865 0.00254521
v 0.00718106 0.02842600 0.00250928
v 0.00691999 0.02846727 0.00310525
v 0.00685632 0.02825803 0.00357652
v 0.00724952 0.02782454 0.00313061
v 0.00693114 0.02783038 0.00378152
v 0.00682289 0.02760780 0.00413234
v 0.00686428 0.02723725 0.00419997
v 0.00666847 0.02723725 0.00450852
v 0.00635964 0.02723725 0.00493330
v 0.00613200 0.02661912 0.00527567
v -0.00712536 0.02578299 -0.01350155
v -0.00463403 0.02606018 0.00563494
v -0.00587094 0.02606018 0.00440074
v 0.00582317 0.02661912 0.00560747
v 0.00553185 0.02661912 0.00591602
v 0.00522303 0.02661912 0.00617807
v 0.00446846 0.02623399 0.00665358
v 0.00197555 0.02627567 0.00782861
v 0.00373460 0.02629192 0.00719671
v 0.00092648 0.02661912 0.00804417
v -0.00092649 0.02619481 0.00791737
v -0.00030883 0.02661912 0.00808644
v 0.00030882 0.02723725 0.00804840
v -0.00154415 0.02610436 0.00749047
v -0.00339871 0.02611061 0.00687125
v -0.00401637 0.02606559 0.00625415
v 0.00646948 0.02956640 -0.00054453
v 0.00645993 0.02956265 0.00007468
v 0.00677831 0.02938675 -0.01350155
v 0.00643765 0.02955265 0.00069179
v 0.00638511 0.02952722 0.00130889
v 0.00630552 0.02948179 0.00192810
v 0.00661435 0.02925713 0.00192810
v 0.00645993 0.02919669 0.00257479
v 0.00679901 0.02878404 0.00286010
v 0.00670668 0.02866984 0.00327220
v 0.00651406 0.02851353 0.00382590
v 0.00629119 0.02831680 0.00440074
v 0.00618613 0.02817425 0.00471774
v 0.00673215 0.02801919 0.00398863
v 0.00657455 0.02783038 0.00436270
v 0.00625935 0.02785539 0.00480862
v 0.00610653 0.02723725 0.00524185
v 0.00579770 0.02723725 0.00557788
v -0.00763954 0.02586761 -0.01350155
v -0.00710625 0.02606018 0.00192810
v -0.00530104 0.02616021 0.00568566
v -0.00591074 0.02616021 0.00505799
v -0.00648860 0.02607810 0.00378152
v 0.00549524 0.02723725 0.00588643
v 0.00518641 0.02723725 0.00615271
v 0.00485052 0.02661912 0.00648662
v 0.00234168 0.02661912 0.00775464
v 0.00203285 0.02661912 0.00784129
v 0.00154414 0.02661912 0.00795330
v 0.00454169 0.02661912 0.00670219
v 0.00405457 0.02661912 0.00701074
v 0.00374574 0.02661912 0.00720305
v 0.00339871 0.02661912 0.00735099
v 0.00277946 0.02661912 0.00759191
v 0.00092648 0.02723725 0.00799979
v -0.00092649 0.02661912 0.00804417
v -0.00154415 0.02622940 0.00787510
v -0.00030883 0.02723725 0.00804840
v 0.00092648 0.02775660 0.00787299
v 0.00030882 0.02782162 0.00789835
v -0.00277947 0.02618689 0.00737846
v -0.00339871 0.02623565 0.00726434
v -0.00397021 0.02620356 0.00686492
v -0.00465791 0.02616438 0.00628163
v 0.00587093 0.02983775 -0.00054453
v 0.00587093 0.02983233 0.00007468
v 0.00646948 0.02956640 -0.01350155
v 0.00587093 0.02981607 0.00069179
v 0.00587093 0.02977689 0.00130889
v 0.00587093 0.02970270 0.00192810
v 0.00623547 0.02943719 0.00238670
v 0.00615429 0.02938384 0.00279881
v 0.00649495 0.02895994 0.00310525
v 0.00629437 0.02888616 0.00366106
v 0.00616861 0.02876946 0.00407317
v 0.00604604 0.02862566 0.00440074
v 0.00560031 0.02881572 0.00475578
v 0.00580566 0.02840058 0.00494176
v 0.00559871 0.02821509 0.00536654
v 0.00599987 0.02785539 0.00511717
v 0.00569104 0.02785539 0.00546376
v -0.00770003 0.02587761 -0.01350155
v -0.00710625 0.02607977 0.00254521
v -0.00772391 0.02613729 0.00007468
v -0.00512752 0.02622690 0.00609354
v -0.00573085 0.02622690 0.00551236
v -0.00630871 0.02622690 0.00487836
v -0.00650292 0.02617438 0.00440074
v -0.00696457 0.02620273 0.00378152
v 0.00537107 0.02785539 0.00577231
v 0.00506224 0.02785539 0.00604705
v 0.00480595 0.02723725 0.00646126
v 0.00216976 0.02727643 0.00774619
v 0.00196918 0.02709637 0.00782650
v 0.00277946 0.02723725 0.00755387
v 0.00159031 0.02727643 0.00788567
v 0.00449712 0.02723725 0.00667471
v 0.00373141 0.02700717 0.00719460
v 0.00141360 0.02766407 0.00784129
v -0.00092649 0.02723725 0.00799979
v -0.00154415 0.02661912 0.00795330
v -0.00197555 0.02627567 0.00782861
v -0.00030883 0.02782162 0.00789835
v -0.00092649 0.02775660 0.00787299
v 0.00092648 0.02806504 0.00775887
v 0.00030882 0.02813048 0.00778634
v -0.00373461 0.02629192 0.00719671
v -0.00446847 0.02623399 0.00665358
v 0.00529466 0.02997988 -0.00054453
v 0.00528988 0.02997821 0.00007468
v 0.00587093 0.02983775 -0.01350155
v 0.00527237 0.02997238 0.00069179
v 0.00519437 0.02996862 0.00127719
v 0.00525168 0.02991569 0.00192810
v 0.00525168 0.02984316 0.00254521
v 0.00591709 0.02956223 0.00257479
v 0.00574517 0.02950346 0.00316442
v 0.00562578 0.02943886 0.00358075
v 0.00605400 0.02931173 0.00316442
v 0.00589640 0.02912291 0.00382801
v 0.00549046 0.02935966 0.00399286
v 0.00573721 0.02893160 0.00440074
v 0.00527078 0.02926046 0.00443666
v 0.00522462 0.02893952 0.00498402
v 0.00499857 0.02882531 0.00537711
v 0.00541087 0.02862691 0.00516788
v 0.00518800 0.02840850 0.00557788
v 0.00496514 0.02819009 0.00596462
v -0.00808687 0.02616313 -0.01350155
v -0.00807095 0.02626233 0.00007468
v -0.00807891 0.02625441 -0.00054453
v -0.00753766 0.02620481 0.00254521
v -0.00761248 0.02618522 0.00192810
v -0.00772391 0.02616021 0.00069179
v -0.00522303 0.02661912 0.00617807
v -0.00553186 0.02661912 0.00591602
v -0.00582318 0.02661912 0.00560747
v -0.00613201 0.02661912 0.00527567
v -0.00686110 0.02625024 0.00419574
v -0.00638194 0.02661912 0.00496712
v -0.00747080 0.02625316 0.00299113
v 0.00462288 0.02787331 0.00637673
v 0.00440956 0.02767949 0.00661765
v 0.00182591 0.02750860 0.00779268
v 0.00216180 0.02785539 0.00758346
v 0.00342895 0.02722266 0.00728970
v 0.00365341 0.02741898 0.00715656
v 0.00324270 0.02771492 0.00724532
v 0.00281925 0.02789457 0.00734887
v 0.00396861 0.02722266 0.00700862
v 0.00159031 0.02786414 0.00772294
v -0.00159031 0.02727643 0.00788567
v -0.00141361 0.02766407 0.00784129
v -0.00196919 0.02709637 0.00782650
v -0.00203286 0.02661912 0.00784129
v -0.00234169 0.02661912 0.00775464
v -0.00030883 0.02813048 0.00778634
v -0.00092649 0.02806504 0.00775887
v 0.00157439 0.02852479 0.00737635
v 0.00092648 0.02847268 0.00751794
v 0.00030882 0.02847268 0.00757078
v -0.00374575 0.02661912 0.00720305
v -0.00405458 0.02661912 0.00701074
v -0.00454170 0.02661912 0.00670219
v -0.00485053 0.02661912 0.00648662
v -0.00277947 0.02661912 0.00759191
v -0.00339871 0.02661912 0.00735099
v 0.00498583 0.03002364 -0.00054453
v 0.00497946 0.03002281 0.00007468
v 0.00529466 0.02997988 -0.01350155
v 0.00496354 0.03002073 0.00069179
v 0.00494922 0.03001864 0.00105106
v 0.00488395 0.03001489 0.00146316
v 0.00478684 0.03000405 0.00192810
v 0.00460696 0.02998363 0.00256845
v 0.00463402 0.02991027 0.00316442
v 0.00525168 0.02972562 0.00316442
v 0.00527078 0.02954098 0.00378575
v 0.00507816 0.02946678 0.00425280
v 0.00490146 0.02937925 0.00466491
v 0.00458626 0.02892284 0.00560535
v 0.00434907 0.02879988 0.00596251
v 0.00476137 0.02860190 0.00578921
v 0.00467223 0.02927046 0.00504531
v 0.00458626 0.02842684 0.00607029
v 0.00427107 0.02809088 0.00652889
v -0.00813144 0.02661912 -0.01350155
v -0.00812348 0.02661912 -0.00054453
v -0.00805343 0.02628484 0.00069179
v -0.00810915 0.02661912 0.00007468
v -0.00803911 0.02630318 0.00103204
v -0.00518642 0.02723725 0.00615271
v -0.00549525 0.02723725 0.00588643
v -0.00579771 0.02723725 0.00557788
v -0.00610654 0.02723725 0.00524185
v -0.00635965 0.02723725 0.00493330
v -0.00689294 0.02661912 0.00424857
v -0.00714446 0.02661912 0.00378152
v -0.00735777 0.02661912 0.00336730
v -0.00669077 0.02661912 0.00455712
v -0.00749786 0.02661912 0.00305875
v -0.00767297 0.02661912 0.00254521
v 0.00404661 0.02787331 0.00676136
v 0.00263937 0.02827345 0.00724955
v 0.00216180 0.02838807 0.00732140
v 0.00342895 0.02789457 0.00708893
v 0.00305167 0.02812631 0.00716501
v -0.00182592 0.02750860 0.00779268
v -0.00159031 0.02786414 0.00772294
v -0.00216181 0.02785539 0.00758346
v -0.00216977 0.02727643 0.00774619
v -0.00277947 0.02723725 0.00755387
v -0.00030883 0.02847268 0.00757078
v -0.00092649 0.02847268 0.00751794
v -0.00157440 0.02852479 0.00737635
v 0.00180044 0.02876529 0.00716924
v 0.00138973 0.02882156 0.00721573
v 0.00092648 0.02885865 0.00724955
v 0.00030882 0.02888783 0.00727702
v -0.00373142 0.02700717 0.00719460
v -0.00449713 0.02723725 0.00667471
v -0.00480596 0.02723725 0.00646126
v 0.00463402 0.03003448 -0.00054453
v 0.00463402 0.03003406 0.00007468
v 0.00498583 0.03002364 -0.01350155
v 0.00497469 0.03002406 -0.01350155
v 0.00463402 0.03003156 0.00069179
v 0.00466108 0.03002698 0.00127719
v 0.00447801 0.03002740 0.00192810
v 0.00438250 0.03002364 0.00237614
v 0.00426948 0.03001489 0.00278824
v 0.00412939 0.02999697 0.00316442
v 0.00395428 0.02994945 0.00372023
v 0.00463402 0.02978814 0.00378152
v 0.00467223 0.02956723 0.00443666
v 0.00449075 0.02947137 0.00485722
v 0.00425356 0.02936716 0.00526933
v 0.00401636 0.02889242 0.00606818
v 0.00359610 0.02870902 0.00650353
v 0.00404661 0.02849102 0.00639364
v 0.00403547 0.02922128 0.00563071
v 0.00386036 0.02829679 0.00665569
v -0.00807731 0.02720182 -0.00054453
v -0.00807731 0.02720182 -0.01350155
v -0.00807095 0.02715764 0.00007468
v -0.00807095 0.02661912 0.00069179
v -0.00803752 0.02695174 0.00102358
v -0.00805025 0.02703843 0.00069179
v -0.00783694 0.02661912 0.00192810
v -0.00797066 0.02661912 0.00135116
v -0.00803911 0.02661912 0.00104260
v -0.00506225 0.02785539 0.00604705
v -0.00537108 0.02785539 0.00577231
v -0.00569105 0.02785539 0.00546376
v -0.00599988 0.02785539 0.00511717
v -0.00625936 0.02785539 0.00480862
v -0.00666848 0.02723725 0.00450852
v -0.00686428 0.02723725 0.00419997
v -0.00710148 0.02723725 0.00378152
v -0.00734345 0.02723725 0.00329968
v -0.00747239 0.02723725 0.00299113
v -0.00763317 0.02723725 0.00254521
v -0.00781306 0.02723725 0.00192810
v 0.00281925 0.02847685 0.00703187
v 0.00216180 0.02869693 0.00711641
v 0.00339393 0.02849102 0.00675925
v -0.00216181 0.02838807 0.00732140
v -0.00263938 0.02827345 0.00724955
v -0.00281926 0.02789457 0.00734887
v -0.00324271 0.02771492 0.00724532
v -0.00365342 0.02741898 0.00715656
v -0.00342896 0.02722266 0.00728970
v -0.00030883 0.02888783 0.00727702
v -0.00092649 0.02885865 0.00724955
v -0.00138973 0.02882156 0.00721573
v -0.00180045 0.02876529 0.00716924
v 0.00216180 0.02901746 0.00680785
v 0.00174472 0.02938009 0.00653523
v 0.00133242 0.02941552 0.00658384
v 0.00092648 0.02916751 0.00692198
v 0.00030882 0.02919669 0.00694945
v -0.00396862 0.02722266 0.00700862
v -0.00440957 0.02767949 0.00661765
v 0.00401636 0.03003990 0.00130889
v 0.00463402 0.03003448 -0.01350155
v 0.00461651 0.03003490 -0.01350155
v 0.00401636 0.03003865 0.00192810
v 0.00404502 0.03002990 0.00256845
v 0.00381897 0.03002323 0.00316442
v 0.00370753 0.03001781 0.00347297
v 0.00339871 0.02999947 0.00391678
v 0.00339871 0.02992236 0.00440074
v 0.00401636 0.02979731 0.00440074
v 0.00403547 0.02955640 0.00504531
v 0.00384125 0.02945470 0.00541938
v 0.00353561 0.02932298 0.00583148
v 0.00336050 0.02907665 0.00623302
v 0.00318539 0.02883073 0.00660920
v -0.00802796 0.02751110 -0.00054453
v -0.00802796 0.02751110 -0.01350155
v -0.00800090 0.02734729 0.00069179
v -0.00802001 0.02746650 0.00007468
v -0.00795633 0.02718932 0.00126239
v -0.00496515 0.02818967 0.00596462
v -0.00462289 0.02787331 0.00637673
v -0.00559872 0.02821509 0.00536654
v -0.00618613 0.02817425 0.00471774
v -0.00657456 0.02783038 0.00436270
v -0.00682290 0.02760780 0.00413234
v -0.00743419 0.02759821 0.00290236
v -0.00748990 0.02782454 0.00250928
v -0.00764591 0.02785539 0.00192810
v -0.00777326 0.02785539 0.00130889
v 0.00277946 0.02891451 0.00669796
v -0.00216181 0.02869693 0.00711641
v -0.00281926 0.02847685 0.00703187
v -0.00305168 0.02812631 0.00716501
v -0.00342896 0.02789457 0.00708893
v -0.00404662 0.02787331 0.00676136
v -0.00030883 0.02919669 0.00694945
v -0.00092649 0.02916751 0.00692198
v -0.00133243 0.02941552 0.00658384
v -0.00174473 0.02938009 0.00653523
v -0.00216181 0.02901746 0.00680785
v 0.00216180 0.02932673 0.00646126
v 0.00277946 0.02945678 0.00603436
v 0.00216180 0.02952347 0.00615271
v 0.00154096 0.02954473 0.00629853
v 0.00092648 0.02943552 0.00661131
v 0.00092648 0.02963101 0.00625415
v 0.00030882 0.02945511 0.00664090
v -0.00427108 0.02809088 0.00652889
v 0.00339871 0.03003990 0.00254521
v 0.00401636 0.03003990 -0.01350155
v 0.00339871 0.03003406 0.00316442
v 0.00339871 0.03002323 0.00360823
v 0.00306281 0.03001656 0.00406471
v 0.00282562 0.02999405 0.00440496
v 0.00277946 0.02987734 0.00501784
v 0.00339871 0.02975605 0.00501784
v 0.00335732 0.02950763 0.00563071
v 0.00312331 0.02941301 0.00596462
v 0.00277946 0.02922336 0.00634292
v -0.00789106 0.02785539 0.00007468
v -0.00790539 0.02785539 -0.00054453
v -0.00790539 0.02785539 -0.01350155
v -0.00785286 0.02785539 0.00069179
v -0.00458627 0.02842684 0.00607029
v -0.00434908 0.02879988 0.00596251
v -0.00476138 0.02860190 0.00578921
v -0.00518801 0.02840850 0.00557788
v -0.00499858 0.02882531 0.00537711
v -0.00541088 0.02862691 0.00516788
v -0.00580567 0.02840058 0.00494176
v -0.00560031 0.02881572 0.00475578
v -0.00604605 0.02862566 0.00440074
v -0.00616862 0.02876946 0.00407317
v -0.00629120 0.02831680 0.00440074
v -0.00685633 0.02825803 0.00357652
v -0.00673216 0.02801919 0.00398863
v -0.00693114 0.02783038 0.00378152
v -0.00724953 0.02782454 0.00313061
v -0.00735141 0.02800961 0.00269103
v -0.00742941 0.02818925 0.00227892
v -0.00747239 0.02826219 0.00192810
v -0.00753607 0.02836556 0.00130889
v -0.00277947 0.02891451 0.00669796
v -0.00318540 0.02883073 0.00660920
v -0.00339394 0.02849102 0.00675925
v -0.00386037 0.02829679 0.00665569
v -0.00030883 0.02945511 0.00664090
v -0.00092649 0.02943552 0.00661131
v -0.00092649 0.02963101 0.00625415
v -0.00154097 0.02954473 0.00629853
v -0.00216181 0.02952347 0.00615271
v -0.00277947 0.02945678 0.00603436
v -0.00216181 0.02932673 0.00646126
v 0.00277946 0.02965393 0.00563494
v 0.00216180 0.02976730 0.00563494
v 0.00154414 0.02983983 0.00563494
v 0.00030882 0.02966519 0.00625415
v 0.00092648 0.02988193 0.00563494
v -0.00404662 0.02849102 0.00639364
v 0.00277946 0.03003990 0.00316442
v -0.00401637 0.03003990 -0.01350155
v 0.00216180 0.03003990 0.00378152
v 0.00282562 0.03003073 0.00382801
v 0.00265051 0.03002489 0.00419997
v 0.00227801 0.03001114 0.00461207
v 0.00210767 0.02996196 0.00495866
v -0.00757586 0.02842600 0.00069179
v -0.00759497 0.02845309 0.00007468
v -0.00760293 0.02846310 -0.00054453
v -0.00789743 0.02787248 -0.01350155
v -0.00359611 0.02870902 0.00650353
v -0.00401637 0.02889242 0.00606818
v -0.00403548 0.02922128 0.00563071
v -0.00425357 0.02936716 0.00526933
v -0.00458627 0.02892284 0.00560535
v -0.00467064 0.02927046 0.00504531
v -0.00490147 0.02937925 0.00466491
v -0.00522463 0.02893952 0.00498402
v -0.00527079 0.02926046 0.00443666
v -0.00573722 0.02893160 0.00440074
v -0.00549047 0.02935966 0.00399286
v -0.00589641 0.02912291 0.00382801
v -0.00629438 0.02888616 0.00366106
v -0.00670669 0.02866984 0.00327220
v -0.00651407 0.02851353 0.00382590
v -0.00692000 0.02846727 0.00310525
v -0.00726863 0.02857105 0.00192810
v -0.00718107 0.02842600 0.00250928
v -0.00733867 0.02867442 0.00130889
v -0.00738165 0.02873486 0.00069179
v -0.00277947 0.02922336 0.00634292
v -0.00312332 0.02941301 0.00596462
v -0.00336051 0.02907665 0.00623302
v -0.00030883 0.02966519 0.00625415
v -0.00092649 0.02988193 0.00563494
v -0.00154415 0.02983983 0.00563494
v -0.00216181 0.02976730 0.00563494
v -0.00277947 0.02965393 0.00563494
v 0.00154414 0.02997946 0.00505588
v 0.00030882 0.02990610 0.00563494
v 0.00092648 0.02999572 0.00511717
v -0.00463403 0.03003448 -0.01350155
v -0.00401637 0.03003990 0.00130889
v 0.00030882 0.03003990 0.00440074
v 0.00092648 0.03003823 0.00440074
v 0.00154414 0.03003323 0.00440074
v 0.00210767 0.03002698 0.00440496
v 0.00186570 0.03001823 0.00471140
v -0.00740076 0.02876195 0.00007468
v -0.00740872 0.02877237 -0.00054453
v -0.00760293 0.02846310 -0.01350155
v -0.00353562 0.02932298 0.00583148
v -0.00384126 0.02945470 0.00541938
v -0.00449076 0.02947137 0.00485722
v -0.00467064 0.02956723 0.00443666
v -0.00507817 0.02946678 0.00425280
v -0.00527079 0.02954098 0.00378575
v -0.00562579 0.02943886 0.00358075
v -0.00605401 0.02931173 0.00316442
v -0.00649496 0.02895994 0.00310525
v -0.00679902 0.02878404 0.00286010
v -0.00686110 0.02884865 0.00254521
v -0.00695980 0.02894827 0.00192810
v -0.00702984 0.02901412 0.00130889
v -0.00707282 0.02905455 0.00069179
v -0.00335733 0.02950763 0.00563071
v -0.00030883 0.02990610 0.00563494
v -0.00092649 0.02999572 0.00511717
v -0.00154415 0.02997946 0.00505588
v -0.00210768 0.02996196 0.00495866
v -0.00277947 0.02987734 0.00501784
v -0.00339871 0.02975605 0.00501784
v 0.00030882 0.03000489 0.00516366
v 0.00154414 0.03002239 0.00474521
v -0.00498584 0.03002364 -0.01350155
v -0.00463403 0.03003448 -0.00054453
v -0.00463403 0.03003406 0.00007468
v -0.00401637 0.03003865 0.00192810
v -0.00339871 0.03003990 0.00254521
v -0.00030883 0.03003990 0.00440074
v 0.00030882 0.03002864 0.00485511
v 0.00092648 0.03002740 0.00480862
v -0.00709193 0.02907123 0.00007468
v -0.00709829 0.02907748 -0.00054453
v -0.00740872 0.02877237 -0.01350155
v -0.00403548 0.02955640 0.00504531
v -0.00401637 0.02979731 0.00440074
v -0.00463403 0.02978814 0.00378152
v -0.00525169 0.02972562 0.00316442
v -0.00574518 0.02950346 0.00316442
v -0.00615430 0.02938384 0.00279881
v -0.00645994 0.02919669 0.00257479
v -0.00661436 0.02925713 0.00192810
v -0.00669395 0.02932340 0.00130889
v -0.00674648 0.02936383 0.00069179
v -0.00676877 0.02938050 0.00007468
v -0.00030883 0.03000489 0.00516366
v -0.00154415 0.03002239 0.00474521
v -0.00186571 0.03001823 0.00471140
v -0.00227802 0.03001114 0.00461207
v -0.00282563 0.02999405 0.00440496
v -0.00339871 0.02992236 0.00440074
v -0.00529467 0.02997988 -0.01350155
v -0.00498584 0.03002364 -0.00054453
v -0.00497947 0.03002281 0.00007468
v -0.00463403 0.03003156 0.00069179
v -0.00447802 0.03002740 0.00192810
v -0.00404503 0.03002990 0.00256845
v -0.00339871 0.03003406 0.00316442
v -0.00277947 0.03003990 0.00316442
v -0.00092649 0.03003823 0.00440074
v -0.00030883 0.03002864 0.00485511
v -0.00216181 0.03003990 0.00378152
v -0.00677832 0.02938675 -0.00054453
v -0.00678787 0.02937800 -0.01350155
v -0.00709829 0.02907748 -0.01350155
v -0.00395429 0.02994945 0.00372023
v -0.00463403 0.02991027 0.00316442
v -0.00525169 0.02984316 0.00254521
v -0.00591710 0.02956223 0.00257479
v -0.00623548 0.02943719 0.00238670
v -0.00630553 0.02948179 0.00192810
v -0.00638512 0.02952722 0.00130889
v -0.00643766 0.02955265 0.00069179
v -0.00645994 0.02956265 0.00007468
v -0.00092649 0.03002740 0.00480862
v -0.00210768 0.03002698 0.00440496
v -0.00265052 0.03002489 0.00419997
v -0.00306282 0.03001656 0.00406471
v -0.00339871 0.02999947 0.00391678
v -0.00531059 0.02997613 -0.01350155
v -0.00529467 0.02997988 -0.00054453
v -0.00528989 0.02997821 0.00007468
v -0.00496355 0.03002073 0.00069179
v -0.00466109 0.03002698 0.00127719
v -0.00494923 0.03001864 0.00105106
v -0.00488396 0.03001489 0.00146316
v -0.00438251 0.03002364 0.00237614
v -0.00381898 0.03002323 0.00316442
v -0.00339871 0.03002323 0.00360823
v -0.00282563 0.03003073 0.00382801
v -0.00154415 0.03003323 0.00440074
v -0.00646949 0.02956640 -0.00054453
v -0.00677036 0.02939176 -0.01350155
v -0.00677832 0.02938675 -0.01350155
v -0.00370754 0.03001781 0.00347297
v -0.00412940 0.02999697 0.00316442
v -0.00460697 0.02998363 0.00256845
v -0.00525169 0.02991569 0.00192810
v -0.00587094 0.02977689 0.00130889
v -0.00587094 0.02970270 0.00192810
v -0.00587094 0.02981607 0.00069179
v -0.00587094 0.02983191 0.00007468
v -0.00587094 0.02983775 -0.01350155
v -0.00587094 0.02983775 -0.00054453
v -0.00527238 0.02997238 0.00069179
v -0.00519438 0.02996862 0.00127719
v -0.00478685 0.03000405 0.00192810
v -0.00426948 0.03001489 0.00278824
v -0.00646949 0.02956640 -0.01350155
f 1 2 6
f 1 6 13
f 1 13 26
f 1 26 44
f 1 44 63
f 1 63 92
f 1 92 122
f 1 122 156
f 1 156 199
f 1 199 246
f 1 246 304
f 1 304 361
f 1 361 417
f 1 417 463
f 1 463 511
f 1 511 552
f 1 552 586
f 1 586 617
f 1 617 616
f 1 616 646
f 1 646 645
f 1 645 661
f 1 661 655
f 1 655 632
f 1 632 604
f 1 604 576
f 1 576 543
f 1 543 502
f 1 502 451
f 1 451 403
f 1 403 402
f 1 402 343
f 1 343 342
f 1 342 287
f 1 287 228
f 1 228 184
f 1 184 140
f 1 140 106
f 1 106 76
f 1 76 73
f 1 73 50
f 1 50 28
f 1 28 14
f 1 14 8
f 1 8 3
f 1 3 4
f 1 4 5
f 1 5 2
f 2 5 7
f 2 7 6
f 3 8 4
f 4 9 10
f 4 10 5
f 4 8 14
f 4 14 9
f 5 10 11
f 5 11 12
f 5 12 7
f 6 7 13
f 7 12 13
f 9 15 16
f 9 16 17
f 9 17 10
f 9 14 28
f 9 28 15
f 10 17 18
f 10 18 19
f 10 19 11
f 11 19 20
f 11 20 21
f 11 21 22
f 11 22 23
f 11 23 12
f 12 24 13
f 12 23 25
f 12 25 24
f 13 24 27
f 13 27 26
f 15 29 30
f 15 30 16
f 15 28 50
f 15 50 29
f 16 30 31
f 16 31 32
f 16 32 17
f 17 32 18
f 18 32 33
f 18 33 34
f 18 34 20
f 18 20 19
f 20 34 35
f 20 35 36
f 20 36 37
f 20 37 38
f 20 38 21
f 21 38 22
f 22 38 37
f 22 37 36
f 22 36 39
f 22 39 40
f 22 40 41
f 22 41 42
f 22 42 23
f 23 42 25
f 24 25 43
f 24 43 27
f 25 42 43
f 26 27 45
f 26 45 46
f 26 46 47
f 26 47 48
f 26 48 44
f 27 43 49
f 27 49 45
f 29 51 30
f 29 50 73
f 29 73 51
f 30 51 52
f 30 52 53
f 30 53 31
f 31 53 54
f 31 54 32
f 32 54 33
f 33 54 55
f 33 55 56
f 33 56 35
f 33 35 34
f 35 56 57
f 35 57 58
f 35 58 39
f 35 39 36
f 39 58 59
f 39 59 40
f 40 59 60
f 40 60 61
f 40 61 62
f 40 62 41
f 41 62 43
f 41 43 42
f 43 62 49
f 44 48 71
f 44 71 63
f 45 49 64
f 45 64 65
f 45 65 46
f 46 65 66
f 46 66 47
f 47 66 67
f 47 67 68
f 47 68 69
f 47 69 48
f 48 69 70
f 48 70 101
f 48 101 71
f 49 62 72
f 49 72 64
f 51 74 75
f 51 75 52
f 51 73 76
f 51 76 74
f 52 75 77
f 52 77 53
f 53 77 78
f 53 78 79
f 53 79 54
f 54 79 55
f 55 80 81
f 55 81 56
f 55 79 80
f 56 81 57
f 57 82 83
f 57 83 58
f 57 81 82
f 58 83 84
f 58 84 59
f 59 84 85
f 59 85 60
f 60 85 86
f 60 86 87
f 60 87 61
f 61 87 88
f 61 88 89
f 61 89 90
f 61 90 91
f 61 91 72
f 61 72 62
f 63 71 92
f 64 93 65
f 64 72 91
f 64 91 93
f 65 93 94
f 65 94 95
f 65 95 66
f 66 95 67
f 67 96 97
f 67 97 98
f 67 98 68
f 67 95 96
f 68 98 99
f 68 99 100
f 68 100 69
f 69 100 70
f 70 100 102
f 70 102 133
f 70 133 101
f 71 101 103
f 71 103 104
f 71 104 92
f 74 105 75
f 74 76 106
f 74 106 105
f 75 105 107
f 75 107 77
f 77 107 108
f 77 108 78
f 78 109 110
f 78 110 79
f 78 108 109
f 79 110 80
f 80 110 111
f 80 111 112
f 80 112 81
f 81 112 113
f 81 113 114
f 81 114 82
f 82 114 115
f 82 115 83
f 83 115 116
f 83 116 117
f 83 117 85
f 83 85 84
f 85 117 86
f 86 117 118
f 86 118 88
f 86 88 87
f 88 119 89
f 88 118 119
f 89 119 120
f 89 120 90
f 90 121 91
f 90 120 121
f 91 121 93
f 92 104 123
f 92 123 124
f 92 124 122
f 93 121 125
f 93 125 126
f 93 126 94
f 94 127 128
f 94 128 95
f 94 126 127
f 95 128 96
f 96 128 97
f 97 129 98
f 97 128 130
f 97 130 129
f 98 129 99
f 99 129 131
f 99 131 100
f 100 131 102
f 101 132 103
f 101 133 132
f 102 131 134
f 102 134 175
f 102 175 133
f 103 132 135
f 103 135 104
f 104 135 136
f 104 136 137
f 104 137 123
f 105 138 139
f 105 139 107
f 105 106 140
f 105 140 184
f 105 184 138
f 107 139 141
f 107 141 108
f 108 141 142
f 108 142 109
f 109 142 143
f 109 143 144
f 109 144 110
f 110 144 111
f 111 145 146
f 111 146 112
f 111 144 145
f 112 146 113
f 113 146 147
f 113 147 114
f 114 147 148
f 114 148 149
f 114 149 150
f 114 150 151
f 114 151 116
f 114 116 115
f 116 151 117
f 117 151 152
f 117 152 153
f 117 153 119
f 117 119 118
f 119 153 120
f 120 153 154
f 120 154 121
f 121 154 155
f 121 155 125
f 122 124 157
f 122 157 156
f 123 137 158
f 123 158 124
f 124 158 159
f 124 159 160
f 124 160 157
f 125 155 126
f 126 161 162
f 126 162 127
f 126 155 161
f 127 162 163
f 127 163 128
f 128 163 130
f 129 164 165
f 129 165 166
f 129 166 131
f 129 130 164
f 130 163 167
f 130 167 168
f 130 168 169
f 130 169 170
f 130 170 171
f 130 171 164
f 131 166 172
f 131 172 134
f 132 133 173
f 132 173 174
f 132 174 135
f 133 175 173
f 134 172 176
f 134 176 177
f 134 177 220
f 134 220 175
f 135 178 136
f 135 174 178
f 136 178 179
f 136 179 180
f 136 180 181
f 136 181 137
f 137 181 158
f 138 182 183
f 138 183 139
f 138 184 228
f 138 228 182
f 139 183 185
f 139 185 141
f 141 185 186
f 141 186 142
f 142 186 187
f 142 187 143
f 143 187 188
f 143 188 144
f 144 188 145
f 145 188 189
f 145 189 146
f 146 189 190
f 146 190 191
f 146 191 147
f 147 191 192
f 147 192 148
f 148 192 149
f 149 192 150
f 150 192 193
f 150 193 194
f 150 194 195
f 150 195 196
f 150 196 197
f 150 197 153
f 150 153 152
f 150 152 151
f 153 197 154
f 154 197 198
f 154 198 155
f 155 198 161
f 156 157 199
f 157 160 200
f 157 200 201
f 157 201 199
f 158 181 202
f 158 202 203
f 158 203 159
f 159 203 204
f 159 204 205
f 159 205 160
f 160 205 206
f 160 206 200
f 161 207 208
f 161 208 162
f 161 198 207
f 162 208 209
f 162 209 163
f 163 209 167
f 164 210 211
f 164 211 165
f 164 171 212
f 164 212 210
f 165 211 166
f 166 213 172
f 166 211 213
f 167 209 214
f 167 214 215
f 167 215 168
f 168 215 169
f 169 215 170
f 170 212 171
f 170 215 212
f 172 213 216
f 172 216 176
f 173 175 217
f 173 217 218
f 173 218 219
f 173 219 174
f 174 219 178
f 175 220 221
f 175 221 217
f 176 216 222
f 176 222 223
f 176 223 177
f 177 223 274
f 177 274 220
f 178 219 179
f 179 219 224
f 179 224 225
f 179 225 180
f 180 225 181
f 181 225 202
f 182 226 227
f 182 227 183
f 182 228 287
f 182 287 226
f 183 227 229
f 183 229 185
f 185 229 230
f 185 230 231
f 185 231 186
f 186 231 232
f 186 232 187
f 187 232 233
f 187 233 188
f 188 233 189
f 189 234 235
f 189 235 236
f 189 236 190
f 189 233 234
f 190 236 191
f 191 237 192
f 191 236 237
f 192 237 238
f 192 238 239
f 192 239 194
f 192 194 193
f 194 239 240
f 194 240 241
f 194 241 242
f 194 242 243
f 194 243 195
f 195 243 196
f 196 243 242
f 196 242 244
f 196 244 245
f 196 245 207
f 196 207 198
f 196 198 197
f 199 201 247
f 199 247 248
f 199 248 246
f 200 206 249
f 200 249 250
f 200 250 251
f 200 251 201
f 201 251 247
f 202 225 252
f 202 252 253
f 202 253 203
f 203 253 254
f 203 254 255
f 203 255 204
f 204 256 205
f 204 255 257
f 204 257 256
f 205 256 206
f 206 256 258
f 206 258 249
f 207 245 208
f 208 245 259
f 208 259 260
f 208 260 209
f 209 260 214
f 210 261 211
f 210 212 262
f 210 262 261
f 211 261 213
f 212 215 263
f 212 263 264
f 212 264 265
f 212 265 266
f 212 266 262
f 213 261 216
f 214 260 264
f 214 264 267
f 214 267 215
f 215 267 264
f 215 264 263
f 216 261 262
f 216 262 268
f 216 268 222
f 217 269 218
f 217 221 270
f 217 270 269
f 218 269 271
f 218 271 272
f 218 272 219
f 219 272 273
f 219 273 224
f 220 274 221
f 221 274 275
f 221 275 270
f 222 268 276
f 222 276 277
f 222 277 223
f 223 277 278
f 223 278 330
f 223 330 274
f 224 279 280
f 224 280 281
f 224 281 282
f 224 282 225
f 224 273 283
f 224 283 284
f 224 284 279
f 225 282 252
f 226 285 286
f 226 286 227
f 226 287 342
f 226 342 285
f 227 286 288
f 227 288 289
f 227 289 229
f 229 289 230
f 230 289 290
f 230 290 291
f 230 291 231
f 231 291 292
f 231 292 293
f 231 293 232
f 232 293 294
f 232 294 233
f 233 294 234
f 234 294 295
f 234 295 235
f 235 295 238
f 235 238 236
f 236 238 237
f 238 295 296
f 238 296 297
f 238 297 240
f 238 240 239
f 240 297 241
f 241 297 242
f 242 298 299
f 242 299 300
f 242 300 244
f 242 297 301
f 242 301 298
f 244 300 245
f 245 300 299
f 245 299 302
f 245 302 303
f 245 303 259
f 246 248 305
f 246 305 304
f 247 251 306
f 247 306 307
f 247 307 305
f 247 305 248
f 249 258 308
f 249 308 250
f 250 308 306
f 250 306 251
f 252 282 309
f 252 309 253
f 253 309 310
f 253 310 311
f 253 311 254
f 254 311 255
f 255 311 312
f 255 312 313
f 255 313 257
f 256 314 315
f 256 315 316
f 256 316 258
f 256 257 317
f 256 317 314
f 257 313 317
f 258 318 319
f 258 319 308
f 258 316 318
f 259 303 260
f 260 303 320
f 260 320 264
f 262 266 321
f 262 321 322
f 262 322 268
f 264 320 323
f 264 323 265
f 265 323 324
f 265 324 266
f 266 324 321
f 268 322 276
f 269 270 325
f 269 325 271
f 270 275 326
f 270 326 327
f 270 327 325
f 271 325 328
f 271 328 273
f 271 273 272
f 273 328 329
f 273 329 283
f 274 330 331
f 274 331 275
f 275 331 332
f 275 332 326
f 276 322 333
f 276 333 334
f 276 334 277
f 277 334 335
f 277 335 278
f 278 335 336
f 278 336 390
f 278 390 330
f 279 284 337
f 279 337 280
f 280 337 281
f 281 337 338
f 281 338 339
f 281 339 282
f 282 339 309
f 283 329 284
f 284 329 337
f 285 340 341
f 285 341 286
f 285 342 343
f 285 343 340
f 286 341 344
f 286 344 288
f 288 344 345
f 288 345 289
f 289 345 346
f 289 346 290
f 290 346 347
f 290 347 291
f 291 347 348
f 291 348 292
f 292 348 349
f 292 349 293
f 293 349 350
f 293 350 351
f 293 351 294
f 294 351 295
f 295 351 352
f 295 352 296
f 296 352 297
f 297 352 353
f 297 353 354
f 297 354 301
f 298 301 354
f 298 354 299
f 299 355 356
f 299 356 357
f 299 357 302
f 299 354 358
f 299 358 355
f 302 357 303
f 303 359 320
f 303 357 359
f 304 305 360
f 304 360 361
f 305 307 362
f 305 362 360
f 306 308 307
f 307 308 363
f 307 363 364
f 307 364 365
f 307 365 362
f 308 319 366
f 308 366 367
f 308 367 368
f 308 368 363
f 309 339 369
f 309 369 310
f 310 369 370
f 310 370 371
f 310 371 311
f 311 371 312
f 312 371 372
f 312 372 373
f 312 373 313
f 313 373 374
f 313 374 317
f 314 317 374
f 314 374 375
f 314 375 376
f 314 376 315
f 315 376 316
f 316 376 377
f 316 377 318
f 318 377 378
f 318 378 379
f 318 379 319
f 319 379 380
f 319 380 366
f 320 359 323
f 321 324 381
f 321 381 382
f 321 382 322
f 322 382 333
f 323 359 324
f 324 359 383
f 324 383 381
f 325 327 328
f 326 332 384
f 326 384 327
f 327 329 328
f 327 384 385
f 327 385 386
f 327 386 329
f 329 386 387
f 329 387 388
f 329 388 389
f 329 389 337
f 330 390 391
f 330 391 331
f 331 391 392
f 331 392 332
f 332 392 393
f 332 393 384
f 333 382 394
f 333 394 395
f 333 395 334
f 334 395 396
f 334 396 397
f 334 397 335
f 335 397 398
f 335 398 336
f 336 398 437
f 336 437 390
f 337 388 399
f 337 399 338
f 337 389 388
f 338 399 388
f 338 388 400
f 338 400 339
f 339 400 369
f 340 401 341
f 340 343 402
f 340 402 403
f 340 403 401
f 341 401 404
f 341 404 344
f 344 404 346
f 344 346 345
f 346 404 405
f 346 405 347
f 347 405 406
f 347 406 348
f 348 406 407
f 348 407 349
f 349 407 350
f 350 407 408
f 350 408 409
f 350 409 410
f 350 410 351
f 351 410 352
f 352 410 411
f 352 411 353
f 353 411 412
f 353 412 354
f 354 412 413
f 354 413 358
f 355 358 413
f 355 413 414
f 355 414 415
f 355 415 356
f 356 415 383
f 356 383 359
f 356 359 357
f 360 362 416
f 360 416 417
f 360 417 361
f 362 365 418
f 362 418 419
f 362 419 416
f 363 368 364
f 364 418 365
f 364 368 367
f 364 367 366
f 364 366 380
f 364 380 420
f 364 420 418
f 369 421 370
f 369 400 422
f 369 422 421
f 370 421 423
f 370 423 371
f 371 423 372
f 372 423 424
f 372 424 373
f 373 424 425
f 373 425 426
f 373 426 374
f 374 426 375
f 375 426 376
f 376 426 377
f 377 427 378
f 377 426 427
f 378 427 379
f 379 428 380
f 379 427 428
f 380 429 430
f 380 430 420
f 380 428 429
f 381 383 415
f 381 415 382
f 382 415 431
f 382 431 394
f 384 393 432
f 384 432 385
f 385 432 433
f 385 433 434
f 385 434 386
f 386 434 387
f 387 434 435
f 387 435 388
f 388 435 436
f 388 436 400
f 390 437 438
f 390 438 391
f 391 438 392
f 392 438 439
f 392 439 440
f 392 440 393
f 393 440 441
f 393 441 432
f 394 431 442
f 394 442 395
f 395 442 443
f 395 443 444
f 395 444 445
f 395 445 396
f 396 446 397
f 396 445 447
f 396 447 446
f 397 446 398
f 398 446 448
f 398 448 488
f 398 488 437
f 400 436 449
f 400 449 422
f 401 450 404
f 401 403 451
f 401 451 502
f 401 502 544
f 401 544 580
f 401 580 611
f 401 611 614
f 401 614 581
f 401 581 545
f 401 545 503
f 401 503 501
f 401 501 450
f 404 450 452
f 404 452 405
f 405 452 406
f 406 452 453
f 406 453 407
f 407 453 454
f 407 454 408
f 408 454 455
f 408 455 409
f 409 455 456
f 409 456 457
f 409 457 410
f 410 457 411
f 411 457 412
f 412 457 458
f 412 458 459
f 412 459 413
f 413 459 414
f 414 459 415
f 415 459 460
f 415 460 431
f 416 419 461
f 416 461 462
f 416 462 463
f 416 463 417
f 418 420 430
f 418 430 464
f 418 464 419
f 419 464 461
f 421 465 466
f 421 466 467
f 421 467 468
f 421 468 423
f 421 422 449
f 421 449 465
f 423 468 469
f 423 469 470
f 423 470 471
f 423 471 424
f 424 471 472
f 424 472 473
f 424 473 474
f 424 474 475
f 424 475 476
f 424 476 477
f 424 477 425
f 425 477 426
f 426 477 478
f 426 478 427
f 427 478 479
f 427 479 480
f 427 480 428
f 428 480 481
f 428 481 429
f 429 481 482
f 429 482 430
f 430 482 483
f 430 483 464
f 431 460 442
f 432 441 484
f 432 484 485
f 432 485 433
f 433 485 486
f 433 486 434
f 434 486 487
f 434 487 435
f 435 487 436
f 436 487 449
f 437 488 489
f 437 489 438
f 438 489 439
f 439 489 490
f 439 490 491
f 439 491 440
f 440 491 492
f 440 492 493
f 440 493 494
f 440 494 441
f 441 494 484
f 442 460 459
f 442 459 443
f 443 459 495
f 443 495 444
f 444 495 496
f 444 496 445
f 445 496 497
f 445 497 447
f 446 447 448
f 447 498 448
f 447 497 499
f 447 499 498
f 448 498 535
f 448 535 488
f 449 487 500
f 449 500 465
f 450 501 452
f 452 501 503
f 452 503 504
f 452 504 453
f 453 504 505
f 453 505 454
f 454 505 506
f 454 506 455
f 455 506 507
f 455 507 456
f 456 507 497
f 456 497 496
f 456 496 495
f 456 495 457
f 457 495 458
f 458 495 459
f 461 464 508
f 461 508 509
f 461 509 462
f 462 509 510
f 462 510 511
f 462 511 463
f 464 483 508
f 465 500 466
f 466 500 512
f 466 512 513
f 466 513 514
f 466 514 515
f 466 515 516
f 466 516 469
f 466 469 467
f 467 469 468
f 469 516 517
f 469 517 518
f 469 518 519
f 469 519 472
f 469 472 470
f 470 472 471
f 472 520 521
f 472 521 474
f 472 474 473
f 472 519 520
f 474 522 523
f 474 523 524
f 474 524 525
f 474 525 526
f 474 526 475
f 474 521 522
f 475 526 476
f 476 480 479
f 476 479 478
f 476 478 477
f 476 526 525
f 476 525 527
f 476 527 481
f 476 481 480
f 481 528 482
f 481 527 529
f 481 529 528
f 482 528 530
f 482 530 483
f 483 530 531
f 483 531 508
f 484 494 532
f 484 532 485
f 485 512 486
f 485 532 533
f 485 533 534
f 485 534 513
f 485 513 512
f 486 512 487
f 487 512 500
f 488 535 490
f 488 490 489
f 490 535 536
f 490 536 537
f 490 537 491
f 491 537 538
f 491 538 492
f 492 538 539
f 492 539 493
f 493 539 533
f 493 533 494
f 494 533 532
f 497 507 540
f 497 540 499
f 498 499 541
f 498 541 568
f 498 568 535
f 499 540 542
f 499 542 541
f 502 543 577
f 502 577 544
f 503 545 546
f 503 546 547
f 503 547 548
f 503 548 505
f 503 505 504
f 505 548 549
f 505 549 506
f 506 549 540
f 506 540 507
f 508 531 550
f 508 550 509
f 509 550 551
f 509 551 510
f 510 551 586
f 510 586 552
f 510 552 511
f 513 534 553
f 513 553 514
f 514 553 515
f 515 517 516
f 515 553 554
f 515 554 555
f 515 555 518
f 515 518 517
f 518 555 556
f 518 556 557
f 518 557 522
f 518 522 520
f 518 520 519
f 520 522 521
f 522 558 559
f 522 559 560
f 522 560 523
f 522 557 558
f 523 560 524
f 524 560 561
f 524 561 562
f 524 562 525
f 525 562 527
f 527 562 529
f 528 529 563
f 528 563 564
f 528 564 530
f 529 562 563
f 530 564 565
f 530 565 531
f 531 566 550
f 531 565 566
f 533 553 534
f 533 539 567
f 533 567 554
f 533 554 553
f 535 568 536
f 536 568 569
f 536 569 570
f 536 570 537
f 537 570 571
f 537 571 572
f 537 572 538
f 538 572 539
f 539 572 573
f 539 573 567
f 540 549 542
f 541 542 574
f 541 574 598
f 541 598 568
f 542 549 575
f 542 575 574
f 543 576 605
f 543 605 577
f 544 577 578
f 544 578 579
f 544 579 580
f 545 581 613
f 545 613 582
f 545 582 546
f 546 582 583
f 546 583 547
f 547 583 548
f 548 583 575
f 548 575 549
f 550 566 584
f 550 584 551
f 551 584 585
f 551 585 617
f 551 617 586
f 554 567 573
f 554 573 587
f 554 587 555
f 555 587 556
f 556 587 588
f 556 588 589
f 556 589 558
f 556 558 557
f 558 589 590
f 558 590 591
f 558 591 559
f 559 591 592
f 559 592 560
f 560 592 561
f 561 592 562
f 562 592 593
f 562 593 563
f 563 593 594
f 563 594 564
f 564 594 595
f 564 595 565
f 565 595 596
f 565 596 566
f 566 596 597
f 566 597 584
f 568 598 569
f 569 598 599
f 569 599 600
f 569 600 570
f 570 600 601
f 570 601 571
f 571 601 602
f 571 602 572
f 572 602 603
f 572 603 573
f 573 603 588
f 573 588 587
f 574 575 583
f 574 583 582
f 574 582 613
f 574 613 598
f 576 604 633
f 576 633 605
f 577 605 578
f 578 606 607
f 578 607 579
f 578 605 606
f 579 607 608
f 579 608 609
f 579 609 610
f 579 610 580
f 580 610 611
f 581 612 613
f 581 614 612
f 584 597 615
f 584 615 585
f 585 615 616
f 585 616 617
f 588 603 618
f 588 618 589
f 589 618 619
f 589 619 590
f 590 619 620
f 590 620 621
f 590 621 591
f 591 621 592
f 592 621 622
f 592 622 593
f 593 622 594
f 594 623 595
f 594 622 623
f 595 623 624
f 595 624 596
f 596 625 597
f 596 624 625
f 597 625 626
f 597 626 615
f 598 613 627
f 598 627 599
f 599 627 628
f 599 628 600
f 600 628 629
f 600 629 601
f 601 629 630
f 601 630 602
f 602 630 631
f 602 631 603
f 603 631 618
f 604 632 633
f 605 633 606
f 606 634 635
f 606 635 607
f 606 633 634
f 607 635 636
f 607 636 608
f 608 636 637
f 608 637 638
f 608 638 639
f 608 639 609
f 609 639 640
f 609 640 610
f 610 640 641
f 610 641 642
f 610 642 614
f 610 614 611
f 612 643 627
f 612 627 613
f 612 614 643
f 614 642 629
f 614 629 628
f 614 628 643
f 615 626 644
f 615 644 645
f 615 645 646
f 615 646 616
f 618 647 648
f 618 648 619
f 618 631 647
f 619 648 649
f 619 649 650
f 619 650 620
f 620 650 651
f 620 651 652
f 620 652 621
f 621 652 622
f 622 652 623
f 623 652 624
f 624 652 651
f 624 651 625
f 625 653 626
f 625 651 653
f 626 653 654
f 626 654 644
f 627 643 628
f 629 642 641
f 629 641 630
f 630 641 647
f 630 647 631
f 632 655 656
f 632 656 633
f 633 656 634
f 634 654 657
f 634 657 637
f 634 637 635
f 634 656 654
f 635 637 636
f 637 658 638
f 637 657 658
f 638 658 659
f 638 659 639
f 639 660 640
f 639 659 660
f 640 660 647
f 640 647 641
f 644 654 656
f 644 656 655
f 644 655 661
f 644 661 645
f 647 660 648
f 648 660 649
f 649 660 659
f 649 659 650
f 650 659 658
f 650 658 653
f 650 653 651
f 653 657 654
f 653 658 657

