# https://github.com/mikedh/trimesh
v 0.01033990 0.00090905 -0.01970152
v 0.01033220 0.00090905 -0.01933075
v 0.01033990 -0.00037109 -0.01970152
v 0.01033990 0.00090905 -0.03823992
v 0.01032643 0.00090905 -0.01908449
v 0.01033124 -0.00037109 -0.01928648
v 0.01033990 -0.00037109 -0.02423097
v 0.01033990 0.00066290 -0.03823992
v 0.01033316 0.00090905 -0.03885694
v 0.01025137 0.00090905 -0.01846747
v 0.01027639 -0.00037109 -0.01866945
v 0.01032643 -0.00037109 -0.01908449
v 0.01032450 -0.00037109 -0.02484800
v 0.01033316 0.00066290 -0.03885694
v 0.01019845 0.00090905 -0.03947674
v 0.01013398 0.00090905 -0.01809393
v 0.01025137 -0.00037109 -0.01846747
v 0.01014841 -0.00037109 -0.02603224
v 0.00957875 -0.00013422 -0.03885694
v 0.01010992 0.00011269 -0.03885694
v 0.01004256 0.00015906 -0.03947674
v 0.01019845 0.00066290 -0.03947674
v 0.00997905 0.00090905 -0.03988347
v 0.01005603 0.00090905 -0.01784768
v 0.01005603 -0.00037109 -0.01784768
v 0.01007239 -0.00037109 -0.02653582
v 0.00896098 -0.00013986 -0.03947674
v 0.00957875 -0.00008784 -0.03947674
v 0.01003486 -0.00037109 -0.02671014
v 0.00994826 0.00025431 -0.03985027
v 0.00997905 0.00066290 -0.03988347
v 0.00957875 0.00090905 -0.04014356
v 0.00990592 0.00090905 -0.01751011
v 0.00808629 -0.00007807 -0.01205650
v 0.00809206 -0.00018134 -0.01205650
v 0.00809591 -0.00025591 -0.01205650
v 0.00810168 -0.00037109 -0.01205650
v 0.00834225 -0.00013635 -0.03947674
v 0.00896098 0.00010717 -0.04005226
v 0.00958837 -0.00037109 -0.02711688
v 0.00957875 -0.00037109 -0.02712241
v 0.00896098 -0.00037109 -0.02712518
v 0.00051041 -0.00037109 -0.02712518
v 0.00957875 0.00015580 -0.03996371
v 0.00957875 0.00066290 -0.04014356
v 0.00933241 0.00090905 -0.04021550
v 0.00800738 0.00090905 -0.01451076
v 0.00771870 0.00024228 -0.01205650
v 0.00051041 -0.00037109 -0.01205650
v 0.00051041 -0.00013986 -0.03329542
v 0.00051041 -0.00004410 -0.03391245
v 0.00772448 -0.00000500 -0.03947674
v 0.00834225 0.00011068 -0.04003842
v 0.00896098 0.00066290 -0.04032065
v 0.00896098 0.00090905 -0.04032341
v 0.00793233 0.00090905 -0.01440009
v 0.00750604 0.00028677 -0.01205650
v 0.00051041 0.00034681 -0.01205650
v 0.00051041 0.00020280 -0.03430258
v 0.00772448 0.00022611 -0.03990561
v 0.00834225 0.00066290 -0.04029574
v 0.00834225 0.00090905 -0.04029574
v 0.00776104 0.00090905 -0.01432261
v 0.00710671 0.00034681 -0.01205650
v 0.00051041 0.00090905 -0.01417043
v 0.00051041 0.00066290 -0.03438006
v 0.00741078 0.00034330 -0.03978940
v 0.00772448 0.00066290 -0.04002735
v 0.00772448 0.00090905 -0.04002735
v 0.00766963 0.00090905 -0.01428664
v 0.00729146 0.00090905 -0.01419533
v 0.00710671 0.00090905 -0.01417320
v 0.00670159 0.00090905 -0.01417043
v 0.00051041 0.00090905 -0.03438006
v 0.00740789 0.00066290 -0.03979216
v 0.00759842 0.00090905 -0.03993604
v 0.00740789 0.00090905 -0.03979216
f 1 2 3
f 1 3 7
f 1 7 8
f 1 8 4
f 1 4 9
f 1 9 15
f 1 15 23
f 1 23 32
f 1 32 46
f 1 46 55
f 1 55 62
f 1 62 69
f 1 69 76
f 1 76 77
f 1 77 74
f 1 74 65
f 1 65 73
f 1 73 72
f 1 72 71
f 1 71 70
f 1 70 63
f 1 63 56
f 1 56 47
f 1 47 33
f 1 33 24
f 1 24 16
f 1 16 10
f 1 10 5
f 1 5 2
f 2 5 6
f 2 6 3
f 3 6 12
f 3 12 11
f 3 11 17
f 3 17 25
f 3 25 37
f 3 37 49
f 3 49 43
f 3 43 42
f 3 42 41
f 3 41 40
f 3 40 29
f 3 29 26
f 3 26 18
f 3 18 13
f 3 13 7
f 4 8 14
f 4 14 9
f 5 10 11
f 5 11 12
f 5 12 6
f 7 13 14
f 7 14 8
f 9 14 22
f 9 22 15
f 10 16 17
f 10 17 11
f 13 18 19
f 13 19 20
f 13 20 14
f 14 20 21
f 14 21 22
f 15 22 31
f 15 31 23
f 16 24 25
f 16 25 17
f 18 26 19
f 19 27 28
f 19 28 20
f 19 26 29
f 19 29 27
f 20 28 21
f 21 28 30
f 21 30 22
f 22 30 31
f 23 31 45
f 23 45 32
f 24 33 34
f 24 34 35
f 24 35 36
f 24 36 37
f 24 37 25
f 27 38 39
f 27 39 28
f 27 29 40
f 27 40 41
f 27 41 42
f 27 42 43
f 27 43 38
f 28 39 44
f 28 44 30
f 30 44 45
f 30 45 31
f 32 45 46
f 33 47 48
f 33 48 34
f 34 48 57
f 34 57 64
f 34 64 58
f 34 58 49
f 34 49 37
f 34 37 36
f 34 36 35
f 38 50 51
f 38 51 52
f 38 52 53
f 38 53 39
f 38 43 50
f 39 53 54
f 39 54 44
f 43 49 58
f 43 58 65
f 43 65 74
f 43 74 66
f 43 66 59
f 43 59 51
f 43 51 50
f 44 54 45
f 45 54 55
f 45 55 46
f 47 56 48
f 48 56 57
f 51 59 60
f 51 60 52
f 52 60 53
f 53 60 61
f 53 61 54
f 54 61 55
f 55 61 62
f 56 63 64
f 56 64 57
f 58 64 73
f 58 73 65
f 59 66 67
f 59 67 60
f 60 67 68
f 60 68 61
f 61 68 69
f 61 69 62
f 63 70 64
f 64 70 71
f 64 71 72
f 64 72 73
f 66 74 77
f 66 77 75
f 66 75 67
f 67 75 68
f 68 75 76
f 68 76 69
f 75 77 76

