# https://github.com/mikedh/trimesh
v -0.00834196 0.01644375 -0.05433990
v -0.00895936 0.01644375 -0.05426428
v -0.00834196 0.02538222 -0.05433990
v 0.00834196 0.01644375 -0.05433990
v -0.00918203 0.01644375 -0.05417284
v -0.00895936 0.02538222 -0.05426428
v -0.00895936 0.02590963 -0.05413239
v -0.00834196 0.02597629 -0.05416932
v 0.00834196 0.02538222 -0.05433990
v 0.00862940 0.01644375 -0.05430473
v -0.00937433 0.02538222 -0.05409370
v -0.00937433 0.01644375 -0.05409370
v -0.00933992 0.02579199 -0.05406205
v -0.00895936 0.02621842 -0.05379298
v -0.00834196 0.02628509 -0.05384750
v 0.00834196 0.02597629 -0.05416932
v 0.00895936 0.02590963 -0.05413239
v 0.00895936 0.02538222 -0.05426428
v 0.00895936 0.01644375 -0.05426428
v -0.00968404 0.02538222 -0.05379474
v -0.00968404 0.01644375 -0.05379474
v -0.00995529 0.02579199 -0.05345182
v -0.00952615 0.02599785 -0.05363823
v -0.00930146 0.02631940 -0.05341489
v -0.00895936 0.02632430 -0.05348523
v -0.00834196 0.02632430 -0.05353799
v 0.00834196 0.02628509 -0.05384750
v 0.00895936 0.02621842 -0.05379298
v 0.00933992 0.02579199 -0.05406205
v 0.00937433 0.02538222 -0.05409370
v 0.00915369 0.01644375 -0.05418515
v -0.00984801 0.01644375 -0.05363120
v -0.00999173 0.02538222 -0.05348699
v -0.01021642 0.02538222 -0.05307197
v -0.01002412 0.02599884 -0.05302273
v -0.00989659 0.02631547 -0.05278356
v -0.00971440 0.02620470 -0.05319683
v -0.00895936 0.02633900 -0.05307197
v -0.00953627 0.02632528 -0.05302273
v 0.00834196 0.02632430 -0.05353799
v 0.00895936 0.02632430 -0.05348523
v 0.00930146 0.02631940 -0.05341489
v 0.00952615 0.02599785 -0.05363823
v 0.00995529 0.02579199 -0.05345182
v 0.00968404 0.02538222 -0.05379474
v 0.00937433 0.01644375 -0.05409370
v -0.00999173 0.01644375 -0.05348699
v -0.01021642 0.01644375 -0.05307197
v -0.01033990 0.02538222 -0.05245471
v -0.01012735 0.02600079 -0.05245471
v -0.00990064 0.02631842 -0.05245471
v -0.00957878 0.02633312 -0.05245471
v -0.00381775 0.02645762 -0.04565957
v -0.00354245 0.02645762 -0.04627331
v -0.00317606 0.02645762 -0.04688178
v -0.00276918 0.02645762 -0.04731439
v -0.00257283 0.02645762 -0.04749552
v -0.00214571 0.02645762 -0.04787362
v -0.00092509 0.02645762 -0.04841526
v -0.00030364 0.02645762 -0.04852253
v 0.00895936 0.02633900 -0.05307197
v 0.00953627 0.02632528 -0.05302273
v 0.00989659 0.02631547 -0.05278356
v 0.00971441 0.02620470 -0.05319683
v 0.01002412 0.02599884 -0.05302273
v 0.01021642 0.02538222 -0.05307197
v 0.00999173 0.02538222 -0.05348699
v 0.00968404 0.01644375 -0.05379474
v -0.01033990 0.01644375 -0.05245471
v -0.01033990 0.02538222 -0.04133171
v -0.01012735 0.02600079 -0.04133171
v -0.00990064 0.02631842 -0.04133171
v -0.00957878 0.02633312 -0.04133171
v -0.00391694 0.02645762 -0.04442153
v -0.00388860 0.02645762 -0.04504055
v 0.00030364 0.02645762 -0.04852253
v 0.00071456 0.02645762 -0.04852077
v 0.00121253 0.02645762 -0.04841350
v 0.00250400 0.02645762 -0.04785075
v 0.00313557 0.02645762 -0.04724756
v 0.00379750 0.02645762 -0.04607108
v 0.00957878 0.02633312 -0.05245471
v 0.00990064 0.02631842 -0.05245471
v 0.01012735 0.02600079 -0.05245471
v 0.01033990 0.02538222 -0.05245471
v 0.01021642 0.01644375 -0.05307197
v 0.01009699 0.01644375 -0.05329355
v 0.00999173 0.01644375 -0.05348699
v -0.01033990 0.01644375 -0.04133171
v -0.01031156 0.01644964 -0.03637604
v -0.01023869 0.01796716 -0.03637604
v -0.01011318 0.02538222 -0.04071797
v -0.01000590 0.02600079 -0.04086041
v -0.00989659 0.02631547 -0.04100989
v -0.00525294 0.02634292 -0.03637604
v -0.00325500 0.02645762 -0.04208438
v -0.00377726 0.02645762 -0.04279661
v -0.00384001 0.02645762 -0.04339100
v -0.00389062 0.02645762 -0.04396078
v 0.00385216 0.02645762 -0.04546261
v 0.00388860 0.02645762 -0.04504055
v 0.00389872 0.02645762 -0.04489459
v 0.00391694 0.02645762 -0.04442153
v 0.00957878 0.02633312 -0.04133171
v 0.00990064 0.02631842 -0.04133171
v 0.01012735 0.02600079 -0.04133171
v 0.01033990 0.02538222 -0.04133171
v 0.01033990 0.01644375 -0.05245471
v -0.01031156 0.01644375 -0.03637604
v -0.01006258 0.01849162 -0.03637604
v -0.00625900 0.02585179 -0.03637604
v -0.00592297 0.02616059 -0.03637604
v -0.00561326 0.02632430 -0.03637604
v -0.00463352 0.02634684 -0.03637604
v -0.00054655 0.02645762 -0.04047528
v -0.00197365 0.02645762 -0.04091493
v -0.00265582 0.02645762 -0.04146009
v -0.00298375 0.02645762 -0.04174498
v 0.00387240 0.02645762 -0.04380427
v 0.00989659 0.02631547 -0.04100989
v 0.00379143 0.02645762 -0.04319053
v 0.00300602 0.02645762 -0.04195073
v 0.00523878 0.02634488 -0.03637604
v 0.01000590 0.02600079 -0.04086041
v 0.01033990 0.01644375 -0.04104330
v 0.01011318 0.02538222 -0.04071797
v 0.01023869 0.01796716 -0.03637604
v 0.01031156 0.01644375 -0.03637604
v 0.00463352 0.02634684 -0.03637604
v 0.00030769 0.02645762 -0.04047528
v 0.00560517 0.02632724 -0.03637604
v 0.00561326 0.02632430 -0.03637604
v 0.00561934 0.02632136 -0.03637604
v 0.00592297 0.02616059 -0.03637604
v 0.00625293 0.02585865 -0.03637604
v 0.00625900 0.02585179 -0.03637604
v 0.00277930 0.02645762 -0.04171684
v 0.00216191 0.02645762 -0.04121389
v 0.00155058 0.02645762 -0.04086745
v 0.01006258 0.01849162 -0.03637604
v 0.01006663 0.01848084 -0.03637604
f 1 2 6
f 1 6 3
f 1 3 9
f 1 9 4
f 1 4 10
f 1 10 19
f 1 19 31
f 1 31 46
f 1 46 68
f 1 68 88
f 1 88 87
f 1 87 86
f 1 86 108
f 1 108 125
f 1 125 128
f 1 128 109
f 1 109 89
f 1 89 69
f 1 69 48
f 1 48 47
f 1 47 32
f 1 32 21
f 1 21 12
f 1 12 5
f 1 5 2
f 2 5 6
f 3 6 7
f 3 7 8
f 3 8 16
f 3 16 9
f 4 9 10
f 5 11 6
f 5 12 11
f 6 11 13
f 6 13 7
f 7 14 15
f 7 15 8
f 7 13 14
f 8 15 27
f 8 27 16
f 9 16 17
f 9 17 18
f 9 18 10
f 10 18 19
f 11 12 21
f 11 21 20
f 11 20 13
f 13 20 22
f 13 22 23
f 13 23 24
f 13 24 14
f 14 24 15
f 15 24 25
f 15 25 26
f 15 26 40
f 15 40 27
f 16 27 17
f 17 28 29
f 17 29 18
f 17 27 28
f 18 29 30
f 18 30 31
f 18 31 19
f 20 21 32
f 20 32 33
f 20 33 22
f 22 33 34
f 22 34 35
f 22 35 36
f 22 36 37
f 22 37 23
f 23 37 24
f 24 38 25
f 24 37 36
f 24 36 39
f 24 39 38
f 25 38 26
f 26 38 61
f 26 61 40
f 27 40 41
f 27 41 42
f 27 42 28
f 28 42 29
f 29 42 43
f 29 43 44
f 29 44 45
f 29 45 30
f 30 46 31
f 30 45 68
f 30 68 46
f 32 47 33
f 33 47 48
f 33 48 34
f 34 48 69
f 34 69 49
f 34 49 35
f 35 49 50
f 35 50 36
f 36 51 52
f 36 52 39
f 36 50 51
f 38 39 52
f 38 52 53
f 38 53 54
f 38 54 55
f 38 55 56
f 38 56 57
f 38 57 58
f 38 58 59
f 38 59 60
f 38 60 76
f 38 76 61
f 40 61 41
f 41 61 42
f 42 61 62
f 42 62 63
f 42 63 64
f 42 64 43
f 43 64 44
f 44 65 66
f 44 66 67
f 44 67 45
f 44 64 63
f 44 63 65
f 45 67 88
f 45 88 68
f 49 69 89
f 49 89 70
f 49 70 71
f 49 71 50
f 50 71 72
f 50 72 51
f 51 72 73
f 51 73 52
f 52 73 74
f 52 74 75
f 52 75 53
f 53 75 74
f 53 74 99
f 53 99 98
f 53 98 97
f 53 97 96
f 53 96 118
f 53 118 117
f 53 117 116
f 53 116 115
f 53 115 130
f 53 130 139
f 53 139 138
f 53 138 137
f 53 137 122
f 53 122 121
f 53 121 119
f 53 119 103
f 53 103 102
f 53 102 101
f 53 101 100
f 53 100 81
f 53 81 80
f 53 80 79
f 53 79 78
f 53 78 77
f 53 77 76
f 53 76 60
f 53 60 59
f 53 59 58
f 53 58 57
f 53 57 56
f 53 56 55
f 53 55 54
f 61 76 77
f 61 77 78
f 61 78 79
f 61 79 80
f 61 80 81
f 61 81 82
f 61 82 62
f 62 82 63
f 63 82 83
f 63 83 84
f 63 84 65
f 65 84 85
f 65 85 66
f 66 85 108
f 66 108 86
f 66 86 87
f 66 87 67
f 67 87 88
f 70 89 109
f 70 109 90
f 70 90 91
f 70 91 92
f 70 92 93
f 70 93 71
f 71 93 94
f 71 94 72
f 72 94 73
f 73 94 95
f 73 95 96
f 73 96 97
f 73 97 98
f 73 98 99
f 73 99 74
f 81 100 82
f 82 100 101
f 82 101 102
f 82 102 103
f 82 103 104
f 82 104 105
f 82 105 83
f 83 105 106
f 83 106 84
f 84 106 107
f 84 107 85
f 85 107 125
f 85 125 108
f 90 109 128
f 90 128 127
f 90 127 141
f 90 141 140
f 90 140 136
f 90 136 135
f 90 135 134
f 90 134 133
f 90 133 132
f 90 132 131
f 90 131 123
f 90 123 129
f 90 129 114
f 90 114 95
f 90 95 113
f 90 113 112
f 90 112 111
f 90 111 110
f 90 110 91
f 91 110 93
f 91 93 92
f 93 110 111
f 93 111 94
f 94 111 112
f 94 112 113
f 94 113 95
f 95 114 115
f 95 115 116
f 95 116 117
f 95 117 118
f 95 118 96
f 103 119 104
f 104 120 105
f 104 119 121
f 104 121 122
f 104 122 123
f 104 123 120
f 105 120 106
f 106 120 124
f 106 124 107
f 107 124 126
f 107 126 127
f 107 127 128
f 107 128 125
f 114 129 130
f 114 130 115
f 120 123 131
f 120 131 132
f 120 132 133
f 120 133 134
f 120 134 135
f 120 135 136
f 120 136 124
f 122 137 123
f 123 137 138
f 123 138 139
f 123 139 130
f 123 130 129
f 124 140 141
f 124 141 127
f 124 127 126
f 124 136 140

