# https://github.com/mikedh/trimesh
v -0.04050000 -0.00000010 0.00000235
v -0.04045640 -0.00185275 0.00929366
v -0.04046829 -0.00156650 0.00914389
v -0.04048018 -0.00126833 0.00902056
v -0.04048811 -0.00095823 0.00892659
v -0.04049207 -0.00080318 0.00888841
v -0.04049604 -0.00048513 0.01616817
v -0.04050000 -0.00000010 0.01899902
v -0.04049604 0.00011519 0.00210787
v -0.04049207 0.00011519 0.00000235
v -0.01495374 -0.00000010 -0.00600000
v -0.04034541 -0.00353047 0.00000235
v -0.04042865 -0.00238151 0.00966366
v -0.04045640 -0.00185275 0.01570419
v -0.04046829 -0.00156650 0.01585102
v -0.04048018 -0.00126833 0.01597435
v -0.04049207 -0.00080318 0.01610944
v -0.04048018 -0.00000010 0.01943363
v -0.04049207 0.00011519 0.01901370
v -0.04049604 0.00011519 0.01864663
v -0.04048811 -0.00095823 0.01607126
v -0.04048415 -0.00111328 0.01602721
v -0.04034541 -0.00353047 0.01899902
v -0.01494581 0.00011519 -0.00600000
v -0.01489428 -0.00130411 -0.00600000
v -0.03988166 -0.00703302 0.00000235
v -0.04032956 -0.00370142 0.01249745
v -0.04033352 -0.00366962 0.01298199
v -0.04036523 -0.00328398 0.01079131
v -0.04038505 -0.00303352 0.01037725
v -0.04041280 -0.00262005 0.00988097
v -0.01472384 -0.00259620 -0.00600000
v -0.04042865 -0.00238151 0.01533418
v -0.04042072 -0.00000010 0.01986531
v -0.04041676 0.00011519 0.01986531
v -0.04047225 0.00011519 0.01944832
v -0.04032559 -0.00353047 0.01943363
v -0.04027010 -0.00352650 0.01986531
v -0.04041280 -0.00262005 0.01511394
v -0.04038505 -0.00303352 0.01462059
v -0.04036523 -0.00328398 0.01420654
v -0.03988166 -0.00703302 0.01899902
v -0.03986580 -0.00703302 0.01943363
v -0.00000650 0.00011519 -0.00600000
v -0.03936241 -0.00937865 0.00000235
v -0.01444242 -0.00387238 -0.00600000
v -0.04032956 -0.00000010 0.02029405
v -0.04032163 0.00011519 0.02029405
v -0.03980635 -0.00702109 0.01986531
v -0.03971518 -0.00700519 0.02029405
v -0.04017497 -0.00351855 0.02029405
v -0.03911666 -0.01048387 0.01899902
v -0.03910080 -0.01047990 0.01943363
v -0.03904531 -0.01046400 0.01986531
v -0.00000650 -0.01495250 -0.00600000
v -0.00000650 0.00011519 0.00000235
v -0.03911666 -0.01048387 0.00000235
v -0.01405001 -0.00511675 -0.00600000
v -0.03805438 -0.01385522 0.00000235
v -0.04019479 -0.00000010 0.02070810
v -0.04018686 0.00011519 0.02072279
v -0.04004417 -0.00350662 0.02070810
v -0.03958438 -0.00698133 0.02070810
v -0.03895414 -0.01044014 0.02029405
v -0.03882730 -0.01040436 0.02070810
v -0.03805438 -0.01385522 0.01899902
v -0.03803852 -0.01384727 0.01943363
v -0.03798303 -0.01382739 0.01986531
v -0.03789583 -0.01379559 0.02029405
v -0.00000650 -0.04049601 0.00000235
v -0.00130660 -0.01489684 -0.00600000
v -0.01286485 0.00011519 0.01814448
v -0.00000650 -0.01026919 0.01799765
v -0.01355058 -0.00632137 -0.00600000
v -0.03670274 -0.01711922 0.00000235
v -0.04002832 -0.00000010 0.02111041
v -0.04002435 0.00011519 0.02111041
v -0.03942186 -0.00695350 0.02111041
v -0.03987769 -0.00349072 0.02111041
v -0.03777295 -0.01375185 0.02070810
v -0.03866479 -0.01036461 0.02111041
v -0.03670274 -0.01711922 0.01899902
v -0.03668689 -0.01711127 0.01943363
v -0.03663536 -0.01708742 0.01986531
v -0.03654816 -0.01704766 0.02029405
v -0.00000650 -0.04049999 0.00035474
v -0.00353026 -0.04034494 0.00000235
v -0.00259878 -0.01472589 -0.00600000
v -0.00703420 -0.03988376 0.00000235
v -0.01291638 0.00011519 0.01821496
v -0.00000650 -0.01036461 0.01814448
v -0.01297187 0.00011519 0.01828543
v -0.01294809 -0.00747829 -0.00600000
v -0.03507365 -0.02024806 0.00000235
v -0.03982616 -0.00000010 0.02149804
v -0.03982220 0.00011519 0.02149804
v -0.03922368 -0.00691772 0.02149804
v -0.03967554 -0.00347481 0.02149804
v -0.03761440 -0.01369222 0.02111041
v -0.03642924 -0.01699200 0.02070810
v -0.03627863 -0.01692044 0.02111041
v -0.03847057 -0.01030895 0.02149804
v -0.03742414 -0.01362463 0.02149804
v -0.03507365 -0.02024806 0.01899902
v -0.03505383 -0.02024011 0.01943363
v -0.03500627 -0.02020830 0.01986531
v -0.03492303 -0.02016854 0.02029405
v -0.03481204 -0.02010096 0.02070810
v -0.00000650 -0.04049999 0.01888449
v -0.00048611 -0.04049601 0.00883262
v -0.00080321 -0.04049204 0.00888841
v -0.00111634 -0.04048408 0.00897357
v -0.00126697 -0.04048011 0.00902056
v -0.00156425 -0.04046818 0.00914389
v -0.00185360 -0.04045626 0.00929366
v -0.00212313 -0.04044433 0.00946691
v -0.00283661 -0.04040060 0.01011883
v -0.00320523 -0.04037277 0.01064742
v -0.00335585 -0.04036084 0.01093520
v -0.00366899 -0.04033301 0.01201586
v -0.00387114 -0.01444362 -0.00600000
v -0.00370070 -0.04032904 0.01249745
v -0.00703420 -0.03988376 0.01899902
v -0.00937677 -0.03936295 0.00000235
v -0.00000650 -0.01046797 0.01828543
v -0.01308682 0.00011519 0.01841171
v -0.01224651 -0.00857556 -0.00600000
v -0.03317502 -0.02322979 0.00000235
v -0.03959230 -0.00000010 0.02186511
v -0.03958834 0.00011519 0.02186511
v -0.03899378 -0.00687797 0.02186511
v -0.03944168 -0.00345493 0.02186511
v -0.03609629 -0.01683298 0.02149804
v -0.03466538 -0.02001747 0.02111041
v -0.03449098 -0.01991808 0.02149804
v -0.03720614 -0.01354512 0.02186511
v -0.03824464 -0.01024931 0.02186511
v -0.03317502 -0.02322979 0.01899902
v -0.03315916 -0.02321786 0.01943363
v -0.03311160 -0.02318606 0.01986531
v -0.03303233 -0.02313040 0.02029405
v -0.03292531 -0.02305486 0.02070810
v -0.03279054 -0.02295945 0.02111041
v -0.00126697 -0.04048011 0.01597435
v -0.00111634 -0.04048408 0.01602721
v -0.00080321 -0.04049204 0.01610944
v -0.00048611 -0.04049601 0.01616817
v -0.00000650 -0.04049601 0.01899902
v -0.00353026 -0.04034494 0.01899902
v -0.00156425 -0.04046818 0.01585102
v -0.00185360 -0.04045626 0.01570419
v -0.00212313 -0.04044433 0.01552799
v -0.00283661 -0.04040060 0.01487608
v -0.00320523 -0.04037277 0.01434749
v -0.00335585 -0.04036084 0.01406265
v -0.00366899 -0.04033301 0.01298199
v -0.00511575 -0.01405003 -0.00600000
v -0.01048265 -0.03911646 0.00000235
v -0.01385182 -0.03805497 0.00000235
v -0.00353026 -0.04032506 0.01943363
v -0.00703023 -0.03986389 0.01943363
v -0.01047868 -0.03910056 0.01943363
v -0.01048265 -0.03911646 0.01899902
v -0.00000650 -0.01058724 0.01841171
v -0.01315420 0.00011519 0.01847337
v -0.01321762 0.00011519 0.01852917
v -0.01145376 -0.00961321 -0.00600000
v -0.03102271 -0.02603262 0.00000235
v -0.03932673 -0.00000010 0.02221163
v -0.03958041 0.00011519 0.02187686
v -0.03918007 -0.00343108 0.02221163
v -0.03873217 -0.00683026 0.02221163
v -0.03588225 -0.01673756 0.02186511
v -0.03262406 -0.02284415 0.02149804
v -0.03243380 -0.02270898 0.02186511
v -0.03428883 -0.01979881 0.02186511
v -0.03564443 -0.01662227 0.02221163
v -0.03695642 -0.01345368 0.02221163
v -0.03798699 -0.01018173 0.02221163
v -0.03102271 -0.02603262 0.01899902
v -0.03100686 -0.02601672 0.01943363
v -0.03096326 -0.02598094 0.01986531
v -0.03089191 -0.02592130 0.02029405
v -0.03079282 -0.02583781 0.02070810
v -0.03066201 -0.02573047 0.02111041
v -0.03051139 -0.02559927 0.02149804
v -0.00000650 -0.04048011 0.01943363
v -0.00238078 -0.04042843 0.01533418
v -0.00632073 -0.01355307 -0.00600000
v -0.01385182 -0.03805497 0.01899902
v -0.01711794 -0.03670325 0.00000235
v -0.00352629 -0.04026940 0.01986531
v -0.00702231 -0.03980823 0.01986531
v -0.01046283 -0.03904490 0.01986531
v -0.01384786 -0.03803906 0.01943363
v -0.00000650 -0.01071446 0.01852917
v -0.01328501 0.00011519 0.01858496
v -0.01057381 -0.01057134 -0.00600000
v -0.02863654 -0.02863667 0.00000235
v -0.03903342 -0.00000010 0.02253465
v -0.03931484 0.00011519 0.02222337
v -0.03888676 -0.00340325 0.02253465
v -0.03843886 -0.00677857 0.02253465
v -0.03770160 -0.01010619 0.02253465
v -0.03221580 -0.02255791 0.02221163
v -0.03405893 -0.01966761 0.02221163
v -0.03032906 -0.02544820 0.02186511
v -0.03012691 -0.02527725 0.02221163
v -0.03380525 -0.01952051 0.02253465
v -0.03537489 -0.01649902 0.02253465
v -0.03667896 -0.01335429 0.02253465
v -0.02863654 -0.02863667 0.01899902
v -0.02862069 -0.02862076 0.01943363
v -0.02858105 -0.02858101 0.01986531
v -0.02851367 -0.02851342 0.02029405
v -0.02842250 -0.02842198 0.02070810
v -0.02830359 -0.02830271 0.02111041
v -0.02816090 -0.02816356 0.02149804
v -0.02799839 -0.02799659 0.02186511
v -0.00000650 -0.04042047 0.01986531
v -0.00747814 -0.01294877 -0.00600000
v -0.01877874 -0.03584053 0.00000235
v -0.02025325 -0.03507323 0.00000235
v -0.01711794 -0.03670325 0.01899902
v -0.00000650 -0.04032904 0.02029405
v -0.00351837 -0.04017399 0.02029405
v -0.00700645 -0.03971679 0.02029405
v -0.01043905 -0.03895346 0.02029405
v -0.01379633 -0.03789594 0.02029405
v -0.01382804 -0.03798341 0.01986531
v -0.01708623 -0.03663566 0.01986531
v -0.01711001 -0.03668734 0.01943363
v -0.00000650 -0.01085361 0.01863782
v -0.01335635 0.00011519 0.01863782
v -0.00961063 -0.01145393 -0.00600000
v -0.02603237 -0.03102205 0.00000235
v -0.03871236 -0.00000010 0.02282831
v -0.03902945 0.00011519 0.02253465
v -0.03812572 -0.00672291 0.02282831
v -0.03856570 -0.00337542 0.02282831
v -0.03739243 -0.01002270 0.02282831
v -0.03197401 -0.02238695 0.02253465
v -0.02990098 -0.02509039 0.02253465
v -0.02780812 -0.02780973 0.02221163
v -0.03352383 -0.01935751 0.02282831
v -0.03508554 -0.01636385 0.02282831
v -0.03171240 -0.02220407 0.02282831
v -0.03637772 -0.01324297 0.02282831
v -0.02603237 -0.03102205 0.01899902
v -0.02602048 -0.03101013 0.01943363
v -0.02598084 -0.03096639 0.01986531
v -0.02592139 -0.03089085 0.02029405
v -0.02583815 -0.03079147 0.02070810
v -0.02573113 -0.03066424 0.02111041
v -0.02560032 -0.03050919 0.02149804
v -0.02544970 -0.03033029 0.02186511
v -0.02527926 -0.03012753 0.02221163
v -0.00857609 -0.01224906 -0.00600000
v -0.02025325 -0.03507323 0.01899902
v -0.02322605 -0.03317288 0.00000235
v -0.00000650 -0.04019784 0.02070810
v -0.00350648 -0.04004279 0.02070810
v -0.00698267 -0.03958559 0.02070810
v -0.01040734 -0.03882624 0.02070810
v -0.01374876 -0.03777270 0.02070810
v -0.01699110 -0.03642893 0.02070810
v -0.01704659 -0.03654820 0.02029405
v -0.02016605 -0.03492614 0.02029405
v -0.02021361 -0.03500565 0.01986531
v -0.02024136 -0.03505733 0.01943363
v -0.00000650 -0.01100071 0.01873179
v -0.01350301 0.00011519 0.01873179
v -0.03836751 -0.00000010 0.02309554
v -0.03870839 0.00011519 0.02282831
v -0.03778484 -0.00666328 0.02309554
v -0.03822085 -0.00334759 0.02309554
v -0.03705948 -0.00993126 0.02309554
v -0.02760201 -0.02759902 0.02253465
v -0.02965523 -0.02488366 0.02282831
v -0.03322655 -0.01918656 0.02309554
v -0.03477241 -0.01621675 0.02309554
v -0.03142701 -0.02200529 0.02309554
v -0.02938965 -0.02466102 0.02309554
v -0.03605269 -0.01312370 0.02309554
v -0.02322605 -0.03317288 0.01899902
v -0.02321812 -0.03315697 0.01943363
v -0.02318245 -0.03311324 0.01986531
v -0.02313092 -0.03303373 0.02029405
v -0.02305561 -0.03292639 0.02070810
v -0.02296048 -0.03279121 0.02111041
v -0.02284553 -0.03262424 0.02149804
v -0.02271076 -0.03243341 0.02186511
v -0.02255618 -0.03221474 0.02221163
v -0.02238970 -0.03197223 0.02253465
v -0.02508900 -0.02990092 0.02253465
v -0.00000650 -0.04003086 0.02111041
v -0.00349062 -0.03987581 0.02111041
v -0.00695492 -0.03942259 0.02111041
v -0.01036373 -0.03866722 0.02111041
v -0.01369327 -0.03761367 0.02111041
v -0.01691975 -0.03627785 0.02111041
v -0.02001939 -0.03466772 0.02111041
v -0.02010263 -0.03481084 0.02070810
v -0.00000650 -0.01115576 0.01881108
v -0.01358229 0.00011519 0.01877290
v -0.01365760 0.00011519 0.01881108
v -0.01381615 0.00011519 0.01887862
v -0.03799888 -0.00000010 0.02332753
v -0.03799492 0.00011519 0.02332753
v -0.03835958 0.00011519 0.02309554
v -0.03742018 -0.00659967 0.02332753
v -0.03785223 -0.00331579 0.02332753
v -0.03670274 -0.00983584 0.02332753
v -0.03570785 -0.01300046 0.02332753
v -0.02488289 -0.02965443 0.02282831
v -0.02737211 -0.02737241 0.02282831
v -0.02712636 -0.02712990 0.02309554
v -0.03290549 -0.01900368 0.02332753
v -0.03443945 -0.01606170 0.02332753
v -0.03112577 -0.02179458 0.02332753
v -0.02686872 -0.02686750 0.02332753
v -0.02910823 -0.02442248 0.02332753
v -0.01991633 -0.03449279 0.02149804
v -0.01980138 -0.03429003 0.02186511
v -0.01966662 -0.03405945 0.02221163
v -0.01951996 -0.03380500 0.02253465
v -0.02220341 -0.03170984 0.02282831
v -0.00000650 -0.03982811 0.02149804
v -0.00347477 -0.03967703 0.02149804
v -0.00691925 -0.03922381 0.02149804
v -0.01031221 -0.03847241 0.02149804
v -0.01362589 -0.03742681 0.02149804
v -0.01683651 -0.03609497 0.02149804
v -0.00000650 -0.01131876 0.01887862
v -0.01398262 0.00011519 0.01893148
v -0.03761044 -0.00000010 0.02353015
v -0.03797907 0.00011519 0.02333634
v -0.03746774 -0.00328001 0.02353015
v -0.03703966 -0.00653208 0.02353015
v -0.03633015 -0.00973645 0.02353015
v -0.03408668 -0.01589870 0.02353015
v -0.03534318 -0.01286528 0.02353015
v -0.02466092 -0.02938806 0.02309554
v -0.02200522 -0.03142757 0.02309554
v -0.03257253 -0.01880887 0.02353015
v -0.03080867 -0.02157195 0.02353015
v -0.02881095 -0.02417599 0.02353015
v -0.02659522 -0.02659318 0.02353015
v -0.02442310 -0.02910579 0.02332753
v -0.02417338 -0.02881160 0.02353015
v -0.01673742 -0.03588427 0.02186511
v -0.01662247 -0.03564175 0.02221163
v -0.01649959 -0.03537538 0.02253465
v -0.01935745 -0.03352671 0.02282831
v -0.01636483 -0.03508516 0.02282831
v -0.00000650 -0.03959354 0.02186511
v -0.00345495 -0.03944247 0.02186511
v -0.00687961 -0.03899322 0.02186511
v -0.01024879 -0.03824580 0.02186511
v -0.01354265 -0.03720418 0.02186511
v -0.00000650 -0.01148574 0.01893148
v -0.03019429 0.00011519 0.02400000
v -0.03720614 -0.00000010 0.02369753
v -0.03760647 0.00011519 0.02353015
v -0.03706741 -0.00324423 0.02369753
v -0.03664329 -0.00646450 0.02369753
v -0.03594170 -0.00963309 0.02369753
v -0.03372201 -0.01572775 0.02369753
v -0.03496266 -0.01273011 0.02369753
v -0.02179514 -0.03112542 0.02332753
v -0.01918701 -0.03322456 0.02309554
v -0.03222372 -0.01860612 0.02369753
v -0.03047968 -0.02134136 0.02369753
v -0.02630983 -0.02631091 0.02369753
v -0.02850178 -0.02391758 0.02369753
v -0.02391574 -0.02850149 0.02369753
v -0.02157317 -0.03080737 0.02353015
v -0.01345545 -0.03695769 0.02221163
v -0.01335239 -0.03667940 0.02253465
v -0.01621817 -0.03477108 0.02309554
v -0.01324141 -0.03637725 0.02282831
v -0.01312646 -0.03605124 0.02309554
v -0.00000650 -0.03932717 0.02221163
v -0.00343116 -0.03918007 0.02221163
v -0.00683205 -0.03873083 0.02221163
v -0.01018140 -0.03798738 0.02221163
v -0.00000650 -0.03019909 0.02400000
v -0.03549380 0.00011519 0.02400000
v -0.03679391 -0.00000010 0.02382674
v -0.03720217 0.00011519 0.02369753
v -0.03623502 -0.00639294 0.02382674
v -0.03665121 -0.00320844 0.02382674
v -0.03553741 -0.00952574 0.02382674
v -0.03457422 -0.01258699 0.02382674
v -0.03334546 -0.01555282 0.02382674
v -0.01900071 -0.03290651 0.02332753
v -0.01881045 -0.03257255 0.02353015
v -0.03186303 -0.01839938 0.02382674
v -0.03013880 -0.02110282 0.02382674
v -0.02601652 -0.02601672 0.02382674
v -0.02365017 -0.02818344 0.02382674
v -0.02818468 -0.02364723 0.02382674
v -0.02133931 -0.03047739 0.02369753
v -0.02110149 -0.03013946 0.02382674
v -0.01860830 -0.03222270 0.02369753
v -0.01010609 -0.03770511 0.02253465
v -0.01299962 -0.03570536 0.02332753
v -0.01605962 -0.03443713 0.02332753
v -0.01002285 -0.03739103 0.02282831
v -0.00993169 -0.03705708 0.02309554
v -0.00983656 -0.03670325 0.02332753
v -0.00000650 -0.03903298 0.02253465
v -0.00340342 -0.03888588 0.02253465
v -0.00678052 -0.03844061 0.02253465
v -0.00000650 -0.03549863 0.02400000
v -0.03592981 0.00011519 0.02397944
v -0.03549777 -0.00000010 0.02400000
v -0.03636583 -0.00000010 0.02392365
v -0.03677013 0.00011519 0.02383261
v -0.03622710 -0.00317266 0.02392365
v -0.03581487 -0.00631740 0.02392365
v -0.03512518 -0.00941443 0.02392365
v -0.03417388 -0.01243989 0.02392365
v -0.03295702 -0.01536994 0.02392365
v -0.03149440 -0.01818470 0.02392365
v -0.01589711 -0.03408727 0.02353015
v -0.01572667 -0.03372151 0.02369753
v -0.02978999 -0.02085633 0.02392365
v -0.02785965 -0.02337689 0.02392365
v -0.02571527 -0.02571457 0.02392365
v -0.02337667 -0.02785744 0.02392365
v -0.02085970 -0.02978960 0.02392365
v -0.01839822 -0.03186091 0.02382674
v -0.01818418 -0.03149515 0.02392365
v -0.01555226 -0.03334383 0.02382674
v -0.00672503 -0.03812255 0.02282831
v -0.01286485 -0.03534358 0.02353015
v -0.00666557 -0.03778462 0.02309554
v -0.00973746 -0.03632954 0.02353015
v -0.00660215 -0.03741886 0.02332753
v -0.00653477 -0.03704118 0.02353015
v -0.00000650 -0.03871095 0.02282831
v -0.00337567 -0.03856385 0.02282831
v -0.00309425 -0.03536346 0.02400000
v -0.00313388 -0.03579680 0.02397944
v -0.00000650 -0.03593197 0.02397944
v -0.03636186 0.00011519 0.02392365
v -0.03593378 -0.00000010 0.02397944
v -0.03579901 -0.00313291 0.02397944
v -0.03536300 -0.00309713 0.02400000
v -0.03538678 -0.00624186 0.02397944
v -0.03470899 -0.00930311 0.02397944
v -0.03256857 -0.01519104 0.02397944
v -0.03376562 -0.01229279 0.02397944
v -0.03111784 -0.01797001 0.02397944
v -0.01273008 -0.03496589 0.02369753
v -0.02943326 -0.02060984 0.02397944
v -0.02541007 -0.02540844 0.02397944
v -0.02752670 -0.02309859 0.02397944
v -0.02060999 -0.02943577 0.02397944
v -0.02309525 -0.02752746 0.02397944
v -0.01536993 -0.03295819 0.02392365
v -0.01518760 -0.03256858 0.02397944
v -0.01797014 -0.03111747 0.02397944
v -0.01258739 -0.03457230 0.02382674
v -0.01244073 -0.03417474 0.02392365
v -0.00334793 -0.03821797 0.02309554
v -0.00331225 -0.03785221 0.02332753
v -0.00963441 -0.03593992 0.02369753
v -0.00328054 -0.03746657 0.02353015
v -0.00324487 -0.03706503 0.02369753
v -0.00646342 -0.03664361 0.02369753
v -0.00000650 -0.03836507 0.02309554
v -0.00624145 -0.03538731 0.02397944
v -0.00616614 -0.03495794 0.02400000
v -0.00631676 -0.03581270 0.02392365
v -0.00317352 -0.03622617 0.02392365
v -0.00000650 -0.03636532 0.02392365
v -0.03495870 -0.00616633 0.02400000
v -0.03428883 -0.00919179 0.02400000
v -0.03217219 -0.01500418 0.02400000
v -0.03335735 -0.01214172 0.02400000
v -0.03074129 -0.01775135 0.02400000
v -0.00952342 -0.03553839 0.02382674
v -0.02907652 -0.02035938 0.02400000
v -0.02510089 -0.02509834 0.02400000
v -0.02719375 -0.02281632 0.02400000
v -0.02281779 -0.02719351 0.02400000
v -0.02036027 -0.02907796 0.02400000
v -0.01775213 -0.03074376 0.02400000
v -0.01500527 -0.03217101 0.02400000
v -0.01229407 -0.03376525 0.02397944
v -0.01214345 -0.03335575 0.02400000
v -0.00941640 -0.03512889 0.02392365
v -0.00000650 -0.03799931 0.02332753
v -0.00639207 -0.03623412 0.02382674
v -0.00000650 -0.03760969 0.02353015
v -0.00000650 -0.03720816 0.02369753
v -0.00320920 -0.03665156 0.02382674
v -0.00919047 -0.03429003 0.02400000
v -0.00930145 -0.03470748 0.02397944
v -0.00000650 -0.03679071 0.02382674
f 1 2 3
f 1 3 4
f 1 4 5
f 1 5 6
f 1 6 7
f 1 7 8
f 1 8 20
f 1 20 9
f 1 9 10
f 1 10 24
f 1 24 11
f 1 11 12
f 1 12 2
f 2 13 33
f 2 33 14
f 2 14 15
f 2 15 3
f 2 12 13
f 3 15 16
f 3 16 4
f 4 16 22
f 4 22 21
f 4 21 17
f 4 17 6
f 4 6 5
f 6 17 7
f 7 17 8
f 8 18 36
f 8 36 19
f 8 19 20
f 8 17 21
f 8 21 22
f 8 22 16
f 8 16 23
f 8 23 37
f 8 37 18
f 9 20 19
f 9 19 36
f 9 36 35
f 9 35 48
f 9 48 61
f 9 61 77
f 9 77 96
f 9 96 130
f 9 130 170
f 9 170 201
f 9 201 238
f 9 238 274
f 9 274 310
f 9 310 309
f 9 309 337
f 9 337 364
f 9 364 390
f 9 390 419
f 9 419 447
f 9 447 416
f 9 416 388
f 9 388 362
f 9 362 335
f 9 335 307
f 9 307 306
f 9 306 305
f 9 305 272
f 9 272 234
f 9 234 197
f 9 197 166
f 9 166 165
f 9 165 126
f 9 126 92
f 9 92 90
f 9 90 72
f 9 72 56
f 9 56 44
f 9 44 24
f 9 24 10
f 11 24 44
f 11 44 55
f 11 55 71
f 11 71 88
f 11 88 121
f 11 121 157
f 11 157 189
f 11 189 221
f 11 221 258
f 11 258 235
f 11 235 198
f 11 198 167
f 11 167 127
f 11 127 93
f 11 93 74
f 11 74 58
f 11 58 46
f 11 46 32
f 11 32 25
f 11 25 12
f 12 26 27
f 12 27 28
f 12 28 23
f 12 23 41
f 12 41 29
f 12 29 30
f 12 30 31
f 12 31 13
f 12 25 32
f 12 32 26
f 13 31 39
f 13 39 33
f 14 33 23
f 14 23 15
f 15 23 16
f 18 34 35
f 18 35 36
f 18 37 38
f 18 38 34
f 23 33 39
f 23 39 40
f 23 40 41
f 23 28 42
f 23 42 43
f 23 43 37
f 26 45 42
f 26 42 27
f 26 32 46
f 26 46 45
f 27 42 28
f 29 41 40
f 29 40 30
f 30 40 39
f 30 39 31
f 34 47 35
f 34 38 47
f 35 47 48
f 37 43 38
f 38 43 49
f 38 49 50
f 38 50 51
f 38 51 47
f 42 45 52
f 42 52 43
f 43 52 53
f 43 53 54
f 43 54 49
f 44 56 73
f 44 73 91
f 44 91 125
f 44 125 164
f 44 164 196
f 44 196 233
f 44 233 271
f 44 271 304
f 44 304 334
f 44 334 361
f 44 361 387
f 44 387 415
f 44 415 446
f 44 446 478
f 44 478 502
f 44 502 498
f 44 498 497
f 44 497 495
f 44 495 473
f 44 473 442
f 44 442 412
f 44 412 383
f 44 383 356
f 44 356 328
f 44 328 296
f 44 296 261
f 44 261 225
f 44 225 220
f 44 220 187
f 44 187 148
f 44 148 109
f 44 109 86
f 44 86 70
f 44 70 55
f 45 46 57
f 45 57 52
f 46 58 59
f 46 59 57
f 47 60 61
f 47 61 48
f 47 51 62
f 47 62 60
f 49 54 50
f 50 63 62
f 50 62 51
f 50 54 64
f 50 64 65
f 50 65 63
f 52 57 59
f 52 59 66
f 52 66 53
f 53 66 67
f 53 67 54
f 54 67 68
f 54 68 69
f 54 69 64
f 55 70 71
f 56 72 73
f 58 74 75
f 58 75 59
f 59 75 82
f 59 82 66
f 60 76 61
f 60 62 76
f 61 76 77
f 62 63 78
f 62 78 79
f 62 79 76
f 63 65 78
f 64 69 80
f 64 80 65
f 65 80 81
f 65 81 78
f 66 82 83
f 66 83 67
f 67 83 84
f 67 84 68
f 68 84 69
f 69 84 85
f 69 85 80
f 70 86 87
f 70 87 71
f 71 87 89
f 71 89 88
f 72 90 73
f 73 90 92
f 73 92 91
f 74 93 94
f 74 94 75
f 75 94 104
f 75 104 82
f 76 95 96
f 76 96 77
f 76 79 95
f 78 97 79
f 78 81 97
f 79 97 98
f 79 98 95
f 80 99 81
f 80 85 100
f 80 100 101
f 80 101 99
f 81 102 97
f 81 99 103
f 81 103 102
f 82 104 83
f 83 104 105
f 83 105 84
f 84 105 106
f 84 106 107
f 84 107 85
f 85 107 108
f 85 108 100
f 86 109 147
f 86 147 110
f 86 110 111
f 86 111 112
f 86 112 113
f 86 113 114
f 86 114 115
f 86 115 87
f 87 115 116
f 87 116 117
f 87 117 118
f 87 118 119
f 87 119 120
f 87 120 89
f 88 89 121
f 89 120 122
f 89 122 123
f 89 123 124
f 89 124 121
f 91 92 125
f 92 126 125
f 93 127 128
f 93 128 94
f 94 128 138
f 94 138 104
f 95 129 130
f 95 130 96
f 95 98 129
f 97 131 98
f 97 102 131
f 98 131 132
f 98 132 129
f 99 101 103
f 100 108 101
f 101 133 103
f 101 108 134
f 101 134 135
f 101 135 133
f 102 103 136
f 102 136 137
f 102 137 131
f 103 133 136
f 104 138 139
f 104 139 105
f 105 139 140
f 105 140 106
f 106 140 107
f 107 140 141
f 107 141 108
f 108 141 142
f 108 142 143
f 108 143 134
f 109 144 145
f 109 145 146
f 109 146 147
f 109 148 149
f 109 149 144
f 110 147 146
f 110 146 111
f 111 146 145
f 111 145 112
f 112 145 144
f 112 144 113
f 113 144 150
f 113 150 114
f 114 150 151
f 114 151 115
f 115 151 152
f 115 152 116
f 116 152 153
f 116 153 117
f 117 153 154
f 117 154 118
f 118 154 155
f 118 155 119
f 119 155 156
f 119 156 120
f 120 156 122
f 121 124 158
f 121 158 159
f 121 159 157
f 122 156 123
f 123 156 149
f 123 149 160
f 123 160 161
f 123 161 162
f 123 162 163
f 123 163 124
f 124 163 158
f 125 126 165
f 125 165 166
f 125 166 164
f 127 167 128
f 128 168 180
f 128 180 138
f 128 167 168
f 129 169 201
f 129 201 170
f 129 170 130
f 129 132 171
f 129 171 169
f 131 172 171
f 131 171 132
f 131 137 172
f 133 173 136
f 133 135 173
f 134 143 135
f 135 143 174
f 135 174 175
f 135 175 176
f 135 176 173
f 136 173 177
f 136 177 178
f 136 178 137
f 137 178 179
f 137 179 172
f 138 180 139
f 139 180 181
f 139 181 182
f 139 182 140
f 140 182 183
f 140 183 141
f 141 183 184
f 141 184 142
f 142 184 143
f 143 184 185
f 143 185 186
f 143 186 174
f 144 149 150
f 148 187 149
f 149 155 154
f 149 154 153
f 149 153 188
f 149 188 152
f 149 152 151
f 149 151 150
f 149 187 160
f 149 156 155
f 152 188 153
f 157 159 189
f 158 163 190
f 158 190 159
f 159 190 224
f 159 224 191
f 159 191 189
f 160 192 161
f 160 187 192
f 161 193 162
f 161 192 193
f 162 194 195
f 162 195 190
f 162 190 163
f 162 193 194
f 164 166 197
f 164 197 196
f 167 198 199
f 167 199 168
f 168 199 212
f 168 212 180
f 169 200 201
f 169 171 200
f 171 172 202
f 171 202 200
f 172 203 202
f 172 179 204
f 172 204 203
f 173 176 177
f 174 186 175
f 175 205 206
f 175 206 176
f 175 186 207
f 175 207 208
f 175 208 205
f 176 206 177
f 177 206 209
f 177 209 210
f 177 210 211
f 177 211 178
f 178 211 179
f 179 211 204
f 180 212 213
f 180 213 181
f 181 213 214
f 181 214 182
f 182 214 183
f 183 214 215
f 183 215 216
f 183 216 184
f 184 216 217
f 184 217 185
f 185 217 218
f 185 218 186
f 186 218 219
f 186 219 207
f 187 220 192
f 189 191 222
f 189 222 223
f 189 223 221
f 190 195 224
f 191 224 222
f 192 220 225
f 192 225 226
f 192 226 227
f 192 227 193
f 193 227 194
f 194 228 229
f 194 229 230
f 194 230 195
f 194 227 228
f 195 230 231
f 195 231 232
f 195 232 224
f 196 197 234
f 196 234 233
f 198 235 199
f 199 235 236
f 199 236 249
f 199 249 212
f 200 237 274
f 200 274 238
f 200 238 201
f 200 202 237
f 202 203 239
f 202 239 240
f 202 240 237
f 203 204 239
f 204 241 239
f 204 211 241
f 205 242 209
f 205 209 206
f 205 208 243
f 205 243 242
f 207 219 208
f 208 219 244
f 208 244 243
f 209 245 246
f 209 246 210
f 209 242 247
f 209 247 245
f 210 246 211
f 211 248 241
f 211 246 248
f 212 249 250
f 212 250 213
f 213 250 214
f 214 250 251
f 214 251 215
f 215 251 252
f 215 252 216
f 216 252 253
f 216 253 254
f 216 254 217
f 217 254 218
f 218 254 255
f 218 255 219
f 219 255 256
f 219 256 257
f 219 257 244
f 221 223 258
f 222 259 223
f 222 224 259
f 223 259 285
f 223 285 260
f 223 260 258
f 224 232 259
f 225 261 226
f 226 261 262
f 226 262 227
f 227 262 263
f 227 263 264
f 227 264 228
f 228 264 229
f 229 264 265
f 229 265 266
f 229 266 267
f 229 267 231
f 229 231 230
f 231 267 268
f 231 268 269
f 231 269 270
f 231 270 232
f 232 270 259
f 233 234 272
f 233 272 271
f 235 258 236
f 236 260 285
f 236 285 249
f 236 258 260
f 237 273 274
f 237 240 273
f 239 275 276
f 239 276 240
f 239 241 277
f 239 277 275
f 240 276 273
f 241 248 277
f 242 243 247
f 243 244 278
f 243 278 279
f 243 279 247
f 244 257 278
f 245 280 246
f 245 247 280
f 246 280 281
f 246 281 248
f 247 282 280
f 247 279 283
f 247 283 282
f 248 281 284
f 248 284 277
f 249 285 250
f 250 285 286
f 250 286 287
f 250 287 251
f 251 287 288
f 251 288 252
f 252 288 253
f 253 288 289
f 253 289 290
f 253 290 254
f 254 290 291
f 254 291 255
f 255 291 292
f 255 292 256
f 256 292 257
f 257 292 293
f 257 293 294
f 257 294 295
f 257 295 278
f 259 270 286
f 259 286 285
f 261 296 262
f 262 296 297
f 262 297 298
f 262 298 263
f 263 298 299
f 263 299 264
f 264 299 265
f 265 299 300
f 265 300 301
f 265 301 266
f 266 301 302
f 266 302 303
f 266 303 268
f 266 268 267
f 268 303 289
f 268 289 288
f 268 288 287
f 268 287 269
f 269 287 270
f 270 287 286
f 271 272 305
f 271 305 306
f 271 306 307
f 271 307 304
f 273 308 309
f 273 309 310
f 273 310 274
f 273 276 308
f 275 311 312
f 275 312 276
f 275 277 313
f 275 313 311
f 276 312 308
f 277 284 314
f 277 314 313
f 278 295 315
f 278 315 316
f 278 316 279
f 279 316 317
f 279 317 283
f 280 318 319
f 280 319 281
f 280 282 320
f 280 320 318
f 281 319 314
f 281 314 284
f 282 283 320
f 283 317 321
f 283 321 322
f 283 322 320
f 289 303 290
f 290 303 302
f 290 302 291
f 291 302 323
f 291 323 324
f 291 324 292
f 292 324 325
f 292 325 293
f 293 325 326
f 293 326 294
f 294 326 327
f 294 327 315
f 294 315 295
f 296 328 329
f 296 329 297
f 297 329 298
f 298 329 330
f 298 330 331
f 298 331 299
f 299 331 332
f 299 332 300
f 300 332 301
f 301 333 302
f 301 332 333
f 302 333 323
f 304 307 334
f 307 335 334
f 308 336 337
f 308 337 309
f 308 312 338
f 308 338 336
f 311 339 338
f 311 338 312
f 311 313 340
f 311 340 339
f 313 314 340
f 314 319 341
f 314 341 342
f 314 342 340
f 315 343 317
f 315 317 316
f 315 327 344
f 315 344 343
f 317 343 321
f 318 345 319
f 318 320 345
f 319 345 341
f 320 346 345
f 320 322 347
f 320 347 346
f 321 348 347
f 321 347 322
f 321 343 349
f 321 349 350
f 321 350 348
f 323 333 351
f 323 351 324
f 324 351 325
f 325 351 352
f 325 352 353
f 325 353 326
f 326 354 327
f 326 353 355
f 326 355 354
f 327 354 344
f 328 356 329
f 329 356 357
f 329 357 358
f 329 358 330
f 330 358 331
f 331 358 359
f 331 359 332
f 332 360 351
f 332 351 333
f 332 359 360
f 334 335 362
f 334 362 361
f 336 363 390
f 336 390 364
f 336 364 337
f 336 338 365
f 336 365 363
f 338 339 365
f 339 366 365
f 339 340 367
f 339 367 366
f 340 342 367
f 341 368 342
f 341 345 368
f 342 368 369
f 342 369 367
f 343 344 370
f 343 370 349
f 344 354 371
f 344 371 370
f 345 372 368
f 345 346 373
f 345 373 372
f 346 347 373
f 347 348 374
f 347 374 375
f 347 375 373
f 348 350 374
f 349 370 350
f 350 376 374
f 350 370 377
f 350 377 376
f 351 360 378
f 351 378 352
f 352 378 353
f 353 378 379
f 353 379 355
f 354 355 380
f 354 380 371
f 355 379 381
f 355 381 382
f 355 382 380
f 356 383 384
f 356 384 357
f 357 384 358
f 358 384 385
f 358 385 359
f 359 385 386
f 359 386 378
f 359 378 360
f 361 362 387
f 362 388 417
f 362 417 450
f 362 450 479
f 362 479 480
f 362 480 482
f 362 482 481
f 362 481 483
f 362 483 485
f 362 485 487
f 362 487 486
f 362 486 488
f 362 488 489
f 362 489 490
f 362 490 491
f 362 491 493
f 362 493 500
f 362 500 475
f 362 475 444
f 362 444 415
f 362 415 387
f 363 389 390
f 363 365 389
f 365 366 391
f 365 391 392
f 365 392 389
f 366 367 391
f 367 393 391
f 367 369 394
f 367 394 393
f 368 372 395
f 368 395 394
f 368 394 369
f 370 371 396
f 370 396 397
f 370 397 377
f 371 380 396
f 372 398 395
f 372 373 398
f 373 399 398
f 373 375 399
f 374 400 375
f 374 376 401
f 374 401 400
f 375 400 402
f 375 402 399
f 376 377 403
f 376 403 404
f 376 404 401
f 377 397 405
f 377 405 403
f 378 386 406
f 378 406 379
f 379 406 381
f 380 382 407
f 380 407 408
f 380 408 396
f 381 406 409
f 381 409 382
f 382 409 410
f 382 410 411
f 382 411 407
f 383 412 384
f 384 412 413
f 384 413 414
f 384 414 385
f 385 414 406
f 385 406 386
f 388 416 448
f 388 448 417
f 389 418 419
f 389 419 390
f 389 392 420
f 389 420 418
f 391 421 420
f 391 420 392
f 391 393 421
f 393 422 421
f 393 394 423
f 393 423 422
f 394 395 423
f 395 424 423
f 395 398 425
f 395 425 424
f 396 408 397
f 397 408 426
f 397 426 427
f 397 427 405
f 398 399 425
f 399 428 425
f 399 402 429
f 399 429 428
f 400 430 429
f 400 429 402
f 400 401 431
f 400 431 430
f 401 404 432
f 401 432 431
f 403 405 404
f 404 405 433
f 404 433 434
f 404 434 432
f 405 427 435
f 405 435 433
f 406 414 436
f 406 436 409
f 407 437 426
f 407 426 408
f 407 411 437
f 409 436 438
f 409 438 410
f 410 438 411
f 411 439 437
f 411 438 440
f 411 440 441
f 411 441 439
f 412 442 413
f 413 442 443
f 413 443 436
f 413 436 414
f 415 444 445
f 415 445 446
f 416 447 418
f 416 418 448
f 417 448 449
f 417 449 450
f 418 447 419
f 418 420 449
f 418 449 448
f 420 421 449
f 421 451 449
f 421 422 452
f 421 452 451
f 422 423 452
f 423 424 453
f 423 453 454
f 423 454 452
f 424 425 453
f 425 455 453
f 425 428 455
f 426 437 456
f 426 456 427
f 427 456 435
f 428 457 455
f 428 429 457
f 429 430 458
f 429 458 459
f 429 459 457
f 430 431 458
f 431 432 460
f 431 460 461
f 431 461 458
f 432 434 460
f 433 435 434
f 434 435 462
f 434 462 463
f 434 463 464
f 434 464 460
f 435 456 465
f 435 465 466
f 435 466 462
f 436 443 438
f 437 439 456
f 438 443 467
f 438 467 468
f 438 468 440
f 439 441 469
f 439 469 456
f 440 468 441
f 441 468 470
f 441 470 471
f 441 471 472
f 441 472 469
f 442 473 443
f 443 473 467
f 444 474 445
f 444 475 474
f 445 476 477
f 445 477 478
f 445 478 446
f 445 474 476
f 449 451 479
f 449 479 450
f 451 452 480
f 451 480 479
f 452 454 480
f 453 481 482
f 453 482 454
f 453 455 483
f 453 483 481
f 454 482 480
f 455 457 483
f 456 469 484
f 456 484 465
f 457 485 483
f 457 459 485
f 458 486 487
f 458 487 459
f 458 461 488
f 458 488 486
f 459 487 485
f 460 489 488
f 460 488 461
f 460 464 490
f 460 490 489
f 462 466 463
f 463 491 490
f 463 490 464
f 463 466 492
f 463 492 493
f 463 493 491
f 465 484 494
f 465 494 466
f 466 494 492
f 467 473 495
f 467 495 468
f 468 495 470
f 469 472 496
f 469 496 484
f 470 497 498
f 470 498 471
f 470 495 497
f 471 498 499
f 471 499 472
f 472 499 496
f 474 475 500
f 474 500 501
f 474 501 494
f 474 494 476
f 476 494 496
f 476 496 477
f 477 496 499
f 477 499 478
f 478 499 502
f 484 496 494
f 492 494 501
f 492 501 500
f 492 500 493
f 498 502 499

