# https://github.com/mikedh/trimesh
v 0.00006039 0.04049605 0.01900489
v 0.00006039 0.04049605 0.00000235
v -0.00000314 0.04049605 0.01899902
v -0.00000314 0.04048023 0.01943363
v 0.00006039 0.04047628 0.01944244
v 0.00006039 0.01495116 -0.00600000
v -0.00000314 0.04049605 0.00000235
v -0.00048354 0.04049605 0.01616817
v -0.00095997 0.04048814 0.01607126
v -0.00111481 0.04048419 0.01602721
v -0.00156742 0.04046838 0.01585102
v -0.00353270 0.04034583 0.01899902
v -0.00000314 0.04042094 0.01986531
v 0.00006039 0.04042094 0.01986531
v -0.00352872 0.04032607 0.01943363
v 0.00006039 0.00011519 -0.00600000
v -0.00000314 0.01495116 -0.00600000
v -0.00156742 0.04046838 0.00914389
v -0.00111481 0.04048419 0.00897357
v -0.00095997 0.04048814 0.00892659
v -0.00040413 0.04049605 0.00882381
v -0.00130538 0.01489581 -0.00600000
v -0.00353270 0.04034583 0.00000235
v -0.00185328 0.04045652 0.01570419
v -0.00238132 0.04042885 0.01533418
v -0.00261954 0.04041303 0.01511394
v -0.00303244 0.04038536 0.01462059
v -0.00357637 0.04034188 0.01345478
v -0.00370342 0.04033002 0.01249745
v -0.00703446 0.03988332 0.01899902
v -0.00000314 0.04032607 0.02029405
v -0.00352475 0.04026677 0.01986531
v -0.00351681 0.04017585 0.02029405
v 0.00006039 0.04032607 0.02029405
v -0.00703049 0.03986355 0.01943363
v -0.00702255 0.03980821 0.01986531
v 0.00006039 0.00011519 0.00000235
v -0.01494719 0.00011519 -0.00600000
v -0.00185328 0.04045652 0.00929366
v -0.00259968 0.01472583 -0.00600000
v -0.00703446 0.03988332 0.00000235
v -0.00303244 0.04038536 0.01037725
v -0.00261954 0.04041303 0.00988097
v -0.00238132 0.04042885 0.00966366
v -0.01048462 0.03911642 0.01899902
v -0.01048065 0.03910061 0.01943363
v -0.00000314 0.04019561 0.02070810
v -0.00700667 0.03971333 0.02029405
v -0.00698285 0.03958684 0.02070810
v -0.00350490 0.04004540 0.02070810
v 0.00006039 0.04019561 0.02070810
v -0.01046477 0.03904526 0.01986531
v -0.01044095 0.03895434 0.02029405
v 0.00006039 0.01027069 0.01799765
v -0.01286280 0.00011519 0.01814448
v -0.04049183 0.00011519 0.00000235
v -0.04034493 0.00353067 0.00000235
v -0.01489557 0.00130508 -0.00600000
v -0.00387017 0.01444121 -0.00600000
v -0.01048462 0.03911642 0.00000235
v -0.01385537 0.03805699 0.01899902
v -0.01384743 0.03803723 0.01943363
v -0.01382758 0.03798583 0.01986531
v -0.00000314 0.04002958 0.02111041
v -0.00695506 0.03942081 0.02111041
v -0.01040521 0.03882784 0.02070810
v -0.01036154 0.03866577 0.02111041
v -0.00348902 0.03987541 0.02111041
v 0.00006039 0.04002563 0.02111041
v -0.01379581 0.03789491 0.02029405
v -0.01375214 0.03777237 0.02070810
v 0.00006039 0.01031813 0.01807400
v -0.01297000 0.00011519 0.01828543
v -0.04049580 0.00011519 0.00210787
v -0.04049183 0.00080303 0.00888841
v -0.04048786 0.00096116 0.00892659
v -0.04048389 0.00111533 0.00897357
v -0.04047992 0.00126555 0.00902056
v -0.04046801 0.00156598 0.00914389
v -0.04045610 0.00185060 0.00929366
v -0.04044419 0.00212337 0.00946691
v -0.04040051 0.00283492 0.01011883
v -0.04037272 0.00320651 0.01064742
v -0.04036081 0.00335673 0.01093520
v -0.04033302 0.00366903 0.01201586
v -0.03988438 0.00703311 0.00000235
v -0.01472485 0.00259774 -0.00600000
v -0.00511683 0.01404985 -0.00600000
v -0.01385537 0.03805699 0.00000235
v -0.01711892 0.03670503 0.01899902
v -0.01711098 0.03668527 0.01943363
v -0.01708716 0.03663388 0.01986531
v -0.01704745 0.03655086 0.02029405
v -0.00000314 0.03982797 0.02149804
v 0.00006039 0.04002168 0.02111922
v -0.00347314 0.03967776 0.02149804
v -0.00691933 0.03922315 0.02149804
v -0.01030993 0.03847206 0.02149804
v -0.01369259 0.03761424 0.02111041
v -0.01699187 0.03642831 0.02070810
v -0.01692041 0.03627810 0.02111041
v 0.00006039 0.01036557 0.01814448
v -0.01302955 0.00011519 0.01835004
v 0.00006039 0.01046835 0.01828543
v -0.04049580 0.00048283 0.00883262
v -0.04049580 0.00011519 0.01864663
v -0.04049183 0.00080303 0.01610944
v -0.04048786 0.00096116 0.01607126
v -0.04048389 0.00111533 0.01602721
v -0.04047992 0.00126555 0.01597435
v -0.04046801 0.00156598 0.01585102
v -0.04045610 0.00185060 0.01570419
v -0.04044419 0.00212337 0.01552799
v -0.04040051 0.00283492 0.01487608
v -0.04037272 0.00320651 0.01434749
v -0.04036081 0.00335673 0.01406265
v -0.04033302 0.00366903 0.01298199
v -0.04032905 0.00370065 0.01249745
v -0.03988438 0.00703311 0.01899902
v -0.03911812 0.01048416 0.00000235
v -0.01444297 0.00387063 -0.00600000
v -0.00631982 0.01355176 -0.00600000
v -0.01711892 0.03670503 0.00000235
v -0.01877849 0.03583930 0.00000235
v -0.02024748 0.03507240 0.01899902
v -0.02023954 0.03505659 0.01943363
v -0.02021572 0.03500520 0.01986531
v -0.02016808 0.03492614 0.02029405
v -0.02010058 0.03481150 0.02070810
v -0.00000314 0.03959474 0.02186511
v 0.00006039 0.03958684 0.02187392
v 0.00006039 0.03982402 0.02149804
v -0.00687962 0.03899387 0.02186511
v -0.00345329 0.03944452 0.02186511
v -0.01025037 0.03824279 0.02186511
v -0.01362509 0.03742449 0.02149804
v -0.01354569 0.03720707 0.02186511
v -0.01683306 0.03609625 0.02149804
v -0.02001721 0.03466524 0.02111041
v -0.01991795 0.03449130 0.02149804
v -0.01308911 0.00011519 0.01841171
v 0.00006039 0.01052764 0.01835004
v -0.01321616 0.00011519 0.01852917
v -0.01315263 0.00011519 0.01847337
v -0.04049580 0.00048283 0.01616817
v -0.04049183 0.00011519 0.01901370
v -0.04034493 0.00353067 0.01899902
v -0.04042831 0.00238032 0.01533418
v -0.03986453 0.00703311 0.01943363
v -0.03911812 0.01048416 0.01899902
v -0.03805409 0.01385220 0.00000235
v -0.01404991 0.00511586 -0.00600000
v -0.00747516 0.01295089 -0.00600000
v -0.02024748 0.03507240 0.00000235
v -0.02322915 0.03317492 0.01899902
v -0.02321724 0.03315911 0.01943363
v -0.02318547 0.03311167 0.01986531
v -0.02312989 0.03303261 0.02029405
v -0.02305446 0.03292587 0.02070810
v -0.02295917 0.03279147 0.02111041
v -0.00000314 0.03932989 0.02221163
v 0.00006039 0.03932198 0.02221750
v -0.00683198 0.03872902 0.02221163
v -0.00342947 0.03917967 0.02221163
v -0.01018288 0.03798979 0.02221163
v -0.01673778 0.03588279 0.02186511
v -0.01345437 0.03695803 0.02221163
v -0.01979884 0.03428969 0.02186511
v -0.02284403 0.03262544 0.02149804
v 0.00006039 0.01058694 0.01841171
v -0.01335511 0.00011519 0.01863782
v -0.04047198 0.00011519 0.01944832
v -0.04032508 0.00353067 0.01943363
v -0.04026950 0.00352671 0.01986531
v -0.03980895 0.00702125 0.01986531
v -0.03909827 0.01048021 0.01943363
v -0.03803821 0.01384824 0.01943363
v -0.03805409 0.01385220 0.01899902
v -0.03670420 0.01711745 0.00000235
v -0.01354966 0.00632155 -0.00600000
v -0.00857889 0.01224724 -0.00600000
v -0.02322915 0.03317492 0.00000235
v -0.02603215 0.03102444 0.01899902
v -0.02602024 0.03100862 0.01943363
v -0.02598054 0.03096514 0.01986531
v -0.02592098 0.03089398 0.02029405
v -0.02583761 0.03079120 0.02070810
v -0.02573041 0.03066470 0.02111041
v -0.00000314 0.03903340 0.02253465
v 0.00006039 0.03902550 0.02254052
v -0.00678037 0.03844044 0.02253465
v -0.00340565 0.03888319 0.02253465
v -0.01010347 0.03770516 0.02253465
v -0.01335114 0.03668131 0.02253465
v -0.01662264 0.03564165 0.02221163
v -0.01966783 0.03406041 0.02221163
v -0.01649956 0.03537679 0.02253465
v -0.02270904 0.03243174 0.02186511
v -0.02559939 0.03051053 0.02149804
v 0.00006039 0.01065414 0.01847337
v -0.01350201 0.00011519 0.01873179
v 0.00006039 0.01071739 0.01852917
v 0.00006039 0.01078459 0.01858496
v -0.04041640 0.00011519 0.01986531
v -0.04032111 0.00011519 0.02029405
v -0.04017421 0.00351881 0.02029405
v -0.03971366 0.00700544 0.02029405
v -0.03895534 0.01044067 0.02029405
v -0.03904269 0.01046439 0.01986531
v -0.03798263 0.01382848 0.01986531
v -0.03663274 0.01708583 0.01986531
v -0.03668435 0.01710955 0.01943363
v -0.03670420 0.01711745 0.01899902
v -0.03507243 0.02025225 0.00000235
v -0.01295015 0.00747586 -0.00600000
v -0.00961116 0.01145267 -0.00600000
v -0.02603215 0.03102444 0.00000235
v -0.02863664 0.02863677 0.01899902
v -0.02862076 0.02862095 0.01943363
v -0.02858105 0.02858142 0.01986531
v -0.02851356 0.02851422 0.02029405
v -0.02842225 0.02842330 0.02070810
v -0.02830314 0.02830471 0.02111041
v -0.02816021 0.02816240 0.02149804
v -0.00000314 0.03871320 0.02282831
v 0.00006039 0.03870925 0.02282831
v -0.00672478 0.03812419 0.02282831
v -0.00337785 0.03856298 0.02282831
v -0.01002010 0.03739287 0.02282831
v -0.01324395 0.03637692 0.02282831
v -0.01636457 0.03508426 0.02282831
v -0.01952093 0.03380346 0.02253465
v -0.02255817 0.03221432 0.02221163
v -0.02238745 0.03197318 0.02253465
v -0.01935814 0.03352674 0.02282831
v -0.02544852 0.03032869 0.02186511
v -0.02527780 0.03012708 0.02221163
v -0.02799743 0.02799636 0.02186511
v -0.01358142 0.00011519 0.01877290
v 0.00006039 0.01085575 0.01863782
v -0.04018612 0.00011519 0.02072279
v -0.04004319 0.00350695 0.02070810
v -0.03958661 0.00698172 0.02070810
v -0.03882829 0.01040510 0.02070810
v -0.03777220 0.01374941 0.02070810
v -0.03789528 0.01379685 0.02029405
v -0.03654936 0.01704630 0.02029405
v -0.03500493 0.02021272 0.01986531
v -0.03505655 0.02024435 0.01943363
v -0.03507243 0.02025225 0.01899902
v -0.03317464 0.02322893 0.00000235
v -0.01224741 0.00857877 -0.00600000
v -0.01057196 0.01057508 -0.00600000
v -0.02863664 0.02863677 0.00000235
v -0.03102276 0.02603168 0.01899902
v -0.03100688 0.02601982 0.01943363
v -0.03096321 0.02598029 0.01986531
v -0.03089175 0.02592099 0.02029405
v -0.03079249 0.02583798 0.02070810
v -0.03066544 0.02573124 0.02111041
v -0.03051060 0.02560079 0.02149804
v -0.00000314 0.03836533 0.02309554
v -0.00334609 0.03821907 0.02309554
v 0.00006039 0.03836138 0.02309554
v -0.00666523 0.03778422 0.02309554
v -0.00993275 0.03705686 0.02309554
v -0.01312484 0.03605277 0.02309554
v -0.01621767 0.03477197 0.02309554
v -0.02220482 0.03171227 0.02282831
v -0.02509120 0.02990176 0.02253465
v -0.01918742 0.03322631 0.02309554
v -0.02780685 0.02781057 0.02221163
v -0.03033194 0.02545057 0.02186511
v -0.01365685 0.00011519 0.01881108
v 0.00006039 0.01100202 0.01873179
v -0.04001937 0.00011519 0.02112510
v -0.03987644 0.00349114 0.02111041
v -0.03941986 0.00695405 0.02111041
v -0.03866551 0.01036161 0.02111041
v -0.03761339 0.01369407 0.02111041
v -0.03627939 0.01691980 0.02111041
v -0.03643026 0.01699095 0.02070810
v -0.03492553 0.02016529 0.02029405
v -0.03311112 0.02318545 0.01986531
v -0.03315876 0.02321707 0.01943363
v -0.03317464 0.02322893 0.01899902
v -0.03102276 0.02603168 0.00000235
v -0.01145336 0.00961053 -0.00600000
v -0.03303569 0.02313011 0.02029405
v -0.03292849 0.02305500 0.02070810
v -0.03278953 0.02296012 0.02111041
v -0.03262675 0.02284548 0.02149804
v -0.00000314 0.03799769 0.02332753
v 0.00006039 0.03798979 0.02333340
v 0.00006039 0.03835742 0.02309847
v -0.00331433 0.03785538 0.02332753
v -0.00660170 0.03742054 0.02332753
v -0.00983747 0.03670503 0.02332753
v -0.01606283 0.03443596 0.02332753
v -0.01299779 0.03570490 0.02332753
v -0.02200631 0.03142765 0.02309554
v -0.02488475 0.02965271 0.02282831
v -0.02760040 0.02760106 0.02253465
v -0.02737410 0.02737178 0.02282831
v -0.01900082 0.03290611 0.02332753
v -0.02179588 0.03112722 0.02332753
v -0.03012549 0.02528059 0.02221163
v -0.03243221 0.02271108 0.02186511
v -0.03221384 0.02255691 0.02221163
v -0.01374023 0.00011519 0.01884632
v 0.00006039 0.01115619 0.01881108
v -0.03982483 0.00011519 0.02149804
v -0.03967793 0.00347532 0.02149804
v -0.03922135 0.00691847 0.02149804
v -0.03847097 0.01031022 0.02149804
v -0.03742679 0.01362292 0.02149804
v -0.03609676 0.01683678 0.02149804
v -0.03466746 0.02001902 0.02111041
v -0.03481039 0.02010204 0.02070810
v -0.03449277 0.01991624 0.02149804
v -0.03429029 0.01980160 0.02186511
v -0.00000314 0.03761029 0.02353015
v 0.00006039 0.03761029 0.02353015
v -0.00653421 0.03704104 0.02353015
v -0.00327860 0.03746798 0.02353015
v -0.00973821 0.03632949 0.02353015
v -0.01286677 0.03534121 0.02353015
v -0.01589608 0.03408808 0.02353015
v -0.02465844 0.02938786 0.02309554
v -0.02442420 0.02910719 0.02332753
v -0.02712794 0.02712668 0.02309554
v -0.02989918 0.02509084 0.02253465
v -0.02965302 0.02488133 0.02282831
v -0.02939099 0.02465995 0.02309554
v -0.01881025 0.03257010 0.02353015
v -0.02157355 0.03080701 0.02353015
v -0.02417407 0.02881070 0.02353015
v -0.03197563 0.02238693 0.02253465
v -0.03406001 0.01966720 0.02221163
v -0.01381964 0.00011519 0.01887862
v 0.00006039 0.01131826 0.01887862
v -0.03959058 0.00011519 0.02186511
v -0.03944368 0.00345161 0.02186511
v -0.03899107 0.00687894 0.02186511
v -0.03824466 0.01025093 0.02186511
v -0.03720446 0.01354385 0.02186511
v -0.03588236 0.01673400 0.02186511
v -0.03564414 0.01662331 0.02221163
v -0.00000314 0.03720707 0.02369753
v 0.00006039 0.03720707 0.02369753
v -0.00646275 0.03664178 0.02369753
v -0.00324684 0.03706476 0.02369753
v -0.00963101 0.03594208 0.02369753
v -0.01272781 0.03496567 0.02369753
v -0.01860777 0.03222222 0.02369753
v -0.01572933 0.03372044 0.02369753
v -0.02686987 0.02686973 0.02332753
v -0.03170962 0.02220508 0.02282831
v -0.02910910 0.02442277 0.02332753
v -0.03142773 0.02200348 0.02309554
v -0.03112599 0.02179396 0.02332753
v -0.02133930 0.03047891 0.02369753
v -0.02391600 0.02850236 0.02369753
v -0.02659593 0.02659302 0.02353015
v -0.03380195 0.01952093 0.02253465
v -0.03352403 0.01935886 0.02282831
v -0.03537814 0.01650077 0.02253465
v -0.01398242 0.00011519 0.01893148
v 0.00006039 0.01148429 0.01893148
v -0.03019298 0.00011519 0.02400000
v -0.03932458 0.00011519 0.02221163
v -0.03917768 0.00342789 0.02221163
v -0.03872904 0.00683150 0.02221163
v -0.03798660 0.01017977 0.02221163
v -0.03695830 0.01345293 0.02221163
v -0.00000314 0.03679200 0.02382674
v 0.00006039 0.03719917 0.02370047
v -0.00320713 0.03665364 0.02382674
v -0.00639128 0.03623461 0.02382674
v -0.00952381 0.03553887 0.02382674
v -0.01258488 0.03457431 0.02382674
v -0.01555067 0.03334490 0.02382674
v -0.01839734 0.03186249 0.02382674
v -0.02110109 0.03013894 0.02382674
v -0.02881133 0.02417372 0.02353015
v -0.03322626 0.01918492 0.02309554
v -0.03080837 0.02157259 0.02353015
v -0.03290864 0.01900308 0.02332753
v -0.02631007 0.02630840 0.02369753
v -0.02601627 0.02601587 0.02382674
v -0.02364999 0.02818216 0.02382674
v -0.02850165 0.02391677 0.02369753
v -0.03508434 0.01636241 0.02282831
v -0.03668038 0.01335411 0.02253465
v -0.03637864 0.01324342 0.02282831
v 0.00006039 0.03019428 0.02400000
v -0.03549328 0.00011519 0.02400000
v -0.03901886 0.00011519 0.02254346
v -0.03888388 0.00340417 0.02253465
v -0.03843921 0.00678011 0.02253465
v -0.03770471 0.01010466 0.02253465
v -0.00000314 0.03636507 0.02392365
v 0.00006039 0.03678014 0.02382968
v -0.00631585 0.03581558 0.02392365
v -0.00317140 0.03622671 0.02392365
v -0.00941662 0.03512775 0.02392365
v -0.01537201 0.03295750 0.02392365
v -0.01244196 0.03417110 0.02392365
v -0.01818692 0.03149485 0.02392365
v -0.02085890 0.02979107 0.02392365
v -0.03477069 0.01621615 0.02309554
v -0.03257116 0.01880938 0.02353015
v -0.03222178 0.01860777 0.02369753
v -0.03047884 0.02133936 0.02369753
v -0.03443719 0.01606197 0.02332753
v -0.03408781 0.01589990 0.02353015
v -0.02818403 0.02364796 0.02382674
v -0.02785847 0.02337520 0.02392365
v -0.02571453 0.02571543 0.02392365
v -0.02337605 0.02785801 0.02392365
v -0.03013740 0.02110217 0.02382674
v -0.03605308 0.01312483 0.02309554
v -0.03739106 0.01002165 0.02282831
v -0.03705756 0.00993073 0.02309554
v 0.00006039 0.03549538 0.02400000
v -0.03536226 0.00309583 0.02400000
v -0.03579899 0.00313536 0.02397944
v -0.03593000 0.00011519 0.02397944
v -0.03870521 0.00011519 0.02282831
v -0.03856626 0.00337650 0.02282831
v -0.03812556 0.00672477 0.02282831
v -0.00000314 0.03593418 0.02397944
v 0.00006039 0.03636507 0.02392365
v -0.00624041 0.03538865 0.02397944
v -0.00313567 0.03579582 0.02397944
v -0.00930148 0.03470872 0.02397944
v -0.01229108 0.03376788 0.02397944
v -0.01518937 0.03256614 0.02397944
v -0.01796855 0.03111931 0.02397944
v -0.02060878 0.02943529 0.02397944
v -0.02309813 0.02752595 0.02397944
v -0.03186446 0.01839825 0.02382674
v -0.03372254 0.01572596 0.02369753
v -0.03570767 0.01299833 0.02332753
v -0.03534241 0.01286787 0.02353015
v -0.03496523 0.01272952 0.02369753
v -0.02752497 0.02309848 0.02397944
v -0.02978801 0.02085708 0.02392365
v -0.02943466 0.02060803 0.02397944
v -0.02540882 0.02540709 0.02397944
v -0.03149523 0.01818479 0.02392365
v -0.03670420 0.00983585 0.02332753
v -0.03778411 0.00666547 0.02309554
v 0.00006039 0.03593022 0.02397944
v -0.00000314 0.03549934 0.02400000
v -0.03495729 0.00616738 0.02400000
v -0.03581487 0.00631760 0.02392365
v -0.03622777 0.00317094 0.02392365
v -0.03636276 0.00011519 0.02392365
v -0.03538608 0.00624249 0.02397944
v -0.03835980 0.00011519 0.02309554
v -0.03822084 0.00334487 0.02309554
v -0.00616498 0.03495776 0.02400000
v -0.00309597 0.03536098 0.02400000
v -0.00919031 0.03428969 0.02400000
v -0.01214419 0.03335676 0.02400000
v -0.01500674 0.03217083 0.02400000
v -0.01775019 0.03074377 0.02400000
v -0.02035865 0.02907951 0.02400000
v -0.02281624 0.02719389 0.02400000
v -0.03334536 0.01555203 0.02382674
v -0.03296025 0.01537018 0.02392365
v -0.03633100 0.00973703 0.02353015
v -0.03457218 0.01258721 0.02382674
v -0.03594191 0.00963424 0.02369753
v -0.02719147 0.02281781 0.02400000
v -0.02907734 0.02035899 0.02400000
v -0.03111805 0.01797132 0.02397944
v -0.03074088 0.01775390 0.02400000
v -0.02509914 0.02509875 0.02400000
v -0.03256720 0.01518834 0.02397944
v -0.03741885 0.00660222 0.02332753
v -0.03785161 0.00331325 0.02332753
v -0.03429029 0.00919150 0.02400000
v -0.03471114 0.00930218 0.02397944
v -0.03512801 0.00941287 0.02392365
v -0.03623174 0.00639271 0.02382674
v -0.03665259 0.00321047 0.02382674
v -0.03677170 0.00011519 0.02383261
v -0.03799454 0.00011519 0.02332753
v -0.03417118 0.01244094 0.02392365
v -0.03376621 0.01229468 0.02397944
v -0.03664465 0.00646386 0.02369753
v -0.03703771 0.00653502 0.02353015
v -0.03553695 0.00952356 0.02382674
v -0.03217017 0.01500650 0.02400000
v -0.03335727 0.01214446 0.02400000
v -0.03746649 0.00328162 0.02353015
v -0.03797866 0.00011519 0.02333634
v -0.03706550 0.00324605 0.02369753
v -0.03720446 0.00011519 0.02369753
v -0.03760545 0.00011519 0.02353015
v -0.03759354 0.00011519 0.02353602
f 1 2 7
f 1 7 21
f 1 21 8
f 1 8 3
f 1 3 4
f 1 4 5
f 1 5 14
f 1 14 34
f 1 34 51
f 1 51 69
f 1 69 95
f 1 95 132
f 1 132 131
f 1 131 162
f 1 162 190
f 1 190 226
f 1 226 264
f 1 264 295
f 1 295 294
f 1 294 323
f 1 323 350
f 1 350 377
f 1 377 403
f 1 403 433
f 1 433 454
f 1 454 425
f 1 425 396
f 1 396 369
f 1 369 341
f 1 341 311
f 1 311 275
f 1 275 240
f 1 240 203
f 1 203 202
f 1 202 200
f 1 200 170
f 1 170 142
f 1 142 104
f 1 104 102
f 1 102 72
f 1 72 54
f 1 54 37
f 1 37 16
f 1 16 6
f 1 6 2
f 2 6 17
f 2 17 7
f 3 8 9
f 3 9 10
f 3 10 11
f 3 11 12
f 3 12 4
f 4 13 14
f 4 14 5
f 4 12 15
f 4 15 13
f 6 16 38
f 6 38 58
f 6 58 87
f 6 87 121
f 6 121 152
f 6 152 180
f 6 180 215
f 6 215 252
f 6 252 288
f 6 288 253
f 6 253 216
f 6 216 181
f 6 181 153
f 6 153 122
f 6 122 88
f 6 88 59
f 6 59 40
f 6 40 22
f 6 22 17
f 7 18 19
f 7 19 20
f 7 20 21
f 7 17 22
f 7 22 23
f 7 23 18
f 8 20 9
f 8 21 20
f 9 20 19
f 9 19 10
f 10 19 18
f 10 18 11
f 11 18 39
f 11 39 24
f 11 24 12
f 12 24 25
f 12 25 26
f 12 26 27
f 12 27 42
f 12 42 23
f 12 23 28
f 12 28 29
f 12 29 30
f 12 30 35
f 12 35 15
f 13 31 34
f 13 34 14
f 13 15 32
f 13 32 33
f 13 33 31
f 15 35 36
f 15 36 32
f 16 37 55
f 16 55 73
f 16 73 103
f 16 103 141
f 16 141 144
f 16 144 143
f 16 143 171
f 16 171 201
f 16 201 239
f 16 239 274
f 16 274 310
f 16 310 340
f 16 340 368
f 16 368 370
f 16 370 397
f 16 397 428
f 16 428 459
f 16 459 489
f 16 489 501
f 16 501 503
f 16 503 502
f 16 502 499
f 16 499 490
f 16 490 461
f 16 461 429
f 16 429 398
f 16 398 371
f 16 371 342
f 16 342 312
f 16 312 276
f 16 276 241
f 16 241 205
f 16 205 204
f 16 204 172
f 16 172 146
f 16 146 106
f 16 106 74
f 16 74 56
f 16 56 38
f 18 23 39
f 22 40 23
f 23 41 29
f 23 29 28
f 23 42 43
f 23 43 44
f 23 44 39
f 23 40 41
f 24 39 44
f 24 44 25
f 25 44 43
f 25 43 26
f 26 43 42
f 26 42 27
f 29 41 30
f 30 41 60
f 30 60 45
f 30 45 46
f 30 46 35
f 31 47 51
f 31 51 34
f 31 33 47
f 32 36 33
f 33 36 48
f 33 48 49
f 33 49 50
f 33 50 47
f 35 46 36
f 36 46 52
f 36 52 53
f 36 53 48
f 37 54 55
f 38 56 57
f 38 57 58
f 40 59 60
f 40 60 41
f 45 60 89
f 45 89 61
f 45 61 46
f 46 61 62
f 46 62 63
f 46 63 52
f 47 64 51
f 47 50 64
f 48 53 49
f 49 65 50
f 49 53 66
f 49 66 67
f 49 67 65
f 50 65 68
f 50 68 64
f 51 64 69
f 52 63 53
f 53 63 70
f 53 70 71
f 53 71 66
f 54 72 73
f 54 73 55
f 56 74 75
f 56 75 76
f 56 76 77
f 56 77 78
f 56 78 79
f 56 79 57
f 57 79 80
f 57 80 81
f 57 81 82
f 57 82 83
f 57 83 84
f 57 84 85
f 57 85 86
f 57 86 58
f 58 86 87
f 59 88 60
f 60 88 89
f 61 89 123
f 61 123 90
f 61 90 91
f 61 91 62
f 62 91 63
f 63 91 92
f 63 92 93
f 63 93 70
f 64 94 95
f 64 95 69
f 64 68 96
f 64 96 94
f 65 97 96
f 65 96 68
f 65 67 98
f 65 98 97
f 66 71 67
f 67 71 99
f 67 99 98
f 70 93 71
f 71 93 100
f 71 100 101
f 71 101 99
f 72 102 73
f 73 102 104
f 73 104 103
f 74 105 75
f 74 106 145
f 74 145 105
f 75 107 108
f 75 108 76
f 75 105 145
f 75 145 107
f 76 108 109
f 76 109 77
f 77 109 110
f 77 110 78
f 78 110 111
f 78 111 79
f 79 111 112
f 79 112 80
f 80 112 113
f 80 113 81
f 81 113 114
f 81 114 82
f 82 114 115
f 82 115 83
f 83 115 116
f 83 116 84
f 84 116 117
f 84 117 85
f 85 117 118
f 85 118 86
f 86 118 119
f 86 119 150
f 86 150 120
f 86 120 121
f 86 121 87
f 88 122 89
f 89 122 123
f 90 123 124
f 90 124 125
f 90 125 126
f 90 126 91
f 91 126 127
f 91 127 92
f 92 127 93
f 93 127 128
f 93 128 129
f 93 129 100
f 94 130 131
f 94 131 132
f 94 132 95
f 94 96 130
f 96 97 133
f 96 133 134
f 96 134 130
f 97 98 133
f 98 135 133
f 98 99 136
f 98 136 137
f 98 137 135
f 99 101 136
f 100 129 101
f 101 138 136
f 101 129 139
f 101 139 140
f 101 140 138
f 103 104 141
f 104 142 143
f 104 143 144
f 104 144 141
f 106 146 110
f 106 110 109
f 106 109 108
f 106 108 107
f 106 107 145
f 110 146 147
f 110 147 111
f 111 147 112
f 112 147 113
f 113 148 114
f 113 147 148
f 114 148 147
f 114 147 115
f 115 147 116
f 116 147 117
f 117 119 118
f 117 147 119
f 119 149 150
f 119 147 173
f 119 173 149
f 120 150 178
f 120 178 151
f 120 151 152
f 120 152 121
f 122 153 123
f 123 153 124
f 124 154 125
f 124 153 154
f 125 154 182
f 125 182 155
f 125 155 126
f 126 155 156
f 126 156 127
f 127 156 157
f 127 157 128
f 128 157 158
f 128 158 159
f 128 159 129
f 129 159 160
f 129 160 139
f 130 161 131
f 130 134 161
f 131 161 162
f 133 163 164
f 133 164 134
f 133 135 165
f 133 165 163
f 134 164 161
f 135 137 165
f 136 138 137
f 137 138 166
f 137 166 167
f 137 167 165
f 138 140 166
f 139 160 140
f 140 168 166
f 140 160 169
f 140 169 168
f 142 170 143
f 143 170 171
f 146 172 173
f 146 173 147
f 149 173 174
f 149 174 175
f 149 175 176
f 149 176 150
f 150 176 177
f 150 177 178
f 151 178 213
f 151 213 179
f 151 179 152
f 152 179 180
f 153 181 182
f 153 182 154
f 155 182 217
f 155 217 183
f 155 183 184
f 155 184 156
f 156 184 157
f 157 184 185
f 157 185 186
f 157 186 158
f 158 186 159
f 159 186 187
f 159 187 160
f 160 187 188
f 160 188 169
f 161 189 190
f 161 190 162
f 161 164 189
f 163 191 164
f 163 165 191
f 164 191 192
f 164 192 189
f 165 193 191
f 165 167 194
f 165 194 193
f 166 195 167
f 166 168 196
f 166 196 195
f 167 195 197
f 167 197 194
f 168 169 198
f 168 198 196
f 169 188 199
f 169 199 198
f 170 200 171
f 171 200 202
f 171 202 203
f 171 203 201
f 172 204 174
f 172 174 173
f 174 204 205
f 174 205 206
f 174 206 175
f 175 207 208
f 175 208 209
f 175 209 176
f 175 206 207
f 176 209 177
f 177 210 211
f 177 211 212
f 177 212 213
f 177 213 178
f 177 209 210
f 179 213 250
f 179 250 214
f 179 214 215
f 179 215 180
f 181 216 217
f 181 217 182
f 183 217 254
f 183 254 218
f 183 218 184
f 184 218 219
f 184 219 220
f 184 220 185
f 185 220 186
f 186 220 221
f 186 221 222
f 186 222 187
f 187 222 188
f 188 222 223
f 188 223 224
f 188 224 199
f 189 225 190
f 189 192 225
f 190 225 226
f 191 227 192
f 191 193 227
f 192 227 228
f 192 228 225
f 193 229 227
f 193 194 230
f 193 230 229
f 194 197 231
f 194 231 230
f 195 196 197
f 196 232 197
f 196 198 233
f 196 233 234
f 196 234 232
f 197 232 235
f 197 235 231
f 198 199 236
f 198 236 237
f 198 237 233
f 199 224 238
f 199 238 236
f 201 203 240
f 201 240 239
f 205 241 206
f 206 241 242
f 206 242 243
f 206 243 207
f 207 243 208
f 208 243 244
f 208 244 245
f 208 245 246
f 208 246 210
f 208 210 209
f 210 246 247
f 210 247 211
f 211 247 248
f 211 248 249
f 211 249 212
f 212 249 213
f 213 249 250
f 214 250 286
f 214 286 251
f 214 251 252
f 214 252 215
f 216 253 217
f 217 253 254
f 218 254 287
f 218 287 255
f 218 255 256
f 218 256 219
f 219 256 220
f 220 256 257
f 220 257 258
f 220 258 221
f 221 258 222
f 222 258 259
f 222 259 260
f 222 260 223
f 223 260 224
f 224 260 261
f 224 261 238
f 225 262 264
f 225 264 226
f 225 228 263
f 225 263 262
f 227 265 228
f 227 229 265
f 228 265 263
f 229 266 265
f 229 230 267
f 229 267 266
f 230 231 268
f 230 268 267
f 231 235 268
f 232 234 269
f 232 269 235
f 233 237 270
f 233 270 234
f 234 270 269
f 235 271 268
f 235 269 271
f 236 238 237
f 237 238 272
f 237 272 270
f 238 261 273
f 238 273 272
f 239 240 275
f 239 275 274
f 241 276 242
f 242 276 277
f 242 277 243
f 243 278 279
f 243 279 244
f 243 277 278
f 244 279 280
f 244 280 245
f 245 280 281
f 245 281 282
f 245 282 246
f 246 282 247
f 247 282 283
f 247 283 248
f 248 283 284
f 248 284 249
f 249 284 285
f 249 285 286
f 249 286 250
f 251 286 255
f 251 255 287
f 251 287 252
f 252 287 288
f 253 288 287
f 253 287 254
f 255 286 285
f 255 285 256
f 256 285 284
f 256 284 257
f 257 284 258
f 258 284 289
f 258 289 259
f 259 289 290
f 259 290 260
f 260 290 291
f 260 291 292
f 260 292 261
f 261 292 273
f 262 293 294
f 262 294 295
f 262 295 264
f 262 263 296
f 262 296 293
f 263 265 296
f 265 297 296
f 265 266 298
f 265 298 297
f 266 267 298
f 267 268 299
f 267 299 300
f 267 300 298
f 268 271 299
f 269 301 271
f 269 270 302
f 269 302 301
f 270 272 303
f 270 303 304
f 270 304 302
f 271 305 299
f 271 301 306
f 271 306 305
f 272 273 307
f 272 307 303
f 273 292 308
f 273 308 309
f 273 309 307
f 274 275 310
f 275 311 310
f 276 312 313
f 276 313 277
f 277 313 278
f 278 314 315
f 278 315 279
f 278 313 314
f 279 315 316
f 279 316 280
f 280 316 281
f 281 316 317
f 281 317 318
f 281 318 282
f 282 318 319
f 282 319 283
f 283 319 290
f 283 290 289
f 283 289 284
f 290 319 318
f 290 318 291
f 291 318 292
f 292 318 320
f 292 320 321
f 292 321 308
f 293 296 294
f 294 296 322
f 294 322 323
f 296 297 324
f 296 324 325
f 296 325 322
f 297 298 324
f 298 326 324
f 298 300 327
f 298 327 326
f 299 305 328
f 299 328 300
f 300 328 327
f 301 302 329
f 301 329 330
f 301 330 306
f 302 304 331
f 302 331 329
f 303 307 332
f 303 332 304
f 304 332 333
f 304 333 334
f 304 334 331
f 305 335 328
f 305 306 335
f 306 336 335
f 306 330 337
f 306 337 336
f 307 309 338
f 307 338 332
f 308 321 339
f 308 339 309
f 309 339 338
f 310 311 340
f 311 341 340
f 312 342 313
f 313 342 343
f 313 343 344
f 313 344 314
f 314 344 315
f 315 344 345
f 315 345 316
f 316 346 317
f 316 345 346
f 317 346 347
f 317 347 321
f 317 321 320
f 317 320 318
f 321 347 348
f 321 348 339
f 322 349 350
f 322 350 323
f 322 325 349
f 324 351 352
f 324 352 325
f 324 326 353
f 324 353 351
f 325 352 349
f 326 327 354
f 326 354 353
f 327 328 354
f 328 335 355
f 328 355 356
f 328 356 354
f 329 331 357
f 329 357 330
f 330 357 337
f 331 334 357
f 332 338 358
f 332 358 333
f 333 358 334
f 334 359 357
f 334 358 360
f 334 360 361
f 334 361 359
f 335 336 355
f 336 362 355
f 336 337 363
f 336 363 362
f 337 357 364
f 337 364 363
f 338 339 365
f 338 365 366
f 338 366 358
f 339 348 367
f 339 367 365
f 340 341 368
f 341 369 370
f 341 370 368
f 342 371 343
f 343 371 372
f 343 372 373
f 343 373 344
f 344 373 345
f 345 373 374
f 345 374 375
f 345 375 346
f 346 375 347
f 347 375 348
f 348 375 367
f 349 376 377
f 349 377 350
f 349 352 378
f 349 378 376
f 351 379 378
f 351 378 352
f 351 353 379
f 353 380 379
f 353 354 381
f 353 381 380
f 354 356 382
f 354 382 381
f 355 383 382
f 355 382 356
f 355 362 384
f 355 384 383
f 357 359 385
f 357 385 364
f 358 366 386
f 358 386 360
f 359 361 387
f 359 387 385
f 360 386 388
f 360 388 361
f 361 388 387
f 362 363 384
f 363 364 389
f 363 389 390
f 363 390 391
f 363 391 384
f 364 385 392
f 364 392 389
f 365 367 366
f 366 367 393
f 366 393 386
f 367 375 394
f 367 394 395
f 367 395 393
f 369 396 370
f 370 396 425
f 370 425 455
f 370 455 464
f 370 464 463
f 370 463 465
f 370 465 466
f 370 466 467
f 370 467 468
f 370 468 469
f 370 469 470
f 370 470 480
f 370 480 476
f 370 476 477
f 370 477 479
f 370 479 496
f 370 496 497
f 370 497 484
f 370 484 456
f 370 456 426
f 370 426 397
f 371 398 399
f 371 399 372
f 372 399 400
f 372 400 373
f 373 400 401
f 373 401 374
f 374 401 375
f 375 401 394
f 376 402 403
f 376 403 377
f 376 378 402
f 378 379 404
f 378 404 405
f 378 405 402
f 379 380 406
f 379 406 404
f 380 381 406
f 381 382 407
f 381 407 408
f 381 408 406
f 382 383 409
f 382 409 407
f 383 384 409
f 384 410 409
f 384 391 410
f 385 387 392
f 386 393 411
f 386 411 388
f 387 388 412
f 387 412 413
f 387 413 414
f 387 414 392
f 388 411 415
f 388 415 416
f 388 416 412
f 389 392 390
f 390 392 417
f 390 417 418
f 390 418 419
f 390 419 420
f 390 420 391
f 391 420 410
f 392 414 421
f 392 421 417
f 393 395 411
f 394 401 395
f 395 422 411
f 395 401 423
f 395 423 424
f 395 424 422
f 397 426 427
f 397 427 428
f 398 429 430
f 398 430 399
f 399 430 431
f 399 431 400
f 400 431 401
f 401 431 423
f 402 432 433
f 402 433 403
f 402 405 432
f 404 434 435
f 404 435 405
f 404 406 434
f 405 435 432
f 406 436 434
f 406 408 437
f 406 437 436
f 407 409 438
f 407 438 437
f 407 437 408
f 409 439 438
f 409 410 439
f 410 440 439
f 410 420 441
f 410 441 440
f 411 422 415
f 412 416 413
f 413 442 414
f 413 416 443
f 413 443 442
f 414 442 421
f 415 422 444
f 415 444 416
f 416 444 445
f 416 445 446
f 416 446 443
f 417 421 418
f 418 447 419
f 418 421 448
f 418 448 449
f 418 449 447
f 419 447 450
f 419 450 441
f 419 441 420
f 421 442 451
f 421 451 448
f 422 424 452
f 422 452 444
f 423 431 424
f 424 431 453
f 424 453 452
f 425 454 432
f 425 432 455
f 426 456 427
f 427 457 458
f 427 458 459
f 427 459 428
f 427 456 460
f 427 460 457
f 429 461 430
f 430 461 462
f 430 462 453
f 430 453 431
f 432 454 433
f 432 435 455
f 434 463 464
f 434 464 435
f 434 436 465
f 434 465 463
f 435 464 455
f 436 437 465
f 437 466 465
f 437 438 467
f 437 467 466
f 438 439 468
f 438 468 467
f 439 440 468
f 440 469 468
f 440 441 469
f 441 450 470
f 441 470 469
f 442 443 471
f 442 471 472
f 442 472 451
f 443 446 471
f 444 452 473
f 444 473 445
f 445 473 446
f 446 474 471
f 446 473 475
f 446 475 474
f 447 476 450
f 447 449 477
f 447 477 476
f 448 451 449
f 449 451 478
f 449 478 479
f 449 479 477
f 450 480 470
f 450 476 480
f 451 472 481
f 451 481 478
f 452 453 482
f 452 482 473
f 453 483 482
f 453 462 483
f 456 484 460
f 457 460 485
f 457 485 486
f 457 486 487
f 457 487 488
f 457 488 458
f 458 488 489
f 458 489 459
f 460 484 485
f 461 490 462
f 462 490 483
f 471 474 472
f 472 474 491
f 472 491 492
f 472 492 481
f 473 493 475
f 473 482 494
f 473 494 493
f 474 475 495
f 474 495 486
f 474 486 491
f 475 493 487
f 475 487 495
f 478 481 479
f 479 481 496
f 481 492 497
f 481 497 496
f 482 483 498
f 482 498 494
f 483 490 499
f 483 499 498
f 484 497 492
f 484 492 485
f 485 492 486
f 486 495 487
f 486 492 491
f 487 493 488
f 488 493 500
f 488 500 489
f 489 500 501
f 493 494 498
f 493 498 500
f 498 499 502
f 498 502 503
f 498 503 500
f 500 503 501

