# https://github.com/mikedh/trimesh
v -0.00000253 -0.04049603 0.00000235
v 0.00000143 -0.04050000 0.00000235
v -0.00000253 -0.04049603 0.01899902
v -0.00000253 -0.01495250 -0.00600000
v 0.00000143 -0.04050000 0.01899902
v 0.00000143 -0.01495250 -0.00600000
v 0.00130592 -0.01489684 -0.00600000
v 0.00353029 -0.04034495 0.00000235
v 0.00185309 -0.04045627 0.00929366
v 0.00156761 -0.04046820 0.00914389
v 0.00126627 -0.04048012 0.00902056
v 0.00111560 -0.04048410 0.00897357
v 0.00096096 -0.04048808 0.00892659
v 0.00080236 -0.04049205 0.00888841
v 0.00048516 -0.04049603 0.01616817
v -0.00000253 -0.04048012 0.01943363
v -0.00000253 0.00011519 -0.00600000
v 0.00000143 -0.04048012 0.01943363
v 0.00080236 -0.04049205 0.01610944
v 0.00096096 -0.04048808 0.01607126
v 0.00111560 -0.04048410 0.01602721
v 0.00126627 -0.04048012 0.01597435
v 0.00353029 -0.04034495 0.01899902
v 0.00259851 -0.01472589 -0.00600000
v 0.00703535 -0.03988378 0.00000235
v 0.00335583 -0.04036085 0.01093520
v 0.00320516 -0.04037278 0.01064742
v 0.00283641 -0.04040061 0.01011883
v 0.00212271 -0.04044434 0.00946691
v 0.00366906 -0.04033302 0.01201586
v 0.00185309 -0.04045627 0.01570419
v 0.00156761 -0.04046820 0.01585102
v -0.00000253 -0.04042049 0.01986531
v -0.00000253 0.00011519 0.00000235
v 0.01494554 0.00011519 -0.00600000
v 0.00000143 -0.04042049 0.01986531
v 0.00353029 -0.04032507 0.01943363
v 0.00352632 -0.04026942 0.01986531
v 0.00366906 -0.04033302 0.01298199
v 0.00703535 -0.03988378 0.01899902
v 0.00212271 -0.04044434 0.01552799
v 0.00238043 -0.04042844 0.01533418
v 0.00283641 -0.04040061 0.01487608
v 0.00320516 -0.04037278 0.01434749
v 0.00335583 -0.04036085 0.01406265
v 0.00387128 -0.01444362 -0.00600000
v 0.00849051 -0.03956175 0.00000235
v 0.00370078 -0.04032905 0.01249745
v -0.00000253 -0.04032905 0.02029405
v 0.01286391 0.00011519 0.01814448
v -0.00000253 -0.01026919 0.01799765
v 0.04049207 0.00011519 0.00000235
v 0.01495347 -0.00000010 -0.00600000
v 0.00000143 -0.04032905 0.02029405
v 0.00703139 -0.03986390 0.01943363
v 0.00702346 -0.03980824 0.01986531
v 0.00700363 -0.03971680 0.02029405
v 0.00351839 -0.04017400 0.02029405
v 0.01048491 -0.03911648 0.01899902
v 0.01048094 -0.03910057 0.01943363
v 0.00511629 -0.01405003 -0.00600000
v 0.01385516 -0.03805498 0.00000235
v 0.01048491 -0.03911648 0.00000235
v -0.00000253 -0.04019785 0.02070810
v 0.01291545 0.00011519 0.01821496
v -0.00000253 -0.01036461 0.01814448
v 0.01297097 0.00011519 0.01828543
v 0.04049604 0.00011519 0.00158810
v 0.04049604 -0.00000010 0.00000235
v 0.04034536 -0.00353047 0.00000235
v 0.01489399 -0.00130411 -0.00600000
v 0.00000143 -0.04019785 0.02070810
v 0.01046508 -0.03904492 0.01986531
v 0.01044129 -0.03895348 0.02029405
v 0.01040561 -0.03882626 0.02070810
v 0.00698381 -0.03958560 0.02070810
v 0.00350650 -0.04004280 0.02070810
v 0.01385516 -0.03805498 0.01899902
v 0.01384723 -0.03803908 0.01943363
v 0.00632165 -0.01355308 -0.00600000
v 0.01711836 -0.03670326 0.00000235
v -0.00000253 -0.04003088 0.02111041
v -0.00000253 -0.01046797 0.01828543
v 0.01302647 0.00011519 0.01834710
v 0.04049604 0.00011519 0.01858203
v 0.04049604 -0.00048513 0.00883262
v 0.04049207 -0.00080318 0.00888841
v 0.04048810 -0.00095823 0.00892659
v 0.04048018 -0.00126833 0.00902056
v 0.04046828 -0.00156650 0.00914389
v 0.04038502 -0.00303352 0.01037725
v 0.04036519 -0.00328398 0.01079131
v 0.04034536 -0.00353047 0.01899902
v 0.04033347 -0.00366962 0.01201586
v 0.03988146 -0.00703302 0.00000235
v 0.01472350 -0.00259620 -0.00600000
v 0.04045638 -0.00185275 0.00929366
v 0.04042863 -0.00238151 0.00966366
v 0.04041277 -0.00262005 0.00988097
v 0.00000143 -0.04003088 0.02111041
v 0.01382741 -0.03798342 0.01986531
v 0.01379569 -0.03789595 0.02029405
v 0.01375207 -0.03777271 0.02070810
v 0.01036199 -0.03866723 0.02111041
v 0.00695209 -0.03942260 0.02111041
v 0.00349064 -0.03987582 0.02111041
v 0.01711836 -0.03670326 0.01899902
v 0.01711043 -0.03668736 0.01943363
v 0.01708664 -0.03663567 0.01986531
v 0.00747547 -0.01294878 -0.00600000
v 0.02024675 -0.03507324 0.00000235
v -0.00000253 -0.03982812 0.02149804
v -0.00000253 -0.01058724 0.01841171
v 0.01321679 0.00011519 0.01852917
v 0.01314939 0.00011519 0.01847044
v 0.01308595 0.00011519 0.01841171
v 0.04049207 0.00011519 0.01899902
v 0.04049604 -0.00000010 0.01899902
v 0.04049604 -0.00048513 0.01616817
v 0.04049207 -0.00080318 0.01610944
v 0.04048018 -0.00126833 0.01597435
v 0.04046828 -0.00156650 0.01585102
v 0.04038502 -0.00303352 0.01462059
v 0.04036519 -0.00328398 0.01420654
v 0.04032554 -0.00353047 0.01943363
v 0.03986560 -0.00703302 0.01943363
v 0.03988146 -0.00703302 0.01899902
v 0.04033347 -0.00366962 0.01298199
v 0.04041277 -0.00262005 0.01511394
v 0.04042863 -0.00238151 0.01533418
v 0.04045638 -0.00185275 0.01570419
v 0.04048018 -0.00000010 0.01943363
v 0.04032950 -0.00370142 0.01249745
v 0.03936204 -0.00937865 0.00000235
v 0.01444198 -0.00387238 -0.00600000
v 0.00347478 -0.03967704 0.02149804
v 0.00000143 -0.03982812 0.02149804
v 0.01704699 -0.03654821 0.02029405
v 0.01699148 -0.03642894 0.02070810
v 0.01692011 -0.03627787 0.02111041
v 0.01369260 -0.03761368 0.02111041
v 0.01362519 -0.03742683 0.02149804
v 0.01031045 -0.03847242 0.02149804
v 0.00692037 -0.03922382 0.02149804
v 0.02024675 -0.03507324 0.01899902
v 0.02024279 -0.03505734 0.01943363
v 0.02021503 -0.03500566 0.01986531
v 0.02016745 -0.03492615 0.02029405
v 0.00857774 -0.01224906 -0.00600000
v 0.02322844 -0.03317289 0.00000235
v -0.00000253 -0.03959355 0.02186511
v -0.00000253 -0.01071446 0.01852917
v 0.01335557 0.00011519 0.01863782
v 0.01328420 0.00011519 0.01858203
v 0.04047621 0.00011519 0.01941895
v 0.04048414 -0.00111328 0.01602721
v 0.04048810 -0.00095823 0.01607126
v 0.04027003 -0.00352650 0.01986531
v 0.03980612 -0.00702109 0.01986531
v 0.03904484 -0.01046400 0.01986531
v 0.03910036 -0.01047990 0.01943363
v 0.03911622 -0.01048388 0.01899902
v 0.04042070 0.00011519 0.01985356
v 0.04042070 -0.00000010 0.01986531
v 0.03911622 -0.01048388 0.00000235
v 0.03805359 -0.01385522 0.00000235
v 0.01404945 -0.00511675 -0.00600000
v 0.00687675 -0.03899323 0.02186511
v 0.00345495 -0.03944248 0.02186511
v 0.00000143 -0.03959355 0.02186511
v 0.02010005 -0.03481085 0.02070810
v 0.02001678 -0.03466773 0.02111041
v 0.01683685 -0.03609499 0.02149804
v 0.01673772 -0.03588428 0.02186511
v 0.01354589 -0.03720419 0.02186511
v 0.01025097 -0.03824581 0.02186511
v 0.02322844 -0.03317289 0.01899902
v 0.02321654 -0.03315698 0.01943363
v 0.02318482 -0.03311325 0.01986531
v 0.02312931 -0.03303374 0.02029405
v 0.02305398 -0.03292640 0.02070810
v 0.00961261 -0.01145393 -0.00600000
v 0.02603169 -0.03102206 0.00000235
v -0.00000253 -0.03932719 0.02221163
v -0.00000253 -0.01085361 0.01863782
v 0.01350228 0.00011519 0.01873179
v 0.04017487 -0.00351855 0.02029405
v 0.03971493 -0.00700519 0.02029405
v 0.04032950 -0.00000010 0.02029405
v 0.03895365 -0.01044014 0.02029405
v 0.03789499 -0.01379559 0.02029405
v 0.03798222 -0.01382739 0.01986531
v 0.03803773 -0.01384727 0.01943363
v 0.03805359 -0.01385522 0.01899902
v 0.04032554 0.00011519 0.02027937
v 0.03670152 -0.01711923 0.00000235
v 0.01354986 -0.00632138 -0.00600000
v 0.00683314 -0.03873084 0.02221163
v 0.00343116 -0.03918009 0.02221163
v 0.00000143 -0.03932719 0.02221163
v 0.02295882 -0.03279122 0.02111041
v 0.01991766 -0.03449280 0.02149804
v 0.01662274 -0.03564176 0.02221163
v 0.01345470 -0.03695770 0.02221163
v 0.01979870 -0.03429004 0.02186511
v 0.01966786 -0.03405946 0.02221163
v 0.01017960 -0.03798739 0.02221163
v 0.02603169 -0.03102206 0.01899902
v 0.02601980 -0.03101013 0.01943363
v 0.02598015 -0.03096640 0.01986531
v 0.02592068 -0.03089086 0.02029405
v 0.02583741 -0.03079148 0.02070810
v 0.01057214 -0.01057134 -0.00600000
v 0.02863670 -0.02863668 0.00000235
v -0.00000253 -0.03903299 0.02253465
v -0.00000253 -0.01100071 0.01873179
v 0.01365691 0.00011519 0.01881108
v 0.04004403 -0.00350662 0.02070810
v 0.03958408 -0.00698133 0.02070810
v 0.03882677 -0.01040436 0.02070810
v 0.04032158 0.00011519 0.02029405
v 0.04019470 0.00011519 0.02069636
v 0.04019470 -0.00000010 0.02070810
v 0.03777208 -0.01375186 0.02070810
v 0.03655086 -0.01704767 0.02029405
v 0.03663412 -0.01708742 0.01986531
v 0.03668566 -0.01711128 0.01943363
v 0.03670152 -0.01711923 0.01899902
v 0.03584112 -0.01877707 0.00000235
v 0.01294717 -0.00747829 -0.00600000
v 0.01010427 -0.03770512 0.02253465
v 0.00678159 -0.03844062 0.02253465
v 0.00340341 -0.03888589 0.02253465
v 0.00000143 -0.03903299 0.02253465
v 0.02573035 -0.03066425 0.02111041
v 0.02284383 -0.03262425 0.02149804
v 0.02270902 -0.03243342 0.02186511
v 0.01649982 -0.03537539 0.02253465
v 0.01335161 -0.03667941 0.02253465
v 0.02255835 -0.03221476 0.02221163
v 0.01952115 -0.03380501 0.02253465
v 0.02863670 -0.02863668 0.01899902
v 0.02862084 -0.02862077 0.01943363
v 0.02858119 -0.02858102 0.01986531
v 0.02851379 -0.02851343 0.02029405
v 0.02842259 -0.02842199 0.02070810
v 0.01145237 -0.00961321 -0.00600000
v 0.03102364 -0.02603263 0.00000235
v -0.00000253 -0.03871096 0.02282831
v -0.00000253 -0.01115576 0.01881108
v 0.01381948 0.00011519 0.01887862
v 0.03987750 -0.00349072 0.02111041
v 0.03942152 -0.00695350 0.02111041
v 0.04002816 -0.00000010 0.02111041
v 0.03866420 -0.01036461 0.02111041
v 0.04019073 0.00011519 0.02070810
v 0.03761348 -0.01369222 0.02111041
v 0.03643190 -0.01699201 0.02070810
v 0.03492520 -0.02016855 0.02029405
v 0.03500450 -0.02020831 0.01986531
v 0.03505605 -0.02024011 0.01943363
v 0.03507191 -0.02024806 0.01899902
v 0.03507191 -0.02024806 0.00000235
v 0.01224933 -0.00857557 -0.00600000
v 0.00672608 -0.03812256 0.02282831
v 0.01324455 -0.03637726 0.02282831
v 0.01002100 -0.03739105 0.02282831
v 0.00337565 -0.03856386 0.02282831
v 0.00000143 -0.03871096 0.02282831
v 0.02559951 -0.03050920 0.02149804
v 0.02830364 -0.02830272 0.02111041
v 0.02816090 -0.02816357 0.02149804
v 0.02544884 -0.03033030 0.02186511
v 0.02527834 -0.03012754 0.02221163
v 0.01636501 -0.03508517 0.02282831
v 0.02238785 -0.03197224 0.02253465
v 0.02508802 -0.02990093 0.02253465
v 0.01935859 -0.03352672 0.02282831
v 0.02220150 -0.03170985 0.02282831
v 0.03102364 -0.02603263 0.01899902
v 0.03100778 -0.02601672 0.01943363
v 0.03096416 -0.02598094 0.01986531
v 0.03089279 -0.02592131 0.02029405
v 0.03079367 -0.02583782 0.02070810
v 0.03317267 -0.02322980 0.00000235
v -0.00000253 -0.03836508 0.02309554
v -0.00000253 -0.01131876 0.01887862
v 0.01389878 0.00011519 0.01890505
v 0.03967528 -0.00347481 0.02149804
v 0.03922327 -0.00691772 0.02149804
v 0.03982992 -0.00000010 0.02149804
v 0.04002420 0.00011519 0.02111041
v 0.03846992 -0.01030895 0.02149804
v 0.03742712 -0.01362464 0.02149804
v 0.03627727 -0.01692045 0.02111041
v 0.03466748 -0.02001748 0.02111041
v 0.03481022 -0.02010096 0.02070810
v 0.03292684 -0.02305487 0.02070810
v 0.03303389 -0.02313040 0.02029405
v 0.03311320 -0.02318606 0.01986531
v 0.03315681 -0.02321787 0.01943363
v 0.03317267 -0.02322980 0.01899902
v 0.00666264 -0.03778464 0.02309554
v 0.01312560 -0.03605125 0.02309554
v 0.00993377 -0.03705709 0.02309554
v 0.01621830 -0.03477109 0.02309554
v 0.00000143 -0.03836508 0.02309554
v 0.00334790 -0.03821798 0.02309554
v 0.02799834 -0.02799660 0.02186511
v 0.03066282 -0.02573048 0.02111041
v 0.03050818 -0.02559928 0.02149804
v 0.02780802 -0.02780974 0.02221163
v 0.02760184 -0.02759903 0.02253465
v 0.02488184 -0.02965444 0.02282831
v 0.01918413 -0.03322457 0.02309554
v 0.02200325 -0.03142758 0.02309554
v 0.03278807 -0.02295945 0.02111041
v -0.00000253 -0.03799932 0.02332753
v -0.00000253 -0.01148574 0.01893148
v 0.03019495 0.00011519 0.02400000
v 0.03944135 -0.00345493 0.02186511
v 0.03899330 -0.00687797 0.02186511
v 0.03982992 0.00011519 0.02148630
v 0.03959598 0.00011519 0.02185337
v 0.03959201 -0.00000010 0.02186511
v 0.03824391 -0.01024931 0.02186511
v 0.03720508 -0.01354512 0.02186511
v 0.03588473 -0.01673757 0.02186511
v 0.03609488 -0.01683298 0.02149804
v 0.03449302 -0.01991808 0.02149804
v 0.03262550 -0.02284416 0.02149804
v 0.00331221 -0.03785222 0.02332753
v 0.00983861 -0.03670326 0.02332753
v 0.00659920 -0.03741888 0.02332753
v 0.01299872 -0.03570537 0.02332753
v 0.01900174 -0.03290652 0.02332753
v 0.01605971 -0.03443714 0.02332753
v 0.00000143 -0.03799932 0.02332753
v 0.03032976 -0.02544821 0.02186511
v 0.03012754 -0.02527726 0.02221163
v 0.02990154 -0.02509040 0.02253465
v 0.02965571 -0.02488366 0.02282831
v 0.02737187 -0.02737242 0.02282831
v 0.02713000 -0.02712990 0.02309554
v 0.02465980 -0.02938807 0.02309554
v 0.02179310 -0.03112543 0.02332753
v 0.02442587 -0.02910580 0.02332753
v -0.00000253 -0.03760971 0.02353015
v -0.00000253 -0.03019910 0.02400000
v 0.03549220 0.00011519 0.02400000
v 0.03917965 -0.00343108 0.02221163
v 0.03873161 -0.00683026 0.02221163
v 0.03958805 0.00011519 0.02186511
v 0.03932636 -0.00000010 0.02221163
v 0.03798619 -0.01018173 0.02221163
v 0.03695529 -0.01345368 0.02221163
v 0.03564287 -0.01662227 0.02221163
v 0.03406083 -0.01966762 0.02221163
v 0.03429080 -0.01979881 0.02186511
v 0.03243121 -0.02270899 0.02186511
v 0.00653180 -0.03704119 0.02353015
v 0.00328049 -0.03746658 0.02353015
v 0.01286787 -0.03534359 0.02353015
v 0.00973552 -0.03632955 0.02353015
v 0.01880745 -0.03257256 0.02353015
v 0.01589714 -0.03408728 0.02353015
v 0.00000143 -0.03760971 0.02353015
v 0.03221710 -0.02255791 0.02221163
v 0.03197524 -0.02238696 0.02253465
v 0.02939005 -0.02466103 0.02309554
v 0.03170958 -0.02220408 0.02282831
v 0.03142807 -0.02200530 0.02309554
v 0.02910854 -0.02442249 0.02332753
v 0.02686831 -0.02686751 0.02332753
v 0.02157106 -0.03080738 0.02353015
v 0.02417607 -0.02881160 0.02353015
v -0.00000253 -0.03720817 0.02369753
v -0.00000253 -0.03549864 0.02400000
v 0.03592835 0.00011519 0.02397944
v 0.03549616 -0.00000010 0.02400000
v 0.03888624 -0.00340325 0.02253465
v 0.03844216 -0.00677858 0.02253465
v 0.03903295 -0.00000010 0.02253465
v 0.03770467 -0.01010619 0.02253465
v 0.03932239 0.00011519 0.02221163
v 0.03667773 -0.01335429 0.02253465
v 0.03537721 -0.01649903 0.02253465
v 0.03380310 -0.01952052 0.02253465
v 0.00963243 -0.03593994 0.02369753
v 0.00646439 -0.03664363 0.02369753
v 0.00324481 -0.03706504 0.02369753
v 0.00000143 -0.03720817 0.02369753
v 0.01272910 -0.03496590 0.02369753
v 0.02134109 -0.03047740 0.02369753
v 0.01860524 -0.03222271 0.02369753
v 0.01572664 -0.03372153 0.02369753
v 0.03352555 -0.01935752 0.02282831
v 0.03112673 -0.02179459 0.02332753
v 0.03322422 -0.01918656 0.02309554
v 0.03290701 -0.01900369 0.02332753
v 0.02881116 -0.02417600 0.02353015
v 0.02659473 -0.02659319 0.02353015
v 0.02630925 -0.02631092 0.02369753
v 0.02391438 -0.02850150 0.02369753
v -0.00000253 -0.03679072 0.02382674
v -0.00000253 -0.03593199 0.02397944
v 0.00000143 -0.03549864 0.02400000
v 0.03593231 -0.00000010 0.02397944
v 0.03636053 0.00011519 0.02392365
v 0.03536135 -0.00309713 0.02400000
v 0.03579750 -0.00313291 0.02397944
v 0.03856508 -0.00337542 0.02282831
v 0.03812496 -0.00672292 0.02282831
v 0.03871178 -0.00000010 0.02282831
v 0.03902898 0.00011519 0.02253465
v 0.03871971 0.00011519 0.02281950
v 0.03739144 -0.01002270 0.02282831
v 0.03637639 -0.01324297 0.02282831
v 0.03508380 -0.01636386 0.02282831
v 0.00952538 -0.03553840 0.02382674
v 0.00639302 -0.03623414 0.02382674
v 0.00320912 -0.03665158 0.02382674
v 0.00000143 -0.03679072 0.02382674
v 0.01555218 -0.03334384 0.02382674
v 0.01258636 -0.03457231 0.02382674
v 0.02110319 -0.03013947 0.02382674
v 0.01839906 -0.03186092 0.02382674
v 0.03477057 -0.01621676 0.02309554
v 0.03080953 -0.02157195 0.02353015
v 0.03443751 -0.01606171 0.02332753
v 0.03408859 -0.01589871 0.02353015
v 0.03256999 -0.01880888 0.02353015
v 0.02850189 -0.02391758 0.02369753
v 0.03048043 -0.02134136 0.02369753
v 0.02601583 -0.02601672 0.02382674
v 0.02364873 -0.02818345 0.02382674
v -0.00000253 -0.03636533 0.02392365
v 0.00000143 -0.03593199 0.02397944
v 0.00309414 -0.03536347 0.02400000
v 0.00313379 -0.03579681 0.02397944
v 0.03636450 -0.00000010 0.02392365
v 0.03622969 -0.00317266 0.02392365
v 0.03678875 0.00011519 0.02382674
v 0.03495692 -0.00616633 0.02400000
v 0.03538911 -0.00624186 0.02397944
v 0.03822012 -0.00334759 0.02309554
v 0.03836683 -0.00000010 0.02309554
v 0.03778397 -0.00666328 0.02309554
v 0.03705838 -0.00993126 0.02309554
v 0.03835890 0.00011519 0.02309554
v 0.03605126 -0.01312371 0.02309554
v 0.01243965 -0.03417475 0.02392365
v 0.00941435 -0.03512891 0.02392365
v 0.00317344 -0.03622618 0.02392365
v 0.00631769 -0.03581272 0.02392365
v 0.00000143 -0.03636533 0.02392365
v 0.01818495 -0.03149516 0.02392365
v 0.01537376 -0.03295820 0.02392365
v 0.02337514 -0.02785745 0.02392365
v 0.02085736 -0.02978961 0.02392365
v 0.03570631 -0.01300046 0.02332753
v 0.03534153 -0.01286529 0.02353015
v 0.03496485 -0.01273012 0.02369753
v 0.03371984 -0.01572775 0.02369753
v 0.03222107 -0.01860612 0.02369753
v 0.02818469 -0.02364724 0.02382674
v 0.03013944 -0.02110283 0.02382674
v 0.03186422 -0.01839939 0.02382674
v 0.02571449 -0.02571457 0.02392365
v 0.02785956 -0.02337690 0.02392365
v 0.00624235 -0.03538732 0.02397944
v 0.00616702 -0.03495795 0.02400000
v 0.03679272 -0.00000010 0.02382674
v 0.03665394 -0.00320844 0.02382674
v 0.03581336 -0.00631740 0.02392365
v 0.03623365 -0.00639294 0.02382674
v 0.03680065 0.00011519 0.02382381
v 0.03428684 -0.00919179 0.02400000
v 0.03471109 -0.00930311 0.02397944
v 0.03785534 -0.00331579 0.02332753
v 0.03800601 0.00011519 0.02332165
v 0.03799808 -0.00000010 0.02332753
v 0.03741919 -0.00659967 0.02332753
v 0.03670152 -0.00983585 0.02332753
v 0.01518740 -0.03256859 0.02397944
v 0.01229295 -0.03376526 0.02397944
v 0.00930334 -0.03470749 0.02397944
v 0.01797084 -0.03111748 0.02397944
v 0.02061153 -0.02943578 0.02397944
v 0.02309759 -0.02752747 0.02397944
v 0.03632881 -0.00973646 0.02353015
v 0.03457232 -0.01258699 0.02382674
v 0.03334317 -0.01555282 0.02382674
v 0.03594024 -0.00963309 0.02369753
v 0.03553978 -0.00952575 0.02382674
v 0.03149547 -0.01818470 0.02392365
v 0.02979052 -0.02085634 0.02392365
v 0.03295856 -0.01536995 0.02392365
v 0.02540919 -0.02540845 0.02397944
v 0.02943367 -0.02060985 0.02397944
v 0.02752650 -0.02309860 0.02397944
v 0.00918835 -0.03429004 0.02400000
v 0.03720905 -0.00000010 0.02369753
v 0.03664205 -0.00646450 0.02369753
v 0.03706630 -0.00324423 0.02369753
v 0.03512742 -0.00941443 0.02392365
v 0.03720112 0.00011519 0.02369753
v 0.03335902 -0.01214172 0.02400000
v 0.03376742 -0.01229280 0.02397944
v 0.03746677 -0.00328001 0.02353015
v 0.03703855 -0.00653209 0.02353015
v 0.03760951 -0.00000010 0.02353015
v 0.03762141 0.00011519 0.02352427
v 0.01775276 -0.03074377 0.02400000
v 0.01500501 -0.03217102 0.02400000
v 0.01214228 -0.03335577 0.02400000
v 0.02036174 -0.02907797 0.02400000
v 0.02281607 -0.02719352 0.02400000
v 0.03417185 -0.01243989 0.02392365
v 0.03256602 -0.01519104 0.02397944
v 0.03111880 -0.01797002 0.02397944
v 0.02719344 -0.02281633 0.02400000
v 0.02509992 -0.02509835 0.02400000
v 0.02907682 -0.02035938 0.02400000
v 0.03074212 -0.01775136 0.02400000
v 0.03721698 0.00011519 0.02369166
v 0.03217349 -0.01500419 0.02400000
f 1 2 5
f 1 5 3
f 1 3 16
f 1 16 33
f 1 33 49
f 1 49 64
f 1 64 82
f 1 82 112
f 1 112 151
f 1 151 184
f 1 184 215
f 1 215 249
f 1 249 286
f 1 286 318
f 1 318 348
f 1 348 377
f 1 377 405
f 1 405 437
f 1 437 406
f 1 406 378
f 1 378 349
f 1 349 319
f 1 319 287
f 1 287 250
f 1 250 216
f 1 216 185
f 1 185 152
f 1 152 113
f 1 113 83
f 1 83 66
f 1 66 51
f 1 51 34
f 1 34 17
f 1 17 4
f 1 4 2
f 2 4 6
f 2 6 7
f 2 7 8
f 2 8 9
f 2 9 10
f 2 10 11
f 2 11 12
f 2 12 13
f 2 13 14
f 2 14 15
f 2 15 5
f 3 5 16
f 4 17 35
f 4 35 53
f 4 53 71
f 4 71 96
f 4 96 135
f 4 135 167
f 4 167 197
f 4 197 230
f 4 230 264
f 4 264 247
f 4 247 213
f 4 213 182
f 4 182 149
f 4 149 110
f 4 110 80
f 4 80 61
f 4 61 46
f 4 46 24
f 4 24 7
f 4 7 6
f 5 18 16
f 5 15 19
f 5 19 20
f 5 20 21
f 5 21 22
f 5 22 23
f 5 23 37
f 5 37 18
f 7 24 25
f 7 25 8
f 8 26 27
f 8 27 28
f 8 28 29
f 8 29 9
f 8 25 30
f 8 30 26
f 9 29 41
f 9 41 31
f 9 31 32
f 9 32 10
f 10 32 22
f 10 22 11
f 11 22 21
f 11 21 12
f 12 21 20
f 12 20 13
f 13 20 19
f 13 19 14
f 14 19 15
f 16 18 36
f 16 36 33
f 17 34 50
f 17 50 65
f 17 65 67
f 17 67 84
f 17 84 116
f 17 116 115
f 17 115 114
f 17 114 154
f 17 154 153
f 17 153 186
f 17 186 217
f 17 217 251
f 17 251 288
f 17 288 320
f 17 320 350
f 17 350 379
f 17 379 409
f 17 409 443
f 17 443 477
f 17 477 507
f 17 507 526
f 17 526 513
f 17 513 481
f 17 481 450
f 17 450 416
f 17 416 415
f 17 415 385
f 17 385 353
f 17 353 324
f 17 324 323
f 17 323 292
f 17 292 256
f 17 256 222
f 17 222 221
f 17 221 195
f 17 195 163
f 17 163 155
f 17 155 117
f 17 117 85
f 17 85 68
f 17 68 52
f 17 52 35
f 18 37 38
f 18 38 36
f 22 32 23
f 23 39 40
f 23 40 37
f 23 32 31
f 23 31 41
f 23 41 42
f 23 42 43
f 23 43 44
f 23 44 45
f 23 45 39
f 24 46 47
f 24 47 25
f 25 47 40
f 25 40 48
f 25 48 30
f 26 30 39
f 26 39 45
f 26 45 44
f 26 44 27
f 27 44 43
f 27 43 28
f 28 43 41
f 28 41 29
f 30 48 39
f 33 36 54
f 33 54 49
f 34 51 50
f 35 52 53
f 36 38 54
f 37 40 55
f 37 55 38
f 38 55 56
f 38 56 57
f 38 57 58
f 38 58 54
f 39 48 40
f 40 47 59
f 40 59 60
f 40 60 55
f 41 43 42
f 46 61 62
f 46 62 63
f 46 63 47
f 47 63 59
f 49 54 72
f 49 72 64
f 50 51 65
f 51 66 67
f 51 67 65
f 52 68 69
f 52 69 53
f 53 69 70
f 53 70 71
f 54 58 72
f 55 60 56
f 56 60 73
f 56 73 57
f 57 73 74
f 57 74 75
f 57 75 76
f 57 76 77
f 57 77 58
f 58 77 72
f 59 63 62
f 59 62 78
f 59 78 60
f 60 78 79
f 60 79 73
f 61 80 62
f 62 80 81
f 62 81 107
f 62 107 78
f 64 72 100
f 64 100 82
f 66 83 67
f 67 83 84
f 68 85 118
f 68 118 119
f 68 119 86
f 68 86 69
f 69 86 87
f 69 87 88
f 69 88 89
f 69 89 90
f 69 90 70
f 70 91 92
f 70 92 124
f 70 124 93
f 70 93 128
f 70 128 94
f 70 94 95
f 70 95 96
f 70 96 71
f 70 90 97
f 70 97 98
f 70 98 99
f 70 99 91
f 72 77 100
f 73 79 101
f 73 101 102
f 73 102 74
f 74 102 103
f 74 103 75
f 75 104 76
f 75 103 104
f 76 104 105
f 76 105 77
f 77 106 100
f 77 105 106
f 78 107 108
f 78 108 79
f 79 108 109
f 79 109 101
f 80 110 111
f 80 111 81
f 81 111 145
f 81 145 107
f 82 100 137
f 82 137 112
f 83 113 114
f 83 114 115
f 83 115 116
f 83 116 84
f 85 117 118
f 86 119 120
f 86 120 87
f 87 120 157
f 87 157 156
f 87 156 121
f 87 121 89
f 87 89 88
f 89 121 122
f 89 122 90
f 90 122 131
f 90 131 97
f 91 99 129
f 91 129 123
f 91 123 124
f 91 124 92
f 93 125 126
f 93 126 127
f 93 127 128
f 93 124 123
f 93 123 129
f 93 129 130
f 93 130 131
f 93 131 122
f 93 122 121
f 93 121 118
f 93 118 132
f 93 132 125
f 94 128 133
f 94 133 95
f 95 134 135
f 95 135 96
f 95 133 127
f 95 127 134
f 97 131 130
f 97 130 98
f 98 130 129
f 98 129 99
f 100 106 136
f 100 136 137
f 101 109 102
f 102 109 138
f 102 138 103
f 103 138 139
f 103 139 140
f 103 140 141
f 103 141 104
f 104 141 142
f 104 142 143
f 104 143 144
f 104 144 105
f 105 144 136
f 105 136 106
f 107 145 146
f 107 146 108
f 108 146 109
f 109 146 147
f 109 147 148
f 109 148 138
f 110 149 111
f 111 149 150
f 111 150 177
f 111 177 145
f 112 137 170
f 112 170 151
f 113 152 153
f 113 153 154
f 113 154 114
f 117 155 132
f 117 132 118
f 118 121 156
f 118 156 157
f 118 157 120
f 118 120 119
f 125 158 126
f 125 132 158
f 126 158 159
f 126 159 160
f 126 160 161
f 126 161 162
f 126 162 127
f 127 133 128
f 127 162 134
f 132 155 163
f 132 163 164
f 132 164 158
f 134 165 135
f 134 162 165
f 135 165 166
f 135 166 167
f 136 144 168
f 136 168 169
f 136 169 170
f 136 170 137
f 138 148 139
f 139 148 171
f 139 171 172
f 139 172 140
f 140 173 142
f 140 142 141
f 140 172 173
f 142 173 174
f 142 174 175
f 142 175 176
f 142 176 143
f 143 176 144
f 144 176 168
f 145 177 146
f 146 177 178
f 146 178 179
f 146 179 147
f 147 179 148
f 148 179 180
f 148 180 181
f 148 181 171
f 149 182 183
f 149 183 150
f 150 183 208
f 150 208 177
f 151 170 200
f 151 200 184
f 152 185 153
f 153 185 186
f 158 187 188
f 158 188 159
f 158 164 189
f 158 189 187
f 159 188 160
f 160 190 191
f 160 191 192
f 160 192 193
f 160 193 161
f 160 188 190
f 161 193 194
f 161 194 162
f 162 194 166
f 162 166 165
f 163 195 189
f 163 189 164
f 166 194 228
f 166 228 196
f 166 196 167
f 167 196 197
f 168 176 198
f 168 198 199
f 168 199 169
f 169 199 170
f 170 199 200
f 171 181 201
f 171 201 172
f 172 201 202
f 172 202 173
f 173 202 174
f 174 203 204
f 174 204 175
f 174 202 205
f 174 205 206
f 174 206 203
f 175 204 176
f 176 204 207
f 176 207 198
f 177 208 209
f 177 209 178
f 178 209 179
f 179 209 210
f 179 210 211
f 179 211 180
f 180 211 212
f 180 212 181
f 181 212 201
f 182 213 214
f 182 214 183
f 183 214 242
f 183 242 208
f 184 200 234
f 184 234 215
f 185 216 186
f 186 216 217
f 187 218 188
f 187 189 218
f 188 218 219
f 188 219 220
f 188 220 190
f 189 195 221
f 189 221 222
f 189 222 223
f 189 223 218
f 190 220 224
f 190 224 191
f 191 224 225
f 191 225 192
f 192 225 226
f 192 226 193
f 193 226 227
f 193 227 228
f 193 228 194
f 196 228 229
f 196 229 197
f 197 229 230
f 198 207 231
f 198 231 232
f 198 232 199
f 199 232 233
f 199 233 234
f 199 234 200
f 201 212 235
f 201 235 236
f 201 236 202
f 202 236 237
f 202 237 205
f 203 238 204
f 203 206 238
f 204 231 207
f 204 238 239
f 204 239 231
f 205 237 206
f 206 237 240
f 206 240 241
f 206 241 238
f 208 242 209
f 209 242 243
f 209 243 244
f 209 244 210
f 210 244 245
f 210 245 211
f 211 245 246
f 211 246 212
f 212 246 235
f 213 247 214
f 214 247 248
f 214 248 280
f 214 280 242
f 215 234 269
f 215 269 249
f 216 250 217
f 217 250 251
f 218 252 253
f 218 253 219
f 218 223 254
f 218 254 252
f 219 253 220
f 220 255 224
f 220 253 255
f 222 256 223
f 223 256 292
f 223 292 254
f 224 255 257
f 224 257 258
f 224 258 225
f 225 258 259
f 225 259 226
f 226 259 260
f 226 260 261
f 226 261 227
f 227 261 262
f 227 262 228
f 228 262 229
f 229 262 263
f 229 263 230
f 230 263 264
f 231 265 232
f 231 239 266
f 231 266 267
f 231 267 265
f 232 265 233
f 233 265 268
f 233 268 269
f 233 269 234
f 235 270 236
f 235 246 271
f 235 271 272
f 235 272 270
f 236 270 237
f 237 270 273
f 237 273 274
f 237 274 240
f 238 241 275
f 238 275 239
f 239 275 266
f 240 276 241
f 240 274 277
f 240 277 276
f 241 278 275
f 241 276 279
f 241 279 278
f 242 280 281
f 242 281 243
f 243 281 244
f 244 281 282
f 244 282 283
f 244 283 245
f 245 283 246
f 246 283 284
f 246 284 271
f 247 264 248
f 248 285 302
f 248 302 280
f 248 264 285
f 249 269 307
f 249 307 286
f 250 287 251
f 251 287 288
f 252 289 290
f 252 290 253
f 252 254 291
f 252 291 289
f 253 290 255
f 254 292 291
f 255 290 293
f 255 293 294
f 255 294 257
f 257 294 295
f 257 295 258
f 258 295 296
f 258 296 297
f 258 297 259
f 259 297 298
f 259 298 299
f 259 299 300
f 259 300 260
f 260 300 261
f 261 300 301
f 261 301 302
f 261 302 262
f 262 302 285
f 262 285 263
f 263 285 264
f 265 267 303
f 265 303 268
f 266 304 305
f 266 305 267
f 266 275 306
f 266 306 304
f 267 305 303
f 268 307 269
f 268 303 308
f 268 308 307
f 270 272 309
f 270 309 273
f 271 284 310
f 271 310 272
f 272 310 311
f 272 311 309
f 273 309 274
f 274 309 312
f 274 312 313
f 274 313 277
f 275 278 306
f 276 277 314
f 276 314 279
f 277 313 314
f 278 315 306
f 278 279 316
f 278 316 315
f 279 314 316
f 280 302 301
f 280 301 281
f 281 301 300
f 281 300 282
f 282 300 283
f 283 300 299
f 283 299 284
f 284 299 298
f 284 298 317
f 284 317 310
f 286 307 338
f 286 338 318
f 287 319 320
f 287 320 288
f 289 321 322
f 289 322 290
f 289 291 321
f 290 322 293
f 291 292 323
f 291 323 324
f 291 324 325
f 291 325 321
f 293 326 294
f 293 322 326
f 294 327 328
f 294 328 329
f 294 329 295
f 294 326 327
f 295 329 330
f 295 330 296
f 296 331 317
f 296 317 298
f 296 298 297
f 296 330 331
f 303 332 308
f 303 305 333
f 303 333 334
f 303 334 332
f 304 335 333
f 304 333 305
f 304 306 335
f 306 315 336
f 306 336 337
f 306 337 335
f 307 308 338
f 308 332 338
f 309 311 339
f 309 339 340
f 309 340 312
f 310 317 331
f 310 331 311
f 311 331 339
f 312 340 341
f 312 341 313
f 313 341 342
f 313 342 343
f 313 343 314
f 314 343 344
f 314 344 345
f 314 345 316
f 315 316 336
f 316 346 336
f 316 345 347
f 316 347 346
f 318 338 367
f 318 367 348
f 319 349 320
f 320 349 378
f 320 378 407
f 320 407 439
f 320 439 472
f 320 472 502
f 320 502 516
f 320 516 515
f 320 515 514
f 320 514 517
f 320 517 518
f 320 518 523
f 320 523 522
f 320 522 524
f 320 524 525
f 320 525 527
f 320 527 508
f 320 508 478
f 320 478 444
f 320 444 410
f 320 410 380
f 320 380 350
f 321 351 322
f 321 325 351
f 322 351 352
f 322 352 326
f 324 353 325
f 325 353 385
f 325 385 354
f 325 354 351
f 326 355 356
f 326 356 327
f 326 352 355
f 327 356 328
f 328 356 357
f 328 357 358
f 328 358 359
f 328 359 330
f 328 330 329
f 330 359 331
f 331 359 360
f 331 360 339
f 332 334 361
f 332 361 362
f 332 362 338
f 333 361 334
f 333 335 363
f 333 363 364
f 333 364 361
f 335 337 363
f 336 346 365
f 336 365 366
f 336 366 337
f 337 366 363
f 338 362 367
f 339 360 368
f 339 368 340
f 340 368 341
f 341 368 369
f 341 369 342
f 342 370 344
f 342 344 343
f 342 369 371
f 342 371 372
f 342 372 370
f 344 370 373
f 344 373 374
f 344 374 347
f 344 347 345
f 346 375 365
f 346 347 376
f 346 376 375
f 347 374 376
f 348 367 392
f 348 392 377
f 350 380 408
f 350 408 379
f 351 381 382
f 351 382 352
f 351 354 383
f 351 383 381
f 352 382 384
f 352 384 355
f 354 385 415
f 354 415 383
f 355 384 356
f 356 386 387
f 356 387 357
f 356 384 386
f 357 387 358
f 358 387 388
f 358 388 369
f 358 369 368
f 358 368 359
f 359 368 360
f 361 364 389
f 361 389 390
f 361 390 391
f 361 391 362
f 362 391 392
f 362 392 367
f 363 366 393
f 363 393 364
f 364 393 389
f 365 375 394
f 365 394 395
f 365 395 396
f 365 396 366
f 366 396 393
f 369 388 397
f 369 397 371
f 370 372 398
f 370 398 373
f 371 397 372
f 372 397 399
f 372 399 400
f 372 400 398
f 373 401 374
f 373 398 401
f 374 401 402
f 374 402 376
f 375 376 394
f 376 402 403
f 376 403 404
f 376 404 394
f 377 392 423
f 377 423 405
f 378 406 438
f 378 438 407
f 379 408 441
f 379 441 409
f 380 410 411
f 380 411 408
f 381 412 413
f 381 413 382
f 381 383 414
f 381 414 412
f 382 413 384
f 383 415 416
f 383 416 414
f 384 417 418
f 384 418 386
f 384 413 417
f 386 418 387
f 387 418 419
f 387 419 397
f 387 397 388
f 389 420 390
f 389 393 420
f 390 420 421
f 390 421 422
f 390 422 391
f 391 422 392
f 392 422 423
f 393 396 424
f 393 424 425
f 393 425 420
f 394 404 426
f 394 426 395
f 395 426 427
f 395 427 424
f 395 424 396
f 397 419 428
f 397 428 399
f 398 400 429
f 398 429 401
f 399 428 400
f 400 428 430
f 400 430 431
f 400 431 432
f 400 432 429
f 401 433 403
f 401 403 402
f 401 429 434
f 401 434 433
f 403 433 435
f 403 435 436
f 403 436 404
f 404 436 426
f 405 423 456
f 405 456 437
f 406 437 456
f 406 456 438
f 407 438 440
f 407 440 439
f 408 411 442
f 408 442 441
f 409 441 473
f 409 473 443
f 410 444 445
f 410 445 411
f 411 445 442
f 412 446 413
f 412 414 447
f 412 447 446
f 413 446 448
f 413 448 449
f 413 449 417
f 414 416 447
f 416 450 447
f 417 449 418
f 418 451 428
f 418 428 419
f 418 449 451
f 420 425 452
f 420 452 453
f 420 453 421
f 421 454 422
f 421 453 455
f 421 455 454
f 422 454 456
f 422 456 423
f 424 452 425
f 424 427 457
f 424 457 458
f 424 458 452
f 426 436 459
f 426 459 460
f 426 460 457
f 426 457 427
f 428 451 461
f 428 461 430
f 429 432 434
f 430 461 431
f 431 461 462
f 431 462 463
f 431 463 464
f 431 464 465
f 431 465 432
f 432 465 434
f 433 466 435
f 433 434 467
f 433 467 466
f 434 465 468
f 434 468 467
f 435 469 459
f 435 459 436
f 435 466 470
f 435 470 469
f 438 456 440
f 439 440 471
f 439 471 472
f 440 456 454
f 440 454 455
f 440 455 471
f 441 442 473
f 442 474 473
f 442 445 475
f 442 475 476
f 442 476 474
f 443 473 477
f 444 478 445
f 445 478 479
f 445 479 475
f 446 447 480
f 446 480 448
f 447 450 481
f 447 481 482
f 447 482 480
f 448 480 483
f 448 483 484
f 448 484 449
f 449 484 461
f 449 461 451
f 452 458 485
f 452 485 486
f 452 486 453
f 453 486 487
f 453 487 471
f 453 471 455
f 457 488 485
f 457 485 458
f 457 460 489
f 457 489 488
f 459 469 490
f 459 490 489
f 459 489 460
f 461 484 491
f 461 491 462
f 462 491 463
f 463 492 493
f 463 493 464
f 463 491 494
f 463 494 495
f 463 495 492
f 464 493 468
f 464 468 465
f 466 467 470
f 467 468 496
f 467 496 497
f 467 497 470
f 468 493 498
f 468 498 496
f 469 470 499
f 469 499 490
f 470 497 500
f 470 500 501
f 470 501 499
f 471 487 502
f 471 502 472
f 473 503 477
f 473 474 503
f 474 476 504
f 474 504 505
f 474 505 503
f 475 479 506
f 475 506 476
f 476 506 495
f 476 495 504
f 477 503 507
f 478 508 479
f 479 508 509
f 479 509 506
f 480 510 511
f 480 511 483
f 480 482 512
f 480 512 510
f 481 513 482
f 482 513 512
f 483 511 491
f 483 491 484
f 485 488 514
f 485 514 515
f 485 515 516
f 485 516 486
f 486 516 502
f 486 502 487
f 488 489 514
f 489 490 517
f 489 517 514
f 490 499 518
f 490 518 517
f 491 511 494
f 492 519 498
f 492 498 493
f 492 495 519
f 494 511 504
f 494 504 495
f 495 506 519
f 496 498 520
f 496 520 521
f 496 521 497
f 497 521 500
f 498 519 509
f 498 509 520
f 499 501 522
f 499 522 523
f 499 523 518
f 500 524 501
f 500 521 525
f 500 525 524
f 501 524 522
f 503 512 513
f 503 513 526
f 503 526 507
f 503 505 510
f 503 510 512
f 504 511 505
f 505 511 510
f 506 509 519
f 508 527 509
f 509 527 520
f 520 527 521
f 521 527 525

