# https://github.com/mikedh/trimesh
v -0.00834196 0.00494278 -0.05433990
v 0.00834196 0.00494278 -0.05433990
v -0.00891280 0.00494278 -0.05426657
v -0.00834196 0.02538267 -0.05433990
v 0.00834196 0.02538267 -0.05433990
v 0.00895936 0.00494278 -0.05426046
v -0.00895936 0.00494278 -0.05426046
v -0.00895936 0.02538267 -0.05426046
v -0.00895936 0.02590858 -0.05413214
v -0.00834196 0.02597627 -0.05416880
v 0.00834196 0.02597627 -0.05416880
v 0.00895936 0.02590858 -0.05413214
v 0.00895936 0.02538267 -0.05426046
v 0.00899175 0.00494278 -0.05424824
v -0.00934397 0.00494278 -0.05410770
v -0.00937433 0.02538267 -0.05408936
v -0.00933992 0.02579142 -0.05405881
v -0.00895936 0.02621839 -0.05378994
v -0.00834196 0.02628348 -0.05384494
v -0.00092509 0.03139671 -0.04926196
v -0.00030769 0.03139671 -0.04931084
v 0.00030769 0.03139671 -0.04931084
v 0.00092509 0.03139671 -0.04926196
v 0.00834196 0.02628348 -0.05384494
v 0.00895936 0.02621839 -0.05378994
v 0.00933992 0.02579142 -0.05405881
v 0.00937433 0.02538267 -0.05408936
v 0.00937433 0.00494278 -0.05408936
v -0.00937433 0.00494278 -0.05408936
v -0.00968404 0.02538267 -0.05379606
v -0.00995529 0.02579142 -0.05344775
v -0.00952615 0.02599709 -0.05363718
v -0.00930146 0.02631993 -0.05341108
v -0.00201413 0.03132641 -0.04912752
v -0.00154451 0.03138108 -0.04920085
v -0.00154451 0.03152428 -0.04874255
v -0.00092509 0.03153990 -0.04874255
v 0.00092509 0.03153990 -0.04874255
v 0.00154451 0.03152428 -0.04874255
v 0.00154451 0.03138108 -0.04920085
v 0.00930146 0.02631993 -0.05341108
v 0.00201413 0.03132641 -0.04912752
v 0.00952615 0.02599709 -0.05363718
v 0.00995529 0.02579142 -0.05344775
v 0.00968404 0.02538267 -0.05379606
v 0.00939660 0.00494278 -0.05407103
v -0.00968404 0.00494278 -0.05379606
v -0.00999173 0.02538267 -0.05348441
v -0.01021642 0.02538267 -0.05306889
v -0.01002412 0.02599709 -0.05302000
v -0.00989659 0.02631472 -0.05278169
v -0.00971441 0.02620277 -0.05319110
v -0.00376916 0.03131079 -0.04788706
v -0.00314974 0.03130298 -0.04848590
v -0.00277930 0.03136286 -0.04860201
v -0.00219632 0.03141233 -0.04878533
v -0.00277930 0.03150345 -0.04812538
v -0.00216191 0.03153990 -0.04812538
v 0.00216191 0.03153990 -0.04812538
v 0.00219632 0.03141233 -0.04878533
v 0.00277930 0.03150345 -0.04812538
v 0.00989659 0.02631472 -0.05278169
v 0.00971440 0.02620277 -0.05319110
v 0.00314974 0.03130298 -0.04848590
v 0.00376916 0.03131079 -0.04788706
v 0.00277930 0.03136286 -0.04860201
v 0.00999173 0.02538267 -0.05348441
v 0.01002412 0.02599709 -0.05302000
v 0.01021642 0.02538267 -0.05306889
v 0.00968404 0.00494278 -0.05379606
v -0.00999173 0.00494278 -0.05348441
v -0.01020023 0.00494278 -0.05309944
v -0.01021642 0.00494278 -0.05306889
v -0.01033990 0.02538267 -0.05245171
v -0.01012735 0.02599970 -0.05245171
v -0.00501408 0.03133943 -0.04503339
v -0.00498169 0.03130038 -0.04551002
v -0.00454850 0.03139671 -0.04627385
v -0.00441490 0.03133162 -0.04689103
v -0.00433393 0.03126132 -0.04720878
v -0.00974275 0.02856933 -0.02773416
v -0.00943303 0.02895464 -0.02773416
v -0.00910106 0.02926446 -0.02773416
v -0.00399183 0.03134984 -0.04745321
v -0.00337241 0.03137588 -0.04810705
v -0.00339873 0.03151126 -0.04750820
v -0.00339873 0.03153990 -0.04689103
v 0.00339873 0.03153990 -0.04689103
v 0.00339873 0.03151126 -0.04750820
v 0.00337241 0.03137588 -0.04810705
v 0.01012735 0.02599970 -0.05245171
v 0.00433393 0.03126132 -0.04720878
v 0.00441490 0.03133162 -0.04689103
v 0.00454850 0.03139671 -0.04627385
v 0.00498169 0.03130038 -0.04551002
v 0.00501408 0.03133943 -0.04503339
v 0.00910106 0.02926446 -0.02773416
v 0.00943506 0.02895464 -0.02773416
v 0.00974274 0.02856933 -0.02773416
v 0.00399183 0.03134984 -0.04745321
v 0.00999173 0.00494278 -0.05348441
v 0.01033990 0.02538267 -0.05245171
v 0.01022654 0.00494278 -0.05302611
v 0.01021642 0.00494278 -0.05306889
v -0.01033990 0.00494278 -0.05245171
v -0.01033990 0.02538267 -0.02155630
v -0.01032775 0.02661672 -0.01970477
v -0.01032573 0.02661672 -0.02773416
v -0.01027108 0.02723635 -0.02773416
v -0.01010914 0.02785337 -0.02773416
v -0.00994315 0.02825952 -0.02773416
v -0.00502623 0.03134984 -0.04441622
v -0.00463352 0.03148262 -0.04503339
v -0.00879134 0.02949356 -0.02773416
v -0.00401612 0.03153729 -0.04627385
v -0.00401612 0.03147481 -0.04689103
v -0.00974477 0.02856933 -0.02340782
v -0.00943506 0.02895725 -0.02402500
v -0.00910713 0.02926706 -0.02402500
v -0.00879337 0.02949617 -0.02587652
v -0.00401612 0.03153990 -0.04565668
v 0.00401612 0.03153990 -0.04565668
v 0.00401612 0.03153729 -0.04627385
v 0.00401612 0.03147481 -0.04689103
v 0.00994315 0.02825952 -0.02773416
v 0.01010914 0.02785337 -0.02773416
v 0.00463352 0.03148262 -0.04503339
v 0.00502623 0.03134984 -0.04441622
v 0.00879337 0.02949617 -0.02773416
v 0.00910510 0.02926706 -0.02587652
v 0.00943506 0.02895725 -0.02649370
v 0.00974477 0.02856933 -0.02587652
v 0.01033990 0.00494278 -0.05245171
v 0.01027107 0.02723635 -0.02773416
v 0.01032573 0.02661672 -0.02773416
v 0.01032776 0.02661672 -0.01970477
v 0.01033990 0.02538267 -0.02155630
v -0.01033990 0.00494278 -0.02155630
v -0.01033180 0.02599970 -0.01970477
v -0.01032573 0.02599970 -0.01908760
v -0.01031763 0.02661672 -0.01908760
v -0.01027108 0.02723635 -0.01970477
v -0.01010914 0.02785337 -0.01970477
v -0.00994315 0.02825952 -0.01970477
v -0.00463352 0.03149304 -0.04441622
v -0.00834196 0.02973048 -0.02773416
v -0.00834196 0.02973308 -0.02525935
v -0.00834196 0.02973308 -0.01970477
v -0.00974477 0.02856933 -0.02032195
v -0.00943506 0.02895725 -0.01970477
v -0.00879742 0.02949617 -0.02402500
v -0.00910510 0.02926706 -0.02032195
v -0.00879742 0.02949617 -0.02032195
v -0.00401612 0.03153990 -0.04318187
v 0.00401612 0.03153990 -0.04318187
v 0.00463352 0.03149304 -0.04441622
v 0.00994315 0.02825952 -0.01970477
v 0.01010914 0.02785337 -0.01970477
v 0.00834196 0.02973048 -0.01970477
v 0.00834196 0.02973308 -0.02402500
v 0.00834196 0.02973308 -0.02587652
v 0.00834196 0.02973048 -0.02773416
v 0.00879742 0.02949617 -0.02464217
v 0.00910713 0.02926706 -0.02402500
v 0.00943506 0.02895985 -0.02402500
v 0.00974477 0.02856933 -0.02340782
v 0.01033990 0.00494278 -0.02155630
v 0.01027107 0.02723635 -0.01970477
v 0.01031763 0.02661672 -0.01908760
v 0.01032573 0.02599970 -0.01908760
v 0.01033180 0.02599970 -0.01970477
v -0.01032775 0.00494278 -0.01913037
v -0.01032775 0.01055327 -0.01908760
v -0.01032775 0.02352900 -0.01908760
v -0.00804035 0.02661672 0.00104086
v -0.01025893 0.02723635 -0.01908760
v -0.00803630 0.02694997 0.00102253
v -0.01009699 0.02785337 -0.01908760
v -0.00993505 0.02824910 -0.01908760
v -0.00973667 0.02855892 -0.01908760
v -0.00974275 0.02856933 -0.01970477
v -0.00401612 0.03153209 -0.04256469
v -0.00772456 0.02992834 -0.01908760
v -0.00527116 0.02997000 0.00069256
v -0.00519424 0.02996740 0.00127307
v -0.00494931 0.03001686 0.00104698
v -0.00488453 0.03001426 0.00146250
v -0.00879539 0.02949617 -0.01970477
v -0.00878325 0.02948836 -0.01908760
v -0.00834196 0.02971746 -0.01908760
v -0.00942696 0.02894683 -0.01908760
v -0.00909296 0.02925665 -0.01908760
v -0.00910308 0.02926446 -0.01970477
v -0.00339873 0.03153990 -0.04194752
v 0.00339873 0.03153990 -0.04194752
v 0.00401612 0.03153209 -0.04256469
v 0.00488453 0.03001426 0.00146250
v 0.00494931 0.03001686 0.00104698
v 0.00519424 0.02996740 0.00127307
v 0.00527116 0.02997000 0.00069256
v 0.00772456 0.02992834 -0.01908760
v 0.00772456 0.02994136 -0.01970477
v 0.00974274 0.02856933 -0.01970477
v 0.00993505 0.02824910 -0.01908760
v 0.01009699 0.02785337 -0.01908760
v 0.00834196 0.02971746 -0.01908760
v 0.00879337 0.02949617 -0.01970477
v 0.00879539 0.02949617 -0.02032195
v 0.00879742 0.02949617 -0.02402500
v 0.00910510 0.02926446 -0.02032195
v 0.00943506 0.02895725 -0.02032195
v 0.01032776 0.01055327 -0.01908760
v 0.01032978 0.00494278 -0.01965589
v 0.01025893 0.02723635 -0.01908760
v 0.00803630 0.02694997 0.00102253
v 0.00804035 0.02661672 0.00104086
v 0.01032776 0.02352900 -0.01908760
v -0.01032573 0.00494278 -0.01908760
v -0.00803832 0.02630170 0.00102864
v -0.00797152 0.02661672 0.00134640
v -0.01025691 0.00494278 -0.01851320
v -0.00799986 0.02734570 0.00069256
v -0.00783590 0.02661672 0.00192691
v -0.00781363 0.02723635 0.00192691
v -0.00795735 0.02718688 0.00126085
v -0.00991481 0.02821265 -0.01865374
v -0.00785209 0.02785337 0.00069256
v -0.00738044 0.02873335 0.00069256
v -0.00438251 0.03002207 0.00237299
v -0.00426916 0.03001426 0.00278851
v -0.00587034 0.02981379 0.00069256
v -0.00525294 0.02991533 0.00192691
v -0.00478737 0.03000385 0.00192691
v -0.00674685 0.02936339 0.00069256
v -0.00643713 0.02955084 0.00069256
v -0.00707275 0.02905358 0.00069256
v -0.00216191 0.03153990 -0.04070706
v -0.00370641 0.03001686 0.00347290
v 0.00216191 0.03153990 -0.04070706
v 0.00370641 0.03001686 0.00347290
v 0.00426916 0.03001426 0.00278851
v 0.00438251 0.03002207 0.00237299
v 0.00478737 0.03000385 0.00192691
v 0.00587034 0.02981379 0.00069256
v 0.00525294 0.02991533 0.00192691
v 0.00943303 0.02895464 -0.01970477
v 0.00942696 0.02894683 -0.01908760
v 0.00973465 0.02855892 -0.01908760
v 0.00991481 0.02821265 -0.01865374
v 0.00785209 0.02785337 0.00069256
v 0.00799986 0.02734570 0.00069256
v 0.00878325 0.02948836 -0.01908760
v 0.00643713 0.02955084 0.00069256
v 0.00910106 0.02926446 -0.01970477
v 0.01032573 0.00494278 -0.01908760
v 0.01032168 0.00494278 -0.01903871
v 0.00795735 0.02718688 0.00126085
v 0.00781363 0.02723635 0.00192691
v 0.00783590 0.02661672 0.00192691
v 0.00797152 0.02661672 0.00134640
v 0.00803832 0.02630170 0.00102864
v 0.01025083 0.00494278 -0.01847042
v -0.00767396 0.02661672 0.00254408
v -0.01025083 0.00494278 -0.01847042
v -0.00777314 0.02785337 0.00130973
v -0.00763347 0.02723635 0.00254408
v -0.00748975 0.02782213 0.00250742
v -0.00764562 0.02785337 0.00192691
v -0.00753631 0.02836366 0.00130973
v -0.00757679 0.02842614 0.00069256
v -0.00733793 0.02867347 0.00130973
v -0.00702822 0.02901192 0.00130973
v -0.00460721 0.02998302 0.00256853
v -0.00412746 0.02999604 0.00316126
v -0.00587034 0.02977474 0.00130973
v -0.00525294 0.02984243 0.00254408
v -0.00463352 0.02991012 0.00316126
v -0.00669422 0.02932174 0.00130973
v -0.00638450 0.02952481 0.00130973
v -0.00030769 0.03153990 -0.04008988
v -0.00339873 0.03002207 0.00360733
v -0.00264975 0.03002467 0.00420007
v -0.00154451 0.03002207 0.00474392
v -0.00092509 0.03002728 0.00480502
v -0.00395337 0.02994917 0.00371733
v -0.00339873 0.02999864 0.00391287
v -0.00306270 0.03001686 0.00405952
v 0.00030769 0.03153990 -0.04008988
v 0.00092509 0.03002728 0.00480502
v 0.00154451 0.03002207 0.00474392
v 0.00264975 0.03002467 0.00420007
v 0.00339873 0.03002207 0.00360733
v 0.00306270 0.03001686 0.00405952
v 0.00339873 0.02999864 0.00391287
v 0.00395337 0.02994917 0.00371733
v 0.00412746 0.02999604 0.00316126
v 0.00460721 0.02998302 0.00256853
v 0.00587034 0.02977474 0.00130973
v 0.00463352 0.02991012 0.00316126
v 0.00525294 0.02984243 0.00254408
v 0.00909093 0.02925665 -0.01908760
v 0.00674685 0.02936339 0.00069256
v 0.00707275 0.02905358 0.00069256
v 0.00738044 0.02873335 0.00069256
v 0.00757679 0.02842614 0.00069256
v 0.00753631 0.02836366 0.00130973
v 0.00777314 0.02785337 0.00130973
v 0.00638450 0.02952481 0.00130973
v 0.00764562 0.02785337 0.00192691
v 0.00748975 0.02782213 0.00250742
v 0.00763347 0.02723635 0.00254408
v 0.00767396 0.02661672 0.00254408
v 0.01023666 0.00494278 -0.01842154
v -0.00746951 0.02625224 0.00299016
v -0.00749784 0.02661672 0.00305738
v -0.01005650 0.00494278 -0.01784714
v -0.00747355 0.02826212 0.00192691
v -0.00747153 0.02723635 0.00299016
v -0.00743509 0.02759563 0.00289850
v -0.00742902 0.02818922 0.00227521
v -0.00735210 0.02800958 0.00269074
v -0.00726910 0.02856933 0.00192691
v -0.00695939 0.02894683 0.00192691
v -0.00587034 0.02970184 0.00192691
v -0.00591690 0.02956126 0.00257464
v -0.00525294 0.02972527 0.00316126
v -0.00463352 0.02978776 0.00377843
v -0.00661527 0.02925665 0.00192691
v -0.00630556 0.02948055 0.00192691
v -0.00030769 0.03002728 0.00485391
v -0.00227729 0.03000905 0.00460948
v -0.00186434 0.03001686 0.00470725
v -0.00092509 0.02999343 0.00511666
v -0.00030769 0.03000385 0.00515944
v -0.00401612 0.02979557 0.00439561
v -0.00339873 0.02992054 0.00439561
v -0.00282586 0.02999343 0.00440172
v 0.00030769 0.03002728 0.00485391
v 0.00030769 0.03000385 0.00515944
v 0.00092509 0.02999343 0.00511666
v 0.00186434 0.03001686 0.00470725
v 0.00227729 0.03000905 0.00460948
v 0.00282586 0.02999343 0.00440172
v 0.00339873 0.02992054 0.00439561
v 0.00401612 0.02979557 0.00439561
v 0.00463352 0.02978776 0.00377843
v 0.00587034 0.02970184 0.00192691
v 0.00525294 0.02972527 0.00316126
v 0.00591690 0.02956126 0.00257464
v 0.00669422 0.02932174 0.00130973
v 0.00702822 0.02901192 0.00130973
v 0.00733793 0.02867347 0.00130973
v 0.00747355 0.02826212 0.00192691
v 0.00630556 0.02948055 0.00192691
v 0.00742902 0.02818922 0.00227521
v 0.00735210 0.02800958 0.00269074
v 0.00743509 0.02759563 0.00289850
v 0.00747153 0.02723635 0.00299016
v 0.00749784 0.02661672 0.00305738
v 0.00746951 0.02625224 0.00299016
v 0.01005651 0.00494278 -0.01784714
v -0.00686020 0.02624963 0.00419396
v -0.00735615 0.02661672 0.00336291
v -0.00991683 0.00494278 -0.01753549
v -0.00990469 0.00494278 -0.01751105
v -0.00734400 0.02723635 0.00329569
v -0.00682174 0.02760604 0.00413285
v -0.00693105 0.02782994 0.00377843
v -0.00724886 0.02782213 0.00313070
v -0.00685616 0.02825691 0.00357678
v -0.00691891 0.02846519 0.00310626
v -0.00718004 0.02842614 0.00250742
v -0.00686020 0.02884790 0.00254408
v -0.00623471 0.02943629 0.00238521
v -0.00615374 0.02938162 0.00279462
v -0.00574484 0.02950138 0.00316126
v -0.00562541 0.02943889 0.00357678
v -0.00527116 0.02954043 0.00378454
v -0.00467198 0.02956646 0.00443227
v -0.00645940 0.02919677 0.00257464
v -0.00210725 0.02995959 0.00495779
v -0.00154451 0.02997781 0.00505556
v -0.00092509 0.02988148 0.00563607
v -0.00030769 0.02990491 0.00563607
v -0.00403434 0.02955605 0.00504334
v -0.00339873 0.02975391 0.00501889
v -0.00277930 0.02987628 0.00501889
v 0.00030769 0.02990491 0.00563607
v 0.00154451 0.02997781 0.00505556
v 0.00092509 0.02988148 0.00563607
v 0.00210725 0.02995959 0.00495779
v 0.00277930 0.02987628 0.00501889
v 0.00339873 0.02975391 0.00501889
v 0.00467198 0.02956646 0.00443227
v 0.00403434 0.02955605 0.00504334
v 0.00527116 0.02954043 0.00378454
v 0.00623471 0.02943629 0.00238521
v 0.00562541 0.02943889 0.00357678
v 0.00574484 0.02950138 0.00316126
v 0.00615374 0.02938162 0.00279462
v 0.00661527 0.02925665 0.00192691
v 0.00695939 0.02894683 0.00192691
v 0.00726910 0.02856933 0.00192691
v 0.00718004 0.02842614 0.00250742
v 0.00691891 0.02846519 0.00310626
v 0.00685616 0.02825691 0.00357678
v 0.00724886 0.02782213 0.00313070
v 0.00693105 0.02782994 0.00377843
v 0.00682174 0.02760604 0.00413285
v 0.00734400 0.02723635 0.00329569
v 0.00735615 0.02661672 0.00336291
v 0.00686020 0.02624963 0.00419396
v 0.00990469 0.00494278 -0.01751105
v -0.00630758 0.02622620 0.00487835
v -0.00638046 0.02661672 0.00496390
v -0.00669017 0.02661672 0.00455448
v -0.00689259 0.02661672 0.00424895
v -0.00714360 0.02661672 0.00377843
v -0.00968404 0.00494278 -0.01719941
v -0.00710109 0.02723635 0.00377843
v -0.00673268 0.02801739 0.00398619
v -0.00686425 0.02723635 0.00420007
v -0.00666790 0.02723635 0.00450560
v -0.00625900 0.02785337 0.00480502
v -0.00657478 0.02782994 0.00435894
v -0.00670636 0.02866826 0.00327125
v -0.00618613 0.02817360 0.00471336
v -0.00629139 0.02831679 0.00439561
v -0.00651406 0.02851205 0.00382121
v -0.00679948 0.02878282 0.00285573
v -0.00649584 0.02895985 0.00310626
v -0.00605455 0.02931132 0.00316126
v -0.00548978 0.02935818 0.00399231
v -0.00507886 0.02946493 0.00424895
v -0.00490275 0.02937901 0.00466448
v -0.00448980 0.02947013 0.00485391
v -0.00154451 0.02983983 0.00563607
v -0.00092509 0.02962894 0.00625324
v -0.00030769 0.02966539 0.00625324
v -0.00425296 0.02936599 0.00526943
v -0.00384204 0.02945451 0.00541609
v -0.00335622 0.02950658 0.00562996
v -0.00277930 0.02965238 0.00563607
v -0.00216191 0.02976693 0.00563607
v 0.00030769 0.02966539 0.00625324
v 0.00154451 0.02983983 0.00563607
v 0.00092509 0.02962894 0.00625324
v 0.00216191 0.02976693 0.00563607
v 0.00277930 0.02965238 0.00563607
v 0.00335622 0.02950658 0.00562996
v 0.00384204 0.02945451 0.00541609
v 0.00507886 0.02946493 0.00424895
v 0.00448980 0.02947013 0.00485391
v 0.00490275 0.02937901 0.00466448
v 0.00425296 0.02936599 0.00526943
v 0.00548978 0.02935818 0.00399231
v 0.00645940 0.02919677 0.00257464
v 0.00605455 0.02931132 0.00316126
v 0.00649584 0.02895985 0.00310626
v 0.00686020 0.02884790 0.00254408
v 0.00679948 0.02878282 0.00285573
v 0.00670636 0.02866826 0.00327125
v 0.00651406 0.02851205 0.00382121
v 0.00629139 0.02831679 0.00439561
v 0.00618613 0.02817360 0.00471336
v 0.00673268 0.02801739 0.00398619
v 0.00686425 0.02723635 0.00420007
v 0.00710109 0.02723635 0.00377843
v 0.00657478 0.02782994 0.00435894
v 0.00625900 0.02785337 0.00480502
v 0.00666790 0.02723635 0.00450560
v 0.00714360 0.02661672 0.00377843
v 0.00689259 0.02661672 0.00424895
v 0.00669017 0.02661672 0.00455448
v 0.00638046 0.02661672 0.00496390
v 0.00630758 0.02622620 0.00487835
v 0.00968404 0.00494278 -0.01719941
v 0.00988849 0.00494278 -0.01748661
v -0.00573067 0.02622620 0.00550775
v -0.00613147 0.02661672 0.00527554
v -0.00939862 0.00494278 -0.01685721
v -0.00635819 0.02723635 0.00493334
v -0.00610516 0.02723635 0.00523888
v -0.00599990 0.02785337 0.00511666
v -0.00616791 0.02876719 0.00407174
v -0.00629341 0.02888435 0.00366233
v -0.00559909 0.02821265 0.00536720
v -0.00580557 0.02840010 0.00493946
v -0.00559909 0.02881406 0.00475614
v -0.00604645 0.02862400 0.00439561
v -0.00589666 0.02912127 0.00382732
v -0.00573674 0.02893121 0.00439561
v -0.00527116 0.02925925 0.00443227
v -0.00522460 0.02893902 0.00498223
v -0.00499991 0.02882447 0.00537331
v -0.00467198 0.02926967 0.00504334
v -0.00154046 0.02954303 0.00629602
v -0.00133196 0.02941546 0.00658322
v -0.00092509 0.02943369 0.00660766
v -0.00030769 0.02945451 0.00663821
v -0.00458696 0.02892080 0.00559941
v -0.00435013 0.02879844 0.00595993
v -0.00403434 0.02922020 0.00562996
v -0.00353435 0.02932174 0.00583161
v -0.00312343 0.02941286 0.00595993
v -0.00277930 0.02945451 0.00603326
v -0.00216191 0.02952220 0.00614936
v 0.00030769 0.02945451 0.00663821
v 0.00154046 0.02954303 0.00629602
v 0.00092509 0.02943369 0.00660766
v 0.00133196 0.02941546 0.00658322
v 0.00216191 0.02952220 0.00614936
v 0.00277930 0.02945451 0.00603326
v 0.00312343 0.02941286 0.00595993
v 0.00353435 0.02932174 0.00583161
v 0.00467198 0.02926967 0.00504334
v 0.00499991 0.02882447 0.00537331
v 0.00522460 0.02893902 0.00498223
v 0.00559909 0.02881406 0.00475614
v 0.00527116 0.02925925 0.00443227
v 0.00403434 0.02922020 0.00562996
v 0.00435013 0.02879844 0.00595993
v 0.00458696 0.02892080 0.00559941
v 0.00616791 0.02876719 0.00407174
v 0.00589666 0.02912127 0.00382732
v 0.00573674 0.02893121 0.00439561
v 0.00629341 0.02888435 0.00366233
v 0.00580557 0.02840010 0.00493946
v 0.00559909 0.02821265 0.00536720
v 0.00599990 0.02785337 0.00511666
v 0.00604645 0.02862400 0.00439561
v 0.00610516 0.02723635 0.00523888
v 0.00635819 0.02723635 0.00493334
v 0.00613147 0.02661672 0.00527554
v 0.00573067 0.02622620 0.00550775
v 0.00937433 0.00494278 -0.01683277
v -0.00512744 0.02622620 0.00609437
v -0.00553229 0.02661672 0.00591716
v -0.00937433 0.00494278 -0.01683277
v -0.00579747 0.02723635 0.00557496
v -0.00569018 0.02785337 0.00546497
v -0.00537035 0.02785337 0.00577050
v -0.00496550 0.02818922 0.00595993
v -0.00518817 0.02840791 0.00557496
v -0.00541084 0.02862661 0.00516555
v -0.00476105 0.02860057 0.00578883
v -0.00174491 0.02937901 0.00653433
v -0.00156677 0.02910044 0.00687653
v -0.00138864 0.02882187 0.00721261
v -0.00092509 0.02916553 0.00691930
v -0.00030769 0.02919677 0.00694986
v -0.00458696 0.02842614 0.00606992
v -0.00404649 0.02848862 0.00639379
v -0.00359710 0.02870731 0.00649767
v -0.00401612 0.02889216 0.00606381
v -0.00336027 0.02907440 0.00622880
v -0.00318415 0.02882968 0.00660766
v -0.00277930 0.02922280 0.00633879
v -0.00216191 0.02932434 0.00646100
v 0.00030769 0.02919677 0.00694986
v 0.00174491 0.02937901 0.00653433
v 0.00092509 0.02916553 0.00691930
v 0.00138864 0.02882187 0.00721261
v 0.00156677 0.02910044 0.00687653
v 0.00216191 0.02932434 0.00646100
v 0.00277930 0.02922280 0.00633879
v 0.00318415 0.02882968 0.00660766
v 0.00336027 0.02907440 0.00622880
v 0.00401612 0.02889216 0.00606381
v 0.00476105 0.02860057 0.00578883
v 0.00518817 0.02840791 0.00557496
v 0.00541084 0.02862661 0.00516555
v 0.00359710 0.02870731 0.00649767
v 0.00404649 0.02848862 0.00639379
v 0.00458696 0.02842614 0.00606992
v 0.00496550 0.02818922 0.00595993
v 0.00537035 0.02785337 0.00577050
v 0.00569018 0.02785337 0.00546497
v 0.00579747 0.02723635 0.00557496
v 0.00553229 0.02661672 0.00591716
v 0.00512744 0.02622620 0.00609437
v 0.00934397 0.00494278 -0.01682055
v 0.00446753 0.02623141 0.00665044
v 0.00373273 0.02629129 0.00719428
v -0.00446753 0.02623141 0.00665044
v -0.00485012 0.02661672 0.00648545
v -0.00518614 0.02723635 0.00614936
v -0.00549586 0.02723635 0.00588661
v -0.00895936 0.00494278 -0.01669222
v -0.00197567 0.02627306 0.00782368
v -0.00339873 0.02623401 0.00726150
v -0.00373273 0.02629129 0.00719428
v -0.00506266 0.02785337 0.00604548
v -0.00462340 0.02787160 0.00637546
v -0.00427118 0.02809029 0.00652822
v -0.00216191 0.02901713 0.00680320
v -0.00180159 0.02876459 0.00716373
v -0.00157487 0.02852247 0.00737760
v -0.00092509 0.02847040 0.00751815
v -0.00092509 0.02885832 0.00724928
v -0.00030769 0.02888695 0.00727372
v -0.00386026 0.02829597 0.00665044
v -0.00339265 0.02848862 0.00676043
v -0.00281979 0.02847561 0.00702930
v -0.00216191 0.02869690 0.00711485
v -0.00277930 0.02891299 0.00669321
v 0.00030769 0.02888695 0.00727372
v 0.00092509 0.02885832 0.00724928
v 0.00216191 0.02901713 0.00680320
v 0.00092509 0.02847040 0.00751815
v 0.00157487 0.02852247 0.00737760
v 0.00180159 0.02876459 0.00716373
v 0.00277930 0.02891299 0.00669321
v 0.00216191 0.02869690 0.00711485
v 0.00281979 0.02847561 0.00702930
v 0.00339265 0.02848862 0.00676043
v 0.00386026 0.02829597 0.00665044
v 0.00427118 0.02809029 0.00652822
v 0.00506266 0.02785337 0.00604548
v 0.00462340 0.02787160 0.00637546
v 0.00549586 0.02723635 0.00588661
v 0.00518614 0.02723635 0.00614936
v 0.00485012 0.02661672 0.00648545
v 0.00895936 0.00494278 -0.01669222
v 0.00339873 0.02623401 0.00726150
v 0.00197567 0.02627306 0.00782368
v 0.00454041 0.02661672 0.00669932
v 0.00405459 0.02661672 0.00701096
v 0.00374487 0.02661672 0.00720039
v 0.00339873 0.02661672 0.00734705
v 0.00277930 0.02661672 0.00759147
v 0.00234206 0.02661672 0.00775035
v -0.00454041 0.02661672 0.00669932
v -0.00480558 0.02723635 0.00646100
v -0.00838852 0.00494278 -0.01665556
v -0.00092509 0.02619236 0.00791534
v -0.00154451 0.02622880 0.00787257
v -0.00092509 0.02661672 0.00804366
v -0.00154451 0.02661672 0.00795200
v -0.00203235 0.02661672 0.00784201
v -0.00234206 0.02661672 0.00775035
v -0.00277930 0.02661672 0.00759147
v -0.00339873 0.02661672 0.00734705
v -0.00374487 0.02661672 0.00720039
v -0.00405459 0.02661672 0.00701096
v -0.00440883 0.02767894 0.00661377
v -0.00404649 0.02787160 0.00676043
v -0.00216191 0.02838709 0.00732261
v -0.00158904 0.02786379 0.00771980
v -0.00092509 0.02806426 0.00775646
v -0.00030769 0.02812934 0.00778090
v -0.00030769 0.02847040 0.00756703
v -0.00342707 0.02789243 0.00708429
v -0.00305055 0.02812414 0.00716373
v -0.00263963 0.02827253 0.00724928
v 0.00030769 0.02847040 0.00756703
v 0.00030769 0.02812934 0.00778090
v 0.00092509 0.02806426 0.00775646
v 0.00216191 0.02838709 0.00732261
v 0.00158904 0.02786379 0.00771980
v 0.00263963 0.02827253 0.00724928
v 0.00305055 0.02812414 0.00716373
v 0.00342707 0.02789243 0.00708429
v 0.00404649 0.02787160 0.00676043
v 0.00440883 0.02767894 0.00661377
v 0.00480558 0.02723635 0.00646100
v 0.00154451 0.02622880 0.00787257
v 0.00092509 0.02619236 0.00791534
v 0.00834196 0.00494278 -0.01665556
v 0.00203235 0.02661672 0.00784201
v 0.00154451 0.02661672 0.00795200
v 0.00092509 0.02661672 0.00804366
v 0.00449587 0.02723635 0.00667488
v 0.00373070 0.02700464 0.00719428
v 0.00277930 0.02723635 0.00755481
v 0.00217000 0.02727540 0.00774424
v 0.00196960 0.02709576 0.00782368
v -0.00449587 0.02723635 0.00667488
v -0.00373070 0.02700464 0.00719428
v -0.00092509 0.00494278 -0.01664945
v -0.00030769 0.02618455 0.00793367
v -0.00030769 0.02661672 0.00808644
v -0.00030769 0.02723635 0.00804366
v -0.00092509 0.02723635 0.00799478
v -0.00158904 0.02727540 0.00788478
v -0.00196960 0.02709576 0.00782368
v -0.00217000 0.02727540 0.00774424
v -0.00277930 0.02723635 0.00755481
v -0.00365378 0.02741859 0.00715151
v -0.00216191 0.02785337 0.00757925
v -0.00182588 0.02750711 0.00779313
v -0.00141496 0.02766332 0.00783590
v -0.00092509 0.02775444 0.00787257
v -0.00030769 0.02781953 0.00789701
v -0.00324286 0.02771279 0.00724317
v -0.00281979 0.02789243 0.00734705
v 0.00030769 0.02781953 0.00789701
v 0.00092509 0.02775444 0.00787257
v 0.00141496 0.02766332 0.00783590
v 0.00216191 0.02785337 0.00757925
v 0.00182588 0.02750711 0.00779313
v 0.00281979 0.02789243 0.00734705
v 0.00324286 0.02771279 0.00724317
v 0.00365378 0.02741859 0.00715151
v 0.00030769 0.02661672 0.00808644
v 0.00030769 0.02618455 0.00793367
v 0.00335217 0.00494278 -0.01664945
v 0.00092509 0.02723635 0.00799478
v 0.00158904 0.02727540 0.00788478
v 0.00030769 0.02723635 0.00804366
v 0.00396957 0.02722073 0.00700485
v 0.00342707 0.02722073 0.00728594
v -0.00396957 0.02722073 0.00700485
v -0.00342707 0.02722073 0.00728594
f 1 2 6
f 1 6 14
f 1 14 28
f 1 28 46
f 1 46 70
f 1 70 101
f 1 101 104
f 1 104 103
f 1 103 133
f 1 133 167
f 1 167 213
f 1 213 255
f 1 255 256
f 1 256 262
f 1 262 313
f 1 313 361
f 1 361 413
f 1 413 478
f 1 478 477
f 1 477 536
f 1 536 582
f 1 582 624
f 1 624 669
f 1 669 707
f 1 707 680
f 1 680 635
f 1 635 589
f 1 589 539
f 1 539 481
f 1 481 419
f 1 419 365
f 1 365 364
f 1 364 316
f 1 316 264
f 1 264 221
f 1 221 218
f 1 218 172
f 1 172 138
f 1 138 105
f 1 105 73
f 1 73 72
f 1 72 71
f 1 71 47
f 1 47 29
f 1 29 15
f 1 15 7
f 1 7 3
f 1 3 4
f 1 4 5
f 1 5 2
f 2 5 13
f 2 13 6
f 3 7 8
f 3 8 4
f 4 8 9
f 4 9 10
f 4 10 11
f 4 11 5
f 5 11 12
f 5 12 13
f 6 13 14
f 7 15 8
f 8 15 16
f 8 16 17
f 8 17 9
f 9 17 18
f 9 18 19
f 9 19 10
f 10 19 20
f 10 20 21
f 10 21 22
f 10 22 11
f 11 22 23
f 11 23 24
f 11 24 12
f 12 24 25
f 12 25 26
f 12 26 13
f 13 26 27
f 13 27 14
f 14 27 28
f 15 29 16
f 16 30 17
f 16 29 47
f 16 47 30
f 17 30 31
f 17 31 32
f 17 32 33
f 17 33 18
f 18 33 34
f 18 34 35
f 18 35 19
f 19 35 20
f 20 35 36
f 20 36 37
f 20 37 21
f 21 37 38
f 21 38 22
f 22 38 23
f 23 38 39
f 23 39 40
f 23 40 24
f 24 40 25
f 25 41 26
f 25 40 42
f 25 42 41
f 26 41 43
f 26 43 44
f 26 44 45
f 26 45 27
f 27 45 46
f 27 46 28
f 30 48 31
f 30 47 71
f 30 71 48
f 31 48 49
f 31 49 50
f 31 50 51
f 31 51 52
f 31 52 32
f 32 52 33
f 33 52 51
f 33 51 53
f 33 53 54
f 33 54 34
f 34 54 55
f 34 55 56
f 34 56 35
f 35 56 36
f 36 56 57
f 36 57 58
f 36 58 37
f 37 58 87
f 37 87 121
f 37 121 154
f 37 154 194
f 37 194 237
f 37 237 280
f 37 280 288
f 37 288 239
f 37 239 195
f 37 195 155
f 37 155 122
f 37 122 88
f 37 88 59
f 37 59 38
f 38 59 39
f 39 60 40
f 39 59 61
f 39 61 60
f 40 60 42
f 41 62 63
f 41 63 43
f 41 42 64
f 41 64 65
f 41 65 62
f 42 60 66
f 42 66 64
f 43 63 44
f 44 67 45
f 44 63 62
f 44 62 68
f 44 68 69
f 44 69 67
f 45 67 101
f 45 101 70
f 45 70 46
f 48 71 72
f 48 72 49
f 49 72 73
f 49 73 105
f 49 105 74
f 49 74 50
f 50 74 75
f 50 75 51
f 51 76 77
f 51 77 78
f 51 78 79
f 51 79 80
f 51 80 53
f 51 75 81
f 51 81 82
f 51 82 83
f 51 83 76
f 53 80 84
f 53 84 85
f 53 85 54
f 54 85 55
f 55 85 57
f 55 57 56
f 57 85 86
f 57 86 58
f 58 86 87
f 59 88 89
f 59 89 61
f 60 61 66
f 61 89 90
f 61 90 66
f 62 91 68
f 62 65 92
f 62 92 93
f 62 93 94
f 62 94 95
f 62 95 96
f 62 96 97
f 62 97 98
f 62 98 99
f 62 99 91
f 64 66 90
f 64 90 65
f 65 90 100
f 65 100 92
f 67 69 104
f 67 104 101
f 68 91 102
f 68 102 69
f 69 102 103
f 69 103 104
f 74 105 138
f 74 138 106
f 74 106 107
f 74 107 108
f 74 108 109
f 74 109 110
f 74 110 75
f 75 110 111
f 75 111 81
f 76 112 113
f 76 113 78
f 76 78 77
f 76 83 114
f 76 114 112
f 78 115 116
f 78 116 79
f 78 113 115
f 79 116 84
f 79 84 80
f 81 111 117
f 81 117 118
f 81 118 82
f 82 118 119
f 82 119 83
f 83 119 120
f 83 120 114
f 84 116 86
f 84 86 85
f 86 116 115
f 86 115 87
f 87 115 121
f 88 122 123
f 88 123 89
f 89 100 90
f 89 123 124
f 89 124 100
f 91 99 125
f 91 125 126
f 91 126 102
f 92 100 93
f 93 100 124
f 93 124 94
f 94 124 123
f 94 123 127
f 94 127 96
f 94 96 95
f 96 127 128
f 96 128 129
f 96 129 97
f 97 129 130
f 97 130 98
f 98 130 131
f 98 131 99
f 99 131 132
f 99 132 125
f 102 133 103
f 102 126 134
f 102 134 135
f 102 135 136
f 102 136 137
f 102 137 167
f 102 167 133
f 106 138 139
f 106 139 107
f 107 139 140
f 107 140 141
f 107 141 142
f 107 142 109
f 107 109 108
f 109 142 143
f 109 143 110
f 110 143 144
f 110 144 111
f 111 144 149
f 111 149 117
f 112 145 113
f 112 114 146
f 112 146 147
f 112 147 148
f 112 148 145
f 113 145 115
f 114 120 146
f 115 145 121
f 117 149 150
f 117 150 118
f 118 150 119
f 119 151 120
f 119 150 152
f 119 152 153
f 119 153 151
f 120 151 146
f 121 145 154
f 122 155 156
f 122 156 123
f 123 156 127
f 125 132 166
f 125 166 157
f 125 157 158
f 125 158 126
f 126 158 168
f 126 168 134
f 127 156 128
f 128 156 159
f 128 159 160
f 128 160 161
f 128 161 162
f 128 162 129
f 129 162 161
f 129 161 163
f 129 163 130
f 130 163 164
f 130 164 165
f 130 165 131
f 131 165 132
f 132 165 166
f 134 168 136
f 134 136 135
f 136 168 169
f 136 169 170
f 136 170 171
f 136 171 137
f 137 171 167
f 138 172 139
f 139 172 173
f 139 173 174
f 139 174 140
f 140 174 175
f 140 175 141
f 141 176 142
f 141 175 177
f 141 177 176
f 142 176 178
f 142 178 143
f 143 178 144
f 144 178 179
f 144 179 180
f 144 180 181
f 144 181 149
f 145 182 154
f 145 148 183
f 145 183 184
f 145 184 185
f 145 185 186
f 145 186 187
f 145 187 182
f 146 151 147
f 147 151 153
f 147 153 148
f 148 153 188
f 148 188 189
f 148 189 190
f 148 190 183
f 149 181 150
f 150 181 180
f 150 180 191
f 150 191 192
f 150 192 193
f 150 193 152
f 152 193 188
f 152 188 153
f 154 182 194
f 155 195 196
f 155 196 156
f 156 196 197
f 156 197 198
f 156 198 199
f 156 199 200
f 156 200 201
f 156 201 202
f 156 202 159
f 157 203 248
f 157 248 204
f 157 204 205
f 157 205 158
f 157 166 203
f 158 205 214
f 158 214 168
f 159 202 201
f 159 201 206
f 159 206 207
f 159 207 208
f 159 208 160
f 160 208 209
f 160 209 163
f 160 163 161
f 163 209 164
f 164 209 208
f 164 208 210
f 164 210 211
f 164 211 165
f 165 211 203
f 165 203 166
f 167 171 212
f 167 212 213
f 168 214 169
f 169 214 215
f 169 215 216
f 169 216 170
f 170 217 171
f 170 216 217
f 171 217 212
f 172 218 173
f 173 218 175
f 173 175 174
f 175 219 220
f 175 220 177
f 175 218 221
f 175 221 219
f 176 177 222
f 176 222 178
f 177 220 223
f 177 223 224
f 177 224 225
f 177 225 222
f 178 226 179
f 178 222 227
f 178 227 226
f 179 226 180
f 180 226 228
f 180 228 191
f 182 187 229
f 182 229 230
f 182 230 194
f 183 190 231
f 183 231 184
f 184 231 185
f 185 187 186
f 185 231 232
f 185 232 233
f 185 233 187
f 187 233 229
f 188 193 192
f 188 192 189
f 189 192 234
f 189 234 235
f 189 235 190
f 190 235 231
f 191 228 236
f 191 236 234
f 191 234 192
f 194 230 238
f 194 238 237
f 195 239 240
f 195 240 241
f 195 241 196
f 196 241 242
f 196 242 197
f 197 242 243
f 197 243 199
f 197 199 198
f 199 244 200
f 199 243 245
f 199 245 244
f 200 244 201
f 201 244 206
f 203 211 246
f 203 246 247
f 203 247 248
f 204 248 249
f 204 249 205
f 205 249 250
f 205 250 251
f 205 251 214
f 206 252 207
f 206 244 253
f 206 253 252
f 207 252 301
f 207 301 254
f 207 254 210
f 207 210 208
f 210 254 211
f 211 254 246
f 212 255 213
f 212 217 216
f 212 216 256
f 212 256 255
f 214 251 215
f 215 251 257
f 215 257 258
f 215 258 259
f 215 259 260
f 215 260 216
f 216 260 261
f 216 261 262
f 216 262 256
f 219 263 223
f 219 223 220
f 219 221 264
f 219 264 263
f 222 225 265
f 222 265 227
f 223 263 224
f 224 263 266
f 224 266 267
f 224 267 268
f 224 268 265
f 224 265 225
f 226 227 269
f 226 269 270
f 226 270 228
f 227 265 269
f 228 270 269
f 228 269 271
f 228 271 272
f 228 272 236
f 229 233 230
f 230 233 273
f 230 273 274
f 230 274 238
f 231 235 275
f 231 275 232
f 232 276 277
f 232 277 273
f 232 273 233
f 232 275 324
f 232 324 276
f 234 236 272
f 234 272 278
f 234 278 279
f 234 279 235
f 235 279 275
f 237 238 281
f 237 281 282
f 237 282 283
f 237 283 284
f 237 284 280
f 238 274 285
f 238 285 286
f 238 286 287
f 238 287 281
f 239 288 289
f 239 289 290
f 239 290 291
f 239 291 292
f 239 292 240
f 240 292 293
f 240 293 294
f 240 294 295
f 240 295 296
f 240 296 241
f 241 296 297
f 241 297 243
f 241 243 242
f 243 297 245
f 244 245 298
f 244 298 253
f 245 297 299
f 245 299 300
f 245 300 347
f 245 347 298
f 246 254 247
f 247 254 301
f 247 301 302
f 247 302 303
f 247 303 304
f 247 304 248
f 248 304 249
f 249 304 305
f 249 305 306
f 249 306 250
f 250 306 307
f 250 307 251
f 251 307 257
f 252 253 302
f 252 302 301
f 253 298 308
f 253 308 302
f 257 307 258
f 258 307 309
f 258 309 310
f 258 310 311
f 258 311 312
f 258 312 259
f 259 261 260
f 259 312 261
f 261 312 262
f 262 312 313
f 263 314 315
f 263 315 266
f 263 264 314
f 264 316 314
f 265 268 317
f 265 317 269
f 266 315 318
f 266 318 319
f 266 319 267
f 267 320 268
f 267 319 321
f 267 321 320
f 268 320 317
f 269 317 271
f 271 317 322
f 271 322 323
f 271 323 272
f 272 323 278
f 273 277 274
f 274 277 285
f 275 279 324
f 276 324 325
f 276 325 326
f 276 326 277
f 277 326 327
f 277 327 285
f 278 323 328
f 278 328 329
f 278 329 279
f 279 329 324
f 280 284 330
f 280 330 338
f 280 338 288
f 281 287 282
f 282 287 331
f 282 331 332
f 282 332 283
f 283 332 333
f 283 333 334
f 283 334 284
f 284 334 330
f 285 327 335
f 285 335 336
f 285 336 286
f 286 336 337
f 286 337 287
f 287 337 331
f 288 338 289
f 289 338 339
f 289 339 290
f 290 339 340
f 290 340 341
f 290 341 291
f 291 341 342
f 291 342 293
f 291 293 292
f 293 342 343
f 293 343 294
f 294 343 344
f 294 344 295
f 295 299 296
f 295 344 345
f 295 345 346
f 295 346 299
f 296 299 297
f 298 347 308
f 299 346 348
f 299 348 300
f 300 349 347
f 300 348 349
f 302 308 350
f 302 350 351
f 302 351 303
f 303 351 304
f 304 351 352
f 304 352 306
f 304 306 305
f 306 352 353
f 306 353 307
f 307 353 309
f 308 347 354
f 308 354 350
f 309 353 355
f 309 355 310
f 310 355 356
f 310 356 357
f 310 357 311
f 311 357 358
f 311 358 359
f 311 359 312
f 312 359 360
f 312 360 313
f 313 360 361
f 314 362 363
f 314 363 315
f 314 316 364
f 314 364 365
f 314 365 362
f 315 363 366
f 315 366 318
f 317 320 322
f 318 366 319
f 319 366 367
f 319 367 368
f 319 368 369
f 319 369 321
f 320 321 370
f 320 370 371
f 320 371 372
f 320 372 322
f 321 369 370
f 322 372 373
f 322 373 323
f 323 373 328
f 324 329 374
f 324 374 325
f 325 374 375
f 325 375 376
f 325 376 326
f 326 376 377
f 326 377 378
f 326 378 327
f 327 378 379
f 327 379 335
f 328 373 380
f 328 380 374
f 328 374 329
f 330 334 339
f 330 339 338
f 331 337 381
f 331 381 382
f 331 382 332
f 332 382 333
f 333 382 383
f 333 383 384
f 333 384 334
f 334 384 388
f 334 388 339
f 335 379 385
f 335 385 386
f 335 386 336
f 336 386 387
f 336 387 337
f 337 387 381
f 339 388 340
f 340 389 341
f 340 388 390
f 340 390 389
f 341 389 342
f 342 389 391
f 342 391 343
f 343 391 392
f 343 392 344
f 344 392 393
f 344 393 345
f 345 394 346
f 345 393 395
f 345 395 394
f 346 394 396
f 346 396 348
f 347 349 397
f 347 397 354
f 348 398 399
f 348 399 349
f 348 396 398
f 349 399 400
f 349 400 397
f 350 354 401
f 350 401 402
f 350 402 351
f 351 402 352
f 352 402 403
f 352 403 353
f 353 403 355
f 354 397 401
f 355 404 405
f 355 405 406
f 355 406 356
f 355 403 404
f 356 406 407
f 356 407 357
f 357 407 408
f 357 408 409
f 357 409 410
f 357 410 358
f 358 410 359
f 359 410 411
f 359 411 360
f 360 411 412
f 360 412 413
f 360 413 361
f 362 414 415
f 362 415 416
f 362 416 417
f 362 417 418
f 362 418 363
f 362 365 419
f 362 419 414
f 363 418 420
f 363 420 366
f 366 420 367
f 367 421 368
f 367 420 422
f 367 422 423
f 367 423 424
f 367 424 425
f 367 425 421
f 368 421 370
f 368 370 369
f 370 426 371
f 370 421 427
f 370 427 428
f 370 428 429
f 370 429 426
f 371 426 430
f 371 430 372
f 372 430 373
f 373 430 431
f 373 431 380
f 374 380 375
f 375 431 432
f 375 432 377
f 375 377 376
f 375 380 431
f 377 432 433
f 377 433 378
f 378 433 434
f 378 434 379
f 379 435 436
f 379 436 385
f 379 434 435
f 381 387 437
f 381 437 382
f 382 437 383
f 383 438 439
f 383 439 384
f 383 437 438
f 384 439 445
f 384 445 388
f 385 436 440
f 385 440 441
f 385 441 386
f 386 441 442
f 386 442 443
f 386 443 387
f 387 443 444
f 387 444 437
f 388 445 390
f 389 390 446
f 389 446 391
f 390 445 447
f 390 447 446
f 391 446 392
f 392 446 448
f 392 448 449
f 392 449 393
f 393 449 450
f 393 450 451
f 393 451 395
f 394 452 396
f 394 395 453
f 394 453 454
f 394 454 452
f 395 451 455
f 395 455 453
f 396 452 456
f 396 456 398
f 397 400 457
f 397 457 401
f 398 458 400
f 398 400 399
f 398 456 458
f 400 458 459
f 400 459 457
f 401 457 460
f 401 460 402
f 402 460 403
f 403 460 404
f 404 460 461
f 404 461 405
f 405 461 462
f 405 462 406
f 406 462 463
f 406 463 464
f 406 464 465
f 406 465 466
f 406 466 408
f 406 408 407
f 408 466 409
f 409 467 468
f 409 468 410
f 409 466 469
f 409 469 470
f 409 470 471
f 409 471 467
f 410 468 411
f 411 468 472
f 411 472 412
f 412 472 473
f 412 473 474
f 412 474 475
f 412 475 476
f 412 476 477
f 412 477 478
f 412 478 413
f 414 479 480
f 414 480 415
f 414 419 481
f 414 481 479
f 415 480 482
f 415 482 416
f 416 423 417
f 416 482 423
f 417 422 420
f 417 420 418
f 417 423 422
f 421 425 427
f 423 482 424
f 424 482 483
f 424 483 484
f 424 484 427
f 424 427 425
f 426 429 485
f 426 485 486
f 426 486 430
f 427 484 487
f 427 487 488
f 427 488 489
f 427 489 490
f 427 490 485
f 427 485 428
f 428 485 429
f 430 486 431
f 431 486 432
f 432 486 491
f 432 491 433
f 433 491 485
f 433 485 492
f 433 492 493
f 433 493 435
f 433 435 434
f 435 493 489
f 435 489 494
f 435 494 495
f 435 495 496
f 435 496 440
f 435 440 436
f 437 444 497
f 437 497 438
f 438 497 498
f 438 498 499
f 438 499 500
f 438 500 439
f 439 500 508
f 439 508 445
f 440 501 502
f 440 502 503
f 440 503 504
f 440 504 441
f 440 496 501
f 441 504 505
f 441 505 442
f 442 505 443
f 443 505 506
f 443 506 507
f 443 507 444
f 444 507 497
f 445 508 447
f 446 447 509
f 446 509 448
f 447 508 510
f 447 510 511
f 447 511 509
f 448 509 512
f 448 512 449
f 449 512 513
f 449 513 514
f 449 514 450
f 450 514 451
f 451 514 515
f 451 515 455
f 452 454 456
f 453 455 454
f 454 455 516
f 454 516 517
f 454 517 518
f 454 518 519
f 454 519 520
f 454 520 456
f 455 515 521
f 455 521 522
f 455 522 523
f 455 523 516
f 456 524 525
f 456 525 458
f 456 520 526
f 456 526 524
f 457 459 460
f 458 525 527
f 458 527 459
f 459 461 460
f 459 527 461
f 461 527 462
f 462 527 524
f 462 524 463
f 463 524 464
f 464 524 465
f 465 519 528
f 465 528 529
f 465 529 530
f 465 530 470
f 465 470 469
f 465 469 466
f 465 524 531
f 465 531 519
f 467 471 473
f 467 473 468
f 468 473 472
f 470 530 532
f 470 532 533
f 470 533 471
f 471 474 473
f 471 533 474
f 474 533 475
f 475 533 534
f 475 534 476
f 476 534 535
f 476 535 536
f 476 536 477
f 479 537 538
f 479 538 480
f 479 481 539
f 479 539 537
f 480 540 483
f 480 483 482
f 480 538 540
f 483 540 541
f 483 541 484
f 484 541 487
f 485 491 486
f 485 490 489
f 485 489 492
f 487 541 542
f 487 542 543
f 487 543 544
f 487 544 495
f 487 495 545
f 487 545 488
f 488 545 489
f 489 545 495
f 489 495 494
f 489 493 492
f 495 544 546
f 495 546 502
f 495 502 501
f 495 501 496
f 497 507 547
f 497 547 498
f 498 547 548
f 498 548 549
f 498 549 550
f 498 550 499
f 499 550 551
f 499 551 500
f 500 551 560
f 500 560 508
f 502 546 543
f 502 543 552
f 502 552 553
f 502 553 554
f 502 554 555
f 502 555 503
f 503 555 504
f 504 555 556
f 504 556 505
f 505 556 557
f 505 557 558
f 505 558 559
f 505 559 506
f 506 559 547
f 506 547 507
f 508 560 510
f 509 511 561
f 509 561 512
f 510 560 562
f 510 562 511
f 511 562 563
f 511 563 564
f 511 564 561
f 512 561 513
f 513 561 565
f 513 565 514
f 514 565 566
f 514 566 567
f 514 567 568
f 514 568 515
f 515 568 569
f 515 569 521
f 516 523 517
f 517 523 522
f 517 522 570
f 517 570 571
f 517 571 529
f 517 529 572
f 517 572 519
f 517 519 518
f 519 531 524
f 519 524 526
f 519 526 520
f 519 572 528
f 521 569 522
f 522 569 573
f 522 573 574
f 522 574 575
f 522 575 576
f 522 576 570
f 524 527 525
f 528 572 529
f 529 571 576
f 529 576 577
f 529 577 578
f 529 578 530
f 530 578 532
f 532 578 579
f 532 579 534
f 532 534 533
f 534 579 580
f 534 580 535
f 535 580 581
f 535 581 536
f 536 581 583
f 536 583 584
f 536 584 582
f 537 585 538
f 537 539 585
f 538 585 586
f 538 586 587
f 538 587 588
f 538 588 540
f 539 589 590
f 539 590 591
f 539 591 592
f 539 592 585
f 540 588 541
f 541 588 542
f 542 588 593
f 542 593 543
f 543 546 544
f 543 593 594
f 543 594 595
f 543 595 552
f 547 559 596
f 547 596 548
f 548 597 549
f 548 596 597
f 549 598 599
f 549 599 600
f 549 600 550
f 549 597 598
f 550 600 551
f 551 600 601
f 551 601 607
f 551 607 560
f 552 595 553
f 553 595 602
f 553 602 554
f 554 602 603
f 554 603 557
f 554 557 555
f 555 557 556
f 557 603 604
f 557 604 605
f 557 605 606
f 557 606 558
f 558 606 559
f 559 606 596
f 560 607 608
f 560 608 562
f 561 564 609
f 561 609 565
f 562 608 563
f 563 608 610
f 563 610 611
f 563 611 612
f 563 612 564
f 564 612 609
f 565 609 613
f 565 613 566
f 566 613 567
f 567 573 569
f 567 569 568
f 567 613 614
f 567 614 615
f 567 615 616
f 567 616 573
f 570 576 571
f 573 616 617
f 573 617 574
f 574 617 618
f 574 618 575
f 575 618 576
f 576 619 577
f 576 618 620
f 576 620 619
f 577 619 621
f 577 621 578
f 578 621 579
f 579 621 580
f 580 621 622
f 580 622 623
f 580 623 583
f 580 583 581
f 582 584 625
f 582 625 626
f 582 626 624
f 583 623 584
f 584 623 627
f 584 627 628
f 584 628 629
f 584 629 630
f 584 630 631
f 584 631 632
f 584 632 626
f 584 626 625
f 585 592 586
f 586 592 633
f 586 633 678
f 586 678 634
f 586 634 587
f 587 593 588
f 587 634 593
f 589 635 636
f 589 636 637
f 589 637 590
f 590 637 638
f 590 638 639
f 590 639 640
f 590 640 641
f 590 641 592
f 590 592 591
f 592 641 642
f 592 642 643
f 592 643 644
f 592 644 645
f 592 645 633
f 593 634 646
f 593 646 594
f 594 646 595
f 595 646 647
f 595 647 602
f 596 606 605
f 596 605 597
f 597 605 648
f 597 648 598
f 598 648 649
f 598 649 650
f 598 650 599
f 599 650 651
f 599 651 652
f 599 652 600
f 600 652 601
f 601 652 656
f 601 656 607
f 602 647 653
f 602 653 654
f 602 654 603
f 603 654 655
f 603 655 604
f 604 655 605
f 605 655 648
f 607 656 608
f 608 656 610
f 609 612 614
f 609 614 613
f 610 656 657
f 610 657 658
f 610 658 611
f 611 659 612
f 611 658 660
f 611 660 659
f 612 659 614
f 614 659 661
f 614 661 615
f 615 661 616
f 616 661 662
f 616 662 617
f 617 662 663
f 617 663 664
f 617 664 618
f 618 664 665
f 618 665 620
f 619 622 621
f 619 620 665
f 619 665 666
f 619 666 622
f 622 666 623
f 623 666 673
f 623 673 627
f 624 626 667
f 624 667 668
f 624 668 669
f 626 632 670
f 626 670 671
f 626 671 672
f 626 672 667
f 627 673 674
f 627 674 628
f 628 674 629
f 629 674 630
f 630 674 631
f 631 675 632
f 631 674 675
f 632 675 676
f 632 676 677
f 632 677 670
f 633 645 679
f 633 679 678
f 634 678 646
f 635 680 681
f 635 681 636
f 636 681 682
f 636 682 638
f 636 638 637
f 638 682 683
f 638 683 684
f 638 684 639
f 639 684 685
f 639 685 686
f 639 686 640
f 640 686 641
f 641 687 688
f 641 688 642
f 641 686 687
f 642 688 679
f 642 679 643
f 643 679 644
f 644 679 645
f 646 678 689
f 646 689 647
f 647 689 653
f 648 655 690
f 648 690 649
f 649 690 691
f 649 691 692
f 649 692 650
f 650 692 693
f 650 693 694
f 650 694 651
f 651 657 656
f 651 656 652
f 651 694 697
f 651 697 657
f 653 689 695
f 653 695 654
f 654 695 696
f 654 696 655
f 655 696 690
f 657 697 698
f 657 698 658
f 658 698 699
f 658 699 660
f 659 660 700
f 659 700 661
f 660 699 701
f 660 701 700
f 661 700 702
f 661 702 662
f 662 702 703
f 662 703 663
f 663 703 704
f 663 704 664
f 664 704 665
f 665 704 673
f 665 673 666
f 667 672 668
f 668 672 705
f 668 705 706
f 668 706 669
f 669 706 707
f 670 677 671
f 671 708 672
f 671 677 709
f 671 709 708
f 672 708 710
f 672 710 705
f 673 704 711
f 673 711 674
f 674 712 675
f 674 711 704
f 674 704 712
f 675 700 701
f 675 701 676
f 675 712 704
f 675 704 703
f 675 703 702
f 675 702 700
f 676 701 677
f 677 701 709
f 678 679 713
f 678 713 689
f 679 688 714
f 679 714 689
f 679 689 713
f 680 707 706
f 680 706 681
f 681 706 705
f 681 705 682
f 682 705 710
f 682 710 683
f 683 694 693
f 683 693 684
f 683 710 697
f 683 697 694
f 684 693 692
f 684 692 685
f 685 692 691
f 685 691 686
f 686 691 687
f 687 691 688
f 688 691 690
f 688 690 696
f 688 696 695
f 688 695 689
f 688 689 714
f 697 710 698
f 698 710 708
f 698 708 699
f 699 708 709
f 699 709 701

