# https://github.com/mikedh/trimesh
v -0.02301930 0.01679089 -0.01063393
v -0.02303013 0.01679089 -0.01063393
v -0.02209041 0.01677757 -0.01063393
v -0.03149031 0.01721700 -0.03280802
v -0.03337246 0.01721700 -0.03092728
v -0.02395901 0.01677757 -0.01063393
v -0.03618891 0.01721700 -0.03092728
v -0.03712863 0.01721367 -0.03092728
v -0.02111277 0.01647130 -0.01063393
v -0.02999272 0.01700727 -0.03562746
v -0.03055059 0.01715375 -0.03562746
v -0.03055059 0.01719703 -0.03468875
v -0.03149031 0.01721700 -0.03656949
v -0.03806835 0.01721700 -0.03186931
v -0.03900807 0.01720368 -0.03280802
v -0.04464910 0.01391462 -0.01063393
v -0.02018389 0.01555249 -0.01063393
v -0.02067135 0.01505314 -0.01825306
v -0.02115069 0.01550922 -0.01777210
v -0.02174918 0.01597195 -0.01683007
v -0.03005230 0.01695068 -0.03617477
v -0.03054247 0.01705721 -0.03651973
v -0.03141448 0.01709716 -0.03758449
v -0.03243003 0.01721700 -0.03750820
v -0.03900807 0.01721700 -0.03374673
v -0.03975280 0.01706719 -0.03374673
v -0.03966885 0.01705388 -0.03280802
v -0.04558881 0.01357839 -0.01063393
v -0.01987245 0.01456710 -0.01063393
v -0.02057115 0.01456710 -0.01777210
v -0.02064427 0.01456710 -0.01828291
v -0.02448981 0.01080865 -0.04220837
v -0.02469021 0.01080865 -0.04314708
v -0.02503685 0.01159097 -0.04314708
v -0.03085120 0.01701726 -0.03732245
v -0.03238670 0.01709383 -0.03849666
v -0.03337246 0.01721034 -0.03844690
v -0.03167717 0.01701726 -0.03821471
v -0.03430947 0.01721700 -0.03844690
v -0.03900807 0.01721700 -0.03562746
v -0.03977447 0.01706719 -0.03468875
v -0.04593275 0.01338198 -0.01063393
v -0.01985350 0.01362832 -0.01063393
v -0.02051970 0.01362832 -0.01777210
v -0.02448439 0.00986987 -0.04220837
v -0.02513705 0.01080865 -0.04386355
v -0.02521829 0.01144782 -0.04378063
v -0.02468750 0.00986987 -0.04314708
v -0.03266835 0.01701060 -0.03903401
v -0.03337246 0.01706387 -0.03914016
v -0.03430947 0.01706719 -0.03922971
v -0.03618891 0.01721700 -0.03844690
v -0.03524919 0.01706719 -0.03925625
v -0.03806835 0.01721700 -0.03656949
v -0.03806835 0.01720368 -0.03750820
v -0.03900807 0.01717039 -0.03656949
v -0.03972843 0.01706719 -0.03562746
v -0.04616565 0.01324549 -0.01683007
v -0.04616565 0.01324549 -0.01063393
v -0.01985079 0.01268954 -0.01063393
v -0.02051970 -0.01362965 -0.01777210
v -0.02448439 -0.00986786 -0.04220837
v -0.02585199 0.01080865 -0.04431135
v -0.02513705 -0.01080997 -0.04386355
v -0.02585199 0.01159097 -0.04396306
v -0.02468750 -0.00986786 -0.04314708
v -0.02679171 0.01164756 -0.04406257
v -0.03712863 0.01717372 -0.03844690
v -0.03618891 0.01706719 -0.03918991
v -0.04276966 0.01164756 -0.04406257
v -0.04370937 0.01164090 -0.04405262
v -0.03801690 0.01705388 -0.03842700
v -0.03865872 0.01700394 -0.03809862
v -0.03898640 0.01705055 -0.03745181
v -0.03961198 0.01702059 -0.03656949
v -0.04614127 0.01322551 -0.01777210
v -0.04531800 0.01155768 -0.04220837
v -0.04663415 0.01273282 -0.01683007
v -0.04635521 0.01303909 -0.01063393
v -0.01985079 -0.01268754 -0.01063393
v -0.01985350 -0.01362965 -0.01063393
v -0.01987245 -0.01456843 -0.01063393
v -0.02057115 -0.01456843 -0.01777210
v -0.02064427 -0.01456843 -0.01828291
v -0.02448981 -0.01080997 -0.04220837
v -0.02469021 -0.01080997 -0.04314708
v -0.02679171 0.00986987 -0.04451368
v -0.02679171 0.01080865 -0.04451037
v -0.02585199 -0.01080997 -0.04431135
v -0.02521829 -0.01144914 -0.04378063
v -0.03712863 0.01702392 -0.03906387
v -0.04276966 0.01080865 -0.04451037
v -0.04370937 0.01080865 -0.04448715
v -0.04448932 0.01151440 -0.04390004
v -0.03766755 0.01696066 -0.03896436
v -0.03951449 0.01695401 -0.03710021
v -0.04474117 0.01167419 -0.04323996
v -0.04525030 0.01146446 -0.04298787
v -0.04668561 0.01261297 -0.01784175
v -0.04551569 0.01080865 -0.04220837
v -0.04715411 0.01183731 -0.01784175
v -0.04699162 0.01221016 -0.01820330
v -0.04701871 0.01224678 -0.01757639
v -0.04702683 0.01226343 -0.01683007
v -0.04686976 0.01245318 -0.01063393
v -0.04663415 0.01273282 -0.01063393
v -0.02017847 -0.01553384 -0.01063393
v -0.02067135 -0.01505446 -0.01825306
v -0.02503685 -0.01158896 -0.04314708
v -0.04276966 0.00986987 -0.04451368
v -0.02679171 -0.00986786 -0.04451368
v -0.02585199 -0.01158896 -0.04396306
v -0.02679171 -0.01080997 -0.04451037
v -0.02585199 -0.01194849 -0.04314708
v -0.04464368 0.01080865 -0.04404267
v -0.04370937 0.00986987 -0.04449046
v -0.04511489 0.01080865 -0.04361146
v -0.04531800 0.01080865 -0.04314045
v -0.04751700 0.00986987 -0.01683007
v -0.04739784 0.01080865 -0.01777210
v -0.04551569 -0.01080997 -0.04220837
v -0.04723806 0.01174743 -0.01683007
v -0.04746826 0.01080865 -0.01683007
v -0.04711349 0.01205370 -0.01063393
v -0.04702683 0.01226343 -0.01063393
v -0.02018389 -0.01555049 -0.01063393
v -0.02058198 -0.01607980 -0.01063393
v -0.02115069 -0.01550721 -0.01777210
v -0.02204979 -0.01592667 -0.01780195
v -0.04276966 -0.00986786 -0.04451368
v -0.02679171 -0.01164555 -0.04406257
v -0.04276966 -0.01080997 -0.04451037
v -0.02679171 -0.01197180 -0.04314708
v -0.02303013 -0.01594664 -0.01807726
v -0.04464368 -0.01080997 -0.04404267
v -0.04370937 -0.00986786 -0.04449046
v -0.04511489 -0.01080997 -0.04361146
v -0.04531800 -0.01080997 -0.04314045
v -0.04751700 0.00986987 -0.01063393
v -0.04751700 -0.00986786 -0.01683007
v -0.04525030 -0.01146579 -0.04298787
v -0.04531800 -0.01155900 -0.04220837
v -0.04715411 -0.01183864 -0.01784175
v -0.04739784 -0.01080997 -0.01777210
v -0.04723806 0.01174743 -0.01063393
v -0.04746826 0.01080865 -0.01063393
v -0.02109923 -0.01646264 -0.01063393
v -0.02174918 -0.01596994 -0.01683007
v -0.02209041 -0.01677557 -0.01063393
v -0.02233414 -0.01598992 -0.01750674
v -0.04276966 -0.01164555 -0.04406257
v -0.02867115 -0.01200842 -0.04314708
v -0.02961087 -0.01201507 -0.04314708
v -0.04370937 -0.01080997 -0.04448715
v -0.04370937 -0.01163890 -0.04405262
v -0.02303013 -0.01679221 -0.01063393
v -0.02397255 -0.01677557 -0.01063393
v -0.02368008 -0.01598992 -0.01750674
v -0.04370937 -0.01196514 -0.04314708
v -0.04182994 -0.01200842 -0.04314708
v -0.04088751 -0.01201507 -0.04314708
v -0.04448932 -0.01151572 -0.04390004
v -0.04751700 -0.00986786 -0.01063393
v -0.04746826 -0.01080997 -0.01683007
v -0.04474117 -0.01167219 -0.04323996
v -0.04464910 -0.01191853 -0.04220837
v -0.04614127 -0.01322684 -0.01777210
v -0.04668561 -0.01261097 -0.01784175
v -0.04701871 -0.01224811 -0.01757639
v -0.04699162 -0.01221149 -0.01820330
v -0.04723806 -0.01174875 -0.01683007
v -0.02112361 -0.01647595 -0.01063393
v -0.04464910 -0.01391261 -0.01063393
v -0.04464910 -0.01391594 -0.01401063
v -0.04464910 -0.01391261 -0.01683007
v -0.04746826 -0.01080997 -0.01063393
v -0.04558881 -0.01350647 -0.01777210
v -0.04558881 -0.01357971 -0.01683007
v -0.04616565 -0.01324681 -0.01683007
v -0.04663415 -0.01273081 -0.01683007
v -0.04702683 -0.01226142 -0.01683007
v -0.04723806 -0.01174875 -0.01063393
v -0.04502823 -0.01377945 -0.01063393
v -0.04558881 -0.01357971 -0.01063393
v -0.04582171 -0.01344655 -0.01063393
v -0.04616565 -0.01324681 -0.01063393
v -0.04644458 -0.01294054 -0.01063393
v -0.04663415 -0.01273081 -0.01063393
v -0.04679393 -0.01254106 -0.01063393
v -0.04702683 -0.01226142 -0.01063393
f 1 2 6
f 1 6 16
f 1 16 28
f 1 28 42
f 1 42 59
f 1 59 79
f 1 79 106
f 1 106 105
f 1 105 125
f 1 125 124
f 1 124 145
f 1 145 146
f 1 146 139
f 1 139 163
f 1 163 176
f 1 176 182
f 1 182 190
f 1 190 189
f 1 189 188
f 1 188 187
f 1 187 186
f 1 186 185
f 1 185 184
f 1 184 183
f 1 183 173
f 1 173 157
f 1 157 156
f 1 156 149
f 1 149 172
f 1 172 147
f 1 147 127
f 1 127 126
f 1 126 107
f 1 107 82
f 1 82 81
f 1 81 80
f 1 80 60
f 1 60 43
f 1 43 29
f 1 29 17
f 1 17 9
f 1 9 3
f 1 3 4
f 1 4 5
f 1 5 7
f 1 7 2
f 2 7 8
f 2 8 6
f 3 9 10
f 3 10 11
f 3 11 12
f 3 12 4
f 4 12 13
f 4 13 24
f 4 24 39
f 4 39 52
f 4 52 54
f 4 54 40
f 4 40 25
f 4 25 14
f 4 14 7
f 4 7 5
f 6 8 14
f 6 14 15
f 6 15 16
f 7 14 8
f 9 17 18
f 9 18 19
f 9 19 20
f 9 20 10
f 10 20 21
f 10 21 22
f 10 22 11
f 11 23 13
f 11 13 12
f 11 22 23
f 13 23 24
f 14 25 15
f 15 25 26
f 15 26 27
f 15 27 16
f 16 27 28
f 17 29 18
f 18 21 19
f 18 29 30
f 18 30 31
f 18 31 32
f 18 32 33
f 18 33 34
f 18 34 21
f 19 21 20
f 21 35 22
f 21 34 35
f 22 35 23
f 23 36 37
f 23 37 24
f 23 35 38
f 23 38 36
f 24 37 39
f 25 40 41
f 25 41 26
f 26 41 28
f 26 28 27
f 28 41 42
f 29 43 44
f 29 44 30
f 30 44 31
f 31 44 32
f 32 45 33
f 32 44 45
f 33 46 47
f 33 47 34
f 33 45 48
f 33 48 46
f 34 47 35
f 35 47 38
f 36 38 49
f 36 49 37
f 37 49 50
f 37 50 51
f 37 51 39
f 38 47 49
f 39 51 53
f 39 53 52
f 40 54 55
f 40 55 56
f 40 56 57
f 40 57 41
f 41 57 58
f 41 58 59
f 41 59 42
f 43 60 44
f 44 60 80
f 44 80 61
f 44 61 62
f 44 62 45
f 45 62 66
f 45 66 48
f 46 63 47
f 46 48 66
f 46 66 64
f 46 64 89
f 46 89 63
f 47 65 49
f 47 63 65
f 49 65 50
f 50 65 67
f 50 67 51
f 51 67 53
f 52 68 55
f 52 55 54
f 52 53 69
f 52 69 68
f 53 67 70
f 53 70 71
f 53 71 69
f 55 68 72
f 55 72 73
f 55 73 74
f 55 74 56
f 56 74 75
f 56 75 57
f 57 76 58
f 57 75 77
f 57 77 76
f 58 76 78
f 58 78 79
f 58 79 59
f 61 80 81
f 61 81 82
f 61 82 83
f 61 83 84
f 61 84 85
f 61 85 62
f 62 85 86
f 62 86 66
f 63 87 88
f 63 88 65
f 63 89 111
f 63 111 87
f 64 66 86
f 64 86 90
f 64 90 89
f 65 88 67
f 67 88 92
f 67 92 70
f 68 69 91
f 68 91 72
f 69 71 91
f 70 92 71
f 71 92 93
f 71 93 94
f 71 94 95
f 71 95 91
f 72 91 95
f 72 95 73
f 73 96 74
f 73 95 94
f 73 94 97
f 73 97 96
f 74 96 75
f 75 96 98
f 75 98 77
f 76 99 78
f 76 77 99
f 77 98 100
f 77 100 101
f 77 101 102
f 77 102 99
f 78 99 103
f 78 103 104
f 78 104 105
f 78 105 106
f 78 106 79
f 82 107 108
f 82 108 83
f 83 108 84
f 84 108 85
f 85 108 86
f 86 108 109
f 86 109 90
f 87 110 92
f 87 92 88
f 87 111 130
f 87 130 110
f 89 90 112
f 89 112 113
f 89 113 111
f 90 109 114
f 90 114 112
f 92 110 116
f 92 116 93
f 93 115 94
f 93 116 115
f 94 115 117
f 94 117 98
f 94 98 97
f 96 97 98
f 98 117 118
f 98 118 100
f 99 102 103
f 100 119 120
f 100 120 101
f 100 118 138
f 100 138 121
f 100 121 140
f 100 140 119
f 101 122 103
f 101 103 102
f 101 120 123
f 101 123 122
f 103 122 104
f 104 122 124
f 104 124 125
f 104 125 105
f 107 126 108
f 108 126 127
f 108 127 128
f 108 128 109
f 109 128 129
f 109 129 114
f 110 130 136
f 110 136 116
f 111 113 132
f 111 132 130
f 112 131 113
f 112 114 131
f 113 131 151
f 113 151 132
f 114 133 131
f 114 129 134
f 114 134 133
f 115 116 136
f 115 136 135
f 115 135 137
f 115 137 117
f 117 137 138
f 117 138 118
f 119 139 146
f 119 146 123
f 119 123 120
f 119 140 163
f 119 163 139
f 121 138 141
f 121 141 142
f 121 142 143
f 121 143 144
f 121 144 140
f 122 145 124
f 122 123 146
f 122 146 145
f 127 147 128
f 128 147 148
f 128 148 129
f 129 148 149
f 129 149 150
f 129 150 134
f 130 132 154
f 130 154 136
f 131 133 152
f 131 152 153
f 131 153 161
f 131 161 151
f 132 151 155
f 132 155 154
f 133 134 152
f 134 153 152
f 134 150 149
f 134 149 156
f 134 156 157
f 134 157 158
f 134 158 159
f 134 159 160
f 134 160 161
f 134 161 153
f 135 136 154
f 135 154 162
f 135 162 137
f 137 162 141
f 137 141 138
f 140 144 164
f 140 164 176
f 140 176 163
f 141 162 165
f 141 165 166
f 141 166 142
f 142 166 167
f 142 167 168
f 142 168 169
f 142 169 170
f 142 170 143
f 143 171 164
f 143 164 144
f 143 170 169
f 143 169 171
f 147 172 148
f 148 172 149
f 151 161 160
f 151 160 155
f 154 155 162
f 155 160 159
f 155 159 162
f 157 173 174
f 157 174 175
f 157 175 159
f 157 159 158
f 159 166 165
f 159 165 162
f 159 175 166
f 164 171 182
f 164 182 176
f 166 175 177
f 166 177 167
f 167 177 178
f 167 178 179
f 167 179 180
f 167 180 168
f 168 180 169
f 169 180 181
f 169 181 171
f 171 181 190
f 171 190 182
f 173 183 174
f 174 183 184
f 174 184 178
f 174 178 175
f 175 178 177
f 178 184 185
f 178 185 179
f 179 185 186
f 179 186 187
f 179 187 180
f 180 187 188
f 180 188 189
f 180 189 181
f 181 189 190

