# https://github.com/mikedh/trimesh
v 0.00999608 0.02400000 -0.00030045
v 0.00999608 0.02369929 -0.00000000
v 0.01171691 0.02362412 -0.00000000
v 0.01174041 0.02392012 -0.00030045
v 0.00999608 0.02400000 -0.00469987
v -0.00999608 0.02400000 -0.00030045
v -0.00999608 0.02369929 -0.00000000
v 0.01342012 0.02339859 -0.00000000
v 0.01346711 0.02369460 -0.00030045
v 0.01174041 0.02392012 -0.00469987
v 0.01171691 0.02362412 -0.00499983
v 0.00999608 0.02369929 -0.00499983
v -0.00999608 0.02400000 -0.00469987
v -0.01174041 0.02392012 -0.00030045
v -0.01171691 0.02362412 -0.00000000
v 0.01509397 0.02302741 -0.00000000
v 0.01517619 0.02331402 -0.00030045
v 0.01346711 0.02369460 -0.00469987
v 0.00884495 0.00998434 -0.00500669
v 0.01334965 0.02340799 -0.00499983
v 0.00849843 0.00999843 -0.00500669
v -0.00999608 0.02369929 -0.00499983
v -0.01171691 0.02362412 -0.00499983
v -0.01174041 0.02392012 -0.00469987
v -0.01346711 0.02369460 -0.00030045
v -0.01342012 0.02339859 -0.00000000
v 0.01673258 0.02251057 -0.00000000
v 0.01683829 0.02279248 -0.00030045
v 0.01517619 0.02331402 -0.00469987
v 0.01509397 0.02302741 -0.00499983
v 0.01342012 0.02339859 -0.00499983
v 0.00919146 0.00993735 -0.00500669
v -0.00849843 0.00999843 -0.00500669
v -0.00884495 0.00998434 -0.00500669
v -0.01334965 0.02340799 -0.00499983
v -0.01346711 0.02369460 -0.00469987
v -0.01517619 0.02331402 -0.00030045
v -0.01509397 0.02302741 -0.00000000
v 0.01699687 0.02240250 -0.00000000
v 0.01683829 0.02279248 -0.00469987
v 0.01832420 0.02185278 -0.00000000
v 0.01844753 0.02212529 -0.00030045
v 0.01673258 0.02251057 -0.00499983
v 0.00986687 0.00975881 -0.00500669
v 0.00953211 0.00986218 -0.00500669
v -0.00919146 0.00993735 -0.00500669
v -0.01342012 0.02339859 -0.00499983
v -0.01509397 0.02302741 -0.00499983
v -0.01517619 0.02331402 -0.00469987
v -0.01683829 0.02279248 -0.00030045
v -0.01673258 0.02251057 -0.00000000
v 0.01844753 0.02212529 -0.00469987
v 0.01832420 0.02185278 -0.00499983
v 0.01699687 0.02240250 -0.00499983
v 0.01958105 0.02119969 -0.00000000
v 0.01999804 0.02131715 -0.00030045
v 0.01018990 0.00962255 -0.00500669
v -0.00953211 0.00986218 -0.00500669
v -0.01673258 0.02251057 -0.00499983
v -0.01683829 0.02279248 -0.00469987
v -0.01844753 0.02212529 -0.00030045
v -0.01832420 0.02185278 -0.00000000
v -0.01699687 0.02240250 -0.00000000
v 0.01999804 0.02131715 -0.00469987
v 0.01984534 0.02105873 -0.00499983
v 0.01984534 0.02105873 -0.00000000
v 0.02146633 0.02038215 -0.00030045
v 0.01049530 0.00946280 -0.00500669
v -0.00986687 0.00975411 -0.00500669
v -0.01018990 0.00962255 -0.00500669
v -0.01699687 0.02240250 -0.00499983
v -0.01832420 0.02185278 -0.00499983
v -0.01844753 0.02212529 -0.00469987
v -0.01999804 0.02131715 -0.00030045
v -0.01958105 0.02119969 -0.00000000
v 0.02146633 0.02038215 -0.00469987
v 0.02129601 0.02013312 -0.00499983
v 0.02129601 0.02013312 -0.00000000
v 0.02265857 0.01909005 -0.00000000
v 0.02285239 0.01932028 -0.00030045
v 0.01078896 0.00927486 -0.00500669
v -0.01049530 0.00946280 -0.00500669
v -0.01984534 0.02105873 -0.00499983
v -0.01999804 0.02131715 -0.00469987
v -0.01984534 0.02105873 -0.00000000
v -0.02146633 0.02038215 -0.00030045
v 0.02285239 0.01932028 -0.00469987
v 0.02265857 0.01909005 -0.00499983
v 0.01107087 0.00906343 -0.00500669
v 0.02392717 0.01792952 -0.00000000
v 0.02413861 0.01814095 -0.00030045
v -0.01078896 0.00927486 -0.00500669
v -0.02129601 0.02013312 -0.00499983
v -0.02146633 0.02038215 -0.00469987
v -0.02129601 0.02013312 -0.00000000
v -0.02285239 0.01932028 -0.00030045
v -0.02265857 0.01909005 -0.00000000
v 0.02413861 0.01814095 -0.00469987
v 0.02392717 0.01792952 -0.00499983
v 0.01132341 0.00882850 -0.00500669
v 0.02509005 0.01666092 -0.00000000
v 0.02531911 0.01685356 -0.00030045
v -0.01107087 0.00906343 -0.00500669
v -0.02265857 0.01909005 -0.00499983
v -0.02285239 0.01932028 -0.00469987
v -0.02413861 0.01814095 -0.00030045
v -0.02392717 0.01792952 -0.00000000
v 0.02531911 0.01685356 -0.00469987
v 0.02509005 0.01666092 -0.00499983
v 0.01155834 0.00857009 -0.00500669
v 0.02613547 0.01529835 -0.00000000
v 0.02638214 0.01546750 -0.00030045
v -0.01132341 0.00882381 -0.00500669
v -0.02392717 0.01792952 -0.00499983
v -0.02413861 0.01814095 -0.00469987
v -0.02531911 0.01685356 -0.00030045
v -0.02509005 0.01666092 -0.00000000
v 0.02638214 0.01546750 -0.00469987
v 0.02613547 0.01529835 -0.00499983
v 0.01177565 0.00829287 -0.00500669
v 0.02705756 0.01384651 -0.00000000
v 0.02731597 0.01399687 -0.00030045
v -0.01156421 0.00857009 -0.00500669
v -0.02509005 0.01666092 -0.00499983
v -0.02531911 0.01685356 -0.00469987
v -0.02638214 0.01546750 -0.00030045
v -0.02613547 0.01529835 -0.00000000
v 0.02731597 0.01399687 -0.00469987
v 0.02705756 0.01384651 -0.00499983
v 0.01196359 0.00799687 -0.00500669
v 0.02719851 0.01357870 -0.00000000
v 0.02812060 0.01245106 -0.00030045
v -0.01177565 0.00829287 -0.00500669
v -0.02613547 0.01529835 -0.00499983
v -0.02638214 0.01546750 -0.00469987
v -0.02731597 0.01399687 -0.00030045
v -0.02705756 0.01384651 -0.00000000
v 0.02812060 0.01245106 -0.00469987
v 0.02785043 0.01232420 -0.00499983
v 0.01212216 0.00768677 -0.00500669
v 0.02785043 0.01232420 -0.00000000
v 0.02879013 0.01083947 -0.00030045
v -0.01196359 0.00799687 -0.00500669
v -0.02705756 0.01384651 -0.00499983
v -0.02731597 0.01399687 -0.00469987
v -0.02812060 0.01245106 -0.00030045
v -0.02785043 0.01232420 -0.00000000
v 0.02879013 0.01083947 -0.00469987
v 0.02850822 0.01073610 -0.00499983
v 0.01225724 0.00736727 -0.00500669
v 0.02850822 0.01073610 -0.00000000
v 0.02902506 0.00909632 -0.00000000
v 0.02931284 0.00917619 -0.00030045
v -0.01212216 0.00768677 -0.00500669
v -0.02785043 0.01232420 -0.00499983
v -0.02812060 0.01245106 -0.00469987
v -0.02879013 0.01083947 -0.00030045
v -0.02850822 0.01073610 -0.00000000
v 0.02931284 0.00917619 -0.00469987
v 0.02902506 0.00909632 -0.00499983
v 0.01236296 0.00703367 -0.00500669
v 0.02916014 0.00849961 -0.00000000
v 0.02969460 0.00747063 -0.00030045
v -0.01225724 0.00736727 -0.00500669
v -0.02850822 0.01073610 -0.00499983
v -0.02879013 0.01083947 -0.00469987
v -0.02931284 0.00917619 -0.00030045
v -0.02902506 0.00909632 -0.00000000
v 0.02969460 0.00747063 -0.00469987
v 0.02939507 0.00741895 -0.00499983
v 0.01243344 0.00669068 -0.00500669
v 0.02939507 0.00741895 -0.00000000
v 0.02992365 0.00574158 -0.00030045
v 0.02962412 0.00571339 -0.00000000
v -0.01236296 0.00703367 -0.00500669
v -0.02902506 0.00909632 -0.00499983
v -0.02931284 0.00917619 -0.00469987
v -0.02916014 0.00849961 -0.00000000
v -0.02969460 0.00747063 -0.00030045
v 0.02962412 0.00571339 -0.00499983
v 0.02950666 0.00659671 -0.00499983
v 0.02992365 0.00574158 -0.00469987
v 0.01245106 0.00659671 -0.00500669
v 0.03000000 0.00399843 -0.00030045
v 0.02969460 0.00399843 -0.00000000
v -0.01243344 0.00669068 -0.00500669
v -0.02939507 0.00741895 -0.00499983
v -0.02969460 0.00747063 -0.00469987
v -0.02939507 0.00741895 -0.00000000
v -0.02992365 0.00574158 -0.00030045
v -0.02962412 0.00571339 -0.00000000
v 0.03000000 0.00399843 -0.00469987
v 0.02969460 0.00399843 -0.00499983
v 0.01249804 0.00600000 -0.00500669
v 0.01248042 0.00634769 -0.00500669
v 0.03000000 -0.00399843 -0.00030045
v 0.02969460 -0.00399843 -0.00000000
v -0.01245106 0.00659671 -0.00500669
v -0.02950666 0.00659671 -0.00499983
v -0.02962412 0.00571339 -0.00499983
v -0.02992365 0.00574158 -0.00469987
v -0.03000000 0.00399843 -0.00030045
v -0.02969460 0.00399843 -0.00000000
v 0.03000000 -0.00399843 -0.00469987
v 0.02969460 -0.00399843 -0.00499983
v 0.01249804 -0.00600000 -0.00500669
v 0.02962412 -0.00571339 -0.00000000
v 0.02992365 -0.00574158 -0.00030045
v -0.01248042 0.00634769 -0.00500669
v -0.02969460 0.00399843 -0.00499983
v -0.03000000 0.00399843 -0.00469987
v -0.01249804 0.00600000 -0.00500669
v -0.03000000 -0.00399843 -0.00030045
v -0.02969460 -0.00399843 -0.00000000
v 0.02992365 -0.00574158 -0.00469987
v 0.02962412 -0.00571339 -0.00499983
v 0.01248042 -0.00634769 -0.00500669
v 0.02939507 -0.00741895 -0.00000000
v 0.02969460 -0.00747063 -0.00030045
v -0.02969460 -0.00399843 -0.00499983
v -0.03000000 -0.00399843 -0.00469987
v -0.01249804 -0.00600000 -0.00500669
v -0.02992365 -0.00574158 -0.00030045
v -0.02962412 -0.00571339 -0.00000000
v 0.02969460 -0.00747063 -0.00469987
v 0.02950666 -0.00659671 -0.00499983
v 0.01245106 -0.00659671 -0.00500669
v 0.02916014 -0.00849961 -0.00000000
v 0.02931284 -0.00917619 -0.00030045
v -0.02962412 -0.00571339 -0.00499983
v -0.02992365 -0.00574158 -0.00469987
v -0.01248042 -0.00634769 -0.00500669
v -0.02969460 -0.00747063 -0.00030045
v -0.02939507 -0.00741895 -0.00000000
v 0.02931284 -0.00917619 -0.00469987
v 0.02902506 -0.00909632 -0.00499983
v 0.02939507 -0.00741895 -0.00499983
v 0.01243344 -0.00669068 -0.00500669
v 0.02902506 -0.00909632 -0.00000000
v 0.02879013 -0.01083947 -0.00030045
v -0.02969460 -0.00747063 -0.00469987
v -0.01245106 -0.00659671 -0.00500669
v -0.02950666 -0.00659671 -0.00499983
v -0.02931284 -0.00917619 -0.00030045
v -0.02916014 -0.00849961 -0.00000000
v 0.02879013 -0.01083947 -0.00469987
v 0.02850822 -0.01073610 -0.00499983
v 0.01236296 -0.00703367 -0.00500669
v 0.02850822 -0.01073610 -0.00000000
v 0.02785043 -0.01232420 -0.00000000
v 0.02812060 -0.01245106 -0.00030045
v -0.02939507 -0.00741895 -0.00499983
v -0.02902506 -0.00909632 -0.00499983
v -0.02931284 -0.00917619 -0.00469987
v -0.01243344 -0.00669068 -0.00500669
v -0.02879013 -0.01083947 -0.00030045
v -0.02902506 -0.00909632 -0.00000000
v 0.02812060 -0.01245106 -0.00469987
v 0.02785043 -0.01232420 -0.00499983
v 0.01225724 -0.00736727 -0.00500669
v 0.02719851 -0.01357870 -0.00000000
v 0.02731597 -0.01399687 -0.00030045
v -0.01236296 -0.00703367 -0.00500669
v -0.02879013 -0.01083947 -0.00469987
v -0.02850822 -0.01073610 -0.00499983
v -0.02812060 -0.01245106 -0.00030045
v -0.02785043 -0.01232420 -0.00000000
v -0.02850822 -0.01073610 -0.00000000
v 0.02731597 -0.01399687 -0.00469987
v 0.02705756 -0.01384651 -0.00499983
v 0.01196359 -0.00799687 -0.00500669
v 0.01212216 -0.00768677 -0.00500669
v 0.02705756 -0.01384651 -0.00000000
v 0.02638214 -0.01546750 -0.00030045
v -0.01225724 -0.00736727 -0.00500669
v -0.02785043 -0.01232420 -0.00499983
v -0.02812060 -0.01245106 -0.00469987
v -0.02731597 -0.01399687 -0.00030045
v -0.02705756 -0.01384651 -0.00000000
v 0.02638214 -0.01546750 -0.00469987
v 0.02613547 -0.01529835 -0.00499983
v 0.01177565 -0.00829287 -0.00500669
v 0.02613547 -0.01529835 -0.00000000
v 0.02531911 -0.01685356 -0.00030045
v -0.01212216 -0.00768677 -0.00500669
v -0.02731597 -0.01399687 -0.00469987
v -0.01196359 -0.00799687 -0.00500669
v -0.02705756 -0.01384651 -0.00499983
v -0.02638214 -0.01546750 -0.00030045
v -0.02613547 -0.01529835 -0.00000000
v 0.02531911 -0.01685356 -0.00469987
v 0.02509005 -0.01666092 -0.00499983
v 0.01156421 -0.00857009 -0.00500669
v 0.02509005 -0.01666092 -0.00000000
v 0.02392717 -0.01792952 -0.00000000
v 0.02413861 -0.01814095 -0.00030045
v -0.02638214 -0.01546750 -0.00469987
v -0.01177565 -0.00829287 -0.00500669
v -0.02613547 -0.01529835 -0.00499983
v -0.02531911 -0.01685356 -0.00030045
v -0.02509005 -0.01666092 -0.00000000
v 0.02413861 -0.01814095 -0.00469987
v 0.02392717 -0.01792952 -0.00499983
v 0.01132341 -0.00882381 -0.00500669
v 0.02265857 -0.01909005 -0.00000000
v 0.02285239 -0.01932028 -0.00030045
v -0.02531911 -0.01685356 -0.00469987
v -0.01155834 -0.00857009 -0.00500669
v -0.02509005 -0.01666092 -0.00499983
v -0.02413861 -0.01814095 -0.00030045
v -0.02392717 -0.01792952 -0.00000000
v 0.02285239 -0.01932028 -0.00469987
v 0.02265857 -0.01909005 -0.00499983
v 0.01107087 -0.00906343 -0.00500669
v 0.02129601 -0.02013312 -0.00000000
v 0.02146633 -0.02038215 -0.00030045
v -0.02392717 -0.01792952 -0.00499983
v -0.02413861 -0.01814095 -0.00469987
v -0.01132341 -0.00882850 -0.00500669
v -0.02285239 -0.01932028 -0.00030045
v -0.02265857 -0.01909005 -0.00000000
v 0.02146633 -0.02038215 -0.00469987
v 0.02129601 -0.02013312 -0.00499983
v 0.01078896 -0.00927486 -0.00500669
v 0.01984534 -0.02105873 -0.00000000
v 0.01999804 -0.02131715 -0.00030045
v -0.02265857 -0.01909005 -0.00499983
v -0.02285239 -0.01932028 -0.00469987
v -0.01107087 -0.00906343 -0.00500669
v -0.02146633 -0.02038215 -0.00030045
v -0.02129601 -0.02013312 -0.00000000
v 0.01999804 -0.02131715 -0.00469987
v 0.01984534 -0.02105873 -0.00499983
v 0.01049530 -0.00946280 -0.00500669
v 0.01832420 -0.02185278 -0.00000000
v 0.01844753 -0.02212529 -0.00030045
v -0.02129601 -0.02013312 -0.00499983
v -0.02146633 -0.02038215 -0.00469987
v -0.01078896 -0.00927486 -0.00500669
v -0.01999804 -0.02131715 -0.00030045
v -0.01984534 -0.02105873 -0.00000000
v 0.01844753 -0.02212529 -0.00469987
v 0.01832420 -0.02185278 -0.00499983
v 0.01018990 -0.00962255 -0.00500669
v 0.01699687 -0.02240250 -0.00000000
v 0.01683829 -0.02279248 -0.00030045
v -0.01984534 -0.02105873 -0.00499983
v -0.01049530 -0.00946280 -0.00500669
v -0.01999804 -0.02131715 -0.00469987
v -0.01844753 -0.02212529 -0.00030045
v -0.01832420 -0.02185278 -0.00000000
v 0.01683829 -0.02279248 -0.00469987
v 0.01699687 -0.02240250 -0.00499983
v 0.00986687 -0.00975411 -0.00500669
v 0.01673258 -0.02251057 -0.00499983
v 0.01673258 -0.02251057 -0.00000000
v 0.01509397 -0.02302741 -0.00000000
v 0.01517619 -0.02331402 -0.00030045
v -0.01832420 -0.02185278 -0.00499983
v -0.01018990 -0.00962255 -0.00500669
v -0.01844753 -0.02212529 -0.00469987
v -0.01683829 -0.02279248 -0.00030045
v -0.01699687 -0.02240250 -0.00000000
v 0.01517619 -0.02331402 -0.00469987
v 0.01509397 -0.02302741 -0.00499983
v 0.00953211 -0.00986218 -0.00500669
v 0.01342012 -0.02339859 -0.00000000
v 0.01346711 -0.02369460 -0.00030045
v -0.01699687 -0.02240250 -0.00499983
v -0.01683829 -0.02279248 -0.00469987
v -0.00986687 -0.00975881 -0.00500669
v -0.01517619 -0.02331402 -0.00030045
v -0.01509397 -0.02302741 -0.00000000
v -0.01673258 -0.02251057 -0.00000000
v 0.01346711 -0.02369460 -0.00469987
v 0.01342012 -0.02339859 -0.00499983
v 0.00919146 -0.00993735 -0.00500669
v 0.01171691 -0.02362412 -0.00000000
v 0.01174041 -0.02392012 -0.00030045
v -0.01673258 -0.02251057 -0.00499983
v -0.01509397 -0.02302741 -0.00499983
v -0.01517619 -0.02331402 -0.00469987
v -0.00953211 -0.00986218 -0.00500669
v -0.01346711 -0.02369460 -0.00030045
v -0.01342012 -0.02339859 -0.00000000
v 0.01174041 -0.02392012 -0.00469987
v 0.01171691 -0.02362412 -0.00499983
v 0.01334965 -0.02340799 -0.00499983
v 0.00884495 -0.00998434 -0.00500669
v 0.00999608 -0.02369929 -0.00000000
v 0.00999608 -0.02400000 -0.00030045
v -0.01342012 -0.02339859 -0.00499983
v -0.01346711 -0.02369460 -0.00469987
v -0.00919146 -0.00993735 -0.00500669
v -0.01174041 -0.02392012 -0.00030045
v -0.01171691 -0.02362412 -0.00000000
v 0.00999608 -0.02400000 -0.00469987
v 0.00999608 -0.02369929 -0.00499983
v 0.00849843 -0.00999843 -0.00500669
v -0.00999608 -0.02369929 -0.00000000
v -0.00999608 -0.02400000 -0.00030045
v -0.01334965 -0.02340799 -0.00499983
v -0.00884495 -0.00998434 -0.00500669
v -0.01171691 -0.02362412 -0.00499983
v -0.01174041 -0.02392012 -0.00469987
v -0.00999608 -0.02400000 -0.00469987
v -0.00999608 -0.02369929 -0.00499983
v -0.00849843 -0.00999843 -0.00500669
f 1 2 3
f 1 3 4
f 1 4 10
f 1 10 5
f 1 5 13
f 1 13 6
f 1 6 7
f 1 7 2
f 2 7 15
f 2 15 26
f 2 26 38
f 2 38 51
f 2 51 63
f 2 63 62
f 2 62 75
f 2 75 85
f 2 85 95
f 2 95 97
f 2 97 107
f 2 107 117
f 2 117 127
f 2 127 137
f 2 137 147
f 2 147 158
f 2 158 168
f 2 168 178
f 2 178 189
f 2 189 191
f 2 191 203
f 2 203 214
f 2 214 224
f 2 224 234
f 2 234 245
f 2 245 257
f 2 257 268
f 2 268 267
f 2 267 279
f 2 279 290
f 2 290 301
f 2 301 311
f 2 311 321
f 2 321 331
f 2 331 341
f 2 341 351
f 2 351 363
f 2 363 374
f 2 374 373
f 2 373 385
f 2 385 396
f 2 396 400
f 2 400 390
f 2 390 378
f 2 378 367
f 2 367 357
f 2 357 356
f 2 356 345
f 2 345 335
f 2 335 325
f 2 325 315
f 2 315 305
f 2 305 295
f 2 295 294
f 2 294 283
f 2 283 273
f 2 273 261
f 2 261 250
f 2 250 249
f 2 249 239
f 2 239 228
f 2 228 218
f 2 218 207
f 2 207 197
f 2 197 185
f 2 185 174
f 2 174 172
f 2 172 162
f 2 162 152
f 2 152 151
f 2 151 141
f 2 141 131
f 2 131 121
f 2 121 111
f 2 111 101
f 2 101 90
f 2 90 79
f 2 79 78
f 2 78 66
f 2 66 55
f 2 55 41
f 2 41 39
f 2 39 27
f 2 27 16
f 2 16 8
f 2 8 3
f 3 8 9
f 3 9 4
f 4 9 18
f 4 18 10
f 5 10 11
f 5 11 12
f 5 12 22
f 5 22 13
f 6 13 24
f 6 24 14
f 6 14 15
f 6 15 7
f 8 16 9
f 9 16 17
f 9 17 29
f 9 29 18
f 10 18 11
f 11 19 12
f 11 18 20
f 11 20 19
f 12 19 21
f 12 21 33
f 12 33 22
f 13 22 23
f 13 23 24
f 14 24 36
f 14 36 25
f 14 25 15
f 15 25 26
f 16 27 28
f 16 28 17
f 17 28 40
f 17 40 29
f 18 29 30
f 18 30 31
f 18 31 20
f 19 32 45
f 19 45 44
f 19 44 57
f 19 57 68
f 19 68 81
f 19 81 89
f 19 89 100
f 19 100 110
f 19 110 120
f 19 120 130
f 19 130 140
f 19 140 150
f 19 150 161
f 19 161 171
f 19 171 183
f 19 183 195
f 19 195 194
f 19 194 206
f 19 206 217
f 19 217 227
f 19 227 238
f 19 238 248
f 19 248 260
f 19 260 272
f 19 272 271
f 19 271 282
f 19 282 293
f 19 293 304
f 19 304 314
f 19 314 324
f 19 324 334
f 19 334 344
f 19 344 354
f 19 354 366
f 19 366 377
f 19 377 389
f 19 389 399
f 19 399 408
f 19 408 403
f 19 403 394
f 19 394 383
f 19 383 371
f 19 371 360
f 19 360 348
f 19 348 339
f 19 339 329
f 19 329 319
f 19 319 308
f 19 308 298
f 19 298 287
f 19 287 285
f 19 285 275
f 19 275 263
f 19 263 255
f 19 255 242
f 19 242 232
f 19 232 222
f 19 222 212
f 19 212 209
f 19 209 198
f 19 198 186
f 19 186 175
f 19 175 164
f 19 164 154
f 19 154 143
f 19 143 133
f 19 133 123
f 19 123 113
f 19 113 103
f 19 103 92
f 19 92 82
f 19 82 70
f 19 70 69
f 19 69 58
f 19 58 46
f 19 46 34
f 19 34 33
f 19 33 21
f 19 20 31
f 19 31 32
f 22 33 34
f 22 34 23
f 23 34 35
f 23 35 36
f 23 36 24
f 25 36 49
f 25 49 37
f 25 37 38
f 25 38 26
f 27 39 28
f 28 39 41
f 28 41 42
f 28 42 52
f 28 52 40
f 29 40 30
f 30 40 43
f 30 43 44
f 30 44 45
f 30 45 31
f 31 45 32
f 34 46 47
f 34 47 35
f 35 47 36
f 36 47 48
f 36 48 49
f 37 49 60
f 37 60 50
f 37 50 38
f 38 50 51
f 40 52 53
f 40 53 54
f 40 54 43
f 41 55 42
f 42 55 56
f 42 56 64
f 42 64 52
f 43 54 44
f 44 54 53
f 44 53 57
f 46 58 47
f 47 58 48
f 48 59 60
f 48 60 49
f 48 58 59
f 50 60 73
f 50 73 61
f 50 61 62
f 50 62 63
f 50 63 51
f 52 64 53
f 53 64 65
f 53 65 57
f 55 66 56
f 56 66 67
f 56 67 76
f 56 76 64
f 57 65 68
f 58 69 59
f 59 69 70
f 59 70 71
f 59 71 60
f 60 71 72
f 60 72 73
f 61 73 84
f 61 84 74
f 61 74 75
f 61 75 62
f 64 76 65
f 65 76 77
f 65 77 68
f 66 78 67
f 67 78 79
f 67 79 80
f 67 80 87
f 67 87 76
f 68 77 81
f 70 82 83
f 70 83 72
f 70 72 71
f 72 83 84
f 72 84 73
f 74 85 75
f 74 84 94
f 74 94 86
f 74 86 85
f 76 87 88
f 76 88 77
f 77 88 89
f 77 89 81
f 79 90 80
f 80 90 91
f 80 91 98
f 80 98 87
f 82 92 93
f 82 93 83
f 83 93 94
f 83 94 84
f 85 86 95
f 86 94 105
f 86 105 96
f 86 96 97
f 86 97 95
f 87 98 99
f 87 99 88
f 88 99 89
f 89 99 100
f 90 101 102
f 90 102 91
f 91 102 108
f 91 108 98
f 92 103 93
f 93 103 104
f 93 104 94
f 94 104 105
f 96 105 115
f 96 115 106
f 96 106 107
f 96 107 97
f 98 108 99
f 99 108 109
f 99 109 100
f 100 109 110
f 101 111 102
f 102 111 112
f 102 112 118
f 102 118 108
f 103 113 114
f 103 114 104
f 104 114 105
f 105 114 115
f 106 115 125
f 106 125 116
f 106 116 107
f 107 116 117
f 108 118 119
f 108 119 109
f 109 119 120
f 109 120 110
f 111 121 112
f 112 121 122
f 112 122 128
f 112 128 118
f 113 123 114
f 114 123 124
f 114 124 125
f 114 125 115
f 116 125 135
f 116 135 126
f 116 126 127
f 116 127 117
f 118 128 129
f 118 129 119
f 119 129 120
f 120 129 130
f 121 131 122
f 122 131 132
f 122 132 138
f 122 138 128
f 123 133 134
f 123 134 124
f 124 134 125
f 125 134 135
f 126 135 145
f 126 145 136
f 126 136 137
f 126 137 127
f 128 138 139
f 128 139 129
f 129 139 130
f 130 139 140
f 131 141 132
f 132 142 148
f 132 148 138
f 132 141 142
f 133 143 144
f 133 144 134
f 134 144 135
f 135 144 145
f 136 145 156
f 136 156 146
f 136 146 147
f 136 147 137
f 138 148 139
f 139 148 149
f 139 149 150
f 139 150 140
f 141 151 142
f 142 151 152
f 142 152 153
f 142 153 159
f 142 159 148
f 143 154 155
f 143 155 144
f 144 155 145
f 145 155 156
f 146 156 166
f 146 166 157
f 146 157 147
f 147 157 158
f 148 159 160
f 148 160 149
f 149 160 161
f 149 161 150
f 152 162 153
f 153 162 163
f 153 163 169
f 153 169 159
f 154 164 155
f 155 165 166
f 155 166 156
f 155 164 165
f 157 166 177
f 157 177 167
f 157 167 168
f 157 168 158
f 159 169 160
f 160 169 170
f 160 170 161
f 161 170 171
f 162 172 163
f 163 173 182
f 163 182 169
f 163 172 174
f 163 174 173
f 164 175 165
f 165 175 176
f 165 176 166
f 166 176 177
f 167 178 168
f 167 177 188
f 167 188 179
f 167 179 178
f 169 180 181
f 169 181 170
f 169 182 180
f 170 181 183
f 170 183 171
f 173 174 184
f 173 184 192
f 173 192 182
f 174 185 184
f 175 186 187
f 175 187 176
f 176 187 188
f 176 188 177
f 178 179 189
f 179 188 201
f 179 201 190
f 179 190 191
f 179 191 189
f 180 182 192
f 180 192 193
f 180 193 194
f 180 194 195
f 180 195 183
f 180 183 181
f 184 185 197
f 184 197 196
f 184 196 204
f 184 204 192
f 186 198 187
f 187 198 199
f 187 199 188
f 188 199 200
f 188 200 201
f 190 201 211
f 190 211 202
f 190 202 191
f 191 202 203
f 192 204 205
f 192 205 193
f 193 205 206
f 193 206 194
f 196 197 207
f 196 207 208
f 196 208 215
f 196 215 204
f 198 209 200
f 198 200 199
f 200 210 211
f 200 211 201
f 200 209 212
f 200 212 210
f 202 211 221
f 202 221 213
f 202 213 214
f 202 214 203
f 204 215 216
f 204 216 205
f 205 216 206
f 206 216 217
f 207 218 219
f 207 219 208
f 208 219 225
f 208 225 215
f 210 212 222
f 210 222 220
f 210 220 221
f 210 221 211
f 213 223 224
f 213 224 214
f 213 221 231
f 213 231 223
f 215 225 216
f 216 226 227
f 216 227 217
f 216 225 226
f 218 228 219
f 219 228 229
f 219 229 235
f 219 235 225
f 220 222 230
f 220 230 221
f 221 230 231
f 222 232 230
f 223 233 224
f 223 231 241
f 223 241 233
f 224 233 234
f 225 235 236
f 225 236 237
f 225 237 226
f 226 237 227
f 227 237 238
f 228 239 229
f 229 239 240
f 229 240 246
f 229 246 235
f 230 241 231
f 230 232 242
f 230 242 243
f 230 243 241
f 233 241 254
f 233 254 244
f 233 244 245
f 233 245 234
f 235 246 236
f 236 246 247
f 236 247 248
f 236 248 237
f 237 248 238
f 239 249 240
f 240 249 250
f 240 250 251
f 240 251 258
f 240 258 246
f 241 243 252
f 241 252 253
f 241 253 254
f 242 255 252
f 242 252 243
f 244 256 257
f 244 257 245
f 244 254 264
f 244 264 256
f 246 258 259
f 246 259 247
f 247 259 260
f 247 260 248
f 250 261 251
f 251 261 262
f 251 262 269
f 251 269 258
f 252 255 263
f 252 263 253
f 253 264 254
f 253 263 265
f 253 265 264
f 256 266 267
f 256 267 268
f 256 268 257
f 256 264 277
f 256 277 266
f 258 269 259
f 259 269 270
f 259 270 271
f 259 271 272
f 259 272 260
f 261 273 262
f 262 273 274
f 262 274 280
f 262 280 269
f 263 275 265
f 264 265 276
f 264 276 277
f 265 275 276
f 266 278 267
f 266 277 286
f 266 286 278
f 267 278 279
f 269 280 270
f 270 280 281
f 270 281 282
f 270 282 271
f 273 283 274
f 274 283 284
f 274 284 291
f 274 291 280
f 275 285 276
f 276 286 277
f 276 285 287
f 276 287 288
f 276 288 286
f 278 289 279
f 278 286 297
f 278 297 289
f 279 289 290
f 280 291 281
f 281 291 292
f 281 292 293
f 281 293 282
f 283 294 284
f 284 294 295
f 284 295 296
f 284 296 302
f 284 302 291
f 286 288 297
f 287 298 288
f 288 298 299
f 288 299 297
f 289 300 290
f 289 297 307
f 289 307 300
f 290 300 301
f 291 302 303
f 291 303 292
f 292 303 293
f 293 303 304
f 295 305 306
f 295 306 296
f 296 306 312
f 296 312 302
f 297 299 307
f 298 308 309
f 298 309 299
f 299 309 307
f 300 307 318
f 300 318 310
f 300 310 311
f 300 311 301
f 302 312 303
f 303 312 313
f 303 313 314
f 303 314 304
f 305 315 316
f 305 316 306
f 306 316 322
f 306 322 312
f 307 309 317
f 307 317 318
f 308 319 309
f 309 319 317
f 310 318 328
f 310 328 320
f 310 320 311
f 311 320 321
f 312 322 313
f 313 322 323
f 313 323 314
f 314 323 324
f 315 325 316
f 316 325 326
f 316 326 332
f 316 332 322
f 317 327 328
f 317 328 318
f 317 319 329
f 317 329 327
f 320 328 338
f 320 338 330
f 320 330 321
f 321 330 331
f 322 332 333
f 322 333 323
f 323 333 334
f 323 334 324
f 325 335 326
f 326 335 336
f 326 336 342
f 326 342 332
f 327 329 337
f 327 337 338
f 327 338 328
f 329 339 337
f 330 338 349
f 330 349 340
f 330 340 341
f 330 341 331
f 332 342 343
f 332 343 333
f 333 343 344
f 333 344 334
f 335 345 346
f 335 346 336
f 336 346 352
f 336 352 342
f 337 347 338
f 337 339 348
f 337 348 347
f 338 347 349
f 340 349 361
f 340 361 350
f 340 350 351
f 340 351 341
f 342 352 343
f 343 352 353
f 343 353 344
f 344 353 355
f 344 355 354
f 345 356 346
f 346 356 357
f 346 357 358
f 346 358 364
f 346 364 352
f 347 359 349
f 347 348 360
f 347 360 359
f 349 359 361
f 350 361 370
f 350 370 362
f 350 362 351
f 351 362 363
f 352 364 365
f 352 365 355
f 352 355 353
f 354 355 366
f 355 365 366
f 357 367 368
f 357 368 358
f 358 368 375
f 358 375 364
f 359 369 370
f 359 370 361
f 359 360 371
f 359 371 369
f 362 370 382
f 362 382 372
f 362 372 373
f 362 373 374
f 362 374 363
f 364 375 365
f 365 375 376
f 365 376 366
f 366 376 377
f 367 378 368
f 368 378 379
f 368 379 386
f 368 386 375
f 369 371 380
f 369 380 370
f 370 380 381
f 370 381 382
f 371 383 381
f 371 381 380
f 372 382 393
f 372 393 384
f 372 384 373
f 373 384 385
f 375 386 387
f 375 387 388
f 375 388 376
f 376 388 389
f 376 389 377
f 378 390 391
f 378 391 379
f 379 391 397
f 379 397 386
f 381 383 392
f 381 392 393
f 381 393 382
f 383 394 392
f 384 395 396
f 384 396 385
f 384 393 405
f 384 405 395
f 386 397 387
f 387 397 398
f 387 398 389
f 387 389 388
f 389 398 399
f 390 400 401
f 390 401 391
f 391 401 406
f 391 406 397
f 392 402 393
f 392 394 403
f 392 403 402
f 393 402 404
f 393 404 405
f 395 405 406
f 395 406 401
f 395 401 396
f 396 401 400
f 397 406 407
f 397 407 398
f 398 407 408
f 398 408 399
f 402 403 404
f 403 408 407
f 403 407 404
f 404 407 406
f 404 406 405

