# https://github.com/mikedh/trimesh
v 0.00849892 0.01000000 -0.00500718
v 0.00884642 0.00998434 -0.00500718
v 0.00849892 0.01000000 -0.01749891
v -0.00849892 0.01000000 -0.00500718
v 0.00919391 0.00993735 -0.00500718
v 0.00884642 0.00998434 -0.01749891
v 0.00880482 0.00948512 -0.01800000
v 0.00849892 0.00949883 -0.01800000
v -0.00849892 0.01000000 -0.01749891
v -0.00884642 0.00998434 -0.00500718
v 0.00919391 0.00993735 -0.01749891
v 0.00953406 0.00986296 -0.00500718
v 0.00910581 0.00944597 -0.01800000
v -0.00849892 0.00949883 -0.01800000
v -0.00880482 0.00948512 -0.01800000
v -0.00884642 0.00998434 -0.01749891
v -0.00919391 0.00993735 -0.00500718
v 0.00953406 0.00986296 -0.01749891
v 0.00986688 0.00975724 -0.00500718
v 0.00940437 0.00937941 -0.01800000
v -0.00910581 0.00944597 -0.01800000
v -0.00919391 0.00993735 -0.01749891
v -0.00953406 0.00986296 -0.00500718
v 0.00986688 0.00975724 -0.01749891
v 0.00969558 0.00928739 -0.01800000
v 0.01018990 0.00962412 -0.00500718
v -0.00940437 0.00937941 -0.01800000
v -0.00953406 0.00986296 -0.01749891
v -0.00986688 0.00975724 -0.00500718
v 0.01018990 0.00962412 -0.01749891
v 0.00997700 0.00917189 -0.01800000
v 0.01049824 0.00946359 -0.00500718
v -0.00969558 0.00928739 -0.01800000
v -0.00986688 0.00975724 -0.01749891
v -0.01018990 0.00962412 -0.00500718
v 0.01049824 0.00946359 -0.01749891
v 0.01024863 0.00903093 -0.01800000
v 0.01079190 0.00927565 -0.00500718
v -0.00997700 0.00917189 -0.01800000
v -0.01018990 0.00962412 -0.01749891
v -0.01049824 0.00946359 -0.00500718
v 0.01079190 0.00927565 -0.01749891
v 0.01050558 0.00886648 -0.01800000
v 0.01107087 0.00906421 -0.00500718
v -0.01024863 0.00903093 -0.01800000
v -0.01049824 0.00946359 -0.01749891
v -0.01079434 0.00927565 -0.00500718
v 0.01107087 0.00906226 -0.01749891
v 0.01074785 0.00868050 -0.01800000
v 0.01132782 0.00882733 -0.00500718
v 0.01132782 0.00882733 -0.01749891
v -0.01050558 0.00886648 -0.01800000
v -0.01079190 0.00927565 -0.01749891
v -0.01107087 0.00906226 -0.01749891
v -0.01107087 0.00906226 -0.00500718
v 0.01097298 0.00847298 -0.01800000
v 0.01156274 0.00857087 -0.00500718
v 0.01156274 0.00857087 -0.01749891
v 0.01118099 0.00824785 -0.01800000
v -0.01074785 0.00868050 -0.01800000
v -0.01132782 0.00882733 -0.01749891
v -0.01132782 0.00882733 -0.00500718
v 0.01177565 0.00829287 -0.00500718
v 0.01136697 0.00800705 -0.01800000
v 0.01177565 0.00829287 -0.01749891
v -0.01097298 0.00847298 -0.01800000
v -0.01156274 0.00857087 -0.01749891
v -0.01118099 0.00824785 -0.01800000
v -0.01156274 0.00857087 -0.00500718
v 0.01196163 0.00799922 -0.00500718
v 0.01196408 0.00799922 -0.01749891
v 0.01153093 0.00774863 -0.01800000
v -0.01136697 0.00800705 -0.01800000
v -0.01177565 0.00829287 -0.01749891
v -0.01177565 0.00829287 -0.00500718
v 0.01212314 0.00768990 -0.00500718
v 0.01167042 0.00747847 -0.01800000
v 0.01212314 0.00768990 -0.01749891
v -0.01153093 0.00774863 -0.01800000
v -0.01196408 0.00799922 -0.01749891
v -0.01196408 0.00799922 -0.00500718
v 0.01225773 0.00736688 -0.00500718
v 0.01178788 0.00719655 -0.01800000
v 0.01225773 0.00736688 -0.01749891
v -0.01167042 0.00747847 -0.01800000
v -0.01212314 0.00768990 -0.01749891
v -0.01212314 0.00768990 -0.00500718
v 0.01236296 0.00703406 -0.00500718
v 0.01187843 0.00690486 -0.01800000
v 0.01236296 0.00703406 -0.01749891
v -0.01178788 0.00719655 -0.01800000
v -0.01225773 0.00736688 -0.01749891
v -0.01225773 0.00736688 -0.00500718
v 0.01243882 0.00669342 -0.00500718
v 0.01194450 0.00660728 -0.01800000
v 0.01243882 0.00669342 -0.01749891
v -0.01187843 0.00690486 -0.01800000
v -0.01236296 0.00703406 -0.01749891
v -0.01236296 0.00703406 -0.00500718
v 0.01245106 0.00659945 -0.00500718
v 0.01198610 0.00630384 -0.01800000
v 0.01248287 0.00634691 -0.01749891
v -0.01194450 0.00660728 -0.01800000
v -0.01243882 0.00669342 -0.01749891
v -0.01243882 0.00669342 -0.00500718
v 0.01248287 0.00634691 -0.00500718
v 0.01250000 0.00599843 -0.01749891
v 0.01199834 0.00599843 -0.01800000
v -0.01198610 0.00630384 -0.01800000
v -0.01248287 0.00634691 -0.01749891
v -0.01245106 0.00659945 -0.00500718
v 0.01250000 0.00599843 -0.00500718
v 0.01250000 -0.00599843 -0.01749891
v 0.01199834 -0.00599843 -0.01800000
v -0.01199834 0.00599843 -0.01800000
v -0.01250000 0.00599843 -0.01749891
v -0.01248287 0.00634691 -0.00500718
v 0.01250000 -0.00599843 -0.00500718
v 0.01248287 -0.00634691 -0.01749891
v 0.01198610 -0.00630384 -0.01800000
v -0.01199834 -0.00599843 -0.01800000
v -0.01250000 0.00599843 -0.00500718
v -0.01250000 -0.00599843 -0.01749891
v 0.01248287 -0.00634691 -0.00500718
v 0.01245106 -0.00659945 -0.00500718
v 0.01243882 -0.00669342 -0.01749891
v 0.01194450 -0.00660728 -0.01800000
v -0.01198610 -0.00630384 -0.01800000
v -0.01250000 -0.00599843 -0.00500718
v -0.01248287 -0.00634691 -0.01749891
v 0.01243882 -0.00669342 -0.00500718
v 0.01236296 -0.00703406 -0.01749891
v 0.01187843 -0.00690486 -0.01800000
v -0.01243882 -0.00669342 -0.01749891
v -0.01194450 -0.00660728 -0.01800000
v -0.01248287 -0.00634691 -0.00500718
v -0.01245106 -0.00659945 -0.00500718
v 0.01236296 -0.00703406 -0.00500718
v 0.01225773 -0.00736688 -0.01749891
v 0.01178788 -0.00719655 -0.01800000
v -0.01187843 -0.00690486 -0.01800000
v -0.01236296 -0.00703406 -0.01749891
v -0.01243882 -0.00669342 -0.00500718
v 0.01225773 -0.00736688 -0.00500718
v 0.01212314 -0.00768990 -0.01749891
v 0.01167042 -0.00747847 -0.01800000
v -0.01178788 -0.00719655 -0.01800000
v -0.01225773 -0.00736688 -0.01749891
v -0.01236296 -0.00703406 -0.00500718
v 0.01212314 -0.00768990 -0.00500718
v 0.01196408 -0.00799922 -0.01749891
v 0.01153093 -0.00774863 -0.01800000
v -0.01167042 -0.00747847 -0.01800000
v -0.01212314 -0.00768990 -0.01749891
v -0.01225773 -0.00736688 -0.00500718
v 0.01196408 -0.00799922 -0.00500718
v 0.01177565 -0.00829287 -0.01749891
v 0.01136697 -0.00800705 -0.01800000
v -0.01153093 -0.00774863 -0.01800000
v -0.01196408 -0.00799922 -0.01749891
v -0.01212314 -0.00768990 -0.00500718
v 0.01177565 -0.00829287 -0.00500718
v 0.01156274 -0.00857087 -0.01749891
v 0.01118099 -0.00824785 -0.01800000
v -0.01136697 -0.00800705 -0.01800000
v -0.01177565 -0.00829287 -0.00500718
v -0.01196163 -0.00799922 -0.00500718
v -0.01177565 -0.00829287 -0.01749891
v 0.01156274 -0.00857087 -0.00500718
v 0.01132782 -0.00882733 -0.01749891
v 0.01097298 -0.00847298 -0.01800000
v -0.01156274 -0.00857087 -0.01749891
v -0.01118099 -0.00824785 -0.01800000
v -0.01156274 -0.00857087 -0.00500718
v 0.01132782 -0.00882733 -0.00500718
v 0.01107087 -0.00906226 -0.01749891
v 0.01074785 -0.00868050 -0.01800000
v -0.01132782 -0.00882733 -0.01749891
v -0.01097298 -0.00847298 -0.01800000
v -0.01132782 -0.00882733 -0.00500718
v 0.01107087 -0.00906226 -0.00500718
v 0.01079434 -0.00927565 -0.00500718
v 0.01079190 -0.00927565 -0.01749891
v 0.01050558 -0.00886648 -0.01800000
v -0.01074785 -0.00868050 -0.01800000
v -0.01107087 -0.00906226 -0.01749891
v -0.01107087 -0.00906421 -0.00500718
v 0.01049824 -0.00946359 -0.00500718
v 0.01049824 -0.00946359 -0.01749891
v 0.01024863 -0.00903093 -0.01800000
v -0.01050558 -0.00886648 -0.01800000
v -0.01079190 -0.00927565 -0.01749891
v -0.01079190 -0.00927565 -0.00500718
v 0.01018990 -0.00962412 -0.00500718
v 0.01018990 -0.00962412 -0.01749891
v 0.00997700 -0.00917189 -0.01800000
v -0.01024863 -0.00903093 -0.01800000
v -0.01049824 -0.00946359 -0.01749891
v -0.01049824 -0.00946359 -0.00500718
v 0.00986688 -0.00975724 -0.00500718
v 0.00986688 -0.00975724 -0.01749891
v 0.00969558 -0.00928739 -0.01800000
v -0.00997700 -0.00917189 -0.01800000
v -0.01018990 -0.00962412 -0.01749891
v -0.01018990 -0.00962412 -0.00500718
v 0.00953406 -0.00986296 -0.00500718
v 0.00953406 -0.00986296 -0.01749891
v 0.00940437 -0.00937941 -0.01800000
v -0.00969558 -0.00928739 -0.01800000
v -0.00986688 -0.00975724 -0.01749891
v -0.00986688 -0.00975724 -0.00500718
v 0.00919391 -0.00993735 -0.00500718
v 0.00919391 -0.00993735 -0.01749891
v 0.00910581 -0.00944597 -0.01800000
v -0.00940437 -0.00937941 -0.01800000
v -0.00953406 -0.00986296 -0.01749891
v -0.00953406 -0.00986296 -0.00500718
v 0.00884642 -0.00998434 -0.00500718
v 0.00884642 -0.00998434 -0.01749891
v 0.00880482 -0.00948512 -0.01800000
v -0.00910581 -0.00944597 -0.01800000
v -0.00919391 -0.00993735 -0.01749891
v -0.00919391 -0.00993735 -0.00500718
v 0.00849892 -0.01000000 -0.00500718
v 0.00849892 -0.01000000 -0.01749891
v 0.00849892 -0.00949883 -0.01800000
v -0.00880482 -0.00948512 -0.01800000
v -0.00884642 -0.00998434 -0.01749891
v -0.00884642 -0.00998434 -0.00500718
v -0.00849892 -0.01000000 -0.00500718
v -0.00849892 -0.01000000 -0.01749891
v -0.00849892 -0.00949883 -0.01800000
f 1 2 6
f 1 6 3
f 1 3 9
f 1 9 4
f 1 4 10
f 1 10 17
f 1 17 23
f 1 23 29
f 1 29 35
f 1 35 41
f 1 41 47
f 1 47 55
f 1 55 62
f 1 62 69
f 1 69 75
f 1 75 81
f 1 81 87
f 1 87 93
f 1 93 99
f 1 99 105
f 1 105 111
f 1 111 117
f 1 117 122
f 1 122 129
f 1 129 136
f 1 136 137
f 1 137 143
f 1 143 149
f 1 149 155
f 1 155 161
f 1 161 167
f 1 167 166
f 1 166 174
f 1 174 180
f 1 180 187
f 1 187 193
f 1 193 199
f 1 199 205
f 1 205 211
f 1 211 217
f 1 217 223
f 1 223 229
f 1 229 230
f 1 230 224
f 1 224 218
f 1 218 212
f 1 212 206
f 1 206 200
f 1 200 194
f 1 194 188
f 1 188 182
f 1 182 181
f 1 181 175
f 1 175 169
f 1 169 162
f 1 162 156
f 1 156 150
f 1 150 144
f 1 144 138
f 1 138 131
f 1 131 125
f 1 125 124
f 1 124 118
f 1 118 112
f 1 112 106
f 1 106 100
f 1 100 94
f 1 94 88
f 1 88 82
f 1 82 76
f 1 76 70
f 1 70 63
f 1 63 57
f 1 57 50
f 1 50 44
f 1 44 38
f 1 38 32
f 1 32 26
f 1 26 19
f 1 19 12
f 1 12 5
f 1 5 2
f 2 5 11
f 2 11 6
f 3 6 7
f 3 7 8
f 3 8 14
f 3 14 9
f 4 9 16
f 4 16 10
f 5 12 18
f 5 18 11
f 6 11 13
f 6 13 7
f 7 13 20
f 7 20 25
f 7 25 31
f 7 31 37
f 7 37 43
f 7 43 49
f 7 49 56
f 7 56 59
f 7 59 64
f 7 64 72
f 7 72 77
f 7 77 83
f 7 83 89
f 7 89 95
f 7 95 101
f 7 101 108
f 7 108 114
f 7 114 120
f 7 120 127
f 7 127 133
f 7 133 140
f 7 140 146
f 7 146 152
f 7 152 158
f 7 158 164
f 7 164 171
f 7 171 177
f 7 177 184
f 7 184 190
f 7 190 196
f 7 196 202
f 7 202 208
f 7 208 214
f 7 214 220
f 7 220 226
f 7 226 232
f 7 232 227
f 7 227 221
f 7 221 215
f 7 215 209
f 7 209 203
f 7 203 197
f 7 197 191
f 7 191 185
f 7 185 179
f 7 179 173
f 7 173 165
f 7 165 159
f 7 159 153
f 7 153 147
f 7 147 141
f 7 141 135
f 7 135 128
f 7 128 121
f 7 121 115
f 7 115 109
f 7 109 103
f 7 103 97
f 7 97 91
f 7 91 85
f 7 85 79
f 7 79 73
f 7 73 68
f 7 68 66
f 7 66 60
f 7 60 52
f 7 52 45
f 7 45 39
f 7 39 33
f 7 33 27
f 7 27 21
f 7 21 15
f 7 15 14
f 7 14 8
f 9 14 15
f 9 15 16
f 10 16 22
f 10 22 17
f 11 18 13
f 12 19 24
f 12 24 18
f 13 18 20
f 15 21 16
f 16 21 22
f 17 22 28
f 17 28 23
f 18 24 25
f 18 25 20
f 19 26 30
f 19 30 24
f 21 27 28
f 21 28 22
f 23 28 34
f 23 34 29
f 24 30 31
f 24 31 25
f 26 32 36
f 26 36 30
f 27 33 28
f 28 33 34
f 29 34 40
f 29 40 35
f 30 36 37
f 30 37 31
f 32 38 42
f 32 42 36
f 33 39 34
f 34 39 40
f 35 40 46
f 35 46 41
f 36 42 43
f 36 43 37
f 38 44 42
f 39 45 40
f 40 45 46
f 41 46 47
f 42 44 48
f 42 48 43
f 43 48 49
f 44 50 51
f 44 51 48
f 45 52 53
f 45 53 46
f 46 53 47
f 47 53 54
f 47 54 55
f 48 51 49
f 49 51 56
f 50 57 58
f 50 58 51
f 51 58 59
f 51 59 56
f 52 60 54
f 52 54 53
f 54 60 61
f 54 61 62
f 54 62 55
f 57 63 65
f 57 65 58
f 58 64 59
f 58 65 64
f 60 66 61
f 61 67 69
f 61 69 62
f 61 66 68
f 61 68 67
f 63 70 71
f 63 71 65
f 64 65 71
f 64 71 72
f 67 68 73
f 67 73 74
f 67 74 75
f 67 75 69
f 70 76 71
f 71 77 72
f 71 76 78
f 71 78 77
f 73 79 80
f 73 80 74
f 74 80 81
f 74 81 75
f 76 82 84
f 76 84 78
f 77 78 84
f 77 84 83
f 79 85 80
f 80 85 86
f 80 86 87
f 80 87 81
f 82 88 90
f 82 90 84
f 83 84 90
f 83 90 89
f 85 91 92
f 85 92 86
f 86 92 93
f 86 93 87
f 88 94 96
f 88 96 90
f 89 90 96
f 89 96 95
f 91 97 98
f 91 98 92
f 92 98 99
f 92 99 93
f 94 100 96
f 95 96 101
f 96 100 102
f 96 102 101
f 97 103 104
f 97 104 98
f 98 104 105
f 98 105 99
f 100 106 102
f 101 102 107
f 101 107 108
f 102 106 112
f 102 112 107
f 103 109 104
f 104 109 110
f 104 110 111
f 104 111 105
f 107 112 118
f 107 118 113
f 107 113 114
f 107 114 108
f 109 115 116
f 109 116 110
f 110 117 111
f 110 116 122
f 110 122 117
f 113 118 124
f 113 124 119
f 113 119 120
f 113 120 114
f 115 121 123
f 115 123 116
f 116 123 129
f 116 129 122
f 119 124 125
f 119 125 126
f 119 126 120
f 120 126 127
f 121 128 123
f 123 128 130
f 123 130 136
f 123 136 129
f 125 131 126
f 126 131 138
f 126 138 132
f 126 132 133
f 126 133 127
f 128 134 130
f 128 135 134
f 130 134 137
f 130 137 136
f 132 138 144
f 132 144 139
f 132 139 140
f 132 140 133
f 134 135 141
f 134 141 142
f 134 142 149
f 134 149 143
f 134 143 137
f 139 144 150
f 139 150 145
f 139 145 146
f 139 146 140
f 141 147 142
f 142 148 155
f 142 155 149
f 142 147 148
f 145 150 156
f 145 156 151
f 145 151 146
f 146 151 152
f 147 153 154
f 147 154 148
f 148 154 161
f 148 161 155
f 151 156 162
f 151 162 157
f 151 157 158
f 151 158 152
f 153 159 160
f 153 160 154
f 154 160 161
f 157 163 158
f 157 162 169
f 157 169 163
f 158 163 164
f 159 165 160
f 160 166 167
f 160 167 161
f 160 165 168
f 160 168 166
f 163 169 175
f 163 175 170
f 163 170 164
f 164 170 171
f 165 172 168
f 165 173 172
f 166 168 172
f 166 172 174
f 170 175 181
f 170 181 176
f 170 176 177
f 170 177 171
f 172 173 178
f 172 178 180
f 172 180 174
f 173 179 178
f 176 181 182
f 176 182 183
f 176 183 184
f 176 184 177
f 178 179 185
f 178 185 186
f 178 186 187
f 178 187 180
f 182 188 189
f 182 189 183
f 183 189 190
f 183 190 184
f 185 191 186
f 186 191 192
f 186 192 187
f 187 192 193
f 188 194 195
f 188 195 189
f 189 195 190
f 190 195 196
f 191 197 198
f 191 198 192
f 192 198 199
f 192 199 193
f 194 200 201
f 194 201 195
f 195 201 196
f 196 201 202
f 197 203 204
f 197 204 198
f 198 204 205
f 198 205 199
f 200 206 207
f 200 207 201
f 201 207 202
f 202 207 208
f 203 209 210
f 203 210 204
f 204 210 211
f 204 211 205
f 206 212 213
f 206 213 207
f 207 213 214
f 207 214 208
f 209 215 216
f 209 216 210
f 210 216 217
f 210 217 211
f 212 218 219
f 212 219 213
f 213 219 214
f 214 219 220
f 215 221 216
f 216 221 222
f 216 222 223
f 216 223 217
f 218 224 225
f 218 225 219
f 219 225 220
f 220 225 226
f 221 227 228
f 221 228 222
f 222 228 229
f 222 229 223
f 224 230 231
f 224 231 225
f 225 231 232
f 225 232 226
f 227 231 228
f 227 232 231
f 228 231 230
f 228 230 229

