# https://github.com/mikedh/trimesh
v -0.00834196 0.00494278 -0.05433990
v 0.00834196 0.00494278 -0.05433990
v -0.00895936 0.00494278 -0.05426360
v -0.00834196 0.02538267 -0.05433990
v 0.00834196 0.02538267 -0.05433990
v 0.00895936 0.00494278 -0.05426360
v -0.00934397 0.00494278 -0.05410719
v -0.00895936 0.02538267 -0.05426360
v -0.00895936 0.02590858 -0.05413008
v -0.00834196 0.02597627 -0.05416823
v 0.00834196 0.02597627 -0.05416823
v 0.00895936 0.02590858 -0.05413008
v 0.00895936 0.02538267 -0.05426360
v 0.00899175 0.00494278 -0.05425216
v -0.00937433 0.00494278 -0.05409193
v -0.00937433 0.02538267 -0.05409193
v -0.00933992 0.02579142 -0.05406141
v -0.00895936 0.02621839 -0.05379054
v -0.00834196 0.02628348 -0.05384777
v -0.00092509 0.03139671 -0.04926594
v -0.00030769 0.03139671 -0.04930790
v 0.00030769 0.03139671 -0.04930790
v 0.00092509 0.03139671 -0.04926594
v 0.00834196 0.02628348 -0.05384777
v 0.00895936 0.02621839 -0.05379054
v 0.00933992 0.02579142 -0.05406141
v 0.00937433 0.02538267 -0.05409193
v 0.00937433 0.00494278 -0.05409193
v -0.00968404 0.00494278 -0.05379436
v -0.00968404 0.02538267 -0.05379436
v -0.00995529 0.02579142 -0.05345100
v -0.00952615 0.02599709 -0.05363794
v -0.00930146 0.02631993 -0.05341285
v -0.00201413 0.03132641 -0.04912478
v -0.00154451 0.03138108 -0.04920108
v -0.00154451 0.03152428 -0.04874328
v -0.00092509 0.03153990 -0.04874328
v 0.00092509 0.03153990 -0.04874328
v 0.00154451 0.03152428 -0.04874328
v 0.00154451 0.03138108 -0.04920108
v 0.00201413 0.03132641 -0.04912478
v 0.00930146 0.02631993 -0.05341285
v 0.00952615 0.02599709 -0.05363794
v 0.00995529 0.02579142 -0.05345100
v 0.00968404 0.02538267 -0.05379436
v 0.00939660 0.00494278 -0.05407285
v -0.00999173 0.00494278 -0.05348534
v -0.00999173 0.02538267 -0.05348534
v -0.01021642 0.02538267 -0.05306950
v -0.01002412 0.02599709 -0.05302372
v -0.00989659 0.02631472 -0.05278338
v -0.00971441 0.02620277 -0.05319540
v -0.00376916 0.03131079 -0.04788872
v -0.00314974 0.03130298 -0.04848386
v -0.00277930 0.03136286 -0.04860212
v -0.00219632 0.03141233 -0.04878525
v -0.00277930 0.03150345 -0.04812525
v -0.00216191 0.03153990 -0.04812525
v 0.00216191 0.03153990 -0.04812525
v 0.00277930 0.03150345 -0.04812525
v 0.00219632 0.03141233 -0.04878525
v 0.00277930 0.03136286 -0.04860212
v 0.00314974 0.03130298 -0.04848386
v 0.00989659 0.02631472 -0.05278338
v 0.00971440 0.02620277 -0.05319540
v 0.00376916 0.03131079 -0.04788872
v 0.01002412 0.02599709 -0.05302372
v 0.01021642 0.02538267 -0.05306950
v 0.00999173 0.02538267 -0.05348534
v 0.00968404 0.00494278 -0.05379436
v -0.01020023 0.00494278 -0.05310384
v -0.01021642 0.00494278 -0.05306950
v -0.01033990 0.02538267 -0.05245147
v -0.01012735 0.02599970 -0.05245147
v -0.00501408 0.03133943 -0.04503890
v -0.00498169 0.03130038 -0.04551196
v -0.00454850 0.03139671 -0.04627496
v -0.00441490 0.03133162 -0.04689300
v -0.00433393 0.03126132 -0.04721346
v -0.00974275 0.02856933 -0.02773782
v -0.00943303 0.02895464 -0.02773782
v -0.00910106 0.02926446 -0.02773782
v -0.00337241 0.03137588 -0.04810617
v -0.00399183 0.03134984 -0.04745381
v -0.00339873 0.03151126 -0.04750722
v -0.00339873 0.03153990 -0.04689300
v 0.00339873 0.03153990 -0.04689300
v 0.00339873 0.03151126 -0.04750722
v 0.00337241 0.03137588 -0.04810617
v 0.01012735 0.02599970 -0.05245147
v 0.00433393 0.03126132 -0.04721346
v 0.00441490 0.03133162 -0.04689300
v 0.00454850 0.03139671 -0.04627496
v 0.00498169 0.03130038 -0.04551196
v 0.00501408 0.03133943 -0.04503890
v 0.00910106 0.02926446 -0.02773782
v 0.00943506 0.02895464 -0.02773782
v 0.00974274 0.02856933 -0.02773782
v 0.00399183 0.03134984 -0.04745381
v 0.01033990 0.02538267 -0.05245147
v 0.01022654 0.00494278 -0.05302372
v 0.01021642 0.00494278 -0.05306950
v 0.00999173 0.00494278 -0.05348534
v -0.01033990 0.00494278 -0.05245147
v -0.01033990 0.02538267 -0.02155750
v -0.01032775 0.02661672 -0.01970340
v -0.01032573 0.02661672 -0.02773782
v -0.01027108 0.02723635 -0.02773782
v -0.01010914 0.02785337 -0.02773782
v -0.00994315 0.02825952 -0.02773782
v -0.00502623 0.03134984 -0.04442087
v -0.00463352 0.03148262 -0.04503890
v -0.00879134 0.02949356 -0.02773782
v -0.00401612 0.03153729 -0.04627496
v -0.00401612 0.03147481 -0.04689300
v -0.00974477 0.02856933 -0.02341159
v -0.00943506 0.02895725 -0.02402963
v -0.00910713 0.02926706 -0.02402963
v -0.00879337 0.02949617 -0.02588372
v -0.00401612 0.03153990 -0.04565693
v 0.00401612 0.03153990 -0.04565693
v 0.00401612 0.03153729 -0.04627496
v 0.00401612 0.03147481 -0.04689300
v 0.00994315 0.02825952 -0.02773782
v 0.01010914 0.02785337 -0.02773782
v 0.00463352 0.03148262 -0.04503890
v 0.00502623 0.03134984 -0.04442087
v 0.00879337 0.02949617 -0.02773782
v 0.00910510 0.02926706 -0.02588372
v 0.00943506 0.02895725 -0.02650175
v 0.00974477 0.02856933 -0.02588372
v 0.01033990 0.00494278 -0.05245147
v 0.01027107 0.02723635 -0.02773782
v 0.01032573 0.02661672 -0.02773782
v 0.01032776 0.02661672 -0.01970340
v 0.01033990 0.02538267 -0.02155750
v -0.01033990 0.00494278 -0.02155750
v -0.01033180 0.02599970 -0.01970340
v -0.01032573 0.02599970 -0.01908537
v -0.01031763 0.02661672 -0.01908537
v -0.01027108 0.02723635 -0.01970340
v -0.01010914 0.02785337 -0.01970340
v -0.00994315 0.02825952 -0.01970340
v -0.00463352 0.03149304 -0.04442087
v -0.00834196 0.02973048 -0.02773782
v -0.00834196 0.02973308 -0.02526569
v -0.00834196 0.02973308 -0.01970340
v -0.00974477 0.02856933 -0.02032143
v -0.00943506 0.02895725 -0.01970340
v -0.00879742 0.02949617 -0.02402963
v -0.00910510 0.02926706 -0.02032143
v -0.00879742 0.02949617 -0.02032143
v -0.00401612 0.03153990 -0.04318481
v 0.00401612 0.03153990 -0.04318481
v 0.00463352 0.03149304 -0.04442087
v 0.00994315 0.02825952 -0.01970340
v 0.01010914 0.02785337 -0.01970340
v 0.00834196 0.02973048 -0.01970340
v 0.00834196 0.02973308 -0.02402963
v 0.00834196 0.02973308 -0.02588372
v 0.00834196 0.02973048 -0.02773782
v 0.00879742 0.02949617 -0.02464766
v 0.00910713 0.02926706 -0.02402963
v 0.00943506 0.02895985 -0.02402963
v 0.00974477 0.02856933 -0.02341159
v 0.01033990 0.00494278 -0.02155750
v 0.01027107 0.02723635 -0.01970340
v 0.01031763 0.02661672 -0.01908537
v 0.01032573 0.02599970 -0.01908537
v 0.01033180 0.02599970 -0.01970340
v -0.01032775 0.00494278 -0.01913115
v -0.01032775 0.01055327 -0.01908537
v -0.01032775 0.02352900 -0.01908537
v -0.01024881 0.02599970 -0.01846734
v -0.01025893 0.02723635 -0.01908537
v -0.01024071 0.02661672 -0.01846734
v -0.01009699 0.02785337 -0.01908537
v -0.00993505 0.02824910 -0.01908537
v -0.00973667 0.02855892 -0.01908537
v -0.00974275 0.02856933 -0.01970340
v -0.00772456 0.02992834 -0.01908537
v -0.00463352 0.03146960 -0.04380284
v -0.00401612 0.03153209 -0.04256677
v -0.00879539 0.02949617 -0.01970340
v -0.00878325 0.02948836 -0.01908537
v -0.00834196 0.02971746 -0.01908537
v -0.00942696 0.02894683 -0.01908537
v -0.00909296 0.02925665 -0.01908537
v -0.00910308 0.02926446 -0.01970340
v -0.00339873 0.03153990 -0.04194874
v 0.00401612 0.03153209 -0.04256677
v 0.00339873 0.03153990 -0.04194874
v 0.00463352 0.03146960 -0.04380284
v 0.00772456 0.02992834 -0.01908537
v 0.00772456 0.02994136 -0.01970340
v 0.00974274 0.02856933 -0.01970340
v 0.00993505 0.02824910 -0.01908537
v 0.01009699 0.02785337 -0.01908537
v 0.00834196 0.02971746 -0.01908537
v 0.00879337 0.02949617 -0.01970340
v 0.00879539 0.02949617 -0.02032143
v 0.00879742 0.02949617 -0.02402963
v 0.00910510 0.02926446 -0.02032143
v 0.00943506 0.02895725 -0.02032143
v 0.01032776 0.01055327 -0.01908537
v 0.01032978 0.00494278 -0.01965762
v 0.01025893 0.02723635 -0.01908537
v 0.01024071 0.02661672 -0.01846734
v 0.01032776 0.02352900 -0.01908537
v 0.01024881 0.02599970 -0.01846734
v 0.01025083 0.02414602 -0.01846734
v -0.01032573 0.00494278 -0.01908537
v -0.01025691 0.00494278 -0.01851312
v -0.01025083 0.02352900 -0.01846734
v -0.01005246 0.02599970 -0.01784931
v -0.01017998 0.02723635 -0.01846734
v -0.01004436 0.02661672 -0.01784931
v -0.00999983 0.02788462 -0.01845589
v -0.00991481 0.02821265 -0.01865427
v -0.00971238 0.02843916 -0.01845589
v -0.00937635 0.02889476 -0.01846734
v -0.00772456 0.02985284 -0.01846734
v -0.00530558 0.02998302 -0.01536573
v -0.00725696 0.03000645 -0.01908537
v -0.00499586 0.03002467 -0.01536573
v -0.00872252 0.02944670 -0.01846734
v -0.00834196 0.02963676 -0.01846734
v -0.00903021 0.02920458 -0.01846734
v -0.00216191 0.03153990 -0.04071268
v 0.00499586 0.03002467 -0.01536573
v 0.00726101 0.03000905 -0.01908537
v 0.00216191 0.03153990 -0.04071268
v 0.00530558 0.02998302 -0.01536573
v 0.00772456 0.02985284 -0.01846734
v 0.00943303 0.02895464 -0.01970340
v 0.00942696 0.02894683 -0.01908537
v 0.00973465 0.02855892 -0.01908537
v 0.00991481 0.02821265 -0.01865427
v 0.00999983 0.02788462 -0.01845589
v 0.01017998 0.02723635 -0.01846734
v 0.00878325 0.02948836 -0.01908537
v 0.00834196 0.02963676 -0.01846734
v 0.00872252 0.02944670 -0.01846734
v 0.00910106 0.02926446 -0.01970340
v 0.01032573 0.00494278 -0.01908537
v 0.01025083 0.00494278 -0.01846734
v 0.01032168 0.00494278 -0.01903959
v 0.01004436 0.02661672 -0.01784931
v 0.01005246 0.02599970 -0.01784931
v 0.01005448 0.02105570 -0.01784931
v 0.01005651 0.00498964 -0.01784931
v 0.01023666 0.00494278 -0.01842156
v -0.01025083 0.00494278 -0.01846734
v -0.01005650 0.00498964 -0.01784931
v -0.01005448 0.02167272 -0.01784931
v -0.00990469 0.02599970 -0.01751358
v -0.00997958 0.02718949 -0.01783023
v -0.00994517 0.02769717 -0.01802480
v -0.00989861 0.02661672 -0.01752121
v -0.00989254 0.02695257 -0.01753266
v -0.00986420 0.02811112 -0.01824225
v -0.00931158 0.02882707 -0.01807439
v -0.00587844 0.02984503 -0.01536573
v -0.00587034 0.02984764 -0.01536573
v -0.00463960 0.03003509 -0.01536573
v -0.00866382 0.02940765 -0.01813925
v -0.00092509 0.03153209 -0.04009465
v -0.00030769 0.03153990 -0.04009465
v 0.00463352 0.03003509 -0.01536573
v 0.00030769 0.03153990 -0.04009465
v 0.00092509 0.03153209 -0.04009465
v 0.00586225 0.02985024 -0.01536573
v 0.00587034 0.02984764 -0.01536573
v 0.00909093 0.02925665 -0.01908537
v 0.00937635 0.02889476 -0.01846734
v 0.00971238 0.02843916 -0.01845589
v 0.00986420 0.02811112 -0.01824225
v 0.00994517 0.02769717 -0.01802480
v 0.00997958 0.02718949 -0.01783023
v 0.00866382 0.02940765 -0.01813925
v 0.00903021 0.02920458 -0.01846734
v 0.00989254 0.02695257 -0.01753266
v 0.00989861 0.02661672 -0.01752121
v 0.00990469 0.02599970 -0.01751358
v 0.00990469 0.01920202 -0.01750977
v 0.01005651 0.00494278 -0.01784931
v -0.01005650 0.00494278 -0.01784931
v -0.00991683 0.00494278 -0.01753648
v -0.00990469 0.01920202 -0.01750977
v -0.00968404 0.01920202 -0.01720075
v -0.00968202 0.02599970 -0.01720457
v -0.00985206 0.02736392 -0.01761278
v -0.00977918 0.02788462 -0.01783023
v -0.00967594 0.02661672 -0.01721220
v -0.00815775 0.02728842 -0.01536573
v -0.00932777 0.02723635 -0.01686122
v -0.00966582 0.02718949 -0.01728850
v -0.00935004 0.02828034 -0.01742965
v -0.00945530 0.02848081 -0.01786075
v -0.00919012 0.02869430 -0.01766237
v -0.00892697 0.02906139 -0.01789890
v -0.00624888 0.02967841 -0.01536573
v -0.00402625 0.03003769 -0.01536573
v -0.00705251 0.02916292 -0.01536573
v -0.00655252 0.02954043 -0.01536573
v -0.00654240 0.02954563 -0.01536573
v 0.00401612 0.03003769 -0.01536573
v 0.00654240 0.02954563 -0.01536573
v 0.00931158 0.02882707 -0.01807439
v 0.00945328 0.02848081 -0.01786075
v 0.00935004 0.02828034 -0.01742965
v 0.00977918 0.02788462 -0.01783023
v 0.00985205 0.02736392 -0.01761278
v 0.00892697 0.02906139 -0.01789890
v 0.00655252 0.02954043 -0.01536573
v 0.00680150 0.02940244 -0.01536573
v 0.00966582 0.02718949 -0.01728850
v 0.00932777 0.02723635 -0.01686122
v 0.00815775 0.02728842 -0.01536573
v 0.00967594 0.02661672 -0.01721220
v 0.00968202 0.02599970 -0.01720457
v 0.00968404 0.01920202 -0.01720075
v 0.00988849 0.00494278 -0.01748688
v 0.00990469 0.00494278 -0.01750977
v -0.00990469 0.00494278 -0.01750977
v -0.00968404 0.00494278 -0.01720075
v -0.00823265 0.02601011 -0.01536573
v -0.00822253 0.02662714 -0.01536573
v -0.00928526 0.02758261 -0.01690318
v -0.00943101 0.02781432 -0.01722746
v -0.00799581 0.02780651 -0.01536573
v -0.00796545 0.02788462 -0.01536573
v -0.00764562 0.02848862 -0.01536573
v -0.00762335 0.02852768 -0.01536573
v -0.00757072 0.02859797 -0.01536573
v -0.00719825 0.02902754 -0.01536573
v -0.00711728 0.02910825 -0.01536573
v 0.00919012 0.02869430 -0.01766237
v 0.00943101 0.02781432 -0.01722746
v 0.00743307 0.02880104 -0.01536573
v 0.00762335 0.02852768 -0.01536573
v 0.00798164 0.02786379 -0.01536573
v 0.00928526 0.02758261 -0.01690318
v 0.00714158 0.02908742 -0.01536573
v 0.00806666 0.02762427 -0.01536573
v 0.00822253 0.02661672 -0.01536573
v 0.00823265 0.02599970 -0.01536573
v 0.00968404 0.00494278 -0.01720075
v -0.00937433 0.00494278 -0.01682688
v -0.00823265 0.02599970 -0.01536573
v 0.00820836 0.02538267 -0.01536573
v 0.00937433 0.00494278 -0.01682688
v -0.00895936 0.00494278 -0.01669336
v -0.00812739 0.02485157 -0.01536573
v -0.00821038 0.02539048 -0.01536573
v 0.00812132 0.02483855 -0.01536573
v 0.00934397 0.00494278 -0.01681544
v -0.00834196 0.00494278 -0.01665139
v -0.00812132 0.02484115 -0.01536573
v 0.00772456 0.02461205 -0.01536573
v 0.00834196 0.00494278 -0.01665139
v 0.00891280 0.00494278 -0.01668954
v 0.00895936 0.00494278 -0.01669336
v -0.00710514 0.02457820 -0.01536573
v -0.00727315 0.02458080 -0.01536573
v -0.00772456 0.02461205 -0.01536573
v -0.00780756 0.02463027 -0.01536573
v 0.00710514 0.02457820 -0.01536573
f 1 2 6
f 1 6 14
f 1 14 28
f 1 28 46
f 1 46 70
f 1 70 103
f 1 103 102
f 1 102 101
f 1 101 132
f 1 132 166
f 1 166 206
f 1 206 245
f 1 245 247
f 1 247 246
f 1 246 252
f 1 252 286
f 1 286 324
f 1 324 323
f 1 323 348
f 1 348 352
f 1 352 357
f 1 357 363
f 1 363 362
f 1 362 361
f 1 361 358
f 1 358 353
f 1 353 349
f 1 349 326
f 1 326 325
f 1 325 288
f 1 288 287
f 1 287 253
f 1 253 213
f 1 213 212
f 1 212 171
f 1 171 137
f 1 137 104
f 1 104 72
f 1 72 71
f 1 71 47
f 1 47 29
f 1 29 15
f 1 15 7
f 1 7 3
f 1 3 8
f 1 8 4
f 1 4 5
f 1 5 2
f 2 5 13
f 2 13 6
f 3 7 8
f 4 8 9
f 4 9 10
f 4 10 11
f 4 11 5
f 5 11 12
f 5 12 13
f 6 13 14
f 7 15 16
f 7 16 8
f 8 16 17
f 8 17 9
f 9 17 18
f 9 18 19
f 9 19 10
f 10 19 20
f 10 20 21
f 10 21 22
f 10 22 11
f 11 22 23
f 11 23 24
f 11 24 12
f 12 24 25
f 12 25 26
f 12 26 13
f 13 26 27
f 13 27 14
f 14 27 28
f 15 29 30
f 15 30 16
f 16 30 17
f 17 30 31
f 17 31 32
f 17 32 33
f 17 33 18
f 18 33 34
f 18 34 35
f 18 35 19
f 19 35 20
f 20 35 36
f 20 36 37
f 20 37 21
f 21 37 38
f 21 38 22
f 22 38 23
f 23 38 39
f 23 39 40
f 23 40 24
f 24 40 25
f 25 40 41
f 25 41 42
f 25 42 26
f 26 42 43
f 26 43 44
f 26 44 45
f 26 45 27
f 27 45 46
f 27 46 28
f 29 47 48
f 29 48 30
f 30 48 31
f 31 48 49
f 31 49 50
f 31 50 51
f 31 51 52
f 31 52 32
f 32 52 33
f 33 52 51
f 33 51 53
f 33 53 54
f 33 54 34
f 34 54 55
f 34 55 56
f 34 56 35
f 35 56 36
f 36 57 58
f 36 58 37
f 36 56 57
f 37 58 86
f 37 86 120
f 37 120 153
f 37 153 190
f 37 190 229
f 37 229 268
f 37 268 270
f 37 270 232
f 37 232 192
f 37 192 154
f 37 154 121
f 37 121 87
f 37 87 59
f 37 59 38
f 38 59 39
f 39 59 60
f 39 60 61
f 39 61 40
f 40 61 41
f 41 61 62
f 41 62 63
f 41 63 42
f 42 64 65
f 42 65 43
f 42 63 66
f 42 66 64
f 43 65 44
f 44 65 64
f 44 64 67
f 44 67 68
f 44 68 69
f 44 69 45
f 45 70 46
f 45 69 103
f 45 103 70
f 47 71 48
f 48 71 49
f 49 71 72
f 49 72 104
f 49 104 73
f 49 73 50
f 50 73 74
f 50 74 51
f 51 75 76
f 51 76 77
f 51 77 78
f 51 78 79
f 51 79 53
f 51 74 80
f 51 80 81
f 51 81 82
f 51 82 75
f 53 83 54
f 53 79 84
f 53 84 83
f 54 83 55
f 55 83 57
f 55 57 56
f 57 83 85
f 57 85 58
f 58 85 86
f 59 87 88
f 59 88 60
f 60 89 62
f 60 62 61
f 60 88 89
f 62 89 63
f 63 89 66
f 64 90 67
f 64 66 91
f 64 91 92
f 64 92 93
f 64 93 94
f 64 94 95
f 64 95 96
f 64 96 97
f 64 97 98
f 64 98 90
f 66 89 99
f 66 99 91
f 67 90 100
f 67 100 68
f 68 101 102
f 68 102 103
f 68 103 69
f 68 100 101
f 73 104 137
f 73 137 105
f 73 105 106
f 73 106 107
f 73 107 108
f 73 108 109
f 73 109 74
f 74 109 110
f 74 110 80
f 75 111 112
f 75 112 77
f 75 77 76
f 75 82 113
f 75 113 111
f 77 114 115
f 77 115 78
f 77 112 114
f 78 115 84
f 78 84 79
f 80 110 116
f 80 116 117
f 80 117 81
f 81 117 118
f 81 118 82
f 82 118 119
f 82 119 113
f 83 84 85
f 84 115 85
f 85 115 114
f 85 114 86
f 86 114 120
f 87 121 122
f 87 122 88
f 88 122 123
f 88 123 99
f 88 99 89
f 90 98 124
f 90 124 125
f 90 125 100
f 91 99 92
f 92 99 123
f 92 123 93
f 93 123 122
f 93 122 126
f 93 126 95
f 93 95 94
f 95 126 127
f 95 127 128
f 95 128 96
f 96 128 129
f 96 129 97
f 97 129 130
f 97 130 98
f 98 130 131
f 98 131 124
f 100 132 101
f 100 125 133
f 100 133 134
f 100 134 135
f 100 135 136
f 100 136 166
f 100 166 132
f 105 137 138
f 105 138 106
f 106 138 139
f 106 139 140
f 106 140 141
f 106 141 108
f 106 108 107
f 108 141 142
f 108 142 109
f 109 142 143
f 109 143 110
f 110 143 148
f 110 148 116
f 111 144 112
f 111 113 145
f 111 145 146
f 111 146 147
f 111 147 144
f 112 144 114
f 113 119 145
f 114 144 120
f 116 148 149
f 116 149 117
f 117 149 118
f 118 150 119
f 118 149 151
f 118 151 152
f 118 152 150
f 119 150 145
f 120 144 153
f 121 154 155
f 121 155 122
f 122 155 126
f 124 131 165
f 124 165 156
f 124 156 157
f 124 157 125
f 125 157 167
f 125 167 133
f 126 155 127
f 127 155 158
f 127 158 159
f 127 159 160
f 127 160 161
f 127 161 128
f 128 161 160
f 128 160 162
f 128 162 129
f 129 162 163
f 129 163 164
f 129 164 130
f 130 164 131
f 131 164 165
f 133 167 135
f 133 135 134
f 135 167 168
f 135 168 169
f 135 169 170
f 135 170 136
f 136 170 166
f 137 171 138
f 138 171 172
f 138 172 173
f 138 173 139
f 139 173 214
f 139 214 174
f 139 174 176
f 139 176 140
f 140 175 141
f 140 176 175
f 141 175 177
f 141 177 142
f 142 177 143
f 143 177 178
f 143 178 179
f 143 179 180
f 143 180 148
f 144 147 181
f 144 181 182
f 144 182 183
f 144 183 153
f 145 150 146
f 146 150 152
f 146 152 147
f 147 152 184
f 147 184 185
f 147 185 186
f 147 186 181
f 148 180 149
f 149 180 179
f 149 179 187
f 149 187 188
f 149 188 189
f 149 189 151
f 151 189 184
f 151 184 152
f 153 183 190
f 154 191 155
f 154 192 191
f 155 191 193
f 155 193 194
f 155 194 195
f 155 195 158
f 156 196 237
f 156 237 197
f 156 197 198
f 156 198 157
f 156 165 196
f 157 198 207
f 157 207 167
f 158 195 194
f 158 194 199
f 158 199 200
f 158 200 201
f 158 201 159
f 159 201 202
f 159 202 162
f 159 162 160
f 162 202 163
f 163 202 201
f 163 201 203
f 163 203 204
f 163 204 164
f 164 204 196
f 164 196 165
f 166 170 205
f 166 205 206
f 167 207 168
f 168 207 208
f 168 208 210
f 168 210 169
f 169 209 170
f 169 210 211
f 169 211 209
f 170 209 205
f 171 212 172
f 172 212 213
f 172 213 173
f 173 213 214
f 174 214 215
f 174 215 217
f 174 217 176
f 175 176 216
f 175 216 177
f 176 217 216
f 177 216 218
f 177 218 219
f 177 219 178
f 178 219 179
f 179 219 220
f 179 220 221
f 179 221 187
f 181 186 222
f 181 222 223
f 181 223 224
f 181 224 183
f 181 183 182
f 183 224 225
f 183 225 190
f 184 189 188
f 184 188 185
f 185 188 226
f 185 226 186
f 186 226 227
f 186 227 222
f 187 221 188
f 188 221 228
f 188 228 226
f 190 225 229
f 191 192 230
f 191 230 231
f 191 231 194
f 191 194 193
f 192 232 230
f 194 231 233
f 194 233 234
f 194 234 199
f 196 204 235
f 196 235 236
f 196 236 237
f 197 237 238
f 197 238 198
f 198 238 239
f 198 239 240
f 198 240 207
f 199 241 200
f 199 234 242
f 199 242 243
f 199 243 241
f 200 244 203
f 200 203 201
f 200 241 274
f 200 274 244
f 203 244 204
f 204 244 235
f 205 245 206
f 205 209 211
f 205 211 246
f 205 246 247
f 205 247 245
f 207 240 208
f 208 240 248
f 208 248 249
f 208 249 210
f 210 249 211
f 211 249 250
f 211 250 251
f 211 251 252
f 211 252 246
f 213 253 214
f 214 253 287
f 214 287 254
f 214 254 255
f 214 255 215
f 215 255 256
f 215 256 217
f 216 217 257
f 216 257 258
f 216 258 218
f 217 256 259
f 217 259 260
f 217 260 257
f 218 258 261
f 218 261 219
f 219 261 220
f 220 261 262
f 220 262 221
f 221 262 228
f 222 227 263
f 222 263 264
f 222 264 223
f 223 264 263
f 223 263 302
f 223 302 306
f 223 306 305
f 223 305 304
f 223 304 337
f 223 337 336
f 223 336 335
f 223 335 334
f 223 334 333
f 223 333 332
f 223 332 331
f 223 331 295
f 223 295 328
f 223 328 327
f 223 327 350
f 223 350 355
f 223 355 354
f 223 354 359
f 223 359 367
f 223 367 366
f 223 366 365
f 223 365 364
f 223 364 368
f 223 368 360
f 223 360 356
f 223 356 351
f 223 351 347
f 223 347 346
f 223 346 319
f 223 319 345
f 223 345 342
f 223 342 341
f 223 341 340
f 223 340 344
f 223 344 316
f 223 316 315
f 223 315 308
f 223 308 273
f 223 273 272
f 223 272 233
f 223 233 230
f 223 230 269
f 223 269 307
f 223 307 303
f 223 303 265
f 223 265 225
f 223 225 224
f 225 265 229
f 226 228 266
f 226 266 227
f 227 266 263
f 228 262 266
f 229 267 268
f 229 265 267
f 230 233 231
f 230 232 269
f 232 270 271
f 232 271 269
f 233 272 234
f 234 272 273
f 234 273 242
f 235 244 236
f 236 244 274
f 236 274 275
f 236 275 237
f 237 275 276
f 237 276 238
f 238 276 277
f 238 277 239
f 239 277 278
f 239 278 240
f 240 278 279
f 240 279 248
f 241 243 274
f 242 280 243
f 242 273 280
f 243 280 281
f 243 281 274
f 248 279 282
f 248 282 283
f 248 283 284
f 248 284 249
f 249 284 250
f 250 284 285
f 250 285 251
f 251 286 252
f 251 285 324
f 251 324 286
f 254 287 288
f 254 288 289
f 254 289 255
f 255 289 256
f 256 289 290
f 256 290 291
f 256 291 294
f 256 294 259
f 257 260 292
f 257 292 258
f 258 292 293
f 258 293 261
f 259 294 260
f 260 294 295
f 260 295 296
f 260 296 297
f 260 297 292
f 261 293 298
f 261 298 299
f 261 299 262
f 262 299 300
f 262 300 301
f 262 301 266
f 263 266 302
f 265 303 268
f 265 268 267
f 266 301 304
f 266 304 305
f 266 305 306
f 266 306 302
f 268 303 307
f 268 307 270
f 269 271 270
f 269 270 307
f 273 308 280
f 274 281 275
f 275 281 309
f 275 309 276
f 276 309 277
f 277 309 310
f 277 310 311
f 277 311 312
f 277 312 278
f 278 312 313
f 278 313 279
f 279 313 282
f 280 314 309
f 280 309 281
f 280 308 315
f 280 315 316
f 280 316 314
f 282 313 317
f 282 317 318
f 282 318 319
f 282 319 320
f 282 320 283
f 283 320 321
f 283 321 284
f 284 321 322
f 284 322 285
f 285 323 324
f 285 322 323
f 288 325 289
f 289 325 326
f 289 326 290
f 290 326 350
f 290 350 327
f 290 327 291
f 291 327 328
f 291 328 294
f 292 297 329
f 292 329 330
f 292 330 293
f 293 330 298
f 294 328 295
f 295 331 329
f 295 329 296
f 296 329 297
f 298 300 299
f 298 330 332
f 298 332 333
f 298 333 334
f 298 334 335
f 298 335 300
f 300 335 336
f 300 336 337
f 300 337 301
f 301 337 304
f 309 314 338
f 309 338 310
f 310 338 311
f 311 339 312
f 311 338 340
f 311 340 341
f 311 341 342
f 311 342 339
f 312 339 313
f 313 339 343
f 313 343 317
f 314 316 338
f 316 344 338
f 317 343 318
f 318 343 319
f 319 343 345
f 319 346 320
f 320 346 321
f 321 346 347
f 321 347 322
f 322 348 323
f 322 347 348
f 326 349 350
f 329 331 332
f 329 332 330
f 338 344 340
f 339 342 343
f 342 345 343
f 347 351 352
f 347 352 348
f 349 353 354
f 349 354 355
f 349 355 350
f 351 356 357
f 351 357 352
f 353 358 359
f 353 359 354
f 356 360 361
f 356 361 362
f 356 362 363
f 356 363 357
f 358 361 368
f 358 368 364
f 358 364 365
f 358 365 366
f 358 366 367
f 358 367 359
f 360 368 361

