# https://github.com/mikedh/trimesh
v 0.00006039 0.04049988 0.01795067
v 0.00006039 0.04049988 0.00329424
v 0.00006039 0.04049593 0.01900489
v 0.00080457 0.04049198 0.01610944
v 0.00048394 0.04049593 0.01616817
v 0.00006039 0.04049593 0.00000235
v 0.00048394 0.04049593 0.00883262
v 0.00080457 0.04049198 0.00888841
v 0.00006039 0.04047616 0.01944244
v 0.00353194 0.04034571 0.01899902
v 0.00126771 0.04048011 0.01597435
v 0.00111333 0.04048407 0.01602721
v 0.00095895 0.04048802 0.01607126
v 0.00006039 0.01495111 -0.00600000
v 0.00095895 0.04048802 0.00892659
v 0.00126771 0.04048011 0.00902056
v 0.00156460 0.04046826 0.00914389
v 0.00185356 0.04045640 0.00929366
v 0.00353194 0.04034571 0.00000235
v 0.00006039 0.04042082 0.01986531
v 0.00353194 0.04032595 0.01943363
v 0.00303317 0.04038524 0.01462059
v 0.00261754 0.04041291 0.01511394
v 0.00238003 0.04042872 0.01533418
v 0.00185356 0.04045640 0.01570419
v 0.00156460 0.04046826 0.01585102
v 0.00703515 0.03988320 0.01899902
v 0.00370215 0.04032990 0.01249745
v 0.00357548 0.04034176 0.01154013
v 0.00006039 0.00011519 -0.00600000
v 0.00130334 0.01489577 -0.00600000
v 0.00238003 0.04042872 0.00966366
v 0.00259775 0.01472579 -0.00600000
v 0.00261754 0.04041291 0.00988097
v 0.00303317 0.04038524 0.01037725
v 0.00703515 0.03988320 0.00000235
v 0.00006039 0.04032595 0.02029405
v 0.00351610 0.04017573 0.02029405
v 0.00352402 0.04026665 0.01986531
v 0.00702328 0.03980809 0.01986531
v 0.00703120 0.03986343 0.01943363
v 0.01047899 0.03910049 0.01943363
v 0.01048295 0.03911630 0.01899902
v 0.00006039 0.00011519 0.00000235
v 0.01494807 0.00011519 -0.00600000
v 0.01048295 0.03911630 0.00000235
v 0.00387236 0.01444116 -0.00600000
v 0.00006039 0.04019549 0.02070810
v 0.00350423 0.04004528 0.02070810
v 0.00698369 0.03958672 0.02070810
v 0.00700349 0.03971322 0.02029405
v 0.01043941 0.03895423 0.02029405
v 0.01046316 0.03904515 0.01986531
v 0.01382783 0.03798572 0.01986531
v 0.01384762 0.03803711 0.01943363
v 0.01385554 0.03805688 0.01899902
v 0.01286197 0.00011519 0.01814448
v 0.00006039 0.01027066 0.01799765
v 0.01489661 0.00130507 -0.00600000
v 0.04034539 0.00353066 0.00000235
v 0.04049186 0.00011519 0.00000235
v 0.01385554 0.03805688 0.00000235
v 0.00511531 0.01404981 -0.00600000
v 0.00006039 0.04002551 0.02111041
v 0.00349235 0.03987529 0.02111041
v 0.00695203 0.03942069 0.02111041
v 0.01036420 0.03866565 0.02111041
v 0.01040774 0.03882773 0.02070810
v 0.01375262 0.03777225 0.02070810
v 0.01379616 0.03789480 0.02029405
v 0.01704604 0.03655075 0.02029405
v 0.01708562 0.03663377 0.01986531
v 0.01710937 0.03668516 0.01943363
v 0.01711729 0.03670492 0.01899902
v 0.01296885 0.00011519 0.01828543
v 0.00006039 0.01031810 0.01807400
v 0.01472639 0.00259773 -0.00600000
v 0.04033352 0.00366901 0.01201586
v 0.04034539 0.00353066 0.01899902
v 0.04036518 0.00328557 0.01079131
v 0.04038498 0.00303257 0.01037725
v 0.04041269 0.00261750 0.00988097
v 0.04042852 0.00238031 0.00966366
v 0.04044435 0.00212336 0.00946691
v 0.04045623 0.00185060 0.00929366
v 0.04046810 0.00156598 0.00914389
v 0.03988226 0.00703309 0.00000235
v 0.04047998 0.00126554 0.00902056
v 0.04049581 0.00011519 0.00158810
v 0.01711729 0.03670492 0.00000235
v 0.00631868 0.01355172 -0.00600000
v 0.00006039 0.04002156 0.02111922
v 0.00347256 0.03967764 0.02149804
v 0.00692036 0.03922303 0.02149804
v 0.01031274 0.03847195 0.02149804
v 0.01369324 0.03761413 0.02111041
v 0.01699062 0.03643216 0.02070810
v 0.02016529 0.03492603 0.02029405
v 0.02021279 0.03500510 0.01986531
v 0.02024050 0.03505649 0.01943363
v 0.02025237 0.03507230 0.01899902
v 0.01308760 0.00011519 0.01841171
v 0.00006039 0.01046832 0.01828543
v 0.00006039 0.01036554 0.01814448
v 0.01444139 0.00387062 -0.00600000
v 0.03911828 0.01048413 0.00000235
v 0.03956162 0.00849178 0.00000235
v 0.04033352 0.00366901 0.01298199
v 0.04032956 0.00370064 0.01249745
v 0.04047602 0.00011519 0.01941895
v 0.04049186 0.00011519 0.01899902
v 0.04047998 0.00126554 0.01597435
v 0.04046810 0.00156598 0.01585102
v 0.04045623 0.00185060 0.01570419
v 0.04044435 0.00212336 0.01552799
v 0.04042852 0.00238031 0.01533418
v 0.04041269 0.00261750 0.01511394
v 0.04038498 0.00303257 0.01462059
v 0.04036518 0.00328557 0.01420654
v 0.03988226 0.00703309 0.01899902
v 0.04032560 0.00353066 0.01943363
v 0.04048394 0.00111532 0.00897357
v 0.04049581 0.00040377 0.00882381
v 0.04049581 0.00011519 0.01858203
v 0.04048790 0.00096115 0.00892659
v 0.04049186 0.00080303 0.00888841
v 0.02025237 0.03507230 0.00000235
v 0.00747850 0.01295085 -0.00600000
v 0.00006039 0.03982390 0.02149804
v 0.00006039 0.03958672 0.02187392
v 0.00345277 0.03944441 0.02186511
v 0.00687682 0.03899376 0.02186511
v 0.01024940 0.03824267 0.02186511
v 0.01354282 0.03720696 0.02186511
v 0.01362595 0.03742438 0.02149804
v 0.01683624 0.03609615 0.02149804
v 0.01691937 0.03627799 0.02111041
v 0.02001882 0.03466513 0.02111041
v 0.02010195 0.03481140 0.02070810
v 0.02305494 0.03292577 0.02070810
v 0.02313015 0.03303251 0.02029405
v 0.02318557 0.03311157 0.01986531
v 0.02321724 0.03315901 0.01943363
v 0.02322911 0.03317482 0.01899902
v 0.01315094 0.00011519 0.01847044
v 0.00006039 0.01052761 0.01835004
v 0.01404950 0.00511584 -0.00600000
v 0.03805742 0.01385215 0.00000235
v 0.03911828 0.01048413 0.01899902
v 0.04042060 0.00011519 0.01985356
v 0.04048394 0.00111532 0.01602721
v 0.03986246 0.00703309 0.01943363
v 0.04027018 0.00352670 0.01986531
v 0.04049581 0.00048678 0.01616817
v 0.04049186 0.00080303 0.01610944
v 0.04048790 0.00096115 0.01607126
v 0.02322911 0.03317482 0.00000235
v 0.00857499 0.01224720 -0.00600000
v 0.00006039 0.03932186 0.02221750
v 0.00342902 0.03917955 0.02221163
v 0.00683327 0.03872890 0.02221163
v 0.01018211 0.03798967 0.02221163
v 0.01345178 0.03695792 0.02221163
v 0.01673728 0.03588268 0.02186511
v 0.01980111 0.03428959 0.02186511
v 0.01991590 0.03449120 0.02149804
v 0.02284515 0.03262534 0.02149804
v 0.02295994 0.03279137 0.02111041
v 0.02583773 0.03079111 0.02070810
v 0.02592085 0.03089389 0.02029405
v 0.02598023 0.03096505 0.01986531
v 0.02601981 0.03100853 0.01943363
v 0.02603169 0.03102434 0.01899902
v 0.01321823 0.00011519 0.01852917
v 0.00006039 0.01058691 0.01841171
v 0.01355074 0.00632153 -0.00600000
v 0.03805742 0.01385215 0.01899902
v 0.03670363 0.01711740 0.00000235
v 0.03909849 0.01048017 0.01943363
v 0.04017518 0.00351880 0.02029405
v 0.04032560 0.00011519 0.02027937
v 0.03980705 0.00702123 0.01986531
v 0.03971600 0.00700542 0.02029405
v 0.02603169 0.03102434 0.00000235
v 0.00961210 0.01145263 -0.00600000
v 0.00006039 0.03902538 0.02254052
v 0.00340527 0.03888307 0.02253465
v 0.00678181 0.03844033 0.02253465
v 0.01010690 0.03770505 0.02253465
v 0.01335282 0.03668120 0.02253465
v 0.01649977 0.03537669 0.02253465
v 0.01662249 0.03564154 0.02221163
v 0.01966652 0.03406031 0.02221163
v 0.02271056 0.03243164 0.02186511
v 0.02560022 0.03051044 0.02149804
v 0.02573085 0.03066461 0.02111041
v 0.02842258 0.02842321 0.02070810
v 0.02851363 0.02851414 0.02029405
v 0.02858092 0.02858134 0.01986531
v 0.02862051 0.02862087 0.01943363
v 0.02863634 0.02863668 0.01899902
v 0.01328552 0.00011519 0.01858203
v 0.00006039 0.01065411 0.01847337
v 0.01335678 0.00011519 0.01863782
v 0.03507276 0.02025219 0.00000235
v 0.03595153 0.01856423 0.00000235
v 0.01294906 0.00747583 -0.00600000
v 0.03670363 0.01711740 0.01899902
v 0.03668780 0.01710949 0.01943363
v 0.03803763 0.01384820 0.01943363
v 0.03798616 0.01382844 0.01986531
v 0.03904307 0.01046436 0.01986531
v 0.04004455 0.00350694 0.02070810
v 0.04019497 0.00011519 0.02069636
v 0.04032164 0.00011519 0.02029405
v 0.03958537 0.00698170 0.02070810
v 0.03895202 0.01044064 0.02029405
v 0.03882535 0.01040507 0.02070810
v 0.02863634 0.02863668 0.00000235
v 0.01057400 0.01057505 -0.00600000
v 0.00006039 0.03870913 0.02282831
v 0.00337756 0.03856287 0.02282831
v 0.00672640 0.03812408 0.02282831
v 0.01002377 0.03739276 0.02282831
v 0.01324198 0.03637682 0.02282831
v 0.01636123 0.03508416 0.02282831
v 0.01935776 0.03352665 0.02282831
v 0.01952006 0.03380336 0.02253465
v 0.02238597 0.03197308 0.02253465
v 0.02255618 0.03221422 0.02221163
v 0.02527959 0.03012699 0.02221163
v 0.02544980 0.03032860 0.02186511
v 0.02799507 0.02799628 0.02186511
v 0.02816133 0.02816231 0.02149804
v 0.02830383 0.02830462 0.02111041
v 0.03079369 0.02583790 0.02070810
v 0.03089265 0.02592091 0.02029405
v 0.03096390 0.02598021 0.01986531
v 0.03100744 0.02601974 0.01943363
v 0.03102328 0.02603160 0.01899902
v 0.00006039 0.01071736 0.01852917
v 0.01350324 0.00011519 0.01873179
v 0.00006039 0.01078456 0.01858496
v 0.03507276 0.02025219 0.01899902
v 0.01224841 0.00857874 -0.00600000
v 0.03317271 0.02322887 0.00000235
v 0.03505692 0.02024429 0.01943363
v 0.03663634 0.01708578 0.01986531
v 0.03654925 0.01704624 0.02029405
v 0.03789512 0.01379681 0.02029405
v 0.04002476 0.00011519 0.02111041
v 0.04019101 0.00011519 0.02070810
v 0.03942308 0.00695403 0.02111041
v 0.03987830 0.00349113 0.02111041
v 0.03866702 0.01036158 0.02111041
v 0.03777241 0.01374937 0.02070810
v 0.03102328 0.02603160 0.00000235
v 0.01145277 0.00961050 -0.00600000
v 0.00006039 0.03836522 0.02309554
v 0.00334589 0.03821895 0.02309554
v 0.00666306 0.03778411 0.02309554
v 0.00993273 0.03705675 0.02309554
v 0.01312323 0.03605266 0.02309554
v 0.01621873 0.03477186 0.02309554
v 0.01918755 0.03322621 0.02309554
v 0.02220388 0.03171218 0.02282831
v 0.02508958 0.02990167 0.02253465
v 0.02780903 0.02781049 0.02221163
v 0.03033055 0.02545050 0.02186511
v 0.03050868 0.02560072 0.02149804
v 0.03066306 0.02573117 0.02111041
v 0.03278874 0.02296006 0.02111041
v 0.03292729 0.02305493 0.02070810
v 0.03303416 0.02313004 0.02029405
v 0.03311333 0.02318538 0.01986531
v 0.03315687 0.02321701 0.01943363
v 0.03317271 0.02322887 0.01899902
v 0.01365762 0.00011519 0.01881108
v 0.00006039 0.01100198 0.01873179
v 0.00006039 0.01085572 0.01863782
v 0.03500546 0.02021266 0.01986531
v 0.03492629 0.02016523 0.02029405
v 0.03643050 0.01699090 0.02070810
v 0.03983080 0.00011519 0.02148630
v 0.03922120 0.00691845 0.02149804
v 0.03967642 0.00347531 0.02149804
v 0.03846909 0.01031019 0.02149804
v 0.03761407 0.01369403 0.02111041
v 0.03742803 0.01362288 0.02149804
v 0.03628008 0.01691975 0.02111041
v 0.00006039 0.03798967 0.02333340
v 0.00331422 0.03785527 0.02332753
v 0.00659973 0.03742043 0.02332753
v 0.00983773 0.03670492 0.02332753
v 0.01300052 0.03570479 0.02332753
v 0.01606039 0.03443585 0.02332753
v 0.01900151 0.03290601 0.02332753
v 0.02179220 0.03112712 0.02332753
v 0.02200596 0.03142756 0.02309554
v 0.02488374 0.02965658 0.02282831
v 0.02759923 0.02760098 0.02253465
v 0.03012867 0.02528051 0.02221163
v 0.03243248 0.02271101 0.02186511
v 0.03262644 0.02284542 0.02149804
v 0.03466504 0.02001896 0.02111041
v 0.03481150 0.02010198 0.02070810
v 0.01381991 0.00011519 0.01887862
v 0.00006039 0.01115615 0.01881108
v 0.03959725 0.00011519 0.02185337
v 0.03899161 0.00687892 0.02186511
v 0.03944287 0.00345160 0.02186511
v 0.03824346 0.01025090 0.02186511
v 0.03609799 0.01683673 0.02149804
v 0.03720635 0.01354381 0.02186511
v 0.00006039 0.03761018 0.02353015
v 0.00327860 0.03746787 0.02353015
v 0.00653243 0.03704093 0.02353015
v 0.00973877 0.03632938 0.02353015
v 0.01286593 0.03534111 0.02353015
v 0.01589809 0.03408798 0.02353015
v 0.01880754 0.03257000 0.02353015
v 0.02157053 0.03080692 0.02353015
v 0.02417518 0.02881062 0.02353015
v 0.02442456 0.02910710 0.02332753
v 0.02466207 0.02938777 0.02309554
v 0.02712818 0.02712660 0.02309554
v 0.02737360 0.02737169 0.02282831
v 0.02989908 0.02509077 0.02253465
v 0.03197330 0.02238686 0.02253465
v 0.03221477 0.02255684 0.02221163
v 0.03405940 0.01966714 0.02221163
v 0.03428899 0.01980154 0.02186511
v 0.03449086 0.01991618 0.02149804
v 0.01389908 0.00011519 0.01890505
v 0.00006039 0.01131823 0.01887862
v 0.03958933 0.00011519 0.02186511
v 0.03873035 0.00683148 0.02221163
v 0.03932412 0.00011519 0.02221163
v 0.03917766 0.00342788 0.02221163
v 0.03798616 0.01017974 0.02221163
v 0.03695697 0.01345289 0.02221163
v 0.03588424 0.01673395 0.02186511
v 0.00006039 0.03720696 0.02369753
v 0.00324693 0.03706465 0.02369753
v 0.00646514 0.03664167 0.02369753
v 0.00963189 0.03594198 0.02369753
v 0.01272739 0.03496557 0.02369753
v 0.01572788 0.03372034 0.02369753
v 0.01860566 0.03222213 0.02369753
v 0.02134094 0.03047882 0.02369753
v 0.02391788 0.02850228 0.02369753
v 0.02659379 0.02659294 0.02353015
v 0.02686692 0.02686965 0.02332753
v 0.02938844 0.02465988 0.02309554
v 0.02965366 0.02488125 0.02282831
v 0.03171205 0.02220502 0.02282831
v 0.03380210 0.01952087 0.02253465
v 0.03537756 0.01650072 0.02253465
v 0.03564277 0.01662327 0.02221163
v 0.03019201 0.00011519 0.02400000
v 0.00006039 0.01148426 0.01893148
v 0.03844138 0.00678009 0.02253465
v 0.03770512 0.01010463 0.02253465
v 0.03888473 0.00340416 0.02253465
v 0.03903911 0.00011519 0.02252290
v 0.03667988 0.01335407 0.02253465
v 0.00006039 0.03719906 0.02370047
v 0.00320735 0.03665353 0.02382674
v 0.00638993 0.03623450 0.02382674
v 0.00952501 0.03553876 0.02382674
v 0.01258488 0.03457421 0.02382674
v 0.01555371 0.03334480 0.02382674
v 0.01839982 0.03186240 0.02382674
v 0.02110344 0.03013885 0.02382674
v 0.02364871 0.02818208 0.02382674
v 0.02601585 0.02601579 0.02382674
v 0.02630878 0.02630832 0.02369753
v 0.02850175 0.02391670 0.02369753
v 0.02881051 0.02417365 0.02353015
v 0.02910739 0.02442270 0.02332753
v 0.03112619 0.02179390 0.02332753
v 0.03142704 0.02200341 0.02309554
v 0.03322417 0.01918486 0.02309554
v 0.03352501 0.01935880 0.02282831
v 0.03508463 0.01636236 0.02282831
v 0.03637904 0.01324338 0.02282831
v 0.03549235 0.00011519 0.02400000
v 0.00006039 0.03019419 0.02400000
v 0.03812471 0.00672475 0.02282831
v 0.03739240 0.01002162 0.02282831
v 0.03856410 0.00337649 0.02282831
v 0.03871848 0.00011519 0.02281950
v 0.03902723 0.00011519 0.02253465
v 0.00006039 0.03678003 0.02382968
v 0.00006039 0.03636496 0.02392365
v 0.00317172 0.03622660 0.02392365
v 0.00631868 0.03581548 0.02392365
v 0.00941417 0.03512764 0.02392365
v 0.01244238 0.03417495 0.02392365
v 0.01537162 0.03295740 0.02392365
v 0.01818607 0.03149476 0.02392365
v 0.02085801 0.02979098 0.02392365
v 0.02337558 0.02785793 0.02392365
v 0.02571501 0.02571535 0.02392365
v 0.02818508 0.02364789 0.02382674
v 0.03013659 0.02110211 0.02382674
v 0.03047701 0.02133929 0.02369753
v 0.03080952 0.02157252 0.02353015
v 0.03290749 0.01900302 0.02332753
v 0.03477192 0.01621610 0.02309554
v 0.03705989 0.00993070 0.02309554
v 0.03605049 0.01312479 0.02309554
v 0.03592778 0.00011519 0.02397944
v 0.03579715 0.00313535 0.02397944
v 0.03536172 0.00309582 0.02400000
v 0.00006039 0.03549528 0.02400000
v 0.03778429 0.00666545 0.02309554
v 0.03821971 0.00334486 0.02309554
v 0.03836222 0.00011519 0.02309554
v 0.00006039 0.03593012 0.02397944
v 0.00313214 0.03579571 0.02397944
v 0.00624347 0.03538854 0.02397944
v 0.00930334 0.03470862 0.02397944
v 0.01229196 0.03376778 0.02397944
v 0.01518953 0.03256604 0.02397944
v 0.01796835 0.03111922 0.02397944
v 0.02060863 0.02943520 0.02397944
v 0.02309849 0.02752587 0.02397944
v 0.02541021 0.02540701 0.02397944
v 0.02752798 0.02309841 0.02397944
v 0.02785653 0.02337513 0.02392365
v 0.02978824 0.02085702 0.02392365
v 0.03149433 0.01818473 0.02392365
v 0.03186247 0.01839820 0.02382674
v 0.03222268 0.01860771 0.02369753
v 0.03257102 0.01880932 0.02353015
v 0.03408711 0.01589985 0.02353015
v 0.03443941 0.01606193 0.02332753
v 0.03570610 0.01299829 0.02332753
v 0.03670363 0.00983582 0.02332753
v 0.03636321 0.00011519 0.02392365
v 0.03538943 0.00624247 0.02397944
v 0.03622862 0.00317093 0.02392365
v 0.03495796 0.00616736 0.02400000
v 0.00309651 0.03536483 0.02400000
v 0.03785158 0.00331324 0.02332753
v 0.03742011 0.00660220 0.02332753
v 0.03800596 0.00011519 0.02332165
v 0.00616826 0.03495766 0.02400000
v 0.00918854 0.03428959 0.02400000
v 0.01214549 0.03335666 0.02400000
v 0.01500349 0.03217074 0.02400000
v 0.01775064 0.03074367 0.02400000
v 0.02035925 0.02907943 0.02400000
v 0.02281744 0.02719381 0.02400000
v 0.02510145 0.02509867 0.02400000
v 0.02719151 0.02281774 0.02400000
v 0.02907968 0.02035893 0.02400000
v 0.02943594 0.02060797 0.02397944
v 0.03256707 0.01518830 0.02397944
v 0.03295895 0.01537014 0.02392365
v 0.03111828 0.01797127 0.02397944
v 0.03334292 0.01555198 0.02382674
v 0.03372293 0.01572592 0.02369753
v 0.03496588 0.01272948 0.02369753
v 0.03534193 0.01286784 0.02353015
v 0.03632758 0.00973700 0.02353015
v 0.03704010 0.00653500 0.02353015
v 0.03680259 0.00011519 0.02382381
v 0.03581298 0.00631758 0.02392365
v 0.03512817 0.00941284 0.02392365
v 0.03470858 0.00930216 0.02397944
v 0.03428899 0.00919147 0.02400000
v 0.03665217 0.00321046 0.02382674
v 0.03623258 0.00639269 0.02382674
v 0.03746761 0.00328161 0.02353015
v 0.03761803 0.00011519 0.02352427
v 0.03074223 0.01775385 0.02400000
v 0.03217122 0.01500645 0.02400000
v 0.03335875 0.01214442 0.02400000
v 0.03376647 0.01229464 0.02397944
v 0.03417419 0.01244090 0.02392365
v 0.03457399 0.01258717 0.02382674
v 0.03553985 0.00952353 0.02382674
v 0.03593965 0.00963422 0.02369753
v 0.03706781 0.00324604 0.02369753
v 0.03664426 0.00646384 0.02369753
v 0.03720240 0.00011519 0.02369753
v 0.03760615 0.00011519 0.02353015
v 0.03721823 0.00011519 0.02369166
f 1 2 6
f 1 6 14
f 1 14 30
f 1 30 44
f 1 44 58
f 1 58 76
f 1 76 104
f 1 104 103
f 1 103 146
f 1 146 175
f 1 175 203
f 1 203 241
f 1 241 243
f 1 243 280
f 1 280 279
f 1 279 308
f 1 308 335
f 1 335 361
f 1 361 388
f 1 388 416
f 1 416 420
f 1 420 395
f 1 395 394
f 1 394 367
f 1 367 343
f 1 343 315
f 1 315 291
f 1 291 259
f 1 259 221
f 1 221 186
f 1 186 159
f 1 159 130
f 1 130 129
f 1 129 92
f 1 92 64
f 1 64 48
f 1 48 37
f 1 37 20
f 1 20 9
f 1 9 3
f 1 3 4
f 1 4 5
f 1 5 7
f 1 7 2
f 2 7 8
f 2 8 6
f 3 9 10
f 3 10 11
f 3 11 12
f 3 12 13
f 3 13 4
f 4 13 12
f 4 12 11
f 4 11 16
f 4 16 15
f 4 15 8
f 4 8 7
f 4 7 5
f 6 8 15
f 6 15 16
f 6 16 17
f 6 17 18
f 6 18 19
f 6 19 14
f 9 20 21
f 9 21 10
f 10 19 35
f 10 35 22
f 10 22 23
f 10 23 24
f 10 24 25
f 10 25 26
f 10 26 11
f 10 21 27
f 10 27 28
f 10 28 29
f 10 29 19
f 11 26 17
f 11 17 16
f 14 19 31
f 14 31 33
f 14 33 47
f 14 47 63
f 14 63 91
f 14 91 128
f 14 128 158
f 14 158 185
f 14 185 220
f 14 220 258
f 14 258 245
f 14 245 207
f 14 207 176
f 14 176 147
f 14 147 105
f 14 105 77
f 14 77 59
f 14 59 45
f 14 45 30
f 17 26 25
f 17 25 18
f 18 25 24
f 18 24 32
f 18 32 19
f 19 33 31
f 19 32 34
f 19 34 35
f 19 29 28
f 19 28 36
f 19 36 33
f 20 37 38
f 20 38 39
f 20 39 21
f 21 39 40
f 21 40 41
f 21 41 27
f 22 35 34
f 22 34 32
f 22 32 24
f 22 24 23
f 27 41 42
f 27 42 43
f 27 43 46
f 27 46 36
f 27 36 28
f 30 45 61
f 30 61 89
f 30 89 124
f 30 124 111
f 30 111 110
f 30 110 150
f 30 150 181
f 30 181 215
f 30 215 214
f 30 214 252
f 30 252 251
f 30 251 284
f 30 284 309
f 30 309 336
f 30 336 338
f 30 338 365
f 30 365 393
f 30 393 392
f 30 392 419
f 30 419 448
f 30 448 477
f 30 477 489
f 30 489 490
f 30 490 488
f 30 488 469
f 30 469 441
f 30 441 413
f 30 413 387
f 30 387 360
f 30 360 334
f 30 334 307
f 30 307 278
f 30 278 242
f 30 242 204
f 30 204 202
f 30 202 174
f 30 174 145
f 30 145 102
f 30 102 75
f 30 75 57
f 30 57 44
f 33 36 46
f 33 46 47
f 37 48 38
f 38 48 49
f 38 49 50
f 38 50 51
f 38 51 40
f 38 40 39
f 40 51 52
f 40 52 53
f 40 53 42
f 40 42 41
f 42 53 54
f 42 54 55
f 42 55 56
f 42 56 43
f 43 56 62
f 43 62 46
f 44 57 58
f 45 59 60
f 45 60 61
f 46 62 47
f 47 62 63
f 48 64 49
f 49 64 65
f 49 65 66
f 49 66 50
f 50 66 67
f 50 67 68
f 50 68 52
f 50 52 51
f 52 68 69
f 52 69 70
f 52 70 54
f 52 54 53
f 54 70 71
f 54 71 72
f 54 72 73
f 54 73 55
f 55 73 74
f 55 74 56
f 56 74 90
f 56 90 62
f 57 75 58
f 58 75 76
f 59 77 60
f 60 78 108
f 60 108 79
f 60 79 119
f 60 119 80
f 60 80 81
f 60 81 82
f 60 82 83
f 60 83 84
f 60 84 85
f 60 85 86
f 60 86 61
f 60 77 87
f 60 87 78
f 61 86 88
f 61 88 89
f 62 90 91
f 62 91 63
f 64 92 65
f 65 92 93
f 65 93 66
f 66 94 67
f 66 93 94
f 67 94 95
f 67 95 96
f 67 96 69
f 67 69 68
f 69 96 97
f 69 97 71
f 69 71 70
f 71 97 98
f 71 98 99
f 71 99 72
f 72 99 100
f 72 100 73
f 73 100 74
f 74 100 101
f 74 101 127
f 74 127 90
f 75 102 103
f 75 103 104
f 75 104 76
f 77 105 106
f 77 106 107
f 77 107 87
f 78 87 109
f 78 109 108
f 79 110 111
f 79 111 112
f 79 112 113
f 79 113 114
f 79 114 115
f 79 115 116
f 79 116 117
f 79 117 118
f 79 118 119
f 79 108 120
f 79 120 152
f 79 152 121
f 79 121 110
f 80 119 118
f 80 118 81
f 81 118 117
f 81 117 116
f 81 116 83
f 81 83 82
f 83 116 115
f 83 115 84
f 84 115 114
f 84 114 85
f 85 114 113
f 85 113 86
f 86 113 112
f 86 112 88
f 87 107 120
f 87 120 109
f 88 112 151
f 88 151 122
f 88 122 89
f 89 123 154
f 89 154 124
f 89 122 125
f 89 125 126
f 89 126 123
f 90 127 128
f 90 128 91
f 92 129 93
f 93 129 130
f 93 130 131
f 93 131 132
f 93 132 94
f 94 132 95
f 95 132 133
f 95 133 134
f 95 134 135
f 95 135 96
f 96 135 136
f 96 136 137
f 96 137 97
f 97 137 138
f 97 138 139
f 97 139 98
f 98 139 140
f 98 140 141
f 98 141 142
f 98 142 99
f 99 142 100
f 100 142 143
f 100 143 144
f 100 144 101
f 101 144 157
f 101 157 127
f 102 145 103
f 103 145 146
f 105 147 106
f 106 148 177
f 106 177 149
f 106 149 107
f 106 147 148
f 107 149 120
f 108 109 120
f 110 121 150
f 111 124 112
f 112 124 151
f 120 149 152
f 121 152 153
f 121 153 150
f 122 151 156
f 122 156 125
f 123 126 154
f 124 154 155
f 124 155 156
f 124 156 151
f 125 156 155
f 125 155 126
f 126 155 154
f 127 157 128
f 128 157 158
f 130 159 160
f 130 160 131
f 131 160 132
f 132 161 162
f 132 162 133
f 132 160 161
f 133 162 134
f 134 163 164
f 134 164 136
f 134 136 135
f 134 162 163
f 136 164 165
f 136 165 166
f 136 166 138
f 136 138 137
f 138 166 167
f 138 167 168
f 138 168 139
f 139 168 140
f 140 168 169
f 140 169 170
f 140 170 141
f 141 170 142
f 142 170 171
f 142 171 172
f 142 172 143
f 143 172 173
f 143 173 144
f 144 173 184
f 144 184 157
f 145 174 146
f 146 174 175
f 147 176 148
f 148 176 178
f 148 178 208
f 148 208 177
f 149 177 210
f 149 210 179
f 149 179 152
f 150 153 180
f 150 180 181
f 152 182 153
f 152 179 182
f 153 182 183
f 153 183 180
f 157 184 185
f 157 185 158
f 159 186 160
f 160 186 187
f 160 187 188
f 160 188 161
f 161 188 162
f 162 188 189
f 162 189 190
f 162 190 163
f 163 190 191
f 163 191 192
f 163 192 164
f 164 192 193
f 164 193 165
f 165 193 194
f 165 194 167
f 165 167 166
f 167 194 195
f 167 195 196
f 167 196 168
f 168 196 169
f 169 196 197
f 169 197 170
f 170 197 198
f 170 198 199
f 170 199 171
f 171 199 172
f 172 199 200
f 172 200 201
f 172 201 173
f 173 201 219
f 173 219 184
f 174 202 175
f 175 202 204
f 175 204 203
f 176 205 206
f 176 206 178
f 176 207 205
f 177 208 209
f 177 209 210
f 178 206 208
f 179 210 211
f 179 211 212
f 179 212 182
f 180 213 214
f 180 214 215
f 180 215 181
f 180 183 213
f 182 212 183
f 183 216 213
f 183 212 217
f 183 217 218
f 183 218 216
f 184 219 220
f 184 220 185
f 186 221 222
f 186 222 187
f 187 222 223
f 187 223 188
f 188 223 189
f 189 223 224
f 189 224 190
f 190 224 225
f 190 225 226
f 190 226 191
f 191 226 227
f 191 227 228
f 191 228 193
f 191 193 192
f 193 228 229
f 193 229 230
f 193 230 194
f 194 230 231
f 194 231 232
f 194 232 195
f 195 232 233
f 195 233 234
f 195 234 196
f 196 234 235
f 196 235 197
f 197 235 236
f 197 236 237
f 197 237 198
f 198 237 199
f 199 237 238
f 199 238 239
f 199 239 200
f 200 239 201
f 201 239 240
f 201 240 257
f 201 257 219
f 203 204 241
f 204 242 243
f 204 243 241
f 205 244 206
f 205 207 245
f 205 245 246
f 205 246 277
f 205 277 244
f 206 244 208
f 208 244 247
f 208 247 209
f 209 247 248
f 209 248 211
f 209 211 210
f 211 248 249
f 211 249 250
f 211 250 217
f 211 217 212
f 213 251 252
f 213 252 214
f 213 216 253
f 213 253 254
f 213 254 251
f 216 218 255
f 216 255 253
f 217 250 256
f 217 256 218
f 218 256 255
f 219 257 220
f 220 257 258
f 221 259 222
f 222 259 260
f 222 260 223
f 223 261 224
f 223 260 261
f 224 261 262
f 224 262 263
f 224 263 225
f 225 263 264
f 225 264 226
f 226 264 227
f 227 264 265
f 227 265 266
f 227 266 228
f 228 266 229
f 229 266 267
f 229 267 230
f 230 267 231
f 231 267 268
f 231 268 232
f 232 268 233
f 233 268 269
f 233 269 234
f 234 269 270
f 234 270 271
f 234 271 235
f 235 271 236
f 236 271 272
f 236 272 273
f 236 273 274
f 236 274 237
f 237 274 275
f 237 275 238
f 238 275 239
f 239 275 276
f 239 276 277
f 239 277 240
f 240 277 246
f 240 246 257
f 242 278 279
f 242 279 280
f 242 280 243
f 244 277 247
f 245 258 257
f 245 257 246
f 247 281 248
f 247 277 276
f 247 276 275
f 247 275 281
f 248 281 282
f 248 282 249
f 249 282 283
f 249 283 250
f 250 283 256
f 251 254 284
f 253 285 286
f 253 286 254
f 253 255 287
f 253 287 285
f 254 286 284
f 255 256 288
f 255 288 289
f 255 289 287
f 256 283 290
f 256 290 288
f 259 291 292
f 259 292 260
f 260 292 261
f 261 293 294
f 261 294 262
f 261 292 293
f 262 294 263
f 263 294 295
f 263 295 264
f 264 295 296
f 264 296 297
f 264 297 265
f 265 297 298
f 265 298 299
f 265 299 266
f 266 299 300
f 266 300 267
f 267 300 301
f 267 301 268
f 268 301 302
f 268 302 269
f 269 302 303
f 269 303 304
f 269 304 270
f 270 304 271
f 271 304 272
f 272 304 305
f 272 305 306
f 272 306 273
f 273 306 282
f 273 282 274
f 274 282 275
f 275 282 281
f 278 307 308
f 278 308 279
f 282 306 283
f 283 306 290
f 284 286 309
f 285 287 310
f 285 310 286
f 286 310 311
f 286 311 309
f 287 312 310
f 287 289 312
f 288 290 289
f 289 290 313
f 289 313 314
f 289 314 312
f 290 306 305
f 290 305 313
f 291 315 316
f 291 316 292
f 292 316 317
f 292 317 293
f 293 317 294
f 294 317 318
f 294 318 319
f 294 319 295
f 295 319 320
f 295 320 296
f 296 320 297
f 297 320 321
f 297 321 298
f 298 322 323
f 298 323 324
f 298 324 299
f 298 321 322
f 299 324 325
f 299 325 300
f 300 325 326
f 300 326 327
f 300 327 301
f 301 327 328
f 301 328 302
f 302 329 330
f 302 330 303
f 302 328 329
f 303 330 331
f 303 331 332
f 303 332 304
f 304 332 333
f 304 333 305
f 305 333 313
f 307 334 335
f 307 335 308
f 309 311 336
f 310 312 337
f 310 337 311
f 311 338 336
f 311 337 339
f 311 339 338
f 312 340 337
f 312 314 341
f 312 341 340
f 313 333 332
f 313 332 342
f 313 342 314
f 314 342 341
f 315 343 316
f 316 343 344
f 316 344 317
f 317 345 346
f 317 346 318
f 317 344 345
f 318 346 347
f 318 347 319
f 319 347 320
f 320 348 349
f 320 349 321
f 320 347 348
f 321 349 350
f 321 350 322
f 322 350 323
f 323 351 352
f 323 352 353
f 323 353 324
f 323 350 351
f 324 353 325
f 325 353 326
f 326 354 327
f 326 353 354
f 327 354 355
f 327 355 328
f 328 355 356
f 328 356 329
f 329 356 357
f 329 357 331
f 329 331 330
f 331 357 358
f 331 358 359
f 331 359 332
f 332 359 342
f 334 360 335
f 335 360 361
f 337 362 339
f 337 340 363
f 337 363 362
f 338 339 364
f 338 364 365
f 339 362 364
f 340 341 363
f 341 342 359
f 341 359 358
f 341 358 366
f 341 366 363
f 343 367 344
f 344 367 368
f 344 368 345
f 345 369 346
f 345 368 369
f 346 369 370
f 346 370 371
f 346 371 347
f 347 371 372
f 347 372 348
f 348 372 349
f 349 373 350
f 349 372 373
f 350 373 374
f 350 374 351
f 351 375 376
f 351 376 377
f 351 377 352
f 351 374 375
f 352 377 378
f 352 378 379
f 352 379 353
f 353 379 380
f 353 380 354
f 354 380 381
f 354 381 382
f 354 382 356
f 354 356 355
f 356 382 383
f 356 383 384
f 356 384 357
f 357 384 358
f 358 385 386
f 358 386 366
f 358 384 385
f 360 387 415
f 360 415 444
f 360 444 473
f 360 473 480
f 360 480 479
f 360 479 478
f 360 478 458
f 360 458 457
f 360 457 456
f 360 456 455
f 360 455 454
f 360 454 453
f 360 453 452
f 360 452 451
f 360 451 450
f 360 450 449
f 360 449 445
f 360 445 416
f 360 416 388
f 360 388 361
f 362 363 389
f 362 389 364
f 363 366 386
f 363 386 390
f 363 390 389
f 364 389 391
f 364 391 392
f 364 392 393
f 364 393 365
f 367 394 368
f 368 394 395
f 368 395 396
f 368 396 397
f 368 397 369
f 369 397 370
f 370 397 398
f 370 398 399
f 370 399 371
f 371 399 372
f 372 400 401
f 372 401 373
f 372 399 400
f 373 401 374
f 374 401 402
f 374 402 403
f 374 403 375
f 375 403 376
f 376 403 404
f 376 404 405
f 376 405 378
f 376 378 377
f 378 405 406
f 378 406 407
f 378 407 408
f 378 408 379
f 379 408 380
f 380 408 381
f 381 408 409
f 381 409 382
f 382 409 383
f 383 409 410
f 383 410 384
f 384 410 385
f 385 410 386
f 386 411 390
f 386 410 412
f 386 412 411
f 387 413 414
f 387 414 415
f 389 390 411
f 389 411 417
f 389 417 391
f 391 417 418
f 391 418 419
f 391 419 392
f 395 420 421
f 395 421 396
f 396 421 397
f 397 422 398
f 397 421 422
f 398 422 423
f 398 423 399
f 399 423 424
f 399 424 425
f 399 425 400
f 400 425 401
f 401 426 402
f 401 425 426
f 402 426 427
f 402 427 428
f 402 428 403
f 403 428 404
f 404 428 429
f 404 429 430
f 404 430 431
f 404 431 405
f 405 431 432
f 405 432 406
f 406 433 434
f 406 434 435
f 406 435 407
f 406 432 433
f 407 435 408
f 408 435 436
f 408 436 409
f 409 436 437
f 409 437 438
f 409 438 410
f 410 438 412
f 411 412 439
f 411 439 440
f 411 440 417
f 412 438 439
f 413 441 414
f 414 442 415
f 414 441 443
f 414 443 442
f 415 442 444
f 416 445 420
f 417 446 418
f 417 440 447
f 417 447 446
f 418 446 448
f 418 448 419
f 420 445 421
f 421 445 422
f 422 449 450
f 422 450 423
f 422 445 449
f 423 450 424
f 424 450 451
f 424 451 425
f 425 452 453
f 425 453 426
f 425 451 452
f 426 453 427
f 427 453 454
f 427 454 428
f 428 455 429
f 428 454 455
f 429 455 456
f 429 456 430
f 430 457 458
f 430 458 459
f 430 459 432
f 430 432 431
f 430 456 457
f 432 459 433
f 433 460 461
f 433 461 434
f 433 459 462
f 433 462 460
f 434 461 463
f 434 463 464
f 434 464 435
f 435 464 437
f 435 437 436
f 437 464 465
f 437 465 466
f 437 466 438
f 438 466 439
f 439 466 440
f 440 467 468
f 440 468 447
f 440 466 467
f 441 469 443
f 442 443 470
f 442 470 471
f 442 471 472
f 442 472 473
f 442 473 444
f 443 469 474
f 443 474 475
f 443 475 470
f 446 447 476
f 446 476 448
f 447 468 476
f 448 476 477
f 458 478 459
f 459 478 462
f 460 462 478
f 460 478 479
f 460 479 480
f 460 480 481
f 460 481 482
f 460 482 461
f 461 482 483
f 461 483 463
f 463 483 464
f 464 483 465
f 465 483 484
f 465 484 485
f 465 485 467
f 465 467 466
f 467 485 468
f 468 486 476
f 468 485 487
f 468 487 486
f 469 488 486
f 469 486 474
f 470 475 471
f 471 475 484
f 471 484 482
f 471 482 481
f 471 481 472
f 472 481 473
f 473 481 480
f 474 487 475
f 474 486 487
f 475 487 484
f 476 489 477
f 476 486 489
f 482 484 483
f 484 487 485
f 486 488 490
f 486 490 489

