# https://github.com/mikedh/trimesh
v 0.01033990 0.02538194 -0.02155819
v 0.01032775 0.02661885 -0.01970345
v 0.01033180 0.02599966 -0.01970345
v 0.01033990 0.01644425 -0.02155819
v 0.01033990 0.02538194 -0.05245319
v 0.01032573 0.02661885 -0.02773798
v 0.01027108 0.02723657 -0.02773798
v 0.01027108 0.02723657 -0.01970345
v 0.01031763 0.02661885 -0.01908387
v 0.01032573 0.02599966 -0.01908387
v 0.01032775 0.02353027 -0.01908387
v 0.01032775 0.01644425 -0.01908387
v 0.01033990 0.01644425 -0.05245319
v 0.01021642 0.02538194 -0.05307276
v 0.01002412 0.02599818 -0.05302080
v 0.01012735 0.02599966 -0.05245319
v 0.01010914 0.02785428 -0.02773798
v 0.01010914 0.02785428 -0.01970345
v 0.01025893 0.02723657 -0.01908387
v 0.01024071 0.02661885 -0.01846829
v 0.01024881 0.02599966 -0.01846829
v 0.01025083 0.02353027 -0.01846829
v 0.01025083 0.01644425 -0.01846829
v 0.01021642 0.01644425 -0.05307276
v 0.01009699 0.01644425 -0.05329261
v 0.00999173 0.02538194 -0.05348448
v 0.00995529 0.02579129 -0.05344851
v 0.00989659 0.02631590 -0.05278496
v 0.00974275 0.02856954 -0.02773798
v 0.00994315 0.02826068 -0.02773798
v 0.00994315 0.02826068 -0.01970345
v 0.01009699 0.02785428 -0.01908387
v 0.01017998 0.02723657 -0.01846829
v 0.01004436 0.02661885 -0.01784871
v 0.01005246 0.02599966 -0.01784871
v 0.01005448 0.02167564 -0.01784871
v 0.01015974 0.01644425 -0.01818048
v 0.00999173 0.01644425 -0.05348448
v 0.00968404 0.02538194 -0.05379627
v 0.00971441 0.02620359 -0.05319668
v 0.00933992 0.02579129 -0.05406009
v 0.00952615 0.02599818 -0.05363638
v 0.00930146 0.02631886 -0.05341253
v 0.00376916 0.03131232 -0.04788829
v 0.00433393 0.03126355 -0.04721275
v 0.00441490 0.03133153 -0.04689296
v 0.00498169 0.03130197 -0.04550990
v 0.00501408 0.03134040 -0.04503823
v 0.00910106 0.02926410 -0.02773798
v 0.00943303 0.02895524 -0.02773798
v 0.00943506 0.02895820 -0.02402851
v 0.00974477 0.02856954 -0.02341293
v 0.00974477 0.02856954 -0.02031903
v 0.00974275 0.02856954 -0.01970345
v 0.00973667 0.02855919 -0.01908387
v 0.00993505 0.02825033 -0.01908387
v 0.00991481 0.02821487 -0.01865616
v 0.00999983 0.02788384 -0.01845629
v 0.00994517 0.02769912 -0.01802459
v 0.00997958 0.02719076 -0.01782872
v 0.00990469 0.02599966 -0.01751294
v 0.00989254 0.02695431 -0.01753292
v 0.00812941 0.02661885 -0.01350366
v 0.01005448 0.01644425 -0.01784871
v 0.00998566 0.01644425 -0.01769281
v 0.00968404 0.01644425 -0.05379627
v 0.00937433 0.02538194 -0.05409207
v 0.00895936 0.02538194 -0.05426395
v 0.00895936 0.02590951 -0.05413204
v 0.00895936 0.02621837 -0.05379227
v 0.00201413 0.03132857 -0.04912745
v 0.00314974 0.03130345 -0.04848388
v 0.00337241 0.03137586 -0.04810814
v 0.00339873 0.03151182 -0.04750854
v 0.00399183 0.03135074 -0.04745258
v 0.00401612 0.03147488 -0.04689296
v 0.00454850 0.03139655 -0.04627338
v 0.00463352 0.03148227 -0.04503823
v 0.00502623 0.03135074 -0.04441865
v 0.00879134 0.02949463 -0.02773798
v 0.00910713 0.02926705 -0.02402851
v 0.00943506 0.02895820 -0.02031903
v 0.00943506 0.02895672 -0.01970345
v 0.00942696 0.02894785 -0.01908387
v 0.00937635 0.02889465 -0.01846829
v 0.00971238 0.02844097 -0.01845629
v 0.00986420 0.02811142 -0.01824044
v 0.00985206 0.02736514 -0.01761287
v 0.00790472 0.02785428 -0.01350366
v 0.00790877 0.02784394 -0.01350366
v 0.00802618 0.02750996 -0.01350366
v 0.00807678 0.02720997 -0.01350366
v 0.00812941 0.02660703 -0.01350366
v 0.00990469 0.01644425 -0.01751294
v 0.00937433 0.01644425 -0.05409207
v 0.00915369 0.01644425 -0.05418401
v 0.00895936 0.01644425 -0.05426395
v 0.00834196 0.02538194 -0.05433990
v 0.00834196 0.02597601 -0.05416802
v 0.00834196 0.02628487 -0.05384424
v 0.00154451 0.03138030 -0.04919940
v 0.00219632 0.03141281 -0.04878768
v 0.00277930 0.03136256 -0.04860380
v 0.00277930 0.03150443 -0.04812812
v 0.00216191 0.03153990 -0.04812812
v 0.00339873 0.03153990 -0.04689296
v 0.00401612 0.03153842 -0.04627338
v 0.00463352 0.03149409 -0.04441865
v 0.00834196 0.02973256 -0.01970345
v 0.00834196 0.02973404 -0.02402851
v 0.00834196 0.02973404 -0.02464809
v 0.00834196 0.02973108 -0.02773798
v 0.00879742 0.02949759 -0.02402851
v 0.00879742 0.02949611 -0.02031903
v 0.00910510 0.02926705 -0.02031903
v 0.00910308 0.02926558 -0.01970345
v 0.00909296 0.02925671 -0.01908387
v 0.00903021 0.02920351 -0.01846829
v 0.00931158 0.02882815 -0.01807256
v 0.00945530 0.02848235 -0.01786070
v 0.00740878 0.02877199 -0.01350366
v 0.00760311 0.02846314 -0.01350366
v 0.00808690 0.02616221 -0.01350366
v 0.00968404 0.01644425 -0.01720115
v 0.00834196 0.01644425 -0.05433990
v -0.00834196 0.02538194 -0.05433990
v -0.00834196 0.02597601 -0.05416802
v 0.00030769 0.03139655 -0.04931132
v 0.00092509 0.03139655 -0.04926335
v 0.00154451 0.03152364 -0.04874371
v 0.00092509 0.03153990 -0.04874371
v 0.00401612 0.03153990 -0.04565381
v 0.00401612 0.03153990 -0.04318349
v 0.00401612 0.03153251 -0.04256391
v 0.00463352 0.03147044 -0.04379907
v 0.00772456 0.02992911 -0.01908387
v 0.00834196 0.02971926 -0.01908387
v 0.00879539 0.02949611 -0.01970345
v 0.00878325 0.02948872 -0.01908387
v 0.00872252 0.02944734 -0.01846829
v 0.00866382 0.02940744 -0.01814051
v 0.00677721 0.02938676 -0.01350366
v 0.00710716 0.02906903 -0.01350366
v 0.00773671 0.02589473 -0.01350366
v 0.00895936 0.01644425 -0.01670149
v 0.00918203 0.01644425 -0.01676944
v 0.00937433 0.01644425 -0.01682940
v -0.00834196 0.01644425 -0.05433990
v -0.00867191 0.01644425 -0.05429993
v -0.00895936 0.02538194 -0.05426395
v -0.00895936 0.02590951 -0.05413204
v -0.00834196 0.02628487 -0.05384424
v -0.00092509 0.03139655 -0.04926335
v -0.00030769 0.03139655 -0.04931132
v -0.00092509 0.03153990 -0.04874371
v 0.00339873 0.03153990 -0.04194832
v 0.00498574 0.03002368 -0.01350366
v 0.00725696 0.03000890 -0.01908387
v 0.00529343 0.02997935 -0.01350366
v 0.00587034 0.02983748 -0.01350366
v 0.00772456 0.02985374 -0.01846829
v 0.00834196 0.02963650 -0.01846829
v 0.00646952 0.02956557 -0.01350366
v 0.00647762 0.02956113 -0.01350366
v 0.00770027 0.02587700 -0.01350366
v 0.00867191 0.01644425 -0.01668150
v -0.00895936 0.01644425 -0.05426395
v -0.00918203 0.01644425 -0.05417202
v -0.00937433 0.02538194 -0.05409207
v -0.00933992 0.02579129 -0.05406009
v -0.00895936 0.02621837 -0.05379227
v -0.00154451 0.03138030 -0.04919940
v -0.00154451 0.03152364 -0.04874371
v -0.00216191 0.03153990 -0.04812812
v 0.00216191 0.03153990 -0.04070917
v 0.00463352 0.03003403 -0.01350366
v 0.00710514 0.02578094 -0.01350366
v 0.00834196 0.01644425 -0.01666151
v -0.00937433 0.01644425 -0.05409207
v -0.00968404 0.02538194 -0.05379627
v -0.00995529 0.02579129 -0.05344851
v -0.00952615 0.02599818 -0.05363638
v -0.00930146 0.02631886 -0.05341253
v -0.00201413 0.03132857 -0.04912745
v -0.00219632 0.03141281 -0.04878768
v -0.00277930 0.03150443 -0.04812812
v -0.00339873 0.03151182 -0.04750854
v -0.00339873 0.03153990 -0.04689296
v 0.00030769 0.03153990 -0.04009359
v 0.00092509 0.03153103 -0.04009359
v 0.00401612 0.03003846 -0.01350366
v -0.00710514 0.02578094 -0.01350366
v -0.00834196 0.01644425 -0.01666151
v -0.00968404 0.01644425 -0.05379627
v -0.00999173 0.02538194 -0.05348448
v -0.01021642 0.02538194 -0.05307276
v -0.01002412 0.02599818 -0.05302080
v -0.00989659 0.02631590 -0.05278496
v -0.00971440 0.02620359 -0.05319668
v -0.00376916 0.03131232 -0.04788829
v -0.00314974 0.03130345 -0.04848388
v -0.00277930 0.03136256 -0.04860380
v -0.00337241 0.03137586 -0.04810814
v -0.00399183 0.03135074 -0.04745258
v -0.00401612 0.03147488 -0.04689296
v -0.00401612 0.03153842 -0.04627338
v -0.00401612 0.03153990 -0.04565381
v -0.00030769 0.03153990 -0.04009359
v -0.00403232 0.03003846 -0.01350366
v -0.00712538 0.02578242 -0.01350366
v -0.00895936 0.01644425 -0.01670149
v -0.00763954 0.02586665 -0.01350366
v -0.00770027 0.02587700 -0.01350366
v -0.00999173 0.01644425 -0.05348448
v -0.01021642 0.01644425 -0.05307276
v -0.01033990 0.02538194 -0.05245319
v -0.01012735 0.02599966 -0.05245319
v -0.00501408 0.03134040 -0.04503823
v -0.00498169 0.03130197 -0.04550990
v -0.00441490 0.03133153 -0.04689296
v -0.00433393 0.03126355 -0.04721275
v -0.00974274 0.02856954 -0.02773798
v -0.00943506 0.02895524 -0.02773798
v -0.00910106 0.02926410 -0.02773798
v -0.00454850 0.03139655 -0.04627338
v -0.00463352 0.03148227 -0.04503823
v -0.00463352 0.03149409 -0.04441865
v -0.00401612 0.03153990 -0.04318349
v -0.00216191 0.03153990 -0.04070917
v -0.00092509 0.03153103 -0.04009359
v -0.00464364 0.03003403 -0.01350366
v -0.00937433 0.01644425 -0.01682940
v -0.00808690 0.02616221 -0.01350366
v -0.01033990 0.01644425 -0.05245319
v -0.01033990 0.02538194 -0.02155819
v -0.01032776 0.02661885 -0.01970345
v -0.01032573 0.02661885 -0.02773798
v -0.01027107 0.02723657 -0.02773798
v -0.01010914 0.02785428 -0.02773798
v -0.00994315 0.02826068 -0.02773798
v -0.00879337 0.02949611 -0.02773798
v -0.00502623 0.03135074 -0.04441865
v -0.00974477 0.02856954 -0.02588325
v -0.00943506 0.02895672 -0.02711841
v -0.00910510 0.02926705 -0.02588325
v -0.00910308 0.02926558 -0.02711841
v -0.00834196 0.02973256 -0.01970345
v -0.00772456 0.02993058 -0.01908387
v -0.00463352 0.03147044 -0.04379907
v -0.00401612 0.03153251 -0.04256391
v -0.00339873 0.03153990 -0.04194832
v -0.00498574 0.03002368 -0.01350366
v -0.00968404 0.01644425 -0.01720115
v -0.00813144 0.02661885 -0.01350366
v -0.00990469 0.01644425 -0.01751294
v -0.00978728 0.01644425 -0.01734505
v -0.01033990 0.01644425 -0.02155819
v -0.01033180 0.02599966 -0.01970345
v -0.01032573 0.02599966 -0.01908387
v -0.01031763 0.02661885 -0.01908387
v -0.01027107 0.02723657 -0.01970345
v -0.01010914 0.02785428 -0.01970345
v -0.00994315 0.02826068 -0.01970345
v -0.00910713 0.02926853 -0.02402851
v -0.00879742 0.02949759 -0.02464809
v -0.00834196 0.02973256 -0.02711841
v -0.00834196 0.02973108 -0.02773798
v -0.00834196 0.02973404 -0.02526367
v -0.00834196 0.02973404 -0.02402851
v -0.00974477 0.02856954 -0.02341293
v -0.00943506 0.02895967 -0.02402851
v -0.00879742 0.02949759 -0.02402851
v -0.00879539 0.02949611 -0.02031903
v -0.00879337 0.02949611 -0.01970345
v -0.00878325 0.02948872 -0.01908387
v -0.00834196 0.02971926 -0.01908387
v -0.00772456 0.02985374 -0.01846829
v -0.00587034 0.02983748 -0.01350366
v -0.00529343 0.02997935 -0.01350366
v -0.00528533 0.02998083 -0.01350366
v -0.00726101 0.03000890 -0.01908387
v -0.00807678 0.02720110 -0.01350366
v -0.00989254 0.02695431 -0.01753292
v -0.01004436 0.02661885 -0.01784871
v -0.00990469 0.02599966 -0.01751294
v -0.01005448 0.02105792 -0.01784871
v -0.00997553 0.01644425 -0.01766883
v -0.01032776 0.01644425 -0.01908387
v -0.01032776 0.02353027 -0.01908387
v -0.01025083 0.02414650 -0.01846829
v -0.01024881 0.02599966 -0.01846829
v -0.01024071 0.02661885 -0.01846829
v -0.01025893 0.02723657 -0.01908387
v -0.01009699 0.02785428 -0.01908387
v -0.00993505 0.02825033 -0.01908387
v -0.00974274 0.02856954 -0.01970345
v -0.00943506 0.02895672 -0.02031903
v -0.00910510 0.02926558 -0.02031903
v -0.00910106 0.02926410 -0.01970345
v -0.00909093 0.02925671 -0.01908387
v -0.00872252 0.02944734 -0.01846829
v -0.00834196 0.02963650 -0.01846829
v -0.00646952 0.02956557 -0.01350366
v -0.00802820 0.02750109 -0.01350366
v -0.00997958 0.02719076 -0.01782872
v -0.01017998 0.02723657 -0.01846829
v -0.01005246 0.02599966 -0.01784871
v -0.01005448 0.01644425 -0.01784871
v -0.01025083 0.01644425 -0.01846829
v -0.00999983 0.02788384 -0.01845629
v -0.00991481 0.02821487 -0.01865616
v -0.00973465 0.02855919 -0.01908387
v -0.00942696 0.02894785 -0.01908387
v -0.00943303 0.02895524 -0.01970345
v -0.00937635 0.02889465 -0.01846829
v -0.00903021 0.02920351 -0.01846829
v -0.00866382 0.02940744 -0.01814051
v -0.00677721 0.02938676 -0.01350366
v -0.00802415 0.02752030 -0.01350366
v -0.00985205 0.02736514 -0.01761287
v -0.00994517 0.02769912 -0.01802459
v -0.00986420 0.02811142 -0.01824044
v -0.00971238 0.02844097 -0.01845629
v -0.00931158 0.02882815 -0.01807256
v -0.00678733 0.02937789 -0.01350366
v -0.00790472 0.02785428 -0.01350366
v -0.00789662 0.02787202 -0.01350366
v -0.00760311 0.02846314 -0.01350366
v -0.00740878 0.02877199 -0.01350366
v -0.00709907 0.02907642 -0.01350366
f 1 2 3
f 1 3 4
f 1 4 13
f 1 13 5
f 1 5 2
f 2 6 7
f 2 7 8
f 2 8 9
f 2 9 10
f 2 10 3
f 2 5 6
f 3 10 11
f 3 11 12
f 3 12 4
f 4 12 23
f 4 23 37
f 4 37 64
f 4 64 65
f 4 65 94
f 4 94 124
f 4 124 147
f 4 147 146
f 4 146 145
f 4 145 166
f 4 166 178
f 4 178 193
f 4 193 211
f 4 211 232
f 4 232 253
f 4 253 256
f 4 256 255
f 4 255 287
f 4 287 308
f 4 308 309
f 4 309 288
f 4 288 257
f 4 257 234
f 4 234 215
f 4 215 214
f 4 214 194
f 4 194 179
f 4 179 168
f 4 168 167
f 4 167 149
f 4 149 148
f 4 148 125
f 4 125 97
f 4 97 96
f 4 96 95
f 4 95 66
f 4 66 38
f 4 38 25
f 4 25 24
f 4 24 13
f 5 13 24
f 5 24 14
f 5 14 15
f 5 15 16
f 5 16 17
f 5 17 7
f 5 7 6
f 7 17 18
f 7 18 8
f 8 18 32
f 8 32 19
f 8 19 9
f 9 19 20
f 9 20 21
f 9 21 10
f 10 21 22
f 10 22 11
f 11 22 23
f 11 23 12
f 14 24 25
f 14 25 26
f 14 26 27
f 14 27 15
f 15 28 16
f 15 27 28
f 16 28 29
f 16 29 30
f 16 30 17
f 17 30 31
f 17 31 18
f 18 31 32
f 19 32 33
f 19 33 20
f 20 33 34
f 20 34 35
f 20 35 21
f 21 35 22
f 22 35 36
f 22 36 37
f 22 37 23
f 25 38 26
f 26 38 66
f 26 66 39
f 26 39 27
f 27 40 28
f 27 39 41
f 27 41 42
f 27 42 40
f 28 40 43
f 28 43 44
f 28 44 45
f 28 45 46
f 28 46 47
f 28 47 48
f 28 48 49
f 28 49 50
f 28 50 29
f 29 50 51
f 29 51 52
f 29 52 30
f 30 52 53
f 30 53 31
f 31 53 54
f 31 54 55
f 31 55 56
f 31 56 32
f 32 56 57
f 32 57 58
f 32 58 33
f 33 58 59
f 33 59 60
f 33 60 34
f 34 61 35
f 34 60 62
f 34 62 63
f 34 63 61
f 35 61 36
f 36 64 37
f 36 61 63
f 36 63 65
f 36 65 64
f 39 66 95
f 39 95 67
f 39 67 41
f 40 42 43
f 41 67 68
f 41 68 69
f 41 69 70
f 41 70 43
f 41 43 42
f 43 70 71
f 43 71 72
f 43 72 44
f 44 72 73
f 44 73 74
f 44 74 75
f 44 75 45
f 45 75 46
f 46 75 76
f 46 76 77
f 46 77 47
f 47 77 48
f 48 77 78
f 48 78 79
f 48 79 80
f 48 80 49
f 49 80 113
f 49 113 81
f 49 81 50
f 50 81 51
f 51 81 82
f 51 82 53
f 51 53 52
f 53 82 83
f 53 83 54
f 54 83 55
f 55 83 84
f 55 84 85
f 55 85 86
f 55 86 57
f 55 57 56
f 57 86 87
f 57 87 58
f 58 87 59
f 59 88 60
f 59 87 89
f 59 89 90
f 59 90 91
f 59 91 88
f 60 88 91
f 60 91 62
f 62 91 92
f 62 92 63
f 63 92 91
f 63 91 90
f 63 90 89
f 63 89 122
f 63 122 121
f 63 121 143
f 63 143 142
f 63 142 164
f 63 164 163
f 63 163 160
f 63 160 159
f 63 159 157
f 63 157 176
f 63 176 191
f 63 191 209
f 63 209 231
f 63 231 252
f 63 252 280
f 63 280 279
f 63 279 278
f 63 278 303
f 63 303 318
f 63 318 325
f 63 325 330
f 63 330 329
f 63 329 328
f 63 328 327
f 63 327 326
f 63 326 319
f 63 319 304
f 63 304 282
f 63 282 254
f 63 254 233
f 63 233 213
f 63 213 212
f 63 212 210
f 63 210 192
f 63 192 177
f 63 177 165
f 63 165 144
f 63 144 123
f 63 123 93
f 63 93 65
f 65 93 94
f 67 95 96
f 67 96 68
f 68 96 97
f 68 97 125
f 68 125 98
f 68 98 69
f 69 99 100
f 69 100 70
f 69 98 99
f 70 100 101
f 70 101 71
f 71 101 102
f 71 102 103
f 71 103 72
f 72 103 73
f 73 103 104
f 73 104 74
f 74 104 105
f 74 105 106
f 74 106 107
f 74 107 76
f 74 76 75
f 76 107 77
f 77 107 78
f 78 108 79
f 78 107 108
f 79 108 109
f 79 109 110
f 79 110 111
f 79 111 112
f 79 112 80
f 80 112 113
f 81 113 114
f 81 114 115
f 81 115 82
f 82 115 83
f 83 115 116
f 83 116 84
f 84 116 117
f 84 117 85
f 85 118 119
f 85 119 86
f 85 117 118
f 86 119 87
f 87 119 120
f 87 120 121
f 87 121 122
f 87 122 89
f 93 123 94
f 94 123 124
f 98 125 148
f 98 148 126
f 98 126 127
f 98 127 99
f 99 127 154
f 99 154 128
f 99 128 129
f 99 129 100
f 100 129 101
f 101 129 130
f 101 130 102
f 102 130 104
f 102 104 103
f 104 130 105
f 105 130 131
f 105 131 155
f 105 155 174
f 105 174 188
f 105 188 207
f 105 207 228
f 105 228 251
f 105 251 229
f 105 229 208
f 105 208 189
f 105 189 175
f 105 175 156
f 105 156 133
f 105 133 132
f 105 132 106
f 106 132 107
f 107 132 108
f 108 133 134
f 108 134 135
f 108 135 136
f 108 136 109
f 108 132 133
f 109 136 137
f 109 137 138
f 109 138 114
f 109 114 113
f 109 113 110
f 110 113 111
f 111 113 112
f 114 138 115
f 115 138 116
f 116 138 117
f 117 138 139
f 117 139 140
f 117 140 118
f 118 140 141
f 118 141 119
f 119 141 142
f 119 142 143
f 119 143 121
f 119 121 120
f 123 144 145
f 123 145 146
f 123 146 147
f 123 147 124
f 126 149 150
f 126 150 151
f 126 151 127
f 126 148 149
f 127 151 152
f 127 152 153
f 127 153 154
f 128 154 155
f 128 155 131
f 128 131 129
f 129 131 130
f 133 156 134
f 134 156 157
f 134 157 158
f 134 158 136
f 134 136 135
f 136 158 159
f 136 159 160
f 136 160 161
f 136 161 137
f 137 139 138
f 137 161 162
f 137 162 140
f 137 140 139
f 140 162 163
f 140 163 141
f 141 163 164
f 141 164 142
f 144 165 145
f 145 165 166
f 149 167 150
f 150 167 168
f 150 168 169
f 150 169 170
f 150 170 151
f 151 170 171
f 151 171 152
f 152 171 172
f 152 172 153
f 153 172 173
f 153 173 155
f 153 155 154
f 155 173 174
f 156 175 157
f 157 159 158
f 157 175 176
f 160 163 162
f 160 162 161
f 165 177 178
f 165 178 166
f 168 179 169
f 169 179 194
f 169 194 180
f 169 180 170
f 170 180 181
f 170 181 182
f 170 182 183
f 170 183 171
f 171 183 184
f 171 184 172
f 172 184 185
f 172 185 173
f 173 185 186
f 173 186 174
f 174 186 187
f 174 187 188
f 175 189 190
f 175 190 176
f 176 190 189
f 176 189 191
f 177 192 193
f 177 193 178
f 180 195 181
f 180 194 214
f 180 214 195
f 181 195 196
f 181 196 197
f 181 197 198
f 181 198 199
f 181 199 182
f 182 199 183
f 183 199 198
f 183 198 200
f 183 200 201
f 183 201 184
f 184 201 202
f 184 202 185
f 185 202 186
f 186 202 203
f 186 203 187
f 187 203 200
f 187 200 204
f 187 204 205
f 187 205 206
f 187 206 188
f 188 206 207
f 189 208 209
f 189 209 191
f 192 210 193
f 193 210 212
f 193 212 213
f 193 213 211
f 195 214 215
f 195 215 196
f 196 215 234
f 196 234 216
f 196 216 197
f 197 216 217
f 197 217 198
f 198 218 219
f 198 219 220
f 198 220 221
f 198 221 200
f 198 217 222
f 198 222 223
f 198 223 224
f 198 224 218
f 200 221 204
f 200 203 201
f 201 203 202
f 204 221 220
f 204 220 205
f 205 220 225
f 205 225 206
f 206 225 226
f 206 226 227
f 206 227 207
f 207 227 228
f 208 229 230
f 208 230 231
f 208 231 209
f 211 213 233
f 211 233 232
f 216 235 236
f 216 236 237
f 216 237 238
f 216 238 239
f 216 239 217
f 216 234 257
f 216 257 235
f 217 239 240
f 217 240 222
f 218 224 241
f 218 241 242
f 218 242 226
f 218 226 225
f 218 225 219
f 219 225 220
f 222 240 243
f 222 243 244
f 222 244 223
f 223 244 245
f 223 245 246
f 223 246 224
f 224 246 241
f 226 242 227
f 227 242 247
f 227 247 248
f 227 248 249
f 227 249 250
f 227 250 228
f 228 250 251
f 229 251 252
f 229 252 231
f 229 231 230
f 232 233 253
f 233 254 255
f 233 255 256
f 233 256 253
f 235 257 258
f 235 258 236
f 236 258 259
f 236 259 260
f 236 260 261
f 236 261 238
f 236 238 237
f 238 261 262
f 238 262 239
f 239 262 263
f 239 263 240
f 240 263 270
f 240 270 243
f 241 246 245
f 241 245 264
f 241 264 265
f 241 265 266
f 241 266 267
f 241 267 242
f 242 267 266
f 242 266 268
f 242 268 269
f 242 269 247
f 243 270 271
f 243 271 244
f 244 271 264
f 244 264 245
f 247 269 272
f 247 272 273
f 247 273 274
f 247 274 275
f 247 275 276
f 247 276 248
f 248 276 277
f 248 277 278
f 248 278 279
f 248 279 280
f 248 280 281
f 248 281 250
f 248 250 249
f 250 281 252
f 250 252 251
f 252 281 280
f 254 282 283
f 254 283 284
f 254 284 285
f 254 285 286
f 254 286 287
f 254 287 255
f 257 288 258
f 258 289 259
f 258 288 289
f 259 289 290
f 259 290 291
f 259 291 292
f 259 292 260
f 260 292 293
f 260 293 261
f 261 293 294
f 261 294 262
f 262 294 263
f 263 294 295
f 263 295 312
f 263 312 296
f 263 296 270
f 264 272 265
f 264 271 297
f 264 297 298
f 264 298 273
f 264 273 272
f 265 272 269
f 265 269 268
f 265 268 266
f 270 296 271
f 271 296 297
f 273 298 274
f 274 299 300
f 274 300 275
f 274 298 299
f 275 300 301
f 275 301 276
f 276 301 302
f 276 302 277
f 277 302 278
f 278 302 303
f 282 304 283
f 283 305 284
f 283 304 305
f 284 305 306
f 284 306 292
f 284 292 291
f 284 291 307
f 284 307 285
f 285 307 286
f 286 308 287
f 286 307 290
f 286 290 309
f 286 309 308
f 288 309 290
f 288 290 289
f 290 307 291
f 292 306 293
f 293 306 294
f 294 306 310
f 294 310 311
f 294 311 295
f 295 311 312
f 296 312 313
f 296 313 314
f 296 314 297
f 297 314 298
f 298 314 299
f 299 314 313
f 299 313 300
f 300 313 315
f 300 315 316
f 300 316 301
f 301 316 317
f 301 317 303
f 301 303 302
f 303 317 318
f 304 319 320
f 304 320 305
f 305 320 321
f 305 321 306
f 306 321 310
f 310 321 322
f 310 322 311
f 311 322 323
f 311 323 312
f 312 323 315
f 312 315 313
f 315 323 324
f 315 324 316
f 316 324 317
f 317 324 318
f 318 324 325
f 319 326 321
f 319 321 320
f 321 326 322
f 322 324 323
f 322 326 327
f 322 327 328
f 322 328 329
f 322 329 324
f 324 329 330
f 324 330 325

