# https://github.com/mikedh/trimesh
v 0.01033990 0.00090873 -0.01969999
v 0.01033180 0.00090873 -0.01932562
v 0.01033990 -0.00119125 -0.01969999
v 0.01033990 0.00090873 -0.03823833
v 0.01032573 0.00090873 -0.01907920
v 0.01032573 -0.00119125 -0.01907920
v 0.01032168 -0.00180887 -0.01969999
v 0.01032371 -0.00180887 -0.02031604
v 0.01033990 -0.00119125 -0.02278971
v 0.01033990 0.00066293 -0.03823833
v 0.01033180 0.00090873 -0.03885437
v 0.01028120 0.00090873 -0.01870957
v 0.00804237 -0.00022809 0.00105613
v 0.01029942 -0.00180887 -0.01907920
v 0.00804237 -0.00037192 0.00105613
v 0.01018201 -0.00242693 -0.01969999
v 0.01019213 -0.00242693 -0.02031604
v 0.01032371 -0.00180887 -0.02216892
v 0.01033180 0.00066293 -0.03885437
v 0.01027917 0.00090873 -0.03910079
v 0.01025083 0.00090873 -0.01846315
v 0.00805856 -0.00017065 0.00069124
v 0.00764966 0.00003507 0.00192807
v 0.00756060 0.00000346 0.00254412
v 0.00747760 -0.00010609 0.00300379
v 0.00785411 -0.00057319 0.00192807
v 0.01013140 -0.00242693 -0.01907920
v 0.00802415 -0.00078426 0.00089027
v 0.00786423 -0.00119125 0.00130729
v 0.00798569 -0.00057631 0.00127885
v 0.00997553 -0.00285040 -0.01969999
v 0.00997958 -0.00285842 -0.02031604
v 0.00997958 -0.00285931 -0.02155287
v 0.01019213 -0.00242693 -0.02155287
v 0.01019011 -0.00242693 -0.02216892
v 0.01030549 -0.00180887 -0.02278971
v 0.01010914 0.00011255 -0.03885437
v 0.01004233 0.00015886 -0.03947516
v 0.01019820 0.00066293 -0.03947516
v 0.01019820 0.00090873 -0.03947516
v 0.01005650 0.00090873 -0.01784236
v 0.00710514 0.00030536 0.00254412
v 0.00698773 0.00000835 0.00378096
v 0.00736424 -0.00057319 0.00334973
v 0.00749380 -0.00057319 0.00304170
v 0.00767598 -0.00057319 0.00254412
v 0.00686830 -0.00010119 0.00420746
v 0.00773468 -0.00119125 0.00192807
v 0.00993910 -0.00280187 -0.01907920
v 0.00758084 -0.00186364 0.00134994
v 0.00745129 -0.00216510 0.00117460
v 0.00753023 -0.00172248 0.00192807
v 0.00965773 -0.00315943 -0.01969999
v 0.00966987 -0.00316745 -0.02031604
v 0.00997958 -0.00285129 -0.02216892
v 0.00957878 -0.00008827 -0.03947516
v 0.00994719 0.00025415 -0.03984953
v 0.00994922 -0.00280721 -0.02257172
v 0.00931765 -0.00337940 -0.02131593
v 0.00997756 0.00066293 -0.03988270
v 0.01011116 0.00090873 -0.03963628
v 0.00996541 0.00090873 -0.01763859
v 0.00710514 0.00033742 0.00192807
v 0.00648774 0.00031026 0.00378096
v 0.00651406 0.00007337 0.00440649
v 0.00745736 -0.00102115 0.00295640
v 0.00714562 -0.00057319 0.00378096
v 0.00698368 -0.00121975 0.00382361
v 0.00753833 -0.00121263 0.00257256
v 0.00688652 -0.00057319 0.00423589
v 0.00632580 -0.00006601 0.00488985
v 0.00638450 -0.00057319 0.00496093
v 0.00669219 -0.00057319 0.00454865
v 0.00746748 -0.00160270 0.00238300
v 0.00682377 -0.00276045 0.00172430
v 0.00740878 -0.00210588 0.00158688
v 0.00702214 -0.00247235 0.00192807
v 0.00736627 -0.00203152 0.00192807
v 0.00931360 -0.00338074 -0.01927349
v 0.00934801 -0.00340211 -0.01969999
v 0.00936218 -0.00341057 -0.02031604
v 0.00965975 -0.00316789 -0.02093682
v 0.00935206 -0.00340167 -0.02093682
v 0.00895936 -0.00013993 -0.03947516
v 0.00895936 0.00010676 -0.04004856
v 0.00957878 0.00015530 -0.03996326
v 0.00957878 0.00066293 -0.04014334
v 0.00895936 -0.00354906 -0.02031604
v 0.00834196 -0.00362120 -0.02031604
v 0.00997756 0.00090873 -0.03988270
v 0.00981967 0.00090873 -0.03998696
v 0.00990469 0.00090873 -0.01750591
v 0.00648774 0.00033920 0.00316491
v 0.00587034 0.00033742 0.00439701
v 0.00592095 0.00009518 0.00506519
v 0.00739258 -0.00143260 0.00279528
v 0.00731161 -0.00121263 0.00316017
v 0.00684603 -0.00103229 0.00416954
v 0.00677721 -0.00144418 0.00405581
v 0.00689664 -0.00168018 0.00364827
v 0.00574686 -0.00006467 0.00552485
v 0.00613147 -0.00057319 0.00526895
v 0.00631163 -0.00119125 0.00487089
v 0.00605657 -0.00119125 0.00518366
v 0.00728530 -0.00180887 0.00257256
v 0.00676709 -0.00270880 0.00213658
v 0.00653227 -0.00292476 0.00192807
v 0.00696142 -0.00231828 0.00254412
v 0.00686830 -0.00220562 0.00302274
v 0.00598370 -0.00326274 0.00192807
v 0.00895936 -0.00353214 -0.01969999
v 0.00567399 -0.00339900 0.00192807
v 0.00834196 -0.00013681 -0.03947516
v 0.00648774 -0.00359715 -0.02093682
v 0.00587034 -0.00359938 -0.02093682
v -0.00587034 -0.00359938 -0.02093682
v -0.00648774 -0.00359715 -0.02093682
v -0.00895936 0.00024169 -0.03990166
v -0.00895936 0.00066293 -0.04016229
v 0.00895936 0.00066293 -0.04031868
v -0.00895936 0.00000078 -0.03947516
v 0.00933182 0.00090873 -0.04021442
v 0.00957878 0.00090873 -0.04014334
v 0.00525294 -0.00351700 0.00192807
v 0.00463352 -0.00361363 0.00192807
v 0.00834196 -0.00362164 -0.01969999
v 0.00710514 -0.00363856 -0.02031604
v 0.00772456 -0.00363500 -0.01969999
v 0.00800593 0.00090873 -0.01451096
v 0.00525294 0.00033831 0.00501780
v 0.00530760 0.00009563 0.00569071
v 0.00793104 0.00090873 -0.01440197
v 0.00701000 -0.00185518 0.00320282
v 0.00664361 -0.00121975 0.00438753
v 0.00669017 -0.00185518 0.00382361
v 0.00623066 -0.00158623 0.00477138
v 0.00636021 -0.00179907 0.00439227
v 0.00677923 -0.00209207 0.00343502
v 0.00582378 -0.00057319 0.00560541
v 0.00513959 -0.00006556 0.00611247
v 0.00552622 -0.00057319 0.00591344
v 0.00574686 -0.00119125 0.00552485
v 0.00564565 -0.00163120 0.00541586
v 0.00668612 -0.00262731 0.00254412
v 0.00626507 -0.00280409 0.00303696
v 0.00637641 -0.00288068 0.00254412
v 0.00652215 -0.00246612 0.00323599
v 0.00582986 -0.00321198 0.00254412
v 0.00551002 -0.00333577 0.00274789
v 0.00559707 -0.00337005 0.00233561
v 0.00528331 -0.00343685 0.00254412
v -0.00895936 -0.00013414 -0.03885437
v -0.00957878 -0.00012924 -0.03885437
v -0.00710514 -0.00363856 -0.02031604
v -0.00834196 -0.00362164 -0.02031604
v -0.00957878 0.00025282 -0.03988270
v -0.00957878 0.00001414 -0.03947516
v -0.00957878 0.00066293 -0.04006278
v -0.00895936 0.00090873 -0.04022390
v 0.00895936 0.00090873 -0.04031868
v 0.00463352 -0.00351032 0.00316491
v 0.00463352 -0.00357979 0.00254412
v 0.00463352 -0.00362788 0.00130729
v 0.00401612 -0.00360205 0.00316491
v 0.00401612 -0.00363099 0.00254412
v 0.00710514 -0.00363990 -0.01969999
v 0.00401612 -0.00363856 0.00192807
v 0.00401612 -0.00363990 0.00130729
v 0.00463352 0.00033787 0.00563384
v 0.00401612 0.00033030 0.00625463
v 0.00466389 0.00008940 0.00629254
v 0.00776100 0.00090873 -0.01432141
v 0.00277930 0.00033475 0.00687068
v 0.00624281 -0.00219093 0.00418376
v 0.00587237 -0.00181466 0.00501780
v 0.00609706 -0.00199856 0.00459604
v 0.00636831 -0.00232006 0.00378096
v 0.00616791 -0.00272617 0.00344924
v 0.00521651 -0.00057319 0.00617881
v 0.00447968 -0.00007536 0.00666217
v 0.00512744 -0.00119125 0.00610299
v 0.00543715 -0.00119125 0.00583288
v 0.00550193 -0.00204309 0.00526422
v 0.00502218 -0.00160359 0.00600821
v 0.00526104 -0.00182357 0.00564332
v 0.00592500 -0.00296573 0.00321230
v 0.00538857 -0.00328100 0.00316491
v 0.00497157 -0.00336515 0.00351085
v 0.00508088 -0.00339944 0.00316491
v -0.01003829 0.00019048 -0.03947516
v -0.00931765 -0.00337940 -0.02131593
v -0.00710514 -0.00363990 -0.01969999
v -0.00772456 -0.00363500 -0.01969999
v -0.00895936 -0.00354950 -0.02031604
v -0.00834196 -0.00362209 -0.01969999
v -0.00994315 0.00029378 -0.03983531
v -0.00957878 0.00090873 -0.04009595
v -0.00997351 0.00066293 -0.03987322
v 0.00461328 -0.00341191 0.00374305
v 0.00401612 -0.00353258 0.00378096
v 0.00339873 -0.00363411 0.00316491
v 0.00339873 -0.00360517 0.00378096
v 0.00339873 -0.00363990 0.00254412
v 0.00339873 0.00023411 0.00687068
v 0.00397564 0.00000969 0.00687068
v 0.00766991 0.00090873 -0.01428823
v 0.00216191 0.00033920 0.00687068
v 0.00030769 0.00033119 0.00748673
v 0.00092508 0.00032228 0.00748673
v 0.00154451 0.00025816 0.00748673
v 0.00568411 -0.00224169 0.00485194
v 0.00586022 -0.00242248 0.00438279
v 0.00606265 -0.00262909 0.00378096
v 0.00562338 -0.00278227 0.00417428
v 0.00575294 -0.00286599 0.00378096
v 0.00484202 -0.00057319 0.00648684
v 0.00339873 -0.00006779 0.00727348
v 0.00374285 -0.00019782 0.00719766
v 0.00473878 -0.00119125 0.00641102
v 0.00486024 -0.00201548 0.00587079
v 0.00509100 -0.00225193 0.00545851
v 0.00434203 -0.00151899 0.00657214
v 0.00460113 -0.00176746 0.00623094
v 0.00520639 -0.00318081 0.00374305
v 0.00480558 -0.00330371 0.00392312
v 0.00439264 -0.00337629 0.00416481
v -0.01010914 0.00011433 -0.03885437
v -0.01033383 0.00066293 -0.03885437
v -0.01019415 0.00066293 -0.03947516
v -0.00935206 -0.00340167 -0.02093682
v -0.00997958 -0.00285129 -0.02216892
v -0.00994922 -0.00280721 -0.02257172
v -0.00401612 -0.00363990 0.00130729
v -0.00401612 -0.00363856 0.00192807
v -0.00463352 -0.00362788 0.00130729
v -0.00936219 -0.00341057 -0.02031604
v -0.00463352 -0.00361363 0.00192807
v -0.00525295 -0.00351700 0.00192807
v -0.00895936 -0.00353258 -0.01969999
v -0.00934802 -0.00340256 -0.01969999
v -0.00997553 0.00090873 -0.03987796
v 0.00398981 -0.00341636 0.00438279
v 0.00339873 -0.00352234 0.00439701
v 0.00277930 -0.00363990 0.00316491
v 0.00277930 -0.00363322 0.00378096
v 0.00216191 -0.00363990 0.00378096
v 0.00277930 -0.00359270 0.00439701
v 0.00216191 -0.00362342 0.00439701
v 0.00277930 0.00003284 0.00740143
v 0.00729137 0.00090873 -0.01419346
v -0.00030769 0.00033119 0.00748673
v 0.00030769 0.00002973 0.00795588
v 0.00710514 0.00090873 -0.01417450
v 0.00670029 0.00090873 -0.01416976
v 0.00092508 0.00002038 0.00793218
v 0.00154451 -0.00004374 0.00788480
v 0.00545537 -0.00265358 0.00458656
v 0.00527319 -0.00245276 0.00504149
v 0.00504445 -0.00280008 0.00481403
v 0.00525092 -0.00289582 0.00438753
v 0.00453231 -0.00057319 0.00669535
v 0.00442907 -0.00119125 0.00662900
v 0.00199389 -0.00015551 0.00783267
v 0.00277930 -0.00057319 0.00759572
v 0.00339873 -0.00057319 0.00733983
v 0.00373273 -0.00057319 0.00719292
v 0.00404244 -0.00057319 0.00700811
v 0.00444729 -0.00222343 0.00603665
v 0.00464162 -0.00244385 0.00563858
v 0.00483392 -0.00266383 0.00522630
v 0.00414163 -0.00193132 0.00644893
v 0.00395540 -0.00112980 0.00694650
v 0.00355662 -0.00129501 0.00711236
v 0.00396754 -0.00175855 0.00665743
v 0.00461328 -0.00321198 0.00438279
v 0.00417806 -0.00330905 0.00457708
v 0.00376714 -0.00337050 0.00475242
v -0.01019011 -0.00242693 -0.02216892
v -0.01033990 0.00066293 -0.03823833
v -0.01033383 0.00090873 -0.03885437
v -0.01019618 0.00090873 -0.03947516
v -0.01030549 -0.00180887 -0.02278971
v -0.01032371 -0.00180887 -0.02216892
v -0.00965975 -0.00316789 -0.02093682
v -0.00997958 -0.00285931 -0.02155287
v -0.00966987 -0.00316745 -0.02031604
v -0.00339873 -0.00363990 0.00254412
v -0.00339873 -0.00363411 0.00316491
v -0.00401612 -0.00363099 0.00254412
v -0.00965773 -0.00315943 -0.01969999
v -0.00401612 -0.00360205 0.00316491
v -0.00463352 -0.00357979 0.00254412
v -0.00463352 -0.00351032 0.00316491
v -0.00528331 -0.00343685 0.00254412
v -0.00567399 -0.00339900 0.00192807
v -0.00598370 -0.00326274 0.00192807
v -0.00931360 -0.00338074 -0.01927349
v 0.00339873 -0.00340835 0.00488037
v 0.00282181 -0.00345555 0.00506519
v 0.00216191 -0.00354683 0.00501780
v 0.00154451 -0.00363411 0.00439701
v -0.00216191 -0.00363990 0.00378096
v 0.00154451 -0.00358246 0.00501780
v -0.00216191 0.00033920 0.00687068
v -0.00277930 0.00033475 0.00687068
v -0.00092509 0.00032228 0.00748673
v -0.00030769 0.00002973 0.00795588
v -0.00648774 0.00090873 -0.01416976
v -0.00710514 0.00090873 -0.01417450
v 0.00030769 -0.00057319 0.00808383
v 0.00092508 -0.00057319 0.00803644
v 0.00463150 -0.00290339 0.00501780
v 0.00442300 -0.00278940 0.00540638
v 0.00370641 -0.00088311 0.00717871
v 0.00154451 -0.00057319 0.00794166
v 0.00200604 -0.00057319 0.00783267
v 0.00231575 -0.00057319 0.00775684
v 0.00277930 -0.00119125 0.00747251
v 0.00414770 -0.00263577 0.00581866
v 0.00372868 -0.00213438 0.00657688
v 0.00393920 -0.00238507 0.00620251
v 0.00337039 -0.00177503 0.00697020
v 0.00337039 -0.00112980 0.00724505
v 0.00314569 -0.00154615 0.00720240
v 0.00398981 -0.00319728 0.00498462
v 0.00339873 -0.00330148 0.00519313
v 0.00305663 -0.00334734 0.00530687
v -0.01019213 -0.00242693 -0.02155287
v -0.01033990 0.00090873 -0.03823833
v -0.01033990 -0.00119125 -0.02278971
v -0.01032371 -0.00180887 -0.02031604
v -0.00997958 -0.00285842 -0.02031604
v -0.01019213 -0.00242693 -0.02031604
v -0.00997553 -0.00285040 -0.01969999
v -0.00277930 -0.00363990 0.00316491
v -0.00277930 -0.00363322 0.00378096
v -0.00339873 -0.00360517 0.00378096
v -0.00993910 -0.00280231 -0.01907920
v -0.00682377 -0.00276045 0.00172430
v -0.00401612 -0.00353258 0.00378096
v -0.00508088 -0.00339944 0.00316491
v -0.00461328 -0.00341191 0.00374305
v -0.00497157 -0.00336515 0.00351085
v -0.00551003 -0.00333577 0.00274789
v -0.00559707 -0.00337005 0.00233561
v -0.00582986 -0.00321198 0.00254412
v -0.00637641 -0.00288068 0.00254412
v -0.00653227 -0.00292476 0.00192807
v 0.00264368 -0.00338653 0.00540638
v 0.00216191 -0.00342037 0.00551537
v 0.00154451 -0.00344531 0.00556276
v -0.00154451 -0.00363411 0.00439701
v -0.00154451 -0.00358246 0.00501780
v -0.00766991 0.00090873 -0.01428823
v -0.00401612 0.00033030 0.00625463
v -0.00339873 0.00023411 0.00687068
v -0.00154451 0.00026217 0.00748673
v -0.00793104 0.00090873 -0.01440197
v -0.00092509 0.00002038 0.00793218
v -0.00030769 -0.00057319 0.00808383
v 0.00030769 -0.00119125 0.00797009
v 0.00092508 -0.00119125 0.00792271
v 0.00149188 -0.00116142 0.00784688
v 0.00373475 -0.00274932 0.00596083
v 0.00397159 -0.00286153 0.00561963
v 0.00191697 -0.00093566 0.00781371
v 0.00277930 -0.00168374 0.00727822
v 0.00213761 -0.00116142 0.00769050
v 0.00277930 -0.00199278 0.00710762
v 0.00245745 -0.00211078 0.00717397
v 0.00339873 -0.00223501 0.00665743
v 0.00339873 -0.00254404 0.00636836
v 0.00339873 -0.00307572 0.00563384
v 0.00282181 -0.00325205 0.00562437
v 0.00216191 -0.00330237 0.00582340
v -0.01033990 0.00090873 -0.01969999
v -0.01033990 -0.00119125 -0.01969999
v -0.01032168 -0.00180887 -0.01969999
v -0.01018403 -0.00242693 -0.01969999
v -0.01013140 -0.00242693 -0.01907920
v -0.00216191 -0.00362342 0.00439701
v -0.00277930 -0.00359270 0.00439701
v -0.00339873 -0.00352234 0.00439701
v -0.00745129 -0.00216421 0.00117460
v -0.00676709 -0.00270880 0.00213658
v -0.00702215 -0.00247235 0.00192807
v -0.00740878 -0.00210588 0.00158688
v -0.00398981 -0.00341636 0.00438279
v -0.00439264 -0.00337629 0.00416481
v -0.00480558 -0.00330371 0.00392312
v -0.00520639 -0.00318081 0.00374305
v -0.00538857 -0.00328100 0.00316491
v -0.00592500 -0.00296573 0.00321230
v -0.00626507 -0.00280409 0.00303696
v 0.00154451 -0.00283526 0.00670008
v -0.00154451 -0.00344531 0.00556276
v -0.00216191 -0.00354683 0.00501780
v -0.00463352 0.00033787 0.00563384
v -0.00530760 0.00009563 0.00569071
v -0.00466389 0.00008940 0.00629254
v -0.00397564 0.00000969 0.00687068
v -0.00339873 -0.00006779 0.00727348
v -0.00277930 0.00003284 0.00740143
v -0.00154451 -0.00003974 0.00788480
v -0.00799986 0.00090873 -0.01445409
v -0.00092509 -0.00057319 0.00803644
v -0.00030769 -0.00119125 0.00797009
v 0.00030769 -0.00158222 0.00784214
v 0.00092508 -0.00154303 0.00781845
v 0.00125099 -0.00150741 0.00779950
v 0.00166191 -0.00134800 0.00775211
v 0.00292100 -0.00266961 0.00649157
v 0.00339873 -0.00281923 0.00605560
v 0.00221454 -0.00186631 0.00737300
v 0.00221454 -0.00240734 0.00698915
v 0.00251008 -0.00274843 0.00657688
v 0.00274084 -0.00244920 0.00676169
v 0.00204450 -0.00218826 0.00723083
v 0.00274084 -0.00289270 0.00627359
v 0.00216191 -0.00305434 0.00625463
v -0.01032573 0.00090873 -0.01907920
v -0.01032573 -0.00119125 -0.01907920
v -0.01029942 -0.00180887 -0.01907920
v -0.00758084 -0.00186364 0.00134994
v -0.00786424 -0.00119125 0.00130729
v -0.00282181 -0.00345555 0.00506519
v -0.00339873 -0.00340835 0.00488037
v -0.00376714 -0.00337050 0.00475242
v -0.00668612 -0.00262731 0.00254412
v -0.00696142 -0.00231828 0.00254412
v -0.00736627 -0.00203152 0.00192807
v -0.00753023 -0.00172248 0.00192807
v -0.00417807 -0.00330905 0.00457708
v -0.00461328 -0.00321198 0.00438279
v -0.00575294 -0.00286599 0.00378096
v -0.00525092 -0.00289582 0.00438753
v -0.00562338 -0.00278227 0.00417428
v -0.00616791 -0.00272617 0.00344924
v -0.00154451 -0.00283526 0.00670008
v 0.00216191 -0.00279652 0.00663374
v 0.00154451 -0.00257744 0.00700811
v -0.00216191 -0.00330237 0.00582340
v -0.00216191 -0.00342037 0.00551537
v -0.00525295 0.00033831 0.00501780
v -0.00513959 -0.00006556 0.00611247
v -0.00587034 0.00033742 0.00439701
v -0.00592095 0.00009518 0.00506519
v -0.00574686 -0.00006467 0.00552485
v -0.00447968 -0.00007536 0.00666217
v -0.00374285 -0.00019782 0.00719766
v -0.00199592 -0.00015017 0.00783267
v -0.00990469 0.00090873 -0.01750591
v -0.00154451 -0.00057319 0.00794166
v -0.00149188 -0.00116142 0.00784688
v -0.00092509 -0.00119125 0.00792271
v -0.00125099 -0.00150741 0.00779950
v -0.00092509 -0.00153992 0.00781371
v -0.00030769 -0.00157910 0.00784214
v -0.00154451 -0.00226841 0.00729718
v 0.00154451 -0.00226841 0.00729718
v 0.00149188 -0.00175143 0.00761468
v -0.01025083 0.00090873 -0.01846315
v -0.00804237 -0.00022809 0.00105613
v -0.00804237 -0.00037237 0.00105613
v -0.00802415 -0.00078426 0.00089027
v -0.00773468 -0.00119125 0.00192807
v -0.00785411 -0.00057319 0.00192807
v -0.00798569 -0.00057631 0.00127885
v -0.00264368 -0.00338653 0.00540638
v -0.00305663 -0.00334734 0.00530687
v -0.00339873 -0.00330148 0.00519313
v -0.00398981 -0.00319728 0.00498462
v -0.00652215 -0.00246612 0.00323599
v -0.00686830 -0.00220562 0.00302274
v -0.00746748 -0.00160270 0.00238300
v -0.00728530 -0.00180887 0.00257256
v -0.00463150 -0.00290339 0.00501780
v -0.00504445 -0.00280008 0.00481403
v -0.00545537 -0.00265358 0.00458656
v -0.00586022 -0.00242248 0.00438279
v -0.00606265 -0.00262909 0.00378096
v -0.00677923 -0.00209207 0.00343502
v -0.00636831 -0.00232006 0.00378096
v -0.00216191 -0.00279652 0.00663374
v -0.00216191 -0.00305390 0.00625463
v -0.00154451 -0.00257744 0.00700811
v -0.00282181 -0.00325205 0.00562437
v -0.00552622 -0.00057319 0.00591344
v -0.00521651 -0.00057319 0.00617881
v -0.00648774 0.00033920 0.00316491
v -0.00648774 0.00031026 0.00378096
v -0.00651406 0.00007337 0.00440649
v -0.00632580 -0.00006601 0.00488985
v -0.00613147 -0.00057319 0.00526895
v -0.00582379 -0.00057319 0.00560541
v -0.00484202 -0.00057319 0.00648684
v -0.00339873 -0.00057319 0.00733983
v -0.00277930 -0.00057319 0.00759572
v -0.00453231 -0.00057319 0.00669535
v -0.00404244 -0.00057319 0.00700811
v -0.00373273 -0.00057319 0.00719292
v -0.00231575 -0.00057319 0.00776158
v -0.01005651 0.00090873 -0.01784236
v -0.00710514 0.00033742 0.00192807
v -0.00191697 -0.00093566 0.00781371
v -0.00166191 -0.00134800 0.00775211
v -0.00221454 -0.00186631 0.00737300
v -0.00149188 -0.00175143 0.00761468
v -0.00204450 -0.00218781 0.00723083
v -0.00221454 -0.00240734 0.00698441
v -0.01017391 0.00090873 -0.01821673
v -0.00805856 -0.00017065 0.00069124
v -0.00764966 0.00003507 0.00192807
v -0.00710514 0.00030536 0.00254412
v -0.00747760 -0.00010609 0.00300379
v -0.00756060 0.00000301 0.00254412
v -0.00753833 -0.00121263 0.00257256
v -0.00767598 -0.00057319 0.00254412
v -0.00339873 -0.00307572 0.00563384
v -0.00397159 -0.00286153 0.00561963
v -0.00442300 -0.00278940 0.00540638
v -0.00739258 -0.00143260 0.00279528
v -0.00701000 -0.00185518 0.00320282
v -0.00483392 -0.00266383 0.00522630
v -0.00527319 -0.00245276 0.00504149
v -0.00568411 -0.00224169 0.00485194
v -0.00624281 -0.00219093 0.00418376
v -0.00669017 -0.00185518 0.00382361
v -0.00689664 -0.00168018 0.00364827
v -0.00251008 -0.00274843 0.00657688
v -0.00274084 -0.00289270 0.00627359
v -0.00543715 -0.00119125 0.00583288
v -0.00512744 -0.00119125 0.00610299
v -0.00574686 -0.00119125 0.00552485
v -0.00698773 0.00000835 0.00378096
v -0.00686830 -0.00010119 0.00420746
v -0.00638450 -0.00057319 0.00496093
v -0.00605657 -0.00119125 0.00518366
v -0.00473878 -0.00119125 0.00641102
v -0.00442907 -0.00119125 0.00662900
v -0.00370641 -0.00088311 0.00717871
v -0.00277930 -0.00119125 0.00747251
v -0.00213761 -0.00116142 0.00769050
v -0.00277930 -0.00168374 0.00727822
v -0.00245745 -0.00211078 0.00717397
v -0.00749380 -0.00057319 0.00304170
v -0.00736424 -0.00057319 0.00334973
v -0.00745736 -0.00102071 0.00295640
v -0.00339873 -0.00281923 0.00605560
v -0.00373475 -0.00274932 0.00596083
v -0.00414770 -0.00263577 0.00581866
v -0.00731161 -0.00121263 0.00316017
v -0.00464162 -0.00244385 0.00563858
v -0.00509100 -0.00225193 0.00545851
v -0.00609706 -0.00199856 0.00459604
v -0.00550193 -0.00204309 0.00526422
v -0.00636021 -0.00179907 0.00439227
v -0.00677721 -0.00144418 0.00405581
v -0.00698368 -0.00121975 0.00382361
v -0.00274084 -0.00244920 0.00676169
v -0.00292100 -0.00266961 0.00649157
v -0.00502218 -0.00160359 0.00600821
v -0.00564565 -0.00163120 0.00541586
v -0.00688652 -0.00057319 0.00423589
v -0.00669219 -0.00057319 0.00454865
v -0.00714562 -0.00057319 0.00378096
v -0.00631163 -0.00119125 0.00487089
v -0.00623066 -0.00158623 0.00477138
v -0.00434203 -0.00151899 0.00657214
v -0.00395540 -0.00112980 0.00694650
v -0.00355662 -0.00129501 0.00711236
v -0.00337039 -0.00112980 0.00724505
v -0.00314569 -0.00154615 0.00720240
v -0.00277930 -0.00199278 0.00710762
v -0.00372868 -0.00213438 0.00657688
v -0.00339873 -0.00223501 0.00665743
v -0.00339873 -0.00254404 0.00636836
v -0.00393920 -0.00238507 0.00620251
v -0.00444729 -0.00222343 0.00603665
v -0.00486024 -0.00201548 0.00587079
v -0.00587237 -0.00181466 0.00501780
v -0.00526104 -0.00182357 0.00564332
v -0.00664361 -0.00121975 0.00438753
v -0.00684603 -0.00103229 0.00416954
v -0.00460113 -0.00176746 0.00623094
v -0.00414163 -0.00193132 0.00644893
v -0.00396754 -0.00175855 0.00665743
v -0.00337039 -0.00177503 0.00697020
f 1 2 3
f 1 3 9
f 1 9 10
f 1 10 4
f 1 4 11
f 1 11 20
f 1 20 40
f 1 40 61
f 1 61 90
f 1 90 91
f 1 91 123
f 1 123 122
f 1 122 160
f 1 160 159
f 1 159 197
f 1 197 241
f 1 241 281
f 1 281 280
f 1 280 329
f 1 329 376
f 1 376 421
f 1 421 462
f 1 462 511
f 1 511 503
f 1 503 452
f 1 452 405
f 1 405 358
f 1 358 354
f 1 354 309
f 1 309 308
f 1 308 254
f 1 254 253
f 1 253 250
f 1 250 206
f 1 206 172
f 1 172 132
f 1 132 129
f 1 129 92
f 1 92 62
f 1 62 41
f 1 41 21
f 1 21 12
f 1 12 5
f 1 5 2
f 2 5 6
f 2 6 3
f 3 6 7
f 3 7 8
f 3 8 18
f 3 18 9
f 4 10 19
f 4 19 11
f 5 12 13
f 5 13 15
f 5 15 6
f 6 14 7
f 6 15 14
f 7 16 17
f 7 17 8
f 7 14 16
f 8 17 34
f 8 34 18
f 9 18 10
f 10 18 19
f 11 19 20
f 12 21 13
f 13 22 23
f 13 23 24
f 13 24 25
f 13 25 26
f 13 26 15
f 13 21 22
f 14 27 16
f 14 15 28
f 14 28 29
f 14 29 27
f 15 26 30
f 15 30 28
f 16 31 17
f 16 27 31
f 17 32 33
f 17 33 34
f 17 31 32
f 18 35 36
f 18 36 19
f 18 34 35
f 19 37 38
f 19 38 39
f 19 39 20
f 19 36 35
f 19 35 37
f 20 39 40
f 21 41 42
f 21 42 23
f 21 23 22
f 23 42 24
f 24 42 43
f 24 43 25
f 25 44 45
f 25 45 46
f 25 46 26
f 25 43 47
f 25 47 44
f 26 48 29
f 26 29 30
f 26 46 48
f 27 49 31
f 27 29 50
f 27 50 51
f 27 51 49
f 28 30 29
f 29 48 52
f 29 52 50
f 31 53 54
f 31 54 32
f 31 49 53
f 32 54 33
f 33 54 55
f 33 55 35
f 33 35 34
f 35 55 37
f 37 55 38
f 38 56 57
f 38 57 39
f 38 55 58
f 38 58 59
f 38 59 56
f 39 57 60
f 39 60 61
f 39 61 40
f 41 62 63
f 41 63 42
f 42 63 64
f 42 64 43
f 43 64 65
f 43 65 47
f 44 66 45
f 44 47 67
f 44 67 68
f 44 68 66
f 45 66 46
f 46 66 69
f 46 69 48
f 47 70 67
f 47 65 71
f 47 71 72
f 47 72 73
f 47 73 70
f 48 69 74
f 48 74 52
f 49 51 75
f 49 75 53
f 50 52 76
f 50 76 51
f 51 76 77
f 51 77 75
f 52 78 76
f 52 74 78
f 53 75 79
f 53 79 80
f 53 80 81
f 53 81 54
f 54 81 82
f 54 82 55
f 55 82 83
f 55 83 59
f 55 59 58
f 56 84 85
f 56 85 86
f 56 86 57
f 56 59 84
f 57 86 87
f 57 87 60
f 59 83 88
f 59 88 89
f 59 89 84
f 60 90 61
f 60 87 91
f 60 91 90
f 62 92 63
f 63 93 64
f 63 92 93
f 64 94 95
f 64 95 65
f 64 93 94
f 65 95 71
f 66 96 69
f 66 68 97
f 66 97 96
f 67 70 98
f 67 98 68
f 68 98 99
f 68 99 100
f 68 100 97
f 69 96 74
f 70 73 98
f 71 95 101
f 71 101 102
f 71 102 72
f 72 103 73
f 72 102 104
f 72 104 103
f 73 103 98
f 74 96 105
f 74 105 78
f 75 77 106
f 75 106 107
f 75 107 79
f 76 78 108
f 76 108 77
f 77 108 106
f 78 105 109
f 78 109 108
f 79 107 110
f 79 110 80
f 80 111 88
f 80 88 81
f 80 110 112
f 80 112 111
f 81 88 83
f 81 83 82
f 84 113 85
f 84 89 114
f 84 114 115
f 84 115 116
f 84 116 117
f 84 117 113
f 85 118 119
f 85 119 120
f 85 120 86
f 85 113 121
f 85 121 118
f 86 120 87
f 87 120 122
f 87 122 123
f 87 123 91
f 88 111 124
f 88 124 125
f 88 125 126
f 88 126 89
f 89 127 114
f 89 126 128
f 89 128 127
f 92 129 94
f 92 94 93
f 94 130 131
f 94 131 95
f 94 129 132
f 94 132 130
f 95 131 101
f 96 97 100
f 96 100 133
f 96 133 105
f 98 103 134
f 98 134 99
f 99 135 100
f 99 134 136
f 99 136 137
f 99 137 135
f 100 138 133
f 100 135 138
f 101 139 102
f 101 131 140
f 101 140 141
f 101 141 139
f 102 139 142
f 102 142 104
f 103 136 134
f 103 104 136
f 104 142 143
f 104 143 136
f 105 133 138
f 105 138 109
f 106 108 144
f 106 144 145
f 106 145 146
f 106 146 107
f 107 146 110
f 108 109 144
f 109 138 147
f 109 147 144
f 110 146 148
f 110 148 149
f 110 149 150
f 110 150 112
f 111 112 124
f 112 150 151
f 112 151 124
f 113 152 153
f 113 153 121
f 113 117 152
f 114 127 115
f 115 127 154
f 115 154 116
f 116 154 117
f 117 154 155
f 117 155 153
f 117 153 152
f 118 156 119
f 118 121 157
f 118 157 156
f 119 158 159
f 119 159 120
f 119 156 158
f 120 159 160
f 120 160 122
f 121 153 157
f 124 151 161
f 124 161 162
f 124 162 125
f 125 163 126
f 125 162 164
f 125 164 165
f 125 165 163
f 126 163 128
f 127 128 166
f 127 166 192
f 127 192 154
f 128 163 167
f 128 167 168
f 128 168 166
f 130 169 131
f 130 132 169
f 131 170 171
f 131 171 140
f 131 169 170
f 132 172 173
f 132 173 170
f 132 170 169
f 135 137 174
f 135 174 138
f 136 143 175
f 136 175 176
f 136 176 137
f 137 176 174
f 138 174 177
f 138 177 178
f 138 178 147
f 139 141 142
f 140 179 141
f 140 171 180
f 140 180 179
f 141 179 181
f 141 181 182
f 141 182 142
f 142 182 143
f 143 183 175
f 143 182 184
f 143 184 185
f 143 185 183
f 144 147 178
f 144 178 145
f 145 178 186
f 145 186 146
f 146 186 148
f 148 186 149
f 149 151 150
f 149 186 187
f 149 187 188
f 149 188 189
f 149 189 151
f 151 189 161
f 153 190 157
f 153 155 191
f 153 191 190
f 154 192 193
f 154 193 155
f 155 194 191
f 155 193 195
f 155 195 194
f 156 196 158
f 156 157 196
f 157 190 196
f 158 197 159
f 158 196 198
f 158 198 197
f 161 164 162
f 161 189 188
f 161 188 199
f 161 199 200
f 161 200 164
f 163 165 167
f 164 201 165
f 164 200 202
f 164 202 201
f 165 201 167
f 166 168 203
f 166 203 244
f 166 244 246
f 166 246 302
f 166 302 335
f 166 335 287
f 166 287 233
f 166 233 192
f 167 201 203
f 167 203 168
f 170 173 204
f 170 204 171
f 171 204 205
f 171 205 180
f 172 206 173
f 173 207 208
f 173 208 209
f 173 209 210
f 173 210 204
f 173 206 207
f 174 176 211
f 174 211 212
f 174 212 213
f 174 213 177
f 175 183 176
f 176 183 211
f 177 213 178
f 178 213 214
f 178 214 215
f 178 215 186
f 179 180 216
f 179 216 181
f 180 205 217
f 180 217 218
f 180 218 216
f 181 184 182
f 181 216 219
f 181 219 184
f 183 185 220
f 183 220 221
f 183 221 211
f 184 220 185
f 184 219 222
f 184 222 223
f 184 223 220
f 186 215 187
f 187 215 224
f 187 224 188
f 188 224 225
f 188 225 226
f 188 226 199
f 190 191 227
f 190 227 228
f 190 228 229
f 190 229 196
f 191 194 230
f 191 230 231
f 191 231 232
f 191 232 227
f 192 233 193
f 193 233 234
f 193 234 235
f 193 235 195
f 194 236 230
f 194 195 237
f 194 237 238
f 194 238 239
f 194 239 240
f 194 240 236
f 195 235 237
f 196 229 198
f 197 198 241
f 198 229 241
f 199 226 200
f 200 226 242
f 200 242 243
f 200 243 202
f 201 244 203
f 201 202 245
f 201 245 246
f 201 246 244
f 202 243 247
f 202 247 248
f 202 248 245
f 204 210 249
f 204 249 217
f 204 217 205
f 206 250 207
f 207 250 208
f 208 251 307
f 208 307 252
f 208 252 209
f 208 250 253
f 208 253 254
f 208 254 308
f 208 308 251
f 209 252 255
f 209 255 210
f 210 255 256
f 210 256 249
f 211 257 212
f 211 221 258
f 211 258 257
f 212 214 213
f 212 257 214
f 214 257 259
f 214 259 260
f 214 260 224
f 214 224 215
f 216 218 261
f 216 261 262
f 216 262 219
f 217 249 263
f 217 263 218
f 218 263 264
f 218 264 265
f 218 265 266
f 218 266 267
f 218 267 261
f 219 262 222
f 220 223 268
f 220 268 221
f 221 269 270
f 221 270 258
f 221 268 269
f 222 271 223
f 222 262 272
f 222 272 273
f 222 273 274
f 222 274 271
f 223 271 268
f 224 260 275
f 224 275 225
f 225 275 226
f 226 275 276
f 226 276 277
f 226 277 242
f 227 232 231
f 227 231 278
f 227 278 228
f 228 279 329
f 228 329 280
f 228 280 281
f 228 281 229
f 228 278 282
f 228 282 283
f 228 283 279
f 229 281 241
f 230 284 231
f 230 236 284
f 231 285 278
f 231 284 286
f 231 286 285
f 233 287 234
f 234 287 288
f 234 288 289
f 234 289 235
f 235 289 237
f 236 240 290
f 236 290 286
f 236 286 284
f 237 289 291
f 237 291 292
f 237 292 238
f 238 292 293
f 238 293 294
f 238 294 295
f 238 295 239
f 239 295 240
f 240 295 296
f 240 296 297
f 240 297 290
f 242 277 243
f 243 277 298
f 243 298 299
f 243 299 300
f 243 300 247
f 245 248 301
f 245 301 246
f 246 301 352
f 246 352 302
f 247 300 303
f 247 303 248
f 248 303 301
f 249 256 263
f 251 304 305
f 251 305 306
f 251 306 307
f 251 308 309
f 251 309 304
f 252 307 360
f 252 360 310
f 252 310 255
f 255 310 311
f 255 311 256
f 256 311 263
f 257 258 270
f 257 270 259
f 259 312 275
f 259 275 260
f 259 270 313
f 259 313 312
f 261 267 314
f 261 314 262
f 262 314 272
f 263 311 315
f 263 315 316
f 263 316 317
f 263 317 264
f 264 317 318
f 264 318 314
f 264 314 265
f 265 314 266
f 266 314 267
f 268 319 269
f 268 271 320
f 268 320 321
f 268 321 319
f 269 319 270
f 270 319 313
f 271 274 320
f 272 314 273
f 273 322 274
f 273 314 323
f 273 323 324
f 273 324 322
f 274 322 320
f 275 312 276
f 276 312 325
f 276 325 277
f 277 325 326
f 277 326 327
f 277 327 298
f 278 285 328
f 278 328 283
f 278 283 282
f 279 283 330
f 279 330 377
f 279 377 376
f 279 376 329
f 283 328 333
f 283 333 331
f 283 331 377
f 283 377 330
f 285 286 332
f 285 332 333
f 285 333 328
f 286 290 334
f 286 334 332
f 287 335 288
f 288 291 289
f 288 335 302
f 288 302 336
f 288 336 337
f 288 337 291
f 290 338 334
f 290 297 339
f 290 339 338
f 291 337 340
f 291 340 293
f 291 293 292
f 293 341 294
f 293 340 342
f 293 342 343
f 293 343 341
f 294 341 344
f 294 344 345
f 294 345 295
f 295 345 296
f 296 345 344
f 296 344 346
f 296 346 347
f 296 347 348
f 296 348 297
f 297 348 339
f 298 327 299
f 299 327 349
f 299 349 350
f 299 350 300
f 300 350 351
f 300 351 303
f 301 303 353
f 301 353 352
f 302 352 336
f 303 351 396
f 303 396 353
f 304 309 354
f 304 354 305
f 305 355 356
f 305 356 357
f 305 357 306
f 305 354 358
f 305 358 355
f 306 357 359
f 306 359 307
f 307 359 360
f 310 360 407
f 310 407 361
f 310 361 362
f 310 362 311
f 311 362 363
f 311 363 315
f 312 313 325
f 313 319 364
f 313 364 365
f 313 365 325
f 314 318 323
f 315 363 366
f 315 366 316
f 316 366 317
f 317 366 318
f 318 367 324
f 318 324 323
f 318 366 368
f 318 368 367
f 319 321 364
f 320 322 369
f 320 369 370
f 320 370 371
f 320 371 372
f 320 372 321
f 321 372 364
f 322 324 369
f 324 367 369
f 325 365 373
f 325 373 326
f 326 373 327
f 327 373 374
f 327 374 375
f 327 375 349
f 331 333 378
f 331 378 377
f 332 334 333
f 333 334 379
f 333 379 378
f 334 338 380
f 334 380 379
f 336 352 381
f 336 381 337
f 337 381 382
f 337 382 383
f 337 383 340
f 338 339 384
f 338 384 380
f 339 348 385
f 339 385 386
f 339 386 387
f 339 387 384
f 340 383 388
f 340 388 389
f 340 389 342
f 341 343 344
f 342 389 343
f 343 389 390
f 343 390 391
f 343 391 392
f 343 392 344
f 344 392 393
f 344 393 346
f 346 393 347
f 347 393 394
f 347 394 385
f 347 385 348
f 349 375 350
f 350 375 351
f 351 375 395
f 351 395 439
f 351 439 396
f 352 353 381
f 353 396 397
f 353 397 382
f 353 382 381
f 355 398 399
f 355 399 400
f 355 400 356
f 355 358 398
f 356 401 402
f 356 402 403
f 356 403 357
f 356 400 401
f 357 403 404
f 357 404 359
f 358 405 398
f 359 404 406
f 359 406 360
f 360 406 455
f 360 455 407
f 361 407 408
f 361 408 409
f 361 409 362
f 362 409 410
f 362 410 363
f 363 410 411
f 363 411 366
f 364 372 412
f 364 412 413
f 364 413 373
f 364 373 365
f 366 411 368
f 367 368 414
f 367 414 370
f 367 370 369
f 368 411 414
f 370 415 416
f 370 416 417
f 370 417 371
f 370 414 418
f 370 418 415
f 371 417 412
f 371 412 372
f 373 413 419
f 373 419 374
f 374 419 420
f 374 420 375
f 375 420 395
f 376 377 422
f 376 422 421
f 377 378 422
f 378 379 423
f 378 423 422
f 379 380 423
f 380 384 424
f 380 424 425
f 380 425 423
f 382 397 383
f 383 397 426
f 383 426 427
f 383 427 428
f 383 428 388
f 384 387 424
f 385 394 429
f 385 429 430
f 385 430 386
f 386 430 387
f 387 430 431
f 387 431 432
f 387 432 424
f 388 428 389
f 389 428 433
f 389 433 434
f 389 434 390
f 390 434 391
f 391 435 392
f 391 434 436
f 391 436 437
f 391 437 435
f 392 435 393
f 393 435 438
f 393 438 394
f 394 438 429
f 395 420 440
f 395 440 441
f 395 441 486
f 395 486 439
f 396 439 442
f 396 442 443
f 396 443 397
f 397 443 426
f 398 444 399
f 398 405 444
f 399 445 400
f 399 444 446
f 399 446 447
f 399 447 448
f 399 448 445
f 400 445 449
f 400 449 401
f 401 449 402
f 402 450 451
f 402 451 403
f 402 449 450
f 403 451 404
f 404 451 406
f 405 452 446
f 405 446 444
f 406 451 453
f 406 453 454
f 406 454 455
f 407 455 456
f 407 456 457
f 407 457 458
f 407 458 408
f 408 458 459
f 408 459 460
f 408 460 409
f 409 460 410
f 410 460 461
f 410 461 414
f 410 414 411
f 412 417 416
f 412 416 419
f 412 419 413
f 414 461 418
f 415 418 460
f 415 460 441
f 415 441 440
f 415 440 416
f 416 440 420
f 416 420 419
f 418 461 460
f 421 422 464
f 421 464 463
f 421 463 462
f 422 423 464
f 423 425 465
f 423 465 464
f 424 432 425
f 425 432 466
f 425 466 467
f 425 467 468
f 425 468 465
f 426 443 469
f 426 469 470
f 426 470 427
f 427 470 428
f 428 470 471
f 428 471 472
f 428 472 433
f 429 438 473
f 429 473 474
f 429 474 430
f 430 474 431
f 431 475 432
f 431 474 476
f 431 476 475
f 432 475 466
f 433 472 477
f 433 477 434
f 434 477 478
f 434 478 436
f 435 437 438
f 436 478 437
f 437 478 479
f 437 479 480
f 437 480 481
f 437 481 438
f 438 482 473
f 438 481 483
f 438 483 482
f 439 484 485
f 439 485 442
f 439 486 484
f 441 460 459
f 441 459 486
f 442 485 487
f 442 487 470
f 442 470 469
f 442 469 443
f 445 448 488
f 445 488 489
f 445 489 449
f 446 490 491
f 446 491 447
f 446 452 490
f 447 491 492
f 447 492 493
f 447 493 448
f 448 493 494
f 448 494 495
f 448 495 488
f 449 496 450
f 449 489 496
f 450 497 498
f 450 498 451
f 450 496 499
f 450 499 500
f 450 500 501
f 450 501 497
f 451 502 453
f 451 498 502
f 452 503 504
f 452 504 490
f 453 502 505
f 453 505 454
f 454 505 506
f 454 506 456
f 454 456 455
f 456 506 507
f 456 507 508
f 456 508 459
f 456 459 457
f 457 459 458
f 459 508 509
f 459 509 510
f 459 510 486
f 462 463 512
f 462 512 513
f 462 513 514
f 462 514 511
f 463 464 467
f 463 467 515
f 463 515 516
f 463 516 513
f 463 513 512
f 464 465 468
f 464 468 467
f 466 475 517
f 466 517 518
f 466 518 467
f 467 518 515
f 470 487 519
f 470 519 471
f 471 519 472
f 472 519 520
f 472 520 521
f 472 521 477
f 473 482 474
f 474 482 476
f 475 476 522
f 475 522 517
f 476 482 523
f 476 523 522
f 477 521 478
f 478 521 524
f 478 524 479
f 479 524 525
f 479 525 526
f 479 526 480
f 480 527 481
f 480 526 527
f 481 527 483
f 482 483 527
f 482 527 528
f 482 528 529
f 482 529 523
f 484 486 510
f 484 510 530
f 484 530 485
f 485 531 487
f 485 530 531
f 487 531 519
f 488 532 533
f 488 533 489
f 488 495 534
f 488 534 532
f 489 533 496
f 490 504 491
f 491 504 514
f 491 514 535
f 491 535 492
f 492 535 536
f 492 536 493
f 493 536 537
f 493 537 494
f 494 538 534
f 494 534 495
f 494 537 538
f 496 539 540
f 496 540 499
f 496 533 539
f 497 501 541
f 497 541 498
f 498 542 502
f 498 541 542
f 499 540 541
f 499 541 500
f 500 541 501
f 502 542 505
f 503 511 514
f 503 514 504
f 505 542 543
f 505 543 506
f 506 543 507
f 507 544 545
f 507 545 509
f 507 509 508
f 507 543 544
f 509 545 510
f 510 545 530
f 513 516 514
f 514 516 535
f 515 546 547
f 515 547 536
f 515 536 535
f 515 535 516
f 515 518 546
f 517 522 548
f 517 548 518
f 518 548 546
f 519 531 549
f 519 549 550
f 519 550 520
f 520 550 521
f 521 550 551
f 521 551 524
f 522 552 548
f 522 523 529
f 522 529 552
f 524 551 553
f 524 553 554
f 524 554 525
f 525 554 526
f 526 555 527
f 526 554 556
f 526 556 555
f 527 555 557
f 527 557 528
f 528 557 558
f 528 558 529
f 529 558 559
f 529 559 552
f 530 545 560
f 530 560 561
f 530 561 531
f 531 561 549
f 532 562 533
f 532 534 563
f 532 563 562
f 533 562 539
f 534 538 563
f 536 564 565
f 536 565 537
f 536 547 566
f 536 566 564
f 537 565 567
f 537 567 538
f 538 567 568
f 538 568 563
f 539 569 540
f 539 562 569
f 540 569 570
f 540 570 541
f 541 570 571
f 541 571 572
f 541 572 542
f 542 572 573
f 542 573 544
f 542 544 543
f 544 573 574
f 544 574 545
f 545 574 575
f 545 575 576
f 545 576 560
f 546 548 547
f 547 548 559
f 547 559 566
f 548 552 559
f 549 561 550
f 550 561 577
f 550 577 578
f 550 578 551
f 551 578 579
f 551 579 553
f 553 579 554
f 554 579 580
f 554 580 556
f 555 556 581
f 555 581 568
f 555 568 557
f 556 580 582
f 556 582 563
f 556 563 581
f 557 568 558
f 558 568 583
f 558 583 584
f 558 584 559
f 559 584 566
f 560 576 561
f 561 576 577
f 562 563 582
f 562 582 580
f 562 580 585
f 562 585 569
f 563 568 581
f 564 584 565
f 564 566 584
f 565 584 567
f 567 584 583
f 567 583 568
f 569 585 586
f 569 586 587
f 569 587 571
f 569 571 570
f 571 587 588
f 571 588 573
f 571 573 572
f 573 588 574
f 574 588 575
f 575 588 587
f 575 587 586
f 575 586 579
f 575 579 578
f 575 578 577
f 575 577 576
f 579 586 585
f 579 585 580

