# https://github.com/mikedh/trimesh
v 0.01033990 0.00189903 -0.01970438
v 0.01032775 0.01644125 -0.01908308
v 0.01033990 0.00091069 -0.01970438
v 0.01033990 0.01644125 -0.02155648
v 0.01025083 0.01644125 -0.01846571
v 0.01032775 0.01055077 -0.01908308
v 0.01033180 0.00091069 -0.01933081
v 0.01033990 0.00091069 -0.03823721
v 0.01033990 0.01644125 -0.05245241
v 0.01015974 0.01644125 -0.01817865
v 0.01005650 0.00499024 -0.01784834
v 0.01025083 0.00091069 -0.01846571
v 0.01028120 0.00091069 -0.01871344
v 0.01032573 0.00091069 -0.01908308
v 0.01033180 0.00091069 -0.03885851
v 0.01033990 0.00375406 -0.05245241
v 0.01021642 0.01644125 -0.05306978
v 0.01005448 0.01644125 -0.01784834
v 0.00998566 0.01644125 -0.01769105
v 0.00996541 0.00091069 -0.01764386
v 0.01005650 0.00091069 -0.01784834
v 0.01027917 0.00091069 -0.03910232
v 0.00995529 0.00277789 -0.05290855
v 0.00998970 0.00275204 -0.05245241
v 0.01021642 0.00313521 -0.05245241
v 0.01021642 0.00375406 -0.05306978
v 0.01009699 0.01644125 -0.05329391
v 0.00990469 0.01644125 -0.01751017
v 0.00990469 0.00091069 -0.01751017
v 0.01019820 0.00091069 -0.03947588
v 0.00960712 0.00273075 -0.05309730
v 0.00942089 0.00277181 -0.05352985
v 0.00983181 0.00288584 -0.05332144
v 0.01006055 0.00310936 -0.05309730
v 0.01011116 0.00091069 -0.03963711
v 0.00997756 0.00091069 -0.03988091
v 0.00995529 0.00329790 -0.05345121
v 0.00999173 0.00375406 -0.05348660
v 0.00999173 0.01644125 -0.05348660
v 0.00968404 0.01644125 -0.01720345
v 0.00799176 0.00094262 -0.01447838
v 0.00800593 0.00091069 -0.01450984
v 0.00896745 0.00274292 -0.05371860
v 0.00876705 0.00279918 -0.05403318
v 0.00917798 0.00288584 -0.05394274
v 0.00958688 0.00309111 -0.05369501
v 0.00981967 0.00091069 -0.03998708
v 0.00933992 0.00329790 -0.05406071
v 0.00968404 0.00375406 -0.05379331
v 0.00982776 0.01644125 -0.05365175
v 0.00937433 0.01644125 -0.01682988
v 0.00793104 0.00091069 -0.01439973
v 0.00834196 0.00270186 -0.05368714
v 0.00957878 0.00091069 -0.04014437
v 0.00834196 0.00278397 -0.05404891
v 0.00834196 0.00313521 -0.05421800
v 0.00896745 0.00310936 -0.05412363
v 0.00895936 0.00375406 -0.05426125
v 0.00937433 0.00375406 -0.05409217
v 0.00951805 0.01644125 -0.05395454
v 0.00968404 0.01644125 -0.05379331
v 0.00895936 0.01644125 -0.01670012
v 0.00766991 0.00091069 -0.01428569
v 0.00776100 0.00091069 -0.01432109
v -0.00834196 0.00270186 -0.05368714
v 0.00933182 0.00091069 -0.04021515
v 0.00895936 0.00091069 -0.04032132
v -0.00834196 0.00278397 -0.05404891
v -0.00834196 0.00313521 -0.05421800
v 0.00834196 0.00375406 -0.05433990
v 0.00862940 0.01644125 -0.05430451
v 0.00895936 0.01644125 -0.05426125
v 0.00915369 0.01644125 -0.05418261
v 0.00937433 0.01644125 -0.05409217
v 0.00867191 0.01644125 -0.01668045
v 0.00710514 0.00091069 -0.01417559
v 0.00729137 0.00091069 -0.01419525
v -0.00896745 0.00274292 -0.05371860
v -0.00876705 0.00279918 -0.05403318
v -0.00895936 0.00091069 -0.04022695
v -0.00957878 0.00091069 -0.04009325
v -0.00896745 0.00310936 -0.05412363
v -0.00895936 0.00375406 -0.05426125
v -0.00834196 0.00375406 -0.05433990
v 0.00834196 0.01644125 -0.05433990
v 0.00834196 0.01644125 -0.01666079
v 0.00648774 0.00091069 -0.01416773
v -0.00960712 0.00273075 -0.05309730
v -0.00942089 0.00277181 -0.05352985
v -0.00997553 0.00091069 -0.03987697
v -0.00917798 0.00288584 -0.05394274
v -0.00933992 0.00329790 -0.05406071
v -0.00937433 0.00375406 -0.05409217
v -0.00918203 0.01644125 -0.05417082
v -0.00895936 0.01644125 -0.05426125
v -0.00834196 0.01644125 -0.05433990
v -0.00834196 0.01644125 -0.01666079
v -0.00648774 0.00091069 -0.01416773
v -0.00995529 0.00277789 -0.05290855
v -0.00983181 0.00288584 -0.05332144
v -0.01006460 0.00091069 -0.03971575
v -0.00958688 0.00309111 -0.05369501
v -0.00995529 0.00329790 -0.05345121
v -0.00968404 0.00375406 -0.05379331
v -0.00953830 0.01644125 -0.05393488
v -0.00937433 0.01644125 -0.05409217
v -0.00895936 0.01644125 -0.01670012
v -0.00710514 0.00091069 -0.01417559
v -0.00688854 0.00091069 -0.01417166
v -0.00998970 0.00275204 -0.05245241
v -0.01021642 0.00313521 -0.05245241
v -0.01006055 0.00310936 -0.05309730
v -0.01019618 0.00091069 -0.03947588
v -0.01033383 0.00091069 -0.03885851
v -0.01021642 0.00375406 -0.05306978
v -0.00999173 0.00375406 -0.05348660
v -0.00968404 0.01644125 -0.05379331
v -0.00915369 0.01644125 -0.01675910
v -0.00766991 0.00091069 -0.01428569
v -0.01033788 0.00375406 -0.05245241
v -0.01033990 0.00091069 -0.03823721
v -0.01021642 0.01644125 -0.05306978
v -0.00999173 0.01644125 -0.05348660
v -0.00937433 0.01644125 -0.01682988
v -0.00793104 0.00091069 -0.01439973
v -0.01033788 0.01644125 -0.05245241
v -0.01033990 0.00091069 -0.01970438
v -0.01033990 0.00313521 -0.03823721
v -0.00952008 0.01644125 -0.01700290
v -0.00799986 0.00091069 -0.01445085
v -0.01033788 0.01644125 -0.02155648
v -0.01032573 0.00091069 -0.01908308
v -0.01032776 0.01055077 -0.01908308
v -0.01033990 0.00189903 -0.01970438
v -0.01033990 0.00313521 -0.02155648
v -0.00968404 0.01644125 -0.01720345
v -0.00978728 0.01644125 -0.01734501
v -0.00990469 0.01644125 -0.01751017
v -0.00990469 0.00091069 -0.01751017
v -0.01032776 0.01644125 -0.01908308
v -0.01025083 0.00091069 -0.01846571
v -0.00997553 0.01644125 -0.01766746
v -0.01005651 0.00091069 -0.01784834
v -0.01025083 0.01644125 -0.01846571
v -0.01005448 0.01644125 -0.01784834
v -0.01005651 0.00499024 -0.01784834
f 1 2 6
f 1 6 3
f 1 3 8
f 1 8 16
f 1 16 9
f 1 9 4
f 1 4 2
f 2 5 12
f 2 12 6
f 2 4 9
f 2 9 17
f 2 17 27
f 2 27 39
f 2 39 50
f 2 50 61
f 2 61 60
f 2 60 74
f 2 74 73
f 2 73 72
f 2 72 71
f 2 71 85
f 2 85 96
f 2 96 95
f 2 95 94
f 2 94 106
f 2 106 105
f 2 105 117
f 2 117 123
f 2 123 122
f 2 122 126
f 2 126 131
f 2 131 140
f 2 140 144
f 2 144 145
f 2 145 142
f 2 142 138
f 2 138 137
f 2 137 136
f 2 136 129
f 2 129 124
f 2 124 118
f 2 118 107
f 2 107 97
f 2 97 86
f 2 86 75
f 2 75 62
f 2 62 51
f 2 51 40
f 2 40 28
f 2 28 19
f 2 19 18
f 2 18 10
f 2 10 5
f 3 6 7
f 3 7 14
f 3 14 13
f 3 13 12
f 3 12 21
f 3 21 20
f 3 20 29
f 3 29 42
f 3 42 52
f 3 52 64
f 3 64 63
f 3 63 77
f 3 77 76
f 3 76 87
f 3 87 98
f 3 98 109
f 3 109 108
f 3 108 119
f 3 119 125
f 3 125 130
f 3 130 139
f 3 139 143
f 3 143 141
f 3 141 132
f 3 132 127
f 3 127 121
f 3 121 114
f 3 114 113
f 3 113 101
f 3 101 90
f 3 90 81
f 3 81 80
f 3 80 67
f 3 67 66
f 3 66 54
f 3 54 47
f 3 47 36
f 3 36 35
f 3 35 30
f 3 30 22
f 3 22 15
f 3 15 8
f 5 10 11
f 5 11 21
f 5 21 12
f 6 12 13
f 6 13 14
f 6 14 7
f 8 15 16
f 9 16 26
f 9 26 17
f 10 18 11
f 11 19 20
f 11 20 21
f 11 18 19
f 15 22 23
f 15 23 24
f 15 24 25
f 15 25 16
f 16 25 26
f 17 26 27
f 19 28 20
f 20 28 29
f 22 30 23
f 23 31 32
f 23 32 33
f 23 33 34
f 23 34 25
f 23 25 24
f 23 30 35
f 23 35 36
f 23 36 31
f 25 34 26
f 26 34 37
f 26 37 38
f 26 38 27
f 27 38 39
f 28 40 41
f 28 41 29
f 29 41 42
f 31 43 32
f 31 36 43
f 32 43 44
f 32 44 45
f 32 45 33
f 33 45 46
f 33 46 37
f 33 37 34
f 36 47 43
f 37 46 48
f 37 48 49
f 37 49 38
f 38 49 50
f 38 50 39
f 40 51 52
f 40 52 41
f 41 52 42
f 43 53 44
f 43 47 54
f 43 54 53
f 44 55 56
f 44 56 57
f 44 57 45
f 44 53 55
f 45 57 48
f 45 48 46
f 48 57 58
f 48 58 59
f 48 59 49
f 49 59 60
f 49 60 61
f 49 61 50
f 51 62 63
f 51 63 64
f 51 64 52
f 53 65 68
f 53 68 55
f 53 54 66
f 53 66 67
f 53 67 65
f 55 68 69
f 55 69 56
f 56 69 84
f 56 84 70
f 56 70 58
f 56 58 57
f 58 70 71
f 58 71 72
f 58 72 73
f 58 73 59
f 59 73 74
f 59 74 60
f 62 75 76
f 62 76 77
f 62 77 63
f 65 78 79
f 65 79 68
f 65 67 80
f 65 80 81
f 65 81 78
f 68 79 69
f 69 79 82
f 69 82 83
f 69 83 84
f 70 85 71
f 70 84 96
f 70 96 85
f 75 86 76
f 76 86 87
f 78 88 89
f 78 89 79
f 78 81 90
f 78 90 88
f 79 91 82
f 79 89 91
f 82 91 92
f 82 92 83
f 83 92 93
f 83 93 94
f 83 94 95
f 83 95 96
f 83 96 84
f 86 97 98
f 86 98 87
f 88 99 89
f 88 90 99
f 89 99 100
f 89 100 91
f 90 101 99
f 91 100 102
f 91 102 92
f 92 102 103
f 92 103 104
f 92 104 93
f 93 104 105
f 93 105 106
f 93 106 94
f 97 107 108
f 97 108 109
f 97 109 98
f 99 110 111
f 99 111 112
f 99 112 100
f 99 101 113
f 99 113 114
f 99 114 110
f 100 112 103
f 100 103 102
f 103 112 115
f 103 115 116
f 103 116 104
f 104 117 105
f 104 116 123
f 104 123 117
f 107 118 119
f 107 119 108
f 110 114 111
f 111 120 115
f 111 115 112
f 111 114 120
f 114 121 120
f 115 120 126
f 115 126 122
f 115 122 123
f 115 123 116
f 118 124 119
f 119 124 125
f 120 121 128
f 120 128 126
f 121 127 134
f 121 134 135
f 121 135 128
f 124 129 130
f 124 130 125
f 126 128 135
f 126 135 131
f 127 132 133
f 127 133 140
f 127 140 134
f 129 136 130
f 130 136 137
f 130 137 138
f 130 138 139
f 131 135 134
f 131 134 140
f 132 141 133
f 133 141 144
f 133 144 140
f 138 142 139
f 139 142 143
f 141 143 146
f 141 146 144
f 142 145 146
f 142 146 143
f 144 146 145

