# https://github.com/mikedh/trimesh
v -0.01033990 0.00494278 -0.05245372
v -0.01021642 0.00494278 -0.05307214
v -0.01033990 0.00494278 -0.03854697
v -0.01033990 0.02538278 -0.05245372
v -0.01020023 0.00494278 -0.05310306
v -0.01021642 0.02538278 -0.05307214
v 0.01033990 0.00494278 -0.03854697
v -0.01033990 0.01611198 -0.03854697
v -0.01033990 0.02538278 -0.04133141
v -0.01012735 0.02600013 -0.05245372
v -0.01002412 0.02599802 -0.05302267
v -0.00999173 0.00494278 -0.05348648
v -0.00999173 0.02538278 -0.05348648
v -0.00995529 0.02579153 -0.05345092
v 0.01033990 0.00494278 -0.05245372
v 0.01033990 0.01611198 -0.03854697
v -0.01023464 0.01796614 -0.03854697
v -0.01011318 0.02538278 -0.04071763
v -0.01000590 0.02600013 -0.04086141
v -0.01012735 0.02600013 -0.04133141
v -0.00990064 0.02631828 -0.05245372
v -0.00989659 0.02631407 -0.05278457
v -0.00968404 0.00494278 -0.05379569
v -0.00968404 0.02538278 -0.05379569
v -0.00971441 0.02620451 -0.05319582
v -0.00952615 0.02599802 -0.05363954
v -0.00933992 0.02579153 -0.05406316
v 0.01022654 0.00494278 -0.05302576
v 0.01033990 0.02538278 -0.05245372
v 0.01033990 0.02538278 -0.04133141
v 0.01023464 0.01796614 -0.03854697
v -0.01006055 0.01854556 -0.03854697
v -0.00991885 0.02201368 -0.03914993
v -0.00625900 0.02585053 -0.03854697
v -0.00609301 0.02600434 -0.03854697
v -0.00592095 0.02616026 -0.03854697
v -0.00989659 0.02631407 -0.04100983
v -0.00990064 0.02631828 -0.04133141
v -0.00957878 0.02633303 -0.05245372
v -0.00953627 0.02632460 -0.05302267
v -0.00930146 0.02631828 -0.05341382
v -0.00937433 0.00494278 -0.05409408
v -0.00937433 0.02538278 -0.05409408
v -0.00895936 0.02621715 -0.05379415
v -0.00895936 0.02590953 -0.05413118
v -0.00895936 0.02538278 -0.05426415
v 0.01021642 0.00494278 -0.05307214
v 0.01021642 0.02538278 -0.05307214
v 0.01002412 0.02599802 -0.05302267
v 0.01012735 0.02600013 -0.05245372
v 0.01012735 0.02600013 -0.04133141
v 0.01000590 0.02600013 -0.04086141
v 0.01011318 0.02538278 -0.04071763
v 0.00991886 0.02201368 -0.03914993
v 0.01014962 0.01828008 -0.03854697
v -0.00818812 0.02243719 -0.03854697
v -0.00561326 0.02632460 -0.03854697
v -0.00525294 0.02633935 -0.03854697
v -0.00957878 0.02633303 -0.04133141
v -0.00389872 0.02646788 -0.04442197
v -0.00387038 0.02646788 -0.04504039
v -0.00379750 0.02646788 -0.04566190
v -0.00895936 0.02633935 -0.05307214
v -0.00895936 0.02632460 -0.05348494
v -0.00834196 0.02628457 -0.05384671
v -0.00895936 0.00494278 -0.05426415
v -0.00834196 0.02597484 -0.05416984
v -0.00834196 0.02538278 -0.05433990
v -0.00891280 0.00494278 -0.05427033
v 0.00999173 0.00494278 -0.05348648
v 0.00999173 0.02538278 -0.05348648
v 0.00995529 0.02579153 -0.05345092
v 0.00989659 0.02631407 -0.05278457
v 0.00990064 0.02631828 -0.05245372
v 0.00990064 0.02631828 -0.04133141
v 0.00989659 0.02631407 -0.04100983
v 0.00608694 0.02600855 -0.03854697
v 0.00625900 0.02585053 -0.03854697
v 0.00592095 0.02616026 -0.03854697
v 0.00825694 0.02226231 -0.03854697
v 0.01006055 0.01854556 -0.03854697
v 0.00525294 0.02633935 -0.03854697
v -0.00030769 0.02646788 -0.04050736
v -0.00051214 0.02646788 -0.04050891
v -0.00195746 0.02646788 -0.04093253
v -0.00264368 0.02646788 -0.04147210
v -0.00294934 0.02646788 -0.04177977
v -0.00324083 0.02646788 -0.04209825
v -0.00375702 0.02646788 -0.04281717
v -0.00382180 0.02646788 -0.04341085
v -0.00387443 0.02646788 -0.04397980
v -0.00349994 0.02646788 -0.04627569
v -0.00834196 0.02632460 -0.05353750
v -0.00315177 0.02646788 -0.04688019
v -0.00276716 0.02646788 -0.04728835
v -0.00254449 0.02646788 -0.04749398
v -0.00214369 0.02646788 -0.04784802
v -0.00092509 0.02646788 -0.04838605
v -0.00030364 0.02646788 -0.04850200
v 0.00895936 0.02633935 -0.05307214
v 0.00834196 0.02628457 -0.05384671
v 0.00834196 0.02597484 -0.05416984
v 0.00834196 0.02538278 -0.05433990
v -0.00834196 0.00494278 -0.05433990
v 0.00968404 0.00494278 -0.05379569
v 0.00968404 0.02538278 -0.05379569
v 0.00933992 0.02579153 -0.05406316
v 0.00952615 0.02599802 -0.05363954
v 0.00971440 0.02620451 -0.05319582
v 0.00930146 0.02631828 -0.05341382
v 0.00953627 0.02632460 -0.05302267
v 0.00957878 0.02633303 -0.05245372
v 0.00957878 0.02633303 -0.04133141
v 0.00561326 0.02632460 -0.03854697
v 0.00216191 0.02646788 -0.04125720
v 0.00155260 0.02646788 -0.04088769
v 0.00030769 0.02646788 -0.04050736
v 0.00834196 0.02632460 -0.05353750
v 0.00030364 0.02646788 -0.04850200
v 0.00069634 0.02646788 -0.04850046
v 0.00118217 0.02646788 -0.04838451
v 0.00247971 0.02646788 -0.04782638
v 0.00311128 0.02646788 -0.04722497
v 0.00377726 0.02646788 -0.04605460
v 0.00895936 0.02632460 -0.05348494
v 0.00895936 0.02621715 -0.05379415
v 0.00895936 0.02590953 -0.05413118
v 0.00895936 0.02538278 -0.05426415
v 0.00834196 0.00494278 -0.05433990
v 0.00937433 0.00494278 -0.05409408
v 0.00937433 0.02538278 -0.05409408
v 0.00383597 0.02646788 -0.04544391
v 0.00387038 0.02646788 -0.04504039
v 0.00388252 0.02646788 -0.04487342
v 0.00389872 0.02646788 -0.04442197
v 0.00385418 0.02646788 -0.04380355
v 0.00376916 0.02646788 -0.04319131
v 0.00337241 0.02646788 -0.04256516
v 0.00296756 0.02646788 -0.04194983
v 0.00277930 0.02646788 -0.04175812
v 0.00899175 0.00494278 -0.05425178
v 0.00895936 0.00494278 -0.05426415
f 1 2 5
f 1 5 12
f 1 12 23
f 1 23 42
f 1 42 66
f 1 66 69
f 1 69 104
f 1 104 129
f 1 129 142
f 1 142 141
f 1 141 130
f 1 130 105
f 1 105 70
f 1 70 47
f 1 47 28
f 1 28 15
f 1 15 7
f 1 7 3
f 1 3 8
f 1 8 9
f 1 9 4
f 1 4 6
f 1 6 2
f 2 6 5
f 3 7 16
f 3 16 31
f 3 31 55
f 3 55 81
f 3 81 80
f 3 80 78
f 3 78 77
f 3 77 79
f 3 79 114
f 3 114 82
f 3 82 58
f 3 58 57
f 3 57 36
f 3 36 35
f 3 35 34
f 3 34 56
f 3 56 32
f 3 32 17
f 3 17 8
f 4 9 20
f 4 20 10
f 4 10 11
f 4 11 6
f 5 6 13
f 5 13 12
f 6 11 14
f 6 14 13
f 7 15 29
f 7 29 30
f 7 30 16
f 8 17 9
f 9 17 18
f 9 18 19
f 9 19 20
f 10 20 38
f 10 38 21
f 10 21 22
f 10 22 11
f 11 22 14
f 12 13 24
f 12 24 23
f 13 14 24
f 14 22 25
f 14 25 26
f 14 26 27
f 14 27 24
f 15 28 29
f 16 30 31
f 17 32 33
f 17 33 18
f 18 33 19
f 19 33 34
f 19 34 35
f 19 35 36
f 19 36 37
f 19 37 20
f 20 37 38
f 21 38 59
f 21 59 39
f 21 39 22
f 22 39 40
f 22 40 41
f 22 41 25
f 23 24 43
f 23 43 42
f 24 27 43
f 25 41 26
f 26 41 27
f 27 41 44
f 27 44 45
f 27 45 46
f 27 46 43
f 28 47 48
f 28 48 29
f 29 48 49
f 29 49 50
f 29 50 51
f 29 51 30
f 30 51 52
f 30 52 53
f 30 53 31
f 31 53 54
f 31 54 55
f 32 56 33
f 33 56 34
f 36 57 37
f 37 57 58
f 37 58 59
f 37 59 38
f 39 59 60
f 39 60 61
f 39 61 62
f 39 62 63
f 39 63 40
f 40 63 41
f 41 63 64
f 41 64 65
f 41 65 44
f 42 43 46
f 42 46 66
f 44 65 45
f 45 67 68
f 45 68 46
f 45 65 67
f 46 68 69
f 46 69 66
f 47 70 71
f 47 71 48
f 48 71 72
f 48 72 49
f 49 72 73
f 49 73 50
f 50 73 74
f 50 74 75
f 50 75 51
f 51 75 76
f 51 76 52
f 52 77 78
f 52 78 54
f 52 54 53
f 52 76 79
f 52 79 77
f 54 80 81
f 54 81 55
f 54 78 80
f 58 82 117
f 58 117 83
f 58 83 84
f 58 84 85
f 58 85 59
f 59 85 86
f 59 86 87
f 59 87 88
f 59 88 89
f 59 89 90
f 59 90 91
f 59 91 60
f 60 91 90
f 60 90 89
f 60 89 88
f 60 88 87
f 60 87 86
f 60 86 85
f 60 85 84
f 60 84 83
f 60 83 117
f 60 117 116
f 60 116 115
f 60 115 140
f 60 140 139
f 60 139 138
f 60 138 137
f 60 137 136
f 60 136 135
f 60 135 134
f 60 134 133
f 60 133 132
f 60 132 124
f 60 124 123
f 60 123 122
f 60 122 121
f 60 121 120
f 60 120 119
f 60 119 99
f 60 99 98
f 60 98 97
f 60 97 96
f 60 96 95
f 60 95 94
f 60 94 92
f 60 92 62
f 60 62 61
f 62 92 63
f 63 93 64
f 63 92 94
f 63 94 95
f 63 95 96
f 63 96 97
f 63 97 98
f 63 98 99
f 63 99 119
f 63 119 100
f 63 100 118
f 63 118 93
f 64 93 65
f 65 101 102
f 65 102 67
f 65 93 118
f 65 118 101
f 67 102 103
f 67 103 68
f 68 103 129
f 68 129 104
f 68 104 69
f 70 105 106
f 70 106 71
f 71 106 72
f 72 107 108
f 72 108 109
f 72 109 73
f 72 106 107
f 73 109 110
f 73 110 111
f 73 111 112
f 73 112 74
f 74 112 113
f 74 113 75
f 75 113 76
f 76 113 82
f 76 82 114
f 76 114 79
f 82 113 115
f 82 115 116
f 82 116 117
f 100 119 120
f 100 120 121
f 100 121 122
f 100 122 123
f 100 123 124
f 100 124 112
f 100 112 111
f 100 111 110
f 100 110 125
f 100 125 118
f 101 126 127
f 101 127 102
f 101 118 125
f 101 125 110
f 101 110 126
f 102 127 103
f 103 127 128
f 103 128 142
f 103 142 129
f 105 130 131
f 105 131 106
f 106 131 107
f 107 127 126
f 107 126 110
f 107 110 108
f 107 131 128
f 107 128 127
f 108 110 109
f 112 124 132
f 112 132 133
f 112 133 134
f 112 134 135
f 112 135 113
f 113 135 136
f 113 136 137
f 113 137 138
f 113 138 139
f 113 139 140
f 113 140 115
f 128 131 141
f 128 141 142
f 130 141 131

