# https://github.com/mikedh/trimesh
v 0.00401612 0.03003990 -0.01536573
v -0.00401612 0.03003990 -0.01536573
v 0.00463352 0.03003499 -0.01536573
v 0.00648774 0.03003990 -0.01970171
v -0.00648774 0.03003990 -0.01970171
v -0.00463960 0.03003499 -0.01536573
v 0.00500194 0.03002270 -0.01536573
v 0.00695130 0.03002516 -0.01908456
v 0.00648774 0.03003499 -0.01908456
v 0.00703429 0.03002762 -0.01970171
v 0.00704846 0.03002762 -0.02032114
v 0.00648774 0.03003990 -0.02773383
v -0.00648774 0.03003990 -0.02773383
v -0.00704846 0.03002762 -0.02402862
v -0.00703024 0.03002762 -0.02032114
v -0.00701000 0.03002762 -0.01970171
v -0.00694725 0.03002516 -0.01908456
v -0.00648774 0.03003499 -0.01908456
v -0.00499586 0.03002270 -0.01536573
v 0.00530558 0.02998340 -0.01536573
v 0.00726101 0.03000796 -0.01908456
v 0.00685413 0.03002025 -0.01873741
v 0.00734198 0.03001288 -0.01970171
v 0.00735615 0.03001288 -0.02032114
v 0.00701000 0.03002762 -0.02773383
v 0.00463352 0.03003990 -0.03453163
v -0.00463352 0.03003990 -0.03453163
v -0.00701607 0.03002762 -0.02773383
v -0.00704036 0.03002762 -0.02588236
v -0.00704644 0.03002762 -0.02526520
v -0.00704846 0.03002762 -0.02464578
v -0.00735817 0.03001533 -0.02402862
v -0.00733793 0.03001288 -0.02032114
v -0.00731971 0.03001288 -0.01970171
v -0.00725696 0.03000796 -0.01908456
v -0.00685413 0.03002025 -0.01873741
v -0.00530558 0.02998340 -0.01536573
v 0.00586225 0.02985074 -0.01536573
v 0.00772456 0.02985319 -0.01846513
v 0.00772456 0.02992935 -0.01908456
v 0.00772456 0.02994163 -0.01970171
v 0.00772456 0.02993918 -0.02773383
v 0.00731971 0.03001288 -0.02711667
v 0.00731971 0.03001042 -0.02773383
v 0.00496145 0.03002516 -0.03485836
v 0.00499586 0.03002762 -0.03453163
v 0.00463352 0.03002762 -0.03487425
v -0.00463352 0.03002762 -0.03487425
v -0.00496145 0.03002516 -0.03485836
v -0.00499586 0.03002762 -0.03453163
v -0.00732578 0.03001288 -0.02773383
v -0.00735615 0.03001533 -0.02526520
v -0.00735817 0.03001533 -0.02464578
v -0.00772456 0.02994163 -0.02402862
v -0.00772456 0.02993918 -0.01970171
v -0.00772456 0.02992935 -0.01908456
v -0.00772456 0.02985319 -0.01846513
v -0.00587034 0.02984828 -0.01536573
v 0.00587034 0.02984828 -0.01536573
v 0.00834196 0.02963701 -0.01846513
v 0.00834196 0.02971808 -0.01908456
v 0.00834196 0.02973282 -0.01970171
v 0.00834196 0.02973282 -0.02649952
v 0.00834196 0.02973036 -0.02773383
v 0.00874479 0.02946259 -0.02816720
v 0.00937838 0.02889756 -0.02819897
v 0.00625900 0.02585131 -0.03854542
v 0.00592095 0.02616085 -0.03854542
v 0.00576913 0.02624192 -0.03854542
v 0.00561326 0.02632299 -0.03854542
v 0.00525294 0.02633773 -0.03854542
v -0.00525294 0.02633773 -0.03854542
v -0.00543513 0.02633036 -0.03854542
v -0.00561326 0.02632299 -0.03854542
v -0.00937838 0.02889756 -0.02819897
v -0.00874479 0.02946259 -0.02816720
v -0.00834196 0.02973036 -0.02773383
v -0.00772456 0.02993918 -0.02773383
v -0.00576508 0.02624438 -0.03854542
v -0.00592095 0.02616085 -0.03854542
v -0.00609301 0.02600363 -0.03854542
v -0.00625900 0.02585131 -0.03854542
v -0.00772456 0.02994163 -0.02649952
v -0.00834196 0.02973282 -0.01970171
v -0.00834196 0.02971808 -0.01908456
v -0.00834196 0.02963701 -0.01846513
v -0.00866382 0.02940854 -0.01813840
v -0.00624888 0.02967877 -0.01536573
v 0.00654240 0.02954611 -0.01536573
v 0.00866382 0.02940854 -0.01813840
v 0.00872252 0.02944785 -0.01846513
v 0.00878325 0.02948715 -0.01908456
v 0.00879337 0.02949452 -0.01970171
v 0.00879539 0.02949698 -0.02032114
v 0.00879742 0.02949698 -0.02402862
v 0.00879742 0.02949698 -0.02464578
v 0.00879539 0.02949698 -0.02588236
v 0.00879337 0.02949452 -0.02773383
v 0.00910106 0.02926360 -0.02773383
v 0.00943506 0.02895406 -0.02773383
v 0.00974274 0.02856837 -0.02773383
v 0.00992290 0.02822689 -0.02813090
v 0.00825694 0.02226215 -0.03854542
v -0.00992290 0.02822689 -0.02813090
v -0.00974275 0.02856837 -0.02773383
v -0.00943303 0.02895406 -0.02773383
v -0.00910106 0.02926360 -0.02773383
v -0.00879134 0.02949452 -0.02773383
v -0.00879742 0.02949698 -0.02402862
v -0.00834196 0.02973282 -0.02526520
v -0.00818812 0.02243657 -0.03854542
v -0.00879742 0.02949698 -0.02032114
v -0.00879539 0.02949698 -0.01970171
v -0.00878325 0.02948961 -0.01908456
v -0.00872252 0.02944785 -0.01846513
v -0.00705251 0.02916288 -0.01536573
v -0.00655252 0.02954120 -0.01536573
v -0.00654240 0.02954611 -0.01536573
v -0.00903021 0.02920464 -0.01846513
v -0.00931158 0.02882632 -0.01807260
v -0.00892697 0.02906215 -0.01790016
v 0.00655252 0.02954120 -0.01536573
v 0.00680150 0.02940117 -0.01536573
v 0.00892697 0.02906215 -0.01790016
v 0.00931158 0.02882632 -0.01807260
v 0.00903021 0.02920464 -0.01846513
v 0.00909093 0.02925623 -0.01908456
v 0.00910106 0.02926360 -0.01970171
v 0.00910510 0.02926606 -0.02032114
v 0.00910713 0.02926851 -0.02402862
v 0.00910510 0.02926606 -0.02588236
v 0.00910308 0.02926606 -0.02649952
v 0.00943506 0.02895652 -0.02711667
v 0.00974477 0.02856837 -0.02588236
v 0.00994315 0.02826129 -0.02773383
v 0.01010914 0.02785348 -0.02773383
v 0.00999780 0.02785348 -0.02823527
v 0.01023464 0.01796547 -0.03854542
v 0.01014962 0.01827992 -0.03854542
v 0.01006055 0.01854524 -0.03854542
v -0.00999780 0.02785348 -0.02823527
v -0.01010914 0.02785348 -0.02773383
v -0.00994315 0.02826129 -0.02773383
v -0.01006055 0.01854524 -0.03854542
v -0.01023464 0.01796547 -0.03854542
v -0.00974477 0.02856837 -0.02340919
v -0.00943506 0.02895897 -0.02340919
v -0.00910713 0.02926606 -0.02402862
v -0.00910510 0.02926606 -0.02032114
v -0.00910308 0.02926606 -0.01970171
v -0.00909296 0.02925623 -0.01908456
v -0.00711728 0.02910883 -0.01536573
v -0.00937635 0.02889510 -0.01846513
v -0.00971238 0.02844062 -0.01845379
v -0.00986420 0.02810897 -0.01824050
v -0.00945530 0.02848238 -0.01785932
v -0.00919012 0.02869366 -0.01766192
v 0.00714158 0.02908672 -0.01536573
v 0.00919012 0.02869366 -0.01766192
v 0.00945328 0.02848238 -0.01785932
v 0.00986420 0.02811143 -0.01824050
v 0.00971238 0.02844062 -0.01845379
v 0.00937635 0.02889510 -0.01846513
v 0.00942696 0.02894669 -0.01908456
v 0.00943303 0.02895406 -0.01970171
v 0.00943506 0.02895652 -0.02032114
v 0.00943506 0.02895897 -0.02340919
v 0.00943506 0.02895897 -0.02464578
v 0.00974477 0.02856837 -0.02340919
v 0.00994315 0.02826129 -0.01970171
v 0.01010914 0.02785348 -0.01970171
v 0.01027107 0.02723686 -0.02773383
v 0.01033990 0.01611316 -0.03854542
v 0.01032978 0.02538209 -0.02958757
v -0.01027108 0.02723686 -0.02773383
v -0.01010914 0.02785348 -0.01970171
v -0.00994315 0.02826129 -0.01970171
v -0.01033990 0.01611316 -0.03854542
v -0.01032978 0.02538209 -0.02958757
v -0.00974477 0.02856837 -0.02032114
v -0.00943506 0.02895897 -0.02032114
v -0.00943506 0.02895652 -0.01970171
v -0.00942696 0.02894669 -0.01908456
v -0.00719825 0.02902776 -0.01536573
v -0.00973667 0.02855854 -0.01908456
v -0.00991481 0.02821461 -0.01865346
v -0.00935004 0.02828094 -0.01743049
v -0.00999983 0.02788296 -0.01845379
v -0.00994517 0.02769871 -0.01802268
v -0.00977918 0.02788296 -0.01782982
v -0.00757072 0.02859785 -0.01536573
v 0.00743307 0.02879929 -0.01536573
v 0.00935004 0.02828094 -0.01743049
v 0.00991481 0.02821461 -0.01865346
v 0.00977918 0.02788296 -0.01782982
v 0.00994517 0.02769871 -0.01802268
v 0.00999983 0.02788296 -0.01845379
v 0.00973465 0.02855854 -0.01908456
v 0.00974274 0.02856837 -0.01970171
v 0.00993505 0.02824900 -0.01908456
v 0.01009699 0.02785348 -0.01908456
v 0.01027107 0.02723686 -0.01970171
v 0.01032776 0.02661779 -0.01970171
v 0.01032573 0.02661779 -0.02773383
v 0.01033990 0.00494278 -0.03854542
v 0.01033990 0.02476302 -0.02958757
v -0.01032573 0.02661779 -0.02773383
v -0.01032775 0.02661779 -0.01970171
v -0.01027108 0.02723686 -0.01970171
v -0.01009699 0.02785348 -0.01908456
v -0.00993505 0.02824900 -0.01908456
v -0.00974275 0.02856837 -0.01970171
v -0.01033990 0.00494278 -0.03854542
v -0.01033990 0.02476302 -0.02958757
v -0.00943101 0.02781418 -0.01722628
v -0.00796545 0.02788542 -0.01536573
v -0.00764562 0.02848730 -0.01536573
v -0.00762335 0.02852906 -0.01536573
v -0.01017998 0.02723686 -0.01846513
v -0.00997958 0.02719019 -0.01782982
v -0.00985206 0.02736461 -0.01761200
v 0.00762335 0.02852906 -0.01536573
v 0.00798164 0.02786331 -0.01536573
v 0.00943101 0.02781418 -0.01722628
v 0.00985205 0.02736461 -0.01761200
v 0.00997958 0.02719019 -0.01782982
v 0.01017998 0.02723686 -0.01846513
v 0.01025893 0.02723686 -0.01908456
v 0.01031763 0.02661779 -0.01908456
v 0.01032573 0.02599871 -0.01908456
v 0.01033180 0.02599871 -0.01970171
v 0.01033990 0.02538209 -0.02155545
v 0.01033990 0.02538209 -0.02773383
v 0.01033383 0.02599871 -0.02773383
v 0.01033990 0.00494278 -0.02155545
v -0.01033383 0.02599871 -0.02773383
v -0.01033990 0.02538209 -0.02773383
v -0.01033990 0.02538209 -0.02155545
v -0.01033180 0.02599871 -0.01970171
v -0.01032573 0.02599871 -0.01908456
v -0.01031763 0.02661779 -0.01908456
v -0.01025893 0.02723686 -0.01908456
v -0.01033990 0.00494278 -0.02155545
v -0.00928526 0.02758079 -0.01690409
v -0.00799581 0.02780681 -0.01536573
v -0.01024071 0.02661779 -0.01846513
v -0.01004436 0.02661779 -0.01784797
v -0.00989254 0.02695189 -0.01753259
v -0.00966582 0.02719019 -0.01728754
v 0.00806666 0.02762501 -0.01536573
v 0.00928526 0.02758079 -0.01690409
v 0.00966582 0.02719019 -0.01728754
v 0.00989254 0.02695189 -0.01753259
v 0.01004436 0.02661779 -0.01784797
v 0.01024071 0.02661779 -0.01846513
v 0.01024881 0.02599871 -0.01846513
v 0.01025083 0.02414640 -0.01846513
v 0.01032776 0.02352732 -0.01908456
v 0.01032776 0.01055130 -0.01908456
v 0.01032978 0.00494278 -0.01965634
v -0.01032775 0.02352732 -0.01908456
v -0.01032775 0.00494278 -0.01912994
v -0.01032775 0.01055130 -0.01908456
v -0.01024881 0.02599871 -0.01846513
v -0.00932777 0.02723686 -0.01686098
v -0.00815775 0.02728845 -0.01536573
v -0.01005246 0.02599871 -0.01784797
v -0.00990469 0.02599871 -0.01751217
v -0.00989861 0.02661779 -0.01751898
v -0.00967594 0.02661779 -0.01721040
v 0.00815775 0.02728845 -0.01536573
v 0.00932777 0.02723686 -0.01686098
v 0.00967594 0.02661779 -0.01721040
v 0.00989861 0.02661779 -0.01751898
v 0.00990469 0.02599871 -0.01751217
v 0.01005246 0.02599871 -0.01784797
v 0.01005448 0.02105593 -0.01784797
v 0.01005651 0.00498945 -0.01784797
v 0.01023666 0.00494278 -0.01841975
v 0.01025083 0.00494278 -0.01846513
v 0.01032168 0.00494278 -0.01903691
v 0.01032573 0.00494278 -0.01908456
v -0.01025083 0.02352732 -0.01846513
v -0.01025691 0.00494278 -0.01851278
v -0.01032573 0.00494278 -0.01908456
v -0.00822253 0.02662761 -0.01536573
v -0.01005448 0.02167255 -0.01784797
v -0.00968404 0.02167255 -0.01720132
v -0.00968202 0.02599871 -0.01720359
v -0.00990469 0.01982024 -0.01750990
v 0.00822253 0.02661779 -0.01536573
v 0.00968202 0.02599871 -0.01720359
v 0.00968404 0.02167255 -0.01720132
v 0.00990469 0.01982024 -0.01750990
v 0.01005651 0.00494278 -0.01784797
v -0.01025083 0.00494278 -0.01846513
v -0.01005650 0.00498945 -0.01784797
v -0.00823265 0.02600854 -0.01536573
v -0.00968404 0.00494278 -0.01720132
v -0.00991683 0.00494278 -0.01753486
v -0.00990469 0.00494278 -0.01750990
v 0.00823265 0.02599871 -0.01536573
v 0.00966177 0.00494278 -0.01717182
v 0.00968404 0.00494278 -0.01720132
v 0.00988849 0.00494278 -0.01748721
v 0.00990469 0.00494278 -0.01750990
v -0.01005650 0.00494278 -0.01784797
v -0.00823265 0.02599871 -0.01536573
v -0.00937433 0.00494278 -0.01682694
v 0.00820836 0.02538209 -0.01536573
v 0.00937433 0.00494278 -0.01682694
v -0.00821038 0.02539192 -0.01536573
v -0.00895936 0.00494278 -0.01669307
v -0.00812739 0.02485391 -0.01536573
v 0.00812132 0.02483917 -0.01536573
v 0.00934397 0.00494278 -0.01681560
v -0.00834196 0.00494278 -0.01664996
v -0.00812132 0.02483917 -0.01536573
v 0.00772456 0.02461071 -0.01536573
v 0.00834196 0.00494278 -0.01664996
v 0.00891280 0.00494278 -0.01668854
v 0.00895936 0.00494278 -0.01669307
v -0.00710514 0.02457877 -0.01536573
v -0.00727315 0.02458123 -0.01536573
v -0.00772456 0.02461071 -0.01536573
v -0.00780756 0.02463036 -0.01536573
v 0.00710514 0.02457877 -0.01536573
f 1 2 6
f 1 6 19
f 1 19 37
f 1 37 58
f 1 58 88
f 1 88 118
f 1 118 117
f 1 117 116
f 1 116 152
f 1 152 184
f 1 184 191
f 1 191 218
f 1 218 217
f 1 217 216
f 1 216 245
f 1 245 266
f 1 266 286
f 1 286 298
f 1 298 308
f 1 308 312
f 1 312 314
f 1 314 318
f 1 318 326
f 1 326 325
f 1 325 324
f 1 324 323
f 1 323 327
f 1 327 319
f 1 319 315
f 1 315 310
f 1 310 302
f 1 302 291
f 1 291 271
f 1 271 250
f 1 250 223
f 1 223 222
f 1 222 192
f 1 192 158
f 1 158 123
f 1 123 122
f 1 122 89
f 1 89 59
f 1 59 38
f 1 38 20
f 1 20 7
f 1 7 3
f 1 3 4
f 1 4 12
f 1 12 26
f 1 26 27
f 1 27 13
f 1 13 5
f 1 5 2
f 2 5 6
f 3 7 8
f 3 8 9
f 3 9 4
f 4 9 8
f 4 8 10
f 4 10 11
f 4 11 12
f 5 13 31
f 5 31 14
f 5 14 15
f 5 15 16
f 5 16 17
f 5 17 18
f 5 18 6
f 6 18 17
f 6 17 19
f 7 20 21
f 7 21 22
f 7 22 8
f 8 22 21
f 8 21 23
f 8 23 10
f 10 23 24
f 10 24 11
f 11 24 25
f 11 25 12
f 12 25 26
f 13 27 28
f 13 28 29
f 13 29 30
f 13 30 31
f 14 31 53
f 14 53 32
f 14 32 15
f 15 32 33
f 15 33 34
f 15 34 16
f 16 34 17
f 17 34 35
f 17 35 36
f 17 36 19
f 19 36 35
f 19 35 37
f 20 38 39
f 20 39 40
f 20 40 21
f 21 40 23
f 23 40 41
f 23 41 24
f 24 41 42
f 24 42 43
f 24 43 25
f 25 43 44
f 25 44 45
f 25 45 46
f 25 46 26
f 26 46 45
f 26 45 47
f 26 47 48
f 26 48 27
f 27 48 49
f 27 49 50
f 27 50 28
f 28 50 49
f 28 49 51
f 28 51 52
f 28 52 29
f 29 52 30
f 30 52 53
f 30 53 31
f 32 53 83
f 32 83 54
f 32 54 55
f 32 55 33
f 33 55 34
f 34 55 56
f 34 56 35
f 35 56 37
f 37 56 57
f 37 57 58
f 38 59 39
f 39 59 60
f 39 60 61
f 39 61 40
f 40 61 62
f 40 62 41
f 41 62 63
f 41 63 42
f 42 45 44
f 42 44 43
f 42 63 64
f 42 64 45
f 45 64 65
f 45 65 66
f 45 66 67
f 45 67 68
f 45 68 69
f 45 69 70
f 45 70 47
f 47 70 71
f 47 71 72
f 47 72 48
f 48 72 73
f 48 73 74
f 48 74 49
f 49 75 76
f 49 76 77
f 49 77 78
f 49 78 51
f 49 74 79
f 49 79 80
f 49 80 81
f 49 81 82
f 49 82 75
f 51 78 52
f 52 78 83
f 52 83 53
f 54 83 110
f 54 110 84
f 54 84 55
f 55 84 56
f 56 84 85
f 56 85 57
f 57 85 86
f 57 86 58
f 58 86 87
f 58 87 88
f 59 89 90
f 59 90 60
f 60 90 91
f 60 91 61
f 61 91 92
f 61 92 62
f 62 92 93
f 62 93 94
f 62 94 95
f 62 95 96
f 62 96 63
f 63 96 97
f 63 97 98
f 63 98 64
f 64 98 65
f 65 98 99
f 65 99 66
f 66 99 100
f 66 100 101
f 66 101 102
f 66 102 67
f 67 103 140
f 67 140 139
f 67 139 138
f 67 138 173
f 67 173 205
f 67 205 213
f 67 213 178
f 67 178 145
f 67 145 144
f 67 144 111
f 67 111 82
f 67 82 81
f 67 81 80
f 67 80 79
f 67 79 74
f 67 74 73
f 67 73 72
f 67 72 71
f 67 71 70
f 67 70 69
f 67 69 68
f 67 102 103
f 75 104 105
f 75 105 106
f 75 106 107
f 75 107 76
f 75 82 104
f 76 107 108
f 76 108 77
f 77 108 109
f 77 109 110
f 77 110 83
f 77 83 78
f 82 111 104
f 84 110 109
f 84 109 112
f 84 112 113
f 84 113 114
f 84 114 85
f 85 114 115
f 85 115 86
f 86 115 87
f 87 116 117
f 87 117 118
f 87 118 88
f 87 115 119
f 87 119 120
f 87 120 121
f 87 121 116
f 89 122 90
f 90 122 123
f 90 123 124
f 90 124 125
f 90 125 126
f 90 126 91
f 91 126 127
f 91 127 92
f 92 127 128
f 92 128 93
f 93 128 129
f 93 129 94
f 94 129 130
f 94 130 95
f 95 130 96
f 96 130 97
f 97 130 131
f 97 131 98
f 98 131 132
f 98 132 99
f 99 132 133
f 99 133 100
f 100 133 101
f 101 133 134
f 101 134 135
f 101 135 102
f 102 135 136
f 102 136 137
f 102 137 138
f 102 138 139
f 102 139 140
f 102 140 103
f 104 141 142
f 104 142 143
f 104 143 105
f 104 111 144
f 104 144 145
f 104 145 141
f 105 146 147
f 105 147 106
f 105 143 146
f 106 147 148
f 106 148 107
f 107 148 109
f 107 109 108
f 109 148 112
f 112 148 149
f 112 149 150
f 112 150 113
f 113 150 114
f 114 150 151
f 114 151 115
f 115 151 119
f 116 121 152
f 119 151 153
f 119 153 120
f 120 153 154
f 120 154 155
f 120 155 156
f 120 156 157
f 120 157 121
f 121 157 152
f 123 158 159
f 123 159 124
f 124 159 125
f 125 159 160
f 125 160 161
f 125 161 162
f 125 162 163
f 125 163 126
f 126 163 127
f 127 163 164
f 127 164 128
f 128 164 165
f 128 165 129
f 129 165 166
f 129 166 130
f 130 166 167
f 130 167 168
f 130 168 133
f 130 133 131
f 131 133 132
f 133 168 134
f 134 168 167
f 134 167 169
f 134 169 170
f 134 170 135
f 135 170 171
f 135 171 136
f 136 171 202
f 136 202 172
f 136 172 137
f 137 172 138
f 138 172 174
f 138 174 173
f 141 175 142
f 141 145 175
f 142 176 177
f 142 177 143
f 142 175 209
f 142 209 176
f 143 177 180
f 143 180 146
f 145 178 179
f 145 179 175
f 146 180 181
f 146 181 147
f 147 181 148
f 148 181 149
f 149 181 150
f 150 181 182
f 150 182 183
f 150 183 151
f 151 183 153
f 152 157 184
f 153 183 185
f 153 185 154
f 154 186 155
f 154 185 186
f 155 187 156
f 155 186 188
f 155 188 189
f 155 189 190
f 155 190 187
f 156 187 157
f 157 191 184
f 157 187 191
f 158 192 159
f 159 192 193
f 159 193 160
f 160 193 161
f 161 194 162
f 161 193 195
f 161 195 196
f 161 196 197
f 161 197 194
f 162 194 198
f 162 198 163
f 163 198 164
f 164 198 199
f 164 199 165
f 165 199 166
f 166 199 167
f 167 199 169
f 169 199 170
f 170 200 201
f 170 201 171
f 170 199 198
f 170 198 200
f 171 201 228
f 171 228 202
f 172 202 203
f 172 203 204
f 172 204 174
f 173 174 206
f 173 206 233
f 173 233 232
f 173 232 235
f 173 235 205
f 174 204 206
f 175 207 208
f 175 208 209
f 175 179 207
f 176 210 177
f 176 209 242
f 176 242 210
f 177 210 211
f 177 211 185
f 177 185 212
f 177 212 180
f 178 213 243
f 178 243 238
f 178 238 237
f 178 237 214
f 178 214 179
f 179 214 207
f 180 212 182
f 180 182 181
f 182 212 185
f 182 185 183
f 185 211 186
f 186 211 210
f 186 210 188
f 187 190 215
f 187 215 216
f 187 216 217
f 187 217 218
f 187 218 191
f 188 210 219
f 188 219 189
f 189 219 220
f 189 220 221
f 189 221 190
f 190 221 215
f 192 222 193
f 193 223 224
f 193 224 195
f 193 222 223
f 194 197 201
f 194 201 200
f 194 200 198
f 195 224 225
f 195 225 196
f 196 225 226
f 196 226 227
f 196 227 197
f 197 227 201
f 201 227 228
f 202 228 229
f 202 229 203
f 203 229 230
f 203 230 231
f 203 231 232
f 203 232 233
f 203 233 234
f 203 234 204
f 204 234 206
f 205 235 260
f 205 260 282
f 205 282 281
f 205 281 280
f 205 280 279
f 205 279 295
f 205 295 306
f 205 306 305
f 205 305 304
f 205 304 303
f 205 303 311
f 205 311 316
f 205 316 322
f 205 322 321
f 205 321 320
f 205 320 317
f 205 317 313
f 205 313 309
f 205 309 299
f 205 299 301
f 205 301 300
f 205 300 307
f 205 307 296
f 205 296 284
f 205 284 285
f 205 285 262
f 205 262 243
f 205 243 213
f 206 234 233
f 207 214 236
f 207 236 208
f 208 236 237
f 208 237 238
f 208 238 239
f 208 239 240
f 208 240 241
f 208 241 209
f 209 241 242
f 210 242 219
f 214 237 236
f 215 221 244
f 215 244 216
f 216 244 245
f 219 242 246
f 219 246 247
f 219 247 220
f 220 247 248
f 220 248 221
f 221 248 249
f 221 249 244
f 223 250 251
f 223 251 224
f 224 251 225
f 225 251 252
f 225 252 253
f 225 253 226
f 226 253 254
f 226 254 227
f 227 254 255
f 227 255 228
f 228 255 229
f 229 255 256
f 229 256 230
f 230 256 257
f 230 257 258
f 230 258 231
f 231 258 259
f 231 259 235
f 231 235 232
f 235 259 260
f 238 243 239
f 239 261 240
f 239 243 262
f 239 262 263
f 239 263 261
f 240 261 283
f 240 283 264
f 240 264 246
f 240 246 241
f 241 246 242
f 244 249 265
f 244 265 266
f 244 266 245
f 246 264 267
f 246 267 247
f 247 267 268
f 247 268 269
f 247 269 248
f 248 269 270
f 248 270 266
f 248 266 265
f 248 265 249
f 250 271 251
f 251 271 272
f 251 272 252
f 252 272 253
f 253 273 274
f 253 274 254
f 253 272 271
f 253 271 273
f 254 274 275
f 254 275 276
f 254 276 256
f 254 256 255
f 256 276 257
f 257 276 277
f 257 277 278
f 257 278 279
f 257 279 280
f 257 280 259
f 257 259 258
f 259 280 281
f 259 281 282
f 259 282 260
f 261 263 284
f 261 284 283
f 262 285 263
f 263 285 284
f 264 283 267
f 266 270 286
f 267 283 287
f 267 287 268
f 268 288 289
f 268 289 270
f 268 270 269
f 268 287 290
f 268 290 288
f 270 289 286
f 271 291 273
f 273 291 292
f 273 292 275
f 273 275 274
f 275 277 276
f 275 292 293
f 275 293 294
f 275 294 277
f 277 294 278
f 278 294 306
f 278 306 295
f 278 295 279
f 283 284 296
f 283 296 307
f 283 307 297
f 283 297 287
f 286 289 298
f 287 297 290
f 288 298 289
f 288 290 301
f 288 301 299
f 288 299 308
f 288 308 298
f 290 297 300
f 290 300 301
f 291 302 292
f 292 302 293
f 293 302 303
f 293 303 304
f 293 304 305
f 293 305 294
f 294 305 306
f 297 307 300
f 299 309 308
f 302 310 311
f 302 311 303
f 308 309 312
f 309 313 314
f 309 314 312
f 310 315 316
f 310 316 311
f 313 317 318
f 313 318 314
f 315 319 320
f 315 320 321
f 315 321 322
f 315 322 316
f 317 320 327
f 317 327 323
f 317 323 324
f 317 324 325
f 317 325 326
f 317 326 318
f 319 327 320

