# https://github.com/mikedh/trimesh
v 0.01033990 0.00189818 -0.01970359
v 0.01032978 0.00494194 -0.01966082
v 0.01032573 0.00494194 -0.01908640
v 0.01033990 -0.00119095 -0.01970359
v 0.01033990 0.00313484 -0.02155518
v 0.01033788 0.00494194 -0.02155518
v 0.01032168 0.00494194 -0.01903751
v 0.01032573 -0.00119095 -0.01908640
v 0.01032168 -0.00180843 -0.01970359
v 0.01032371 -0.00180843 -0.02032079
v 0.01033990 -0.00119095 -0.02279568
v 0.01033990 0.00313484 -0.03823781
v 0.01033788 0.00494194 -0.05245165
v 0.01025083 0.00494194 -0.01846920
v 0.00804237 -0.00022733 0.00105497
v 0.00804237 -0.00037183 0.00105497
v 0.01029942 -0.00180843 -0.01908640
v 0.01018403 -0.00242676 -0.01970359
v 0.01019213 -0.00242676 -0.02032079
v 0.01032371 -0.00180843 -0.02217849
v 0.01033990 0.00066236 -0.03823781
v 0.01033788 0.00375232 -0.05245165
v 0.01022654 0.00494194 -0.05302607
v 0.01023666 0.00494194 -0.01842031
v 0.00756060 0.00000371 0.00254602
v 0.00747760 -0.00010551 0.00300433
v 0.00785411 -0.00057262 0.00192882
v 0.00798569 -0.00057514 0.00128107
v 0.00802415 -0.00078349 0.00088998
v 0.01013140 -0.00242676 -0.01908640
v 0.00786424 -0.00119095 0.00130552
v 0.00997553 -0.00285019 -0.01970359
v 0.00997958 -0.00285859 -0.02032079
v 0.00997958 -0.00285943 -0.02155518
v 0.01019213 -0.00242676 -0.02155518
v 0.01019011 -0.00242676 -0.02217849
v 0.01030549 -0.00180843 -0.02279568
v 0.01033383 0.00066236 -0.03885500
v 0.01021642 0.00313484 -0.05245165
v 0.01021642 0.00375232 -0.05306884
v 0.01021642 0.00494194 -0.05306884
v 0.01005651 0.00494194 -0.01785200
v 0.00698773 0.00000875 0.00378041
v 0.00990469 0.00494194 -0.01750980
v 0.00736424 -0.00057262 0.00335265
v 0.00749380 -0.00057262 0.00304100
v 0.00767598 -0.00057262 0.00254602
v 0.00686830 -0.00010047 0.00420206
v 0.00773468 -0.00119095 0.00192882
v 0.00993910 -0.00280230 -0.01908640
v 0.00758084 -0.00186304 0.00134829
v 0.00745129 -0.00216465 0.00117108
v 0.00753023 -0.00172274 0.00192882
v 0.00965773 -0.00315935 -0.01970359
v 0.00966987 -0.00316775 -0.02032079
v 0.00997958 -0.00285103 -0.02217849
v 0.01010914 0.00011544 -0.03885500
v 0.00995529 0.00277610 -0.05290996
v 0.01006055 0.00310795 -0.05309329
v 0.00995529 0.00329614 -0.05344771
v 0.00999173 0.00375232 -0.05348438
v 0.00999173 0.00494194 -0.05348438
v 0.00648774 0.00031119 0.00378041
v 0.00651406 0.00007427 0.00440372
v 0.00988849 0.00494194 -0.01748535
v 0.00731161 -0.00121195 0.00316321
v 0.00745736 -0.00102040 0.00295545
v 0.00714562 -0.00057262 0.00378041
v 0.00698368 -0.00121867 0.00382319
v 0.00753833 -0.00121195 0.00257046
v 0.00632580 -0.00006519 0.00489259
v 0.00638450 -0.00057262 0.00495980
v 0.00669219 -0.00057262 0.00454427
v 0.00688652 -0.00057262 0.00423872
v 0.00746748 -0.00160261 0.00238103
v 0.00682377 -0.00276029 0.00172105
v 0.00740878 -0.00210584 0.00158661
v 0.00702215 -0.00247213 0.00192882
v 0.00736627 -0.00203107 0.00192882
v 0.00931360 -0.00338030 -0.01927583
v 0.00934802 -0.00340215 -0.01970359
v 0.00936219 -0.00341055 -0.02032079
v 0.00965975 -0.00316775 -0.02093798
v 0.00994922 -0.00280734 -0.02257569
v 0.00935206 -0.00340131 -0.02093798
v 0.00931765 -0.00337946 -0.02132297
v 0.01003829 0.00019105 -0.03947220
v 0.00942089 0.00277022 -0.05353327
v 0.00983181 0.00288448 -0.05331939
v 0.00957878 -0.00012903 -0.03885500
v 0.00958688 0.00309031 -0.05369826
v 0.00933992 0.00329614 -0.05405880
v 0.00968404 0.00375232 -0.05379603
v 0.00968404 0.00494194 -0.05379603
v 0.00587034 0.00033807 0.00439761
v 0.00592095 0.00009612 0.00506369
v 0.00968404 0.00494194 -0.01720425
v 0.00966178 0.00494194 -0.01717370
v 0.00937433 0.00494194 -0.01683149
v 0.00739258 -0.00143206 0.00279656
v 0.00689664 -0.00167990 0.00364597
v 0.00684603 -0.00103216 0.00417151
v 0.00677721 -0.00144382 0.00405540
v 0.00574686 -0.00006435 0.00552200
v 0.00613147 -0.00057262 0.00527146
v 0.00631163 -0.00119095 0.00487425
v 0.00728530 -0.00180843 0.00257046
v 0.00676709 -0.00270905 0.00213659
v 0.00653227 -0.00292496 0.00192882
v 0.00696142 -0.00231755 0.00254602
v 0.00686830 -0.00220581 0.00302267
v 0.00598370 -0.00326269 0.00192882
v 0.00895936 -0.00353236 -0.01970359
v 0.00895936 -0.00354917 -0.02032079
v 0.00567399 -0.00339878 0.00192882
v 0.00834196 -0.00362142 -0.02032079
v 0.00896745 0.00274250 -0.05371659
v 0.00876705 0.00279711 -0.05402825
v 0.00917798 0.00288448 -0.05394269
v 0.00834196 0.00270049 -0.05368604
v 0.00648774 -0.00359705 -0.02093798
v 0.00896745 0.00310795 -0.05412602
v 0.00895936 0.00375232 -0.05426046
v 0.00937433 0.00375232 -0.05408936
v 0.00939660 0.00494194 -0.05407102
v 0.00525295 0.00033891 0.00501480
v 0.00530760 0.00009612 0.00569311
v 0.00934397 0.00494194 -0.01681927
v 0.00277930 0.00033555 0.00687250
v 0.00401612 0.00033135 0.00624919
v 0.00463352 0.00033807 0.00563200
v 0.00701000 -0.00185464 0.00319988
v 0.00669017 -0.00185464 0.00382319
v 0.00677923 -0.00209156 0.00343209
v 0.00664361 -0.00121867 0.00438538
v 0.00623066 -0.00158664 0.00477037
v 0.00636021 -0.00179919 0.00439150
v 0.00582379 -0.00057262 0.00560144
v 0.00513959 -0.00006519 0.00610864
v 0.00552622 -0.00057262 0.00591310
v 0.00574686 -0.00119095 0.00552200
v 0.00605657 -0.00119095 0.00517980
v 0.00668612 -0.00262671 0.00254602
v 0.00626507 -0.00280398 0.00303489
v 0.00637641 -0.00288043 0.00254602
v 0.00652215 -0.00246541 0.00323654
v 0.00582986 -0.00321144 0.00253991
v 0.00551003 -0.00333578 0.00274768
v 0.00559707 -0.00336938 0.00233825
v 0.00525295 -0.00351724 0.00192882
v 0.00463352 -0.00361386 0.00192882
v 0.00834196 -0.00362226 -0.01970359
v 0.00528331 -0.00343659 0.00253991
v 0.00772456 -0.00363486 -0.01970359
v 0.00710514 -0.00363822 -0.02032079
v 0.00834196 0.00278366 -0.05404658
v 0.00834196 0.00313484 -0.05421769
v -0.00834196 -0.00013575 -0.03947220
v -0.00895936 -0.00013912 -0.03947220
v -0.00834196 0.00270049 -0.05368604
v 0.00587034 -0.00359957 -0.02093798
v 0.00834196 0.00375232 -0.05433990
v 0.00895936 0.00494194 -0.05426046
v 0.00899175 0.00494194 -0.05424824
v 0.00937433 0.00494194 -0.05408936
v 0.00466389 0.00009024 0.00629197
v 0.00895936 0.00494194 -0.01669705
v 0.00092509 0.00032295 0.00748970
v 0.00154451 0.00026246 0.00748970
v 0.00339873 0.00023474 0.00687250
v 0.00624281 -0.00219069 0.00418373
v 0.00616791 -0.00272585 0.00345042
v 0.00636831 -0.00232007 0.00378041
v 0.00564565 -0.00163117 0.00541812
v 0.00587237 -0.00181432 0.00501480
v 0.00609706 -0.00199830 0.00459926
v 0.00521651 -0.00057262 0.00617586
v 0.00447968 -0.00007443 0.00666473
v 0.00512744 -0.00119095 0.00610253
v 0.00543715 -0.00119095 0.00583366
v 0.00592500 -0.00296528 0.00321210
v 0.00538857 -0.00328117 0.00316321
v 0.00497157 -0.00336518 0.00351153
v 0.00508088 -0.00339962 0.00316321
v 0.00463352 -0.00351052 0.00316321
v 0.00463352 -0.00357941 0.00254602
v 0.00401612 -0.00360209 0.00316321
v 0.00401612 -0.00363066 0.00254602
v 0.00463352 -0.00362814 0.00130552
v 0.00710514 -0.00363906 -0.01970359
v 0.00401612 -0.00363822 0.00192882
v 0.00401612 -0.00363906 0.00130552
v -0.00710514 -0.00363822 -0.02032079
v -0.00834196 0.00278366 -0.05404658
v -0.00834196 0.00313484 -0.05421769
v -0.00957878 -0.00008787 -0.03947220
v -0.00896745 0.00274250 -0.05371659
v -0.00587034 -0.00359957 -0.02093798
v -0.00648774 -0.00359705 -0.02093798
v -0.00834196 -0.00362142 -0.02032079
v -0.00931765 -0.00337946 -0.02132297
v -0.00876705 0.00279711 -0.05402825
v -0.00834196 0.00375232 -0.05433990
v 0.00834196 0.00494194 -0.05433990
v 0.00397564 0.00001043 0.00686639
v 0.00891280 0.00494194 -0.01669094
v 0.00030769 0.00033219 0.00748970
v 0.00030769 0.00003059 0.00795412
v 0.00092509 0.00002135 0.00792968
v 0.00277930 0.00003311 0.00740415
v 0.00154451 -0.00003914 0.00788080
v 0.00339873 -0.00006686 0.00727582
v 0.00568411 -0.00224110 0.00484981
v 0.00586022 -0.00242172 0.00438538
v 0.00606265 -0.00262923 0.00378041
v 0.00562338 -0.00278214 0.00417151
v 0.00575294 -0.00286531 0.00378041
v 0.00550193 -0.00204283 0.00526535
v 0.00502218 -0.00160345 0.00601087
v 0.00526104 -0.00182356 0.00564422
v 0.00484202 -0.00057262 0.00648752
v 0.00374285 -0.00019708 0.00719638
v 0.00473878 -0.00119095 0.00640808
v 0.00520639 -0.00318035 0.00374375
v 0.00480558 -0.00330385 0.00392096
v 0.00439264 -0.00337610 0.00415928
v 0.00461328 -0.00341139 0.00374375
v 0.00401612 -0.00353236 0.00378041
v 0.00339873 -0.00363402 0.00316321
v 0.00339873 -0.00360461 0.00378041
v -0.00710514 -0.00363906 -0.01970359
v 0.00339873 -0.00363906 0.00254602
v -0.00772456 -0.00363486 -0.01970359
v -0.00895936 0.00375232 -0.05426046
v -0.00896745 0.00310795 -0.05412602
v -0.01004233 0.00015913 -0.03947220
v -0.00995529 0.00277610 -0.05290996
v -0.00942089 0.00277022 -0.05353327
v -0.00834196 -0.00362142 -0.01970359
v -0.00895936 -0.00354917 -0.02032079
v -0.00935206 -0.00340131 -0.02093798
v -0.00997958 -0.00285103 -0.02217849
v -0.00994922 -0.00280734 -0.02257569
v -0.00917798 0.00288448 -0.05394269
v -0.00834196 0.00494194 -0.05433990
v -0.00891280 0.00494194 -0.05426657
v 0.00834196 0.00494194 -0.01665428
v -0.00030769 0.00033219 0.00748970
v 0.00030769 -0.00057262 0.00808856
v -0.00030769 0.00003059 0.00795412
v 0.00092509 -0.00057262 0.00803967
v 0.00199592 -0.00015004 0.00783191
v 0.00509100 -0.00225118 0.00546089
v 0.00527319 -0.00245281 0.00503925
v 0.00545537 -0.00265360 0.00458704
v 0.00504445 -0.00279978 0.00481314
v 0.00525092 -0.00289555 0.00438538
v 0.00486024 -0.00201511 0.00587032
v 0.00434203 -0.00151859 0.00657307
v 0.00460113 -0.00176727 0.00623086
v 0.00453231 -0.00057262 0.00669529
v 0.00442907 -0.00119095 0.00662807
v 0.00277930 -0.00057262 0.00759358
v 0.00339873 -0.00057262 0.00734304
v 0.00373273 -0.00057262 0.00719638
v 0.00404244 -0.00057262 0.00700694
v 0.00461328 -0.00321144 0.00437927
v 0.00417807 -0.00330889 0.00457482
v 0.00376714 -0.00337022 0.00475204
v 0.00398981 -0.00341643 0.00437927
v 0.00339873 -0.00352228 0.00439761
v 0.00277930 -0.00363318 0.00378041
v 0.00216191 -0.00363906 0.00378041
v 0.00277930 -0.00359285 0.00439761
v 0.00216191 -0.00362310 0.00439761
v -0.00401612 -0.00363906 0.00130552
v -0.00401612 -0.00363822 0.00192882
v -0.00463352 -0.00362814 0.00130552
v -0.00933992 0.00329614 -0.05405880
v -0.00937433 0.00375232 -0.05408936
v -0.00934397 0.00494194 -0.05410769
v -0.00895936 0.00494194 -0.05426046
v -0.01010914 0.00011292 -0.03885500
v -0.01021642 0.00313484 -0.05245165
v -0.01006055 0.00310795 -0.05309329
v -0.00983181 0.00288448 -0.05331939
v -0.00463352 -0.00361386 0.00192882
v -0.00895936 -0.00353236 -0.01970359
v -0.00934801 -0.00340215 -0.01970359
v -0.00936218 -0.00341055 -0.02032079
v -0.00965975 -0.00316775 -0.02093798
v -0.01019011 -0.00242676 -0.02217849
v -0.00966987 -0.00316775 -0.02032079
v -0.00997958 -0.00285943 -0.02155518
v -0.00958688 0.00309031 -0.05369826
v -0.00838852 0.00494194 -0.01665428
v -0.00092508 0.00032295 0.00748970
v -0.00895936 0.00494194 -0.01669705
v -0.00030769 -0.00057262 0.00808856
v 0.00030769 -0.00119095 0.00797246
v -0.00092508 0.00002135 0.00792968
v 0.00092509 -0.00119095 0.00792357
v 0.00149188 -0.00116070 0.00784413
v 0.00154451 -0.00057262 0.00794190
v 0.00200806 -0.00057262 0.00783191
v 0.00231575 -0.00057262 0.00775857
v 0.00483392 -0.00266368 0.00522868
v 0.00444729 -0.00222346 0.00603532
v 0.00464162 -0.00244357 0.00563811
v 0.00442300 -0.00278886 0.00540590
v 0.00463150 -0.00290311 0.00502091
v 0.00395540 -0.00112962 0.00694583
v 0.00355662 -0.00129428 0.00711082
v 0.00396754 -0.00175803 0.00665862
v 0.00414163 -0.00193109 0.00645085
v 0.00370641 -0.00088262 0.00717804
v 0.00277930 -0.00119095 0.00747136
v 0.00398981 -0.00319716 0.00498425
v 0.00339873 -0.00330133 0.00519202
v 0.00305663 -0.00334670 0.00530201
v 0.00339873 -0.00340803 0.00488036
v 0.00282181 -0.00345507 0.00506369
v 0.00216191 -0.00354665 0.00501480
v 0.00154451 -0.00363402 0.00439761
v -0.00216191 -0.00363906 0.00378041
v 0.00154451 -0.00358277 0.00501480
v -0.00339873 -0.00363906 0.00254602
v -0.00339873 -0.00363402 0.00316321
v -0.00401612 -0.00363066 0.00254602
v -0.00995529 0.00329614 -0.05344771
v -0.00968404 0.00375232 -0.05379603
v -0.00937433 0.00494194 -0.05408936
v -0.01033180 0.00066236 -0.03885500
v -0.01033990 0.00375232 -0.05245165
v -0.01021642 0.00375232 -0.05306884
v -0.00401612 -0.00360209 0.00316321
v -0.00463352 -0.00357941 0.00254602
v -0.00525294 -0.00351724 0.00192882
v -0.00567399 -0.00339878 0.00192882
v -0.00598370 -0.00326269 0.00192882
v -0.00931360 -0.00338030 -0.01927583
v -0.00965773 -0.00315935 -0.01970359
v -0.01032371 -0.00180843 -0.02217849
v -0.01030549 -0.00180843 -0.02279568
v -0.01019213 -0.00242676 -0.02155518
v -0.00997553 -0.00285019 -0.01970359
v -0.00997958 -0.00285859 -0.02032079
v -0.01019213 -0.00242676 -0.02032079
v -0.00154451 0.00025826 0.00748970
v -0.00277930 0.00033555 0.00687250
v -0.00937433 0.00494194 -0.01683149
v -0.00092508 -0.00057262 0.00803967
v -0.00030769 -0.00119095 0.00797246
v -0.00030769 -0.00158160 0.00783801
v 0.00030769 -0.00157908 0.00783801
v 0.00092509 -0.00153960 0.00781357
v 0.00125099 -0.00150683 0.00780135
v -0.00154451 -0.00004334 0.00788080
v 0.00191697 -0.00093555 0.00781357
v 0.00414770 -0.00263511 0.00582143
v 0.00372868 -0.00213440 0.00657307
v 0.00393920 -0.00238476 0.00620642
v 0.00397159 -0.00286195 0.00561978
v 0.00373475 -0.00274937 0.00596198
v 0.00337039 -0.00112962 0.00724526
v 0.00314569 -0.00154632 0.00720249
v 0.00337039 -0.00177483 0.00697027
v 0.00213761 -0.00116070 0.00769135
v 0.00277930 -0.00168410 0.00727582
v 0.00339873 -0.00307534 0.00563200
v 0.00282181 -0.00325176 0.00561978
v 0.00216191 -0.00330217 0.00582143
v 0.00264368 -0.00338618 0.00540590
v 0.00216191 -0.00341979 0.00551589
v -0.00154451 -0.00363402 0.00439761
v -0.00277930 -0.00363318 0.00378041
v 0.00154451 -0.00344499 0.00555867
v -0.00154451 -0.00358277 0.00501480
v -0.00339873 -0.00360461 0.00378041
v -0.00999173 0.00375232 -0.05348438
v -0.00968404 0.00494194 -0.05379603
v -0.01033990 0.00066236 -0.03823781
v -0.01033990 0.00494194 -0.05245165
v -0.01021642 0.00494194 -0.05306884
v -0.01020023 0.00494194 -0.05309940
v -0.00463352 -0.00351052 0.00316321
v -0.00401612 -0.00353236 0.00378041
v -0.00528331 -0.00343659 0.00253991
v -0.00559707 -0.00336938 0.00233825
v -0.00551002 -0.00333578 0.00274768
v -0.00582986 -0.00321144 0.00253991
v -0.00637641 -0.00288043 0.00254602
v -0.00653227 -0.00292496 0.00192882
v -0.00682377 -0.00276029 0.00172105
v -0.00993910 -0.00280146 -0.01908640
v -0.01033990 -0.00119095 -0.02279568
v -0.01032371 -0.00180843 -0.02032079
v -0.01013140 -0.00242676 -0.01908640
v -0.01018201 -0.00242676 -0.01970359
v -0.01032168 -0.00180843 -0.01970359
v -0.00339873 0.00023474 0.00687250
v -0.00277930 0.00003311 0.00740415
v -0.00401612 0.00033135 0.00624919
v -0.00939862 0.00494194 -0.01685594
v -0.00587034 0.00033807 0.00439761
v -0.00525294 0.00033891 0.00501480
v -0.00463352 0.00033807 0.00563200
v -0.00199389 -0.00015508 0.00783191
v -0.00154451 -0.00057262 0.00794190
v -0.00149188 -0.00116070 0.00784413
v -0.00092508 -0.00119095 0.00792357
v -0.00125099 -0.00150683 0.00780135
v -0.00092508 -0.00154296 0.00781357
v -0.00154451 -0.00226798 0.00729415
v 0.00154451 -0.00226798 0.00729415
v 0.00149188 -0.00175131 0.00761192
v 0.00221454 -0.00186640 0.00737359
v 0.00166191 -0.00134721 0.00775246
v 0.00277930 -0.00199242 0.00711082
v 0.00339873 -0.00223522 0.00665862
v 0.00339873 -0.00254438 0.00636530
v 0.00292100 -0.00266956 0.00648752
v 0.00339873 -0.00281910 0.00605365
v 0.00245745 -0.00211088 0.00717193
v 0.00274084 -0.00289219 0.00627364
v 0.00216191 -0.00305350 0.00624919
v 0.00154451 -0.00283506 0.00670140
v -0.00216191 -0.00362310 0.00439761
v -0.00154451 -0.00344499 0.00555867
v -0.00216191 -0.00341979 0.00551589
v -0.00216191 -0.00354665 0.00501480
v -0.00277930 -0.00359285 0.00439761
v -0.00339873 -0.00352228 0.00439761
v -0.00999173 0.00494194 -0.05348438
v -0.01033990 0.00494194 -0.02155518
v -0.00461328 -0.00341139 0.00374375
v -0.00497157 -0.00336518 0.00351153
v -0.00508088 -0.00339962 0.00316321
v -0.00398981 -0.00341643 0.00437927
v -0.00439264 -0.00337610 0.00415928
v -0.00538857 -0.00328117 0.00316321
v -0.00592500 -0.00296528 0.00321210
v -0.00676709 -0.00270905 0.00213659
v -0.00626507 -0.00280398 0.00303489
v -0.00702214 -0.00247213 0.00192882
v -0.00745129 -0.00216465 0.00117108
v -0.01033990 -0.00119095 -0.01970359
v -0.01029942 -0.00180843 -0.01908640
v -0.00758084 -0.00186304 0.00134829
v -0.00786423 -0.00119095 0.00130552
v -0.01032573 -0.00119095 -0.01908640
v -0.00397564 0.00001043 0.00686639
v -0.00339873 -0.00006686 0.00727582
v -0.00466389 0.00009024 0.00629197
v -0.00530760 0.00009612 0.00569311
v -0.00970024 0.00494194 -0.01722259
v -0.00648774 0.00031119 0.00378041
v -0.00592095 0.00009612 0.00506369
v -0.00277930 -0.00057262 0.00759358
v -0.00231575 -0.00057262 0.00775857
v -0.00374285 -0.00019708 0.00719638
v -0.00191697 -0.00093555 0.00781357
v -0.00166191 -0.00134721 0.00775246
v -0.00221454 -0.00186640 0.00737359
v -0.00149188 -0.00175131 0.00761192
v -0.00204450 -0.00218817 0.00723304
v -0.00221454 -0.00240744 0.00698861
v -0.00154451 -0.00257715 0.00700694
v 0.00154451 -0.00257715 0.00700694
v 0.00221454 -0.00240660 0.00698861
v 0.00204450 -0.00218817 0.00723304
v 0.00274084 -0.00244861 0.00676251
v 0.00251008 -0.00274853 0.00657307
v 0.00216191 -0.00279642 0.00663418
v -0.00154451 -0.00283506 0.00670140
v -0.00216191 -0.00330217 0.00582143
v -0.00264368 -0.00338618 0.00540590
v -0.00282181 -0.00345507 0.00506369
v -0.00339873 -0.00340803 0.00488036
v -0.00376714 -0.00337022 0.00475204
v -0.01033990 0.00189818 -0.01970359
v -0.01032775 0.00494194 -0.01913528
v -0.00480558 -0.00330385 0.00392096
v -0.00520639 -0.00318035 0.00374375
v -0.00417806 -0.00330889 0.00457482
v -0.00575294 -0.00286531 0.00378041
v -0.00616791 -0.00272585 0.00345042
v -0.00668612 -0.00262671 0.00254602
v -0.00696142 -0.00231755 0.00254602
v -0.00740878 -0.00210584 0.00158661
v -0.00802415 -0.00078349 0.00088998
v -0.00804237 -0.00037183 0.00105497
v -0.00753023 -0.00172274 0.00192882
v -0.00773468 -0.00119095 0.00192882
v -0.00785411 -0.00057262 0.00192882
v -0.00798569 -0.00057514 0.00128107
v -0.01032573 0.00494194 -0.01908640
v -0.00447968 -0.00007443 0.00666473
v -0.00513959 -0.00006519 0.00610864
v -0.00574686 -0.00006435 0.00552200
v -0.00990469 0.00494194 -0.01750980
v -0.00698773 0.00000875 0.00378041
v -0.00651406 0.00007427 0.00440372
v -0.00632580 -0.00006519 0.00489259
v -0.00339873 -0.00057262 0.00734304
v -0.00370641 -0.00088262 0.00717804
v -0.00277930 -0.00119095 0.00747136
v -0.00404244 -0.00057262 0.00700694
v -0.00373273 -0.00057262 0.00719638
v -0.00484202 -0.00057262 0.00648752
v -0.00453231 -0.00057262 0.00669529
v -0.00213761 -0.00116070 0.00769135
v -0.00277930 -0.00168410 0.00727582
v -0.00245745 -0.00211088 0.00717193
v -0.00251008 -0.00274853 0.00657307
v -0.00216191 -0.00279642 0.00663418
v -0.00216191 -0.00305434 0.00624919
v -0.00282181 -0.00325176 0.00561978
v -0.00305663 -0.00334670 0.00530201
v -0.00339873 -0.00330133 0.00519202
v -0.00398981 -0.00319716 0.00498425
v -0.00461328 -0.00321144 0.00437927
v -0.00525092 -0.00289555 0.00438538
v -0.00562338 -0.00278214 0.00417151
v -0.00463150 -0.00290311 0.00502091
v -0.00677923 -0.00209156 0.00343209
v -0.00652215 -0.00246625 0.00323654
v -0.00606265 -0.00262923 0.00378041
v -0.00636831 -0.00232007 0.00378041
v -0.00686830 -0.00220581 0.00302267
v -0.00736627 -0.00203107 0.00192882
v -0.00804237 -0.00022733 0.00105497
v -0.00746748 -0.00160261 0.00238103
v -0.00753833 -0.00121195 0.00257046
v -0.00767598 -0.00057262 0.00254602
v -0.00747760 -0.00010551 0.00300433
v -0.01025691 0.00494194 -0.01851198
v -0.00521651 -0.00057262 0.00617586
v -0.00552622 -0.00057262 0.00591310
v -0.00613147 -0.00057262 0.00527146
v -0.00582378 -0.00057262 0.00560144
v -0.00991683 0.00494194 -0.01753424
v -0.00756060 0.00000371 0.00254602
v -0.00686830 -0.00010047 0.00420206
v -0.00638450 -0.00057262 0.00495980
v -0.00355662 -0.00129428 0.00711082
v -0.00337039 -0.00112962 0.00724526
v -0.00442907 -0.00119095 0.00662807
v -0.00395540 -0.00112962 0.00694583
v -0.00314569 -0.00154632 0.00720249
v -0.00473878 -0.00119095 0.00640808
v -0.00512744 -0.00119095 0.00610253
v -0.00277930 -0.00199242 0.00711082
v -0.00339873 -0.00223522 0.00665862
v -0.00274084 -0.00244861 0.00676251
v -0.00292100 -0.00266956 0.00648752
v -0.00274084 -0.00289219 0.00627364
v -0.00339873 -0.00307534 0.00563200
v -0.00397159 -0.00286195 0.00561978
v -0.00442300 -0.00278886 0.00540590
v -0.00504445 -0.00279978 0.00481314
v -0.00545537 -0.00265360 0.00458704
v -0.00586022 -0.00242172 0.00438538
v -0.00701000 -0.00185464 0.00319988
v -0.00728530 -0.00180843 0.00257046
v -0.00624281 -0.00219069 0.00418373
v -0.00669017 -0.00185464 0.00382319
v -0.00689664 -0.00167990 0.00364597
v -0.01025083 0.00494194 -0.01846920
v -0.00739258 -0.00143206 0.00279656
v -0.00745736 -0.00102040 0.00295545
v -0.00749380 -0.00057262 0.00304100
v -0.00736424 -0.00057262 0.00335265
v -0.00543715 -0.00119095 0.00583366
v -0.00574686 -0.00119095 0.00552200
v -0.00605657 -0.00119095 0.00517980
v -0.00631163 -0.00119095 0.00487425
v -0.01005650 0.00494194 -0.01785200
v -0.01007067 0.00494194 -0.01789478
v -0.00688652 -0.00057262 0.00423872
v -0.00669219 -0.00057262 0.00454427
v -0.00714562 -0.00057262 0.00378041
v -0.00434203 -0.00151859 0.00657307
v -0.00396754 -0.00175803 0.00665862
v -0.00337039 -0.00177483 0.00697027
v -0.00502218 -0.00160345 0.00601087
v -0.00372868 -0.00213440 0.00657307
v -0.00339873 -0.00254438 0.00636530
v -0.00373475 -0.00274937 0.00596198
v -0.00339873 -0.00281910 0.00605365
v -0.00483392 -0.00266368 0.00522868
v -0.00414770 -0.00263511 0.00582143
v -0.00527319 -0.00245281 0.00503925
v -0.00568411 -0.00224110 0.00484981
v -0.00609706 -0.00199830 0.00459926
v -0.00636021 -0.00179919 0.00439150
v -0.00677721 -0.00144382 0.00405540
v -0.00698368 -0.00121867 0.00382319
v -0.00731161 -0.00121195 0.00316321
v -0.00564565 -0.00163117 0.00541812
v -0.00623066 -0.00158664 0.00477037
v -0.00684603 -0.00103216 0.00417151
v -0.00664361 -0.00121867 0.00438538
v -0.00460113 -0.00176727 0.00623086
v -0.00414163 -0.00193109 0.00645085
v -0.00526104 -0.00182356 0.00564422
v -0.00486024 -0.00201511 0.00587032
v -0.00444729 -0.00222346 0.00603532
v -0.00393920 -0.00238476 0.00620642
v -0.00464162 -0.00244357 0.00563811
v -0.00509100 -0.00225118 0.00546089
v -0.00550193 -0.00204283 0.00526535
v -0.00587237 -0.00181432 0.00501480
f 1 2 3
f 1 3 8
f 1 8 4
f 1 4 11
f 1 11 21
f 1 21 12
f 1 12 5
f 1 5 6
f 1 6 2
f 2 6 13
f 2 13 23
f 2 23 41
f 2 41 62
f 2 62 94
f 2 94 125
f 2 125 165
f 2 165 164
f 2 164 163
f 2 163 204
f 2 204 245
f 2 245 246
f 2 246 282
f 2 282 281
f 2 281 332
f 2 332 381
f 2 381 434
f 2 434 385
f 2 385 384
f 2 384 383
f 2 383 435
f 2 435 482
f 2 482 497
f 2 497 537
f 2 537 569
f 2 569 579
f 2 579 578
f 2 578 542
f 2 542 501
f 2 501 456
f 2 456 404
f 2 404 351
f 2 351 298
f 2 298 296
f 2 296 247
f 2 247 206
f 2 206 167
f 2 167 128
f 2 128 99
f 2 99 98
f 2 98 97
f 2 97 65
f 2 65 44
f 2 44 42
f 2 42 24
f 2 24 14
f 2 14 7
f 2 7 3
f 3 7 8
f 4 8 9
f 4 9 10
f 4 10 20
f 4 20 11
f 5 12 13
f 5 13 6
f 7 14 15
f 7 15 16
f 7 16 8
f 8 17 9
f 8 16 17
f 9 18 19
f 9 19 10
f 9 17 18
f 10 19 35
f 10 35 20
f 11 20 21
f 12 21 22
f 12 22 13
f 13 22 23
f 14 24 25
f 14 25 15
f 15 25 26
f 15 26 27
f 15 27 16
f 16 27 28
f 16 28 29
f 16 29 17
f 17 30 18
f 17 29 31
f 17 31 30
f 18 32 33
f 18 33 19
f 18 30 32
f 19 33 34
f 19 34 35
f 20 36 37
f 20 37 38
f 20 38 21
f 20 35 36
f 21 38 22
f 22 39 40
f 22 40 23
f 22 38 39
f 23 40 41
f 24 42 25
f 25 43 26
f 25 42 44
f 25 44 43
f 26 45 46
f 26 46 47
f 26 47 27
f 26 43 48
f 26 48 45
f 27 47 49
f 27 49 31
f 27 31 28
f 28 31 29
f 30 50 32
f 30 31 51
f 30 51 52
f 30 52 50
f 31 49 53
f 31 53 51
f 32 54 55
f 32 55 33
f 32 50 54
f 33 55 34
f 34 55 56
f 34 56 36
f 34 36 35
f 36 56 57
f 36 57 38
f 36 38 37
f 38 57 39
f 39 58 59
f 39 59 40
f 39 57 58
f 40 59 60
f 40 60 61
f 40 61 62
f 40 62 41
f 43 63 64
f 43 64 48
f 43 44 63
f 44 65 63
f 45 66 67
f 45 67 46
f 45 48 68
f 45 68 69
f 45 69 66
f 46 67 47
f 47 67 70
f 47 70 49
f 48 64 71
f 48 71 72
f 48 72 73
f 48 73 74
f 48 74 68
f 49 70 75
f 49 75 53
f 50 52 76
f 50 76 54
f 51 53 77
f 51 77 52
f 52 77 78
f 52 78 76
f 53 75 79
f 53 79 77
f 54 80 81
f 54 81 82
f 54 82 55
f 54 76 80
f 55 82 83
f 55 83 56
f 56 84 57
f 56 83 85
f 56 85 86
f 56 86 84
f 57 87 58
f 57 84 86
f 57 86 87
f 58 88 89
f 58 89 59
f 58 87 90
f 58 90 88
f 59 89 60
f 60 89 91
f 60 91 92
f 60 92 93
f 60 93 61
f 61 93 94
f 61 94 62
f 63 95 96
f 63 96 64
f 63 65 97
f 63 97 98
f 63 98 99
f 63 99 95
f 64 96 71
f 66 100 67
f 66 69 101
f 66 101 100
f 67 100 70
f 68 74 102
f 68 102 69
f 69 102 103
f 69 103 101
f 70 100 75
f 71 96 104
f 71 104 105
f 71 105 72
f 72 105 106
f 72 106 73
f 73 102 74
f 73 106 102
f 75 100 107
f 75 107 79
f 76 78 108
f 76 108 109
f 76 109 80
f 77 79 110
f 77 110 78
f 78 110 108
f 79 107 111
f 79 111 110
f 80 109 112
f 80 112 81
f 81 113 114
f 81 114 82
f 81 112 115
f 81 115 113
f 82 114 85
f 82 85 83
f 85 114 86
f 86 114 116
f 86 116 90
f 86 90 87
f 88 117 118
f 88 118 119
f 88 119 89
f 88 90 117
f 89 119 91
f 90 120 117
f 90 116 121
f 90 121 120
f 91 119 92
f 92 122 123
f 92 123 124
f 92 124 93
f 92 119 122
f 93 124 125
f 93 125 94
f 95 126 127
f 95 127 96
f 95 99 126
f 96 127 104
f 99 128 129
f 99 129 130
f 99 130 131
f 99 131 126
f 100 101 132
f 100 132 107
f 101 103 133
f 101 133 134
f 101 134 132
f 102 106 135
f 102 135 103
f 103 135 136
f 103 136 137
f 103 137 133
f 104 138 105
f 104 127 139
f 104 139 140
f 104 140 138
f 105 138 141
f 105 141 142
f 105 142 106
f 106 136 135
f 106 142 136
f 107 132 134
f 107 134 111
f 108 110 143
f 108 143 144
f 108 144 145
f 108 145 109
f 109 145 112
f 110 111 143
f 111 134 146
f 111 146 143
f 112 145 147
f 112 147 148
f 112 148 149
f 112 149 115
f 113 115 150
f 113 150 151
f 113 151 114
f 114 151 152
f 114 152 116
f 115 149 153
f 115 153 150
f 116 152 154
f 116 154 155
f 116 155 121
f 117 120 118
f 118 120 156
f 118 156 157
f 118 157 122
f 118 122 119
f 120 158 159
f 120 159 160
f 120 160 194
f 120 194 156
f 120 121 158
f 121 155 161
f 121 161 159
f 121 159 158
f 122 157 123
f 123 162 204
f 123 204 163
f 123 163 164
f 123 164 124
f 123 157 162
f 124 165 125
f 124 164 165
f 126 131 127
f 127 131 130
f 127 130 166
f 127 166 139
f 128 167 129
f 129 168 169
f 129 169 170
f 129 170 130
f 129 167 168
f 130 170 166
f 133 137 171
f 133 171 134
f 134 172 146
f 134 171 173
f 134 173 172
f 136 142 174
f 136 174 175
f 136 175 176
f 136 176 137
f 137 176 171
f 138 140 141
f 139 177 140
f 139 166 178
f 139 178 177
f 140 177 179
f 140 179 180
f 140 180 141
f 141 174 142
f 141 180 174
f 143 146 172
f 143 172 144
f 144 172 181
f 144 181 145
f 145 181 147
f 147 181 148
f 148 181 182
f 148 182 183
f 148 183 184
f 148 184 153
f 148 153 149
f 150 153 185
f 150 185 186
f 150 186 151
f 151 186 187
f 151 187 188
f 151 188 189
f 151 189 152
f 152 189 154
f 153 184 185
f 154 190 155
f 154 189 191
f 154 191 192
f 154 192 190
f 155 190 231
f 155 231 193
f 155 193 198
f 155 198 161
f 156 194 195
f 156 195 157
f 157 195 203
f 157 203 162
f 159 196 197
f 159 197 160
f 159 161 198
f 159 198 199
f 159 199 200
f 159 200 201
f 159 201 196
f 160 197 202
f 160 202 194
f 162 203 245
f 162 245 204
f 166 170 205
f 166 205 178
f 167 206 168
f 168 207 208
f 168 208 209
f 168 209 169
f 168 206 207
f 169 210 170
f 169 209 211
f 169 211 210
f 170 210 212
f 170 212 205
f 171 176 213
f 171 213 214
f 171 214 215
f 171 215 173
f 172 173 215
f 172 215 216
f 172 216 217
f 172 217 181
f 174 218 175
f 174 180 219
f 174 219 220
f 174 220 218
f 175 218 176
f 176 218 213
f 177 178 221
f 177 221 179
f 178 205 212
f 178 212 222
f 178 222 221
f 179 219 180
f 179 221 223
f 179 223 219
f 181 217 182
f 182 217 224
f 182 224 183
f 183 185 184
f 183 224 225
f 183 225 226
f 183 226 227
f 183 227 185
f 185 227 228
f 185 228 187
f 185 187 186
f 187 229 188
f 187 228 230
f 187 230 229
f 188 229 191
f 188 191 189
f 190 192 232
f 190 232 273
f 190 273 325
f 190 325 327
f 190 327 276
f 190 276 231
f 191 229 232
f 191 232 192
f 193 231 233
f 193 233 200
f 193 200 199
f 193 199 198
f 194 202 195
f 195 234 203
f 195 202 235
f 195 235 234
f 196 236 237
f 196 237 238
f 196 238 197
f 196 201 236
f 197 238 202
f 200 233 239
f 200 239 240
f 200 240 201
f 201 240 241
f 201 241 242
f 201 242 243
f 201 243 236
f 202 238 244
f 202 244 235
f 203 234 246
f 203 246 245
f 206 247 207
f 207 248 250
f 207 250 208
f 207 247 296
f 207 296 248
f 208 249 209
f 208 250 299
f 208 299 249
f 209 249 251
f 209 251 211
f 210 211 252
f 210 252 212
f 211 251 252
f 212 252 222
f 213 218 253
f 213 253 254
f 213 254 255
f 213 255 214
f 214 255 216
f 214 216 215
f 216 255 256
f 216 256 257
f 216 257 224
f 216 224 217
f 218 220 258
f 218 258 253
f 219 223 259
f 219 259 260
f 219 260 258
f 219 258 220
f 221 222 261
f 221 261 262
f 221 262 223
f 222 252 263
f 222 263 264
f 222 264 265
f 222 265 266
f 222 266 261
f 223 262 259
f 224 257 267
f 224 267 225
f 225 267 268
f 225 268 226
f 226 228 227
f 226 268 269
f 226 269 270
f 226 270 228
f 228 270 271
f 228 271 230
f 229 230 272
f 229 272 273
f 229 273 232
f 230 271 274
f 230 274 275
f 230 275 272
f 231 276 233
f 233 276 277
f 233 277 278
f 233 278 239
f 234 235 279
f 234 279 280
f 234 280 281
f 234 281 282
f 234 282 246
f 235 244 279
f 236 243 242
f 236 242 283
f 236 283 237
f 237 284 285
f 237 285 286
f 237 286 238
f 237 283 284
f 238 286 244
f 239 278 287
f 239 287 240
f 240 287 288
f 240 288 289
f 240 289 290
f 240 290 241
f 241 290 291
f 241 291 242
f 242 292 283
f 242 291 293
f 242 293 294
f 242 294 292
f 244 286 295
f 244 295 279
f 248 297 250
f 248 296 298
f 248 298 297
f 249 299 353
f 249 353 300
f 249 300 302
f 249 302 251
f 250 301 299
f 250 297 301
f 251 302 303
f 251 303 304
f 251 304 252
f 252 304 305
f 252 305 306
f 252 306 263
f 253 307 254
f 253 258 308
f 253 308 309
f 253 309 307
f 254 307 255
f 255 307 256
f 256 307 310
f 256 310 311
f 256 311 267
f 256 267 257
f 258 260 308
f 259 262 312
f 259 312 313
f 259 313 314
f 259 314 315
f 259 315 260
f 260 315 308
f 261 266 316
f 261 316 262
f 262 316 312
f 263 317 316
f 263 316 264
f 263 306 317
f 264 316 265
f 265 316 266
f 267 311 268
f 268 311 318
f 268 318 269
f 269 318 319
f 269 319 320
f 269 320 321
f 269 321 271
f 269 271 270
f 271 321 322
f 271 322 323
f 271 323 274
f 272 275 324
f 272 324 273
f 273 324 375
f 273 375 325
f 274 323 326
f 274 326 275
f 275 326 324
f 276 327 277
f 277 327 328
f 277 328 329
f 277 329 278
f 278 329 287
f 279 295 330
f 279 330 331
f 279 331 280
f 280 331 381
f 280 381 332
f 280 332 281
f 283 333 284
f 283 292 333
f 284 334 335
f 284 335 285
f 284 333 334
f 285 335 330
f 285 330 286
f 286 330 295
f 287 329 336
f 287 336 337
f 287 337 338
f 287 338 288
f 288 338 339
f 288 339 289
f 289 339 340
f 289 340 341
f 289 341 342
f 289 342 290
f 290 342 293
f 290 293 291
f 292 343 344
f 292 344 333
f 292 294 345
f 292 345 343
f 293 342 346
f 293 346 347
f 293 347 294
f 294 347 348
f 294 348 345
f 297 349 301
f 297 298 350
f 297 350 349
f 298 351 350
f 299 352 411
f 299 411 353
f 299 301 352
f 300 353 354
f 300 354 355
f 300 355 356
f 300 356 357
f 300 357 302
f 301 358 352
f 301 349 358
f 302 357 303
f 303 357 359
f 303 359 304
f 304 359 305
f 305 359 306
f 306 359 317
f 307 309 360
f 307 360 310
f 308 315 361
f 308 361 362
f 308 362 360
f 308 360 309
f 310 363 318
f 310 318 311
f 310 360 364
f 310 364 363
f 312 316 313
f 313 316 365
f 313 365 366
f 313 366 367
f 313 367 314
f 314 361 315
f 314 367 361
f 316 317 365
f 317 359 368
f 317 368 369
f 317 369 366
f 317 366 365
f 318 363 370
f 318 370 319
f 319 370 320
f 320 370 371
f 320 371 372
f 320 372 373
f 320 373 322
f 320 322 321
f 322 373 374
f 322 374 323
f 323 374 326
f 324 326 378
f 324 378 375
f 325 375 376
f 325 376 328
f 325 328 327
f 326 374 377
f 326 377 429
f 326 429 378
f 328 336 329
f 328 376 379
f 328 379 336
f 330 380 331
f 330 335 380
f 331 380 434
f 331 434 381
f 333 344 343
f 333 343 382
f 333 382 334
f 334 383 384
f 334 384 335
f 334 382 396
f 334 396 447
f 334 447 481
f 334 481 435
f 334 435 383
f 335 384 385
f 335 385 380
f 336 386 337
f 336 379 387
f 336 387 386
f 337 386 338
f 338 386 388
f 338 388 339
f 339 388 389
f 339 389 340
f 340 389 390
f 340 390 391
f 340 391 392
f 340 392 393
f 340 393 341
f 341 393 394
f 341 394 342
f 342 395 346
f 342 394 395
f 343 396 382
f 343 345 348
f 343 348 397
f 343 397 447
f 343 447 396
f 346 395 398
f 346 398 399
f 346 399 348
f 346 348 347
f 348 399 400
f 348 400 397
f 349 350 401
f 349 401 402
f 349 402 358
f 350 403 401
f 350 351 403
f 351 404 405
f 351 405 406
f 351 406 407
f 351 407 403
f 352 358 408
f 352 408 409
f 352 409 410
f 352 410 411
f 353 411 412
f 353 412 413
f 353 413 354
f 354 413 414
f 354 414 415
f 354 415 355
f 355 415 356
f 356 415 357
f 357 415 416
f 357 416 417
f 357 417 418
f 357 418 359
f 358 402 408
f 359 418 368
f 360 362 364
f 361 367 419
f 361 419 420
f 361 420 421
f 361 421 362
f 362 421 364
f 363 364 370
f 364 421 422
f 364 422 423
f 364 423 370
f 366 369 419
f 366 419 367
f 368 418 417
f 368 417 369
f 369 424 419
f 369 417 424
f 370 423 425
f 370 425 371
f 371 425 426
f 371 426 372
f 372 426 427
f 372 427 377
f 372 377 374
f 372 374 373
f 375 428 376
f 375 378 428
f 376 428 379
f 377 427 475
f 377 475 429
f 378 429 430
f 378 430 431
f 378 431 432
f 378 432 428
f 379 428 432
f 379 432 433
f 379 433 387
f 380 385 434
f 386 387 436
f 386 436 437
f 386 437 438
f 386 438 388
f 387 433 439
f 387 439 440
f 387 440 436
f 388 438 390
f 388 390 389
f 390 438 437
f 390 437 441
f 390 441 442
f 390 442 391
f 391 442 392
f 392 443 393
f 392 442 444
f 392 444 443
f 393 443 394
f 394 443 445
f 394 445 446
f 394 446 395
f 395 446 398
f 397 400 447
f 398 448 399
f 398 446 449
f 398 449 450
f 398 450 448
f 399 448 400
f 400 448 451
f 400 451 447
f 401 452 453
f 401 453 402
f 401 403 454
f 401 454 452
f 402 453 408
f 403 455 454
f 403 407 455
f 404 456 457
f 404 457 405
f 405 457 458
f 405 458 455
f 405 455 406
f 406 455 407
f 408 459 460
f 408 460 409
f 408 453 461
f 408 461 459
f 409 462 410
f 409 460 462
f 410 462 412
f 410 412 411
f 412 462 463
f 412 463 464
f 412 464 465
f 412 465 414
f 412 414 413
f 414 466 467
f 414 467 468
f 414 468 469
f 414 469 415
f 414 465 466
f 415 469 470
f 415 470 471
f 415 471 416
f 416 471 417
f 417 471 424
f 419 424 420
f 420 422 421
f 420 424 472
f 420 472 422
f 422 472 473
f 422 473 425
f 422 425 423
f 424 471 470
f 424 470 473
f 424 473 472
f 425 473 474
f 425 474 426
f 426 474 427
f 427 474 469
f 427 469 468
f 427 468 475
f 429 475 476
f 429 476 430
f 430 477 478
f 430 478 431
f 430 476 477
f 431 478 433
f 431 433 432
f 433 478 479
f 433 479 480
f 433 480 439
f 435 481 482
f 436 440 437
f 437 440 483
f 437 483 484
f 437 484 441
f 439 480 440
f 440 480 485
f 440 485 483
f 441 484 486
f 441 486 442
f 442 487 444
f 442 486 487
f 443 444 488
f 443 488 489
f 443 489 445
f 444 487 488
f 445 490 446
f 445 489 490
f 446 490 449
f 447 451 482
f 447 482 481
f 448 450 491
f 448 491 492
f 448 492 451
f 449 490 493
f 449 493 450
f 450 493 494
f 450 494 495
f 450 495 496
f 450 496 491
f 451 497 482
f 451 492 532
f 451 532 497
f 452 454 498
f 452 498 453
f 453 498 461
f 454 455 499
f 454 499 498
f 455 458 500
f 455 500 499
f 456 501 457
f 457 502 503
f 457 503 458
f 457 501 502
f 458 503 504
f 458 504 500
f 459 505 506
f 459 506 507
f 459 507 460
f 459 461 505
f 460 507 462
f 461 508 509
f 461 509 505
f 461 498 510
f 461 510 511
f 461 511 508
f 462 507 512
f 462 512 463
f 463 512 464
f 464 512 513
f 464 513 514
f 464 514 466
f 464 466 465
f 466 514 467
f 467 514 515
f 467 515 516
f 467 516 468
f 468 516 475
f 469 474 470
f 470 474 473
f 475 516 517
f 475 517 476
f 476 517 518
f 476 518 519
f 476 519 477
f 477 519 478
f 478 519 479
f 479 519 480
f 480 519 520
f 480 520 521
f 480 521 485
f 483 485 522
f 483 522 484
f 484 522 523
f 484 523 524
f 484 524 486
f 485 521 525
f 485 525 522
f 486 524 487
f 487 526 527
f 487 527 488
f 487 524 528
f 487 528 529
f 487 529 526
f 488 527 530
f 488 530 489
f 489 531 490
f 489 530 531
f 490 531 493
f 491 496 492
f 492 496 495
f 492 495 532
f 493 531 533
f 493 533 494
f 494 533 534
f 494 534 535
f 494 535 495
f 495 535 536
f 495 536 532
f 497 532 537
f 498 499 538
f 498 538 510
f 499 500 539
f 499 539 538
f 500 504 540
f 500 540 541
f 500 541 539
f 501 542 502
f 502 543 536
f 502 536 544
f 502 544 503
f 502 542 543
f 503 544 504
f 504 545 540
f 504 544 545
f 505 509 506
f 506 546 547
f 506 547 507
f 506 509 508
f 506 508 511
f 506 511 548
f 506 548 549
f 506 549 546
f 507 547 550
f 507 550 513
f 507 513 512
f 510 551 548
f 510 548 511
f 510 538 552
f 510 552 551
f 513 550 553
f 513 553 514
f 514 553 554
f 514 554 555
f 514 555 515
f 515 556 557
f 515 557 516
f 515 555 556
f 516 557 517
f 517 557 518
f 518 558 519
f 518 557 558
f 519 558 520
f 520 558 521
f 521 558 559
f 521 559 560
f 521 560 525
f 522 525 561
f 522 561 523
f 523 561 524
f 524 561 562
f 524 562 563
f 524 563 528
f 525 560 561
f 526 564 565
f 526 565 530
f 526 530 527
f 526 529 566
f 526 566 567
f 526 567 568
f 526 568 564
f 528 563 566
f 528 566 529
f 530 565 531
f 531 565 533
f 532 536 543
f 532 543 569
f 532 569 537
f 533 565 570
f 533 570 534
f 534 570 571
f 534 571 535
f 535 572 536
f 535 571 572
f 536 572 573
f 536 573 544
f 538 539 552
f 539 574 552
f 539 541 575
f 539 575 574
f 540 576 575
f 540 575 541
f 540 545 577
f 540 577 576
f 542 578 543
f 543 578 579
f 543 579 569
f 544 580 581
f 544 581 545
f 544 573 582
f 544 582 580
f 545 581 577
f 546 550 547
f 546 549 583
f 546 583 584
f 546 584 585
f 546 585 550
f 548 551 583
f 548 583 549
f 550 585 553
f 551 552 586
f 551 586 583
f 552 574 586
f 553 585 587
f 553 587 554
f 554 587 588
f 554 588 556
f 554 556 555
f 556 588 589
f 556 589 590
f 556 590 557
f 557 590 558
f 558 590 589
f 558 589 559
f 559 589 560
f 560 591 561
f 560 589 592
f 560 592 591
f 561 591 562
f 562 591 593
f 562 593 594
f 562 594 563
f 563 594 566
f 564 570 565
f 564 568 570
f 566 594 595
f 566 595 596
f 566 596 567
f 567 596 597
f 567 597 568
f 568 597 598
f 568 598 599
f 568 599 570
f 570 599 571
f 571 599 573
f 571 573 572
f 573 599 598
f 573 598 582
f 574 575 600
f 574 600 586
f 575 576 600
f 576 577 601
f 576 601 600
f 577 581 602
f 577 602 603
f 577 603 601
f 580 582 602
f 580 602 581
f 582 598 602
f 583 586 604
f 583 604 605
f 583 605 584
f 584 605 587
f 584 587 585
f 586 600 606
f 586 606 607
f 586 607 604
f 587 605 608
f 587 608 609
f 587 609 588
f 588 609 589
f 589 609 592
f 591 592 610
f 591 610 611
f 591 611 593
f 592 609 608
f 592 608 610
f 593 611 594
f 594 611 612
f 594 612 595
f 595 612 613
f 595 613 601
f 595 601 596
f 596 601 597
f 597 601 603
f 597 603 602
f 597 602 598
f 600 601 613
f 600 613 612
f 600 612 606
f 604 607 608
f 604 608 605
f 606 612 607
f 607 612 611
f 607 611 608
f 608 611 610

