# https://github.com/mikedh/trimesh
v 0.00823290 0.02600149 -0.01536344
v 0.00821033 0.02538356 -0.01536344
v 0.00822323 0.02661941 -0.01536344
v 0.00812330 0.02661941 -0.00054514
v 0.00812169 0.02484155 -0.01536344
v 0.00807172 0.02626234 0.00007468
v 0.00815714 0.02728972 -0.01536344
v 0.00807817 0.02720205 -0.00054514
v 0.00807011 0.02715769 0.00007468
v 0.00810879 0.02661941 0.00007468
v 0.00772358 0.02461277 -0.01536344
v 0.00805238 0.02628533 0.00069221
v 0.00803787 0.02630350 0.00103196
v 0.00806689 0.02762540 -0.01536344
v 0.00802659 0.02751048 -0.00054514
v 0.00802014 0.02746611 0.00007468
v 0.00805077 0.02703849 0.00069221
v 0.00803626 0.02695189 0.00102278
v 0.00807011 0.02661941 0.00069221
v 0.00710628 0.02458016 -0.01536344
v 0.00753823 0.02620515 0.00254478
v 0.00710628 0.02608006 0.00254478
v 0.00648897 0.02607793 0.00378213
v 0.00587006 0.02606029 0.00439965
v 0.00463383 0.02606029 0.00563700
v 0.00401653 0.02606563 0.00625452
v 0.00803949 0.02661941 0.00104114
v 0.00797018 0.02661941 0.00135106
v 0.00783640 0.02661941 0.00192726
v 0.00767362 0.02661941 0.00254478
v 0.00747053 0.02625325 0.00299243
v 0.00798146 0.02786381 -0.01536344
v 0.00790571 0.02785472 -0.00054514
v 0.00789120 0.02785472 0.00007468
v 0.00785252 0.02785472 0.00069221
v 0.00800080 0.02734691 0.00069221
v 0.00795729 0.02718976 0.00126152
v 0.00781384 0.02723733 0.00192726
v 0.00648897 0.02457962 -0.01536344
v 0.00278031 0.02606189 0.00687205
v 0.00092678 0.02606991 0.00748957
v 0.00030787 0.02606242 0.00748957
v 0.00696444 0.02620301 0.00378213
v 0.00650348 0.02617468 0.00440195
v 0.00591035 0.02616024 0.00505850
v 0.00530110 0.02616024 0.00568521
v 0.00465801 0.02616452 0.00628207
v 0.00339761 0.02611053 0.00687205
v 0.00763332 0.02723733 0.00254478
v 0.00749793 0.02661941 0.00305901
v 0.00735771 0.02661941 0.00336662
v 0.00686129 0.02625058 0.00419764
v 0.00762365 0.02852877 -0.01536344
v 0.00760270 0.02846302 -0.00054514
v 0.00759464 0.02845286 0.00007468
v 0.00757530 0.02842614 0.00069221
v 0.00753662 0.02836574 0.00130973
v 0.00777355 0.02785472 0.00130973
v 0.00764622 0.02785472 0.00192726
v 0.00748988 0.02782425 0.00250805
v 0.00743508 0.02759761 0.00290290
v -0.00665816 0.02457962 -0.01536344
v 0.00154409 0.02610412 0.00748957
v 0.00092678 0.02619499 0.00791886
v 0.00030787 0.02618751 0.00793493
v -0.00030783 0.02606242 0.00748957
v 0.00630845 0.02622706 0.00487714
v 0.00572983 0.02622706 0.00551074
v 0.00512703 0.02622706 0.00609383
v 0.00446782 0.02623401 0.00665396
v 0.00396979 0.02620354 0.00686516
v 0.00339761 0.02623561 0.00726460
v 0.00278031 0.02618697 0.00737938
v 0.00747215 0.02723733 0.00299014
v 0.00734320 0.02723733 0.00330005
v 0.00710144 0.02723733 0.00378213
v 0.00714496 0.02661941 0.00378213
v 0.00689352 0.02661941 0.00424814
v 0.00669044 0.02661941 0.00455805
v 0.00638098 0.02661941 0.00496667
v 0.00743346 0.02880138 -0.01536344
v 0.00740768 0.02877198 -0.00054514
v 0.00740123 0.02876183 0.00007468
v 0.00738189 0.02873510 0.00069221
v 0.00733837 0.02867470 0.00130973
v 0.00747376 0.02826204 0.00192726
v 0.00743024 0.02818880 0.00227849
v 0.00735126 0.02800974 0.00268941
v 0.00724972 0.02782425 0.00313017
v 0.00693059 0.02782960 0.00378213
v 0.00682261 0.02760723 0.00413106
v -0.00710623 0.02458016 -0.01536344
v 0.00154409 0.02622920 0.00787524
v 0.00092678 0.02661941 0.00804282
v 0.00030787 0.02661941 0.00808414
v -0.00030783 0.02618751 0.00793493
v -0.00092674 0.02606991 0.00748957
v 0.00613116 0.02661941 0.00527659
v 0.00582331 0.02661941 0.00560716
v 0.00553159 0.02661941 0.00591707
v 0.00522213 0.02661941 0.00617647
v 0.00484981 0.02661941 0.00648638
v 0.00373447 0.02629227 0.00719573
v 0.00197604 0.02627570 0.00782703
v 0.00686451 0.02723733 0.00419993
v 0.00666788 0.02723733 0.00450985
v 0.00635842 0.02723733 0.00493224
v 0.00714173 0.02908789 -0.01536344
v 0.00709822 0.02907774 -0.00054514
v 0.00709177 0.02907132 0.00007468
v 0.00707243 0.02905475 0.00069221
v 0.00702891 0.02901413 0.00130973
v 0.00695961 0.02894784 0.00192726
v 0.00726906 0.02857100 0.00192726
v 0.00686129 0.02884896 0.00254478
v 0.00718042 0.02842614 0.00250805
v 0.00691931 0.02846730 0.00310492
v 0.00685645 0.02825776 0.00357552
v 0.00673235 0.02801936 0.00398874
v 0.00657601 0.02782960 0.00436292
v 0.00625849 0.02785472 0.00480828
v -0.00727225 0.02458337 -0.01536344
v -0.00278027 0.02606189 0.00687205
v 0.00154409 0.02661941 0.00795329
v 0.00092678 0.02723733 0.00799920
v 0.00030787 0.02723733 0.00804741
v -0.00030783 0.02661941 0.00808414
v -0.00092674 0.02619499 0.00791886
v -0.00154405 0.02610412 0.00748957
v 0.00610698 0.02723733 0.00524215
v 0.00579753 0.02723733 0.00557731
v 0.00549613 0.02723733 0.00588493
v 0.00518667 0.02723733 0.00615352
v 0.00480629 0.02723733 0.00646113
v 0.00454035 0.02661941 0.00670217
v 0.00374575 0.02661941 0.00720262
v 0.00339761 0.02661941 0.00734954
v 0.00278031 0.02661941 0.00759288
v 0.00234191 0.02661941 0.00775357
v 0.00405360 0.02661941 0.00701208
v 0.00203245 0.02661941 0.00784081
v 0.00680004 0.02940273 -0.01536344
v 0.00677909 0.02938670 -0.00054514
v 0.00676942 0.02938028 0.00007468
v 0.00674685 0.02936371 0.00069221
v 0.00669367 0.02932309 0.00130973
v 0.00661469 0.02925681 0.00192726
v 0.00645996 0.02919640 0.00257463
v 0.00680004 0.02878428 0.00285928
v 0.00670656 0.02866989 0.00327250
v 0.00651315 0.02851327 0.00382575
v 0.00629073 0.02831656 0.00439965
v 0.00618596 0.02817437 0.00471875
v 0.00600061 0.02785472 0.00511589
v -0.00772354 0.02461330 -0.01536344
v -0.00401649 0.02606563 0.00625452
v -0.00339757 0.02611053 0.00687205
v 0.00158922 0.02727635 0.00788672
v 0.00196959 0.02709675 0.00782703
v 0.00141354 0.02766336 0.00784081
v 0.00092678 0.02775583 0.00787295
v 0.00030787 0.02782158 0.00789820
v -0.00030783 0.02723733 0.00804741
v -0.00092674 0.02661941 0.00804282
v -0.00154405 0.02622920 0.00787524
v -0.00278027 0.02618697 0.00737938
v 0.00569115 0.02785472 0.00546483
v 0.00537202 0.02785472 0.00577244
v 0.00506256 0.02785472 0.00604562
v 0.00440980 0.02767886 0.00661723
v 0.00449683 0.02723733 0.00667463
v 0.00373125 0.02700695 0.00719573
v 0.00278031 0.02723733 0.00755385
v 0.00217106 0.02727635 0.00774668
v 0.00654377 0.02954759 -0.01536344
v 0.00646963 0.02956630 -0.00054514
v 0.00645996 0.02956256 0.00007468
v 0.00643740 0.02955240 0.00069221
v 0.00638582 0.02952728 0.00130973
v 0.00630523 0.02948185 0.00192726
v 0.00623593 0.02943694 0.00238638
v 0.00615534 0.02938403 0.00279730
v 0.00649542 0.02895960 0.00310492
v 0.00629395 0.02888584 0.00366046
v 0.00616823 0.02876931 0.00407367
v 0.00560089 0.02881581 0.00475548
v 0.00580558 0.02840048 0.00494142
v 0.00559928 0.02821500 0.00536612
v 0.00604574 0.02862552 0.00439965
v -0.00780896 0.02463147 -0.01536344
v -0.00463379 0.02606029 0.00563700
v -0.00587001 0.02606029 0.00439965
v -0.00648893 0.02607793 0.00378213
v -0.00710623 0.02608006 0.00254478
v -0.00530106 0.02616024 0.00568521
v -0.00465797 0.02616452 0.00628207
v -0.00396975 0.02620354 0.00686516
v -0.00339757 0.02623561 0.00726460
v 0.00182615 0.02750781 0.00779260
v 0.00216139 0.02785472 0.00758369
v 0.00158922 0.02786327 0.00772143
v 0.00092678 0.02806479 0.00775816
v 0.00030787 0.02813054 0.00778571
v -0.00030783 0.02782158 0.00789820
v -0.00092674 0.02775583 0.00787295
v -0.00092674 0.02723733 0.00799920
v -0.00154405 0.02661941 0.00795329
v -0.00197600 0.02627570 0.00782703
v 0.00496586 0.02818987 0.00596298
v 0.00462255 0.02787289 0.00637619
v 0.00427119 0.02809098 0.00653000
v 0.00404554 0.02787289 0.00675956
v 0.00365388 0.02741854 0.00715671
v 0.00396818 0.02722290 0.00700979
v 0.00342824 0.02722290 0.00728985
v 0.00324288 0.02771414 0.00724624
v 0.00281899 0.02789428 0.00734954
v 0.00587006 0.02984961 -0.01536344
v 0.00587006 0.02983731 -0.00054514
v 0.00587006 0.02983196 0.00007468
v 0.00587006 0.02981593 0.00069221
v 0.00587006 0.02977691 0.00130973
v 0.00587006 0.02970261 0.00192726
v 0.00591680 0.02956203 0.00257463
v 0.00574595 0.02950323 0.00316460
v 0.00562507 0.02943855 0.00358011
v 0.00605541 0.02931133 0.00316460
v 0.00589746 0.02912264 0.00382804
v 0.00548968 0.02935944 0.00399333
v 0.00573628 0.02893181 0.00439965
v 0.00527209 0.02926001 0.00443638
v 0.00490300 0.02937921 0.00466595
v 0.00522374 0.02893983 0.00498275
v 0.00499970 0.02882490 0.00537759
v 0.00541070 0.02862712 0.00516639
v 0.00518828 0.02840850 0.00557731
v -0.00812164 0.02484155 -0.01536344
v -0.00753819 0.02620515 0.00254478
v -0.00803783 0.02630350 0.00103196
v -0.00591031 0.02616024 0.00505850
v -0.00650344 0.02617468 0.00440195
v -0.00696440 0.02620301 0.00378213
v -0.00512860 0.02622706 0.00609383
v -0.00572979 0.02622706 0.00551074
v -0.00446778 0.02623401 0.00665396
v -0.00373443 0.02629227 0.00719573
v 0.00264009 0.02827326 0.00724853
v 0.00216139 0.02838819 0.00732199
v 0.00157471 0.02852449 0.00737709
v 0.00092678 0.02847264 0.00751942
v -0.00030783 0.02813054 0.00778571
v 0.00030787 0.02847264 0.00757222
v -0.00092674 0.02806479 0.00775816
v -0.00141349 0.02766336 0.00784081
v -0.00158918 0.02727635 0.00788672
v -0.00196955 0.02709675 0.00782703
v -0.00203241 0.02661941 0.00784081
v -0.00234187 0.02661941 0.00775357
v 0.00476116 0.02860200 0.00578851
v 0.00435016 0.02879978 0.00596298
v 0.00458709 0.02842667 0.00607087
v 0.00386019 0.02829678 0.00665626
v 0.00404554 0.02849082 0.00639456
v 0.00342824 0.02789428 0.00708784
v 0.00305108 0.02812626 0.00716589
v 0.00586200 0.02985174 -0.01536344
v 0.00529466 0.02998003 -0.00054514
v 0.00528982 0.02997789 0.00007468
v 0.00527209 0.02997201 0.00069221
v 0.00519312 0.02996881 0.00127760
v 0.00525275 0.02991535 0.00192726
v 0.00525275 0.02984319 0.00254478
v 0.00525275 0.02972559 0.00316460
v 0.00527209 0.02954064 0.00378443
v 0.00507868 0.02946634 0.00425273
v 0.00467090 0.02956737 0.00443638
v 0.00449039 0.02947115 0.00485648
v 0.00425346 0.02936692 0.00526740
v 0.00467090 0.02927017 0.00504473
v 0.00458709 0.02892272 0.00560486
v -0.00812809 0.02485437 -0.01536344
v -0.00805234 0.02628533 0.00069221
v -0.00807168 0.02626234 0.00007468
v -0.00747049 0.02625325 0.00299243
v -0.00767357 0.02661941 0.00254478
v -0.00783636 0.02661941 0.00192726
v -0.00797014 0.02661941 0.00135106
v -0.00803944 0.02661941 0.00104114
v -0.00807007 0.02661941 0.00069221
v -0.00810875 0.02661941 0.00007468
v -0.00630841 0.02622706 0.00487714
v -0.00686125 0.02625058 0.00419764
v -0.00553154 0.02661941 0.00591707
v -0.00582327 0.02661941 0.00560716
v -0.00613112 0.02661941 0.00527659
v -0.00484977 0.02661941 0.00648638
v -0.00522209 0.02661941 0.00617647
v -0.00278027 0.02661941 0.00759288
v -0.00339757 0.02661941 0.00734954
v -0.00374571 0.02661941 0.00720262
v -0.00405356 0.02661941 0.00701208
v -0.00454031 0.02661941 0.00670217
v 0.00281899 0.02847692 0.00703274
v 0.00216139 0.02869715 0.00711768
v 0.00180036 0.02876503 0.00716819
v 0.00138936 0.02882169 0.00721639
v 0.00092678 0.02885858 0.00724853
v -0.00030783 0.02847264 0.00757222
v -0.00092674 0.02847264 0.00751942
v 0.00030787 0.02888798 0.00727608
v -0.00158918 0.02786327 0.00772143
v -0.00157467 0.02852449 0.00737709
v -0.00216296 0.02785472 0.00758369
v -0.00182610 0.02750781 0.00779260
v -0.00217102 0.02727635 0.00774668
v -0.00278027 0.02723733 0.00755385
v 0.00401653 0.02889225 0.00606858
v 0.00359586 0.02870891 0.00650245
v 0.00403587 0.02922153 0.00563011
v 0.00339439 0.02849082 0.00675956
v 0.00530594 0.02998377 -0.01536344
v 0.00498520 0.03002333 -0.00054514
v 0.00498036 0.03002279 0.00007468
v 0.00496263 0.03002066 0.00069221
v 0.00494813 0.03001852 0.00105033
v 0.00488366 0.03001478 0.00146125
v 0.00478695 0.03000409 0.00192726
v 0.00460643 0.02998377 0.00256774
v 0.00463383 0.02991001 0.00316460
v 0.00463383 0.02978813 0.00378213
v 0.00403587 0.02955668 0.00504473
v 0.00401653 0.02979722 0.00439965
v 0.00384246 0.02945458 0.00542121
v 0.00353461 0.02932255 0.00583213
v -0.00821029 0.02538356 -0.01536344
v -0.00812326 0.02661941 -0.00054514
v -0.00749789 0.02661941 0.00305901
v -0.00735767 0.02661941 0.00336662
v -0.00763328 0.02723733 0.00254478
v -0.00781380 0.02723733 0.00192726
v -0.00803622 0.02695189 0.00102278
v -0.00805073 0.02703849 0.00069221
v -0.00807007 0.02715769 0.00007468
v -0.00638094 0.02661941 0.00496667
v -0.00669040 0.02661941 0.00455805
v -0.00689348 0.02661941 0.00424814
v -0.00714492 0.02661941 0.00378213
v -0.00518663 0.02723733 0.00615352
v -0.00549609 0.02723733 0.00588493
v -0.00579748 0.02723733 0.00557731
v -0.00610694 0.02723733 0.00524215
v -0.00635838 0.02723733 0.00493224
v -0.00480625 0.02723733 0.00646113
v -0.00373121 0.02700695 0.00719573
v -0.00449679 0.02723733 0.00667463
v 0.00318486 0.02883078 0.00660805
v 0.00278031 0.02891470 0.00669758
v 0.00216139 0.02901733 0.00680777
v 0.00156665 0.02910072 0.00687664
v 0.00133295 0.02941556 0.00658509
v 0.00092678 0.02916754 0.00692026
v -0.00030783 0.02888798 0.00727608
v -0.00092674 0.02885858 0.00724853
v -0.00138932 0.02882169 0.00721639
v 0.00030787 0.02919694 0.00694780
v -0.00216296 0.02838819 0.00732199
v -0.00180193 0.02876503 0.00716819
v -0.00264004 0.02827326 0.00724853
v -0.00281895 0.02789428 0.00734954
v -0.00324284 0.02771414 0.00724624
v -0.00365384 0.02741854 0.00715671
v -0.00342820 0.02722290 0.00728985
v 0.00336054 0.02907667 0.00623386
v 0.00500132 0.03002386 -0.01536344
v 0.00463383 0.03003455 -0.00054514
v 0.00463383 0.03003402 0.00007468
v 0.00499165 0.03002493 -0.01536344
v 0.00463383 0.03003188 0.00069221
v 0.00466123 0.03002707 0.00127760
v 0.00447749 0.03002761 0.00192726
v 0.00438240 0.03002333 0.00237720
v 0.00426958 0.03001478 0.00278812
v 0.00412935 0.02999660 0.00316460
v 0.00395367 0.02994956 0.00372015
v 0.00339761 0.02975606 0.00501718
v 0.00339761 0.02992230 0.00439965
v 0.00335732 0.02950750 0.00563011
v 0.00312361 0.02941289 0.00596298
v -0.00823286 0.02600149 -0.01536344
v -0.00807813 0.02720205 -0.00054514
v -0.00822319 0.02661941 -0.01536344
v -0.00734316 0.02723733 0.00330005
v -0.00747210 0.02723733 0.00299014
v -0.00710140 0.02723733 0.00378213
v -0.00743503 0.02759761 0.00290290
v -0.00748983 0.02782425 0.00250805
v -0.00764617 0.02785472 0.00192726
v -0.00777350 0.02785472 0.00130973
v -0.00795724 0.02718976 0.00126152
v -0.00800076 0.02734691 0.00069221
v -0.00802010 0.02746611 0.00007468
v -0.00666784 0.02723733 0.00450985
v -0.00686447 0.02723733 0.00419993
v -0.00506252 0.02785472 0.00604562
v -0.00537198 0.02785472 0.00577244
v -0.00569111 0.02785472 0.00546483
v -0.00600057 0.02785472 0.00511589
v -0.00625845 0.02785472 0.00480828
v -0.00440976 0.02767886 0.00661723
v -0.00396814 0.02722290 0.00700979
v 0.00278031 0.02922366 0.00634405
v 0.00216139 0.02932683 0.00646113
v 0.00174556 0.02938028 0.00653459
v 0.00154086 0.02954492 0.00629814
v 0.00092678 0.02963098 0.00625452
v 0.00092678 0.02943534 0.00661264
v -0.00030783 0.02919694 0.00694780
v -0.00092674 0.02916754 0.00692026
v -0.00133291 0.02941556 0.00658509
v -0.00156661 0.02910072 0.00687664
v 0.00030787 0.02945512 0.00664019
v -0.00216296 0.02869715 0.00711768
v -0.00216296 0.02901733 0.00680777
v -0.00281895 0.02847692 0.00703274
v -0.00305104 0.02812626 0.00716589
v -0.00342820 0.02789428 0.00708784
v -0.00404550 0.02787289 0.00675956
v 0.00401653 0.03003990 0.00130973
v 0.00463383 0.03003562 -0.01536344
v 0.00401653 0.03003830 0.00192726
v 0.00404393 0.03002974 0.00256774
v 0.00381990 0.03002333 0.00316460
v 0.00370707 0.03001798 0.00347222
v 0.00339761 0.02999928 0.00391527
v 0.00278031 0.02987687 0.00501718
v 0.00278031 0.02965397 0.00563700
v 0.00282544 0.02999393 0.00440424
v 0.00278031 0.02945672 0.00603414
v -0.00802655 0.02751048 -0.00054514
v -0.00815710 0.02728972 -0.01536344
v -0.00682256 0.02760723 0.00413106
v -0.00693216 0.02782960 0.00378213
v -0.00735122 0.02800974 0.00268941
v -0.00724968 0.02782425 0.00313017
v -0.00743020 0.02818880 0.00227849
v -0.00747372 0.02826204 0.00192726
v -0.00753658 0.02836574 0.00130973
v -0.00785248 0.02785472 0.00069221
v -0.00789116 0.02785472 0.00007468
v -0.00496582 0.02818987 0.00596298
v -0.00462251 0.02787289 0.00637619
v -0.00559924 0.02821500 0.00536612
v -0.00618592 0.02817437 0.00471875
v -0.00657597 0.02782960 0.00436292
v -0.00427115 0.02809098 0.00653000
v 0.00216139 0.02952354 0.00615352
v 0.00216139 0.02976729 0.00563700
v 0.00154409 0.02983998 0.00563700
v 0.00092678 0.02988221 0.00563700
v 0.00030787 0.02966519 0.00625452
v -0.00030783 0.02945512 0.00664019
v -0.00092674 0.02943534 0.00661264
v -0.00092674 0.02963098 0.00625452
v -0.00154082 0.02954492 0.00629814
v -0.00174552 0.02938028 0.00653459
v -0.00278027 0.02891470 0.00669758
v -0.00318482 0.02883078 0.00660805
v -0.00216296 0.02932683 0.00646113
v -0.00339435 0.02849082 0.00675956
v -0.00386015 0.02829678 0.00665626
v 0.00339761 0.03003990 0.00254478
v 0.00401653 0.03003990 -0.01536344
v 0.00339761 0.03003402 0.00316460
v 0.00339761 0.03002333 0.00360766
v 0.00306237 0.03001638 0.00406449
v 0.00210820 0.02996186 0.00495749
v 0.00227744 0.03001103 0.00461315
v -0.00790567 0.02785472 -0.00054514
v -0.00799432 0.02780822 -0.01536344
v -0.00673231 0.02801936 0.00398874
v -0.00685641 0.02825776 0.00357552
v -0.00726902 0.02857100 0.00192726
v -0.00691927 0.02846730 0.00310492
v -0.00718038 0.02842614 0.00250805
v -0.00686125 0.02884896 0.00254478
v -0.00733833 0.02867470 0.00130973
v -0.00738185 0.02873510 0.00069221
v -0.00757526 0.02842614 0.00069221
v -0.00759460 0.02845286 0.00007468
v -0.00458705 0.02842667 0.00607087
v -0.00435012 0.02879978 0.00596298
v -0.00476112 0.02860200 0.00578851
v -0.00518824 0.02840850 0.00557731
v -0.00499966 0.02882490 0.00537759
v -0.00541066 0.02862712 0.00516639
v -0.00580554 0.02840048 0.00494142
v -0.00560085 0.02881581 0.00475548
v -0.00604570 0.02862552 0.00439965
v -0.00616819 0.02876931 0.00407367
v -0.00629068 0.02831656 0.00439965
v -0.00404550 0.02849082 0.00639456
v 0.00154409 0.02997950 0.00505391
v 0.00030787 0.02990627 0.00563700
v 0.00092678 0.02999553 0.00511819
v -0.00030783 0.02966519 0.00625452
v -0.00092674 0.02988221 0.00563700
v -0.00154405 0.02983998 0.00563700
v -0.00216296 0.02976729 0.00563700
v -0.00216296 0.02952354 0.00615352
v -0.00278027 0.02945672 0.00603414
v -0.00278027 0.02922366 0.00634405
v -0.00312357 0.02941289 0.00596298
v -0.00336050 0.02907667 0.00623386
v -0.00401649 0.02889225 0.00606858
v -0.00359582 0.02870891 0.00650245
v 0.00278031 0.03003990 0.00316460
v -0.00401649 0.03003990 -0.01536344
v 0.00216139 0.03003990 0.00378213
v 0.00282544 0.03003081 0.00382804
v 0.00264976 0.03002493 0.00419993
v 0.00186483 0.03001798 0.00471186
v -0.00760266 0.02846302 -0.00054514
v -0.00796530 0.02788679 -0.01536344
v -0.00670652 0.02866989 0.00327250
v -0.00651311 0.02851327 0.00382575
v -0.00695956 0.02894784 0.00192726
v -0.00680000 0.02878428 0.00285928
v -0.00645992 0.02919640 0.00257463
v -0.00661465 0.02925681 0.00192726
v -0.00702887 0.02901413 0.00130973
v -0.00707239 0.02905475 0.00069221
v -0.00740119 0.02876183 0.00007468
v -0.00403583 0.02922153 0.00563011
v -0.00425342 0.02936745 0.00526740
v -0.00458705 0.02892272 0.00560486
v -0.00467086 0.02927017 0.00504473
v -0.00490296 0.02937921 0.00466595
v -0.00522370 0.02893983 0.00498275
v -0.00527205 0.02926001 0.00443638
v -0.00573624 0.02893181 0.00439965
v -0.00548964 0.02935944 0.00399333
v -0.00589741 0.02912264 0.00382804
v -0.00629391 0.02888584 0.00366046
v -0.00030783 0.02990627 0.00563700
v 0.00030787 0.03000462 0.00516410
v 0.00154409 0.03002226 0.00474629
v -0.00092674 0.02999553 0.00511819
v -0.00154405 0.02997950 0.00505391
v -0.00210816 0.02996186 0.00495749
v -0.00278027 0.02987687 0.00501718
v -0.00278027 0.02965397 0.00563700
v -0.00353457 0.02932255 0.00583213
v -0.00335728 0.02950750 0.00563011
v -0.00384242 0.02945458 0.00542121
v -0.00464024 0.03003562 -0.01536344
v -0.00401649 0.03003990 0.00130973
v 0.00030787 0.03003990 0.00439965
v 0.00092678 0.03003830 0.00439965
v 0.00154409 0.03003295 0.00439965
v 0.00210820 0.03002654 0.00440424
v -0.00740763 0.02877198 -0.00054514
v -0.00762522 0.02852877 -0.01536344
v -0.00669524 0.02932309 0.00130973
v -0.00649538 0.02895960 0.00310492
v -0.00615530 0.02938403 0.00279730
v -0.00630519 0.02948185 0.00192726
v -0.00623588 0.02943694 0.00238638
v -0.00674681 0.02936371 0.00069221
v -0.00676938 0.02938028 0.00007468
v -0.00709173 0.02907132 0.00007468
v -0.00449035 0.02947115 0.00485648
v -0.00467086 0.02956737 0.00443638
v -0.00507864 0.02946634 0.00425273
v -0.00527205 0.02954064 0.00378443
v -0.00562503 0.02943855 0.00358011
v -0.00605537 0.02931133 0.00316460
v -0.00030783 0.03000462 0.00516410
v 0.00092678 0.03002707 0.00480828
v 0.00030787 0.03002867 0.00485419
v -0.00154405 0.03002226 0.00474629
v -0.00186479 0.03001798 0.00471186
v -0.00227740 0.03001103 0.00461315
v -0.00282540 0.02999393 0.00440424
v -0.00339757 0.02975606 0.00501718
v -0.00339757 0.02992230 0.00439965
v -0.00403583 0.02955668 0.00504473
v -0.00499644 0.03002440 -0.01536344
v -0.00463379 0.03003455 -0.00054514
v -0.00463379 0.03003402 0.00007468
v -0.00401649 0.03003830 0.00192726
v -0.00339757 0.03003990 0.00254478
v -0.00030783 0.03003990 0.00439965
v -0.00709979 0.02907774 -0.00054514
v -0.00711752 0.02910927 -0.01536344
v -0.00719811 0.02902749 -0.01536344
v -0.00757042 0.02859826 -0.01536344
v -0.00638578 0.02952728 0.00130973
v -0.00591676 0.02956203 0.00257463
v -0.00574591 0.02950323 0.00316460
v -0.00587001 0.02970261 0.00192726
v -0.00643735 0.02955240 0.00069221
v -0.00645992 0.02956256 0.00007468
v -0.00677905 0.02938670 -0.00054514
v -0.00401649 0.02979722 0.00439965
v -0.00463379 0.02978813 0.00378213
v -0.00525271 0.02972559 0.00316460
v -0.00030783 0.03002867 0.00485419
v -0.00092674 0.03002707 0.00480828
v -0.00154405 0.03003295 0.00439965
v -0.00210816 0.03002654 0.00440424
v -0.00264971 0.03002493 0.00419993
v -0.00306233 0.03001638 0.00406449
v -0.00339757 0.02999928 0.00391527
v -0.00395524 0.02994956 0.00372015
v -0.00530590 0.02998377 -0.01536344
v -0.00498516 0.03002333 -0.00054514
v -0.00498032 0.03002279 0.00007468
v -0.00463379 0.03003188 0.00069221
v -0.00447745 0.03002761 0.00192726
v -0.00404389 0.03002974 0.00256774
v -0.00339757 0.03003402 0.00316460
v -0.00278027 0.03003990 0.00316460
v -0.00216296 0.03003990 0.00378213
v -0.00092674 0.03003830 0.00439965
v -0.00678711 0.02939258 -0.01514076
v -0.00705305 0.02916326 -0.01536344
v -0.00587001 0.02977691 0.00130973
v -0.00525271 0.02984319 0.00254478
v -0.00587001 0.02981593 0.00069221
v -0.00587001 0.02983196 0.00007468
v -0.00646959 0.02956630 -0.00054514
v -0.00654373 0.02954759 -0.01536344
v -0.00463379 0.02991001 0.00316460
v -0.00282540 0.03003081 0.00382804
v -0.00339757 0.03002333 0.00360766
v -0.00370703 0.03001798 0.00347222
v -0.00412931 0.02999660 0.00316460
v -0.00587001 0.02984961 -0.01536344
v -0.00529462 0.02998003 -0.00054514
v -0.00528978 0.02997789 0.00007468
v -0.00496259 0.03002066 0.00069221
v -0.00466119 0.03002707 0.00127760
v -0.00438236 0.03002333 0.00237720
v -0.00494970 0.03001852 0.00105033
v -0.00488362 0.03001478 0.00146125
v -0.00381985 0.03002333 0.00316460
v -0.00655340 0.02954118 -0.01536344
v -0.00525271 0.02991535 0.00192726
v -0.00519307 0.02996881 0.00127760
v -0.00527205 0.02997201 0.00069221
v -0.00587001 0.02983731 -0.00054514
v -0.00587968 0.02984533 -0.01536344
v -0.00460639 0.02998377 0.00256774
v -0.00426953 0.03001478 0.00278812
v -0.00478691 0.03000409 0.00192726
f 1 2 5
f 1 5 11
f 1 11 20
f 1 20 39
f 1 39 62
f 1 62 92
f 1 92 122
f 1 122 155
f 1 155 190
f 1 190 237
f 1 237 281
f 1 281 335
f 1 335 389
f 1 389 391
f 1 391 440
f 1 440 479
f 1 479 523
f 1 523 562
f 1 562 596
f 1 596 595
f 1 595 594
f 1 594 626
f 1 626 647
f 1 647 632
f 1 632 652
f 1 652 638
f 1 638 615
f 1 615 587
f 1 587 555
f 1 555 517
f 1 517 472
f 1 472 429
f 1 429 377
f 1 377 374
f 1 374 321
f 1 321 266
f 1 266 218
f 1 218 175
f 1 175 142
f 1 142 108
f 1 108 81
f 1 81 53
f 1 53 32
f 1 32 14
f 1 14 7
f 1 7 3
f 1 3 4
f 1 4 2
f 2 4 6
f 2 6 5
f 3 7 8
f 3 8 4
f 4 8 9
f 4 9 10
f 4 10 6
f 5 6 12
f 5 12 13
f 5 13 11
f 6 10 12
f 7 14 15
f 7 15 8
f 8 15 16
f 8 16 9
f 9 16 36
f 9 36 17
f 9 17 10
f 10 17 18
f 10 18 19
f 10 19 13
f 10 13 12
f 11 13 21
f 11 21 22
f 11 22 23
f 11 23 24
f 11 24 25
f 11 25 26
f 11 26 20
f 13 19 27
f 13 27 28
f 13 28 29
f 13 29 30
f 13 30 31
f 13 31 21
f 14 32 33
f 14 33 15
f 15 33 34
f 15 34 16
f 16 34 35
f 16 35 36
f 17 36 18
f 18 37 38
f 18 38 29
f 18 29 28
f 18 28 27
f 18 27 19
f 18 36 37
f 20 26 40
f 20 40 41
f 20 41 42
f 20 42 39
f 21 31 43
f 21 43 22
f 22 43 23
f 23 43 44
f 23 44 45
f 23 45 24
f 24 45 46
f 24 46 25
f 25 46 26
f 26 47 48
f 26 48 40
f 26 46 47
f 29 38 30
f 30 49 50
f 30 50 31
f 30 38 49
f 31 50 51
f 31 51 52
f 31 52 43
f 32 53 54
f 32 54 33
f 33 54 55
f 33 55 34
f 34 55 56
f 34 56 35
f 35 56 57
f 35 57 58
f 35 58 36
f 36 58 37
f 37 58 38
f 38 58 59
f 38 59 60
f 38 60 61
f 38 61 49
f 39 42 66
f 39 66 62
f 40 48 63
f 40 63 41
f 41 63 64
f 41 64 65
f 41 65 42
f 42 65 96
f 42 96 66
f 43 52 44
f 44 52 67
f 44 67 45
f 45 67 68
f 45 68 46
f 46 68 69
f 46 69 47
f 47 70 71
f 47 71 48
f 47 69 70
f 48 71 72
f 48 72 73
f 48 73 63
f 49 61 74
f 49 74 50
f 50 74 75
f 50 75 51
f 51 75 76
f 51 76 77
f 51 77 52
f 52 77 78
f 52 78 79
f 52 79 80
f 52 80 67
f 53 81 82
f 53 82 54
f 54 82 83
f 54 83 55
f 55 83 84
f 55 84 56
f 56 84 57
f 57 84 85
f 57 85 86
f 57 86 58
f 58 86 59
f 59 86 87
f 59 87 60
f 60 88 61
f 60 87 88
f 61 88 89
f 61 89 90
f 61 90 91
f 61 91 75
f 61 75 74
f 62 66 92
f 63 73 93
f 63 93 64
f 64 93 94
f 64 94 95
f 64 95 65
f 65 95 127
f 65 127 96
f 66 96 97
f 66 97 92
f 67 80 98
f 67 98 68
f 68 99 100
f 68 100 69
f 68 98 99
f 69 100 70
f 70 100 101
f 70 101 102
f 70 102 103
f 70 103 72
f 70 72 71
f 72 103 104
f 72 104 73
f 73 104 93
f 75 91 76
f 76 91 105
f 76 105 78
f 76 78 77
f 78 105 106
f 78 106 79
f 79 106 107
f 79 107 80
f 80 107 98
f 81 108 109
f 81 109 82
f 82 109 110
f 82 110 83
f 83 110 111
f 83 111 84
f 84 111 112
f 84 112 85
f 85 112 113
f 85 113 114
f 85 114 86
f 86 114 87
f 87 114 115
f 87 115 116
f 87 116 117
f 87 117 118
f 87 118 88
f 88 118 89
f 89 118 90
f 90 118 119
f 90 119 91
f 91 119 120
f 91 120 121
f 91 121 106
f 91 106 105
f 92 97 123
f 92 123 122
f 93 104 94
f 94 124 125
f 94 125 126
f 94 126 95
f 94 104 124
f 95 126 163
f 95 163 127
f 96 128 97
f 96 127 128
f 97 128 129
f 97 129 123
f 98 107 130
f 98 130 131
f 98 131 99
f 99 131 100
f 100 132 133
f 100 133 101
f 100 131 132
f 101 133 102
f 102 134 135
f 102 135 103
f 102 133 134
f 103 136 137
f 103 137 138
f 103 138 139
f 103 139 104
f 103 135 140
f 103 140 136
f 104 139 141
f 104 141 124
f 106 121 107
f 107 121 130
f 108 142 143
f 108 143 109
f 109 143 110
f 110 143 144
f 110 144 111
f 111 144 145
f 111 145 112
f 112 145 146
f 112 146 113
f 113 146 147
f 113 147 115
f 113 115 114
f 115 148 149
f 115 149 116
f 115 147 148
f 116 149 117
f 117 150 118
f 117 149 150
f 118 150 151
f 118 151 152
f 118 152 153
f 118 153 119
f 119 153 120
f 120 153 121
f 121 153 154
f 121 154 130
f 122 123 156
f 122 156 155
f 123 129 157
f 123 157 156
f 124 158 125
f 124 141 159
f 124 159 158
f 125 158 160
f 125 160 161
f 125 161 126
f 126 161 162
f 126 162 204
f 126 204 163
f 127 163 164
f 127 164 128
f 128 164 165
f 128 165 129
f 129 165 166
f 129 166 157
f 130 154 167
f 130 167 131
f 131 167 132
f 132 167 168
f 132 168 169
f 132 169 133
f 133 169 134
f 134 170 171
f 134 171 135
f 134 169 170
f 135 171 172
f 135 172 140
f 136 140 172
f 136 172 137
f 137 172 138
f 138 172 173
f 138 173 139
f 139 173 174
f 139 174 159
f 139 159 141
f 142 175 176
f 142 176 143
f 143 176 177
f 143 177 144
f 144 178 145
f 144 177 178
f 145 178 179
f 145 179 146
f 146 179 180
f 146 180 147
f 147 180 181
f 147 181 182
f 147 182 148
f 148 182 149
f 149 182 183
f 149 183 184
f 149 184 150
f 150 184 185
f 150 185 151
f 151 185 152
f 152 185 153
f 153 186 187
f 153 187 188
f 153 188 154
f 153 185 189
f 153 189 186
f 154 188 167
f 155 156 191
f 155 191 192
f 155 192 193
f 155 193 194
f 155 194 190
f 156 195 191
f 156 157 196
f 156 196 195
f 157 197 196
f 157 166 198
f 157 198 197
f 158 159 199
f 158 199 160
f 159 174 199
f 160 199 200
f 160 200 201
f 160 201 202
f 160 202 161
f 161 202 203
f 161 203 162
f 162 203 251
f 162 251 204
f 163 204 205
f 163 205 206
f 163 206 164
f 164 206 207
f 164 207 208
f 164 208 165
f 165 208 166
f 166 208 198
f 167 188 168
f 168 209 169
f 168 188 209
f 169 209 210
f 169 210 170
f 170 210 211
f 170 211 212
f 170 212 213
f 170 213 214
f 170 214 171
f 171 214 172
f 172 215 173
f 172 214 213
f 172 213 215
f 173 215 213
f 173 213 216
f 173 216 217
f 173 217 200
f 173 200 174
f 174 200 199
f 175 218 219
f 175 219 176
f 176 219 220
f 176 220 177
f 177 220 221
f 177 221 178
f 178 221 222
f 178 222 179
f 179 222 223
f 179 223 180
f 180 223 181
f 181 223 224
f 181 224 182
f 182 224 225
f 182 225 226
f 182 226 227
f 182 227 183
f 183 227 184
f 184 227 228
f 184 228 185
f 185 228 229
f 185 229 230
f 185 230 186
f 185 186 189
f 186 230 231
f 186 231 232
f 186 232 233
f 186 233 234
f 186 234 235
f 186 235 187
f 187 235 188
f 188 235 234
f 188 234 236
f 188 236 209
f 190 194 238
f 190 238 239
f 190 239 237
f 191 195 192
f 192 195 240
f 192 240 193
f 193 240 241
f 193 241 242
f 193 242 194
f 194 242 238
f 195 196 243
f 195 243 244
f 195 244 240
f 196 197 245
f 196 245 243
f 197 198 245
f 198 208 246
f 198 246 245
f 200 217 247
f 200 247 248
f 200 248 201
f 201 248 249
f 201 249 202
f 202 249 250
f 202 250 203
f 203 250 252
f 203 252 308
f 203 308 251
f 204 251 205
f 205 251 253
f 205 253 254
f 205 254 206
f 206 254 255
f 206 255 207
f 207 255 256
f 207 256 257
f 207 257 208
f 208 257 258
f 208 258 246
f 209 236 259
f 209 259 260
f 209 260 261
f 209 261 211
f 209 211 210
f 211 262 212
f 211 261 260
f 211 260 263
f 211 263 262
f 212 264 213
f 212 262 264
f 213 264 216
f 216 264 265
f 216 265 217
f 217 265 247
f 218 266 219
f 219 267 268
f 219 268 220
f 219 266 267
f 220 268 269
f 220 269 221
f 221 269 270
f 221 270 271
f 221 271 222
f 222 271 272
f 222 272 223
f 223 272 224
f 224 272 273
f 224 273 225
f 225 273 274
f 225 274 226
f 226 274 229
f 226 229 227
f 227 229 228
f 229 274 275
f 229 275 232
f 229 232 231
f 229 231 230
f 232 275 276
f 232 276 277
f 232 277 278
f 232 278 279
f 232 279 234
f 232 234 233
f 234 279 280
f 234 280 260
f 234 260 259
f 234 259 236
f 237 239 282
f 237 282 283
f 237 283 281
f 238 242 284
f 238 284 239
f 239 284 285
f 239 285 286
f 239 286 287
f 239 287 288
f 239 288 289
f 239 289 290
f 239 290 282
f 240 244 291
f 240 291 241
f 241 292 242
f 241 291 292
f 242 292 284
f 243 293 244
f 243 245 293
f 244 293 294
f 244 294 295
f 244 295 291
f 245 296 297
f 245 297 293
f 245 246 296
f 246 258 298
f 246 298 299
f 246 299 300
f 246 300 301
f 246 301 302
f 246 302 296
f 247 265 303
f 247 303 304
f 247 304 248
f 248 304 305
f 248 305 249
f 249 305 306
f 249 306 250
f 250 306 307
f 250 307 252
f 251 308 309
f 251 309 253
f 252 307 310
f 252 310 362
f 252 362 308
f 253 311 254
f 253 309 312
f 253 312 311
f 254 311 313
f 254 313 314
f 254 314 255
f 255 314 256
f 256 314 315
f 256 315 258
f 256 258 257
f 258 315 316
f 258 316 298
f 260 317 318
f 260 318 263
f 260 280 278
f 260 278 319
f 260 319 317
f 262 263 318
f 262 318 320
f 262 320 265
f 262 265 264
f 265 320 303
f 266 321 267
f 267 322 323
f 267 323 268
f 267 321 322
f 268 323 324
f 268 324 325
f 268 325 269
f 269 325 270
f 270 325 326
f 270 326 327
f 270 327 271
f 271 327 328
f 271 328 329
f 271 329 272
f 272 329 273
f 273 329 330
f 273 330 274
f 274 330 276
f 274 276 275
f 276 331 277
f 276 330 332
f 276 332 331
f 277 331 333
f 277 333 278
f 278 333 334
f 278 334 319
f 278 280 279
f 281 283 335
f 282 290 283
f 283 290 336
f 283 336 335
f 284 337 285
f 284 292 338
f 284 338 337
f 285 337 339
f 285 339 340
f 285 340 286
f 286 340 341
f 286 341 287
f 287 341 288
f 288 341 289
f 289 341 290
f 290 341 342
f 290 342 343
f 290 343 336
f 291 295 344
f 291 344 292
f 292 344 345
f 292 345 346
f 292 346 347
f 292 347 338
f 293 297 348
f 293 348 349
f 293 349 350
f 293 350 294
f 294 350 295
f 295 350 351
f 295 351 352
f 295 352 344
f 296 302 353
f 296 353 348
f 296 348 297
f 298 316 354
f 298 354 299
f 299 354 300
f 300 354 301
f 301 354 302
f 302 354 355
f 302 355 353
f 303 320 356
f 303 356 304
f 304 356 357
f 304 357 358
f 304 358 305
f 305 358 359
f 305 359 306
f 306 359 360
f 306 360 361
f 306 361 307
f 307 361 365
f 307 365 310
f 308 362 363
f 308 363 309
f 309 363 364
f 309 364 312
f 310 365 417
f 310 417 362
f 311 312 366
f 311 366 313
f 312 364 367
f 312 367 366
f 313 366 368
f 313 368 369
f 313 369 316
f 313 316 315
f 313 315 314
f 316 369 370
f 316 370 371
f 316 371 372
f 316 372 354
f 317 319 334
f 317 334 373
f 317 373 356
f 317 356 318
f 318 356 320
f 321 374 322
f 322 375 376
f 322 376 323
f 322 374 377
f 322 377 375
f 323 376 378
f 323 378 324
f 324 378 379
f 324 379 325
f 325 379 380
f 325 380 326
f 326 380 381
f 326 381 327
f 327 381 382
f 327 382 328
f 328 382 383
f 328 383 329
f 329 383 384
f 329 384 330
f 330 384 332
f 331 332 385
f 331 385 333
f 332 384 386
f 332 386 385
f 333 387 388
f 333 388 334
f 333 385 387
f 334 388 373
f 335 336 389
f 336 343 390
f 336 390 391
f 336 391 389
f 337 338 392
f 337 392 393
f 337 393 339
f 338 347 394
f 338 394 392
f 339 393 395
f 339 395 340
f 340 395 396
f 340 396 397
f 340 397 398
f 340 398 399
f 340 399 341
f 341 400 342
f 341 399 400
f 342 400 401
f 342 401 343
f 343 401 390
f 344 352 345
f 345 352 402
f 345 402 346
f 346 402 403
f 346 403 394
f 346 394 347
f 348 404 349
f 348 353 404
f 349 405 406
f 349 406 350
f 349 404 405
f 350 406 351
f 351 407 408
f 351 408 352
f 351 406 407
f 352 408 402
f 353 355 409
f 353 409 404
f 354 372 371
f 354 371 410
f 354 410 355
f 355 410 409
f 356 373 388
f 356 388 411
f 356 411 357
f 357 411 412
f 357 412 358
f 358 412 413
f 358 413 359
f 359 413 360
f 360 413 414
f 360 414 415
f 360 415 416
f 360 416 361
f 361 416 365
f 362 417 418
f 362 418 363
f 363 418 364
f 364 418 419
f 364 419 420
f 364 420 367
f 365 416 421
f 365 421 461
f 365 461 417
f 366 367 422
f 366 422 368
f 367 420 423
f 367 423 422
f 368 422 424
f 368 424 425
f 368 425 369
f 369 425 370
f 370 425 426
f 370 426 371
f 371 426 427
f 371 427 409
f 371 409 410
f 375 428 376
f 375 377 429
f 375 429 428
f 376 428 430
f 376 430 378
f 378 430 380
f 378 380 379
f 380 430 431
f 380 431 381
f 381 431 432
f 381 432 382
f 382 432 433
f 382 433 383
f 383 433 384
f 384 433 434
f 384 434 386
f 385 435 436
f 385 436 387
f 385 386 435
f 386 434 437
f 386 437 435
f 387 436 388
f 388 438 412
f 388 412 411
f 388 436 438
f 390 401 439
f 390 439 440
f 390 440 391
f 392 394 441
f 392 441 442
f 392 442 395
f 392 395 393
f 394 403 441
f 395 443 396
f 395 442 444
f 395 444 443
f 396 443 445
f 396 445 397
f 397 445 446
f 397 446 398
f 398 446 447
f 398 447 448
f 398 448 400
f 398 400 399
f 400 448 401
f 401 448 449
f 401 449 439
f 402 408 441
f 402 441 403
f 404 450 405
f 404 409 451
f 404 451 450
f 405 450 452
f 405 452 406
f 406 452 407
f 407 452 453
f 407 453 408
f 408 453 454
f 408 454 441
f 409 455 451
f 409 427 455
f 412 438 413
f 413 438 456
f 413 456 414
f 414 456 457
f 414 457 458
f 414 458 415
f 415 421 416
f 415 458 459
f 415 459 460
f 415 460 421
f 417 461 462
f 417 462 418
f 418 462 419
f 419 462 463
f 419 463 464
f 419 464 465
f 419 465 420
f 420 465 423
f 421 460 505
f 421 505 461
f 422 423 466
f 422 466 467
f 422 467 424
f 423 465 468
f 423 468 466
f 424 467 469
f 424 469 425
f 425 469 470
f 425 470 426
f 426 470 427
f 427 470 455
f 428 471 430
f 428 429 472
f 428 472 517
f 428 517 556
f 428 556 591
f 428 591 622
f 428 622 623
f 428 623 592
f 428 592 557
f 428 557 518
f 428 518 516
f 428 516 471
f 430 471 473
f 430 473 431
f 431 473 432
f 432 473 474
f 432 474 433
f 433 474 475
f 433 475 434
f 434 475 437
f 435 437 476
f 435 476 458
f 435 458 457
f 435 457 436
f 436 457 456
f 436 456 438
f 437 477 476
f 437 475 477
f 439 449 478
f 439 478 479
f 439 479 440
f 441 454 480
f 441 480 442
f 442 481 444
f 442 480 481
f 443 444 481
f 443 481 445
f 445 482 446
f 445 481 483
f 445 483 484
f 445 484 485
f 445 485 482
f 446 482 486
f 446 486 447
f 447 486 487
f 447 487 488
f 447 488 448
f 448 488 449
f 449 488 489
f 449 489 478
f 450 451 455
f 450 455 490
f 450 490 491
f 450 491 492
f 450 492 493
f 450 493 452
f 452 494 495
f 452 495 496
f 452 496 453
f 452 493 494
f 453 496 497
f 453 497 498
f 453 498 499
f 453 499 500
f 453 500 481
f 453 481 480
f 453 480 454
f 455 470 501
f 455 501 491
f 455 491 490
f 458 476 502
f 458 502 459
f 459 503 460
f 459 502 504
f 459 504 503
f 460 503 544
f 460 544 505
f 461 505 463
f 461 463 462
f 463 505 506
f 463 506 507
f 463 507 464
f 464 507 508
f 464 508 509
f 464 509 465
f 465 509 510
f 465 510 468
f 466 468 511
f 466 511 467
f 467 511 512
f 467 512 513
f 467 513 514
f 467 514 515
f 467 515 469
f 468 510 512
f 468 512 511
f 469 515 470
f 470 515 501
f 471 516 473
f 473 516 518
f 473 518 519
f 473 519 474
f 474 519 520
f 474 520 475
f 475 520 477
f 476 477 502
f 477 521 502
f 477 520 521
f 478 489 522
f 478 522 523
f 478 523 479
f 481 524 483
f 481 500 525
f 481 525 524
f 482 526 486
f 482 485 526
f 483 527 484
f 483 524 527
f 484 527 485
f 485 527 528
f 485 528 529
f 485 529 526
f 486 530 487
f 486 526 530
f 487 530 531
f 487 531 532
f 487 532 489
f 487 489 488
f 489 532 522
f 491 501 515
f 491 515 514
f 491 514 533
f 491 533 534
f 491 534 535
f 491 535 494
f 491 494 492
f 492 494 493
f 494 536 537
f 494 537 538
f 494 538 497
f 494 497 495
f 494 535 536
f 495 497 496
f 497 537 539
f 497 539 540
f 497 540 499
f 497 499 498
f 497 538 537
f 499 541 542
f 499 542 543
f 499 543 524
f 499 524 525
f 499 525 500
f 499 540 541
f 502 521 504
f 503 504 545
f 503 545 577
f 503 577 544
f 504 521 546
f 504 546 545
f 505 544 506
f 506 544 547
f 506 547 548
f 506 548 507
f 507 548 549
f 507 549 550
f 507 550 508
f 508 550 551
f 508 551 509
f 509 551 510
f 510 551 512
f 512 552 513
f 512 551 553
f 512 553 554
f 512 554 552
f 513 552 514
f 514 552 533
f 517 555 556
f 518 557 558
f 518 558 559
f 518 559 560
f 518 560 520
f 518 520 519
f 520 560 521
f 521 560 546
f 522 532 561
f 522 561 562
f 522 562 523
f 524 543 527
f 526 529 563
f 526 563 530
f 527 543 564
f 527 564 565
f 527 565 528
f 528 565 529
f 529 566 563
f 529 565 567
f 529 567 566
f 530 563 568
f 530 568 531
f 531 568 569
f 531 569 570
f 531 570 532
f 532 570 561
f 533 552 534
f 534 571 537
f 534 537 536
f 534 536 535
f 534 552 554
f 534 554 571
f 537 572 573
f 537 573 541
f 537 541 539
f 537 571 572
f 539 541 540
f 541 574 575
f 541 575 576
f 541 576 542
f 541 573 574
f 542 576 543
f 543 576 564
f 544 577 547
f 545 546 578
f 545 578 579
f 545 579 607
f 545 607 577
f 546 560 559
f 546 559 578
f 547 577 580
f 547 580 581
f 547 581 548
f 548 581 582
f 548 582 549
f 549 582 583
f 549 583 550
f 550 584 551
f 550 583 585
f 550 585 584
f 551 584 553
f 553 584 554
f 554 584 586
f 554 586 571
f 555 587 588
f 555 588 556
f 556 588 589
f 556 589 590
f 556 590 591
f 557 592 607
f 557 607 579
f 557 579 558
f 558 579 578
f 558 578 559
f 561 570 593
f 561 593 594
f 561 594 595
f 561 595 596
f 561 596 562
f 563 597 568
f 563 566 597
f 564 576 565
f 565 598 567
f 565 576 575
f 565 575 599
f 565 599 598
f 566 600 597
f 566 567 600
f 567 598 600
f 568 597 601
f 568 601 569
f 569 601 602
f 569 602 603
f 569 603 570
f 570 603 593
f 571 586 572
f 572 586 604
f 572 604 605
f 572 605 574
f 572 574 573
f 574 605 606
f 574 606 599
f 574 599 575
f 577 607 608
f 577 608 580
f 580 608 609
f 580 609 610
f 580 610 581
f 581 610 611
f 581 611 582
f 582 611 612
f 582 612 583
f 583 612 613
f 583 613 585
f 584 585 604
f 584 604 586
f 585 613 614
f 585 614 604
f 587 615 616
f 587 616 588
f 588 616 589
f 589 616 617
f 589 617 618
f 589 618 590
f 590 619 620
f 590 620 621
f 590 621 591
f 590 618 619
f 591 621 622
f 592 623 624
f 592 624 607
f 593 603 594
f 594 625 626
f 594 603 625
f 597 627 601
f 597 600 627
f 598 599 606
f 598 606 628
f 598 628 600
f 600 628 627
f 601 627 629
f 601 629 602
f 602 629 630
f 602 630 631
f 602 631 603
f 603 631 632
f 603 632 625
f 604 614 605
f 605 614 633
f 605 633 606
f 606 633 628
f 607 624 608
f 608 624 609
f 609 624 623
f 609 623 610
f 610 623 611
f 611 623 634
f 611 634 635
f 611 635 612
f 612 635 636
f 612 636 613
f 613 636 614
f 614 636 637
f 614 637 633
f 615 638 639
f 615 639 616
f 616 639 617
f 617 640 641
f 617 641 618
f 617 639 640
f 618 641 642
f 618 642 619
f 619 643 620
f 619 642 644
f 619 644 645
f 619 645 643
f 620 643 646
f 620 646 621
f 621 646 635
f 621 635 634
f 621 634 623
f 621 623 622
f 625 632 647
f 625 647 626
f 627 628 648
f 627 648 629
f 628 633 648
f 629 648 649
f 629 649 650
f 629 650 630
f 630 650 640
f 630 640 651
f 630 651 631
f 631 651 632
f 632 651 652
f 633 637 653
f 633 653 648
f 635 646 636
f 636 646 654
f 636 654 637
f 637 654 653
f 638 652 651
f 638 651 639
f 639 651 640
f 640 650 644
f 640 644 641
f 641 644 642
f 643 645 655
f 643 655 654
f 643 654 646
f 644 649 645
f 644 650 649
f 645 649 655
f 648 653 655
f 648 655 649
f 653 654 655

