# https://github.com/mikedh/trimesh
v -0.00030852 0.03032651 -0.04961508
v -0.00030351 0.02646838 -0.04850233
v -0.00092656 0.03032651 -0.04953295
v -0.00030852 0.03094462 -0.04959105
v 0.00030852 0.03032651 -0.04961508
v -0.00092656 0.02646838 -0.04838715
v -0.00154461 0.02970889 -0.04923949
v 0.00030351 0.02646838 -0.04850233
v -0.00092656 0.03094462 -0.04950491
v -0.00154461 0.03032651 -0.04937571
v -0.00154461 0.03094462 -0.04936068
v -0.00154461 0.03138102 -0.04920043
v -0.00092656 0.03139691 -0.04926653
v -0.00030852 0.03139691 -0.04931060
v 0.00030852 0.03094462 -0.04959105
v 0.00092656 0.03032651 -0.04953295
v 0.00069718 0.02646838 -0.04850133
v -0.00214462 0.02646838 -0.04784830
v -0.00186815 0.02939561 -0.04906121
v -0.00198835 0.02970889 -0.04911529
v -0.00201440 0.03132840 -0.04912731
v -0.00210155 0.03032651 -0.04916738
v -0.00209754 0.03094462 -0.04916537
v -0.00219771 0.03141280 -0.04878878
v -0.00154461 0.03152401 -0.04874671
v -0.00092656 0.03153990 -0.04874671
v 0.00030852 0.03139691 -0.04931060
v 0.00092656 0.03139691 -0.04926653
v 0.00154461 0.03138102 -0.04920043
v 0.00092656 0.03094462 -0.04950491
v 0.00154461 0.03094462 -0.04936068
v 0.00154461 0.03032651 -0.04937571
v 0.00154461 0.02970889 -0.04923949
v 0.00118300 0.02646838 -0.04838514
v -0.00254529 0.02646838 -0.04749374
v -0.00315332 0.02985187 -0.04848831
v -0.00241007 0.03032651 -0.04902515
v -0.00240706 0.03094462 -0.04901514
v -0.00315031 0.03130358 -0.04848630
v -0.00278069 0.03136266 -0.04860349
v -0.00278069 0.03150564 -0.04812874
v -0.00216265 0.03153990 -0.04812874
v 0.00092656 0.03153990 -0.04874671
v 0.00154461 0.03152401 -0.04874671
v 0.00219771 0.03141280 -0.04878878
v 0.00201440 0.03132840 -0.04912731
v 0.00209754 0.03094462 -0.04916537
v 0.00210155 0.03032651 -0.04916738
v 0.00198835 0.02970889 -0.04911529
v 0.00186815 0.02939561 -0.04906121
v 0.00248018 0.02646838 -0.04782726
v -0.00276867 0.02646838 -0.04728841
v -0.00377337 0.02983102 -0.04789136
v -0.00349389 0.03032651 -0.04823691
v -0.00318437 0.03032651 -0.04851435
v -0.00278069 0.03032651 -0.04879379
v -0.00278069 0.03094462 -0.04878177
v -0.00318237 0.03094462 -0.04851234
v -0.00349189 0.03094462 -0.04823491
v -0.00377036 0.03131201 -0.04788836
v -0.00337269 0.03137606 -0.04810871
v -0.00339873 0.03151209 -0.04751076
v -0.00339873 0.03153990 -0.04689279
v 0.00216265 0.03153990 -0.04812874
v 0.00278069 0.03150564 -0.04812874
v 0.00278069 0.03136266 -0.04860349
v 0.00240706 0.03094462 -0.04901514
v 0.00315031 0.03130358 -0.04848630
v 0.00241007 0.03032651 -0.04902515
v 0.00315332 0.02985187 -0.04848831
v 0.00377337 0.02983102 -0.04789136
v 0.00311225 0.02646838 -0.04722531
v -0.00315132 0.02646838 -0.04687977
v -0.00433531 0.02997500 -0.04721630
v -0.00380542 0.03032651 -0.04792742
v -0.00380342 0.03094462 -0.04792542
v -0.00433331 0.03126336 -0.04721329
v -0.00399273 0.03135173 -0.04745568
v -0.00401678 0.03147535 -0.04689279
v -0.00401678 0.03153940 -0.04627481
v -0.00401678 0.03153990 -0.04565684
v 0.00339873 0.03153990 -0.04689279
v 0.00339873 0.03151209 -0.04751076
v 0.00337269 0.03137606 -0.04810871
v 0.00278069 0.03094462 -0.04878177
v 0.00278069 0.03032651 -0.04879379
v 0.00377036 0.03131201 -0.04788836
v 0.00349189 0.03094462 -0.04823491
v 0.00318237 0.03094462 -0.04851234
v 0.00318437 0.03032651 -0.04851435
v 0.00349389 0.03032651 -0.04823691
v 0.00380542 0.03032651 -0.04792742
v 0.00433531 0.02997500 -0.04721630
v 0.00377837 0.02646838 -0.04605346
v -0.00350191 0.02646838 -0.04627481
v -0.00434032 0.03032651 -0.04722331
v -0.00411494 0.03032651 -0.04753280
v -0.00379741 0.02646838 -0.04566084
v -0.00441645 0.02974513 -0.04686675
v -0.00498441 0.02985535 -0.04551862
v -0.00480110 0.03032651 -0.04627481
v -0.00451862 0.03032651 -0.04689279
v -0.00411294 0.03094462 -0.04753080
v -0.00433832 0.03094462 -0.04722131
v -0.00451161 0.03094462 -0.04689279
v -0.00478707 0.03094462 -0.04627481
v -0.00498240 0.03130209 -0.04551161
v -0.00441445 0.03133237 -0.04689279
v -0.00454967 0.03139642 -0.04627481
v -0.00463482 0.03148330 -0.04503886
v -0.00463482 0.03149472 -0.04442189
v -0.00401678 0.03153990 -0.04318594
v 0.00401678 0.03153990 -0.04565684
v 0.00401678 0.03153940 -0.04627481
v 0.00401678 0.03147535 -0.04689279
v 0.00399273 0.03135173 -0.04745568
v 0.00433331 0.03126336 -0.04721329
v 0.00380342 0.03094462 -0.04792542
v 0.00411494 0.03032651 -0.04753280
v 0.00434032 0.03032651 -0.04722331
v 0.00451862 0.03032651 -0.04689279
v 0.00480110 0.03032651 -0.04627481
v 0.00498441 0.02985535 -0.04551862
v 0.00441645 0.02974513 -0.04686675
v 0.00501847 0.02974215 -0.04503886
v 0.00383747 0.02646838 -0.04544250
v -0.00387153 0.02646838 -0.04503886
v -0.00501847 0.02974215 -0.04503886
v -0.00509359 0.03032651 -0.04503886
v -0.00500444 0.03032651 -0.04560375
v -0.00493032 0.03032651 -0.04591324
v -0.00492330 0.03094462 -0.04590823
v -0.00500344 0.03094462 -0.04559875
v -0.00509059 0.03094462 -0.04503886
v -0.00501546 0.03134031 -0.04503886
v -0.00502648 0.03135173 -0.04442189
v -0.00463482 0.03147039 -0.04380391
v -0.00401678 0.03153394 -0.04256796
v -0.00339873 0.03153990 -0.04194999
v 0.00401678 0.03153990 -0.04318594
v 0.00463482 0.03149472 -0.04442189
v 0.00463482 0.03148330 -0.04503886
v 0.00454967 0.03139642 -0.04627481
v 0.00441445 0.03133237 -0.04689279
v 0.00433832 0.03094462 -0.04722131
v 0.00411294 0.03094462 -0.04753080
v 0.00498240 0.03130209 -0.04551161
v 0.00478707 0.03094462 -0.04627481
v 0.00451161 0.03094462 -0.04689279
v 0.00492330 0.03094462 -0.04590823
v 0.00493032 0.03032651 -0.04591324
v 0.00500444 0.03032651 -0.04560375
v 0.00509359 0.03032651 -0.04503886
v 0.00511663 0.03032651 -0.04442189
v 0.00502948 0.02971584 -0.04442189
v 0.00389958 0.02646838 -0.04442189
v 0.00388355 0.02646838 -0.04487260
v 0.00387153 0.02646838 -0.04503886
v -0.00389958 0.02646838 -0.04442189
v -0.00502948 0.02971584 -0.04442189
v -0.00511663 0.03032651 -0.04442189
v -0.00511262 0.03094462 -0.04442189
v -0.00500344 0.03132740 -0.04380391
v -0.00451962 0.03139096 -0.04256796
v -0.00405684 0.03142074 -0.04191193
v -0.00339873 0.03148280 -0.04133101
v -0.00278069 0.03153990 -0.04133101
v 0.00401678 0.03153394 -0.04256796
v 0.00339873 0.03153990 -0.04194999
v 0.00463482 0.03147039 -0.04380391
v 0.00502648 0.03135173 -0.04442189
v 0.00501546 0.03134031 -0.04503886
v 0.00509059 0.03094462 -0.04503886
v 0.00500344 0.03094462 -0.04559875
v 0.00511262 0.03094462 -0.04442189
v 0.00506655 0.03094462 -0.04380391
v 0.00506955 0.03032651 -0.04380391
v 0.00500645 0.02977690 -0.04380391
v 0.00385450 0.02646838 -0.04380391
v -0.00387454 0.02646838 -0.04398019
v -0.00500645 0.02977690 -0.04380391
v -0.00506955 0.03032651 -0.04380391
v -0.00506655 0.03094462 -0.04380391
v -0.00497038 0.03128868 -0.04338525
v -0.00441845 0.03134131 -0.04209321
v -0.00384849 0.03134031 -0.04133101
v -0.00339873 0.03134031 -0.04085326
v -0.00284179 0.03142521 -0.04065194
v -0.00216265 0.03153990 -0.04071304
v 0.00405684 0.03142074 -0.04191193
v 0.00451962 0.03139096 -0.04256796
v 0.00339873 0.03148280 -0.04133101
v 0.00278069 0.03153990 -0.04133101
v 0.00500344 0.03132740 -0.04380391
v 0.00497038 0.03128868 -0.04338525
v 0.00498441 0.03094462 -0.04332516
v 0.00498641 0.03032651 -0.04332015
v 0.00497239 0.02989407 -0.04337824
v 0.00377036 0.02646838 -0.04319095
v -0.00382245 0.02646838 -0.04341029
v -0.00497239 0.02989407 -0.04337824
v -0.00375734 0.02646838 -0.04281736
v -0.00498641 0.03032651 -0.04332015
v -0.00498441 0.03094462 -0.04332516
v -0.00489626 0.03094462 -0.04301667
v -0.00472898 0.03094462 -0.04256796
v -0.00446754 0.03094462 -0.04200808
v -0.00428022 0.03094462 -0.04169859
v -0.00372629 0.03127379 -0.04100349
v -0.00267752 0.03134925 -0.04028035
v -0.00212859 0.03138351 -0.04008304
v -0.00154461 0.03147982 -0.04009506
v -0.00092656 0.03153195 -0.04009506
v -0.00030852 0.03153990 -0.04009506
v 0.00384849 0.03134031 -0.04133101
v 0.00441845 0.03134131 -0.04209321
v 0.00216265 0.03153990 -0.04071304
v 0.00284179 0.03142521 -0.04065194
v 0.00339873 0.03134031 -0.04085326
v 0.00489626 0.03094462 -0.04301667
v 0.00472898 0.03094462 -0.04256796
v 0.00490828 0.03032651 -0.04301166
v 0.00474500 0.03032651 -0.04256796
v 0.00440944 0.02970889 -0.04210623
v 0.00337269 0.02646838 -0.04256496
v -0.00440944 0.02970889 -0.04210623
v -0.00474500 0.03032651 -0.04256796
v -0.00490828 0.03032651 -0.04301166
v -0.00372829 0.02994174 -0.04100049
v -0.00324047 0.02646838 -0.04209822
v -0.00447054 0.03032651 -0.04200507
v -0.00429024 0.03032651 -0.04169559
v -0.00400075 0.03094462 -0.04133101
v -0.00308921 0.03122414 -0.04040455
v -0.00373630 0.03094462 -0.04099147
v -0.00190021 0.03127925 -0.03976654
v -0.00154461 0.03133684 -0.03970945
v -0.00092656 0.03138897 -0.03964034
v -0.00030852 0.03139691 -0.03961130
v 0.00030852 0.03153990 -0.04009506
v 0.00372629 0.03127379 -0.04100349
v 0.00446754 0.03094462 -0.04200808
v 0.00428022 0.03094462 -0.04169859
v 0.00092656 0.03153195 -0.04009506
v 0.00154461 0.03147982 -0.04009506
v 0.00212859 0.03138351 -0.04008304
v 0.00267752 0.03134925 -0.04028035
v 0.00447054 0.03032651 -0.04200507
v 0.00429024 0.03032651 -0.04169559
v 0.00372829 0.02994174 -0.04100049
v 0.00296801 0.02646838 -0.04194999
v -0.00373831 0.03032651 -0.04099047
v -0.00401177 0.03032651 -0.04133101
v -0.00294998 0.02646838 -0.04177972
v -0.00264446 0.02646838 -0.04147223
v -0.00309121 0.03001124 -0.04040254
v -0.00333763 0.03098881 -0.04062690
v -0.00309121 0.03081206 -0.04040254
v -0.00278069 0.03032651 -0.04020223
v -0.00284179 0.03098881 -0.04024930
v -0.00223577 0.03094462 -0.03990276
v -0.00340174 0.03032651 -0.04068099
v -0.00192625 0.03094462 -0.03975552
v -0.00154461 0.03094462 -0.03962732
v -0.00092656 0.03094462 -0.03948109
v -0.00030852 0.03094462 -0.03940998
v 0.00030852 0.03139691 -0.03961130
v 0.00373630 0.03094462 -0.04099147
v 0.00400075 0.03094462 -0.04133101
v 0.00308921 0.03122414 -0.04040455
v 0.00092656 0.03138897 -0.03964034
v 0.00154461 0.03133684 -0.03970945
v 0.00190021 0.03127925 -0.03976654
v 0.00401177 0.03032651 -0.04133101
v 0.00373831 0.03032651 -0.04099047
v 0.00309121 0.03001124 -0.04040254
v 0.00278069 0.02646838 -0.04175668
v -0.00195830 0.02646838 -0.04093238
v -0.00309222 0.03032651 -0.04040254
v -0.00190421 0.02992237 -0.03976454
v -0.00223878 0.03032651 -0.03989574
v -0.00192925 0.03032651 -0.03975352
v -0.00154461 0.03032651 -0.03962332
v -0.00092656 0.03032651 -0.03946707
v -0.00030852 0.03032651 -0.03938394
v 0.00030852 0.03094462 -0.03940998
v 0.00333763 0.03098881 -0.04062690
v 0.00340174 0.03032651 -0.04068099
v 0.00284179 0.03098881 -0.04024930
v 0.00278069 0.03032651 -0.04020223
v 0.00309121 0.03081206 -0.04040254
v 0.00223577 0.03094462 -0.03990276
v 0.00092656 0.03094462 -0.03948109
v 0.00192625 0.03094462 -0.03975552
v 0.00154461 0.03094462 -0.03962732
v 0.00309222 0.03032651 -0.04040254
v 0.00223878 0.03032651 -0.03989574
v 0.00190421 0.02992237 -0.03976454
v 0.00155262 0.02646838 -0.04088731
v 0.00216265 0.02646838 -0.04125689
v -0.00051387 0.02646838 -0.04050871
v -0.00151756 0.02971336 -0.03971346
v -0.00092656 0.02970889 -0.03959928
v -0.00030852 0.02970889 -0.03954820
v 0.00030852 0.03032651 -0.03938394
v 0.00092656 0.03032651 -0.03946707
v 0.00154461 0.03032651 -0.03962332
v 0.00192925 0.03032651 -0.03975352
v 0.00151756 0.02971336 -0.03971346
v 0.00030852 0.02646838 -0.04050771
v -0.00030852 0.02646838 -0.04050771
v 0.00030852 0.02970889 -0.03954820
v 0.00092656 0.02970889 -0.03959928
f 1 2 3
f 1 3 4
f 1 4 15
f 1 15 5
f 1 5 8
f 1 8 2
f 2 6 7
f 2 7 3
f 2 8 17
f 2 17 34
f 2 34 51
f 2 51 72
f 2 72 94
f 2 94 126
f 2 126 158
f 2 158 157
f 2 157 156
f 2 156 179
f 2 179 199
f 2 199 225
f 2 225 251
f 2 251 277
f 2 277 300
f 2 300 299
f 2 299 310
f 2 310 311
f 2 311 301
f 2 301 278
f 2 278 255
f 2 255 254
f 2 254 230
f 2 230 202
f 2 202 200
f 2 200 180
f 2 180 159
f 2 159 127
f 2 127 98
f 2 98 95
f 2 95 73
f 2 73 52
f 2 52 35
f 2 35 18
f 2 18 6
f 3 9 4
f 3 7 10
f 3 10 11
f 3 11 9
f 4 9 12
f 4 12 13
f 4 13 14
f 4 14 27
f 4 27 15
f 5 15 16
f 5 16 17
f 5 17 8
f 6 18 19
f 6 19 7
f 7 19 20
f 7 20 10
f 9 11 21
f 9 21 12
f 10 20 22
f 10 22 23
f 10 23 11
f 11 23 21
f 12 21 24
f 12 24 25
f 12 25 13
f 13 26 14
f 13 25 26
f 14 26 43
f 14 43 27
f 15 27 28
f 15 28 29
f 15 29 30
f 15 30 16
f 16 30 31
f 16 31 32
f 16 32 33
f 16 33 17
f 17 33 34
f 18 20 19
f 18 35 36
f 18 36 20
f 20 37 22
f 20 36 37
f 21 23 38
f 21 38 39
f 21 39 40
f 21 40 24
f 22 37 23
f 23 37 38
f 24 40 41
f 24 41 25
f 25 41 42
f 25 42 26
f 26 42 63
f 26 63 81
f 26 81 112
f 26 112 139
f 26 139 167
f 26 167 189
f 26 189 214
f 26 214 240
f 26 240 217
f 26 217 193
f 26 193 169
f 26 169 140
f 26 140 113
f 26 113 82
f 26 82 64
f 26 64 43
f 27 43 28
f 28 43 44
f 28 44 29
f 29 44 45
f 29 45 46
f 29 46 30
f 30 46 31
f 31 46 47
f 31 47 32
f 32 47 48
f 32 48 49
f 32 49 33
f 33 49 50
f 33 50 34
f 34 50 49
f 34 49 51
f 35 52 36
f 36 53 54
f 36 54 55
f 36 55 56
f 36 56 37
f 36 52 53
f 37 56 38
f 38 56 57
f 38 57 39
f 39 57 58
f 39 58 59
f 39 59 60
f 39 60 61
f 39 61 40
f 40 61 41
f 41 61 62
f 41 62 42
f 42 62 63
f 43 64 44
f 44 64 65
f 44 65 45
f 45 65 66
f 45 66 46
f 46 67 47
f 46 66 68
f 46 68 67
f 47 67 69
f 47 69 48
f 48 69 49
f 49 69 70
f 49 70 51
f 51 70 71
f 51 71 72
f 52 73 53
f 53 74 75
f 53 75 54
f 53 73 74
f 54 59 58
f 54 58 55
f 54 75 76
f 54 76 59
f 55 58 56
f 56 58 57
f 59 76 60
f 60 76 77
f 60 77 78
f 60 78 61
f 61 78 62
f 62 78 79
f 62 79 80
f 62 80 63
f 63 80 81
f 64 82 83
f 64 83 65
f 65 83 84
f 65 84 66
f 66 84 68
f 67 85 86
f 67 86 69
f 67 68 85
f 68 84 87
f 68 87 88
f 68 88 89
f 68 89 85
f 69 86 70
f 70 90 91
f 70 91 71
f 70 86 90
f 71 92 93
f 71 93 72
f 71 91 92
f 72 93 94
f 73 95 74
f 74 96 97
f 74 97 75
f 74 95 98
f 74 98 99
f 74 99 100
f 74 100 101
f 74 101 102
f 74 102 96
f 75 97 103
f 75 103 76
f 76 103 77
f 77 103 104
f 77 104 105
f 77 105 106
f 77 106 107
f 77 107 108
f 77 108 78
f 78 108 79
f 79 108 109
f 79 109 80
f 80 109 110
f 80 110 111
f 80 111 81
f 81 111 112
f 82 113 114
f 82 114 83
f 83 114 115
f 83 115 116
f 83 116 84
f 84 116 87
f 85 89 86
f 86 89 90
f 87 116 117
f 87 117 118
f 87 118 88
f 88 91 90
f 88 90 89
f 88 118 92
f 88 92 91
f 92 118 146
f 92 146 119
f 92 119 93
f 93 119 120
f 93 120 121
f 93 121 122
f 93 122 123
f 93 123 124
f 93 124 94
f 94 124 123
f 94 123 125
f 94 125 126
f 96 104 103
f 96 103 97
f 96 102 104
f 98 127 128
f 98 128 100
f 98 100 99
f 100 128 129
f 100 129 130
f 100 130 131
f 100 131 101
f 101 131 132
f 101 132 106
f 101 106 105
f 101 105 102
f 102 105 104
f 106 132 107
f 107 132 133
f 107 133 134
f 107 134 135
f 107 135 109
f 107 109 108
f 109 135 110
f 110 135 136
f 110 136 111
f 111 136 137
f 111 137 138
f 111 138 112
f 112 138 139
f 113 140 141
f 113 141 114
f 114 141 142
f 114 142 143
f 114 143 115
f 115 143 144
f 115 144 116
f 116 144 117
f 117 145 146
f 117 146 118
f 117 144 147
f 117 147 148
f 117 148 149
f 117 149 145
f 119 146 145
f 119 145 120
f 120 145 121
f 121 149 122
f 121 145 149
f 122 149 148
f 122 148 150
f 122 150 151
f 122 151 123
f 123 151 152
f 123 152 153
f 123 153 125
f 125 153 154
f 125 154 155
f 125 155 156
f 125 156 157
f 125 157 158
f 125 158 126
f 127 159 128
f 128 160 161
f 128 161 129
f 128 159 160
f 129 161 134
f 129 134 133
f 129 133 130
f 130 133 131
f 131 133 132
f 134 161 162
f 134 162 135
f 135 162 136
f 136 163 137
f 136 162 163
f 137 164 138
f 137 163 164
f 138 164 165
f 138 165 166
f 138 166 139
f 139 166 167
f 140 168 141
f 140 169 168
f 141 170 171
f 141 171 142
f 141 168 170
f 142 171 172
f 142 172 143
f 143 172 147
f 143 147 144
f 147 172 173
f 147 173 174
f 147 174 150
f 147 150 148
f 150 174 151
f 151 174 152
f 152 174 153
f 153 173 154
f 153 174 173
f 154 175 176
f 154 176 177
f 154 177 178
f 154 178 155
f 154 173 175
f 155 178 156
f 156 178 179
f 159 180 160
f 160 181 161
f 160 180 181
f 161 181 182
f 161 182 183
f 161 183 162
f 162 183 163
f 163 183 184
f 163 184 164
f 164 184 185
f 164 185 165
f 165 186 166
f 165 185 186
f 166 187 188
f 166 188 189
f 166 189 167
f 166 186 187
f 168 190 191
f 168 191 170
f 168 169 192
f 168 192 190
f 169 193 192
f 170 191 194
f 170 194 171
f 171 175 172
f 171 194 175
f 172 175 173
f 175 194 176
f 176 194 195
f 176 195 196
f 176 196 177
f 177 197 198
f 177 198 178
f 177 196 197
f 178 198 199
f 178 199 179
f 180 200 181
f 181 201 182
f 181 200 202
f 181 202 201
f 182 201 203
f 182 203 204
f 182 204 183
f 183 204 184
f 184 204 205
f 184 205 206
f 184 206 185
f 185 206 207
f 185 207 208
f 185 208 209
f 185 209 186
f 186 209 187
f 187 209 210
f 187 210 188
f 188 210 211
f 188 211 212
f 188 212 189
f 189 212 213
f 189 213 214
f 190 192 215
f 190 215 216
f 190 216 191
f 191 216 195
f 191 195 194
f 192 193 217
f 192 217 218
f 192 218 219
f 192 219 215
f 195 220 196
f 195 216 221
f 195 221 220
f 196 220 222
f 196 222 197
f 197 222 198
f 198 222 223
f 198 223 224
f 198 224 199
f 199 224 225
f 201 226 227
f 201 227 228
f 201 228 203
f 201 202 226
f 202 229 226
f 202 230 229
f 203 228 204
f 204 228 205
f 205 228 227
f 205 227 206
f 206 227 207
f 207 227 231
f 207 231 232
f 207 232 208
f 208 232 233
f 208 233 209
f 209 234 210
f 209 233 235
f 209 235 234
f 210 236 211
f 210 234 236
f 211 236 237
f 211 237 212
f 212 237 238
f 212 238 213
f 213 238 239
f 213 239 214
f 214 239 267
f 214 267 240
f 215 241 216
f 215 219 241
f 216 242 221
f 216 241 243
f 216 243 242
f 217 240 244
f 217 244 245
f 217 245 218
f 218 245 246
f 218 246 247
f 218 247 219
f 219 247 241
f 220 221 223
f 220 223 222
f 221 242 223
f 223 242 248
f 223 248 224
f 224 248 249
f 224 249 250
f 224 250 251
f 224 251 225
f 226 231 227
f 226 229 232
f 226 232 231
f 229 252 253
f 229 253 232
f 229 230 254
f 229 254 255
f 229 255 256
f 229 256 252
f 232 253 233
f 233 253 235
f 234 235 257
f 234 257 258
f 234 258 259
f 234 259 260
f 234 260 261
f 234 261 236
f 235 253 252
f 235 252 262
f 235 262 257
f 236 261 263
f 236 263 264
f 236 264 265
f 236 265 237
f 237 265 238
f 238 265 266
f 238 266 239
f 239 266 286
f 239 286 267
f 240 267 244
f 241 268 269
f 241 269 243
f 241 247 270
f 241 270 268
f 242 243 249
f 242 249 248
f 243 269 249
f 244 267 271
f 244 271 245
f 245 271 272
f 245 272 246
f 246 272 273
f 246 273 247
f 247 273 270
f 249 269 274
f 249 274 250
f 250 274 275
f 250 275 276
f 250 276 277
f 250 277 251
f 252 256 262
f 255 278 256
f 256 279 262
f 256 278 280
f 256 280 281
f 256 281 259
f 256 259 279
f 257 262 258
f 258 262 279
f 258 279 259
f 259 281 261
f 259 261 260
f 261 281 263
f 263 282 283
f 263 283 264
f 263 281 282
f 264 283 284
f 264 284 265
f 265 284 285
f 265 285 266
f 266 285 305
f 266 305 286
f 267 286 271
f 268 275 274
f 268 274 269
f 268 270 287
f 268 287 288
f 268 288 275
f 270 289 290
f 270 290 291
f 270 291 287
f 270 273 292
f 270 292 289
f 271 286 293
f 271 293 272
f 272 293 273
f 273 294 292
f 273 293 295
f 273 295 294
f 275 288 276
f 276 288 296
f 276 296 290
f 276 290 297
f 276 297 298
f 276 298 299
f 276 299 300
f 276 300 277
f 278 301 302
f 278 302 280
f 280 302 284
f 280 284 283
f 280 283 282
f 280 282 281
f 284 302 303
f 284 303 285
f 285 303 304
f 285 304 312
f 285 312 305
f 286 305 293
f 287 291 288
f 288 291 296
f 289 292 290
f 290 296 291
f 290 292 297
f 292 294 297
f 293 305 306
f 293 306 295
f 294 295 307
f 294 307 308
f 294 308 297
f 295 306 307
f 297 308 298
f 298 308 307
f 298 307 306
f 298 306 309
f 298 309 299
f 299 309 310
f 301 311 304
f 301 304 303
f 301 303 302
f 304 311 310
f 304 310 312
f 305 312 313
f 305 313 306
f 306 313 309
f 309 313 310
f 310 313 312

