# https://github.com/mikedh/trimesh
v 0.00973240 0.00336425 -0.04223964
v 0.00562084 0.00439587 -0.04182216
v 0.00973240 0.00366459 -0.04255958
v 0.01013546 0.00366459 -0.04255958
v 0.01018812 0.00336425 -0.04207577
v 0.00922200 0.00336425 -0.04201334
v 0.00614542 0.00374033 -0.04124081
v 0.00594895 0.00399106 -0.04146711
v 0.00538184 0.00423394 -0.04151003
v 0.00520158 0.00448206 -0.04172852
v 0.00540615 0.00475106 -0.04209528
v 0.00560464 0.00564426 -0.04308631
v 0.00950758 0.01511952 -0.05433486
v 0.00992684 0.01504117 -0.05441680
v 0.00994507 0.01441958 -0.05378082
v 0.01002204 0.01193586 -0.05124083
v 0.01004229 0.01131427 -0.05060485
v 0.00572818 0.00380563 -0.04113937
v 0.01013951 0.00428618 -0.04319555
v 0.01021445 0.00408508 -0.04276247
v 0.01020837 0.00346088 -0.04212649
v 0.01004837 0.01131427 -0.05060485
v 0.01005647 0.01193586 -0.05124083
v 0.01008482 0.01441958 -0.05378082
v 0.01009090 0.01504117 -0.05441680
v 0.01033192 0.00346610 -0.04149442
v 0.01029952 0.00336425 -0.04149442
v 0.00752472 0.00336425 -0.04122130
v 0.00679152 0.00336425 -0.04086625
v 0.00594895 0.00361758 -0.04090526
v 0.00470941 0.00433319 -0.04128373
v 0.00470941 0.00491038 -0.04193921
v 0.00519348 0.00510886 -0.04236450
v 0.00307086 0.00500701 -0.04121740
v 0.00558641 0.00751947 -0.04498253
v 0.00559856 0.00626846 -0.04371838
v 0.00683810 0.01505162 -0.05314875
v 0.00684418 0.01567842 -0.05377692
v 0.00784878 0.01579595 -0.05429195
v 0.00910453 0.01552433 -0.05454556
v 0.00973645 0.01539897 -0.05468211
v 0.00996532 0.01567842 -0.05502546
v 0.00438129 0.00440371 -0.04119009
v 0.00533728 0.00371422 -0.04068677
v 0.00365215 0.00436192 -0.04063215
v 0.01015369 0.01480612 -0.05401493
v 0.01021850 0.00470927 -0.04339454
v 0.01007875 0.01567842 -0.05502546
v 0.01015166 0.01544076 -0.05464700
v 0.01030357 0.01539897 -0.05405785
v 0.01034002 0.00472233 -0.04275076
v 0.01034610 0.00346610 -0.04086625
v 0.01030559 0.00336425 -0.04137737
v 0.00659303 0.00341909 -0.04086625
v 0.00666797 0.00336425 -0.04079212
v 0.00596516 0.00336425 -0.04027709
v 0.00432458 0.00500440 -0.04184557
v 0.00470941 0.00584798 -0.04288342
v 0.00284604 0.00486859 -0.04087795
v 0.00265160 0.00510886 -0.04109254
v 0.00285819 0.00536742 -0.04147881
v 0.00345366 0.00521594 -0.04162708
v 0.00557830 0.01002670 -0.04749911
v 0.00596516 0.01243991 -0.05010934
v 0.00596516 0.01432034 -0.05199776
v 0.00641885 0.01515086 -0.05304731
v 0.00611301 0.01556873 -0.05325020
v 0.00735053 0.01622688 -0.05446362
v 0.00596516 0.01494976 -0.05262202
v 0.00559248 0.01504639 -0.05252448
v 0.00954607 0.01578812 -0.05495133
v 0.00877034 0.01633135 -0.05500595
v 0.00910453 0.01623211 -0.05505668
v 0.00974658 0.01601011 -0.05511910
v 0.00396203 0.00449511 -0.04105353
v 0.00501119 0.00377690 -0.04056192
v 0.00592060 0.00336425 -0.04024198
v -0.00973170 0.00336425 -0.02762003
v 0.00323289 0.00444810 -0.04046438
v 0.00344556 0.00459175 -0.04085454
v 0.01022053 0.00533086 -0.04402661
v 0.00973240 0.01665520 -0.05529858
v 0.01014558 0.01602839 -0.05509959
v 0.01029344 0.01602839 -0.05468211
v 0.01034610 0.01665520 -0.05468211
v 0.01034610 0.01602839 -0.05405785
v 0.01034610 0.01539897 -0.05342967
v 0.01034610 0.01037406 -0.04840430
v 0.01034610 0.00849102 -0.04651979
v 0.01034610 0.00786421 -0.04589162
v 0.01034205 0.00535175 -0.04337893
v 0.01034407 0.00336425 -0.03135004
v 0.01031572 0.00336425 -0.04086625
v 0.01034610 0.00346610 -0.02077647
v 0.00345366 0.00552935 -0.04194702
v 0.00470941 0.00835521 -0.04540001
v 0.00536159 0.01227015 -0.04964894
v 0.00536361 0.01164334 -0.04902077
v 0.00237007 0.00495739 -0.04067116
v 0.00186169 0.00565210 -0.04119789
v 0.00219791 0.00555285 -0.04129543
v 0.00217563 0.00522378 -0.04087795
v 0.00264552 0.00573829 -0.04173632
v 0.00306478 0.00562598 -0.04184947
v 0.00557425 0.01378755 -0.05127204
v 0.00557830 0.01441436 -0.05190021
v 0.00596516 0.01463374 -0.05230989
v 0.00557223 0.01316074 -0.05064387
v 0.00642492 0.01591348 -0.05366768
v 0.00488157 0.01495759 -0.05197044
v 0.00514689 0.01539897 -0.05240353
v 0.00783258 0.01666304 -0.05487720
v 0.00835108 0.01645932 -0.05493963
v 0.00693330 0.01651678 -0.05435437
v 0.00470941 0.01435168 -0.05133447
v 0.00438737 0.01445092 -0.05123693
v 0.00470941 0.01307717 -0.05009764
v 0.00470941 0.01339841 -0.05040977
v 0.00803107 0.01687458 -0.05503717
v 0.00852729 0.01666304 -0.05507618
v 0.00910453 0.01665520 -0.05520104
v -0.01017122 0.00336425 -0.02688651
v -0.00447579 0.00924580 -0.03880226
v -0.00379525 0.00937116 -0.03996886
v -0.00366968 0.00895329 -0.03981670
v -0.00325042 0.00868951 -0.04003519
v -0.00304383 0.00826902 -0.03981670
v -0.00262457 0.00808098 -0.04003129
v -0.00068221 0.00687438 -0.04060093
v 0.00001858 0.00630502 -0.04053851
v 0.00119331 0.00562859 -0.04060484
v 0.01019622 0.01665520 -0.05515812
v 0.00847665 0.01727940 -0.05524396
v 0.00910453 0.01727940 -0.05531809
v 0.00973240 0.01727940 -0.05532980
v 0.01034610 0.02544358 -0.05468211
v 0.01034407 0.00336425 -0.01952013
v 0.01034610 0.02544358 -0.02077647
v 0.00345366 0.00615616 -0.04257519
v 0.00431648 0.00876525 -0.04561850
v 0.00389722 0.00886972 -0.04551316
v 0.00072747 0.00636509 -0.04111205
v 0.00001250 0.00692922 -0.04117448
v 0.00114673 0.00621623 -0.04125642
v 0.00095634 0.00724524 -0.04211479
v 0.00240045 0.01123853 -0.04690996
v 0.00317415 0.01322342 -0.04932510
v 0.00267185 0.00827425 -0.04422950
v 0.00265363 0.00700496 -0.04298486
v 0.00219791 0.00587409 -0.04161147
v 0.00307086 0.00688221 -0.04310582
v 0.00306681 0.00625279 -0.04247764
v 0.00432256 0.01064829 -0.04750301
v 0.00434281 0.01191235 -0.04875155
v 0.00627504 0.01633135 -0.05374571
v 0.00477625 0.01539897 -0.05209140
v 0.00318833 0.01387896 -0.04994547
v 0.00368658 0.01437518 -0.05067118
v 0.00761181 0.01727940 -0.05496304
v 0.00690494 0.01693204 -0.05437388
v 0.00414837 0.01292830 -0.04962163
v 0.00792574 0.01727940 -0.05509959
v -0.01022388 0.00336425 -0.02657828
v -0.01028059 0.02669981 -0.02893880
v -0.01014286 0.02669981 -0.02953966
v -0.01003551 0.02669981 -0.02985179
v -0.00942182 0.01693988 -0.03051508
v -0.00877774 0.01539897 -0.03171680
v -0.00690829 0.01193586 -0.03491228
v -0.00501252 0.00974725 -0.03801022
v -0.00481808 0.00974725 -0.03835747
v -0.00451427 0.00974725 -0.03886468
v -0.00432186 0.00974725 -0.03918072
v -0.00405248 0.00974725 -0.03961381
v -0.00381146 0.00974725 -0.03999227
v -0.00063563 0.01192280 -0.04496302
v -0.00252330 0.01004237 -0.04182606
v -0.00320181 0.00934766 -0.04062434
v -0.00302357 0.00892979 -0.04045267
v -0.00260432 0.00871040 -0.04063605
v -0.00282306 0.00849102 -0.04024198
v -0.00239165 0.00829253 -0.04044877
v -0.00133642 0.00747507 -0.04062434
v -0.00088475 0.00728441 -0.04082333
v -0.00066803 0.00751424 -0.04121350
v -0.00031359 0.00737321 -0.04135006
v -0.00031359 0.00705981 -0.04105353
v -0.00031359 0.00673857 -0.04074139
v 0.01019622 0.02544358 -0.05515812
v 0.00847665 0.01790882 -0.05531419
v 0.00910453 0.01790882 -0.05534150
v 0.00910453 0.01853563 -0.05534540
v 0.00973240 0.02544358 -0.05532980
v 0.01014558 0.02593980 -0.05510350
v 0.01019622 0.02603121 -0.05468211
v 0.01025698 0.02732923 -0.02831063
v 0.01026103 0.02732923 -0.02768246
v 0.01033192 0.02669981 -0.02768246
v 0.01034407 0.02607300 -0.02768246
v 0.01034407 0.02607300 -0.01952013
v 0.01031977 0.00336425 -0.01889196
v 0.00002668 0.00756909 -0.04179095
v 0.00122977 0.01004237 -0.04497082
v 0.00243286 0.01251565 -0.04814679
v 0.00245514 0.01315552 -0.04875936
v 0.00316403 0.01258878 -0.04870473
v 0.00392355 0.01204032 -0.04862670
v 0.00309921 0.00878092 -0.04497472
v 0.00308099 0.00751424 -0.04373008
v 0.00627302 0.01665520 -0.05374961
v 0.00446231 0.01539897 -0.05179877
v 0.00504360 0.01602839 -0.05246596
v 0.00473979 0.01602839 -0.05215382
v 0.00306073 0.01429683 -0.05006642
v 0.00130673 0.01263579 -0.04742498
v 0.00178675 0.01309545 -0.04818581
v 0.00250780 0.01382412 -0.04934851
v 0.00757130 0.01790882 -0.05497084
v 0.00788524 0.01790882 -0.05514251
v 0.00690494 0.01706785 -0.05437388
v -0.01032717 0.00336425 -0.02590329
v -0.01020970 0.02732923 -0.02893880
v -0.01010640 0.02732923 -0.02943431
v -0.01032717 0.02669981 -0.02831063
v -0.01025831 0.02732923 -0.02831063
v -0.00999703 0.02732923 -0.02974645
v -0.00975398 0.02732923 -0.03019514
v -0.00983500 0.02669981 -0.03019514
v -0.00759693 0.01351593 -0.03375738
v -0.00828152 0.01477216 -0.03259858
v -0.00878179 0.01602839 -0.03175191
v -0.00894382 0.01602839 -0.03143588
v -0.00858533 0.01539897 -0.03207965
v -0.00672196 0.01225971 -0.03522831
v -0.00571533 0.01100348 -0.03689433
v -0.00521101 0.01037406 -0.03772539
v -0.00405045 0.01037406 -0.03961381
v -0.00502062 0.01037406 -0.03803753
v -0.00380943 0.01100348 -0.03999617
v -0.00381146 0.01037406 -0.03999617
v -0.00361297 0.01037406 -0.04031221
v -0.00329903 0.01037406 -0.04080382
v -0.00309649 0.01037406 -0.04111986
v -0.00063968 0.01225971 -0.04496692
v -0.00012117 0.01288651 -0.04575896
v 0.00009149 0.01288651 -0.04607500
v 0.00062012 0.01315291 -0.04684363
v 0.00065455 0.01273242 -0.04680851
v -0.00004421 0.01188362 -0.04563020
v -0.00120476 0.01076059 -0.04365205
v -0.00188935 0.01005282 -0.04244643
v -0.00257191 0.00936855 -0.04124081
v -0.00236532 0.00894807 -0.04105743
v -0.00216885 0.00851714 -0.04084284
v -0.00197239 0.00809143 -0.04063215
v -0.00153288 0.00789816 -0.04083894
v -0.00108527 0.00770490 -0.04104573
v -0.00064575 0.00815933 -0.04182606
v -0.00031359 0.00802091 -0.04195482
v 0.00847665 0.01853563 -0.05532199
v 0.00910453 0.02544358 -0.05534540
v 0.00973240 0.02603382 -0.05516592
v 0.00973240 0.02631850 -0.05468211
v 0.00877439 0.02951783 -0.02831063
v 0.00910453 0.02924622 -0.02831063
v 0.00944480 0.02892498 -0.02876712
v 0.00946100 0.02894326 -0.02831063
v 0.00972228 0.02858546 -0.02831063
v 0.00999571 0.02815191 -0.02831063
v 0.01012331 0.02783851 -0.02831063
v 0.01012533 0.02784373 -0.02768246
v 0.01026103 0.02732923 -0.01952013
v 0.01033192 0.02669981 -0.01952013
v 0.01031774 0.02607300 -0.01889196
v 0.01031977 0.01602839 -0.01889196
v 0.01020837 0.00336425 -0.01826379
v 0.00004491 0.00821418 -0.04240351
v 0.00128648 0.01196981 -0.04681242
v 0.00172397 0.01245036 -0.04757715
v 0.00201360 0.01267497 -0.04799463
v 0.00596516 0.01665520 -0.05342967
v 0.00627302 0.01790882 -0.05374961
v 0.00416660 0.01539897 -0.05148273
v 0.00442585 0.01602839 -0.05182218
v 0.00330378 0.01477216 -0.05043318
v 0.00442585 0.01979186 -0.05182608
v 0.00473979 0.02293373 -0.05215382
v 0.00302022 0.01477216 -0.05011714
v 0.00059784 0.01191757 -0.04623107
v 0.00248754 0.01414274 -0.04937582
v 0.00118521 0.01305366 -0.04755374
v 0.00140395 0.01351593 -0.04791659
v 0.00115078 0.01351593 -0.04760056
v 0.00757130 0.02293373 -0.05497084
v 0.00788524 0.01853563 -0.05515032
v 0.00725129 0.02544358 -0.05465480
v 0.00757535 0.02544358 -0.05497084
v 0.00757332 0.02481677 -0.05497084
v -0.01032920 0.00336425 -0.02580184
v -0.01009830 0.02777583 -0.02893880
v -0.01006590 0.02769487 -0.02931336
v -0.01033122 0.02669981 -0.02768246
v -0.01026236 0.02732923 -0.02768246
v -0.01012261 0.02783851 -0.02831063
v -0.00987956 0.02792470 -0.02953966
v -0.00955954 0.02792208 -0.03018734
v -0.00944005 0.02768964 -0.03053459
v -0.00063158 0.02577265 -0.04495912
v -0.00063563 0.02544358 -0.04496302
v -0.00063968 0.02418996 -0.04497082
v -0.00258204 0.01602839 -0.04192360
v -0.00309851 0.01351593 -0.04111596
v -0.00309851 0.01288651 -0.04111986
v -0.00309851 0.01100348 -0.04111986
v -0.00206961 0.01163029 -0.04273125
v -0.00085234 0.01225971 -0.04463528
v -0.00063968 0.01288651 -0.04497082
v -0.00043511 0.01288651 -0.04528295
v -0.00012117 0.02230431 -0.04575896
v 0.00008947 0.01351593 -0.04607500
v 0.00061810 0.01351593 -0.04684753
v 0.00083684 0.01351593 -0.04716357
v -0.00010092 0.01122286 -0.04503715
v -0.00054651 0.01076581 -0.04425291
v -0.00078753 0.01053076 -0.04383543
v -0.00123515 0.01008155 -0.04304729
v -0.00081589 0.00987783 -0.04323067
v -0.00059714 0.00945996 -0.04304339
v -0.00062347 0.00880965 -0.04243473
v 0.00057151 0.01126726 -0.04562240
v 0.00054923 0.01062217 -0.04501374
v 0.00847665 0.02104808 -0.05532199
v 0.00847665 0.02544358 -0.05531809
v 0.00847665 0.02603382 -0.05515812
v 0.00910453 0.02603905 -0.05516983
v 0.00910453 0.02633156 -0.05468211
v 0.00659303 0.02999317 -0.02893880
v 0.00722091 0.02996966 -0.02893880
v 0.00784878 0.02985997 -0.02893880
v 0.00840779 0.02964842 -0.02893880
v 0.00872173 0.02948649 -0.02893880
v 0.00846045 0.02967454 -0.02831063
v 0.00878046 0.02952045 -0.02768246
v 0.00910453 0.02925405 -0.02768246
v 0.00946302 0.02894587 -0.02768246
v 0.00972835 0.02858546 -0.02768246
v 0.00999773 0.02815714 -0.02768246
v 0.01012533 0.02784373 -0.01952013
v 0.01011115 0.02780717 -0.01889196
v 0.01023470 0.02732923 -0.01889196
v 0.01030559 0.02669981 -0.01889196
v 0.01020432 0.02607300 -0.01826379
v 0.01020635 0.01979186 -0.01826379
v 0.01020837 0.00346610 -0.01826379
v 0.01008280 0.00336425 -0.01787362
v 0.00596516 0.01790882 -0.05342967
v 0.00693735 0.02544358 -0.05434267
v 0.00504157 0.02293373 -0.05246596
v 0.00504562 0.02356054 -0.05246596
v 0.00473979 0.02544358 -0.05214212
v 0.00385266 0.01539897 -0.05113158
v 0.00416052 0.01602839 -0.05151004
v 0.00442585 0.02356054 -0.05182608
v 0.00442585 0.02544358 -0.05182218
v 0.00221816 0.01414274 -0.04903247
v 0.00192651 0.01414274 -0.04865791
v 0.00270629 0.01477216 -0.04971137
v 0.00302225 0.01539897 -0.05012104
v 0.00327542 0.01539897 -0.05043708
v 0.00358936 0.01539897 -0.05081945
v 0.00012998 0.01080238 -0.04484597
v 0.00115280 0.01414274 -0.04760446
v 0.00169561 0.01414274 -0.04834578
v 0.00788524 0.01916505 -0.05515032
v 0.00734648 0.02594764 -0.05456116
v 0.00798043 0.02593719 -0.05509569
v 0.00788929 0.02544358 -0.05514251
v 0.00788726 0.02418996 -0.05514641
v -0.01034540 0.00336425 -0.01952013
v -0.00996665 0.02808923 -0.02893880
v -0.00999501 0.02815453 -0.02831063
v -0.01033527 0.02607300 -0.02580184
v -0.01034540 0.02607300 -0.01952013
v -0.01033325 0.02669981 -0.02014830
v -0.01012463 0.02784373 -0.02768246
v -0.01026236 0.02732923 -0.01952013
v -0.00956562 0.02847577 -0.02956697
v -0.00947650 0.02835040 -0.02997274
v -0.00932257 0.02810752 -0.03039022
v -0.00007864 0.02591107 -0.04568873
v 0.00122369 0.02583795 -0.04750691
v -0.00011915 0.02544358 -0.04574335
v -0.00043309 0.02544358 -0.04527905
v -0.00043511 0.02481677 -0.04528295
v -0.00238355 0.01539897 -0.04223964
v -0.00238355 0.01163029 -0.04223964
v -0.00012117 0.02356054 -0.04575506
v 0.00009149 0.02104808 -0.04607500
v 0.00008947 0.01979186 -0.04607500
v 0.00061810 0.01665520 -0.04684753
v 0.00847665 0.02632633 -0.05468211
v -0.00659233 0.02999317 -0.02893880
v 0.00659303 0.03004018 -0.02831063
v 0.00722091 0.03001667 -0.02831063
v 0.00784878 0.02990959 -0.02831063
v 0.00784878 0.02991481 -0.02768246
v 0.00846653 0.02967715 -0.02768246
v 0.00878249 0.02952306 -0.02580184
v 0.00878452 0.02952306 -0.02517367
v 0.00946505 0.02894587 -0.02705428
v 0.00910453 0.02925666 -0.02642611
v 0.00946505 0.02894848 -0.02580184
v 0.00973038 0.02858546 -0.02580184
v 0.00973240 0.02858546 -0.02328916
v 0.00999773 0.02815714 -0.01952013
v 0.00998153 0.02812319 -0.01889196
v 0.01008077 0.02772882 -0.01845887
v 0.01011925 0.02731095 -0.01825598
v 0.01019217 0.02669981 -0.01826379
v 0.01008280 0.02607300 -0.01787362
v 0.00992077 0.00336425 -0.01755758
v 0.00483498 0.02594764 -0.05204848
v 0.00416052 0.01853563 -0.05151004
v 0.00384659 0.01602839 -0.05113158
v 0.00384659 0.02042128 -0.05113158
v 0.00384861 0.02167750 -0.05112768
v 0.00384861 0.02230431 -0.05112378
v 0.00417875 0.02544358 -0.05151004
v 0.00310326 0.02584578 -0.05002350
v 0.00367848 0.02591891 -0.05072190
v 0.00425167 0.02594503 -0.05141640
v 0.00247336 0.01477216 -0.04939923
v 0.00247742 0.01602839 -0.04939143
v 0.00270831 0.01539897 -0.04970747
v 0.00302630 0.01602839 -0.05012104
v 0.00327542 0.01665520 -0.05043318
v 0.00327542 0.01790882 -0.05042538
v 0.00358936 0.01790882 -0.05081945
v 0.00084899 0.01727940 -0.04715966
v 0.00192853 0.01477216 -0.04865791
v 0.00062417 0.01853563 -0.04683973
v 0.00717027 0.02610173 -0.05410857
v 0.00780220 0.02609650 -0.05473674
v -0.01031907 0.00336425 -0.01889196
v -0.00962233 0.02863769 -0.02896221
v -0.00999703 0.02815975 -0.02768246
v -0.00972765 0.02858546 -0.02768246
v -0.00972158 0.02858546 -0.02831063
v -0.01031907 0.02418996 -0.01889196
v -0.01031704 0.02607300 -0.01889196
v -0.01033325 0.02669981 -0.01952013
v -0.01012463 0.02784373 -0.01952013
v -0.01023400 0.02732923 -0.01889196
v -0.01011045 0.02780978 -0.01889196
v -0.00940561 0.02888319 -0.02918851
v -0.00932257 0.02878917 -0.02956697
v -0.00888509 0.02897721 -0.03000006
v -0.00910383 0.02858285 -0.03019514
v 0.00179891 0.02591630 -0.04820532
v 0.00386482 0.02544358 -0.05110037
v 0.00010972 0.02544358 -0.04605939
v 0.00010162 0.02418996 -0.04606719
v -0.00012117 0.02481677 -0.04574726
v -0.00012117 0.02418996 -0.04575116
v 0.00009757 0.02293373 -0.04607110
v -0.00813164 0.02951783 -0.02985569
v -0.00789264 0.02967454 -0.02961379
v -0.00784808 0.02985997 -0.02893880
v -0.00722021 0.02981818 -0.02956697
v -0.00722021 0.02996966 -0.02893880
v -0.00659233 0.03004018 -0.02831063
v 0.00659303 0.03004540 -0.02768246
v 0.00722091 0.03002189 -0.02768246
v 0.00784878 0.02991742 -0.02391733
v 0.00846855 0.02967976 -0.02580184
v 0.00910453 0.02925928 -0.02454550
v 0.00847058 0.02967976 -0.02454550
v 0.00878452 0.02952306 -0.02014830
v 0.00946708 0.02894848 -0.02391733
v 0.00946708 0.02894848 -0.02328916
v 0.00973038 0.02858546 -0.02077647
v 0.00972835 0.02858546 -0.01952013
v 0.00969392 0.02858546 -0.01889196
v 0.00956835 0.02859590 -0.01831451
v 0.00992482 0.02794559 -0.01825598
v 0.01002001 0.02750944 -0.01804139
v 0.01006254 0.02708895 -0.01791654
v 0.01007470 0.02669981 -0.01788923
v 0.00991266 0.02669981 -0.01757319
v 0.00992077 0.02607300 -0.01756149
v 0.00992077 0.01790882 -0.01755758
v 0.00960683 0.00535175 -0.01708158
v 0.00960683 0.00336425 -0.01708548
v 0.00465877 0.02610173 -0.05159198
v 0.00528665 0.02610173 -0.05222405
v 0.00385064 0.02293373 -0.05111988
v 0.00385469 0.02356054 -0.05111597
v 0.00405925 0.02608345 -0.05092479
v 0.00220804 0.01539897 -0.04903247
v 0.00248147 0.01665520 -0.04938753
v 0.00271439 0.01665520 -0.04969966
v 0.00171181 0.01853563 -0.04832237
v 0.00063835 0.02230431 -0.04682022
v 0.00140395 0.01979186 -0.04788928
v 0.00140800 0.02042128 -0.04788538
v 0.00302832 0.01665520 -0.05011714
v 0.00327745 0.01853563 -0.05042148
v -0.01022590 0.00336425 -0.01836523
v -0.00944410 0.02892498 -0.02877103
v -0.00973170 0.02858546 -0.02328916
v -0.00999703 0.02815975 -0.01952013
v -0.00946233 0.02894587 -0.02768246
v -0.00946030 0.02894326 -0.02831063
v -0.00946638 0.02894848 -0.02328916
v -0.01020767 0.01163029 -0.01826379
v -0.01020565 0.02293373 -0.01826379
v -0.01020362 0.02607300 -0.01826379
v -0.01030489 0.02669981 -0.01889196
v -0.01019147 0.02669981 -0.01826379
v -0.01012058 0.02731095 -0.01825598
v -0.01008007 0.02772882 -0.01845887
v -0.00998083 0.02812319 -0.01889196
v -0.00900864 0.02908168 -0.02956697
v -0.00915851 0.02913653 -0.02896221
v -0.00872305 0.02948911 -0.02893880
v -0.00849418 0.02941598 -0.02961379
v 0.00361164 0.02230431 -0.05081164
v 0.00328555 0.02042128 -0.05040587
v 0.00307086 0.02356054 -0.05006642
v 0.00197512 0.02356054 -0.04859549
v 0.00119331 0.02356054 -0.04754593
v -0.00829569 0.02959357 -0.02943821
v -0.00840912 0.02964842 -0.02893880
v -0.00784808 0.02990959 -0.02831063
v -0.00722021 0.03001667 -0.02831063
v -0.00659233 0.03004540 -0.02768246
v 0.00659303 0.03004540 -0.01952013
v 0.00722091 0.03002189 -0.01952013
v 0.00784878 0.02991481 -0.01952013
v 0.00847058 0.02967976 -0.02014830
v 0.00910453 0.02925928 -0.02391733
v 0.00878046 0.02952045 -0.01952013
v 0.00910453 0.02925405 -0.01952013
v 0.00946302 0.02894587 -0.01952013
v 0.00946505 0.02894587 -0.02077647
v 0.00944480 0.02892759 -0.01889196
v 0.00942454 0.02890408 -0.01856032
v 0.00934353 0.02881268 -0.01814284
v 0.00950556 0.02839219 -0.01779559
v 0.00962101 0.02797954 -0.01760440
v 0.00948733 0.02778628 -0.01723764
v 0.00988836 0.02731095 -0.01767853
v 0.00955619 0.02732923 -0.01715181
v 0.00959873 0.02669981 -0.01709718
v 0.00960683 0.02607300 -0.01708938
v 0.00960683 0.02544358 -0.01708548
v 0.00960683 0.00723479 -0.01708158
v 0.00956429 0.00336425 -0.01703476
v 0.00829639 0.02607300 -0.01548579
v 0.00272249 0.01790882 -0.04969186
v -0.01020767 0.00336425 -0.01826379
v -0.00910383 0.02924622 -0.02831063
v -0.00877369 0.02951783 -0.02831063
v -0.00973170 0.02858546 -0.02077647
v -0.00969525 0.02858546 -0.01889196
v -0.00972765 0.02858546 -0.01952013
v -0.00910383 0.02925144 -0.02768246
v -0.00910383 0.02925928 -0.02391733
v -0.00910383 0.02925666 -0.02517367
v -0.00946638 0.02894848 -0.02077647
v -0.01008412 0.00974725 -0.01787362
v -0.01008210 0.02607300 -0.01787362
v -0.01007602 0.02669981 -0.01788923
v -0.01006184 0.02709156 -0.01791654
v -0.01001931 0.02750944 -0.01804139
v -0.00992412 0.02794559 -0.01825598
v -0.00956765 0.02859590 -0.01831451
v 0.00232349 0.02164878 -0.04909490
v -0.00845975 0.02967454 -0.02831063
v -0.00784808 0.02991481 -0.02768246
v -0.00722021 0.03002189 -0.02768246
v -0.00659233 0.03004540 -0.01952013
v 0.00408153 0.03004540 -0.01548579
v 0.00470941 0.03004018 -0.01575110
v 0.00470941 0.03003756 -0.01548579
v 0.00659303 0.03003756 -0.01889196
v 0.00722091 0.03000100 -0.01889196
v 0.00784878 0.02988609 -0.01889196
v 0.00843817 0.02966409 -0.01889196
v 0.00846653 0.02967715 -0.01952013
v 0.00875211 0.02950478 -0.01889196
v 0.00910453 0.02921749 -0.01889196
v 0.00912276 0.02908168 -0.01831451
v 0.00892427 0.02901378 -0.01776827
v 0.00915314 0.02863508 -0.01757319
v 0.00938201 0.02820676 -0.01737811
v 0.00798853 0.02797171 -0.01548579
v 0.00821133 0.02729005 -0.01548579
v 0.00827411 0.02669981 -0.01548579
v 0.00828829 0.02639424 -0.01548579
v 0.00932935 0.00336425 -0.01677334
v 0.00827614 0.02544358 -0.01548579
v 0.00927669 0.00336425 -0.01673043
v -0.01008412 0.00336425 -0.01787362
v -0.00877774 0.02952045 -0.02768246
v -0.00946435 0.02894587 -0.01952013
v -0.00944612 0.02892759 -0.01889196
v -0.00942384 0.02890408 -0.01856032
v -0.00878382 0.02952306 -0.02517367
v -0.00878179 0.02952306 -0.02580184
v -0.00910383 0.02925928 -0.02014830
v -0.00946435 0.02894848 -0.02014830
v -0.00994842 0.00336425 -0.01760831
v -0.00992209 0.01665520 -0.01755758
v -0.00992007 0.02167750 -0.01755758
v -0.00992007 0.02607300 -0.01756149
v -0.00991399 0.02669981 -0.01757319
v -0.00988969 0.02731095 -0.01767853
v -0.00962031 0.02797954 -0.01760440
v -0.00950486 0.02839219 -0.01779559
v -0.00934283 0.02881268 -0.01814284
v -0.00846380 0.02967715 -0.02768246
v -0.00846988 0.02967976 -0.02517367
v -0.00784808 0.02991742 -0.02391733
v -0.00722021 0.03002189 -0.01952013
v -0.00659233 0.03003756 -0.01889196
v -0.00470871 0.03003756 -0.01548579
v -0.00470871 0.03004018 -0.01575110
v -0.00408083 0.03004540 -0.01548579
v 0.00507398 0.03000884 -0.01548579
v 0.00533728 0.02998533 -0.01548579
v 0.00784878 0.02977117 -0.01826379
v 0.00831867 0.02960402 -0.01826379
v 0.00570185 0.02989914 -0.01548579
v 0.00596516 0.02982863 -0.01548579
v 0.00863261 0.02943687 -0.01826379
v 0.00876426 0.02887536 -0.01735079
v 0.00677127 0.02943426 -0.01548579
v 0.00701229 0.02924100 -0.01548579
v 0.00718445 0.02909474 -0.01548579
v 0.00745990 0.02880223 -0.01548579
v 0.00757130 0.02867425 -0.01548579
v 0.00767460 0.02852800 -0.01548579
v 0.00822348 0.02499698 -0.01548579
v 0.00892427 0.00336425 -0.01650023
v 0.00901339 0.00336425 -0.01654705
v -0.00910383 0.02925405 -0.01952013
v -0.00910383 0.02922010 -0.01889196
v -0.00912206 0.02908168 -0.01831451
v -0.00875343 0.02950478 -0.01889196
v -0.00878382 0.02952306 -0.02014830
v -0.00992209 0.00336425 -0.01755758
v -0.00960815 0.01539897 -0.01708158
v -0.00960613 0.02607300 -0.01708548
v -0.00960005 0.02669981 -0.01709718
v -0.00955549 0.02732923 -0.01714791
v -0.00948663 0.02778628 -0.01723764
v -0.00938131 0.02820676 -0.01737811
v -0.00915244 0.02863508 -0.01757319
v -0.00892357 0.02901378 -0.01776827
v -0.00846988 0.02967976 -0.02014830
v -0.00784808 0.02991481 -0.01952013
v -0.00722021 0.03000100 -0.01889196
v -0.00533658 0.02998533 -0.01548579
v 0.00626087 0.02970849 -0.01548579
v 0.00645733 0.02962491 -0.01548579
v 0.00820322 0.02954656 -0.01790873
v 0.00733230 0.02893804 -0.01548579
v 0.00784878 0.02459478 -0.01548579
v 0.00835310 0.00336425 -0.01634806
v 0.00847463 0.00336425 -0.01636367
v -0.00877976 0.02952045 -0.01952013
v -0.00863191 0.02943687 -0.01826379
v -0.00843950 0.02966409 -0.01889196
v -0.00831797 0.02960402 -0.01826379
v -0.00960815 0.00336425 -0.01708158
v -0.00960613 0.01979186 -0.01708158
v -0.00829772 0.02607300 -0.01548579
v -0.00827341 0.02669981 -0.01548579
v -0.00823898 0.02694270 -0.01548579
v -0.00821063 0.02713596 -0.01548579
v -0.00812759 0.02746243 -0.01548579
v -0.00798783 0.02797171 -0.01548579
v -0.00788859 0.02817020 -0.01548579
v -0.00767390 0.02852800 -0.01548579
v -0.00745920 0.02880223 -0.01548579
v -0.00737009 0.02889886 -0.01548579
v -0.00876356 0.02887536 -0.01735079
v -0.00718577 0.02909474 -0.01548579
v -0.00677057 0.02943426 -0.01548579
v -0.00846583 0.02967715 -0.01952013
v -0.00784808 0.02988609 -0.01889196
v -0.00596446 0.02982863 -0.01548579
v 0.00722091 0.02445897 -0.01548579
v 0.00784878 0.00336425 -0.01633245
v -0.00663892 0.02952045 -0.01548579
v -0.00820455 0.02954656 -0.01790873
v -0.00645663 0.02962491 -0.01548579
v -0.00784808 0.02977117 -0.01826379
v -0.00933067 0.00336425 -0.01676944
v -0.00829569 0.02574915 -0.01548579
v 0.00659303 0.02445636 -0.01548579
v -0.00295066 0.00336425 -0.01632855
v -0.00901674 0.00336425 -0.01654705
v -0.00827747 0.02544358 -0.01548579
v 0.00219791 0.02445636 -0.01548579
v -0.00546418 0.00336425 -0.01632855
v -0.00847393 0.00336425 -0.01636367
v -0.00825519 0.02516152 -0.01548579
v -0.00722021 0.02445897 -0.01548579
v -0.00784808 0.00336425 -0.01633245
v -0.00822278 0.02499698 -0.01548579
v -0.00731337 0.02446419 -0.01548579
v -0.00784808 0.02459478 -0.01548579
v -0.00786023 0.02460261 -0.01548579
f 1 2 3
f 1 3 4
f 1 4 5
f 1 5 27
f 1 27 53
f 1 53 93
f 1 93 92
f 1 92 137
f 1 137 201
f 1 201 276
f 1 276 355
f 1 355 421
f 1 421 493
f 1 493 558
f 1 558 601
f 1 601 603
f 1 603 646
f 1 646 645
f 1 645 671
f 1 671 670
f 1 670 695
f 1 695 703
f 1 703 707
f 1 707 711
f 1 711 708
f 1 708 704
f 1 704 700
f 1 700 676
f 1 676 652
f 1 652 613
f 1 613 604
f 1 604 561
f 1 561 508
f 1 508 444
f 1 444 379
f 1 379 299
f 1 299 221
f 1 221 163
f 1 163 122
f 1 122 78
f 1 78 77
f 1 77 56
f 1 56 55
f 1 55 29
f 1 29 28
f 1 28 6
f 1 6 7
f 1 7 8
f 1 8 2
f 2 9 10
f 2 10 11
f 2 11 12
f 2 12 13
f 2 13 14
f 2 14 15
f 2 15 16
f 2 16 17
f 2 17 3
f 2 8 18
f 2 18 9
f 3 17 22
f 3 22 4
f 4 19 20
f 4 20 21
f 4 21 5
f 4 22 23
f 4 23 24
f 4 24 25
f 4 25 19
f 5 26 27
f 5 21 26
f 6 28 7
f 7 28 29
f 7 29 30
f 7 30 18
f 7 18 8
f 9 18 31
f 9 31 10
f 10 32 33
f 10 33 11
f 10 31 34
f 10 34 32
f 11 33 35
f 11 35 36
f 11 36 12
f 12 36 13
f 13 37 38
f 13 38 39
f 13 39 40
f 13 40 41
f 13 41 14
f 13 36 37
f 14 41 42
f 14 42 48
f 14 48 25
f 14 25 23
f 14 23 16
f 14 16 15
f 16 23 22
f 16 22 17
f 18 43 31
f 18 30 44
f 18 44 45
f 18 45 43
f 19 25 46
f 19 46 20
f 20 46 47
f 20 47 26
f 20 26 21
f 23 25 24
f 25 48 49
f 25 49 46
f 26 47 50
f 26 50 51
f 26 51 52
f 26 52 53
f 26 53 27
f 29 54 30
f 29 55 54
f 30 54 55
f 30 55 56
f 30 56 44
f 31 43 34
f 32 34 57
f 32 57 58
f 32 58 35
f 32 35 33
f 34 43 59
f 34 59 60
f 34 60 61
f 34 61 62
f 34 62 57
f 35 58 63
f 35 63 64
f 35 64 37
f 35 37 36
f 37 64 65
f 37 65 66
f 37 66 38
f 38 67 68
f 38 68 39
f 38 66 69
f 38 69 70
f 38 70 67
f 39 68 42
f 39 42 40
f 40 42 41
f 42 68 71
f 42 71 72
f 42 72 73
f 42 73 74
f 42 74 48
f 43 45 75
f 43 75 59
f 44 76 45
f 44 56 77
f 44 77 78
f 44 78 76
f 45 76 79
f 45 79 59
f 45 59 80
f 45 80 75
f 46 49 50
f 46 50 81
f 46 81 47
f 47 81 50
f 48 74 82
f 48 82 83
f 48 83 49
f 49 83 84
f 49 84 50
f 50 84 85
f 50 85 86
f 50 86 87
f 50 87 88
f 50 88 89
f 50 89 90
f 50 90 91
f 50 91 51
f 51 91 52
f 52 92 93
f 52 93 53
f 52 91 90
f 52 90 89
f 52 89 88
f 52 88 87
f 52 87 86
f 52 86 85
f 52 85 136
f 52 136 138
f 52 138 94
f 52 94 137
f 52 137 92
f 57 62 95
f 57 95 58
f 58 95 96
f 58 96 97
f 58 97 98
f 58 98 63
f 59 75 80
f 59 79 99
f 59 99 60
f 60 100 101
f 60 101 61
f 60 99 102
f 60 102 100
f 61 101 103
f 61 103 104
f 61 104 62
f 62 104 95
f 63 98 64
f 64 98 65
f 65 105 106
f 65 106 107
f 65 107 66
f 65 98 97
f 65 97 108
f 65 108 105
f 66 107 106
f 66 106 69
f 67 109 68
f 67 70 110
f 67 110 111
f 67 111 109
f 68 112 113
f 68 113 71
f 68 109 114
f 68 114 112
f 69 106 70
f 70 115 116
f 70 116 110
f 70 106 117
f 70 117 118
f 70 118 115
f 71 113 72
f 72 119 73
f 72 113 119
f 73 119 120
f 73 120 121
f 73 121 74
f 74 121 82
f 76 78 79
f 78 122 123
f 78 123 124
f 78 124 125
f 78 125 126
f 78 126 127
f 78 127 128
f 78 128 129
f 78 129 130
f 78 130 131
f 78 131 99
f 78 99 79
f 82 132 83
f 82 121 133
f 82 133 134
f 82 134 135
f 82 135 132
f 83 132 84
f 84 132 85
f 85 132 189
f 85 189 136
f 94 138 200
f 94 200 137
f 95 104 139
f 95 139 140
f 95 140 96
f 96 140 97
f 97 105 108
f 97 140 141
f 97 141 105
f 99 131 102
f 100 102 131
f 100 131 130
f 100 130 142
f 100 142 143
f 100 143 144
f 100 144 145
f 100 145 146
f 100 146 147
f 100 147 148
f 100 148 149
f 100 149 150
f 100 150 101
f 101 150 103
f 103 150 151
f 103 151 152
f 103 152 104
f 104 152 141
f 104 141 139
f 105 141 106
f 106 153 154
f 106 154 117
f 106 141 153
f 109 111 155
f 109 155 114
f 110 156 111
f 110 116 157
f 110 157 158
f 110 158 156
f 111 156 155
f 112 159 119
f 112 119 113
f 112 114 159
f 114 155 160
f 114 160 159
f 115 118 154
f 115 154 161
f 115 161 147
f 115 147 116
f 116 147 157
f 117 154 118
f 119 162 133
f 119 133 121
f 119 121 120
f 119 159 162
f 122 163 164
f 122 164 165
f 122 165 166
f 122 166 167
f 122 167 168
f 122 168 169
f 122 169 170
f 122 170 171
f 122 171 123
f 123 171 172
f 123 172 124
f 124 172 173
f 124 173 174
f 124 174 175
f 124 175 176
f 124 176 177
f 124 177 178
f 124 178 125
f 125 178 126
f 126 178 179
f 126 179 180
f 126 180 181
f 126 181 128
f 126 128 127
f 128 181 182
f 128 182 183
f 128 183 129
f 129 183 184
f 129 184 185
f 129 185 186
f 129 186 187
f 129 187 143
f 129 143 188
f 129 188 130
f 130 188 143
f 130 143 142
f 132 135 193
f 132 193 189
f 133 190 134
f 133 162 190
f 134 191 135
f 134 190 191
f 135 191 192
f 135 192 261
f 135 261 193
f 136 189 194
f 136 194 195
f 136 195 196
f 136 196 197
f 136 197 198
f 136 198 199
f 136 199 200
f 136 200 138
f 137 200 275
f 137 275 201
f 139 141 140
f 141 152 151
f 141 151 153
f 143 187 202
f 143 202 203
f 143 203 146
f 143 146 145
f 143 145 144
f 146 203 204
f 146 204 147
f 147 204 205
f 147 205 157
f 147 161 206
f 147 206 148
f 148 206 161
f 148 161 207
f 148 207 154
f 148 154 208
f 148 208 149
f 149 209 151
f 149 151 150
f 149 208 154
f 149 154 209
f 151 209 154
f 151 154 153
f 154 207 161
f 155 210 160
f 155 156 211
f 155 211 212
f 155 212 213
f 155 213 210
f 156 158 214
f 156 214 211
f 157 205 215
f 157 215 216
f 157 216 217
f 157 217 158
f 158 217 214
f 159 160 218
f 159 218 219
f 159 219 162
f 160 220 294
f 160 294 218
f 160 210 282
f 160 282 220
f 162 219 190
f 163 221 164
f 164 222 223
f 164 223 165
f 164 221 224
f 164 224 225
f 164 225 222
f 165 223 166
f 166 223 226
f 166 226 227
f 166 227 228
f 166 228 169
f 166 169 229
f 166 229 230
f 166 230 231
f 166 231 232
f 166 232 167
f 167 232 168
f 168 232 231
f 168 231 233
f 168 233 230
f 168 230 169
f 169 230 229
f 169 228 234
f 169 234 235
f 169 235 236
f 169 236 171
f 169 171 170
f 171 236 172
f 172 236 173
f 173 237 174
f 173 236 238
f 173 238 228
f 173 228 237
f 174 237 239
f 174 239 240
f 174 240 241
f 174 241 175
f 175 241 242
f 175 242 243
f 175 243 176
f 176 244 245
f 176 245 246
f 176 246 247
f 176 247 248
f 176 248 249
f 176 249 177
f 176 243 244
f 177 249 250
f 177 250 251
f 177 251 178
f 178 252 179
f 178 251 252
f 179 252 180
f 180 182 181
f 180 252 253
f 180 253 182
f 182 253 254
f 182 254 255
f 182 255 183
f 183 255 256
f 183 256 257
f 183 257 184
f 184 257 185
f 185 257 258
f 185 258 259
f 185 259 202
f 185 202 186
f 186 202 187
f 189 193 194
f 190 219 295
f 190 295 260
f 190 260 191
f 191 260 192
f 192 260 332
f 192 332 261
f 193 261 262
f 193 262 194
f 194 262 263
f 194 263 195
f 195 263 264
f 195 264 265
f 195 265 266
f 195 266 267
f 195 267 268
f 195 268 269
f 195 269 270
f 195 270 196
f 196 270 197
f 197 270 271
f 197 271 348
f 197 348 272
f 197 272 273
f 197 273 198
f 198 273 200
f 198 200 199
f 200 273 351
f 200 351 274
f 200 274 275
f 201 275 354
f 201 354 276
f 202 259 277
f 202 277 278
f 202 278 203
f 203 278 279
f 203 279 204
f 204 279 280
f 204 280 205
f 205 280 279
f 205 279 215
f 210 213 281
f 210 281 356
f 210 356 282
f 211 283 284
f 211 284 213
f 211 213 212
f 211 214 285
f 211 285 283
f 213 284 286
f 213 286 363
f 213 363 287
f 213 287 356
f 213 356 281
f 214 217 288
f 214 288 285
f 215 279 278
f 215 278 289
f 215 289 249
f 215 249 216
f 216 249 217
f 217 290 288
f 217 249 291
f 217 291 292
f 217 292 293
f 217 293 290
f 218 294 374
f 218 374 295
f 218 295 219
f 220 296 297
f 220 297 298
f 220 298 294
f 220 282 296
f 221 299 224
f 222 300 301
f 222 301 223
f 222 225 300
f 223 301 226
f 224 302 303
f 224 303 225
f 224 299 302
f 225 303 304
f 225 304 300
f 226 301 305
f 226 305 306
f 226 306 227
f 227 306 307
f 227 307 308
f 227 308 228
f 228 308 309
f 228 309 310
f 228 310 311
f 228 311 312
f 228 312 239
f 228 239 237
f 228 238 236
f 228 236 235
f 228 235 234
f 230 233 231
f 239 312 313
f 239 313 240
f 240 313 241
f 241 313 314
f 241 314 242
f 242 314 315
f 242 315 316
f 242 316 243
f 243 316 244
f 244 316 317
f 244 317 318
f 244 318 245
f 245 319 399
f 245 399 320
f 245 320 246
f 245 318 394
f 245 394 319
f 246 320 321
f 246 321 322
f 246 322 247
f 247 322 293
f 247 293 248
f 248 293 291
f 248 291 249
f 249 289 323
f 249 323 250
f 250 323 251
f 251 323 324
f 251 324 325
f 251 325 326
f 251 326 253
f 251 253 252
f 253 326 327
f 253 327 254
f 254 327 255
f 255 327 256
f 256 327 328
f 256 328 257
f 257 328 329
f 257 329 258
f 258 329 330
f 258 330 331
f 258 331 259
f 259 331 277
f 260 295 374
f 260 374 332
f 261 332 333
f 261 333 334
f 261 334 335
f 261 335 262
f 262 335 336
f 262 336 263
f 263 336 337
f 263 337 338
f 263 338 339
f 263 339 340
f 263 340 341
f 263 341 264
f 264 341 340
f 264 340 342
f 264 342 407
f 264 407 343
f 264 343 344
f 264 344 265
f 265 344 267
f 265 267 266
f 267 344 345
f 267 345 346
f 267 346 268
f 268 346 269
f 269 346 347
f 269 347 271
f 269 271 270
f 271 347 415
f 271 415 348
f 272 348 349
f 272 349 350
f 272 350 351
f 272 351 273
f 274 351 419
f 274 419 352
f 274 352 353
f 274 353 275
f 275 353 354
f 276 354 420
f 276 420 355
f 277 331 278
f 278 331 330
f 278 330 289
f 282 357 296
f 282 356 287
f 282 287 358
f 282 358 359
f 282 359 360
f 282 360 357
f 283 361 284
f 283 285 288
f 283 288 361
f 284 361 362
f 284 362 286
f 286 362 423
f 286 423 363
f 287 363 364
f 287 364 358
f 288 290 365
f 288 365 366
f 288 366 367
f 288 367 368
f 288 368 369
f 288 369 370
f 288 370 361
f 289 330 371
f 289 371 323
f 290 293 365
f 291 293 292
f 293 322 372
f 293 372 373
f 293 373 366
f 293 366 365
f 294 298 374
f 296 375 297
f 296 357 375
f 297 375 376
f 297 376 377
f 297 377 378
f 297 378 298
f 298 378 374
f 299 379 302
f 300 380 301
f 300 304 381
f 300 381 380
f 301 380 305
f 302 379 382
f 302 382 383
f 302 383 384
f 302 384 303
f 303 385 304
f 303 384 451
f 303 451 386
f 303 386 452
f 303 452 385
f 304 385 446
f 304 446 381
f 305 380 387
f 305 387 388
f 305 388 306
f 306 388 389
f 306 389 390
f 306 390 307
f 307 390 308
f 308 390 391
f 308 391 392
f 308 392 393
f 308 393 309
f 309 393 394
f 309 394 310
f 310 394 318
f 310 318 317
f 310 317 396
f 310 396 395
f 310 395 313
f 310 313 312
f 310 312 311
f 313 395 396
f 313 396 314
f 314 396 315
f 315 396 317
f 315 317 316
f 319 394 397
f 319 397 398
f 319 398 399
f 320 399 400
f 320 400 321
f 321 400 322
f 322 400 372
f 323 371 328
f 323 328 324
f 324 328 327
f 324 327 325
f 325 327 326
f 328 371 329
f 329 371 330
f 332 374 333
f 333 374 378
f 333 378 377
f 333 377 376
f 333 376 334
f 334 376 401
f 334 401 335
f 335 401 336
f 336 401 402
f 336 402 337
f 337 402 471
f 337 471 403
f 337 403 404
f 337 404 338
f 338 404 405
f 338 405 339
f 339 405 340
f 340 405 342
f 342 405 406
f 342 406 407
f 343 407 475
f 343 475 408
f 343 408 409
f 343 409 344
f 344 410 345
f 344 409 411
f 344 411 412
f 344 412 410
f 345 410 346
f 346 410 412
f 346 412 413
f 346 413 347
f 347 413 414
f 347 414 415
f 348 415 349
f 349 415 416
f 349 416 417
f 349 417 350
f 350 417 418
f 350 418 419
f 350 419 351
f 352 419 420
f 352 420 353
f 353 420 354
f 355 420 491
f 355 491 421
f 357 360 422
f 357 422 375
f 358 364 360
f 358 360 359
f 360 364 422
f 361 370 362
f 362 370 424
f 362 424 425
f 362 425 423
f 363 423 425
f 363 425 364
f 364 425 426
f 364 426 427
f 364 427 428
f 364 428 429
f 364 429 430
f 364 430 431
f 364 431 422
f 366 373 432
f 366 432 367
f 367 432 433
f 367 433 434
f 367 434 506
f 367 506 435
f 367 435 368
f 368 436 369
f 368 435 437
f 368 437 427
f 368 427 426
f 368 426 436
f 369 436 425
f 369 425 438
f 369 438 370
f 370 438 425
f 370 425 424
f 372 439 440
f 372 440 373
f 372 400 441
f 372 441 439
f 373 440 432
f 375 442 443
f 375 443 376
f 375 422 495
f 375 495 442
f 376 443 401
f 379 444 449
f 379 449 383
f 379 383 382
f 380 445 387
f 380 381 445
f 381 446 447
f 381 447 448
f 381 448 445
f 383 449 450
f 383 450 518
f 383 518 451
f 383 451 384
f 385 452 511
f 385 511 446
f 386 451 518
f 386 518 453
f 386 453 454
f 386 454 452
f 387 445 455
f 387 455 456
f 387 456 388
f 388 456 457
f 388 457 458
f 388 458 390
f 388 390 389
f 390 459 391
f 390 458 457
f 390 457 459
f 391 459 429
f 391 429 460
f 391 460 461
f 391 461 392
f 392 461 462
f 392 462 463
f 392 463 394
f 392 394 393
f 394 463 464
f 394 464 397
f 397 464 398
f 398 464 463
f 398 463 465
f 398 465 400
f 398 400 399
f 400 465 462
f 400 462 441
f 401 443 466
f 401 466 467
f 401 467 468
f 401 468 469
f 401 469 470
f 401 470 402
f 402 470 535
f 402 535 471
f 403 471 536
f 403 536 472
f 403 472 473
f 403 473 404
f 404 473 406
f 404 406 405
f 406 473 474
f 406 474 475
f 406 475 407
f 408 475 409
f 409 476 411
f 409 475 477
f 409 477 540
f 409 540 478
f 409 478 541
f 409 541 476
f 411 476 412
f 412 476 479
f 412 479 413
f 413 479 414
f 414 479 480
f 414 480 481
f 414 481 415
f 415 481 482
f 415 482 483
f 415 483 416
f 416 483 484
f 416 484 485
f 416 485 417
f 417 485 486
f 417 486 418
f 418 486 487
f 418 487 419
f 419 487 488
f 419 488 420
f 420 488 489
f 420 489 490
f 420 490 491
f 421 491 557
f 421 557 492
f 421 492 493
f 422 431 494
f 422 494 495
f 425 436 426
f 427 496 428
f 427 437 496
f 428 496 497
f 428 497 460
f 428 460 429
f 429 459 430
f 430 459 457
f 430 457 431
f 431 498 494
f 431 457 498
f 432 499 433
f 432 440 499
f 433 500 560
f 433 560 501
f 433 501 434
f 433 499 502
f 433 502 503
f 433 503 504
f 433 504 505
f 433 505 500
f 434 501 506
f 435 506 507
f 435 507 437
f 437 507 496
f 439 441 503
f 439 503 440
f 440 503 499
f 441 462 503
f 442 495 466
f 442 466 443
f 444 508 449
f 445 448 509
f 445 509 455
f 446 510 447
f 446 511 564
f 446 564 510
f 447 512 513
f 447 513 448
f 447 510 514
f 447 514 512
f 448 513 509
f 449 508 515
f 449 515 516
f 449 516 517
f 449 517 450
f 450 517 519
f 450 519 518
f 452 454 511
f 453 518 519
f 453 519 520
f 453 520 521
f 453 521 454
f 454 521 522
f 454 522 511
f 455 523 456
f 455 509 524
f 455 524 525
f 455 525 523
f 456 523 457
f 457 523 526
f 457 526 466
f 457 466 498
f 460 497 527
f 460 527 528
f 460 528 529
f 460 529 530
f 460 530 461
f 461 503 462
f 461 530 531
f 461 531 505
f 461 505 503
f 462 465 463
f 466 526 532
f 466 532 467
f 466 495 494
f 466 494 498
f 467 532 468
f 468 470 469
f 468 532 533
f 468 533 534
f 468 534 470
f 470 534 535
f 471 535 581
f 471 581 536
f 472 536 582
f 472 582 629
f 472 629 583
f 472 583 537
f 472 537 538
f 472 538 473
f 473 538 474
f 474 477 475
f 474 538 539
f 474 539 540
f 474 540 477
f 476 541 480
f 476 480 479
f 478 540 590
f 478 590 542
f 478 542 543
f 478 543 541
f 480 541 543
f 480 543 544
f 480 544 545
f 480 545 481
f 481 545 544
f 481 544 482
f 482 544 546
f 482 546 483
f 483 546 547
f 483 547 484
f 484 547 548
f 484 548 549
f 484 549 485
f 485 549 550
f 485 550 486
f 486 550 551
f 486 551 552
f 486 552 487
f 487 552 489
f 487 489 488
f 489 552 553
f 489 553 554
f 489 554 490
f 490 554 555
f 490 555 556
f 490 556 491
f 491 556 557
f 492 558 493
f 492 557 559
f 492 559 558
f 496 507 528
f 496 528 527
f 496 527 497
f 499 503 502
f 500 505 560
f 501 560 528
f 501 528 506
f 503 505 504
f 505 531 560
f 506 528 507
f 508 561 515
f 509 513 562
f 509 562 563
f 509 563 524
f 510 564 570
f 510 570 514
f 511 522 565
f 511 565 566
f 511 566 564
f 512 567 513
f 512 514 568
f 512 568 569
f 512 569 567
f 513 567 562
f 514 570 611
f 514 611 568
f 515 561 604
f 515 604 571
f 515 571 572
f 515 572 516
f 516 572 517
f 517 573 519
f 517 572 573
f 519 573 574
f 519 574 520
f 520 574 575
f 520 575 521
f 521 575 576
f 521 576 522
f 522 576 577
f 522 577 565
f 523 525 526
f 524 563 525
f 525 533 532
f 525 532 526
f 525 563 533
f 528 560 529
f 529 560 578
f 529 578 530
f 530 578 531
f 531 578 560
f 533 563 579
f 533 579 534
f 534 579 580
f 534 580 581
f 534 581 535
f 536 581 625
f 536 625 582
f 537 583 584
f 537 584 585
f 537 585 586
f 537 586 538
f 538 586 585
f 538 585 587
f 538 587 539
f 539 587 588
f 539 588 589
f 539 589 590
f 539 590 540
f 542 590 589
f 542 589 591
f 542 591 592
f 542 592 543
f 543 592 546
f 543 546 544
f 546 592 547
f 547 593 548
f 547 592 591
f 547 591 593
f 548 594 595
f 548 595 549
f 548 593 594
f 549 595 596
f 549 596 550
f 550 596 551
f 551 553 552
f 551 596 597
f 551 597 598
f 551 598 553
f 553 598 554
f 554 598 599
f 554 599 600
f 554 600 559
f 554 559 555
f 555 559 556
f 556 559 557
f 558 559 601
f 559 600 599
f 559 599 598
f 559 598 597
f 559 597 643
f 559 643 642
f 559 642 641
f 559 641 668
f 559 668 640
f 559 640 639
f 559 639 638
f 559 638 666
f 559 666 665
f 559 665 635
f 559 635 634
f 559 634 631
f 559 631 630
f 559 630 585
f 559 585 583
f 559 583 629
f 559 629 627
f 559 627 664
f 559 664 693
f 559 693 698
f 559 698 696
f 559 696 690
f 559 690 689
f 559 689 687
f 559 687 686
f 559 686 685
f 559 685 684
f 559 684 683
f 559 683 682
f 559 682 681
f 559 681 680
f 559 680 679
f 559 679 678
f 559 678 701
f 559 701 705
f 559 705 709
f 559 709 712
f 559 712 715
f 559 715 714
f 559 714 713
f 559 713 710
f 559 710 706
f 559 706 702
f 559 702 694
f 559 694 669
f 559 669 644
f 559 644 602
f 559 602 603
f 559 603 601
f 562 567 605
f 562 605 563
f 563 605 622
f 563 622 579
f 564 566 606
f 564 606 570
f 565 607 566
f 565 577 608
f 565 608 607
f 566 607 606
f 567 569 609
f 567 609 610
f 567 610 605
f 568 609 569
f 568 611 651
f 568 651 609
f 570 606 612
f 570 612 611
f 571 604 613
f 571 613 614
f 571 614 572
f 572 614 615
f 572 615 616
f 572 616 617
f 572 617 573
f 573 617 574
f 574 617 618
f 574 618 575
f 575 618 619
f 575 619 576
f 576 619 620
f 576 620 577
f 577 620 621
f 577 621 608
f 579 622 580
f 580 622 623
f 580 623 624
f 580 624 581
f 581 624 625
f 582 625 626
f 582 626 627
f 582 627 628
f 582 628 629
f 583 585 584
f 585 630 587
f 587 630 631
f 587 631 588
f 588 632 633
f 588 633 589
f 588 631 634
f 588 634 635
f 588 635 632
f 589 633 591
f 591 633 636
f 591 636 593
f 593 636 594
f 594 637 595
f 594 636 638
f 594 638 639
f 594 639 640
f 594 640 637
f 595 637 641
f 595 641 596
f 596 641 642
f 596 642 643
f 596 643 597
f 602 644 645
f 602 645 646
f 602 646 603
f 605 610 622
f 606 607 647
f 606 647 611
f 606 611 612
f 607 648 647
f 607 608 648
f 608 621 649
f 608 649 650
f 608 650 648
f 609 623 610
f 609 651 661
f 609 661 623
f 610 623 622
f 611 647 651
f 613 652 614
f 614 652 676
f 614 676 653
f 614 653 615
f 615 653 654
f 615 654 616
f 616 654 655
f 616 655 617
f 617 655 656
f 617 656 618
f 618 656 657
f 618 657 619
f 619 657 658
f 619 658 620
f 620 658 659
f 620 659 621
f 621 659 660
f 621 660 649
f 623 661 624
f 624 661 662
f 624 662 625
f 625 662 663
f 625 663 627
f 625 627 626
f 627 629 628
f 627 663 664
f 632 635 633
f 633 635 665
f 633 665 666
f 633 666 667
f 633 667 636
f 636 667 666
f 636 666 638
f 637 640 668
f 637 668 641
f 644 669 670
f 644 670 671
f 644 671 645
f 647 648 672
f 647 672 651
f 648 650 672
f 649 660 673
f 649 673 650
f 650 674 672
f 650 673 675
f 650 675 674
f 651 672 691
f 651 691 661
f 653 677 654
f 653 676 678
f 653 678 677
f 654 677 678
f 654 678 655
f 655 678 679
f 655 679 656
f 656 679 680
f 656 680 681
f 656 681 682
f 656 682 683
f 656 683 657
f 657 683 684
f 657 684 658
f 658 684 685
f 658 685 686
f 658 686 659
f 659 686 687
f 659 687 688
f 659 688 660
f 660 688 689
f 660 689 690
f 660 690 673
f 661 691 662
f 662 691 674
f 662 674 692
f 662 692 663
f 663 692 664
f 664 692 693
f 669 694 695
f 669 695 670
f 672 674 691
f 673 690 696
f 673 696 697
f 673 697 675
f 674 675 692
f 675 697 698
f 675 698 693
f 675 693 699
f 675 699 692
f 676 700 678
f 678 700 701
f 687 689 688
f 692 699 693
f 694 702 703
f 694 703 695
f 696 698 697
f 700 704 701
f 701 704 705
f 702 706 707
f 702 707 703
f 704 708 709
f 704 709 705
f 706 710 707
f 707 710 711
f 708 711 712
f 708 712 709
f 710 713 711
f 711 713 714
f 711 714 715
f 711 715 712

