# https://github.com/mikedh/trimesh
v 0.01034604 0.00336425 -0.02077233
v 0.01034402 0.00336425 -0.01951560
v 0.01034402 -0.00092964 -0.01951560
v 0.01034604 0.00336425 -0.03134361
v 0.01031971 0.00336425 -0.01888970
v 0.01031971 -0.00092964 -0.01888970
v 0.01033997 -0.00155746 -0.01951560
v 0.01034199 -0.00155746 -0.02014150
v 0.01034402 -0.00092964 -0.02328578
v 0.01034402 0.00095382 -0.02956448
v 0.01031566 0.00336425 -0.04086517
v 0.01030149 0.00336425 -0.01878621
v 0.00788924 -0.00030182 0.00183396
v 0.00799861 -0.00030182 0.00120314
v 0.01030554 -0.00155746 -0.01888970
v 0.01025895 -0.00218597 -0.01951560
v 0.01027110 -0.00218597 -0.02014150
v 0.01034199 -0.00155746 -0.02265495
v 0.01030554 0.00336425 -0.04137278
v 0.01020832 0.00336425 -0.01825887
v 0.00763606 0.00012359 0.00245986
v 0.00782645 -0.00092964 0.00183396
v 0.00794595 -0.00092964 0.00120314
v 0.00756923 0.00005772 0.00285906
v 0.00772518 -0.00030182 0.00245986
v 0.01016781 -0.00224086 -0.01883549
v 0.01011515 -0.00261344 -0.01951560
v 0.01012325 -0.00263059 -0.02014150
v 0.01008679 -0.00256335 -0.01901291
v 0.01027110 -0.00218597 -0.02202905
v 0.01029946 0.00336425 -0.04149599
v 0.01024275 -0.00218597 -0.02265495
v 0.01018806 0.00336425 -0.01819481
v 0.00705275 0.00013800 0.00371659
v 0.01008274 0.00336425 -0.01786954
v 0.00763606 -0.00157324 0.00180439
v 0.00775961 -0.00155746 0.00120314
v 0.00763809 -0.00094542 0.00249436
v 0.00758745 -0.00137426 0.00230708
v 0.00744163 -0.00030182 0.00319911
v 0.00758138 -0.00030182 0.00288370
v 0.00695553 0.00006870 0.00411086
v 0.00719453 -0.00030182 0.00371659
v 0.00756112 -0.00074713 0.00283441
v 0.00988020 -0.00292701 -0.01951560
v 0.00990046 -0.00294485 -0.02014150
v 0.01012325 -0.00263059 -0.02202905
v 0.00758340 -0.00194788 0.00120314
v 0.01018199 0.00297658 -0.04149599
v 0.01012730 0.00306303 -0.04191983
v 0.01020224 0.00336425 -0.04200361
v 0.01009692 -0.00257707 -0.02265495
v 0.00660716 0.00017779 0.00432770
v 0.01005641 0.00336425 -0.01781532
v 0.00992274 0.00336425 -0.01755412
v 0.00754897 -0.00189436 0.00157769
v 0.00750036 -0.00179281 0.00199660
v 0.00751859 -0.00116568 0.00272599
v 0.00743758 -0.00157324 0.00249436
v 0.00640665 0.00012016 0.00482054
v 0.00646336 -0.00030182 0.00489446
v 0.00677730 -0.00030182 0.00445091
v 0.00697376 -0.00030182 0.00413550
v 0.00694743 -0.00079653 0.00409607
v 0.00708516 -0.00097493 0.00377080
v 0.00742745 -0.00094542 0.00306112
v 0.00956627 -0.00324126 -0.01951560
v 0.00698186 -0.00257707 0.00183396
v 0.00958652 -0.00325910 -0.02014150
v 0.00990046 -0.00294485 -0.02077233
v 0.00988628 -0.00294485 -0.02139823
v 0.00984577 -0.00294485 -0.02202905
v 0.00732213 -0.00213657 0.00180439
v 0.01006249 -0.00251601 -0.02299008
v 0.00947715 -0.00315549 -0.02237897
v 0.00973235 0.00286748 -0.04149599
v 0.00973235 0.00307195 -0.04190997
v 0.00973235 0.00336425 -0.04224017
v 0.01018806 0.00336425 -0.04207754
v 0.00659299 0.00030473 0.00371659
v 0.00600157 0.00021004 0.00500781
v 0.00960677 0.00336425 -0.01708100
v 0.00692110 -0.00189367 0.00343074
v 0.00699199 -0.00199248 0.00308576
v 0.00708516 -0.00220656 0.00243522
v 0.00690085 -0.00121508 0.00401722
v 0.00699806 -0.00155746 0.00356874
v 0.00721681 -0.00155746 0.00308576
v 0.00581726 0.00012290 0.00546615
v 0.00589625 -0.00030182 0.00555486
v 0.00621019 -0.00030182 0.00520987
v 0.00642083 -0.00092964 0.00484025
v 0.00676514 -0.00097493 0.00431785
v 0.00910448 -0.00347112 -0.01951560
v 0.00910448 -0.00350543 -0.02014150
v 0.00631753 -0.00315138 0.00164669
v 0.00693123 -0.00252424 0.00220852
v 0.00655248 -0.00292838 0.00184875
v 0.00958652 -0.00325910 -0.02077233
v 0.00953183 -0.00318911 -0.02202905
v 0.00957234 -0.00323371 -0.02139823
v 0.00847660 -0.00362619 -0.02014150
v 0.00659299 -0.00360354 -0.02077233
v 0.00596511 -0.00351160 -0.02139823
v -0.00973171 0.00002890 -0.02984540
v -0.00596447 -0.00351160 -0.02139823
v -0.00947651 -0.00315549 -0.02237897
v 0.00937385 0.00313370 -0.04183112
v -0.00973171 0.00023131 -0.03019038
v -0.01011653 0.00056615 -0.03058958
v 0.00922195 0.00336425 -0.04201347
v 0.00596511 0.00034316 0.00434249
v 0.00538382 0.00021142 0.00564850
v 0.00932929 0.00336425 -0.01677052
v 0.00682185 -0.00155746 0.00388415
v 0.00624664 -0.00181477 0.00460862
v 0.00638032 -0.00200346 0.00419464
v 0.00656868 -0.00215784 0.00367223
v 0.00633778 -0.00255306 0.00349974
v 0.00674894 -0.00230673 0.00308576
v 0.00684819 -0.00242955 0.00262743
v 0.00634994 -0.00139622 0.00475154
v 0.00650387 -0.00158628 0.00437699
v 0.00520559 0.00012290 0.00606741
v 0.00560459 -0.00030182 0.00587027
v 0.00585372 -0.00092964 0.00550557
v 0.00616765 -0.00092964 0.00515566
v 0.00601170 -0.00326253 0.00184875
v 0.00533724 -0.00350954 0.00183396
v 0.00847660 -0.00360698 -0.01951560
v 0.00625069 -0.00311158 0.00206559
v 0.00643500 -0.00264089 0.00308576
v 0.00662134 -0.00271156 0.00243522
v 0.00722086 -0.00364128 -0.01951560
v 0.00659299 -0.00364540 -0.02014150
v 0.00596511 -0.00362138 -0.02077233
v 0.00470937 -0.00361521 0.00183396
v 0.00408149 -0.00364334 0.00183396
v 0.00408149 -0.00364540 0.00120314
v -0.01011653 -0.00004932 -0.02943635
v -0.00596447 -0.00362138 -0.02077233
v -0.00659234 -0.00360354 -0.02077233
v -0.00847596 -0.00362619 -0.02014150
v -0.00953119 -0.00318911 -0.02202905
v -0.00984513 -0.00294485 -0.02202905
v -0.01009628 -0.00257776 -0.02265495
v -0.01006185 -0.00251601 -0.02299008
v -0.01017324 0.00043922 -0.03019038
v -0.01032312 0.00095382 -0.03019038
v -0.01018337 0.00097235 -0.03080643
v -0.01010438 0.00119397 -0.03118591
v 0.00752467 0.00336425 -0.04122001
v 0.00533724 0.00034521 0.00497331
v 0.00408149 0.00033149 0.00622511
v 0.00473165 0.00020112 0.00625961
v 0.00470937 0.00034521 0.00559921
v 0.00927663 0.00336425 -0.01673109
v 0.00563497 -0.00248376 0.00463819
v 0.00601777 -0.00224361 0.00441641
v 0.00600360 -0.00163157 0.00501767
v 0.00564915 -0.00186760 0.00528380
v 0.00582739 -0.00206452 0.00486489
v 0.00621019 -0.00242200 0.00391865
v 0.00595904 -0.00298327 0.00313011
v 0.00579093 -0.00261756 0.00421928
v 0.00598739 -0.00272185 0.00371166
v 0.00576055 -0.00144837 0.00540208
v 0.00453721 0.00010506 0.00663909
v 0.00529066 -0.00030182 0.00614133
v 0.00523800 -0.00092964 0.00609697
v 0.00555193 -0.00092964 0.00582099
v 0.00585777 -0.00323097 0.00245986
v 0.00533724 -0.00343407 0.00245986
v 0.00470937 -0.00350954 0.00308576
v 0.00470937 -0.00357953 0.00245986
v 0.00617170 -0.00306012 0.00245986
v 0.00574637 -0.00317882 0.00295270
v 0.00659299 -0.00364540 -0.01951560
v -0.00659234 -0.00364540 -0.02014150
v 0.00408149 -0.00360698 0.00308576
v 0.00408149 -0.00363579 0.00245986
v 0.00345362 -0.00363991 0.00308576
v 0.00345362 -0.00364540 0.00245986
v -0.01016717 -0.00010078 -0.02893366
v -0.01020767 0.00027180 -0.02961377
v -0.00847596 -0.00360698 -0.01951560
v -0.00910383 -0.00350543 -0.02014150
v -0.00722021 -0.00364128 -0.01951560
v -0.00408085 -0.00364540 0.00120314
v -0.00408085 -0.00364334 0.00183396
v -0.00470872 -0.00361590 0.00183396
v -0.00533660 -0.00350954 0.00183396
v -0.00957170 -0.00323440 -0.02139823
v -0.00958790 -0.00325910 -0.02077233
v -0.00988564 -0.00294485 -0.02139823
v -0.01012463 -0.00263128 -0.02202905
v -0.01024413 -0.00218597 -0.02265495
v -0.01031705 0.00032532 -0.02893366
v -0.01034540 0.00095382 -0.02956448
v -0.01034540 0.00220947 -0.03082121
v -0.01031299 0.00158165 -0.03082121
v -0.01016514 0.00158165 -0.03128447
v -0.01006185 0.00248461 -0.03177238
v 0.00679147 0.00336425 -0.04086517
v 0.00282575 0.00033972 0.00685594
v 0.00345362 0.00027042 0.00685594
v 0.00901536 0.00336425 -0.01654874
v 0.00403288 0.00014623 0.00685101
v 0.00535142 -0.00283781 0.00436220
v 0.00502533 -0.00250091 0.00528873
v 0.00516913 -0.00260521 0.00497331
v 0.00539193 -0.00164735 0.00565342
v 0.00500507 -0.00184564 0.00589984
v 0.00517926 -0.00218597 0.00543165
v 0.00563092 -0.00311707 0.00337160
v 0.00551345 -0.00305120 0.00371659
v 0.00513673 -0.00142710 0.00600827
v 0.00345362 0.00010369 0.00726006
v 0.00379186 0.00003096 0.00718121
v 0.00459594 -0.00030182 0.00667852
v 0.00490988 -0.00030182 0.00645182
v 0.00484912 -0.00092964 0.00641239
v 0.00538787 -0.00328311 0.00313011
v 0.00470937 -0.00338535 0.00371659
v 0.00408149 -0.00353630 0.00371659
v -0.00659234 -0.00364540 -0.01951560
v 0.00345362 -0.00361109 0.00371659
v 0.00282575 -0.00363922 0.00371659
v 0.00219788 -0.00364540 0.00371659
v -0.00910383 -0.00347112 -0.01951560
v -0.00956562 -0.00324126 -0.01951560
v -0.00958588 -0.00325910 -0.02014150
v -0.00345298 -0.00364540 0.00245986
v -0.00345298 -0.00363991 0.00308576
v -0.00408085 -0.00363579 0.00245986
v -0.00408085 -0.00360698 0.00308576
v -0.00470872 -0.00357953 0.00245986
v -0.00470872 -0.00351023 0.00308576
v -0.00533660 -0.00343407 0.00245986
v -0.00601105 -0.00326253 0.00184875
v -0.00990184 -0.00294485 -0.02077233
v -0.01012463 -0.00263128 -0.02014150
v -0.01027046 -0.00218597 -0.02202905
v -0.01034135 -0.00155746 -0.02265495
v -0.01033325 0.00032532 -0.02830776
v -0.01034540 -0.00092964 -0.02328578
v -0.01034540 0.00336425 -0.01951560
v -0.01032920 0.00336425 -0.02579431
v -0.01030489 0.00283798 -0.03082121
v -0.01019957 0.00283798 -0.03144711
v -0.01017527 0.00224858 -0.03147175
v -0.01006995 0.00283798 -0.03177731
v -0.01006387 0.00316664 -0.03177238
v 0.00666792 0.00336425 -0.04079124
v 0.00094213 0.00032669 0.00748184
v 0.00157000 0.00028826 0.00748184
v 0.00892422 0.00336425 -0.01649946
v 0.00847458 0.00336425 -0.01636639
v 0.00282575 0.00017299 0.00738327
v 0.00488355 -0.00305875 0.00450512
v 0.00506989 -0.00315000 0.00408621
v 0.00476203 -0.00223126 0.00576185
v 0.00435492 -0.00247072 0.00588506
v 0.00470937 -0.00259972 0.00542179
v 0.00468911 -0.00291466 0.00494867
v 0.00472962 -0.00159040 0.00624483
v 0.00429821 -0.00175370 0.00648139
v 0.00458582 -0.00205217 0.00606248
v 0.00519951 -0.00320764 0.00371659
v 0.00445619 -0.00133515 0.00657995
v 0.00202977 0.00006458 0.00783668
v 0.00282575 -0.00030182 0.00759519
v 0.00345362 -0.00030182 0.00733399
v 0.00379186 -0.00030182 0.00718121
v 0.00410580 -0.00030182 0.00699393
v 0.00453518 -0.00092964 0.00663909
v 0.00377566 -0.00064009 0.00717628
v 0.00468911 -0.00321793 0.00431292
v 0.00408149 -0.00340113 0.00434249
v 0.00345362 -0.00352944 0.00434249
v 0.00282575 -0.00360011 0.00434249
v 0.00219788 -0.00363030 0.00434249
v 0.00157000 -0.00364060 0.00434249
v -0.00219723 -0.00364540 0.00371659
v -0.00631689 -0.00315138 0.00164669
v -0.00987956 -0.00292769 -0.01951560
v -0.00698122 -0.00257707 0.00183396
v -0.00989981 -0.00294485 -0.02014150
v -0.00282511 -0.00363922 0.00371659
v -0.00345298 -0.00361109 0.00371659
v -0.00408085 -0.00353699 0.00371659
v -0.00470872 -0.00338604 0.00371659
v -0.00538723 -0.00328311 0.00313011
v -0.00574573 -0.00317882 0.00295270
v -0.00585712 -0.00323097 0.00245986
v -0.00625005 -0.00311158 0.00206559
v -0.01011450 -0.00261344 -0.01951560
v -0.01025831 -0.00218597 -0.01951560
v -0.01027046 -0.00218597 -0.02014150
v -0.01034135 -0.00155746 -0.02014150
v -0.01034540 -0.00092964 -0.01951560
v -0.01031907 0.00336425 -0.01888970
v -0.01032717 0.00336425 -0.02589780
v -0.01015704 0.00324554 -0.03082121
v -0.01011450 0.00320986 -0.03144711
v -0.00973171 0.00327025 -0.03144711
v 0.00594081 0.00336425 -0.04025898
v -0.00973171 0.00334229 -0.03082121
v 0.00031426 0.00033972 0.00748184
v 0.00031426 0.00017299 0.00795496
v 0.00094213 0.00015995 0.00793525
v 0.00835305 0.00336425 -0.01634668
v 0.00157000 0.00012153 0.00788596
v 0.00446632 -0.00315755 0.00472197
v 0.00411795 -0.00221616 0.00624975
v 0.00358527 -0.00238084 0.00643703
v 0.00393567 -0.00259148 0.00601812
v 0.00407947 -0.00282134 0.00559921
v 0.00422327 -0.00305051 0.00514088
v 0.00408554 -0.00154992 0.00670809
v 0.00387895 -0.00196229 0.00660952
v 0.00402276 -0.00088161 0.00696929
v 0.00368249 -0.00105932 0.00712700
v 0.00094213 -0.00030182 0.00805845
v 0.00157000 -0.00030182 0.00795989
v 0.00207028 -0.00030182 0.00784653
v 0.00238421 -0.00030182 0.00775783
v 0.00282575 -0.00092964 0.00752619
v 0.00346577 -0.00088161 0.00726499
v 0.00404099 -0.00321107 0.00494867
v 0.00345362 -0.00336408 0.00497331
v 0.00282575 -0.00348621 0.00497331
v 0.00219788 -0.00355757 0.00497331
v 0.00157000 -0.00358227 0.00497331
v -0.00156936 -0.00364060 0.00434249
v -0.00655183 -0.00292838 0.00184875
v -0.01008615 -0.00256404 -0.01901291
v -0.00758276 -0.00194857 0.00120314
v -0.00693058 -0.00252424 0.00220852
v -0.00732148 -0.00213657 0.00180439
v -0.00219723 -0.00363030 0.00434249
v -0.00282511 -0.00360011 0.00434249
v -0.00345298 -0.00352944 0.00434249
v -0.00408085 -0.00340113 0.00434249
v -0.00468847 -0.00321793 0.00431292
v -0.00506924 -0.00315000 0.00408621
v -0.00519887 -0.00320764 0.00371659
v -0.00563028 -0.00311775 0.00337160
v -0.00595839 -0.00298396 0.00313011
v -0.00617106 -0.00306012 0.00245986
v -0.00662070 -0.00271156 0.00243522
v -0.01016919 -0.00224155 -0.01883549
v -0.01030692 -0.00155746 -0.01888970
v -0.01033932 -0.00155746 -0.01951560
v -0.01031907 -0.00092964 -0.01888970
v -0.01020767 0.00336425 -0.01825887
v -0.00807088 -0.00030182 0.00057724
v -0.00799797 -0.00030182 0.00120314
v -0.00788860 -0.00030182 0.00183396
v -0.00763542 0.00012428 0.00245986
v -0.01022388 0.00336425 -0.02657298
v -0.00973171 0.00336425 -0.02761286
v -0.01017122 0.00336425 -0.02688347
v -0.00031361 0.00033972 0.00748184
v 0.00784873 0.00336425 -0.01633189
v -0.00031361 0.00017299 0.00795496
v -0.00031361 -0.00030182 0.00810774
v 0.00031426 -0.00030182 0.00810281
v 0.00380402 -0.00314246 0.00531337
v 0.00340704 -0.00217705 0.00669330
v 0.00316602 -0.00251326 0.00655531
v 0.00340704 -0.00267107 0.00623004
v 0.00345362 -0.00301758 0.00573721
v 0.00346577 -0.00157393 0.00703829
v 0.00305057 -0.00179418 0.00713193
v 0.00326323 -0.00137564 0.00722557
v 0.00031426 -0.00092964 0.00803874
v 0.00094213 -0.00092964 0.00798453
v 0.00159431 -0.00094611 0.00787611
v 0.00198724 -0.00074781 0.00782189
v 0.00219788 -0.00094611 0.00773318
v 0.00219788 -0.00155746 0.00753605
v 0.00283588 -0.00157393 0.00731427
v 0.00345362 -0.00319254 0.00542179
v 0.00282170 -0.00325292 0.00562878
v 0.00219788 -0.00338123 0.00559921
v 0.00157000 -0.00340662 0.00559921
v -0.00156936 -0.00358227 0.00497331
v -0.00775897 -0.00155746 0.00120314
v -0.00754833 -0.00189505 0.00158262
v -0.00643639 -0.00264157 0.00308576
v -0.00684754 -0.00243024 0.00262743
v -0.00708451 -0.00220656 0.00243522
v -0.00749972 -0.00179350 0.00199660
v -0.00219723 -0.00355757 0.00497331
v -0.00282511 -0.00348621 0.00497331
v -0.00345298 -0.00336408 0.00497331
v -0.00404034 -0.00321107 0.00494867
v -0.00446568 -0.00315755 0.00472197
v -0.00551281 -0.00305189 0.00371659
v -0.00488291 -0.00305875 0.00450512
v -0.00535077 -0.00283849 0.00436220
v -0.00598675 -0.00272185 0.00371166
v -0.00633714 -0.00255306 0.00349974
v -0.00794733 -0.00092964 0.00120314
v -0.01008412 0.00336425 -0.01786954
v -0.00772454 -0.00030182 0.00245986
v -0.00756858 0.00005772 0.00285906
v -0.00782581 -0.00092964 0.00183396
v -0.00705211 0.00013800 0.00371659
v -0.00094149 0.00032669 0.00748184
v -0.00784809 0.00336425 -0.01633189
v -0.00847393 0.00336425 -0.01636639
v -0.00094149 0.00015995 0.00793525
v -0.00094149 -0.00030182 0.00805845
v -0.00031361 -0.00092964 0.00803874
v 0.00303031 -0.00309786 0.00586042
v 0.00283588 -0.00216539 0.00696436
v 0.00219788 -0.00235613 0.00705800
v 0.00282575 -0.00258050 0.00662923
v 0.00282170 -0.00292358 0.00619061
v 0.00263131 -0.00194308 0.00721571
v 0.00031426 -0.00147444 0.00788596
v 0.00094213 -0.00141886 0.00786132
v 0.00140190 -0.00133447 0.00783175
v 0.00182115 -0.00116636 0.00778247
v 0.00219788 -0.00204188 0.00728471
v 0.00159431 -0.00154923 0.00769376
v 0.00261106 -0.00315206 0.00595405
v 0.00219788 -0.00319598 0.00603783
v 0.00157000 -0.00320627 0.00607233
v -0.00156936 -0.00340594 0.00559921
v -0.00219723 -0.00338192 0.00559921
v -0.00763542 -0.00157393 0.00180439
v -0.00675032 -0.00230673 0.00308576
v -0.00699134 -0.00199316 0.00308576
v -0.00692046 -0.00189367 0.00343074
v -0.00743896 -0.00157393 0.00249436
v -0.00758681 -0.00137495 0.00230708
v -0.00282105 -0.00325292 0.00562878
v -0.00345298 -0.00319254 0.00542179
v -0.00380337 -0.00314246 0.00531337
v -0.00422263 -0.00305051 0.00514088
v -0.00468847 -0.00291534 0.00494867
v -0.00579028 -0.00261756 0.00421928
v -0.00516849 -0.00260589 0.00497331
v -0.00563433 -0.00248376 0.00463819
v -0.00656804 -0.00215784 0.00367223
v -0.00620954 -0.00242200 0.00391865
v -0.00994842 0.00336425 -0.01760341
v -0.00763745 -0.00094611 0.00249436
v -0.00756048 -0.00074781 0.00283934
v -0.00758074 -0.00030182 0.00288370
v -0.00744301 -0.00030182 0.00319911
v -0.00719388 -0.00030182 0.00371659
v -0.00695489 0.00006870 0.00411086
v -0.00660652 0.00017779 0.00432770
v -0.00992209 0.00336425 -0.01755412
v -0.00156936 0.00028277 0.00748184
v -0.00282511 0.00033972 0.00685594
v -0.00901674 0.00336425 -0.01654874
v -0.00156936 0.00011604 0.00788596
v -0.00202102 0.00005772 0.00783175
v -0.00156936 -0.00030182 0.00795989
v -0.00094149 -0.00092964 0.00798453
v -0.00094149 -0.00141886 0.00786132
v -0.00031361 -0.00147444 0.00788596
v 0.00219788 -0.00299974 0.00635325
v 0.00171786 -0.00244602 0.00712700
v 0.00219788 -0.00268548 0.00674259
v 0.00094213 -0.00173312 0.00771347
v 0.00153355 -0.00221616 0.00733399
v 0.00157000 -0.00303130 0.00638775
v -0.00156936 -0.00320558 0.00607233
v -0.00156936 -0.00303130 0.00638775
v -0.00219723 -0.00319598 0.00603783
v -0.00637968 -0.00200346 0.00419464
v -0.00624600 -0.00181545 0.00461354
v -0.00682121 -0.00155746 0.00388415
v -0.00699742 -0.00155746 0.00356874
v -0.00721616 -0.00155746 0.00308576
v -0.00751795 -0.00116636 0.00272599
v -0.00261041 -0.00315206 0.00595405
v -0.00302967 -0.00309786 0.00586042
v -0.00345298 -0.00301758 0.00573721
v -0.00407883 -0.00282134 0.00559921
v -0.00470872 -0.00259972 0.00542179
v -0.00502469 -0.00250091 0.00528873
v -0.00601915 -0.00224361 0.00441641
v -0.00551483 -0.00223880 0.00503245
v -0.00564851 -0.00186760 0.00528380
v -0.00582674 -0.00206521 0.00486489
v -0.00742680 -0.00094611 0.00306112
v -0.00708451 -0.00097561 0.00377080
v -0.00694679 -0.00079722 0.00409607
v -0.00697312 -0.00030182 0.00413550
v -0.00677665 -0.00030182 0.00445091
v -0.00646272 -0.00030182 0.00489446
v -0.00640601 0.00012016 0.00482054
v -0.00659234 0.00030473 0.00371659
v -0.00600093 0.00021004 0.00500781
v -0.00965879 0.00336425 -0.01715493
v -0.00282511 0.00017299 0.00738327
v -0.00345298 0.00027111 0.00685594
v -0.00408085 0.00033218 0.00622511
v -0.00933068 0.00336425 -0.01677052
v -0.00237952 -0.00030182 0.00775783
v -0.00206558 -0.00030182 0.00784161
v -0.00345298 0.00010438 0.00726006
v -0.00379122 0.00003096 0.00718121
v -0.00282511 -0.00030182 0.00759519
v -0.00159366 -0.00094611 0.00787611
v -0.00198659 -0.00074850 0.00782189
v -0.00140125 -0.00133447 0.00783175
v -0.00094149 -0.00173312 0.00771347
v 0.00130063 -0.00251120 0.00718121
v -0.00129998 -0.00251120 0.00718121
v -0.00219723 -0.00299974 0.00635325
v -0.00600295 -0.00163225 0.00501767
v -0.00635132 -0.00139691 0.00475154
v -0.00650525 -0.00158697 0.00437699
v -0.00690020 -0.00121576 0.00401722
v -0.00282105 -0.00292358 0.00619061
v -0.00316537 -0.00251395 0.00655531
v -0.00340639 -0.00267107 0.00623004
v -0.00393502 -0.00259217 0.00602305
v -0.00435428 -0.00247072 0.00588506
v -0.00476138 -0.00223126 0.00576185
v -0.00500443 -0.00184633 0.00589984
v -0.00517862 -0.00218597 0.00543165
v -0.00575990 -0.00144905 0.00540701
v -0.00539128 -0.00164735 0.00565342
v -0.00676653 -0.00097561 0.00431785
v -0.00642221 -0.00092964 0.00484025
v -0.00620954 -0.00030182 0.00520987
v -0.00589561 -0.00030182 0.00555486
v -0.00581662 0.00012290 0.00546615
v -0.00596447 0.00034316 0.00434249
v -0.00960816 0.00336425 -0.01708100
v -0.00538318 0.00021142 0.00564850
v -0.00403224 0.00014623 0.00685101
v -0.00473100 0.00020112 0.00625961
v -0.00470872 0.00034521 0.00559921
v -0.00533660 0.00034521 0.00497331
v -0.00219723 -0.00094611 0.00773318
v -0.00282511 -0.00092964 0.00752619
v -0.00453657 0.00010506 0.00663909
v -0.00459733 -0.00030182 0.00667852
v -0.00410516 -0.00030182 0.00699393
v -0.00379122 -0.00030182 0.00718614
v -0.00345298 -0.00030182 0.00733399
v -0.00377502 -0.00064078 0.00717628
v -0.00182051 -0.00116705 0.00778247
v -0.00219723 -0.00155746 0.00753605
v -0.00159366 -0.00154923 0.00769376
v -0.00153290 -0.00221616 0.00733399
v -0.00171924 -0.00244602 0.00712700
v -0.00219723 -0.00268548 0.00674259
v -0.00282511 -0.00258050 0.00662923
v -0.00616701 -0.00092964 0.00515566
v -0.00219723 -0.00235613 0.00705800
v -0.00283523 -0.00216607 0.00696436
v -0.00340639 -0.00217705 0.00669330
v -0.00358463 -0.00238084 0.00643703
v -0.00411731 -0.00221685 0.00624975
v -0.00458517 -0.00205217 0.00606248
v -0.00429757 -0.00175439 0.00648139
v -0.00472898 -0.00159108 0.00624483
v -0.00513608 -0.00142778 0.00600827
v -0.00585307 -0.00092964 0.00550557
v -0.00555129 -0.00092964 0.00582099
v -0.00560395 -0.00030182 0.00587027
v -0.00520495 0.00012290 0.00606741
v -0.00346513 -0.00088230 0.00726499
v -0.00326462 -0.00137632 0.00722557
v -0.00283523 -0.00157393 0.00731427
v -0.00491126 -0.00030182 0.00645182
v -0.00529001 -0.00030182 0.00614133
v -0.00453657 -0.00092964 0.00663909
v -0.00402414 -0.00088230 0.00696929
v -0.00368185 -0.00106001 0.00712700
v -0.00263067 -0.00194308 0.00721571
v -0.00219723 -0.00204257 0.00728471
v -0.00304992 -0.00179487 0.00713193
v -0.00388034 -0.00196229 0.00660952
v -0.00408490 -0.00154992 0.00670809
v -0.00445555 -0.00133515 0.00657995
v -0.00485050 -0.00092964 0.00641239
v -0.00523735 -0.00092964 0.00609697
v -0.00346513 -0.00157393 0.00703829
f 1 2 3
f 1 3 9
f 1 9 4
f 1 4 11
f 1 11 19
f 1 19 31
f 1 31 51
f 1 51 79
f 1 79 78
f 1 78 111
f 1 111 152
f 1 152 204
f 1 204 254
f 1 254 307
f 1 307 362
f 1 362 363
f 1 363 361
f 1 361 303
f 1 303 248
f 1 248 247
f 1 247 302
f 1 302 356
f 1 356 406
f 1 406 450
f 1 450 458
f 1 458 502
f 1 502 539
f 1 539 506
f 1 506 461
f 1 461 413
f 1 413 412
f 1 412 365
f 1 365 312
f 1 312 258
f 1 258 257
f 1 257 207
f 1 207 157
f 1 157 114
f 1 114 82
f 1 82 55
f 1 55 54
f 1 54 35
f 1 35 33
f 1 33 20
f 1 20 12
f 1 12 5
f 1 5 2
f 2 5 6
f 2 6 3
f 3 6 7
f 3 7 8
f 3 8 18
f 3 18 9
f 4 10 11
f 4 9 10
f 5 12 13
f 5 13 14
f 5 14 6
f 6 15 7
f 6 14 15
f 7 16 17
f 7 17 8
f 7 15 16
f 8 17 30
f 8 30 18
f 9 18 10
f 10 18 11
f 11 18 19
f 12 20 21
f 12 21 13
f 13 22 23
f 13 23 14
f 13 21 24
f 13 24 25
f 13 25 22
f 14 23 15
f 15 26 16
f 15 23 26
f 16 27 28
f 16 28 17
f 16 26 29
f 16 29 27
f 17 28 47
f 17 47 30
f 18 30 19
f 19 30 32
f 19 32 31
f 20 33 21
f 21 34 24
f 21 33 35
f 21 35 34
f 22 36 37
f 22 37 23
f 22 25 38
f 22 38 39
f 22 39 36
f 23 37 26
f 24 40 41
f 24 41 25
f 24 34 42
f 24 42 43
f 24 43 40
f 25 41 44
f 25 44 38
f 26 37 29
f 27 45 46
f 27 46 28
f 27 29 45
f 28 46 70
f 28 70 47
f 29 37 48
f 29 48 45
f 30 47 32
f 31 49 50
f 31 50 51
f 31 32 49
f 32 47 52
f 32 52 49
f 34 53 42
f 34 35 54
f 34 54 55
f 34 55 53
f 36 56 37
f 36 39 57
f 36 57 56
f 37 56 48
f 38 44 58
f 38 58 39
f 39 58 59
f 39 59 57
f 40 44 41
f 40 43 44
f 42 53 60
f 42 60 61
f 42 61 62
f 42 62 63
f 42 63 43
f 43 63 64
f 43 64 65
f 43 65 44
f 44 65 66
f 44 66 58
f 45 67 69
f 45 69 46
f 45 48 68
f 45 68 67
f 46 69 99
f 46 99 70
f 47 70 71
f 47 71 72
f 47 72 52
f 48 56 73
f 48 73 68
f 49 52 74
f 49 74 75
f 49 75 50
f 50 76 77
f 50 77 78
f 50 78 79
f 50 79 51
f 50 75 76
f 52 72 75
f 52 75 74
f 53 55 80
f 53 80 81
f 53 81 60
f 55 82 80
f 56 57 73
f 57 59 83
f 57 83 84
f 57 84 85
f 57 85 73
f 58 66 86
f 58 86 87
f 58 87 88
f 58 88 59
f 59 88 83
f 60 81 89
f 60 89 90
f 60 90 91
f 60 91 61
f 61 92 62
f 61 91 127
f 61 127 92
f 62 92 64
f 62 64 63
f 64 86 65
f 64 92 93
f 64 93 86
f 65 86 66
f 67 94 95
f 67 95 69
f 67 68 96
f 67 96 94
f 68 73 97
f 68 97 98
f 68 98 96
f 69 95 99
f 70 99 71
f 71 99 72
f 72 100 75
f 72 99 101
f 72 101 100
f 73 85 97
f 75 100 102
f 75 102 103
f 75 103 104
f 75 104 76
f 76 105 77
f 76 104 106
f 76 106 107
f 76 107 105
f 77 108 78
f 77 105 109
f 77 109 110
f 77 110 108
f 78 108 110
f 78 110 111
f 80 112 81
f 80 82 112
f 81 113 89
f 81 112 113
f 82 114 112
f 83 87 115
f 83 115 116
f 83 116 117
f 83 117 118
f 83 118 119
f 83 119 120
f 83 120 84
f 83 88 87
f 84 120 121
f 84 121 85
f 85 121 97
f 86 115 87
f 86 93 122
f 86 122 123
f 86 123 115
f 89 113 124
f 89 124 125
f 89 125 90
f 90 126 91
f 90 125 126
f 91 126 127
f 92 122 93
f 92 127 122
f 94 96 128
f 94 128 129
f 94 129 95
f 95 101 99
f 95 129 130
f 95 130 102
f 95 102 100
f 95 100 101
f 96 98 131
f 96 131 128
f 97 121 132
f 97 132 133
f 97 133 98
f 98 133 131
f 102 134 135
f 102 135 136
f 102 136 103
f 102 130 129
f 102 129 137
f 102 137 138
f 102 138 139
f 102 139 134
f 103 136 104
f 104 136 141
f 104 141 106
f 105 140 110
f 105 110 109
f 105 107 140
f 106 141 142
f 106 142 107
f 107 142 143
f 107 143 144
f 107 144 145
f 107 145 146
f 107 146 147
f 107 147 140
f 110 140 148
f 110 148 149
f 110 149 150
f 110 150 151
f 110 151 111
f 111 151 152
f 112 153 113
f 112 114 153
f 113 154 155
f 113 155 124
f 113 153 156
f 113 156 154
f 114 157 154
f 114 154 156
f 114 156 153
f 115 123 116
f 116 158 159
f 116 159 117
f 116 123 122
f 116 122 160
f 116 160 161
f 116 161 162
f 116 162 158
f 117 159 163
f 117 163 118
f 118 163 119
f 119 164 132
f 119 132 121
f 119 121 120
f 119 163 165
f 119 165 166
f 119 166 164
f 122 127 167
f 122 167 160
f 124 155 168
f 124 168 169
f 124 169 125
f 125 169 170
f 125 170 171
f 125 171 126
f 126 167 127
f 126 171 167
f 128 131 172
f 128 172 173
f 128 173 129
f 129 173 174
f 129 174 175
f 129 175 137
f 131 133 176
f 131 176 177
f 131 177 172
f 132 164 176
f 132 176 133
f 134 178 135
f 134 139 178
f 135 178 139
f 135 139 183
f 135 183 229
f 135 229 284
f 135 284 233
f 135 233 189
f 135 189 226
f 135 226 179
f 135 179 141
f 135 141 136
f 137 175 180
f 137 180 181
f 137 181 138
f 138 181 182
f 138 182 183
f 138 183 139
f 140 184 185
f 140 185 148
f 140 147 146
f 140 146 184
f 141 179 143
f 141 143 142
f 143 186 187
f 143 187 144
f 143 179 188
f 143 188 189
f 143 189 190
f 143 190 191
f 143 191 192
f 143 192 186
f 144 187 193
f 144 193 145
f 145 193 194
f 145 194 195
f 145 195 196
f 145 196 146
f 146 196 197
f 146 197 184
f 148 185 149
f 149 185 198
f 149 198 199
f 149 199 200
f 149 200 201
f 149 201 150
f 150 201 202
f 150 202 151
f 151 202 203
f 151 203 204
f 151 204 152
f 154 205 206
f 154 206 155
f 154 157 207
f 154 207 205
f 155 206 208
f 155 208 168
f 158 209 165
f 158 165 163
f 158 163 159
f 158 162 161
f 158 161 210
f 158 210 211
f 158 211 209
f 160 167 161
f 161 167 212
f 161 212 213
f 161 213 214
f 161 214 210
f 164 166 215
f 164 215 177
f 164 177 176
f 165 216 166
f 165 209 216
f 166 216 215
f 167 171 217
f 167 217 212
f 168 208 218
f 168 218 219
f 168 219 220
f 168 220 221
f 168 221 169
f 169 221 170
f 170 217 171
f 170 221 222
f 170 222 217
f 172 177 173
f 173 177 223
f 173 223 224
f 173 224 174
f 174 180 175
f 174 224 225
f 174 225 180
f 177 215 223
f 179 226 188
f 180 225 227
f 180 227 181
f 181 227 182
f 182 227 228
f 182 228 229
f 182 229 183
f 184 198 185
f 184 197 198
f 186 192 187
f 187 192 230
f 187 230 231
f 187 231 232
f 187 232 194
f 187 194 193
f 188 226 189
f 189 233 190
f 190 233 234
f 190 234 235
f 190 235 191
f 191 235 236
f 191 236 237
f 191 237 192
f 192 237 238
f 192 238 239
f 192 239 240
f 192 240 230
f 194 232 288
f 194 288 241
f 194 241 195
f 195 241 196
f 196 241 242
f 196 242 299
f 196 299 243
f 196 243 197
f 197 243 244
f 197 244 198
f 198 245 199
f 198 244 245
f 199 245 244
f 199 244 246
f 199 246 301
f 199 301 247
f 199 247 200
f 200 247 248
f 200 248 249
f 200 249 250
f 200 250 251
f 200 251 201
f 201 251 202
f 202 251 203
f 203 252 204
f 203 251 252
f 204 252 253
f 204 253 254
f 205 255 256
f 205 256 206
f 205 207 257
f 205 257 258
f 205 258 255
f 206 256 259
f 206 259 218
f 206 218 208
f 209 211 260
f 209 260 261
f 209 261 216
f 210 214 213
f 210 213 262
f 210 262 263
f 210 263 264
f 210 264 265
f 210 265 211
f 211 265 260
f 212 217 213
f 213 217 266
f 213 266 267
f 213 267 268
f 213 268 262
f 215 216 261
f 215 261 269
f 215 269 223
f 217 222 270
f 217 270 266
f 218 259 271
f 218 271 219
f 219 271 272
f 219 272 273
f 219 273 274
f 219 274 275
f 219 275 220
f 220 276 222
f 220 222 221
f 220 275 277
f 220 277 276
f 222 276 270
f 223 269 224
f 224 269 261
f 224 261 278
f 224 278 279
f 224 279 225
f 225 279 280
f 225 280 227
f 227 280 281
f 227 281 282
f 227 282 228
f 228 282 283
f 228 283 229
f 229 283 335
f 229 335 284
f 230 240 285
f 230 285 231
f 231 286 232
f 231 285 287
f 231 287 286
f 232 286 288
f 233 284 234
f 234 284 289
f 234 289 290
f 234 290 235
f 235 290 236
f 236 238 237
f 236 290 291
f 236 291 238
f 238 291 292
f 238 292 239
f 239 292 293
f 239 293 294
f 239 294 295
f 239 295 240
f 240 295 296
f 240 296 285
f 241 288 242
f 242 288 297
f 242 297 298
f 242 298 299
f 243 299 300
f 243 300 244
f 244 300 301
f 244 301 246
f 247 301 355
f 247 355 302
f 248 303 249
f 249 304 305
f 249 305 250
f 249 303 304
f 250 305 253
f 250 253 252
f 250 252 251
f 253 305 306
f 253 306 254
f 254 306 308
f 254 308 307
f 255 309 310
f 255 310 311
f 255 311 256
f 255 258 312
f 255 312 309
f 256 311 313
f 256 313 259
f 259 313 271
f 260 265 314
f 260 314 261
f 261 314 278
f 262 268 263
f 263 268 315
f 263 315 316
f 263 316 317
f 263 317 318
f 263 318 264
f 264 318 319
f 264 319 265
f 265 319 314
f 266 270 267
f 267 270 320
f 267 320 321
f 267 321 268
f 268 321 315
f 270 276 322
f 270 322 323
f 270 323 320
f 271 313 324
f 271 324 325
f 271 325 326
f 271 326 327
f 271 327 272
f 272 327 328
f 272 328 277
f 272 277 273
f 273 277 274
f 274 277 275
f 276 277 322
f 277 323 322
f 277 328 329
f 277 329 323
f 278 314 279
f 279 314 330
f 279 330 331
f 279 331 280
f 280 331 332
f 280 332 333
f 280 333 281
f 281 333 282
f 282 333 334
f 282 334 283
f 283 334 388
f 283 388 335
f 284 335 289
f 285 296 336
f 285 336 287
f 286 337 297
f 286 297 288
f 286 287 338
f 286 338 337
f 287 336 339
f 287 339 340
f 287 340 338
f 289 335 341
f 289 341 290
f 290 341 342
f 290 342 343
f 290 343 291
f 291 343 344
f 291 344 292
f 292 344 345
f 292 345 346
f 292 346 347
f 292 347 293
f 293 348 294
f 293 347 348
f 294 348 349
f 294 349 350
f 294 350 296
f 294 296 295
f 296 350 351
f 296 351 336
f 297 337 298
f 298 337 352
f 298 352 353
f 298 353 354
f 298 354 299
f 299 354 300
f 300 354 301
f 301 354 355
f 302 355 357
f 302 357 358
f 302 358 359
f 302 359 360
f 302 360 356
f 303 361 308
f 303 308 304
f 304 308 305
f 305 308 306
f 307 308 362
f 308 361 363
f 308 363 362
f 309 364 366
f 309 366 310
f 309 312 365
f 309 365 412
f 309 412 364
f 310 366 367
f 310 367 368
f 310 368 311
f 311 368 324
f 311 324 313
f 314 319 369
f 314 369 330
f 315 321 316
f 316 321 370
f 316 370 371
f 316 371 317
f 317 372 373
f 317 373 318
f 317 371 372
f 318 369 319
f 318 373 369
f 320 323 374
f 320 374 321
f 321 374 375
f 321 375 370
f 323 329 376
f 323 376 374
f 324 368 377
f 324 377 378
f 324 378 325
f 325 378 379
f 325 379 380
f 325 380 326
f 326 380 327
f 327 381 328
f 327 380 381
f 328 381 382
f 328 382 383
f 328 383 376
f 328 376 329
f 330 369 331
f 331 369 384
f 331 384 385
f 331 385 332
f 332 385 386
f 332 386 333
f 333 386 387
f 333 387 334
f 334 387 388
f 335 388 341
f 336 351 339
f 337 338 389
f 337 389 352
f 338 340 390
f 338 390 389
f 339 351 391
f 339 391 392
f 339 392 393
f 339 393 340
f 340 393 394
f 340 394 390
f 341 388 395
f 341 395 342
f 342 395 343
f 343 395 396
f 343 396 397
f 343 397 344
f 344 397 398
f 344 398 399
f 344 399 345
f 345 399 346
f 346 400 348
f 346 348 347
f 346 399 401
f 346 401 402
f 346 402 400
f 348 400 403
f 348 403 349
f 349 403 404
f 349 404 391
f 349 391 350
f 350 391 351
f 352 389 405
f 352 405 353
f 353 355 354
f 353 405 358
f 353 358 357
f 353 357 355
f 356 360 406
f 358 405 359
f 359 407 408
f 359 408 360
f 359 405 409
f 359 409 407
f 360 408 410
f 360 410 406
f 364 411 366
f 364 412 413
f 364 413 411
f 366 411 414
f 366 414 367
f 367 414 415
f 367 415 416
f 367 416 377
f 367 377 368
f 369 373 417
f 369 417 384
f 370 375 418
f 370 418 371
f 371 418 419
f 371 419 420
f 371 420 421
f 371 421 417
f 371 417 372
f 372 417 373
f 374 376 375
f 375 376 383
f 375 383 422
f 375 422 418
f 377 416 467
f 377 467 423
f 377 423 424
f 377 424 378
f 378 424 425
f 378 425 379
f 379 425 426
f 379 426 380
f 380 426 381
f 381 426 382
f 382 427 422
f 382 422 383
f 382 426 425
f 382 425 428
f 382 428 427
f 384 417 385
f 385 417 429
f 385 429 430
f 385 430 386
f 386 430 387
f 387 430 431
f 387 431 474
f 387 474 432
f 387 432 388
f 388 432 433
f 388 433 395
f 389 390 434
f 389 434 409
f 389 409 405
f 390 394 434
f 391 404 392
f 392 404 435
f 392 435 436
f 392 436 393
f 393 436 394
f 394 436 437
f 394 437 438
f 394 438 439
f 394 439 434
f 395 433 396
f 396 433 440
f 396 440 397
f 397 440 441
f 397 441 442
f 397 442 398
f 398 442 399
f 399 442 443
f 399 443 444
f 399 444 401
f 400 402 445
f 400 445 403
f 401 444 446
f 401 446 402
f 402 446 447
f 402 447 445
f 403 445 404
f 404 448 437
f 404 437 435
f 404 445 449
f 404 449 448
f 406 410 450
f 407 451 452
f 407 452 453
f 407 453 408
f 407 409 451
f 408 453 454
f 408 454 455
f 408 455 456
f 408 456 410
f 409 434 439
f 409 439 451
f 410 456 457
f 410 457 458
f 410 458 450
f 411 459 414
f 411 413 460
f 411 460 459
f 413 461 460
f 414 462 415
f 414 459 462
f 415 462 463
f 415 463 464
f 415 464 465
f 415 465 416
f 416 465 466
f 416 466 467
f 417 421 468
f 417 468 429
f 418 422 419
f 419 469 470
f 419 470 420
f 419 422 427
f 419 427 469
f 420 470 468
f 420 468 421
f 423 467 515
f 423 515 471
f 423 471 424
f 424 471 425
f 425 471 428
f 427 428 472
f 427 472 469
f 428 471 472
f 429 468 430
f 430 468 473
f 430 473 431
f 431 473 475
f 431 475 474
f 432 474 433
f 433 474 476
f 433 476 440
f 435 437 436
f 437 448 477
f 437 477 478
f 437 478 479
f 437 479 480
f 437 480 481
f 437 481 438
f 438 481 482
f 438 482 439
f 439 482 451
f 440 476 483
f 440 483 484
f 440 484 441
f 441 484 442
f 442 484 485
f 442 485 486
f 442 486 443
f 443 486 487
f 443 487 444
f 444 487 488
f 444 488 446
f 445 447 449
f 446 488 447
f 447 478 489
f 447 489 449
f 447 488 490
f 447 490 491
f 447 491 492
f 447 492 478
f 448 449 477
f 449 489 477
f 451 482 452
f 452 493 494
f 452 494 454
f 452 454 453
f 452 482 493
f 454 494 455
f 455 494 495
f 455 495 496
f 455 496 456
f 456 496 497
f 456 497 498
f 456 498 499
f 456 499 457
f 457 500 458
f 457 499 501
f 457 501 500
f 458 500 502
f 459 503 462
f 459 460 504
f 459 504 503
f 460 505 504
f 460 461 505
f 461 506 505
f 462 503 463
f 463 507 508
f 463 508 464
f 463 503 509
f 463 509 510
f 463 510 511
f 463 511 507
f 464 512 465
f 464 508 513
f 464 513 512
f 465 512 514
f 465 514 466
f 466 514 515
f 466 515 467
f 468 470 516
f 468 516 473
f 469 472 516
f 469 516 470
f 471 515 517
f 471 517 516
f 471 516 472
f 473 516 517
f 473 517 475
f 474 475 476
f 475 517 518
f 475 518 476
f 476 518 483
f 477 489 478
f 478 492 491
f 478 491 519
f 478 519 520
f 478 520 521
f 478 521 479
f 479 521 522
f 479 522 480
f 480 482 481
f 480 522 482
f 482 522 493
f 483 518 484
f 484 518 523
f 484 523 524
f 484 524 525
f 484 525 485
f 485 525 526
f 485 526 486
f 486 526 527
f 486 527 487
f 487 527 488
f 488 527 528
f 488 528 529
f 488 529 530
f 488 530 491
f 488 491 490
f 491 531 519
f 491 530 529
f 491 529 532
f 491 532 531
f 493 522 494
f 494 522 495
f 495 522 533
f 495 533 534
f 495 534 497
f 495 497 496
f 497 534 498
f 498 535 499
f 498 534 535
f 499 535 536
f 499 536 537
f 499 537 501
f 500 501 538
f 500 538 539
f 500 539 502
f 501 537 540
f 501 540 538
f 503 504 509
f 504 541 509
f 504 505 542
f 504 542 541
f 505 543 540
f 505 540 542
f 505 506 543
f 506 539 538
f 506 538 544
f 506 544 543
f 507 545 513
f 507 513 508
f 507 511 546
f 507 546 545
f 509 541 547
f 509 547 510
f 510 547 548
f 510 548 549
f 510 549 550
f 510 550 551
f 510 551 511
f 511 551 552
f 511 552 546
f 512 513 553
f 512 553 514
f 513 545 553
f 514 553 554
f 514 554 555
f 514 555 515
f 515 555 556
f 515 556 517
f 517 557 558
f 517 558 518
f 517 556 557
f 518 558 559
f 518 559 523
f 519 531 520
f 520 534 533
f 520 533 522
f 520 522 521
f 520 531 560
f 520 560 534
f 523 559 524
f 524 559 561
f 524 561 562
f 524 562 563
f 524 563 564
f 524 564 526
f 524 526 525
f 526 564 527
f 527 564 565
f 527 565 566
f 527 566 528
f 528 566 529
f 529 566 567
f 529 567 568
f 529 568 569
f 529 569 532
f 531 570 560
f 531 532 569
f 531 569 571
f 531 571 570
f 534 560 535
f 535 560 570
f 535 570 536
f 536 572 537
f 536 570 572
f 537 572 573
f 537 573 540
f 538 540 544
f 540 573 542
f 540 543 544
f 541 542 547
f 542 573 547
f 545 546 554
f 545 554 553
f 546 574 575
f 546 575 576
f 546 576 554
f 546 552 574
f 547 577 548
f 547 573 578
f 547 578 577
f 548 577 588
f 548 588 579
f 548 579 552
f 548 552 549
f 549 552 550
f 550 552 551
f 552 579 580
f 552 580 581
f 552 581 574
f 554 576 582
f 554 582 583
f 554 583 555
f 555 583 556
f 556 583 557
f 557 561 558
f 557 583 561
f 558 561 559
f 561 583 582
f 561 582 562
f 562 582 584
f 562 584 563
f 563 585 564
f 563 584 585
f 564 585 565
f 565 585 566
f 566 585 567
f 567 585 586
f 567 586 587
f 567 587 568
f 568 587 569
f 569 587 588
f 569 588 589
f 569 589 571
f 570 571 572
f 571 589 572
f 572 589 578
f 572 578 573
f 574 581 575
f 575 581 590
f 575 590 584
f 575 584 576
f 576 584 582
f 577 578 589
f 577 589 588
f 579 588 587
f 579 587 580
f 580 587 581
f 581 587 586
f 581 586 590
f 584 590 585
f 585 590 586

