# https://github.com/mikedh/trimesh
v 0.00829747 0.02607405 -0.01548348
v 0.00827635 0.02544625 -0.01548348
v 0.00828935 0.02639615 -0.01548348
v 0.00812528 0.02670240 -0.00067979
v 0.00822437 0.02499836 -0.01548348
v 0.00827310 0.02670240 -0.01548348
v 0.00806030 0.02732966 -0.00067979
v 0.00805055 0.02732966 -0.00005161
v 0.00811228 0.02670240 -0.00005161
v 0.00784912 0.02459641 -0.01548348
v 0.00807005 0.02670240 0.00057656
v 0.00776302 0.02622170 0.00120474
v 0.00771429 0.02622717 0.00183291
v 0.00821137 0.02729083 -0.01548348
v 0.00787186 0.02795746 -0.00067979
v 0.00786212 0.02795746 -0.00005161
v 0.00801644 0.02732966 0.00057656
v 0.00722208 0.02445970 -0.01548348
v 0.00722208 0.02610960 0.00246109
v 0.00794659 0.02732966 0.00120474
v 0.00799857 0.02670240 0.00120474
v 0.00763632 0.02627639 0.00246109
v 0.00798720 0.02797168 -0.01548348
v 0.00763794 0.02843214 -0.00067979
v 0.00763307 0.02842503 -0.00005161
v 0.00761682 0.02839988 0.00057656
v 0.00782638 0.02795746 0.00057656
v 0.00648783 0.02445860 -0.01548348
v 0.00659342 0.02609538 0.00371744
v 0.00596476 0.02605710 0.00434561
v 0.00533772 0.02605491 0.00497379
v 0.00470905 0.02605491 0.00560196
v 0.00408202 0.02606803 0.00622783
v 0.00282631 0.02606038 0.00685601
v 0.00031329 0.02605983 0.00748418
v 0.00724645 0.02622717 0.00307541
v 0.00705314 0.02626217 0.00371744
v 0.00775653 0.02795746 0.00120474
v 0.00782638 0.02732966 0.00183291
v 0.00788973 0.02670240 0.00183291
v 0.00756971 0.02634256 0.00285832
v 0.00767530 0.02853003 -0.01548348
v 0.00741864 0.02874659 -0.00067979
v 0.00741377 0.02873948 -0.00005161
v 0.00739752 0.02871432 0.00057656
v 0.00758109 0.02834409 0.00120474
v -0.00607081 0.02445915 -0.01548348
v -0.00031213 0.02605983 0.00748418
v 0.00660641 0.02622225 0.00432945
v 0.00600212 0.02618998 0.00500843
v 0.00538483 0.02618834 0.00564816
v 0.00473180 0.02619873 0.00625785
v 0.00345335 0.02612928 0.00685601
v 0.00156899 0.02611725 0.00748418
v 0.00094195 0.02607350 0.00748418
v 0.00031329 0.02622662 0.00795762
v 0.00695567 0.02633108 0.00411005
v 0.00755022 0.02829488 0.00158118
v 0.00763632 0.02797332 0.00180751
v 0.00758758 0.02777426 0.00230866
v 0.00763794 0.02734552 0.00249573
v 0.00772566 0.02670240 0.00246109
v 0.00758109 0.02670240 0.00288603
v 0.00744301 0.02670240 0.00320012
v 0.00719447 0.02670240 0.00371744
v 0.00757134 0.02867659 -0.01548348
v 0.00710512 0.02909330 -0.00067979
v 0.00710025 0.02908893 -0.00005161
v 0.00746088 0.02880346 -0.01548348
v 0.00708400 0.02907416 0.00057656
v 0.00704502 0.02903643 0.00120474
v 0.00735854 0.02865800 0.00120474
v -0.00669785 0.02445970 -0.01548348
v -0.00031213 0.02622662 0.00795762
v -0.00094079 0.02607350 0.00748418
v -0.00282516 0.02606038 0.00685601
v -0.00722092 0.02446024 -0.01548348
v 0.00640661 0.02627967 0.00482136
v 0.00581693 0.02627694 0.00547032
v 0.00520614 0.02627694 0.00606848
v 0.00453686 0.02629498 0.00663892
v 0.00403328 0.02625397 0.00685139
v 0.00345335 0.02629608 0.00726016
v 0.00282631 0.02622717 0.00738718
v 0.00156899 0.02628350 0.00788603
v 0.00094195 0.02624030 0.00793453
v 0.00031329 0.02670240 0.00810543
v -0.00031213 0.02670240 0.00810774
v 0.00697354 0.02670240 0.00413776
v 0.00677698 0.02670240 0.00445185
v 0.00646346 0.02670240 0.00489527
v 0.00732117 0.02853659 0.00180751
v 0.00749986 0.02819316 0.00199920
v 0.00743813 0.02797332 0.00249573
v 0.00751936 0.02756536 0.00272668
v 0.00756159 0.02714755 0.00283753
v 0.00742839 0.02734552 0.00306386
v 0.00708400 0.02737505 0.00377287
v 0.00694755 0.02719677 0.00409388
v 0.00673475 0.02940721 -0.00067979
v 0.00718472 0.02909658 -0.01548348
v 0.00701253 0.02924315 -0.01548348
v 0.00672987 0.02940283 -0.00005161
v 0.00671200 0.02938806 0.00057656
v 0.00666652 0.02935033 0.00120474
v 0.00698004 0.02897245 0.00183291
v -0.00094079 0.02624030 0.00793453
v -0.00156945 0.02611670 0.00748418
v -0.00345219 0.02612928 0.00685601
v -0.00408086 0.02606803 0.00622783
v -0.00731352 0.02446681 -0.01548348
v -0.00470952 0.02605491 0.00560196
v 0.00621005 0.02670240 0.00520935
v 0.00589490 0.02670240 0.00555578
v 0.00560413 0.02670240 0.00586986
v 0.00529061 0.02670240 0.00614238
v 0.00491049 0.02670240 0.00645416
v 0.00459697 0.02670240 0.00667818
v 0.00379124 0.02636881 0.00718395
v 0.00202221 0.02634201 0.00783291
v 0.00094195 0.02670240 0.00805693
v 0.00031329 0.02732966 0.00803845
v -0.00031213 0.02732966 0.00803845
v -0.00094079 0.02670240 0.00805693
v 0.00642123 0.02732966 0.00484215
v 0.00693130 0.02892377 0.00220936
v 0.00708563 0.02860659 0.00243568
v 0.00699303 0.02839277 0.00308926
v 0.00692156 0.02829378 0.00342876
v 0.00721721 0.02795746 0.00308926
v 0.00699791 0.02795746 0.00357194
v 0.00690044 0.02761512 0.00401998
v 0.00676561 0.02737505 0.00432021
v 0.00642123 0.02961064 -0.00067979
v 0.00641635 0.02960790 -0.00005161
v 0.00677211 0.02943564 -0.01548348
v 0.00639686 0.02959806 0.00057656
v 0.00635300 0.02957291 0.00120474
v 0.00630751 0.02954556 0.00163199
v 0.00654793 0.02932518 0.00183753
v -0.00156945 0.02628350 0.00788603
v -0.00282516 0.02622717 0.00738718
v -0.00345219 0.02629553 0.00726016
v -0.00403212 0.02625397 0.00685139
v -0.00473064 0.02619873 0.00625785
v -0.00538367 0.02618834 0.00564816
v -0.00784959 0.02459641 -0.01548348
v -0.00533656 0.02605491 0.00497379
v -0.00596522 0.02605710 0.00434561
v -0.00659226 0.02609538 0.00371744
v -0.00722092 0.02610905 0.00246109
v 0.00616781 0.02732966 0.00515624
v 0.00585267 0.02732966 0.00550728
v 0.00555052 0.02732966 0.00582136
v 0.00523700 0.02732966 0.00609619
v 0.00485038 0.02732966 0.00641028
v 0.00453686 0.02732966 0.00663892
v 0.00377662 0.02704091 0.00717702
v 0.00410638 0.02670240 0.00699226
v 0.00379124 0.02670240 0.00718395
v 0.00345335 0.02670240 0.00733637
v 0.00282631 0.02670240 0.00759734
v 0.00237959 0.02670240 0.00775901
v 0.00206607 0.02670240 0.00784215
v 0.00156899 0.02670240 0.00795993
v 0.00094195 0.02732966 0.00798764
v 0.00094195 0.02781254 0.00786293
v 0.00031329 0.02787324 0.00788834
v -0.00094079 0.02732966 0.00798764
v -0.00031213 0.02787324 0.00788834
v -0.00094079 0.02781254 0.00786293
v -0.00156945 0.02670240 0.00795993
v -0.00202105 0.02634201 0.00783291
v 0.00635138 0.02779613 0.00474977
v 0.00625066 0.02951166 0.00205231
v 0.00662103 0.02911135 0.00243568
v 0.00643585 0.02904135 0.00308926
v 0.00684846 0.02882971 0.00262737
v 0.00674937 0.02870667 0.00308926
v 0.00633838 0.02895276 0.00350035
v 0.00656905 0.02855792 0.00367356
v 0.00638062 0.02840370 0.00419319
v 0.00624579 0.02821503 0.00461120
v 0.00682247 0.02795746 0.00388603
v 0.00650570 0.02798644 0.00438026
v 0.00596476 0.02980970 -0.00067979
v 0.00596476 0.02980587 -0.00005161
v 0.00645696 0.02962486 -0.01548348
v 0.00596476 0.02979220 0.00057656
v 0.00596476 0.02975228 0.00120474
v 0.00601024 0.02965767 0.00183753
v -0.00379008 0.02636881 0.00718395
v -0.00453570 0.02629498 0.00663892
v -0.00520660 0.02627694 0.00606848
v -0.00581577 0.02627694 0.00547032
v -0.00600096 0.02618998 0.00500843
v -0.00786096 0.02460462 -0.01548348
v -0.00771313 0.02622717 0.00183291
v -0.00660688 0.02622225 0.00432945
v -0.00705360 0.02626217 0.00371744
v -0.00763678 0.02627584 0.00246109
v 0.00576007 0.02784863 0.00540566
v 0.00513628 0.02782731 0.00601074
v 0.00445564 0.02773543 0.00658349
v 0.00402354 0.02728153 0.00697148
v 0.00368240 0.02745926 0.00713083
v 0.00346635 0.02728153 0.00726478
v 0.00282631 0.02732966 0.00752806
v 0.00219765 0.02734606 0.00773360
v 0.00198810 0.02714864 0.00782367
v 0.00159498 0.02734606 0.00787910
v 0.00140329 0.02773434 0.00783291
v 0.00094195 0.02812644 0.00773360
v 0.00031329 0.02818714 0.00776132
v -0.00159382 0.02734661 0.00787910
v -0.00140214 0.02773434 0.00783291
v -0.00031213 0.02818714 0.00776132
v -0.00094079 0.02812644 0.00773360
v -0.00198694 0.02714864 0.00782367
v -0.00206491 0.02670240 0.00784215
v -0.00237843 0.02670240 0.00775901
v -0.00282516 0.02670240 0.00759734
v 0.00600374 0.02803183 0.00501767
v 0.00585754 0.02963087 0.00246109
v 0.00574708 0.02957892 0.00295300
v 0.00617106 0.02946025 0.00246109
v 0.00595988 0.02938369 0.00313314
v 0.00598750 0.02912174 0.00371282
v 0.00579094 0.02901783 0.00422090
v 0.00621005 0.02882206 0.00391836
v 0.00601836 0.02864323 0.00441721
v 0.00563499 0.02888331 0.00463892
v 0.00582830 0.02846495 0.00486524
v 0.00564799 0.02826753 0.00528326
v 0.00533772 0.02997704 -0.00067979
v 0.00533772 0.02997540 -0.00005161
v 0.00626203 0.02970908 -0.01548348
v 0.00596476 0.02983048 -0.01548348
v 0.00533772 0.02996993 0.00057656
v 0.00533772 0.02995079 0.00120474
v 0.00533772 0.02990704 0.00183291
v 0.00533772 0.02983431 0.00246109
v -0.00410522 0.02670240 0.00699226
v -0.00459743 0.02670240 0.00668049
v -0.00345219 0.02670240 0.00733637
v -0.00379170 0.02670240 0.00718626
v -0.00491095 0.02670240 0.00645647
v -0.00528945 0.02670240 0.00614238
v -0.00560297 0.02670240 0.00586986
v -0.00589537 0.02670240 0.00555578
v -0.00640707 0.02627967 0.00482367
v -0.00822321 0.02499727 -0.01548348
v -0.00799903 0.02670240 0.00120474
v -0.00807051 0.02670240 0.00057656
v -0.00776349 0.02622170 0.00120474
v -0.00695614 0.02633108 0.00411005
v -0.00757018 0.02634201 0.00285832
v -0.00788857 0.02670240 0.00183291
v 0.00539295 0.02804715 0.00565277
v 0.00473017 0.02799027 0.00624631
v 0.00500470 0.02824566 0.00589989
v 0.00408689 0.02794980 0.00670820
v 0.00429807 0.02815379 0.00648187
v 0.00346635 0.02797441 0.00703846
v 0.00326492 0.02777590 0.00722552
v 0.00283444 0.02797441 0.00731790
v 0.00182078 0.02756700 0.00778441
v 0.00219765 0.02795746 0.00753499
v 0.00159498 0.02794926 0.00769434
v 0.00152350 0.02861534 0.00733176
v 0.00094195 0.02858581 0.00744723
v 0.00031329 0.02858581 0.00750266
v -0.00182124 0.02756700 0.00778441
v -0.00159382 0.02794926 0.00769665
v -0.00219649 0.02795746 0.00753730
v -0.00031213 0.02858581 0.00750266
v -0.00094079 0.02858581 0.00744723
v -0.00152234 0.02861534 0.00733176
v -0.00219649 0.02734661 0.00773360
v -0.00282516 0.02732966 0.00752806
v -0.00377546 0.02704146 0.00717702
v 0.00538807 0.02968337 0.00313314
v 0.00563174 0.02951767 0.00337102
v 0.00551316 0.02945150 0.00371744
v 0.00535234 0.02923822 0.00436409
v 0.00516877 0.02900580 0.00497379
v 0.00502420 0.02890081 0.00528788
v 0.00551478 0.02863886 0.00503384
v 0.00518015 0.02858581 0.00543337
v 0.00470905 0.03003665 -0.00005161
v 0.00570159 0.02989993 -0.01548348
v 0.00533772 0.02998634 -0.01548348
v 0.00470905 0.03003501 0.00057656
v 0.00470905 0.03003063 0.00120474
v 0.00470905 0.03001532 0.00183291
v 0.00470905 0.02997978 0.00246109
v 0.00470905 0.02990978 0.00308926
v 0.00470905 0.02978564 0.00371744
v -0.00453570 0.02732966 0.00663892
v -0.00484922 0.02732966 0.00641259
v -0.00523747 0.02732966 0.00609850
v -0.00555099 0.02732966 0.00582136
v -0.00585313 0.02732966 0.00550728
v -0.00620889 0.02670240 0.00520935
v -0.00646393 0.02670240 0.00489527
v -0.00825570 0.02516352 -0.01548348
v -0.00811275 0.02670240 -0.00005161
v -0.00794705 0.02732966 0.00120474
v -0.00801690 0.02732966 0.00057656
v -0.00677745 0.02670240 0.00445185
v -0.00697238 0.02670240 0.00413776
v -0.00719493 0.02670240 0.00371744
v -0.00758155 0.02670240 0.00288603
v -0.00772450 0.02670240 0.00246109
v -0.00744185 0.02670240 0.00320012
v -0.00782684 0.02732966 0.00183291
v 0.00476104 0.02863120 0.00576132
v 0.00458722 0.02845183 0.00606386
v 0.00388058 0.02836214 0.00661120
v 0.00305049 0.02819425 0.00713314
v 0.00263300 0.02834300 0.00721859
v 0.00219765 0.02844034 0.00728557
v 0.00170219 0.02884393 0.00712621
v 0.00128308 0.02890682 0.00717702
v 0.00094195 0.02892815 0.00719781
v 0.00031329 0.02895823 0.00722552
v -0.00219649 0.02844089 0.00728557
v -0.00263185 0.02834300 0.00721859
v -0.00283490 0.02797441 0.00731790
v -0.00031213 0.02895823 0.00722552
v -0.00094079 0.02892815 0.00719781
v -0.00128355 0.02890682 0.00717702
v -0.00170103 0.02884393 0.00712621
v -0.00326376 0.02777590 0.00722552
v -0.00368287 0.02745981 0.00713083
v -0.00346519 0.02728208 0.00726478
v -0.00402400 0.02728208 0.00697148
v 0.00519964 0.02960736 0.00371744
v 0.00506968 0.02954994 0.00408695
v 0.00488449 0.02945861 0.00450497
v 0.00468956 0.02931478 0.00494838
v 0.00470905 0.02899979 0.00542183
v 0.00435492 0.02887073 0.00588372
v 0.00408202 0.03004540 0.00120474
v 0.00507293 0.03001040 -0.01548348
v 0.00470905 0.03003884 -0.01548348
v 0.00408202 0.03004321 0.00183291
v 0.00408202 0.03003556 0.00246109
v 0.00408202 0.03000712 0.00308926
v 0.00408202 0.02993657 0.00371744
v 0.00408202 0.02980150 0.00434561
v 0.00468956 0.02961775 0.00431559
v -0.00445448 0.02773543 0.00658349
v -0.00513513 0.02782731 0.00601074
v -0.00576054 0.02784918 0.00540566
v -0.00616665 0.02732966 0.00515624
v -0.00642169 0.02732966 0.00484215
v -0.00827682 0.02544625 -0.01548348
v -0.00812574 0.02670240 -0.00067979
v -0.00805102 0.02732966 -0.00005161
v -0.00763678 0.02797387 0.00180751
v -0.00775699 0.02795746 0.00120474
v -0.00782684 0.02795746 0.00057656
v -0.00694639 0.02719786 0.00409619
v -0.00708447 0.02737614 0.00377287
v -0.00756206 0.02714864 0.00283753
v -0.00763678 0.02734661 0.00249573
v -0.00758642 0.02777481 0.00230866
v 0.00411775 0.02861643 0.00625093
v 0.00340624 0.02857706 0.00669434
v 0.00358493 0.02878104 0.00644030
v 0.00283444 0.02856558 0.00696686
v 0.00219765 0.02875425 0.00705462
v 0.00219765 0.02908401 0.00674053
v 0.00152350 0.02910643 0.00689296
v 0.00094195 0.02922072 0.00685601
v 0.00031816 0.02932025 0.00679827
v 0.00011185 0.02953299 0.00655116
v -0.00219649 0.02875479 0.00705462
v -0.00283490 0.02856558 0.00696686
v -0.00305095 0.02819480 0.00713314
v -0.00011070 0.02953299 0.00655116
v -0.00031700 0.02932025 0.00679827
v -0.00094079 0.02922127 0.00685601
v -0.00156945 0.02946736 0.00644723
v -0.00152234 0.02910643 0.00689296
v -0.00219649 0.02908401 0.00674053
v -0.00346519 0.02797441 0.00703846
v -0.00408573 0.02794980 0.00670820
v 0.00446539 0.02955759 0.00472437
v 0.00422334 0.02945041 0.00514238
v 0.00407877 0.02922127 0.00559965
v 0.00393581 0.02899159 0.00602229
v 0.00345335 0.03004540 0.00246109
v 0.00444589 0.03004212 -0.01548348
v 0.00408202 0.03004540 -0.01548348
v 0.00345335 0.03003993 0.00308926
v 0.00345335 0.03001095 0.00371744
v 0.00345335 0.02992946 0.00434561
v 0.00345335 0.02976431 0.00497379
v 0.00404140 0.02961119 0.00494838
v -0.00429853 0.02815433 0.00648187
v -0.00473064 0.02799082 0.00624631
v -0.00500517 0.02824621 0.00589989
v -0.00539179 0.02804769 0.00565277
v -0.00564845 0.02826808 0.00528326
v -0.00600258 0.02803238 0.00501767
v -0.00635022 0.02779668 0.00474977
v -0.00676608 0.02737614 0.00432021
v -0.00829631 0.02575085 -0.01548348
v -0.00806077 0.02732966 -0.00067979
v -0.00827357 0.02670240 -0.01548348
v -0.00829793 0.02607405 -0.01548348
v -0.00786096 0.02795746 -0.00005161
v -0.00754906 0.02829488 0.00158118
v -0.00750033 0.02819371 0.00200150
v -0.00757993 0.02834464 0.00120474
v -0.00761566 0.02840042 0.00057656
v -0.00690091 0.02761621 0.00401998
v -0.00742723 0.02734661 0.00306386
v -0.00751820 0.02756700 0.00272899
v -0.00743860 0.02797387 0.00249573
v 0.00316745 0.02891338 0.00655578
v 0.00282631 0.02898065 0.00662968
v 0.00219765 0.02939791 0.00635023
v 0.00156899 0.02946681 0.00644723
v 0.00094195 0.02950673 0.00650728
v 0.00053096 0.02952259 0.00653499
v 0.00031816 0.02965494 0.00628557
v -0.00282516 0.02898065 0.00662968
v -0.00316629 0.02891393 0.00655578
v -0.00340671 0.02857706 0.00669434
v -0.00387942 0.02836214 0.00661120
v -0.00031700 0.02965494 0.00628557
v -0.00052980 0.02952259 0.00653499
v -0.00094079 0.02950673 0.00650728
v -0.00219649 0.02939791 0.00635023
v -0.00156945 0.02964236 0.00613314
v -0.00219649 0.02959587 0.00603615
v 0.00380423 0.02954228 0.00531328
v 0.00345335 0.02941760 0.00573591
v 0.00340624 0.02907088 0.00623014
v 0.00282631 0.03004540 0.00308926
v -0.00408086 0.03004540 -0.01548348
v 0.00219765 0.03004540 0.00371744
v 0.00282631 0.03003884 0.00371744
v 0.00219765 0.03003063 0.00434561
v 0.00282631 0.03000056 0.00434561
v 0.00282631 0.02988626 0.00497379
v 0.00282307 0.02965329 0.00563199
v 0.00345335 0.02959259 0.00542183
v -0.00458606 0.02845237 0.00606386
v -0.00476150 0.02863120 0.00576363
v -0.00502466 0.02890081 0.00528788
v -0.00517899 0.02858581 0.00543337
v -0.00551362 0.02863886 0.00503384
v -0.00563383 0.02888385 0.00463892
v -0.00582714 0.02846495 0.00486524
v -0.00624625 0.02821558 0.00461351
v -0.00650454 0.02798699 0.00438026
v -0.00787070 0.02795746 -0.00067979
v -0.00798766 0.02797223 -0.01548348
v -0.00812737 0.02746364 -0.01548348
v -0.00821184 0.02713661 -0.01548348
v -0.00823945 0.02694357 -0.01548348
v -0.00763353 0.02842558 -0.00005161
v -0.00732001 0.02853714 0.00180751
v -0.00735900 0.02865854 0.00120474
v -0.00699188 0.02839331 0.00308926
v -0.00708447 0.02860659 0.00243568
v -0.00739799 0.02871487 0.00057656
v -0.00682131 0.02795746 0.00388603
v -0.00699837 0.02795746 0.00357194
v -0.00721767 0.02795746 0.00308926
v -0.00692040 0.02829378 0.00343107
v 0.00303100 0.02949798 0.00586063
v 0.00282307 0.02932353 0.00619088
v 0.00261189 0.02955212 0.00595531
v 0.00219765 0.02959587 0.00603615
v 0.00156899 0.02964236 0.00613314
v 0.00094195 0.02966751 0.00619319
v 0.00094195 0.02989720 0.00560196
v 0.00031329 0.02992017 0.00560196
v -0.00282191 0.02932353 0.00619088
v -0.00358540 0.02878104 0.00644030
v -0.00302984 0.02949798 0.00586063
v -0.00340671 0.02907143 0.00623014
v -0.00393466 0.02899213 0.00602229
v -0.00411659 0.02861643 0.00625093
v -0.00031213 0.02992017 0.00560196
v -0.00094079 0.02989720 0.00560196
v -0.00094079 0.02966751 0.00619319
v -0.00261073 0.02955212 0.00595531
v -0.00156945 0.02985509 0.00560196
v -0.00219649 0.02978126 0.00560196
v -0.00282191 0.02965329 0.00563199
v -0.00470952 0.03003884 -0.01548348
v -0.00408086 0.03004540 0.00120474
v 0.00031329 0.03004540 0.00434561
v 0.00094195 0.03004485 0.00434561
v 0.00156899 0.03003993 0.00434561
v 0.00094195 0.03001532 0.00497379
v 0.00156899 0.02999454 0.00497379
v 0.00219765 0.02995735 0.00497379
v 0.00156899 0.02985509 0.00560196
v 0.00219765 0.02978126 0.00560196
v -0.00435376 0.02887073 0.00588372
v -0.00470952 0.02899979 0.00542183
v -0.00468840 0.02931533 0.00494838
v -0.00516762 0.02900580 0.00497379
v -0.00535118 0.02923822 0.00436409
v -0.00579141 0.02901783 0.00422090
v -0.00620889 0.02882260 0.00392067
v -0.00601883 0.02864378 0.00441721
v -0.00638108 0.02840370 0.00419319
v -0.00763841 0.02843269 -0.00067979
v -0.00788857 0.02817019 -0.01548348
v -0.00741423 0.02874003 -0.00005161
v -0.00697888 0.02897299 0.00183291
v -0.00693015 0.02892377 0.00220936
v -0.00704386 0.02903698 0.00120474
v -0.00674983 0.02870722 0.00308926
v -0.00684892 0.02883026 0.00262968
v -0.00708284 0.02907416 0.00057656
v -0.00656789 0.02855792 0.00367587
v -0.00633722 0.02895276 0.00350035
v 0.00031329 0.03002407 0.00497379
v -0.00345219 0.02959314 0.00542183
v -0.00380470 0.02954228 0.00531328
v -0.00345219 0.02941760 0.00573591
v -0.00407923 0.02922127 0.00559965
v -0.00031213 0.03002407 0.00497379
v -0.00094079 0.03001532 0.00497379
v -0.00156945 0.02999454 0.00497379
v -0.00219649 0.02995735 0.00497379
v -0.00282516 0.02988626 0.00497379
v -0.00345219 0.02976431 0.00497379
v -0.00533656 0.02998634 -0.01548348
v -0.00470952 0.03003665 -0.00005161
v -0.00470952 0.03003501 0.00057656
v -0.00408086 0.03004321 0.00183291
v -0.00345219 0.03004540 0.00246109
v -0.00031213 0.03004540 0.00434561
v -0.00422218 0.02945041 0.00514238
v -0.00446585 0.02955759 0.00472437
v -0.00488334 0.02945861 0.00450728
v -0.00506852 0.02954994 0.00408695
v -0.00551362 0.02945150 0.00371744
v -0.00598634 0.02912229 0.00371282
v -0.00741911 0.02874714 -0.00067979
v -0.00767415 0.02853003 -0.01548348
v -0.00710071 0.02908893 -0.00005161
v -0.00666698 0.02935088 0.00120474
v -0.00654678 0.02932572 0.00183984
v -0.00643631 0.02904135 0.00308926
v -0.00661988 0.02911190 0.00243568
v -0.00624950 0.02951166 0.00205231
v -0.00671084 0.02938806 0.00057656
v -0.00673034 0.02940283 -0.00005161
v -0.00595872 0.02938369 0.00313314
v -0.00404025 0.02961119 0.00494838
v -0.00094079 0.03004485 0.00434561
v -0.00156945 0.03003993 0.00434561
v -0.00219649 0.03003063 0.00434561
v -0.00282516 0.03000056 0.00434561
v -0.00345219 0.02992946 0.00434561
v -0.00408086 0.02980150 0.00434561
v -0.00596522 0.02983103 -0.01548348
v -0.00533656 0.02997759 -0.00067979
v -0.00470952 0.03003063 0.00120474
v -0.00533656 0.02997595 -0.00005161
v -0.00408086 0.03003556 0.00246109
v -0.00345219 0.03003993 0.00308926
v -0.00282516 0.03004540 0.00308926
v -0.00219649 0.03004540 0.00371744
v -0.00468840 0.02961830 0.00431559
v -0.00470952 0.02978564 0.00371744
v -0.00520010 0.02960790 0.00371744
v -0.00563058 0.02951767 0.00337102
v -0.00710396 0.02909330 -0.00067979
v -0.00745972 0.02880401 -0.01548348
v -0.00673521 0.02940721 -0.00067979
v -0.00630636 0.02954556 0.00163430
v -0.00635184 0.02957345 0.00120474
v -0.00617153 0.02946025 0.00246109
v -0.00601071 0.02965767 0.00183984
v -0.00585801 0.02963142 0.00246109
v -0.00639733 0.02959861 0.00057656
v -0.00641519 0.02960790 -0.00005161
v -0.00574592 0.02957892 0.00295300
v -0.00282516 0.03003884 0.00371744
v -0.00345219 0.03001149 0.00371744
v -0.00408086 0.02993657 0.00371744
v -0.00645743 0.02962486 -0.01548348
v -0.00596522 0.02980970 -0.00067979
v -0.00533656 0.02996993 0.00057656
v -0.00470952 0.03001532 0.00183291
v -0.00596522 0.02980587 -0.00005161
v -0.00408086 0.03000712 0.00308926
v -0.00470952 0.02990978 0.00308926
v -0.00533656 0.02983431 0.00246109
v -0.00538692 0.02968337 0.00313314
v -0.00718518 0.02909658 -0.01548348
v -0.00737037 0.02889971 -0.01548348
v -0.00642169 0.02961064 -0.00067979
v -0.00677095 0.02943619 -0.01548348
v -0.00596522 0.02975283 0.00120474
v -0.00596522 0.02979220 0.00057656
v -0.00663937 0.02952041 -0.01548348
v -0.00533656 0.02995134 0.00120474
v -0.00470952 0.02997978 0.00246109
v -0.00533656 0.02990759 0.00183291
f 1 2 5
f 1 5 10
f 1 10 18
f 1 18 28
f 1 28 47
f 1 47 73
f 1 73 77
f 1 77 111
f 1 111 147
f 1 147 197
f 1 197 252
f 1 252 306
f 1 306 358
f 1 358 410
f 1 410 413
f 1 413 412
f 1 412 465
f 1 465 464
f 1 464 463
f 1 463 462
f 1 462 517
f 1 517 551
f 1 551 581
f 1 581 604
f 1 604 603
f 1 603 606
f 1 606 609
f 1 609 594
f 1 594 568
f 1 568 538
f 1 538 497
f 1 497 444
f 1 444 396
f 1 396 395
f 1 395 346
f 1 346 345
f 1 345 292
f 1 292 291
f 1 291 238
f 1 238 237
f 1 237 188
f 1 188 136
f 1 136 102
f 1 102 101
f 1 101 69
f 1 69 66
f 1 66 42
f 1 42 23
f 1 23 14
f 1 14 6
f 1 6 3
f 1 3 4
f 1 4 2
f 2 4 5
f 3 6 4
f 4 7 8
f 4 8 9
f 4 9 5
f 4 6 7
f 5 9 11
f 5 11 12
f 5 12 13
f 5 13 10
f 6 14 7
f 7 15 16
f 7 16 8
f 7 14 15
f 8 16 17
f 8 17 9
f 9 17 11
f 10 13 19
f 10 19 18
f 11 17 20
f 11 20 21
f 11 21 13
f 11 13 12
f 13 21 22
f 13 22 19
f 14 23 15
f 15 24 25
f 15 25 16
f 15 23 24
f 16 25 26
f 16 26 27
f 16 27 17
f 17 27 38
f 17 38 20
f 18 19 29
f 18 29 30
f 18 30 31
f 18 31 32
f 18 32 33
f 18 33 34
f 18 34 35
f 18 35 28
f 19 22 36
f 19 36 37
f 19 37 29
f 20 38 39
f 20 39 40
f 20 40 21
f 21 40 22
f 22 41 37
f 22 37 36
f 22 40 41
f 23 42 24
f 24 43 44
f 24 44 25
f 24 42 43
f 25 44 45
f 25 45 26
f 26 45 46
f 26 46 27
f 27 46 38
f 28 35 48
f 28 48 47
f 29 37 49
f 29 49 50
f 29 50 30
f 30 50 51
f 30 51 31
f 31 51 32
f 32 51 33
f 33 51 52
f 33 52 53
f 33 53 34
f 34 53 54
f 34 54 55
f 34 55 35
f 35 55 56
f 35 56 74
f 35 74 48
f 37 57 49
f 37 41 57
f 38 46 58
f 38 58 59
f 38 59 39
f 39 60 61
f 39 61 62
f 39 62 40
f 39 59 60
f 40 62 41
f 41 62 63
f 41 63 64
f 41 64 65
f 41 65 57
f 42 66 43
f 43 67 68
f 43 68 44
f 43 66 69
f 43 69 67
f 44 68 70
f 44 70 45
f 45 70 71
f 45 71 72
f 45 72 46
f 46 72 58
f 47 48 73
f 48 74 75
f 48 75 76
f 48 76 77
f 48 77 73
f 49 57 78
f 49 78 50
f 50 78 79
f 50 79 51
f 51 80 52
f 51 79 80
f 52 80 81
f 52 81 82
f 52 82 53
f 53 82 83
f 53 83 84
f 53 84 54
f 54 84 85
f 54 85 86
f 54 86 55
f 55 86 56
f 56 86 87
f 56 87 88
f 56 88 74
f 57 65 89
f 57 89 90
f 57 90 91
f 57 91 78
f 58 92 93
f 58 93 59
f 58 72 92
f 59 93 60
f 60 93 94
f 60 94 95
f 60 95 61
f 61 95 96
f 61 96 62
f 62 96 63
f 63 96 64
f 64 96 97
f 64 97 65
f 65 98 99
f 65 99 89
f 65 97 98
f 67 100 103
f 67 103 68
f 67 69 101
f 67 101 102
f 67 102 100
f 68 103 70
f 70 104 71
f 70 103 104
f 71 104 105
f 71 105 106
f 71 106 72
f 72 106 92
f 74 107 75
f 74 88 107
f 75 107 108
f 75 108 76
f 76 108 109
f 76 109 110
f 76 110 77
f 77 110 112
f 77 112 111
f 78 91 113
f 78 113 79
f 79 113 114
f 79 114 115
f 79 115 80
f 80 116 81
f 80 115 116
f 81 117 118
f 81 118 119
f 81 119 83
f 81 83 82
f 81 116 117
f 83 120 84
f 83 119 120
f 84 120 85
f 85 120 121
f 85 121 86
f 86 121 87
f 87 121 122
f 87 122 88
f 88 122 123
f 88 123 169
f 88 169 124
f 88 124 107
f 89 99 90
f 90 99 125
f 90 125 91
f 91 125 152
f 91 152 113
f 92 106 126
f 92 126 127
f 92 127 93
f 93 127 128
f 93 128 94
f 94 128 129
f 94 129 130
f 94 130 95
f 95 97 96
f 95 130 131
f 95 131 132
f 95 132 97
f 97 132 98
f 98 132 99
f 99 132 133
f 99 133 125
f 100 134 135
f 100 135 103
f 100 102 136
f 100 136 134
f 103 135 137
f 103 137 104
f 104 137 138
f 104 138 105
f 105 138 139
f 105 139 140
f 105 140 106
f 106 140 126
f 107 124 141
f 107 141 108
f 108 141 142
f 108 142 109
f 109 142 143
f 109 143 144
f 109 144 145
f 109 145 110
f 110 145 146
f 110 146 112
f 111 112 148
f 111 148 149
f 111 149 150
f 111 150 151
f 111 151 147
f 112 146 148
f 113 152 153
f 113 153 114
f 114 153 115
f 115 154 155
f 115 155 116
f 115 153 154
f 116 155 117
f 117 156 157
f 117 157 118
f 117 155 156
f 118 157 158
f 118 158 159
f 118 159 119
f 119 159 160
f 119 160 161
f 119 161 162
f 119 162 120
f 120 163 164
f 120 164 165
f 120 165 121
f 120 162 163
f 121 165 166
f 121 166 122
f 122 166 167
f 122 167 168
f 122 168 170
f 122 170 123
f 123 170 171
f 123 171 169
f 124 169 172
f 124 172 173
f 124 173 141
f 125 133 174
f 125 174 152
f 126 140 175
f 126 175 176
f 126 176 177
f 126 177 178
f 126 178 127
f 127 178 128
f 128 179 129
f 128 178 179
f 129 180 181
f 129 181 182
f 129 182 183
f 129 183 184
f 129 184 131
f 129 131 130
f 129 179 180
f 131 184 132
f 132 184 185
f 132 185 174
f 132 174 133
f 134 186 187
f 134 187 135
f 134 136 188
f 134 188 186
f 135 187 189
f 135 189 137
f 137 189 190
f 137 190 138
f 138 190 139
f 139 190 191
f 139 191 175
f 139 175 140
f 141 173 142
f 142 173 143
f 143 173 192
f 143 192 193
f 143 193 144
f 144 193 145
f 145 194 146
f 145 193 194
f 146 194 195
f 146 195 196
f 146 196 149
f 146 149 148
f 147 151 198
f 147 198 197
f 149 196 150
f 150 196 199
f 150 199 200
f 150 200 151
f 151 200 201
f 151 201 198
f 152 202 153
f 152 174 202
f 153 202 154
f 154 203 155
f 154 202 203
f 155 203 156
f 156 204 157
f 156 203 204
f 157 204 205
f 157 205 158
f 158 160 159
f 158 205 206
f 158 206 207
f 158 207 208
f 158 208 162
f 158 162 161
f 158 161 160
f 162 208 163
f 163 209 210
f 163 210 164
f 163 208 209
f 164 210 165
f 165 211 166
f 165 210 211
f 166 211 212
f 166 212 167
f 167 212 213
f 167 213 214
f 167 214 168
f 168 214 217
f 168 217 170
f 169 215 172
f 169 171 216
f 169 216 215
f 170 217 171
f 171 217 218
f 171 218 216
f 172 215 219
f 172 219 220
f 172 220 173
f 173 220 221
f 173 221 222
f 173 222 192
f 174 223 202
f 174 185 183
f 174 183 223
f 175 191 224
f 175 224 225
f 175 225 226
f 175 226 176
f 176 226 177
f 177 227 180
f 177 180 178
f 177 226 227
f 178 180 179
f 180 227 228
f 180 228 229
f 180 229 230
f 180 230 181
f 181 230 182
f 182 230 231
f 182 231 183
f 183 185 184
f 183 231 232
f 183 232 233
f 183 233 234
f 183 234 223
f 186 235 236
f 186 236 187
f 186 188 237
f 186 237 238
f 186 238 235
f 187 236 239
f 187 239 189
f 189 239 240
f 189 240 190
f 190 240 241
f 190 241 242
f 190 242 191
f 191 242 224
f 192 243 244
f 192 244 193
f 192 222 245
f 192 245 246
f 192 246 243
f 193 244 247
f 193 247 248
f 193 248 194
f 194 248 249
f 194 249 195
f 195 250 251
f 195 251 196
f 195 249 250
f 196 251 199
f 197 198 252
f 198 201 253
f 198 253 254
f 198 254 255
f 198 255 252
f 199 256 200
f 199 251 256
f 200 256 257
f 200 257 201
f 201 257 258
f 201 258 253
f 202 223 234
f 202 234 259
f 202 259 203
f 203 260 204
f 203 259 261
f 203 261 260
f 204 262 206
f 204 206 205
f 204 260 263
f 204 263 262
f 206 262 264
f 206 264 265
f 206 265 208
f 206 208 207
f 208 265 266
f 208 266 209
f 209 267 210
f 209 266 268
f 209 268 267
f 210 267 211
f 211 267 212
f 212 267 268
f 212 268 269
f 212 269 213
f 213 269 270
f 213 270 271
f 213 271 214
f 214 271 272
f 214 272 276
f 214 276 217
f 215 216 273
f 215 273 219
f 216 218 274
f 216 274 275
f 216 275 273
f 217 276 277
f 217 277 218
f 218 277 278
f 218 278 274
f 219 273 279
f 219 279 221
f 219 221 220
f 221 279 280
f 221 280 222
f 222 280 281
f 222 281 245
f 224 242 225
f 225 242 282
f 225 282 283
f 225 283 227
f 225 227 226
f 227 283 228
f 228 283 284
f 228 284 229
f 229 284 285
f 229 285 232
f 229 232 230
f 230 232 231
f 232 285 286
f 232 286 287
f 232 287 288
f 232 288 234
f 232 234 233
f 234 288 287
f 234 287 289
f 234 289 261
f 234 261 259
f 235 290 293
f 235 293 236
f 235 238 291
f 235 291 292
f 235 292 290
f 236 293 294
f 236 294 239
f 239 294 295
f 239 295 240
f 240 295 296
f 240 296 241
f 241 296 297
f 241 297 242
f 242 297 298
f 242 298 282
f 243 246 281
f 243 281 244
f 244 281 299
f 244 299 247
f 245 281 246
f 247 299 300
f 247 300 301
f 247 301 248
f 248 301 249
f 249 301 302
f 249 302 303
f 249 303 250
f 250 303 304
f 250 304 251
f 251 304 305
f 251 305 256
f 252 255 254
f 252 254 307
f 252 307 306
f 253 258 308
f 253 308 254
f 254 308 309
f 254 309 307
f 256 305 310
f 256 310 311
f 256 311 312
f 256 312 257
f 257 313 314
f 257 314 258
f 257 312 315
f 257 315 313
f 258 314 316
f 258 316 308
f 260 261 263
f 261 289 287
f 261 287 317
f 261 317 318
f 261 318 263
f 262 263 319
f 262 319 264
f 263 318 319
f 264 320 265
f 264 319 320
f 265 320 266
f 266 320 321
f 266 321 268
f 268 321 322
f 268 322 269
f 269 322 270
f 270 322 323
f 270 323 324
f 270 324 271
f 271 324 325
f 271 325 272
f 272 325 326
f 272 326 330
f 272 330 276
f 273 275 279
f 274 278 327
f 274 327 275
f 275 327 328
f 275 328 329
f 275 329 279
f 276 330 331
f 276 331 277
f 277 331 332
f 277 332 278
f 278 332 333
f 278 333 327
f 279 329 280
f 280 329 334
f 280 334 335
f 280 335 336
f 280 336 281
f 281 335 337
f 281 337 299
f 281 336 335
f 282 298 338
f 282 338 283
f 283 338 339
f 283 339 284
f 284 339 285
f 285 340 286
f 285 339 340
f 286 341 287
f 286 340 341
f 287 342 343
f 287 343 317
f 287 341 342
f 290 344 293
f 290 292 345
f 290 345 346
f 290 346 344
f 293 344 347
f 293 347 294
f 294 347 348
f 294 348 295
f 295 348 349
f 295 349 296
f 296 349 297
f 297 349 350
f 297 350 298
f 298 350 351
f 298 351 352
f 298 352 339
f 298 339 338
f 299 353 300
f 299 337 353
f 300 353 354
f 300 354 301
f 301 354 302
f 302 354 355
f 302 355 303
f 303 355 356
f 303 356 304
f 304 356 357
f 304 357 305
f 305 357 310
f 306 307 359
f 306 359 358
f 307 309 360
f 307 360 359
f 308 316 361
f 308 361 362
f 308 362 363
f 308 363 309
f 309 363 414
f 309 414 360
f 310 357 364
f 310 364 311
f 311 364 312
f 312 364 365
f 312 365 366
f 312 366 315
f 313 315 366
f 313 366 314
f 314 366 367
f 314 367 316
f 316 367 368
f 316 368 361
f 317 343 318
f 318 343 369
f 318 369 319
f 319 370 320
f 319 369 371
f 319 371 370
f 320 370 372
f 320 372 321
f 321 372 373
f 321 373 322
f 322 373 323
f 323 373 374
f 323 374 324
f 324 374 375
f 324 375 376
f 324 376 325
f 325 376 326
f 326 376 377
f 326 377 378
f 326 378 382
f 326 382 330
f 327 333 379
f 327 379 328
f 328 379 380
f 328 380 381
f 328 381 329
f 329 381 334
f 330 382 383
f 330 383 384
f 330 384 331
f 331 384 332
f 332 384 385
f 332 385 386
f 332 386 387
f 332 387 333
f 333 387 379
f 334 381 388
f 334 388 335
f 335 388 389
f 335 389 353
f 335 353 337
f 339 352 390
f 339 390 340
f 340 390 341
f 341 391 342
f 341 390 391
f 342 391 392
f 342 392 343
f 343 393 371
f 343 371 369
f 343 392 393
f 344 394 347
f 344 346 395
f 344 395 396
f 344 396 444
f 344 444 498
f 344 498 542
f 344 542 574
f 344 574 575
f 344 575 543
f 344 543 499
f 344 499 445
f 344 445 443
f 344 443 394
f 347 394 397
f 347 397 348
f 348 397 349
f 349 397 398
f 349 398 350
f 350 398 399
f 350 399 351
f 351 399 400
f 351 400 401
f 351 401 390
f 351 390 352
f 353 389 402
f 353 402 403
f 353 403 354
f 354 404 405
f 354 405 355
f 354 403 404
f 355 405 406
f 355 406 407
f 355 407 408
f 355 408 356
f 356 408 357
f 357 408 409
f 357 409 364
f 358 359 410
f 359 360 411
f 359 411 412
f 359 412 413
f 359 413 410
f 360 414 461
f 360 461 411
f 361 415 362
f 361 368 416
f 361 416 415
f 362 415 417
f 362 417 363
f 363 417 418
f 363 418 414
f 364 419 365
f 364 409 419
f 365 419 420
f 365 420 366
f 366 420 421
f 366 421 367
f 367 421 368
f 368 421 422
f 368 422 416
f 370 371 423
f 370 423 372
f 371 393 423
f 372 423 373
f 373 423 424
f 373 424 374
f 374 424 425
f 374 425 426
f 374 426 375
f 375 426 376
f 376 426 427
f 376 427 428
f 376 428 377
f 377 428 378
f 378 428 429
f 378 429 434
f 378 434 382
f 379 387 430
f 379 430 431
f 379 431 380
f 380 431 432
f 380 432 381
f 381 432 433
f 381 433 388
f 382 434 435
f 382 435 383
f 383 435 384
f 384 435 436
f 384 436 385
f 385 437 387
f 385 387 386
f 385 436 438
f 385 438 439
f 385 439 437
f 387 437 430
f 388 433 389
f 389 433 402
f 390 401 440
f 390 440 391
f 391 440 392
f 392 440 441
f 392 441 393
f 393 441 442
f 393 442 423
f 394 443 397
f 397 443 445
f 397 445 446
f 397 446 398
f 398 446 447
f 398 447 448
f 398 448 399
f 399 448 449
f 399 449 400
f 400 449 450
f 400 450 451
f 400 451 440
f 400 440 401
f 402 433 452
f 402 452 404
f 402 404 403
f 404 453 454
f 404 454 455
f 404 455 406
f 404 406 405
f 404 452 453
f 406 454 456
f 406 456 457
f 406 457 458
f 406 458 459
f 406 459 407
f 406 455 454
f 407 459 408
f 408 459 460
f 408 460 419
f 408 419 409
f 411 461 462
f 411 462 463
f 411 463 464
f 411 464 465
f 411 465 412
f 414 466 461
f 414 418 466
f 415 416 467
f 415 467 468
f 415 468 417
f 416 422 469
f 416 469 470
f 416 470 467
f 417 468 471
f 417 471 418
f 418 471 466
f 419 472 473
f 419 473 421
f 419 421 420
f 419 460 472
f 421 473 474
f 421 474 422
f 422 474 475
f 422 475 469
f 423 442 476
f 423 476 477
f 423 477 424
f 424 477 425
f 425 477 476
f 425 476 478
f 425 478 479
f 425 479 426
f 426 479 480
f 426 480 427
f 427 480 481
f 427 481 428
f 428 481 429
f 429 481 482
f 429 482 483
f 429 483 490
f 429 490 434
f 430 437 484
f 430 484 431
f 431 485 432
f 431 484 486
f 431 486 487
f 431 487 488
f 431 488 485
f 432 485 433
f 433 485 489
f 433 489 452
f 434 490 491
f 434 491 492
f 434 492 435
f 435 492 436
f 436 492 438
f 437 439 493
f 437 493 486
f 437 486 484
f 438 492 494
f 438 494 495
f 438 495 439
f 439 495 496
f 439 496 493
f 440 451 476
f 440 476 441
f 441 476 442
f 444 497 498
f 445 499 500
f 445 500 501
f 445 501 446
f 446 501 447
f 447 501 502
f 447 502 503
f 447 503 448
f 448 503 504
f 448 504 449
f 449 504 505
f 449 505 506
f 449 506 450
f 450 506 479
f 450 479 478
f 450 478 476
f 450 476 451
f 452 489 507
f 452 507 453
f 453 507 454
f 454 507 508
f 454 508 509
f 454 509 510
f 454 510 457
f 454 457 456
f 457 511 512
f 457 512 513
f 457 513 514
f 457 514 459
f 457 459 458
f 457 510 511
f 459 514 515
f 459 515 475
f 459 475 472
f 459 472 460
f 461 466 516
f 461 516 462
f 462 516 517
f 466 518 550
f 466 550 516
f 466 471 518
f 467 519 468
f 467 470 520
f 467 520 519
f 468 519 521
f 468 521 471
f 469 522 523
f 469 523 470
f 469 475 522
f 470 523 520
f 471 521 524
f 471 524 518
f 472 475 473
f 473 475 474
f 475 515 525
f 475 525 526
f 475 526 522
f 479 506 480
f 480 506 505
f 480 505 481
f 481 505 482
f 482 505 504
f 482 504 503
f 482 503 483
f 483 503 502
f 483 502 527
f 483 527 532
f 483 532 490
f 485 488 507
f 485 507 489
f 486 493 496
f 486 496 528
f 486 528 529
f 486 529 530
f 486 530 487
f 487 530 488
f 488 530 531
f 488 531 507
f 490 532 533
f 490 533 534
f 490 534 491
f 491 534 535
f 491 535 494
f 491 494 492
f 494 535 536
f 494 536 495
f 495 536 496
f 496 536 537
f 496 537 528
f 497 538 539
f 497 539 498
f 498 539 540
f 498 540 541
f 498 541 542
f 499 543 532
f 499 532 527
f 499 527 500
f 500 527 501
f 501 527 502
f 507 531 508
f 508 531 544
f 508 544 509
f 509 544 545
f 509 545 546
f 509 546 510
f 510 546 511
f 511 546 547
f 511 547 548
f 511 548 512
f 512 548 549
f 512 549 526
f 512 526 513
f 513 515 514
f 513 526 525
f 513 525 515
f 516 550 551
f 516 551 517
f 518 552 550
f 518 524 552
f 519 553 521
f 519 520 554
f 519 554 553
f 520 523 555
f 520 555 556
f 520 556 557
f 520 557 554
f 521 553 558
f 521 558 524
f 522 526 523
f 523 526 555
f 524 558 559
f 524 559 552
f 526 549 560
f 526 560 555
f 528 537 529
f 529 544 531
f 529 531 530
f 529 537 561
f 529 561 545
f 529 545 544
f 532 543 562
f 532 562 563
f 532 563 533
f 533 563 564
f 533 564 534
f 534 564 565
f 534 565 535
f 535 565 536
f 536 565 566
f 536 566 537
f 537 566 567
f 537 567 561
f 538 568 569
f 538 569 539
f 539 569 571
f 539 571 540
f 540 570 541
f 540 571 570
f 541 570 572
f 541 572 573
f 541 573 542
f 542 573 574
f 543 575 562
f 545 567 576
f 545 576 547
f 545 547 546
f 545 561 567
f 547 576 577
f 547 577 578
f 547 578 579
f 547 579 548
f 548 579 549
f 549 579 560
f 550 552 580
f 550 580 581
f 550 581 551
f 552 559 582
f 552 582 580
f 553 554 583
f 553 583 584
f 553 584 558
f 554 557 583
f 555 585 556
f 555 560 585
f 556 585 557
f 557 586 583
f 557 585 587
f 557 587 586
f 558 584 588
f 558 588 559
f 559 589 582
f 559 588 589
f 560 579 590
f 560 590 585
f 562 575 563
f 563 575 591
f 563 591 564
f 564 591 592
f 564 592 565
f 565 592 566
f 566 592 593
f 566 593 567
f 567 593 577
f 567 577 576
f 568 594 595
f 568 595 569
f 569 595 571
f 570 571 596
f 570 596 597
f 570 597 572
f 571 595 598
f 571 598 596
f 572 599 592
f 572 592 573
f 572 597 599
f 573 592 591
f 573 591 575
f 573 575 574
f 577 593 600
f 577 600 601
f 577 601 602
f 577 602 578
f 578 602 579
f 579 602 590
f 580 582 603
f 580 603 604
f 580 604 581
f 582 589 605
f 582 605 606
f 582 606 603
f 583 607 584
f 583 586 607
f 584 607 588
f 585 590 587
f 586 587 601
f 586 601 607
f 587 590 601
f 588 607 608
f 588 608 589
f 589 598 605
f 589 608 598
f 590 602 601
f 592 599 593
f 593 599 600
f 594 609 605
f 594 605 595
f 595 605 598
f 596 608 610
f 596 610 597
f 596 598 608
f 597 610 611
f 597 611 599
f 599 611 600
f 600 611 612
f 600 612 601
f 601 612 607
f 605 609 606
f 607 612 610
f 607 610 608
f 610 612 611

