# https://github.com/mikedh/trimesh
v -0.00000201 -0.00599950 -0.00500718
v -0.00849957 0.00049168 -0.00500718
v -0.00000201 -0.01000000 -0.00500718
v -0.00000201 -0.00599950 -0.01800000
v -0.01250000 0.00049168 -0.00500718
v -0.00849957 0.00049168 -0.01800000
v -0.00849957 -0.01000000 -0.00500718
v -0.00000201 -0.01000000 -0.01749891
v -0.00000201 -0.00949981 -0.01800000
v -0.01250000 -0.00599950 -0.00500718
v -0.01250000 0.00049168 -0.01749891
v -0.01199964 0.00049168 -0.01800000
v -0.00884823 -0.00998459 -0.00500718
v -0.00849957 -0.01000000 -0.01749891
v -0.00849957 -0.00949981 -0.01800000
v -0.01248410 -0.00634768 -0.00500718
v -0.01250000 -0.00599950 -0.01749891
v -0.01199964 -0.00599950 -0.01800000
v -0.00919322 -0.00993837 -0.00500718
v -0.00919444 -0.00993837 -0.01749891
v -0.00884823 -0.00998459 -0.01749891
v -0.00880419 -0.00948646 -0.01800000
v -0.01243883 -0.00669381 -0.00500718
v -0.01248410 -0.00634768 -0.01749891
v -0.01198618 -0.00630455 -0.01800000
v -0.00953454 -0.00986340 -0.00500718
v -0.00953454 -0.00986340 -0.01749891
v -0.00910758 -0.00944640 -0.01800000
v -0.01236298 -0.00703480 -0.00500718
v -0.01243883 -0.00669381 -0.01749891
v -0.01194581 -0.00660754 -0.01800000
v -0.00986730 -0.00975864 -0.00500718
v -0.00986730 -0.00975864 -0.01749891
v -0.00940486 -0.00938067 -0.01800000
v -0.01225777 -0.00736758 -0.00500718
v -0.01236298 -0.00703480 -0.01749891
v -0.01187975 -0.00690539 -0.01800000
v -0.01019027 -0.00962511 -0.00500718
v -0.01019027 -0.00962511 -0.01749891
v -0.00969603 -0.00928823 -0.01800000
v -0.01212442 -0.00769008 -0.00500718
v -0.01225777 -0.00736758 -0.01749891
v -0.01178800 -0.00719606 -0.01800000
v -0.01049978 -0.00946386 -0.00500718
v -0.01049978 -0.00946386 -0.01749891
v -0.01024899 -0.00903043 -0.01800000
v -0.00997863 -0.00917114 -0.01800000
v -0.01196294 -0.00799924 -0.00500718
v -0.01212442 -0.00769008 -0.01749891
v -0.01167178 -0.00747851 -0.01800000
v -0.01079339 -0.00927590 -0.00500718
v -0.01079339 -0.00927590 -0.01749891
v -0.01050712 -0.00886610 -0.01800000
v -0.01177576 -0.00829401 -0.00500718
v -0.01196294 -0.00799924 -0.01749891
v -0.01153109 -0.00774966 -0.01800000
v -0.01106988 -0.00906330 -0.00500718
v -0.01107110 -0.00906330 -0.01749891
v -0.01074935 -0.00868020 -0.01800000
v -0.01156290 -0.00857030 -0.00500718
v -0.01177576 -0.00829401 -0.01749891
v -0.01156412 -0.00857030 -0.01749891
v -0.01136593 -0.00800745 -0.01800000
v -0.01132801 -0.00882810 -0.00500718
v -0.01132801 -0.00882810 -0.01749891
v -0.01097445 -0.00847478 -0.01800000
v -0.01117998 -0.00824882 -0.01800000
f 1 2 5
f 1 5 10
f 1 10 16
f 1 16 23
f 1 23 29
f 1 29 35
f 1 35 41
f 1 41 48
f 1 48 54
f 1 54 60
f 1 60 64
f 1 64 57
f 1 57 51
f 1 51 44
f 1 44 38
f 1 38 32
f 1 32 26
f 1 26 19
f 1 19 13
f 1 13 7
f 1 7 3
f 1 3 8
f 1 8 9
f 1 9 4
f 1 4 6
f 1 6 2
f 2 6 12
f 2 12 11
f 2 11 5
f 3 7 14
f 3 14 8
f 4 9 15
f 4 15 22
f 4 22 28
f 4 28 34
f 4 34 40
f 4 40 47
f 4 47 46
f 4 46 53
f 4 53 59
f 4 59 66
f 4 66 67
f 4 67 63
f 4 63 56
f 4 56 50
f 4 50 43
f 4 43 37
f 4 37 31
f 4 31 25
f 4 25 18
f 4 18 12
f 4 12 6
f 5 11 17
f 5 17 10
f 7 13 21
f 7 21 14
f 8 14 15
f 8 15 9
f 10 17 24
f 10 24 16
f 11 12 18
f 11 18 17
f 13 19 20
f 13 20 21
f 14 21 22
f 14 22 15
f 16 24 30
f 16 30 23
f 17 18 25
f 17 25 24
f 19 26 20
f 20 27 28
f 20 28 21
f 20 26 27
f 21 28 22
f 23 30 36
f 23 36 29
f 24 25 30
f 25 31 30
f 26 32 33
f 26 33 27
f 27 33 34
f 27 34 28
f 29 36 42
f 29 42 35
f 30 31 37
f 30 37 36
f 32 38 39
f 32 39 33
f 33 39 40
f 33 40 34
f 35 42 49
f 35 49 41
f 36 37 43
f 36 43 42
f 38 44 45
f 38 45 39
f 39 45 46
f 39 46 47
f 39 47 40
f 41 49 55
f 41 55 48
f 42 43 50
f 42 50 49
f 44 51 52
f 44 52 45
f 45 52 53
f 45 53 46
f 48 55 61
f 48 61 54
f 49 50 56
f 49 56 55
f 51 57 58
f 51 58 52
f 52 58 53
f 53 58 59
f 54 61 62
f 54 62 60
f 55 56 61
f 56 63 61
f 57 64 58
f 58 65 66
f 58 66 59
f 58 64 65
f 60 62 64
f 61 63 62
f 62 63 67
f 62 67 66
f 62 66 65
f 62 65 64

