# https://github.com/mikedh/trimesh
v 0.00850030 0.01000000 -0.00500718
v 0.00849756 0.01000000 -0.00500718
v 0.00884859 0.00998435 -0.00500718
v 0.00884898 0.00998435 -0.01749891
v 0.00850030 0.01000000 -0.01749891
v 0.00849756 0.01000000 -0.01749763
v 0.00849756 0.00878260 -0.00500718
v 0.00919454 0.00993897 -0.00500718
v 0.00919493 0.00993897 -0.01749891
v 0.00910795 0.00944607 -0.01800000
v 0.00880511 0.00948519 -0.01800000
v 0.00850030 0.00949927 -0.01800000
v 0.00849756 0.00949927 -0.01800000
v 0.00849756 0.00599885 -0.00500972
v 0.00850030 -0.00598584 -0.00501099
v 0.00850030 0.00598946 -0.00500718
v 0.00953539 0.00986230 -0.00500718
v 0.00953539 0.00986230 -0.01749891
v 0.00940610 0.00938035 -0.01800000
v 0.00849756 0.00600041 -0.01800000
v 0.00850030 -0.00598584 -0.01800000
v 0.01250000 -0.00598584 -0.00500718
v 0.00986801 0.00975746 -0.00500718
v 0.00986840 0.00975746 -0.01749891
v 0.00969719 0.00928802 -0.01800000
v 0.01199970 -0.00598584 -0.01800000
v 0.01250000 -0.00598584 -0.01749891
v 0.01250000 0.00599885 -0.00500718
v 0.01019045 0.00962445 -0.00500718
v 0.01019084 0.00962445 -0.01749891
v 0.00997928 0.00917066 -0.01800000
v 0.01199970 0.00599885 -0.01800000
v 0.01250000 0.00599885 -0.01749891
v 0.01248472 0.00634779 -0.00500718
v 0.01049956 0.00946328 -0.00500718
v 0.01049995 0.00946328 -0.01749891
v 0.01025039 0.00902983 -0.01800000
v 0.01198637 0.00630398 -0.01800000
v 0.01248472 0.00634779 -0.01749891
v 0.01245142 0.00659972 -0.00500718
v 0.01079379 0.00927551 -0.00500718
v 0.01079418 0.00927551 -0.01749891
v 0.01050740 0.00886553 -0.01800000
v 0.01194680 0.00660755 -0.01800000
v 0.01243888 0.00669361 -0.01749891
v 0.01243888 0.00669361 -0.00500718
v 0.01107078 0.00906426 -0.00500718
v 0.01107078 0.00906269 -0.01749891
v 0.01074952 0.00868089 -0.01800000
v 0.01188059 0.00690486 -0.01800000
v 0.01236366 0.00703473 -0.01749891
v 0.01236327 0.00703473 -0.00500718
v 0.01132818 0.00882798 -0.00500718
v 0.01132818 0.00882798 -0.01749891
v 0.01097479 0.00847434 -0.01800000
v 0.01178892 0.00719591 -0.01800000
v 0.01225866 0.00736803 -0.01749891
v 0.01225866 0.00736803 -0.00500718
v 0.01156403 0.00856979 -0.00500718
v 0.01156403 0.00856979 -0.01749891
v 0.01118087 0.00824901 -0.01800000
v 0.01167177 0.00747913 -0.01800000
v 0.01212507 0.00769038 -0.01749891
v 0.01212507 0.00769038 -0.00500718
v 0.01177638 0.00829439 -0.00500718
v 0.01177638 0.00829282 -0.01749891
v 0.01136697 0.00800647 -0.01800000
v 0.01153073 0.00774984 -0.01800000
v 0.01196404 0.00799864 -0.01749891
v 0.01196365 0.00799864 -0.00500718
f 1 2 7
f 1 7 16
f 1 16 22
f 1 22 28
f 1 28 34
f 1 34 40
f 1 40 46
f 1 46 52
f 1 52 58
f 1 58 64
f 1 64 70
f 1 70 65
f 1 65 59
f 1 59 53
f 1 53 47
f 1 47 41
f 1 41 35
f 1 35 29
f 1 29 23
f 1 23 17
f 1 17 8
f 1 8 3
f 1 3 4
f 1 4 5
f 1 5 6
f 1 6 2
f 2 6 13
f 2 13 20
f 2 20 14
f 2 14 7
f 3 8 9
f 3 9 4
f 4 9 10
f 4 10 11
f 4 11 12
f 4 12 5
f 5 12 13
f 5 13 6
f 7 14 15
f 7 15 16
f 8 17 9
f 9 17 18
f 9 18 19
f 9 19 10
f 10 19 25
f 10 25 31
f 10 31 37
f 10 37 43
f 10 43 49
f 10 49 55
f 10 55 61
f 10 61 67
f 10 67 68
f 10 68 62
f 10 62 56
f 10 56 50
f 10 50 44
f 10 44 38
f 10 38 32
f 10 32 26
f 10 26 21
f 10 21 20
f 10 20 13
f 10 13 12
f 10 12 11
f 14 20 21
f 14 21 15
f 15 21 26
f 15 26 27
f 15 27 22
f 15 22 16
f 17 23 24
f 17 24 18
f 18 24 19
f 19 24 25
f 22 27 33
f 22 33 28
f 23 29 30
f 23 30 24
f 24 30 25
f 25 30 31
f 26 32 33
f 26 33 27
f 28 33 39
f 28 39 34
f 29 35 36
f 29 36 30
f 30 36 37
f 30 37 31
f 32 38 33
f 33 38 39
f 34 39 40
f 35 41 42
f 35 42 36
f 36 42 37
f 37 42 43
f 38 44 39
f 39 44 45
f 39 45 40
f 40 45 46
f 41 47 42
f 42 47 48
f 42 48 49
f 42 49 43
f 44 50 51
f 44 51 45
f 45 51 46
f 46 51 52
f 47 53 54
f 47 54 48
f 48 54 49
f 49 54 55
f 50 56 51
f 51 56 57
f 51 57 58
f 51 58 52
f 53 59 60
f 53 60 54
f 54 60 61
f 54 61 55
f 56 62 57
f 57 62 63
f 57 63 64
f 57 64 58
f 59 65 60
f 60 65 66
f 60 66 67
f 60 67 61
f 62 68 63
f 63 68 69
f 63 69 64
f 64 69 70
f 65 70 69
f 65 69 66
f 66 69 68
f 66 68 67

