# https://github.com/mikedh/trimesh
v -0.00000201 0.01000000 -0.00500718
v -0.00849957 0.01000000 -0.00500718
v -0.00000201 0.00599923 -0.00500718
v -0.00000201 0.01000000 -0.01749891
v -0.00884823 0.00998418 -0.00500718
v -0.00849957 0.01000000 -0.01749891
v -0.00849957 0.00049271 -0.00500718
v -0.00000201 0.00599923 -0.01800000
v -0.00000201 0.00949932 -0.01800000
v -0.00919444 0.00993858 -0.00500718
v -0.00884823 0.00998418 -0.01749891
v -0.00849957 0.00949932 -0.01800000
v -0.00880419 0.00948629 -0.01800000
v -0.01250000 0.00049271 -0.00500718
v -0.00849957 0.00049271 -0.01800000
v -0.00953454 0.00986320 -0.00500718
v -0.00919444 0.00993858 -0.01749891
v -0.00910758 0.00944628 -0.01800000
v -0.01250000 0.00599923 -0.00500718
v -0.01250000 0.00049271 -0.01749891
v -0.01199964 0.00049271 -0.01800000
v -0.00986730 0.00975804 -0.00500718
v -0.00953454 0.00986320 -0.01749891
v -0.00940486 0.00938020 -0.01800000
v -0.01248410 0.00634822 -0.00500718
v -0.01250000 0.00599923 -0.01749891
v -0.01199964 0.00599923 -0.01800000
v -0.01019027 0.00962496 -0.00500718
v -0.00986730 0.00975804 -0.01749891
v -0.00969603 0.00928807 -0.01800000
v -0.01243883 0.00669441 -0.00500718
v -0.01248410 0.00634822 -0.01749891
v -0.01198618 0.00630448 -0.01800000
v -0.01049978 0.00946396 -0.00500718
v -0.01019027 0.00962496 -0.01749891
v -0.00997863 0.00917174 -0.01800000
v -0.01236298 0.00703502 -0.00500718
v -0.01243883 0.00669441 -0.01749891
v -0.01194581 0.00660693 -0.01800000
v -0.01079339 0.00927597 -0.00500718
v -0.01049978 0.00946396 -0.01749891
v -0.01024899 0.00903029 -0.01800000
v -0.01225777 0.00736725 -0.00500718
v -0.01236298 0.00703502 -0.01749891
v -0.01187975 0.00690566 -0.01800000
v -0.01107110 0.00906379 -0.00500718
v -0.01079339 0.00927597 -0.01749891
v -0.01050712 0.00886649 -0.01800000
v -0.01212442 0.00769018 -0.00500718
v -0.01225777 0.00736725 -0.01749891
v -0.01178800 0.00719695 -0.01800000
v -0.01132801 0.00882741 -0.00500718
v -0.01107110 0.00906379 -0.01749891
v -0.01132801 0.00882834 -0.01749891
v -0.01074935 0.00868037 -0.01800000
v -0.01196416 0.00799915 -0.00500718
v -0.01212442 0.00769018 -0.01749891
v -0.01167178 0.00747893 -0.01800000
v -0.01156412 0.00857056 -0.00500718
v -0.01097445 0.00847470 -0.01800000
v -0.01156412 0.00857056 -0.01749891
v -0.01177576 0.00829323 -0.00500718
v -0.01177576 0.00829416 -0.01749891
v -0.01196294 0.00799915 -0.01749891
v -0.01153109 0.00774974 -0.01800000
v -0.01117998 0.00824949 -0.01800000
v -0.01136593 0.00800659 -0.01800000
f 1 2 5
f 1 5 10
f 1 10 16
f 1 16 22
f 1 22 28
f 1 28 34
f 1 34 40
f 1 40 46
f 1 46 52
f 1 52 59
f 1 59 62
f 1 62 56
f 1 56 49
f 1 49 43
f 1 43 37
f 1 37 31
f 1 31 25
f 1 25 19
f 1 19 14
f 1 14 7
f 1 7 3
f 1 3 8
f 1 8 9
f 1 9 4
f 1 4 6
f 1 6 2
f 2 6 11
f 2 11 5
f 3 7 15
f 3 15 8
f 4 9 12
f 4 12 6
f 5 11 17
f 5 17 10
f 6 12 13
f 6 13 11
f 7 14 20
f 7 20 21
f 7 21 15
f 8 15 21
f 8 21 27
f 8 27 33
f 8 33 39
f 8 39 45
f 8 45 51
f 8 51 58
f 8 58 65
f 8 65 67
f 8 67 66
f 8 66 60
f 8 60 55
f 8 55 48
f 8 48 42
f 8 42 36
f 8 36 30
f 8 30 24
f 8 24 18
f 8 18 13
f 8 13 12
f 8 12 9
f 10 17 23
f 10 23 16
f 11 13 17
f 13 18 17
f 14 19 26
f 14 26 20
f 16 23 29
f 16 29 22
f 17 18 23
f 18 24 23
f 19 25 32
f 19 32 26
f 20 26 27
f 20 27 21
f 22 29 35
f 22 35 28
f 23 24 29
f 24 30 29
f 25 31 38
f 25 38 32
f 26 32 33
f 26 33 27
f 28 35 41
f 28 41 34
f 29 30 36
f 29 36 35
f 31 37 44
f 31 44 38
f 32 38 33
f 33 38 39
f 34 41 47
f 34 47 40
f 35 36 41
f 36 42 41
f 37 43 50
f 37 50 44
f 38 44 45
f 38 45 39
f 40 47 53
f 40 53 46
f 41 42 48
f 41 48 47
f 43 49 57
f 43 57 50
f 44 50 51
f 44 51 45
f 46 53 54
f 46 54 52
f 47 48 53
f 48 55 53
f 49 56 57
f 50 57 58
f 50 58 51
f 52 54 59
f 53 55 60
f 53 60 54
f 54 60 61
f 54 61 59
f 56 62 63
f 56 63 64
f 56 64 57
f 57 64 65
f 57 65 58
f 59 61 63
f 59 63 62
f 60 66 61
f 61 66 63
f 63 66 67
f 63 67 65
f 63 65 64

