# https://github.com/mikedh/trimesh
v 0.00849756 0.00999961 -0.00500718
v -0.00000117 0.00999961 -0.00500718
v 0.00849756 0.00878269 -0.00500718
v 0.00849756 0.00999961 -0.01749763
v -0.00000117 0.00600000 -0.00500718
v -0.00000117 0.00999961 -0.01749891
v 0.00849173 0.00600000 -0.00500718
v 0.00849756 0.00600000 -0.00500972
v 0.00849756 0.00949961 -0.01800000
v -0.00000117 0.00600000 -0.01800000
v -0.00000117 0.00974980 -0.01774945
v 0.00849756 0.00600078 -0.01800000
v -0.00000117 0.00949961 -0.01800000
f 1 2 5
f 1 5 7
f 1 7 3
f 1 3 8
f 1 8 12
f 1 12 9
f 1 9 4
f 1 4 6
f 1 6 2
f 2 6 11
f 2 11 13
f 2 13 10
f 2 10 5
f 3 7 8
f 4 9 6
f 5 10 8
f 5 8 7
f 6 9 11
f 8 10 12
f 9 12 10
f 9 10 13
f 9 13 11

