# https://github.com/mikedh/trimesh
v 0.01249878 -0.00598584 -0.00500718
v 0.00849951 -0.00598584 -0.00501099
v 0.00849951 -0.00599016 -0.00500718
v 0.01249878 -0.00600037 -0.00500718
v 0.01249878 -0.00598584 -0.01749891
v -0.00000078 -0.00600037 -0.00500718
v 0.00849951 -0.00598584 -0.01800000
v 0.01248409 -0.00634851 -0.00500718
v 0.01248409 -0.00634890 -0.01749891
v 0.01249878 -0.00600037 -0.01749891
v 0.01199948 -0.00598584 -0.01800000
v -0.00000078 -0.00999961 -0.00500718
v -0.00000078 -0.00600037 -0.01800000
v 0.01243881 -0.00669468 -0.00500718
v 0.01243881 -0.00669468 -0.01749891
v 0.01198602 -0.00630529 -0.01800000
v 0.01199948 -0.00600037 -0.01800000
v 0.00849951 -0.00999961 -0.00500718
v -0.00000078 -0.00999961 -0.01749891
v -0.00000078 -0.00949980 -0.01800000
v 0.01236294 -0.00703535 -0.00500718
v 0.01236294 -0.00703535 -0.01749891
v 0.01187955 -0.00690608 -0.01800000
v 0.01194563 -0.00660784 -0.01800000
v 0.00884828 -0.00998468 -0.00500718
v 0.00849951 -0.00999961 -0.01749891
v 0.00849951 -0.00949980 -0.01800000
v 0.01225769 -0.00736816 -0.00500718
v 0.01225769 -0.00736816 -0.01749891
v 0.01178777 -0.00719724 -0.01800000
v 0.00919461 -0.00993910 -0.00500718
v 0.00884828 -0.00998468 -0.01749891
v 0.00880422 -0.00948644 -0.01800000
v 0.01212430 -0.00769036 -0.00500718
v 0.01212430 -0.00769076 -0.01749891
v 0.01167151 -0.00747936 -0.01800000
v 0.00953481 -0.00986326 -0.00500718
v 0.00919338 -0.00993910 -0.01749891
v 0.00953481 -0.00986365 -0.01749891
v 0.00910772 -0.00944676 -0.01800000
v 0.01196399 -0.00799960 -0.00500718
v 0.01196399 -0.00799999 -0.01749891
v 0.01153078 -0.00775009 -0.01800000
v 0.00986768 -0.00975835 -0.00500718
v 0.00940509 -0.00938035 -0.01800000
v 0.00969635 -0.00928880 -0.01800000
v 0.00986768 -0.00975874 -0.01749891
v 0.01177553 -0.00829390 -0.00500718
v 0.01177553 -0.00829429 -0.01749891
v 0.01136679 -0.00800746 -0.01800000
v 0.01018953 -0.00962475 -0.00500718
v 0.00997904 -0.00917171 -0.01800000
v 0.01018953 -0.00962515 -0.01749891
v 0.01156382 -0.00857092 -0.00500718
v 0.01156382 -0.00857092 -0.01749891
v 0.01118078 -0.00824950 -0.01800000
v 0.01049914 -0.00946365 -0.00500718
v 0.01024949 -0.00903104 -0.01800000
v 0.01049914 -0.00946405 -0.01749891
v 0.01132763 -0.00882789 -0.00500718
v 0.01132763 -0.00882829 -0.01749891
v 0.01097396 -0.00847465 -0.01800000
v 0.01079407 -0.00927622 -0.00500718
v 0.01050648 -0.00886679 -0.01800000
v 0.01079407 -0.00927622 -0.01749891
v 0.01107064 -0.00906365 -0.00500718
v 0.01107064 -0.00906404 -0.01749891
v 0.01074879 -0.00868094 -0.01800000
f 1 2 3
f 1 3 6
f 1 6 12
f 1 12 18
f 1 18 25
f 1 25 31
f 1 31 37
f 1 37 44
f 1 44 51
f 1 51 57
f 1 57 63
f 1 63 66
f 1 66 60
f 1 60 54
f 1 54 48
f 1 48 41
f 1 41 34
f 1 34 28
f 1 28 21
f 1 21 14
f 1 14 8
f 1 8 4
f 1 4 10
f 1 10 5
f 1 5 11
f 1 11 7
f 1 7 2
f 2 6 3
f 2 7 13
f 2 13 6
f 4 8 9
f 4 9 10
f 5 10 17
f 5 17 11
f 6 13 20
f 6 20 19
f 6 19 12
f 7 11 17
f 7 17 16
f 7 16 24
f 7 24 23
f 7 23 30
f 7 30 36
f 7 36 43
f 7 43 50
f 7 50 56
f 7 56 62
f 7 62 68
f 7 68 64
f 7 64 58
f 7 58 52
f 7 52 46
f 7 46 45
f 7 45 40
f 7 40 33
f 7 33 27
f 7 27 20
f 7 20 13
f 8 14 9
f 9 15 16
f 9 16 17
f 9 17 10
f 9 14 15
f 12 19 26
f 12 26 18
f 14 21 22
f 14 22 15
f 15 22 23
f 15 23 24
f 15 24 16
f 18 26 32
f 18 32 25
f 19 20 27
f 19 27 26
f 21 28 29
f 21 29 22
f 22 29 30
f 22 30 23
f 25 32 31
f 26 27 32
f 27 33 32
f 28 34 35
f 28 35 29
f 29 35 36
f 29 36 30
f 31 32 38
f 31 38 39
f 31 39 37
f 32 33 40
f 32 40 38
f 34 41 42
f 34 42 35
f 35 42 36
f 36 42 43
f 37 39 47
f 37 47 44
f 38 40 39
f 39 40 45
f 39 45 46
f 39 46 47
f 41 48 49
f 41 49 42
f 42 49 50
f 42 50 43
f 44 47 53
f 44 53 51
f 46 52 47
f 47 52 53
f 48 54 49
f 49 55 50
f 49 54 55
f 50 55 56
f 51 53 59
f 51 59 57
f 52 58 53
f 53 58 59
f 54 60 61
f 54 61 55
f 55 61 56
f 56 61 62
f 57 59 63
f 58 64 65
f 58 65 59
f 59 65 63
f 60 66 67
f 60 67 61
f 61 67 62
f 62 67 68
f 63 65 67
f 63 67 66
f 64 68 65
f 65 68 67

