# https://github.com/mikedh/trimesh
v 0.02585200 0.01489668 -0.01063393
v 0.02487436 0.01460039 -0.01063393
v 0.02867116 0.01486339 -0.01063393
v 0.03524919 0.01718038 -0.02998858
v 0.03430947 0.01716041 -0.02998858
v 0.03243004 0.01719037 -0.03092728
v 0.03149032 0.01719037 -0.03186931
v 0.03055060 0.01717705 -0.03374673
v 0.02996564 0.01703057 -0.03374673
v 0.02485270 0.01458375 -0.01063393
v 0.02994398 0.01704722 -0.03468875
v 0.03712863 0.01721367 -0.03092728
v 0.04408851 0.01396788 -0.01063393
v 0.03618891 0.01721700 -0.03092728
v 0.03337246 0.01721700 -0.03092728
v 0.03149032 0.01721700 -0.03280802
v 0.03055060 0.01719703 -0.03468875
v 0.02999272 0.01700727 -0.03562746
v 0.02493665 0.01164756 -0.04220837
v 0.02438961 0.01414099 -0.01063393
v 0.03055060 0.01715375 -0.03562746
v 0.03811168 0.01709716 -0.03088416
v 0.03806835 0.01721700 -0.03186931
v 0.04464910 0.01391462 -0.01063393
v 0.03149032 0.01721700 -0.03656949
v 0.03054247 0.01705721 -0.03651973
v 0.03005230 0.01695068 -0.03617477
v 0.02503685 0.01159097 -0.04314708
v 0.02394548 0.01365828 -0.01063393
v 0.02396173 0.01368159 -0.01063393
v 0.02448981 0.01080865 -0.04220837
v 0.03141449 0.01709716 -0.03758449
v 0.03900807 0.01720368 -0.03280802
v 0.03900807 0.01721700 -0.03374673
v 0.04502823 0.01378146 -0.01063393
v 0.03966886 0.01705388 -0.03280802
v 0.03243004 0.01721700 -0.03750820
v 0.03085120 0.01701726 -0.03732245
v 0.02521830 0.01144782 -0.04378063
v 0.02469021 0.01080865 -0.04314708
v 0.02393464 0.01362499 -0.01063393
v 0.02448440 0.00986987 -0.04220837
v 0.02052512 -0.01080997 -0.01777210
v 0.01986433 -0.00987785 -0.01063393
v 0.02364217 0.01268954 -0.01063393
v 0.03337246 0.01721034 -0.03844690
v 0.03238671 0.01709383 -0.03849666
v 0.03167718 0.01701726 -0.03821471
v 0.03975281 0.01706719 -0.03374673
v 0.03977447 0.01706719 -0.03468875
v 0.03900807 0.01721700 -0.03562746
v 0.04558881 0.01357839 -0.01063393
v 0.03430947 0.01721700 -0.03844690
v 0.03266835 0.01701060 -0.03903401
v 0.02585200 0.01159097 -0.04396306
v 0.02585200 0.01080865 -0.04431135
v 0.02513705 0.01080865 -0.04386355
v 0.02468750 0.00986987 -0.04314708
v 0.02448440 -0.00986786 -0.04220837
v 0.02051970 -0.01174875 -0.01777210
v 0.01985350 -0.01175208 -0.01063393
v 0.03430947 0.01706719 -0.03922971
v 0.03337246 0.01706387 -0.03914016
v 0.03972843 0.01706719 -0.03562746
v 0.04582171 0.01344523 -0.01063393
v 0.04616565 0.01324549 -0.01063393
v 0.04616565 0.01324549 -0.01683007
v 0.03900807 0.01717039 -0.03656949
v 0.03806835 0.01720368 -0.03750820
v 0.03806835 0.01721700 -0.03656949
v 0.03618891 0.01721700 -0.03844690
v 0.03524919 0.01706719 -0.03925625
v 0.02679172 0.01164756 -0.04406257
v 0.02679172 0.01080865 -0.04451037
v 0.02679172 0.00986987 -0.04451368
v 0.02585200 -0.01080997 -0.04431135
v 0.02513705 -0.01080997 -0.04386355
v 0.02468750 -0.00986786 -0.04314708
v 0.02469021 -0.01080997 -0.04314708
v 0.02448981 -0.01080997 -0.04220837
v 0.02051970 -0.01362965 -0.01777210
v 0.01985079 -0.01269419 -0.01063393
v 0.03961198 0.01702059 -0.03656949
v 0.04614127 0.01322551 -0.01777210
v 0.04531800 0.01155768 -0.04220837
v 0.04663415 0.01273282 -0.01063393
v 0.04663415 0.01273282 -0.01683007
v 0.03898641 0.01705055 -0.03745181
v 0.03865872 0.01700394 -0.03809862
v 0.03801690 0.01705388 -0.03842700
v 0.03712863 0.01717372 -0.03844690
v 0.03618891 0.01706719 -0.03918991
v 0.04370938 0.01164090 -0.04405262
v 0.04276966 0.01164756 -0.04406257
v 0.04276966 0.01080865 -0.04451037
v 0.04276966 0.00986987 -0.04451368
v 0.02679172 -0.00986786 -0.04451368
v 0.02679172 -0.01080997 -0.04451037
v 0.02585200 -0.01158896 -0.04396306
v 0.02521830 -0.01144914 -0.04378063
v 0.02503685 -0.01158896 -0.04314708
v 0.02067136 -0.01505446 -0.01825306
v 0.02064427 -0.01456843 -0.01828291
v 0.02057115 -0.01456843 -0.01777210
v 0.01987246 -0.01456843 -0.01063393
v 0.01985350 -0.01363298 -0.01063393
v 0.03951449 0.01695401 -0.03710021
v 0.04525030 0.01146446 -0.04298787
v 0.04668561 0.01261297 -0.01784175
v 0.04699162 0.01221016 -0.01820330
v 0.04715411 0.01183731 -0.01784175
v 0.04551569 0.01080865 -0.04220837
v 0.04679393 0.01254306 -0.01063393
v 0.04702683 0.01226343 -0.01683007
v 0.04701871 0.01224678 -0.01757639
v 0.03766755 0.01696066 -0.03896436
v 0.04474117 0.01167419 -0.04323996
v 0.04448932 0.01151440 -0.04390004
v 0.03712863 0.01702392 -0.03906387
v 0.04370938 0.01080865 -0.04448715
v 0.04370938 0.00986987 -0.04449046
v 0.04276966 -0.00986786 -0.04451368
v 0.04276966 -0.01080997 -0.04451037
v 0.02679172 -0.01164555 -0.04406257
v 0.02585200 -0.01194849 -0.04314708
v 0.02204979 -0.01592667 -0.01780195
v 0.02115069 -0.01550721 -0.01777210
v 0.02111278 -0.01646930 -0.01063393
v 0.02018389 -0.01555049 -0.01063393
v 0.04531800 0.01080865 -0.04314045
v 0.04511489 0.01080865 -0.04361146
v 0.04723806 0.01174743 -0.01683007
v 0.04746826 0.01080865 -0.01683007
v 0.04739784 0.01080865 -0.01777210
v 0.04751700 0.00986987 -0.01683007
v 0.04551569 -0.01080997 -0.04220837
v 0.04702683 0.01226343 -0.01063393
v 0.04464368 0.01080865 -0.04404267
v 0.04370938 -0.00986786 -0.04449046
v 0.04370938 -0.01080997 -0.04448715
v 0.04370938 -0.01163890 -0.04405262
v 0.04276966 -0.01164555 -0.04406257
v 0.02961088 -0.01201507 -0.04314708
v 0.02867116 -0.01200842 -0.04314708
v 0.02679172 -0.01197180 -0.04314708
v 0.02303013 -0.01594664 -0.01807726
v 0.02233414 -0.01598992 -0.01750674
v 0.02209041 -0.01677557 -0.01063393
v 0.02174919 -0.01596994 -0.01683007
v 0.02207687 -0.01677224 -0.01063393
v 0.04531800 -0.01080997 -0.04314045
v 0.04511489 -0.01080997 -0.04361146
v 0.04723806 0.01174743 -0.01063393
v 0.04746826 0.01080865 -0.01063393
v 0.04751700 0.00986987 -0.01063393
v 0.04751700 -0.00986786 -0.01683007
v 0.04739784 -0.01080997 -0.01777210
v 0.04715411 -0.01183864 -0.01784175
v 0.04531800 -0.01155900 -0.04220837
v 0.04525030 -0.01146579 -0.04298787
v 0.04464368 -0.01080997 -0.04404267
v 0.04448932 -0.01151572 -0.04390004
v 0.04370938 -0.01196514 -0.04314708
v 0.04182994 -0.01200842 -0.04314708
v 0.04088751 -0.01201507 -0.04314708
v 0.02368008 -0.01598992 -0.01750674
v 0.02397256 -0.01677557 -0.01063393
v 0.02303013 -0.01679221 -0.01063393
v 0.04751700 -0.00986786 -0.01063393
v 0.04746826 -0.01080997 -0.01683007
v 0.04723806 -0.01174875 -0.01683007
v 0.04701871 -0.01224811 -0.01757639
v 0.04699162 -0.01221149 -0.01820330
v 0.04668561 -0.01261097 -0.01784175
v 0.04614127 -0.01322684 -0.01777210
v 0.04464910 -0.01191853 -0.04220837
v 0.04474117 -0.01167219 -0.04323996
v 0.04464910 -0.01391594 -0.01683007
v 0.04464910 -0.01391594 -0.01401063
v 0.04464910 -0.01391261 -0.01063393
v 0.04746826 -0.01080997 -0.01063393
v 0.04723806 -0.01174875 -0.01063393
v 0.04711349 -0.01205502 -0.01063393
v 0.04702683 -0.01226142 -0.01683007
v 0.04663415 -0.01273081 -0.01683007
v 0.04616565 -0.01324681 -0.01683007
v 0.04558881 -0.01357971 -0.01683007
v 0.04558881 -0.01350647 -0.01777210
v 0.04558881 -0.01357971 -0.01063393
v 0.04702683 -0.01226142 -0.01063393
v 0.04686976 -0.01245118 -0.01063393
v 0.04663415 -0.01273081 -0.01063393
v 0.04616565 -0.01324681 -0.01063393
f 1 2 10
f 1 10 20
f 1 20 30
f 1 30 29
f 1 29 41
f 1 41 45
f 1 45 44
f 1 44 61
f 1 61 82
f 1 82 106
f 1 106 105
f 1 105 129
f 1 129 128
f 1 128 150
f 1 150 148
f 1 148 168
f 1 168 167
f 1 167 180
f 1 180 189
f 1 189 193
f 1 193 192
f 1 192 191
f 1 191 190
f 1 190 183
f 1 183 182
f 1 182 181
f 1 181 169
f 1 169 155
f 1 155 154
f 1 154 153
f 1 153 137
f 1 137 113
f 1 113 86
f 1 86 66
f 1 66 65
f 1 65 52
f 1 52 35
f 1 35 24
f 1 24 13
f 1 13 3
f 1 3 4
f 1 4 5
f 1 5 6
f 1 6 7
f 1 7 8
f 1 8 9
f 1 9 2
f 2 9 11
f 2 11 10
f 3 12 4
f 3 13 12
f 4 12 14
f 4 14 15
f 4 15 5
f 5 15 6
f 6 15 16
f 6 16 7
f 7 16 8
f 8 16 17
f 8 17 11
f 8 11 9
f 10 11 18
f 10 18 19
f 10 19 20
f 11 17 21
f 11 21 18
f 12 22 23
f 12 23 14
f 12 13 24
f 12 24 22
f 14 23 34
f 14 34 51
f 14 51 70
f 14 70 71
f 14 71 53
f 14 53 37
f 14 37 25
f 14 25 16
f 14 16 15
f 16 25 17
f 17 25 21
f 18 21 26
f 18 26 27
f 18 27 28
f 18 28 19
f 19 29 30
f 19 30 20
f 19 28 31
f 19 31 29
f 21 25 32
f 21 32 26
f 22 24 23
f 23 24 33
f 23 33 34
f 24 35 36
f 24 36 33
f 25 37 32
f 26 38 27
f 26 32 38
f 27 38 28
f 28 38 39
f 28 39 40
f 28 40 31
f 29 31 41
f 31 40 42
f 31 42 60
f 31 60 43
f 31 43 44
f 31 44 45
f 31 45 41
f 32 37 46
f 32 46 47
f 32 47 48
f 32 48 38
f 33 36 49
f 33 49 34
f 34 49 50
f 34 50 51
f 35 52 36
f 36 52 49
f 37 53 46
f 38 48 39
f 39 48 54
f 39 54 55
f 39 55 56
f 39 56 57
f 39 57 40
f 40 57 58
f 40 58 42
f 42 58 78
f 42 78 59
f 42 59 81
f 42 81 60
f 43 60 61
f 43 61 44
f 46 53 62
f 46 62 63
f 46 63 54
f 46 54 47
f 47 54 48
f 49 52 50
f 50 64 51
f 50 52 65
f 50 65 66
f 50 66 67
f 50 67 64
f 51 64 68
f 51 68 69
f 51 69 70
f 53 71 72
f 53 72 62
f 54 63 55
f 55 73 74
f 55 74 56
f 55 63 73
f 56 74 75
f 56 75 97
f 56 97 76
f 56 76 77
f 56 77 57
f 57 77 78
f 57 78 58
f 59 78 79
f 59 79 80
f 59 80 81
f 60 81 82
f 60 82 61
f 62 72 73
f 62 73 63
f 64 83 68
f 64 67 84
f 64 84 85
f 64 85 83
f 66 86 87
f 66 87 67
f 67 87 84
f 68 83 88
f 68 88 69
f 69 88 89
f 69 89 90
f 69 90 91
f 69 91 71
f 69 71 70
f 71 91 92
f 71 92 72
f 72 92 93
f 72 93 94
f 72 94 73
f 73 94 95
f 73 95 74
f 74 95 96
f 74 96 75
f 75 96 122
f 75 122 97
f 76 97 98
f 76 98 99
f 76 99 100
f 76 100 77
f 77 100 79
f 77 79 78
f 79 100 101
f 79 101 102
f 79 102 80
f 80 102 103
f 80 103 81
f 81 103 104
f 81 104 105
f 81 105 106
f 81 106 82
f 83 107 88
f 83 85 108
f 83 108 107
f 84 87 109
f 84 109 85
f 85 109 110
f 85 110 111
f 85 111 112
f 85 112 108
f 86 113 87
f 87 113 114
f 87 114 115
f 87 115 109
f 88 107 89
f 89 116 90
f 89 107 117
f 89 117 118
f 89 118 116
f 90 116 119
f 90 119 91
f 91 119 92
f 92 119 93
f 93 118 120
f 93 120 95
f 93 95 94
f 93 119 116
f 93 116 118
f 95 120 121
f 95 121 96
f 96 121 139
f 96 139 122
f 97 122 123
f 97 123 98
f 98 123 142
f 98 142 124
f 98 124 99
f 99 124 125
f 99 125 100
f 100 125 101
f 101 125 126
f 101 126 127
f 101 127 102
f 102 127 128
f 102 128 129
f 102 129 105
f 102 105 104
f 102 104 103
f 107 108 117
f 108 118 117
f 108 112 130
f 108 130 131
f 108 131 118
f 109 115 110
f 110 115 111
f 111 132 133
f 111 133 134
f 111 134 112
f 111 115 132
f 112 134 135
f 112 135 156
f 112 156 136
f 112 136 151
f 112 151 130
f 113 137 114
f 114 137 153
f 114 153 132
f 114 132 115
f 118 131 138
f 118 138 120
f 120 138 121
f 121 138 161
f 121 161 139
f 122 139 140
f 122 140 123
f 123 140 141
f 123 141 142
f 124 142 165
f 124 165 143
f 124 143 144
f 124 144 145
f 124 145 125
f 125 145 146
f 125 146 126
f 126 146 147
f 126 147 148
f 126 148 149
f 126 149 127
f 127 149 128
f 128 149 150
f 130 151 152
f 130 152 131
f 131 152 161
f 131 161 138
f 132 153 154
f 132 154 133
f 133 135 134
f 133 154 155
f 133 155 135
f 135 155 169
f 135 169 156
f 136 156 157
f 136 157 158
f 136 158 159
f 136 159 160
f 136 160 151
f 139 161 140
f 140 161 162
f 140 162 141
f 141 162 163
f 141 163 164
f 141 164 142
f 142 164 165
f 143 165 146
f 143 146 144
f 144 146 145
f 146 165 164
f 146 164 163
f 146 163 166
f 146 166 167
f 146 167 168
f 146 168 148
f 146 148 147
f 148 150 149
f 151 160 152
f 152 160 162
f 152 162 161
f 156 169 181
f 156 181 170
f 156 170 157
f 157 170 158
f 158 170 171
f 158 171 172
f 158 172 173
f 158 173 159
f 159 173 172
f 159 172 174
f 159 174 175
f 159 175 176
f 159 176 160
f 160 176 177
f 160 177 162
f 162 177 163
f 163 177 176
f 163 176 178
f 163 178 167
f 163 167 166
f 167 178 179
f 167 179 180
f 170 181 182
f 170 182 171
f 171 182 183
f 171 183 184
f 171 184 172
f 172 184 185
f 172 185 174
f 174 185 175
f 175 185 186
f 175 186 187
f 175 187 188
f 175 188 176
f 176 188 178
f 178 188 187
f 178 187 189
f 178 189 179
f 179 189 180
f 183 190 184
f 184 190 191
f 184 191 185
f 185 192 193
f 185 193 186
f 185 191 192
f 186 193 189
f 186 189 187

