# https://github.com/mikedh/trimesh
v 0.01644676 0.02412592 -0.00085026
v 0.01644676 0.02380947 0.00005870
v 0.01738631 0.02379530 0.00005761
v 0.01738631 0.02409286 -0.00085026
v 0.01644676 0.02412592 -0.00461051
v -0.01644676 0.02412592 -0.00085026
v 0.01644676 0.02302542 0.00050827
v 0.01738631 0.02302542 0.00050609
v 0.01832586 0.02302542 0.00050172
v 0.01926541 0.02302542 0.00049299
v -0.01644676 0.02380947 0.00005870
v 0.01832586 0.02376224 0.00005324
v 0.01738631 0.02409286 -0.00554893
v 0.01926541 0.02372445 0.00004451
v 0.01832586 0.02402673 -0.00085026
v 0.01644676 0.02412119 -0.00554893
v -0.01644676 0.02412592 -0.00461051
v -0.01738631 0.02409286 -0.00085026
v -0.01738631 0.02379530 0.00005761
v 0.02114451 0.02208551 0.00051700
v -0.01644676 0.02302542 0.00050827
v 0.02208406 0.02208551 0.00051482
v 0.02302361 0.02208551 0.00050281
v 0.02020496 0.02302542 0.00044389
v -0.01926541 0.02302542 0.00049299
v -0.01832586 0.02302542 0.00050172
v -0.01738631 0.02302542 0.00050609
v 0.01738631 0.02403618 -0.00648954
v 0.01832586 0.02402673 -0.00461051
v 0.01926541 0.02395116 -0.00554893
v 0.02020496 0.02366777 -0.00000459
v 0.01926541 0.02395589 -0.00085026
v 0.01644676 0.02406452 -0.00648954
v -0.01644676 0.02412119 -0.00554893
v -0.01738631 0.02409286 -0.00554893
v -0.01832586 0.02402673 -0.00085026
v -0.01926541 0.02372445 0.00004451
v -0.01832586 0.02376224 0.00005324
v 0.02396315 0.02114561 0.00051700
v -0.02114451 0.02208551 0.00051700
v 0.02490270 0.02114561 0.00051264
v 0.02396315 0.02208551 0.00036532
v 0.04464254 0.01268642 0.00051154
v 0.02584225 0.02114561 0.00043407
v 0.02302361 0.02286956 0.00005433
v -0.02020496 0.02302542 0.00044389
v -0.02302361 0.02208551 0.00050281
v -0.02208406 0.02208551 0.00051482
v 0.01738631 0.02381891 -0.00742906
v 0.01644676 0.02385198 -0.00742906
v 0.01926541 0.02389448 -0.00648954
v 0.01832586 0.02375279 -0.00742906
v 0.01926541 0.02395589 -0.00273039
v 0.02020496 0.02383781 -0.00554893
v 0.02114451 0.02357331 -0.00017809
v 0.02020496 0.02383781 -0.00085026
v -0.01644676 0.02406452 -0.00648954
v -0.01738631 0.02403618 -0.00648954
v -0.01926541 0.02395116 -0.00554893
v -0.01832586 0.02402673 -0.00179087
v -0.01926541 0.02395589 -0.00085026
v -0.02020496 0.02366777 -0.00000459
v 0.04464254 0.01174652 0.00051700
v 0.04558209 0.01174652 0.00051591
v -0.02396315 0.02114561 0.00051700
v 0.02396315 0.02270425 -0.00008315
v 0.04558209 0.01268642 0.00040133
v 0.04558209 0.01336656 -0.00004606
v 0.02584225 0.02184463 -0.00001441
v -0.02302361 0.02286956 0.00005433
v -0.02396315 0.02208551 0.00036423
v -0.02584225 0.02114561 0.00043407
v -0.04464254 0.01268642 0.00051154
v -0.02490270 0.02114561 0.00051264
v 0.01738631 0.02358276 -0.00804885
v 0.01969332 0.02349301 -0.00789063
v 0.01907006 0.02351663 -0.00793755
v 0.01644676 0.02359693 -0.00807723
v -0.01644676 0.02385198 -0.00742906
v 0.01933983 0.02364416 -0.00751853
v 0.02020496 0.02377640 -0.00648954
v 0.02020496 0.02361109 -0.00729375
v 0.02114451 0.02364888 -0.00461051
v 0.02114451 0.02364416 -0.00554893
v 0.02167475 0.02351191 -0.00612727
v 0.02167475 0.02351191 -0.00033195
v 0.02114451 0.02364888 -0.00085026
v -0.01738631 0.02381891 -0.00742906
v -0.01832586 0.02375279 -0.00742906
v -0.01926541 0.02389448 -0.00648954
v -0.02020496 0.02383781 -0.00554893
v -0.02020496 0.02383781 -0.00085026
v -0.02114451 0.02357331 -0.00017809
v 0.04558209 0.01080661 0.00051700
v 0.04652164 0.00986670 0.00050172
v 0.04652164 0.01080661 0.00049299
v -0.04558209 0.01174652 0.00051591
v -0.04464254 0.01174652 0.00051700
v 0.02453060 0.02259562 -0.00026757
v 0.04652164 0.01174652 0.00032059
v 0.04647512 0.01261086 -0.00007333
v 0.04613093 0.01321542 -0.00022719
v -0.02396315 0.02270425 -0.00008425
v -0.02584225 0.02184463 -0.00001441
v -0.04558209 0.01336656 -0.00004606
v -0.04558209 0.01268642 0.00040133
v 0.01738631 0.02328520 -0.00851916
v 0.01832586 0.02354497 -0.00798884
v 0.01933983 0.02326630 -0.00829874
v 0.02020496 0.02345051 -0.00776405
v 0.02208406 0.02277510 -0.00825072
v 0.02020496 0.02310099 -0.00836966
v 0.01644676 0.02329937 -0.00854753
v -0.01644676 0.02359693 -0.00807723
v -0.01738631 0.02358276 -0.00804885
v 0.02117241 0.02358276 -0.00646008
v 0.02150730 0.02347412 -0.00675470
v 0.02087474 0.02354497 -0.00709952
v 0.02217708 0.02340800 -0.00461051
v 0.02170266 0.02351663 -0.00554893
v 0.02216778 0.02340800 -0.00554893
v 0.02302361 0.02318129 -0.00554893
v 0.02302361 0.02311989 -0.00648954
v 0.02202824 0.02338911 -0.00646008
v 0.02302361 0.02318129 -0.00085026
v 0.02217708 0.02340800 -0.00085026
v -0.01907006 0.02351663 -0.00793755
v -0.01969332 0.02349301 -0.00789063
v -0.01933983 0.02364416 -0.00751853
v -0.02020496 0.02361109 -0.00729375
v -0.02020496 0.02377640 -0.00648954
v -0.02167475 0.02351191 -0.00612727
v -0.02114451 0.02364416 -0.00554893
v -0.02114451 0.02364416 -0.00085026
v -0.02167475 0.02351191 -0.00033195
v 0.04558209 -0.01080657 0.00051700
v 0.04652164 -0.00986666 0.00050172
v 0.04725653 0.00986670 0.00005324
v 0.04722862 0.01080661 0.00004451
v -0.04652164 0.01080661 0.00049299
v -0.04652164 0.00986670 0.00050172
v -0.04558209 0.01080661 0.00051700
v 0.02504224 0.02242558 -0.00085026
v 0.02457712 0.02261451 -0.00085026
v 0.02396315 0.02285067 -0.00085026
v 0.04558209 0.01357910 -0.00085026
v 0.04711700 0.01174652 -0.00012680
v 0.04701467 0.01224717 -0.00031994
v 0.04663327 0.01272893 -0.00085026
v 0.04615884 0.01324376 -0.00085026
v -0.02453060 0.02259562 -0.00026757
v -0.04613093 0.01321542 -0.00022719
v -0.04647512 0.01261086 -0.00007333
v -0.04652164 0.01174652 0.00032059
v 0.01738631 0.02281288 -0.00910295
v 0.01832586 0.02324741 -0.00845914
v 0.01926541 0.02274203 -0.00903638
v 0.01832586 0.02277982 -0.00907021
v 0.02020496 0.02267591 -0.00896982
v 0.02117241 0.02336549 -0.00741924
v 0.02208406 0.02314822 -0.00742906
v 0.02302361 0.02264285 -0.00804667
v 0.02208406 0.02247281 -0.00872103
v 0.02118172 0.02284594 -0.00844714
v 0.02152591 0.02253421 -0.00881160
v 0.02090264 0.02260506 -0.00889453
v 0.01644676 0.02283177 -0.00911822
v -0.01644676 0.02329937 -0.00854753
v -0.01738631 0.02328520 -0.00851916
v -0.01832586 0.02354497 -0.00798884
v 0.02302361 0.02289790 -0.00742906
v 0.02396315 0.02285539 -0.00461051
v 0.02396315 0.02285067 -0.00554893
v 0.02405618 0.02274676 -0.00656156
v 0.02441898 0.02255311 -0.00692274
v 0.02396315 0.02285539 -0.00179087
v -0.01933983 0.02326630 -0.00829874
v -0.02020496 0.02310099 -0.00836966
v -0.02208406 0.02277510 -0.00825072
v -0.02020496 0.02345051 -0.00776405
v -0.02087474 0.02354497 -0.00709952
v -0.02150730 0.02347412 -0.00675470
v -0.02117241 0.02358276 -0.00646008
v -0.02170266 0.02351663 -0.00554893
v -0.02202824 0.02338911 -0.00646008
v -0.02302361 0.02311989 -0.00648954
v -0.02302361 0.02318129 -0.00554893
v -0.02216778 0.02340800 -0.00554893
v -0.02170266 0.02351663 -0.00085026
v -0.02217708 0.02340800 -0.00085026
v -0.02302361 0.02318129 -0.00085026
v 0.04558209 -0.01174648 0.00051591
v 0.04464254 -0.01174648 0.00051700
v 0.04652164 -0.01080657 0.00049299
v 0.04725653 -0.00986666 0.00005324
v 0.04750770 0.00986670 -0.00085026
v 0.04746118 0.01080661 -0.00085026
v -0.04722862 0.01080661 0.00004451
v -0.04725653 0.00986670 0.00005324
v -0.04652164 -0.00986666 0.00050172
v -0.04558209 -0.01080657 0.00051700
v 0.02504224 0.02242558 -0.00554893
v 0.02457712 0.02261451 -0.00461051
v 0.04558209 0.01357910 -0.01062952
v 0.04723793 0.01174652 -0.00085026
v 0.04702397 0.01226134 -0.00085026
v 0.04679141 0.01254001 -0.01062952
v 0.04663327 0.01272893 -0.01062952
v 0.04643791 0.01294148 -0.01062952
v 0.04615884 0.01324376 -0.01062952
v -0.02396315 0.02285067 -0.00085026
v -0.02504224 0.02242558 -0.00085026
v -0.04558209 0.01357910 -0.00085026
v -0.04615884 0.01324376 -0.00085026
v -0.04663327 0.01272893 -0.00085026
v -0.04701467 0.01224717 -0.00031994
v -0.04711700 0.01174652 -0.00012680
v 0.01738631 0.02227916 -0.00957325
v 0.01926541 0.02221304 -0.00950559
v 0.02020496 0.02214692 -0.00944012
v 0.01832586 0.02224610 -0.00954051
v 0.02208406 0.02200050 -0.00920443
v 0.02351664 0.02256728 -0.00791245
v 0.04464254 0.01391445 -0.01062952
v 0.02302361 0.02233112 -0.00851698
v 0.02302361 0.02186353 -0.00908221
v 0.01644676 0.02229806 -0.00958743
v -0.01644676 0.02283177 -0.00911822
v -0.01738631 0.02281288 -0.00910295
v -0.01832586 0.02277982 -0.00907021
v -0.01926541 0.02274203 -0.00903638
v -0.01832586 0.02324741 -0.00845914
v 0.02373059 0.02265229 -0.00742906
v 0.02452130 0.02259562 -0.00629531
v 0.02486549 0.02242558 -0.00656156
v -0.02020496 0.02267591 -0.00896982
v -0.02090264 0.02260506 -0.00889453
v -0.02152591 0.02253421 -0.00881160
v -0.02118172 0.02284594 -0.00844714
v -0.02208406 0.02247281 -0.00872103
v -0.02302361 0.02264285 -0.00804667
v -0.02208406 0.02314822 -0.00742906
v -0.02117241 0.02336549 -0.00741924
v -0.02302361 0.02289790 -0.00742906
v -0.02217708 0.02340800 -0.00179087
v -0.02441898 0.02255311 -0.00692274
v -0.02405618 0.02274676 -0.00656156
v -0.02396315 0.02285067 -0.00554893
v 0.04464254 -0.01268639 0.00051154
v 0.04558209 -0.01268639 0.00040133
v 0.02396315 -0.02114557 0.00051700
v 0.04652164 -0.01174648 0.00032059
v 0.04722862 -0.01080657 0.00004451
v 0.04750770 -0.00986666 -0.00085026
v 0.04750770 0.00986670 -0.01062952
v 0.04748909 0.01024928 -0.01062952
v 0.04746118 0.01080661 -0.01062952
v -0.04746118 0.01080661 -0.00085026
v -0.04750770 0.00986670 -0.00085026
v -0.04725653 -0.00986666 0.00005324
v -0.04652164 -0.01080657 0.00049299
v -0.04558209 -0.01174648 0.00051591
v -0.04464254 -0.01174648 0.00051700
v 0.04723793 0.01174652 -0.01062952
v 0.04702397 0.01226134 -0.01062952
v -0.02504224 0.02242558 -0.00554893
v -0.04558209 0.01357910 -0.01062952
v -0.04592628 0.01338073 -0.01062952
v -0.04615884 0.01324376 -0.01062952
v -0.04635419 0.01303594 -0.01062952
v -0.04663327 0.01272893 -0.01062952
v -0.04702397 0.01226134 -0.00085026
v -0.04723793 0.01174652 -0.00085026
v 0.01738631 0.02181157 -0.00989733
v 0.01926541 0.02174072 -0.00985914
v 0.01832586 0.02177851 -0.00987878
v 0.02020496 0.02167460 -0.00981768
v 0.02070729 0.02162264 -0.00978385
v 0.02208406 0.02145733 -0.00967473
v 0.02133986 0.02154707 -0.00973693
v 0.04408439 0.01396640 -0.01062952
v 0.01832586 0.01926579 -0.01050840
v 0.01926541 0.01926579 -0.01050403
v 0.02020496 0.01926579 -0.01049858
v 0.02114451 0.01926579 -0.01048548
v 0.01926541 0.02020570 -0.01041128
v 0.02020496 0.02020570 -0.01038073
v 0.02114451 0.02020570 -0.01032944
v 0.02208406 0.02020570 -0.01025633
v 0.02020496 0.02114561 -0.01006865
v 0.02208406 0.02098502 -0.00994425
v 0.01644676 0.02182574 -0.00990606
v -0.01644676 0.02229806 -0.00958743
v -0.01738631 0.02227916 -0.00957325
v -0.01832586 0.02224610 -0.00954051
v -0.01926541 0.02221304 -0.00950559
v -0.02020496 0.02214692 -0.00944012
v -0.02208406 0.02200050 -0.00920443
v -0.02302361 0.02186353 -0.00908221
v -0.04464254 0.01391445 -0.01062952
v -0.02302361 0.02233112 -0.00851698
v -0.02351664 0.02256728 -0.00791245
v -0.02373059 0.02265229 -0.00742906
v -0.02486549 0.02242558 -0.00656156
v -0.02452130 0.02259562 -0.00629531
v 0.02490270 -0.02114557 0.00051264
v 0.02302361 -0.02208548 0.00050281
v 0.02584225 -0.02114557 0.00043407
v 0.04558209 -0.01336652 -0.00004606
v 0.04613093 -0.01321538 -0.00022719
v 0.04647512 -0.01261082 -0.00007333
v 0.02396315 -0.02208548 0.00036423
v 0.02114451 -0.02208548 0.00051700
v 0.02208406 -0.02208548 0.00051482
v 0.04711700 -0.01174648 -0.00012680
v 0.04746118 -0.01080657 -0.00085026
v 0.04750770 -0.00986666 -0.01062952
v -0.04733095 0.01136866 -0.01062952
v -0.04746118 0.01080661 -0.01062952
v -0.04750770 0.00986670 -0.01062952
v -0.04750770 -0.00986666 -0.00085026
v -0.04722862 -0.01080657 0.00004451
v -0.04652164 -0.01174648 0.00032059
v -0.04558209 -0.01268639 0.00040133
v -0.04464254 -0.01268639 0.00051154
v -0.02396315 -0.02114557 0.00051700
v -0.04702397 0.01226134 -0.01062952
v -0.04723793 0.01174652 -0.01062952
v 0.01738631 0.02114561 -0.01019086
v 0.01926541 0.02114561 -0.01013412
v 0.01832586 0.02114561 -0.01016467
v 0.02107009 0.02120228 -0.00995189
v 0.02866090 0.01486380 -0.01062952
v 0.01738631 0.01926579 -0.01051058
v 0.01644676 0.02020570 -0.01044184
v 0.01738631 0.02020570 -0.01043638
v 0.01832586 0.02020570 -0.01042547
v 0.01644676 0.02114561 -0.01020396
v -0.01644676 0.02182574 -0.00990606
v -0.01738631 0.02181157 -0.00989733
v -0.01832586 0.02177851 -0.00987878
v -0.01926541 0.02174072 -0.00985914
v -0.02020496 0.02167460 -0.00981768
v -0.02070729 0.02162264 -0.00978385
v -0.02133986 0.02154707 -0.00973693
v -0.02208406 0.02145733 -0.00967473
v -0.02208406 0.02098502 -0.00994425
v -0.02020496 0.02114561 -0.01006865
v -0.02208406 0.02020570 -0.01025633
v -0.02114451 0.02020570 -0.01032944
v -0.02020496 0.02020570 -0.01038073
v -0.01926541 0.02020570 -0.01041128
v -0.02114451 0.01926579 -0.01048548
v -0.02020496 0.01926579 -0.01049858
v -0.02396315 0.01677668 -0.01062952
v 0.01926541 -0.02302539 0.00049299
v 0.02020496 -0.02302539 0.00044389
v 0.02584225 -0.02184460 -0.00001441
v 0.02453060 -0.02259558 -0.00026757
v 0.04558209 -0.01357907 -0.00085026
v 0.04615884 -0.01324372 -0.00085026
v 0.04663327 -0.01272890 -0.00085026
v 0.04701467 -0.01224714 -0.00031994
v 0.02302361 -0.02286952 0.00005433
v 0.02396315 -0.02270421 -0.00008425
v 0.01644676 -0.02302539 0.00050827
v -0.02114451 -0.02208548 0.00051700
v 0.01738631 -0.02302539 0.00050609
v 0.01832586 -0.02302539 0.00050172
v 0.04723793 -0.01174648 -0.00085026
v 0.04733095 -0.01136863 -0.01062952
v 0.04746118 -0.01080657 -0.01062952
v -0.04750770 -0.00986666 -0.01062952
v -0.04748909 -0.01024924 -0.01062952
v -0.04746118 -0.01080657 -0.00085026
v -0.04711700 -0.01174648 -0.00012680
v -0.04647512 -0.01261082 -0.00007333
v -0.04613093 -0.01321538 -0.00022719
v -0.04558209 -0.01336652 -0.00004606
v -0.02396315 -0.02208548 0.00036532
v -0.02584225 -0.02114557 0.00043516
v -0.02302361 -0.02208548 0.00050281
v -0.02490270 -0.02114557 0.00051264
v -0.02208406 -0.02208548 0.00051482
v 0.01644676 0.01926579 -0.01051167
v -0.02208406 0.01677668 -0.01062952
v -0.01644676 0.02020570 -0.01044184
v -0.01644676 0.02114561 -0.01020396
v -0.01738631 0.02114561 -0.01019086
v -0.01832586 0.02114561 -0.01016467
v -0.01926541 0.02114561 -0.01013412
v -0.02107009 0.02120228 -0.00995189
v -0.01832586 0.02020570 -0.01042547
v -0.01738631 0.02020570 -0.01043638
v -0.01926541 0.01926579 -0.01050403
v -0.01832586 0.01926579 -0.01050840
v -0.01738631 0.01926579 -0.01051058
v -0.01644676 0.01926579 -0.01051167
v -0.02302361 0.01679085 -0.01062952
v 0.01644676 -0.02380943 0.00005870
v 0.01738631 -0.02379526 0.00005761
v 0.01832586 -0.02376220 0.00005324
v 0.01926541 -0.02372441 0.00004451
v 0.02020496 -0.02366774 -0.00000459
v 0.02167475 -0.02351187 -0.00033195
v 0.02302361 -0.02318125 -0.00085026
v 0.02396315 -0.02285063 -0.00085026
v 0.02504224 -0.02242555 -0.00085026
v 0.04558209 -0.01357907 -0.01062952
v 0.04592628 -0.01338069 -0.01062952
v 0.04635419 -0.01303590 -0.01062952
v 0.04615884 -0.01324372 -0.01062952
v 0.04663327 -0.01272890 -0.01062952
v 0.04702397 -0.01226131 -0.00085026
v 0.02114451 -0.02357328 -0.00017809
v -0.01644676 -0.02302539 0.00050827
v 0.04723793 -0.01174648 -0.01062952
v -0.04746118 -0.01080657 -0.01062952
v -0.04723793 -0.01174648 -0.00085026
v -0.04701467 -0.01224714 -0.00031994
v -0.04558209 -0.01357907 -0.00085026
v -0.02453060 -0.02259558 -0.00026757
v -0.04663327 -0.01272890 -0.00085026
v -0.04615884 -0.01324372 -0.00085026
v -0.02584225 -0.02184460 -0.00001441
v -0.02396315 -0.02270421 -0.00008315
v -0.02302361 -0.02286952 0.00005433
v -0.02020496 -0.02302539 0.00044389
v -0.01926541 -0.02302539 0.00049299
v -0.01832586 -0.02302539 0.00050172
v -0.01738631 -0.02302539 0.00050609
v -0.02301430 0.01679085 -0.01062952
v 0.01644676 -0.02412588 -0.00085026
v -0.01644676 -0.02380943 0.00005870
v 0.01738631 -0.02409282 -0.00085026
v 0.01832586 -0.02402670 -0.00085026
v 0.02020496 -0.02383777 -0.00085026
v 0.01926541 -0.02395585 -0.00085026
v 0.02114451 -0.02364412 -0.00085026
v 0.02170266 -0.02351660 -0.00085026
v 0.02217708 -0.02340796 -0.00085026
v 0.02302361 -0.02318125 -0.00554893
v 0.02396315 -0.02285063 -0.00554893
v 0.02504224 -0.02242555 -0.00554893
v 0.02452130 -0.02259558 -0.00629640
v 0.02486549 -0.02242555 -0.00656156
v 0.02441898 -0.02255307 -0.00692274
v 0.02373990 -0.02265226 -0.00742906
v 0.02351664 -0.02256724 -0.00791245
v 0.04464254 -0.01391441 -0.01062952
v 0.04702397 -0.01226131 -0.01062952
v -0.04723793 -0.01174648 -0.01062952
v -0.04702397 -0.01226131 -0.00085026
v -0.02504224 -0.02242555 -0.00085026
v -0.04558209 -0.01357907 -0.01062952
v -0.02457712 -0.02261447 -0.00085026
v -0.02396315 -0.02285063 -0.00085026
v -0.02302361 -0.02318125 -0.00085026
v -0.02167475 -0.02351187 -0.00033195
v -0.04643791 -0.01294144 -0.01062952
v -0.04679141 -0.01253997 -0.01062952
v -0.04663327 -0.01272890 -0.01062952
v -0.04615884 -0.01324372 -0.01062952
v -0.02114451 -0.02357328 -0.00017809
v -0.02020496 -0.02366774 -0.00000459
v -0.01926541 -0.02372441 0.00004451
v -0.01832586 -0.02376220 0.00005324
v -0.01738631 -0.02379526 0.00005761
v 0.01644676 -0.02412588 -0.00461051
v -0.01644676 -0.02412588 -0.00085026
v 0.01738631 -0.02409282 -0.00554893
v 0.01832586 -0.02402670 -0.00179087
v 0.02020496 -0.02383777 -0.00554893
v 0.01926541 -0.02395585 -0.00179087
v 0.02114451 -0.02364412 -0.00554893
v 0.02170266 -0.02351660 -0.00554893
v 0.02217708 -0.02340796 -0.00179087
v 0.02302361 -0.02311985 -0.00648954
v 0.02216778 -0.02340796 -0.00554893
v 0.02167475 -0.02351187 -0.00612836
v 0.02405618 -0.02274672 -0.00656156
v 0.02302361 -0.02289786 -0.00742906
v 0.02208406 -0.02314819 -0.00742906
v 0.02302361 -0.02264281 -0.00804667
v 0.02114451 -0.01926575 -0.01048548
v 0.02020496 -0.01926575 -0.01049858
v 0.02396315 -0.01677665 -0.01062952
v 0.02302361 -0.02233108 -0.00851698
v 0.02208406 -0.02247278 -0.00872103
v 0.02302361 -0.02186349 -0.00908221
v 0.02208406 -0.02200046 -0.00920443
v 0.02208406 -0.02145730 -0.00967473
v 0.02133986 -0.02154704 -0.00973693
v 0.02208406 -0.02098498 -0.00994425
v 0.02020496 -0.02114557 -0.01006865
v 0.02208406 -0.02020566 -0.01025633
v 0.02114451 -0.02020566 -0.01032944
v 0.02020496 -0.02020566 -0.01038073
v 0.01926541 -0.02020566 -0.01041128
v -0.04702397 -0.01226131 -0.01062952
v -0.02504224 -0.02242555 -0.00554893
v -0.04464254 -0.01391441 -0.01062952
v -0.02351664 -0.02256724 -0.00791245
v -0.02373990 -0.02265226 -0.00742906
v -0.02441898 -0.02255307 -0.00692274
v -0.02486549 -0.02242555 -0.00656156
v -0.02452130 -0.02259558 -0.00629640
v -0.02396315 -0.02285535 -0.00179087
v -0.02457712 -0.02261447 -0.00461051
v -0.02302361 -0.02318125 -0.00554893
v -0.02217708 -0.02340796 -0.00085026
v -0.02114451 -0.02364884 -0.00085026
v -0.02020496 -0.02383777 -0.00085026
v -0.01926541 -0.02395585 -0.00085026
v -0.01832586 -0.02402670 -0.00085026
v -0.01738631 -0.02409282 -0.00085026
v 0.01644676 -0.02412116 -0.00554893
v -0.01644676 -0.02412588 -0.00461051
v 0.01738631 -0.02403614 -0.00648954
v 0.01926541 -0.02395113 -0.00554893
v 0.02020496 -0.02377637 -0.00648954
v 0.01926541 -0.02389445 -0.00648954
v 0.02202824 -0.02338907 -0.00646008
v 0.02150730 -0.02347409 -0.00675470
v 0.02117241 -0.02358272 -0.00646008
v 0.02087474 -0.02354494 -0.00709952
v 0.02117241 -0.02336545 -0.00742033
v 0.02020496 -0.02345047 -0.00776405
v 0.02208406 -0.02277506 -0.00825072
v 0.01832586 -0.02020566 -0.01042547
v 0.01738631 -0.02020566 -0.01043638
v 0.01926541 -0.01926575 -0.01050403
v 0.02302361 -0.01679082 -0.01062952
v 0.01832586 -0.01926575 -0.01050840
v 0.01738631 -0.01926575 -0.01051058
v 0.01644676 -0.01926575 -0.01051167
v 0.02118172 -0.02284591 -0.00844714
v 0.02152591 -0.02253418 -0.00881160
v 0.02090264 -0.02260503 -0.00889453
v 0.02020496 -0.02267587 -0.00896982
v 0.02020496 -0.02214688 -0.00944012
v 0.02070729 -0.02162261 -0.00978385
v 0.02020496 -0.02167456 -0.00981768
v 0.02107009 -0.02120225 -0.00995189
v 0.01926541 -0.02174069 -0.00985914
v 0.01926541 -0.02114557 -0.01013412
v 0.01832586 -0.02114557 -0.01016467
v 0.01738631 -0.02114557 -0.01019086
v -0.02396315 -0.02285063 -0.00554893
v -0.02396315 -0.01677665 -0.01062952
v -0.02020496 -0.01926575 -0.01049858
v -0.02114451 -0.01926575 -0.01048548
v -0.01926541 -0.02020566 -0.01041128
v -0.02020496 -0.02020566 -0.01038073
v -0.02114451 -0.02020566 -0.01032944
v -0.02208406 -0.02020566 -0.01025633
v -0.02020496 -0.02114557 -0.01006865
v -0.02208406 -0.02098498 -0.00994425
v -0.02133986 -0.02154704 -0.00973693
v -0.02208406 -0.02145730 -0.00967473
v -0.02208406 -0.02200046 -0.00920443
v -0.02302361 -0.02186349 -0.00908221
v -0.02208406 -0.02247278 -0.00872103
v -0.02302361 -0.02233108 -0.00851698
v -0.02302361 -0.02264281 -0.00804667
v -0.02208406 -0.02314819 -0.00742906
v -0.02302361 -0.02289786 -0.00742906
v -0.02302361 -0.02311985 -0.00648954
v -0.02405618 -0.02274672 -0.00656156
v -0.02396315 -0.02285535 -0.00461051
v -0.02167475 -0.02351187 -0.00612836
v -0.02217708 -0.02340796 -0.00554893
v -0.02114451 -0.02364884 -0.00461051
v -0.02020496 -0.02383777 -0.00554893
v -0.01926541 -0.02395585 -0.00273039
v -0.01832586 -0.02402670 -0.00461051
v -0.01738631 -0.02409282 -0.00554893
v 0.01644676 -0.02406448 -0.00648954
v -0.01644676 -0.02412116 -0.00554893
v 0.01738631 -0.02381888 -0.00742906
v 0.01832586 -0.02375275 -0.00742906
v 0.01644676 -0.02385194 -0.00742906
v 0.02020496 -0.02361106 -0.00729375
v 0.01933983 -0.02364412 -0.00751853
v 0.01969332 -0.02349298 -0.00789172
v 0.02020496 -0.02310096 -0.00836966
v 0.01644676 -0.02114557 -0.01020396
v 0.01644676 -0.02020566 -0.01044184
v -0.02303291 -0.01679082 -0.01062952
v -0.01644676 -0.01926575 -0.01051167
v 0.01933983 -0.02326627 -0.00829874
v 0.01926541 -0.02274200 -0.00903638
v 0.01926541 -0.02221300 -0.00950559
v 0.01832586 -0.02224607 -0.00954051
v 0.01738631 -0.02227913 -0.00957325
v 0.01832586 -0.02177847 -0.00987878
v 0.01738631 -0.02181153 -0.00989733
v 0.01644676 -0.02182570 -0.00990606
v -0.01738631 -0.01926575 -0.01051058
v -0.01832586 -0.01926575 -0.01050840
v -0.01926541 -0.01926575 -0.01050403
v -0.01738631 -0.02020566 -0.01043638
v -0.01832586 -0.02020566 -0.01042547
v -0.01738631 -0.02114557 -0.01019086
v -0.01832586 -0.02114557 -0.01016467
v -0.01926541 -0.02114557 -0.01013412
v -0.02020496 -0.02167456 -0.00981768
v -0.02107009 -0.02120225 -0.00995189
v -0.01926541 -0.02174069 -0.00985914
v -0.02070729 -0.02162261 -0.00978385
v -0.02020496 -0.02214688 -0.00944012
v -0.02020496 -0.02267587 -0.00896982
v -0.02090264 -0.02260503 -0.00889453
v -0.02152591 -0.02253418 -0.00881160
v -0.02118172 -0.02284591 -0.00844714
v -0.02208406 -0.02277506 -0.00825072
v -0.02020496 -0.02345047 -0.00776405
v -0.02117241 -0.02336545 -0.00742033
v -0.02087474 -0.02354494 -0.00709952
v -0.02150730 -0.02347409 -0.00675470
v -0.02202824 -0.02338907 -0.00646008
v -0.02117241 -0.02358272 -0.00646008
v -0.02020496 -0.02377637 -0.00648954
v -0.02114451 -0.02364412 -0.00554893
v -0.02170266 -0.02351660 -0.00554893
v -0.01926541 -0.02389445 -0.00648954
v -0.01926541 -0.02395113 -0.00554893
v -0.01738631 -0.02403614 -0.00648954
v -0.01644676 -0.02406448 -0.00648954
v 0.01738631 -0.02358272 -0.00804885
v 0.01832586 -0.02354494 -0.00798993
v 0.01907006 -0.02351660 -0.00793755
v 0.01644676 -0.02359689 -0.00807723
v -0.01644676 -0.02385194 -0.00742906
v -0.01644676 -0.02114557 -0.01020396
v -0.01644676 -0.02020566 -0.01044184
v 0.01832586 -0.02324738 -0.00845914
v 0.01738631 -0.02328516 -0.00851916
v 0.01832586 -0.02277978 -0.00907021
v 0.01738631 -0.02281285 -0.00910295
v 0.01644676 -0.02283174 -0.00911822
v 0.01644676 -0.02229802 -0.00958743
v -0.01644676 -0.02182570 -0.00990606
v -0.01738631 -0.02181153 -0.00989733
v -0.01832586 -0.02177847 -0.00987878
v -0.01926541 -0.02221300 -0.00950559
v -0.01738631 -0.02227913 -0.00957325
v -0.01832586 -0.02224607 -0.00954051
v -0.01926541 -0.02274200 -0.00903638
v -0.02020496 -0.02310096 -0.00836966
v -0.01933983 -0.02326627 -0.00829874
v -0.01969332 -0.02349298 -0.00789172
v -0.02020496 -0.02361106 -0.00729375
v -0.01933983 -0.02364412 -0.00751853
v -0.01832586 -0.02375275 -0.00742906
v -0.01738631 -0.02381888 -0.00742906
v 0.01644676 -0.02329933 -0.00854753
v -0.01644676 -0.02359689 -0.00807723
v -0.01738631 -0.02358272 -0.00804885
v -0.01644676 -0.02283174 -0.00911822
v -0.01644676 -0.02229802 -0.00958743
v -0.01832586 -0.02277978 -0.00907021
v -0.01738631 -0.02281285 -0.00910295
v -0.01738631 -0.02328516 -0.00851916
v -0.01832586 -0.02324738 -0.00845914
v -0.01832586 -0.02354494 -0.00798993
v -0.01907006 -0.02351660 -0.00793755
v -0.01644676 -0.02329933 -0.00854753
f 1 2 3
f 1 3 4
f 1 4 13
f 1 13 5
f 1 5 17
f 1 17 6
f 1 6 11
f 1 11 2
f 2 7 8
f 2 8 9
f 2 9 10
f 2 10 3
f 2 11 21
f 2 21 7
f 3 10 12
f 3 12 4
f 4 12 14
f 4 14 15
f 4 15 29
f 4 29 13
f 5 13 16
f 5 16 34
f 5 34 17
f 6 17 35
f 6 35 18
f 6 18 19
f 6 19 11
f 7 20 22
f 7 22 8
f 7 21 40
f 7 40 20
f 8 22 9
f 9 22 10
f 10 14 12
f 10 22 23
f 10 23 24
f 10 24 14
f 11 19 25
f 11 25 26
f 11 26 27
f 11 27 21
f 13 28 33
f 13 33 16
f 13 29 30
f 13 30 51
f 13 51 28
f 14 24 31
f 14 31 15
f 15 31 32
f 15 32 53
f 15 53 29
f 16 33 57
f 16 57 34
f 17 34 35
f 18 35 60
f 18 60 36
f 18 36 37
f 18 37 38
f 18 38 19
f 19 38 25
f 20 39 22
f 20 40 65
f 20 65 98
f 20 98 142
f 20 142 201
f 20 201 263
f 20 263 326
f 20 326 367
f 20 367 313
f 20 313 251
f 20 251 193
f 20 193 136
f 20 136 94
f 20 94 63
f 20 63 39
f 21 27 48
f 21 48 40
f 22 39 41
f 22 41 23
f 23 42 24
f 23 41 43
f 23 43 44
f 23 44 42
f 24 42 45
f 24 45 31
f 25 38 37
f 25 37 46
f 25 46 47
f 25 47 48
f 25 48 26
f 26 48 27
f 28 49 50
f 28 50 33
f 28 51 52
f 28 52 49
f 29 53 30
f 30 53 54
f 30 54 51
f 31 55 56
f 31 56 32
f 31 45 55
f 32 56 54
f 32 54 53
f 33 50 79
f 33 79 57
f 34 57 58
f 34 58 35
f 35 58 90
f 35 90 59
f 35 59 60
f 36 60 61
f 36 61 62
f 36 62 37
f 37 62 46
f 39 63 64
f 39 64 43
f 39 43 41
f 40 48 65
f 42 66 45
f 42 44 67
f 42 67 68
f 42 68 69
f 42 69 66
f 43 64 67
f 43 67 44
f 45 66 55
f 46 62 70
f 46 70 71
f 46 71 47
f 47 71 72
f 47 72 73
f 47 73 74
f 47 74 48
f 48 74 65
f 49 75 50
f 49 52 76
f 49 76 77
f 49 77 75
f 50 75 78
f 50 78 114
f 50 114 79
f 51 80 52
f 51 54 81
f 51 81 82
f 51 82 80
f 52 80 76
f 54 56 87
f 54 87 83
f 54 83 84
f 54 84 85
f 54 85 81
f 55 86 56
f 55 66 86
f 56 86 87
f 57 79 58
f 58 88 89
f 58 89 90
f 58 79 88
f 59 61 60
f 59 90 91
f 59 91 61
f 61 91 92
f 61 92 62
f 62 92 93
f 62 93 70
f 63 94 64
f 64 94 95
f 64 95 96
f 64 96 67
f 65 74 73
f 65 73 97
f 65 97 98
f 66 69 99
f 66 99 86
f 67 96 100
f 67 100 101
f 67 101 102
f 67 102 68
f 68 102 99
f 68 99 69
f 70 103 71
f 70 93 103
f 71 103 104
f 71 104 105
f 71 105 106
f 71 106 72
f 72 106 73
f 73 106 97
f 75 107 113
f 75 113 78
f 75 77 108
f 75 108 156
f 75 156 107
f 76 109 77
f 76 80 82
f 76 82 110
f 76 110 111
f 76 111 112
f 76 112 109
f 77 109 108
f 78 113 168
f 78 168 114
f 79 114 115
f 79 115 88
f 81 85 116
f 81 116 117
f 81 117 118
f 81 118 82
f 82 118 110
f 83 87 126
f 83 126 119
f 83 119 120
f 83 120 84
f 84 120 85
f 85 120 121
f 85 121 122
f 85 122 123
f 85 123 124
f 85 124 117
f 85 117 116
f 86 99 125
f 86 125 126
f 86 126 87
f 88 115 127
f 88 127 128
f 88 128 89
f 89 128 129
f 89 129 90
f 90 129 130
f 90 130 131
f 90 131 91
f 91 131 132
f 91 132 133
f 91 133 134
f 91 134 92
f 92 134 135
f 92 135 93
f 93 135 103
f 94 136 137
f 94 137 95
f 95 137 195
f 95 195 138
f 95 138 96
f 96 138 139
f 96 139 100
f 97 106 140
f 97 140 141
f 97 141 142
f 97 142 98
f 99 143 144
f 99 144 145
f 99 145 125
f 99 102 146
f 99 146 143
f 100 139 147
f 100 147 101
f 101 147 148
f 101 148 102
f 102 148 149
f 102 149 150
f 102 150 146
f 103 135 151
f 103 151 104
f 104 151 105
f 105 152 106
f 105 151 152
f 106 152 153
f 106 153 154
f 106 154 140
f 107 155 113
f 107 156 157
f 107 157 158
f 107 158 155
f 108 109 156
f 109 112 159
f 109 159 157
f 109 157 156
f 110 118 160
f 110 160 161
f 110 161 162
f 110 162 111
f 111 163 164
f 111 164 112
f 111 162 163
f 112 164 165
f 112 165 166
f 112 166 159
f 113 155 167
f 113 167 228
f 113 228 168
f 114 168 169
f 114 169 115
f 115 169 232
f 115 232 170
f 115 170 127
f 117 124 123
f 117 123 171
f 117 171 161
f 117 161 118
f 118 161 160
f 119 121 120
f 119 126 125
f 119 125 122
f 119 122 121
f 122 125 176
f 122 176 172
f 122 172 173
f 122 173 123
f 123 173 174
f 123 174 175
f 123 175 171
f 125 145 176
f 127 170 177
f 127 177 128
f 128 177 178
f 128 178 179
f 128 179 180
f 128 180 130
f 128 130 129
f 130 180 181
f 130 181 131
f 131 181 182
f 131 182 183
f 131 183 132
f 132 184 133
f 132 183 182
f 132 182 185
f 132 185 186
f 132 186 187
f 132 187 188
f 132 188 184
f 133 184 189
f 133 189 134
f 134 189 135
f 135 189 190
f 135 190 191
f 135 191 151
f 136 192 137
f 136 193 192
f 137 192 194
f 137 194 195
f 138 195 254
f 138 254 196
f 138 196 139
f 139 196 197
f 139 197 147
f 140 154 198
f 140 198 199
f 140 199 141
f 141 200 201
f 141 201 142
f 141 199 260
f 141 260 200
f 143 202 203
f 143 203 144
f 143 146 204
f 143 204 202
f 144 203 172
f 144 172 176
f 144 176 145
f 146 150 210
f 146 210 204
f 147 197 205
f 147 205 148
f 148 205 206
f 148 206 149
f 149 207 208
f 149 208 209
f 149 209 150
f 149 206 207
f 150 209 210
f 151 191 211
f 151 211 212
f 151 212 213
f 151 213 152
f 152 213 214
f 152 214 215
f 152 215 216
f 152 216 153
f 153 216 217
f 153 217 154
f 154 217 198
f 155 218 167
f 155 158 221
f 155 221 218
f 157 219 158
f 157 159 220
f 157 220 219
f 158 219 221
f 159 166 222
f 159 222 220
f 161 171 223
f 161 223 162
f 162 223 224
f 162 224 225
f 162 225 163
f 163 222 165
f 163 165 164
f 163 225 224
f 163 224 226
f 163 226 222
f 165 222 166
f 167 218 227
f 167 227 293
f 167 293 228
f 168 228 229
f 168 229 169
f 169 229 230
f 169 230 231
f 169 231 232
f 170 232 177
f 171 233 223
f 171 175 233
f 172 203 173
f 173 203 202
f 173 202 234
f 173 234 174
f 174 234 235
f 174 235 175
f 175 235 204
f 175 204 233
f 177 232 231
f 177 231 236
f 177 236 178
f 178 236 237
f 178 237 238
f 178 238 239
f 178 239 179
f 179 239 240
f 179 240 241
f 179 241 180
f 180 241 242
f 180 242 243
f 180 243 181
f 181 243 242
f 181 242 182
f 182 242 244
f 182 244 186
f 182 186 185
f 184 188 245
f 184 245 190
f 184 190 189
f 186 244 246
f 186 246 247
f 186 247 248
f 186 248 187
f 187 248 211
f 187 211 191
f 187 191 190
f 187 190 245
f 187 245 188
f 192 249 250
f 192 250 194
f 192 193 251
f 192 251 249
f 194 250 252
f 194 252 253
f 194 253 195
f 195 253 254
f 196 255 256
f 196 256 197
f 196 254 317
f 196 317 255
f 197 256 257
f 197 257 264
f 197 264 205
f 198 217 258
f 198 258 259
f 198 259 199
f 199 259 321
f 199 321 260
f 200 261 262
f 200 262 201
f 200 260 261
f 201 262 263
f 202 204 234
f 204 224 223
f 204 223 233
f 204 235 234
f 204 210 209
f 204 209 208
f 204 208 207
f 204 207 265
f 204 265 264
f 204 264 257
f 204 257 256
f 204 256 255
f 204 255 317
f 204 317 372
f 204 372 371
f 204 371 417
f 204 417 451
f 204 451 413
f 204 413 411
f 204 411 412
f 204 412 410
f 204 410 409
f 204 409 450
f 204 450 487
f 204 487 533
f 204 533 589
f 204 589 550
f 204 550 502
f 204 502 455
f 204 455 463
f 204 463 460
f 204 460 462
f 204 462 461
f 204 461 500
f 204 500 452
f 204 452 418
f 204 418 374
f 204 374 373
f 204 373 320
f 204 320 319
f 204 319 318
f 204 318 328
f 204 328 327
f 204 327 271
f 204 271 270
f 204 270 269
f 204 269 268
f 204 268 267
f 204 267 300
f 204 300 355
f 204 355 399
f 204 399 432
f 204 432 386
f 204 386 333
f 204 333 281
f 204 281 224
f 205 264 265
f 205 265 206
f 206 265 207
f 211 248 266
f 211 266 212
f 212 266 267
f 212 267 213
f 213 267 268
f 213 268 214
f 214 268 269
f 214 269 270
f 214 270 215
f 215 270 271
f 215 271 327
f 215 327 272
f 215 272 216
f 216 272 273
f 216 273 217
f 217 273 258
f 218 274 227
f 218 221 275
f 218 275 276
f 218 276 274
f 219 275 221
f 219 220 277
f 219 277 275
f 220 278 277
f 220 222 279
f 220 279 280
f 220 280 278
f 222 226 224
f 222 224 279
f 224 281 282
f 224 282 283
f 224 283 284
f 224 284 285
f 224 285 286
f 224 286 287
f 224 287 288
f 224 288 289
f 224 289 290
f 224 290 291
f 224 291 280
f 224 280 279
f 227 274 292
f 227 292 339
f 227 339 293
f 228 293 294
f 228 294 229
f 229 294 295
f 229 295 230
f 230 295 296
f 230 296 231
f 231 296 297
f 231 297 236
f 236 297 298
f 236 298 237
f 237 298 238
f 238 298 240
f 238 240 239
f 240 298 299
f 240 299 300
f 240 300 301
f 240 301 241
f 241 301 300
f 241 300 302
f 241 302 242
f 242 302 244
f 244 302 303
f 244 303 246
f 246 304 247
f 246 303 267
f 246 267 304
f 247 304 305
f 247 305 248
f 248 305 266
f 249 251 306
f 249 306 307
f 249 307 308
f 249 308 250
f 250 309 310
f 250 310 311
f 250 311 252
f 250 308 312
f 250 312 309
f 251 313 314
f 251 314 306
f 252 311 315
f 252 315 253
f 253 315 316
f 253 316 254
f 254 316 372
f 254 372 317
f 258 318 319
f 258 319 320
f 258 320 259
f 258 273 318
f 259 320 373
f 259 373 321
f 260 322 261
f 260 321 322
f 261 323 324
f 261 324 262
f 261 322 323
f 262 324 325
f 262 325 326
f 262 326 263
f 266 305 267
f 267 305 304
f 267 303 302
f 267 302 300
f 272 327 328
f 272 328 273
f 273 328 318
f 274 329 292
f 274 276 330
f 274 330 331
f 274 331 329
f 275 330 276
f 275 277 290
f 275 290 330
f 277 278 291
f 277 291 332
f 277 332 290
f 278 280 291
f 281 333 334
f 281 334 282
f 282 334 335
f 282 335 283
f 283 335 336
f 283 336 284
f 284 336 337
f 284 337 285
f 285 337 286
f 286 337 329
f 286 329 331
f 286 331 330
f 286 330 287
f 287 330 288
f 288 330 290
f 288 290 289
f 290 332 291
f 292 329 338
f 292 338 388
f 292 388 339
f 293 339 340
f 293 340 294
f 294 340 341
f 294 341 342
f 294 342 295
f 295 342 296
f 296 342 343
f 296 343 297
f 297 343 344
f 297 344 345
f 297 345 346
f 297 346 298
f 298 346 300
f 298 300 299
f 300 346 345
f 300 345 347
f 300 347 348
f 300 348 349
f 300 349 350
f 300 350 351
f 300 351 352
f 300 352 353
f 300 353 354
f 300 354 355
f 306 314 307
f 307 312 308
f 307 314 356
f 307 356 357
f 307 357 312
f 309 312 358
f 309 358 359
f 309 359 310
f 310 359 360
f 310 360 361
f 310 361 362
f 310 362 363
f 310 363 311
f 311 363 315
f 312 364 365
f 312 365 358
f 312 357 364
f 313 366 368
f 313 368 314
f 313 367 416
f 313 416 366
f 314 368 369
f 314 369 356
f 315 370 316
f 315 363 370
f 316 370 371
f 316 371 372
f 321 374 375
f 321 375 322
f 321 373 374
f 322 375 376
f 322 376 323
f 323 377 324
f 323 376 377
f 324 377 378
f 324 378 379
f 324 379 380
f 324 380 381
f 324 381 325
f 325 381 382
f 325 382 383
f 325 383 326
f 326 383 384
f 326 384 367
f 329 337 338
f 333 385 334
f 333 386 385
f 334 385 335
f 335 338 336
f 335 385 398
f 335 398 387
f 335 387 388
f 335 388 338
f 336 338 337
f 339 388 389
f 339 389 340
f 340 389 390
f 340 390 391
f 340 391 341
f 341 391 342
f 342 391 348
f 342 348 343
f 343 348 392
f 343 392 347
f 343 347 344
f 344 347 345
f 347 392 348
f 348 350 349
f 348 391 350
f 350 391 351
f 351 391 390
f 351 390 352
f 352 390 389
f 352 389 393
f 352 393 353
f 353 393 354
f 354 393 394
f 354 394 387
f 354 387 395
f 354 395 355
f 355 395 396
f 355 396 397
f 355 397 398
f 355 398 399
f 356 369 400
f 356 400 401
f 356 401 402
f 356 402 403
f 356 403 357
f 357 403 404
f 357 404 364
f 358 365 359
f 359 365 405
f 359 405 406
f 359 406 407
f 359 407 408
f 359 408 360
f 360 409 410
f 360 410 361
f 360 408 444
f 360 444 409
f 361 411 362
f 361 410 412
f 361 412 411
f 362 413 451
f 362 451 414
f 362 414 363
f 362 411 413
f 363 414 370
f 364 415 365
f 364 404 415
f 365 415 405
f 366 400 368
f 366 416 434
f 366 434 400
f 367 384 431
f 367 431 416
f 368 400 369
f 370 417 371
f 370 414 451
f 370 451 417
f 374 418 375
f 375 418 452
f 375 452 419
f 375 419 376
f 376 419 420
f 376 420 377
f 377 420 378
f 378 421 422
f 378 422 379
f 378 420 423
f 378 423 424
f 378 424 421
f 379 422 425
f 379 425 380
f 380 426 427
f 380 427 428
f 380 428 382
f 380 382 381
f 380 425 426
f 382 428 429
f 382 429 384
f 382 384 383
f 384 429 430
f 384 430 431
f 385 386 432
f 385 432 399
f 385 399 398
f 387 398 397
f 387 397 396
f 387 396 395
f 387 394 388
f 388 394 393
f 388 393 389
f 400 433 401
f 400 434 470
f 400 470 433
f 401 433 435
f 401 435 402
f 402 435 403
f 403 435 436
f 403 436 404
f 404 437 415
f 404 436 438
f 404 438 437
f 405 415 437
f 405 437 439
f 405 439 440
f 405 440 441
f 405 441 406
f 406 441 477
f 406 477 442
f 406 442 443
f 406 443 407
f 407 443 444
f 407 444 408
f 409 444 445
f 409 445 446
f 409 446 447
f 409 447 448
f 409 448 449
f 409 449 450
f 416 431 434
f 419 453 420
f 419 452 500
f 419 500 453
f 420 453 423
f 421 454 422
f 421 424 463
f 421 463 455
f 421 455 501
f 421 501 454
f 422 454 456
f 422 456 457
f 422 457 458
f 422 458 459
f 422 459 426
f 422 426 425
f 423 460 424
f 423 453 461
f 423 461 462
f 423 462 460
f 424 460 463
f 426 459 464
f 426 464 427
f 427 464 465
f 427 465 428
f 428 465 466
f 428 466 429
f 429 466 467
f 429 467 468
f 429 468 434
f 429 434 430
f 430 434 431
f 433 469 471
f 433 471 435
f 433 470 518
f 433 518 469
f 434 468 470
f 435 471 472
f 435 472 436
f 436 472 474
f 436 474 438
f 437 473 475
f 437 475 439
f 437 438 474
f 437 474 473
f 439 475 476
f 439 476 440
f 440 476 477
f 440 477 441
f 442 478 443
f 442 477 479
f 442 479 480
f 442 480 478
f 443 481 445
f 443 445 444
f 443 478 481
f 445 481 446
f 446 481 447
f 447 481 478
f 447 478 482
f 447 482 448
f 448 482 449
f 449 482 483
f 449 483 484
f 449 484 450
f 450 485 486
f 450 486 487
f 450 484 488
f 450 488 489
f 450 489 490
f 450 490 491
f 450 491 492
f 450 492 493
f 450 493 494
f 450 494 495
f 450 495 496
f 450 496 497
f 450 497 498
f 450 498 499
f 450 499 485
f 453 500 461
f 454 501 509
f 454 509 456
f 455 502 503
f 455 503 504
f 455 504 505
f 455 505 506
f 455 506 507
f 455 507 501
f 456 508 457
f 456 509 570
f 456 570 508
f 457 508 458
f 458 508 570
f 458 570 510
f 458 510 572
f 458 572 511
f 458 511 459
f 459 512 513
f 459 513 464
f 459 511 512
f 464 513 465
f 465 513 514
f 465 514 515
f 465 515 466
f 466 515 516
f 466 516 467
f 467 516 468
f 468 516 470
f 469 517 471
f 469 518 579
f 469 579 517
f 470 516 577
f 470 577 518
f 471 519 522
f 471 522 520
f 471 520 474
f 471 474 472
f 471 517 578
f 471 578 519
f 473 521 480
f 473 480 475
f 473 474 520
f 473 520 522
f 473 522 521
f 475 480 476
f 476 480 479
f 476 479 477
f 478 480 523
f 478 523 524
f 478 524 482
f 480 525 524
f 480 524 523
f 480 521 525
f 482 524 483
f 483 524 526
f 483 526 527
f 483 527 528
f 483 528 484
f 484 528 529
f 484 529 489
f 484 489 488
f 485 499 530
f 485 530 486
f 486 530 531
f 486 531 588
f 486 588 532
f 486 532 487
f 487 532 534
f 487 534 535
f 487 535 536
f 487 536 533
f 489 529 537
f 489 537 538
f 489 538 491
f 489 491 490
f 491 538 539
f 491 539 540
f 491 540 541
f 491 541 492
f 492 541 493
f 493 542 494
f 493 541 542
f 494 542 543
f 494 543 544
f 494 544 495
f 495 543 545
f 495 545 546
f 495 546 497
f 495 497 496
f 495 544 543
f 497 546 498
f 498 546 547
f 498 547 499
f 499 547 548
f 499 548 530
f 501 507 549
f 501 549 509
f 502 550 551
f 502 551 552
f 502 552 553
f 502 553 554
f 502 554 555
f 502 555 556
f 502 556 557
f 502 557 558
f 502 558 559
f 502 559 560
f 502 560 561
f 502 561 562
f 502 562 563
f 502 563 564
f 502 564 565
f 502 565 503
f 503 565 566
f 503 566 567
f 503 567 504
f 504 567 505
f 505 567 568
f 505 568 569
f 505 569 506
f 506 569 507
f 507 569 549
f 509 549 570
f 510 570 549
f 510 549 568
f 510 568 571
f 510 571 572
f 511 572 573
f 511 573 512
f 512 573 574
f 512 574 513
f 513 574 575
f 513 575 514
f 514 575 576
f 514 576 515
f 515 576 577
f 515 577 516
f 517 579 629
f 517 629 578
f 518 577 579
f 519 580 581
f 519 581 522
f 519 578 582
f 519 582 580
f 521 583 526
f 521 526 524
f 521 524 525
f 521 522 583
f 522 581 584
f 522 584 583
f 526 583 528
f 526 528 527
f 528 583 585
f 528 585 529
f 529 585 586
f 529 586 537
f 530 548 587
f 530 587 531
f 531 587 588
f 532 588 534
f 533 536 590
f 533 590 589
f 534 588 535
f 535 588 536
f 536 588 636
f 536 636 590
f 537 586 538
f 538 586 539
f 539 586 540
f 540 586 591
f 540 591 592
f 540 592 541
f 541 543 542
f 541 592 593
f 541 593 543
f 543 593 545
f 545 593 594
f 545 594 595
f 545 595 596
f 545 596 546
f 546 596 597
f 546 597 547
f 547 597 548
f 548 597 598
f 548 598 587
f 549 569 568
f 550 589 590
f 550 590 599
f 550 599 600
f 550 600 601
f 550 601 551
f 551 601 636
f 551 636 602
f 551 602 603
f 551 603 552
f 552 603 553
f 553 603 604
f 553 604 605
f 553 605 606
f 553 606 554
f 554 606 555
f 555 606 557
f 555 557 556
f 557 607 608
f 557 608 558
f 557 606 609
f 557 609 607
f 558 608 607
f 558 607 610
f 558 610 559
f 559 610 611
f 559 611 560
f 560 611 561
f 561 611 612
f 561 612 613
f 561 613 614
f 561 614 563
f 561 563 562
f 563 614 615
f 563 615 616
f 563 616 565
f 563 565 564
f 565 616 617
f 565 617 566
f 566 617 618
f 566 618 619
f 566 619 620
f 566 620 567
f 567 620 568
f 568 620 621
f 568 621 571
f 571 620 622
f 571 622 623
f 571 623 574
f 571 574 624
f 571 624 625
f 571 625 572
f 571 621 620
f 572 625 573
f 573 624 574
f 573 625 624
f 574 623 626
f 574 626 627
f 574 627 575
f 575 627 576
f 576 627 577
f 577 628 629
f 577 629 579
f 577 627 626
f 577 626 628
f 578 629 634
f 578 634 582
f 580 630 631
f 580 631 632
f 580 632 585
f 580 585 581
f 580 582 630
f 581 585 584
f 582 633 630
f 582 634 658
f 582 658 633
f 583 584 585
f 585 632 591
f 585 591 586
f 587 598 643
f 587 643 635
f 587 635 636
f 587 636 588
f 590 636 599
f 591 632 631
f 591 631 637
f 591 637 592
f 592 637 638
f 592 638 639
f 592 639 593
f 593 639 594
f 594 639 640
f 594 640 595
f 595 597 596
f 595 640 641
f 595 641 642
f 595 642 597
f 597 642 598
f 598 642 661
f 598 661 643
f 599 636 600
f 600 636 601
f 602 636 635
f 602 635 603
f 603 635 604
f 604 644 605
f 604 635 643
f 604 643 644
f 605 644 606
f 606 644 645
f 606 645 609
f 607 611 610
f 607 609 646
f 607 646 611
f 609 645 647
f 609 647 648
f 609 648 646
f 611 646 649
f 611 649 612
f 612 650 613
f 612 649 651
f 612 651 650
f 613 650 614
f 614 650 615
f 615 650 616
f 616 650 652
f 616 652 617
f 617 653 619
f 617 619 618
f 617 652 653
f 619 653 623
f 619 623 620
f 620 623 622
f 623 653 626
f 626 654 655
f 626 655 628
f 626 653 654
f 628 656 634
f 628 634 629
f 628 655 656
f 630 638 631
f 630 633 657
f 630 657 638
f 631 638 637
f 633 658 668
f 633 668 657
f 634 656 659
f 634 659 658
f 638 640 639
f 638 657 640
f 640 657 641
f 641 657 668
f 641 668 660
f 641 660 661
f 641 661 642
f 643 661 644
f 644 661 647
f 644 647 645
f 646 648 662
f 646 662 649
f 647 661 660
f 647 660 663
f 647 663 662
f 647 662 648
f 649 662 664
f 649 664 665
f 649 665 651
f 650 651 652
f 651 665 666
f 651 666 667
f 651 667 652
f 652 667 656
f 652 656 655
f 652 655 654
f 652 654 653
f 656 667 666
f 656 666 659
f 658 659 664
f 658 664 668
f 659 666 664
f 660 668 663
f 662 663 664
f 663 668 664
f 664 666 665

