# https://github.com/mikedh/trimesh
v 0.00999608 0.02400000 -0.00030129
v 0.00999608 0.02369929 -0.00000000
v 0.01171691 0.02362412 -0.00000000
v 0.01174041 0.02392012 -0.00030129
v 0.00999608 0.02400000 -0.00470086
v -0.00999608 0.02400000 -0.00030129
v -0.00999608 0.02369929 -0.00000000
v 0.01342012 0.02339859 -0.00000000
v 0.01346711 0.02369460 -0.00030129
v 0.01174041 0.02392012 -0.00470086
v 0.01171691 0.02362412 -0.00500039
v 0.00999608 0.02369929 -0.00500039
v -0.00999608 0.02400000 -0.00470086
v -0.01174041 0.02392012 -0.00030129
v -0.01171691 0.02362412 -0.00000000
v 0.01509397 0.02302741 -0.00000000
v 0.01517619 0.02331402 -0.00030129
v 0.01346711 0.02369460 -0.00470086
v 0.00880384 0.00948630 -0.01800000
v 0.01334965 0.02340799 -0.00500039
v 0.00849843 0.00949569 -0.01800000
v -0.00999608 0.02369929 -0.00500039
v -0.01171691 0.02362412 -0.00500039
v -0.01174041 0.02392012 -0.00470086
v -0.01346711 0.02369460 -0.00030129
v -0.01342012 0.02339859 -0.00000000
v 0.01673258 0.02251057 -0.00000000
v 0.01683829 0.02279248 -0.00030129
v 0.01517619 0.02331402 -0.00470086
v 0.01342012 0.02339859 -0.00500039
v 0.01509397 0.02302741 -0.00500039
v 0.00910337 0.00944401 -0.01800000
v -0.00849843 0.00949569 -0.01800000
v -0.00880384 0.00948630 -0.01800000
v -0.01334965 0.02340799 -0.00500039
v -0.01346711 0.02369460 -0.00470086
v -0.01517619 0.02331402 -0.00030129
v -0.01509397 0.02302741 -0.00000000
v 0.01699687 0.02240250 -0.00000000
v 0.01683829 0.02279248 -0.00470086
v 0.01832420 0.02185278 -0.00000000
v 0.01844753 0.02212529 -0.00030129
v 0.00940290 0.00937823 -0.01800000
v 0.01673258 0.02251057 -0.00500039
v -0.00910337 0.00944401 -0.01800000
v -0.01342012 0.02339859 -0.00500039
v -0.01509397 0.02302741 -0.00500039
v -0.01517619 0.02331402 -0.00470086
v -0.01683829 0.02279248 -0.00030129
v -0.01673258 0.02251057 -0.00000000
v 0.01699687 0.02240250 -0.00500039
v 0.01844753 0.02212529 -0.00470086
v 0.01832420 0.02185278 -0.00500039
v 0.01958105 0.02119969 -0.00000000
v 0.01999804 0.02131715 -0.00030129
v 0.00969655 0.00928426 -0.01800000
v 0.00997846 0.00917150 -0.01800000
v -0.00940290 0.00937823 -0.01800000
v -0.01673258 0.02251057 -0.00500039
v -0.01683829 0.02279248 -0.00470086
v -0.01844753 0.02212529 -0.00030129
v -0.01832420 0.02185278 -0.00000000
v -0.01699687 0.02240250 -0.00000000
v 0.01999804 0.02131715 -0.00470086
v 0.01984534 0.02105873 -0.00500039
v 0.01024863 0.00903054 -0.01800000
v 0.01984534 0.02105873 -0.00000000
v 0.02146633 0.02038215 -0.00030129
v -0.00969655 0.00928426 -0.01800000
v -0.01699687 0.02240250 -0.00500039
v -0.00997846 0.00917150 -0.01800000
v -0.01832420 0.02185278 -0.00500039
v -0.01844753 0.02212529 -0.00470086
v -0.01999804 0.02131715 -0.00030129
v -0.01958105 0.02119969 -0.00000000
v 0.02146633 0.02038215 -0.00470086
v 0.02129601 0.02013312 -0.00500039
v 0.01050705 0.00886609 -0.01800000
v 0.02129601 0.02013312 -0.00000000
v 0.02265857 0.01909005 -0.00000000
v 0.02285239 0.01932028 -0.00030129
v -0.01024863 0.00903054 -0.01800000
v -0.01984534 0.02105873 -0.00500039
v -0.01999804 0.02131715 -0.00470086
v -0.01984534 0.02105873 -0.00000000
v -0.02146633 0.02038215 -0.00030129
v 0.02285239 0.01932028 -0.00470086
v 0.02265857 0.01909005 -0.00500039
v 0.01074785 0.00867815 -0.01800000
v 0.02392717 0.01792952 -0.00000000
v 0.02413861 0.01814095 -0.00030129
v -0.01050705 0.00886609 -0.01800000
v -0.02129601 0.02013312 -0.00500039
v -0.02146633 0.02038215 -0.00470086
v -0.02129601 0.02013312 -0.00000000
v -0.02285239 0.01932028 -0.00030129
v -0.02265857 0.01909005 -0.00000000
v 0.02413861 0.01814095 -0.00470086
v 0.02392717 0.01792952 -0.00500039
v 0.01097103 0.00847142 -0.01800000
v 0.02509005 0.01666092 -0.00000000
v 0.02531911 0.01685356 -0.00030129
v -0.01074785 0.00867815 -0.01800000
v -0.02265857 0.01909005 -0.00500039
v -0.02285239 0.01932028 -0.00470086
v -0.02413861 0.01814095 -0.00030129
v -0.02392717 0.01792952 -0.00000000
v 0.02531911 0.01685356 -0.00470086
v 0.02509005 0.01666092 -0.00500039
v 0.01117659 0.00824589 -0.01800000
v 0.02613547 0.01529835 -0.00000000
v 0.02638214 0.01546750 -0.00030129
v -0.01097103 0.00847142 -0.01800000
v -0.02392717 0.01792952 -0.00500039
v -0.02413861 0.01814095 -0.00470086
v -0.02531911 0.01685356 -0.00030129
v -0.02509005 0.01666092 -0.00000000
v 0.02638214 0.01546750 -0.00470086
v 0.02613547 0.01529835 -0.00500039
v 0.01136453 0.00800626 -0.01800000
v 0.02705756 0.01384651 -0.00000000
v 0.02731597 0.01399687 -0.00030129
v -0.01117659 0.00824589 -0.01800000
v -0.02509005 0.01666092 -0.00500039
v -0.02531911 0.01685356 -0.00470086
v -0.02638214 0.01546750 -0.00030129
v -0.02613547 0.01529835 -0.00000000
v 0.02731597 0.01399687 -0.00470086
v 0.02705756 0.01384651 -0.00500039
v 0.01152897 0.00774785 -0.01800000
v 0.02719851 0.01357870 -0.00000000
v 0.02812060 0.01245106 -0.00030129
v -0.01136453 0.00800626 -0.01800000
v -0.02613547 0.01529835 -0.00500039
v -0.02638214 0.01546750 -0.00470086
v -0.02731597 0.01399687 -0.00030129
v -0.02705756 0.01384651 -0.00000000
v 0.02812060 0.01245106 -0.00470086
v 0.02785043 0.01232420 -0.00500039
v 0.01166993 0.00747533 -0.01800000
v 0.02785043 0.01232420 -0.00000000
v 0.02879013 0.01083947 -0.00030129
v -0.01152897 0.00774785 -0.01800000
v -0.02705756 0.01384651 -0.00500039
v -0.02731597 0.01399687 -0.00470086
v -0.02812060 0.01245106 -0.00030129
v -0.02785043 0.01232420 -0.00000000
v 0.02879013 0.01083947 -0.00470086
v 0.02850822 0.01073610 -0.00500039
v 0.01178739 0.00719342 -0.01800000
v 0.02850822 0.01073610 -0.00000000
v 0.02902506 0.00909632 -0.00000000
v 0.02931284 0.00917619 -0.00030129
v -0.01166993 0.00747533 -0.01800000
v -0.02785043 0.01232420 -0.00500039
v -0.02812060 0.01245106 -0.00470086
v -0.02879013 0.01083947 -0.00030129
v -0.02850822 0.01073610 -0.00000000
v 0.02931284 0.00917619 -0.00470086
v 0.02902506 0.00909632 -0.00500039
v 0.01187549 0.00690211 -0.01800000
v 0.02916014 0.00849961 -0.00000000
v 0.02969460 0.00747063 -0.00030129
v -0.01178739 0.00719342 -0.01800000
v -0.02850822 0.01073610 -0.00500039
v -0.02879013 0.01083947 -0.00470086
v -0.02931284 0.00917619 -0.00030129
v -0.02902506 0.00909632 -0.00000000
v 0.02969460 0.00747063 -0.00470086
v 0.02939507 0.00741895 -0.00500039
v 0.01194597 0.00660611 -0.01800000
v 0.02939507 0.00741895 -0.00000000
v 0.02962412 0.00571339 -0.00000000
v 0.02992365 0.00574158 -0.00030129
v -0.01187549 0.00690211 -0.01800000
v -0.02902506 0.00909632 -0.00500039
v -0.02931284 0.00917619 -0.00470086
v -0.02916014 0.00849961 -0.00000000
v -0.02969460 0.00747063 -0.00030129
v 0.02992365 0.00574158 -0.00470086
v 0.02962412 0.00571339 -0.00500039
v 0.02950666 0.00659671 -0.00500039
v 0.01198121 0.00630070 -0.01800000
v 0.02969460 0.00399843 -0.00000000
v 0.03000000 0.00399843 -0.00030129
v -0.01194597 0.00660611 -0.01800000
v -0.02939507 0.00741895 -0.00500039
v -0.02969460 0.00747063 -0.00470086
v -0.02939507 0.00741895 -0.00000000
v -0.02992365 0.00574158 -0.00030129
v -0.02962412 0.00571339 -0.00000000
v 0.03000000 0.00399843 -0.00470086
v 0.02969460 0.00399843 -0.00500039
v 0.01199883 0.00600000 -0.01800000
v 0.02969460 -0.00399843 -0.00000000
v 0.03000000 -0.00399843 -0.00030129
v -0.01198121 0.00630070 -0.01800000
v -0.02962412 0.00571339 -0.00500039
v -0.02950666 0.00659671 -0.00500039
v -0.02992365 0.00574158 -0.00470086
v -0.03000000 0.00399843 -0.00030129
v -0.02969460 0.00399843 -0.00000000
v 0.03000000 -0.00399843 -0.00470086
v 0.02969460 -0.00399843 -0.00500039
v 0.01199883 -0.00600000 -0.01800000
v 0.02962412 -0.00571339 -0.00000000
v 0.02992365 -0.00574158 -0.00030129
v -0.01199883 0.00600000 -0.01800000
v -0.02969460 0.00399843 -0.00500039
v -0.03000000 0.00399843 -0.00470086
v -0.03000000 -0.00399843 -0.00030129
v -0.02969460 -0.00399843 -0.00000000
v 0.02992365 -0.00574158 -0.00470086
v 0.02962412 -0.00571339 -0.00500039
v 0.01198121 -0.00630070 -0.01800000
v 0.02969460 -0.00747063 -0.00030129
v 0.02939507 -0.00741895 -0.00000000
v -0.01199883 -0.00600000 -0.01800000
v -0.02969460 -0.00399843 -0.00500039
v -0.03000000 -0.00399843 -0.00470086
v -0.02992365 -0.00574158 -0.00030129
v -0.02962412 -0.00571339 -0.00000000
v 0.02969460 -0.00747063 -0.00470086
v 0.02950666 -0.00659671 -0.00500039
v 0.01194597 -0.00660611 -0.01800000
v 0.02916014 -0.00849961 -0.00000000
v 0.02931284 -0.00917619 -0.00030129
v -0.01198121 -0.00630070 -0.01800000
v -0.02962412 -0.00571339 -0.00500039
v -0.02992365 -0.00574158 -0.00470086
v -0.02969460 -0.00747063 -0.00030129
v -0.02939507 -0.00741895 -0.00000000
v 0.02931284 -0.00917619 -0.00470086
v 0.02902506 -0.00909632 -0.00500039
v 0.02939507 -0.00741895 -0.00500039
v 0.01187549 -0.00690211 -0.01800000
v 0.02902506 -0.00909632 -0.00000000
v 0.02879013 -0.01083947 -0.00030129
v -0.01194597 -0.00660611 -0.01800000
v -0.02950666 -0.00659671 -0.00500039
v -0.02969460 -0.00747063 -0.00470086
v -0.02931284 -0.00917619 -0.00030129
v -0.02916014 -0.00849961 -0.00000000
v 0.02879013 -0.01083947 -0.00470086
v 0.02850822 -0.01073610 -0.00500039
v 0.01178739 -0.00719342 -0.01800000
v 0.02850822 -0.01073610 -0.00000000
v 0.02785043 -0.01232420 -0.00000000
v 0.02812060 -0.01245106 -0.00030129
v -0.01187549 -0.00690211 -0.01800000
v -0.02902506 -0.00909632 -0.00500039
v -0.02939507 -0.00741895 -0.00500039
v -0.02931284 -0.00917619 -0.00470086
v -0.02879013 -0.01083947 -0.00030129
v -0.02902506 -0.00909632 -0.00000000
v 0.02812060 -0.01245106 -0.00470086
v 0.02785043 -0.01232420 -0.00500039
v 0.01166993 -0.00747533 -0.01800000
v 0.02719851 -0.01357870 -0.00000000
v 0.02731597 -0.01399687 -0.00030129
v -0.01178739 -0.00719342 -0.01800000
v -0.02850822 -0.01073610 -0.00500039
v -0.02879013 -0.01083947 -0.00470086
v -0.02812060 -0.01245106 -0.00030129
v -0.02785043 -0.01232420 -0.00000000
v -0.02850822 -0.01073610 -0.00000000
v 0.02731597 -0.01399687 -0.00470086
v 0.02705756 -0.01384651 -0.00500039
v 0.01152897 -0.00774785 -0.01800000
v 0.02705756 -0.01384651 -0.00000000
v 0.02638214 -0.01546750 -0.00030129
v -0.01166993 -0.00747533 -0.01800000
v -0.02785043 -0.01232420 -0.00500039
v -0.02812060 -0.01245106 -0.00470086
v -0.02731597 -0.01399687 -0.00030129
v -0.02705756 -0.01384651 -0.00000000
v 0.02638214 -0.01546750 -0.00470086
v 0.02613547 -0.01529835 -0.00500039
v 0.01136453 -0.00800626 -0.01800000
v 0.02613547 -0.01529835 -0.00000000
v 0.02531911 -0.01685356 -0.00030129
v -0.01152897 -0.00774785 -0.01800000
v -0.02705756 -0.01384651 -0.00500039
v -0.02731597 -0.01399687 -0.00470086
v -0.02638214 -0.01546750 -0.00030129
v -0.02613547 -0.01529835 -0.00000000
v 0.02531911 -0.01685356 -0.00470086
v 0.02509005 -0.01666092 -0.00500039
v 0.01117659 -0.00824589 -0.01800000
v 0.02509005 -0.01666092 -0.00000000
v 0.02392717 -0.01792952 -0.00000000
v 0.02413861 -0.01814095 -0.00030129
v -0.01136453 -0.00800626 -0.01800000
v -0.02613547 -0.01529835 -0.00500039
v -0.02638214 -0.01546750 -0.00470086
v -0.02531911 -0.01685356 -0.00030129
v -0.02509005 -0.01666092 -0.00000000
v 0.02413861 -0.01814095 -0.00470086
v 0.02392717 -0.01792952 -0.00500039
v 0.01097103 -0.00847142 -0.01800000
v 0.02265857 -0.01909005 -0.00000000
v 0.02285239 -0.01932028 -0.00030129
v -0.01117659 -0.00824589 -0.01800000
v -0.02509005 -0.01666092 -0.00500039
v -0.02531911 -0.01685356 -0.00470086
v -0.02413861 -0.01814095 -0.00030129
v -0.02392717 -0.01792952 -0.00000000
v 0.02285239 -0.01932028 -0.00470086
v 0.02265857 -0.01909005 -0.00500039
v 0.01074785 -0.00867815 -0.01800000
v 0.02129601 -0.02013312 -0.00000000
v 0.02146633 -0.02038215 -0.00030129
v -0.01097103 -0.00847142 -0.01800000
v -0.02392717 -0.01792952 -0.00500039
v -0.02413861 -0.01814095 -0.00470086
v -0.02285239 -0.01932028 -0.00030129
v -0.02265857 -0.01909005 -0.00000000
v 0.02146633 -0.02038215 -0.00470086
v 0.02129601 -0.02013312 -0.00500039
v 0.01050705 -0.00886609 -0.01800000
v 0.01984534 -0.02105873 -0.00000000
v 0.01999804 -0.02131715 -0.00030129
v -0.01074785 -0.00867815 -0.01800000
v -0.02265857 -0.01909005 -0.00500039
v -0.02285239 -0.01932028 -0.00470086
v -0.02146633 -0.02038215 -0.00030129
v -0.02129601 -0.02013312 -0.00000000
v 0.01999804 -0.02131715 -0.00470086
v 0.01984534 -0.02105873 -0.00500039
v 0.01024863 -0.00903054 -0.01800000
v 0.01832420 -0.02185278 -0.00000000
v 0.01844753 -0.02212529 -0.00030129
v -0.01050705 -0.00886609 -0.01800000
v -0.02129601 -0.02013312 -0.00500039
v -0.02146633 -0.02038215 -0.00470086
v -0.01999804 -0.02131715 -0.00030129
v -0.01984534 -0.02105873 -0.00000000
v 0.01844753 -0.02212529 -0.00470086
v 0.01832420 -0.02185278 -0.00500039
v 0.00997846 -0.00917150 -0.01800000
v 0.01699687 -0.02240250 -0.00000000
v 0.01683829 -0.02279248 -0.00030129
v -0.01024863 -0.00903054 -0.01800000
v -0.01984534 -0.02105873 -0.00500039
v -0.01999804 -0.02131715 -0.00470086
v -0.01844753 -0.02212529 -0.00030129
v -0.01832420 -0.02185278 -0.00000000
v 0.01683829 -0.02279248 -0.00470086
v 0.01699687 -0.02240250 -0.00500039
v 0.00969655 -0.00928426 -0.01800000
v 0.01673258 -0.02251057 -0.00500039
v 0.01673258 -0.02251057 -0.00000000
v 0.01509397 -0.02302741 -0.00000000
v 0.01517619 -0.02331402 -0.00030129
v -0.00997846 -0.00917150 -0.01800000
v -0.01832420 -0.02185278 -0.00500039
v -0.01844753 -0.02212529 -0.00470086
v -0.01683829 -0.02279248 -0.00030129
v -0.01699687 -0.02240250 -0.00000000
v 0.01517619 -0.02331402 -0.00470086
v 0.01509397 -0.02302741 -0.00500039
v 0.00940290 -0.00937823 -0.01800000
v 0.01342012 -0.02339859 -0.00000000
v 0.01346711 -0.02369460 -0.00030129
v -0.00969655 -0.00928426 -0.01800000
v -0.01673258 -0.02251057 -0.00500039
v -0.01699687 -0.02240250 -0.00500039
v -0.01683829 -0.02279248 -0.00470086
v -0.01517619 -0.02331402 -0.00030129
v -0.01509397 -0.02302741 -0.00000000
v -0.01673258 -0.02251057 -0.00000000
v 0.01346711 -0.02369460 -0.00470086
v 0.01342012 -0.02339859 -0.00500039
v 0.00910337 -0.00944401 -0.01800000
v 0.01171691 -0.02362412 -0.00000000
v 0.01174041 -0.02392012 -0.00030129
v -0.00940290 -0.00937823 -0.01800000
v -0.01509397 -0.02302741 -0.00500039
v -0.01517619 -0.02331402 -0.00470086
v -0.01346711 -0.02369460 -0.00030129
v -0.01342012 -0.02339859 -0.00000000
v 0.01174041 -0.02392012 -0.00470086
v 0.01171691 -0.02362412 -0.00500039
v 0.01334965 -0.02340799 -0.00500039
v 0.00880384 -0.00948630 -0.01800000
v 0.00999608 -0.02369929 -0.00000000
v 0.00999608 -0.02400000 -0.00030129
v -0.00910337 -0.00944401 -0.01800000
v -0.01342012 -0.02339859 -0.00500039
v -0.01346711 -0.02369460 -0.00470086
v -0.01174041 -0.02392012 -0.00030129
v -0.01171691 -0.02362412 -0.00000000
v 0.00999608 -0.02400000 -0.00470086
v 0.00999608 -0.02369929 -0.00500039
v 0.00849843 -0.00949569 -0.01800000
v -0.00999608 -0.02369929 -0.00000000
v -0.00999608 -0.02400000 -0.00030129
v -0.00880384 -0.00948630 -0.01800000
v -0.01334965 -0.02340799 -0.00500039
v -0.01171691 -0.02362412 -0.00500039
v -0.01174041 -0.02392012 -0.00470086
v -0.00999608 -0.02400000 -0.00470086
v -0.00999608 -0.02369929 -0.00500039
v -0.00849843 -0.00949569 -0.01800000
f 1 2 3
f 1 3 4
f 1 4 10
f 1 10 5
f 1 5 13
f 1 13 6
f 1 6 7
f 1 7 2
f 2 7 15
f 2 15 26
f 2 26 38
f 2 38 50
f 2 50 63
f 2 63 62
f 2 62 75
f 2 75 85
f 2 85 95
f 2 95 97
f 2 97 107
f 2 107 117
f 2 117 127
f 2 127 137
f 2 137 147
f 2 147 158
f 2 158 168
f 2 168 178
f 2 178 189
f 2 189 191
f 2 191 202
f 2 202 212
f 2 212 222
f 2 222 232
f 2 232 243
f 2 243 255
f 2 255 266
f 2 266 265
f 2 265 276
f 2 276 286
f 2 286 297
f 2 297 307
f 2 307 317
f 2 317 327
f 2 327 337
f 2 337 347
f 2 347 359
f 2 359 371
f 2 371 370
f 2 370 381
f 2 381 392
f 2 392 396
f 2 396 386
f 2 386 375
f 2 375 363
f 2 363 353
f 2 353 352
f 2 352 341
f 2 341 331
f 2 331 321
f 2 321 311
f 2 311 301
f 2 301 291
f 2 291 290
f 2 290 280
f 2 280 270
f 2 270 259
f 2 259 248
f 2 248 247
f 2 247 237
f 2 237 226
f 2 226 217
f 2 217 206
f 2 206 195
f 2 195 184
f 2 184 173
f 2 173 172
f 2 172 162
f 2 162 152
f 2 152 151
f 2 151 141
f 2 141 131
f 2 131 121
f 2 121 111
f 2 111 101
f 2 101 90
f 2 90 80
f 2 80 79
f 2 79 67
f 2 67 54
f 2 54 41
f 2 41 39
f 2 39 27
f 2 27 16
f 2 16 8
f 2 8 3
f 3 8 9
f 3 9 4
f 4 9 18
f 4 18 10
f 5 10 11
f 5 11 12
f 5 12 22
f 5 22 13
f 6 13 24
f 6 24 14
f 6 14 15
f 6 15 7
f 8 16 9
f 9 16 17
f 9 17 29
f 9 29 18
f 10 18 11
f 11 19 12
f 11 18 20
f 11 20 19
f 12 19 21
f 12 21 33
f 12 33 22
f 13 22 23
f 13 23 24
f 14 24 36
f 14 36 25
f 14 25 15
f 15 25 26
f 16 27 28
f 16 28 17
f 17 28 40
f 17 40 29
f 18 30 20
f 18 29 31
f 18 31 30
f 19 32 43
f 19 43 56
f 19 56 57
f 19 57 66
f 19 66 78
f 19 78 89
f 19 89 100
f 19 100 110
f 19 110 120
f 19 120 130
f 19 130 140
f 19 140 150
f 19 150 161
f 19 161 171
f 19 171 183
f 19 183 194
f 19 194 205
f 19 205 215
f 19 215 225
f 19 225 236
f 19 236 246
f 19 246 258
f 19 258 269
f 19 269 279
f 19 279 289
f 19 289 300
f 19 300 310
f 19 310 320
f 19 320 330
f 19 330 340
f 19 340 350
f 19 350 362
f 19 362 374
f 19 374 385
f 19 385 395
f 19 395 404
f 19 404 398
f 19 398 388
f 19 388 377
f 19 377 365
f 19 365 355
f 19 355 343
f 19 343 333
f 19 333 323
f 19 323 313
f 19 313 303
f 19 303 293
f 19 293 282
f 19 282 272
f 19 272 261
f 19 261 250
f 19 250 239
f 19 239 228
f 19 228 218
f 19 218 208
f 19 208 197
f 19 197 186
f 19 186 175
f 19 175 164
f 19 164 154
f 19 154 143
f 19 143 133
f 19 133 123
f 19 123 113
f 19 113 103
f 19 103 92
f 19 92 82
f 19 82 71
f 19 71 69
f 19 69 58
f 19 58 45
f 19 45 34
f 19 34 33
f 19 33 21
f 19 20 30
f 19 30 32
f 22 33 34
f 22 34 23
f 23 34 35
f 23 35 36
f 23 36 24
f 25 36 48
f 25 48 37
f 25 37 38
f 25 38 26
f 27 39 28
f 28 39 41
f 28 41 42
f 28 42 52
f 28 52 40
f 29 40 31
f 30 31 43
f 30 43 32
f 31 40 44
f 31 44 43
f 34 45 46
f 34 46 35
f 35 46 36
f 36 46 47
f 36 47 48
f 37 48 60
f 37 60 49
f 37 49 38
f 38 49 50
f 40 51 44
f 40 52 53
f 40 53 51
f 41 54 42
f 42 54 55
f 42 55 64
f 42 64 52
f 43 44 56
f 44 51 57
f 44 57 56
f 45 58 46
f 46 58 47
f 47 59 60
f 47 60 48
f 47 58 59
f 49 60 73
f 49 73 61
f 49 61 62
f 49 62 63
f 49 63 50
f 51 53 57
f 52 64 53
f 53 64 65
f 53 65 66
f 53 66 57
f 54 67 55
f 55 67 68
f 55 68 76
f 55 76 64
f 58 69 59
f 59 70 60
f 59 69 71
f 59 71 70
f 60 70 72
f 60 72 73
f 61 73 84
f 61 84 74
f 61 74 75
f 61 75 62
f 64 76 65
f 65 76 77
f 65 77 78
f 65 78 66
f 67 79 68
f 68 79 80
f 68 80 81
f 68 81 87
f 68 87 76
f 70 71 72
f 71 82 72
f 72 83 84
f 72 84 73
f 72 82 83
f 74 85 75
f 74 84 94
f 74 94 86
f 74 86 85
f 76 87 88
f 76 88 77
f 77 88 78
f 78 88 89
f 80 90 81
f 81 90 91
f 81 91 98
f 81 98 87
f 82 92 83
f 83 93 94
f 83 94 84
f 83 92 93
f 85 86 95
f 86 94 105
f 86 105 96
f 86 96 97
f 86 97 95
f 87 98 99
f 87 99 88
f 88 99 89
f 89 99 100
f 90 101 102
f 90 102 91
f 91 102 108
f 91 108 98
f 92 103 104
f 92 104 93
f 93 104 94
f 94 104 105
f 96 105 115
f 96 115 106
f 96 106 107
f 96 107 97
f 98 108 99
f 99 108 109
f 99 109 100
f 100 109 110
f 101 111 102
f 102 111 112
f 102 112 118
f 102 118 108
f 103 113 114
f 103 114 104
f 104 114 105
f 105 114 115
f 106 115 125
f 106 125 116
f 106 116 107
f 107 116 117
f 108 118 119
f 108 119 109
f 109 119 120
f 109 120 110
f 111 121 112
f 112 121 122
f 112 122 128
f 112 128 118
f 113 123 124
f 113 124 114
f 114 124 125
f 114 125 115
f 116 125 135
f 116 135 126
f 116 126 127
f 116 127 117
f 118 128 129
f 118 129 119
f 119 129 130
f 119 130 120
f 121 131 122
f 122 131 132
f 122 132 138
f 122 138 128
f 123 133 124
f 124 134 125
f 124 133 134
f 125 134 135
f 126 135 145
f 126 145 136
f 126 136 137
f 126 137 127
f 128 138 139
f 128 139 129
f 129 139 130
f 130 139 140
f 131 141 132
f 132 142 148
f 132 148 138
f 132 141 142
f 133 143 134
f 134 144 135
f 134 143 144
f 135 144 145
f 136 145 156
f 136 156 146
f 136 146 147
f 136 147 137
f 138 148 139
f 139 148 149
f 139 149 150
f 139 150 140
f 141 151 142
f 142 151 152
f 142 152 153
f 142 153 159
f 142 159 148
f 143 154 155
f 143 155 144
f 144 155 145
f 145 155 156
f 146 156 166
f 146 166 157
f 146 157 147
f 147 157 158
f 148 159 160
f 148 160 149
f 149 160 150
f 150 160 161
f 152 162 153
f 153 162 163
f 153 163 169
f 153 169 159
f 154 164 155
f 155 165 166
f 155 166 156
f 155 164 165
f 157 166 177
f 157 177 167
f 157 167 168
f 157 168 158
f 159 169 160
f 160 169 170
f 160 170 171
f 160 171 161
f 162 172 163
f 163 173 174
f 163 174 180
f 163 180 169
f 163 172 173
f 164 175 176
f 164 176 165
f 165 176 166
f 166 176 177
f 167 178 168
f 167 177 188
f 167 188 179
f 167 179 178
f 169 180 181
f 169 181 182
f 169 182 170
f 170 182 171
f 171 182 181
f 171 181 183
f 173 184 185
f 173 185 174
f 174 185 192
f 174 192 180
f 175 186 176
f 176 187 188
f 176 188 177
f 176 186 187
f 178 179 189
f 179 188 200
f 179 200 190
f 179 190 191
f 179 191 189
f 180 192 181
f 181 192 193
f 181 193 194
f 181 194 183
f 184 195 196
f 184 196 185
f 185 196 203
f 185 203 192
f 186 197 198
f 186 198 199
f 186 199 187
f 187 199 188
f 188 199 198
f 188 198 200
f 190 200 210
f 190 210 201
f 190 201 191
f 191 201 202
f 192 203 204
f 192 204 193
f 193 204 205
f 193 205 194
f 195 206 196
f 196 207 213
f 196 213 203
f 196 206 207
f 197 208 198
f 198 209 210
f 198 210 200
f 198 208 209
f 201 210 220
f 201 220 211
f 201 211 212
f 201 212 202
f 203 213 214
f 203 214 204
f 204 214 205
f 205 214 215
f 206 216 207
f 206 217 216
f 207 216 223
f 207 223 213
f 208 218 219
f 208 219 209
f 209 219 220
f 209 220 210
f 211 221 222
f 211 222 212
f 211 220 230
f 211 230 221
f 213 223 214
f 214 223 224
f 214 224 225
f 214 225 215
f 216 217 226
f 216 226 227
f 216 227 233
f 216 233 223
f 218 228 229
f 218 229 219
f 219 229 220
f 220 229 230
f 221 230 241
f 221 241 231
f 221 231 222
f 222 231 232
f 223 233 234
f 223 234 235
f 223 235 224
f 224 235 225
f 225 235 234
f 225 234 236
f 226 237 227
f 227 237 238
f 227 238 244
f 227 244 233
f 228 239 229
f 229 240 241
f 229 241 230
f 229 239 240
f 231 242 243
f 231 243 232
f 231 241 253
f 231 253 242
f 233 244 234
f 234 244 245
f 234 245 246
f 234 246 236
f 237 247 238
f 238 247 248
f 238 248 249
f 238 249 256
f 238 256 244
f 239 250 251
f 239 251 252
f 239 252 240
f 240 252 241
f 241 252 251
f 241 251 253
f 242 253 263
f 242 263 254
f 242 254 255
f 242 255 243
f 244 256 257
f 244 257 245
f 245 257 246
f 246 257 258
f 248 259 249
f 249 259 260
f 249 260 267
f 249 267 256
f 250 261 251
f 251 262 263
f 251 263 253
f 251 261 262
f 254 263 274
f 254 274 264
f 254 264 265
f 254 265 266
f 254 266 255
f 256 267 257
f 257 267 268
f 257 268 269
f 257 269 258
f 259 270 260
f 260 270 271
f 260 271 277
f 260 277 267
f 261 272 273
f 261 273 262
f 262 273 263
f 263 273 274
f 264 275 265
f 264 274 284
f 264 284 275
f 265 275 276
f 267 277 268
f 268 277 278
f 268 278 269
f 269 278 279
f 270 280 271
f 271 280 281
f 271 281 287
f 271 287 277
f 272 282 273
f 273 283 284
f 273 284 274
f 273 282 283
f 275 284 295
f 275 295 285
f 275 285 276
f 276 285 286
f 277 287 278
f 278 287 288
f 278 288 279
f 279 288 289
f 280 290 281
f 281 290 291
f 281 291 292
f 281 292 298
f 281 298 287
f 282 293 294
f 282 294 283
f 283 294 295
f 283 295 284
f 285 295 305
f 285 305 296
f 285 296 286
f 286 296 297
f 287 298 299
f 287 299 288
f 288 299 300
f 288 300 289
f 291 301 302
f 291 302 292
f 292 302 308
f 292 308 298
f 293 303 304
f 293 304 294
f 294 304 305
f 294 305 295
f 296 305 315
f 296 315 306
f 296 306 307
f 296 307 297
f 298 308 299
f 299 308 309
f 299 309 310
f 299 310 300
f 301 311 312
f 301 312 302
f 302 312 318
f 302 318 308
f 303 313 304
f 304 314 305
f 304 313 314
f 305 314 315
f 306 316 307
f 306 315 325
f 306 325 316
f 307 316 317
f 308 318 309
f 309 318 319
f 309 319 320
f 309 320 310
f 311 321 312
f 312 321 322
f 312 322 328
f 312 328 318
f 313 323 314
f 314 324 325
f 314 325 315
f 314 323 324
f 316 325 335
f 316 335 326
f 316 326 317
f 317 326 327
f 318 328 329
f 318 329 319
f 319 329 320
f 320 329 330
f 321 331 322
f 322 331 332
f 322 332 338
f 322 338 328
f 323 333 324
f 324 334 335
f 324 335 325
f 324 333 334
f 326 335 345
f 326 345 336
f 326 336 337
f 326 337 327
f 328 338 339
f 328 339 329
f 329 339 330
f 330 339 340
f 331 341 342
f 331 342 332
f 332 342 348
f 332 348 338
f 333 343 344
f 333 344 334
f 334 344 335
f 335 344 345
f 336 345 357
f 336 357 346
f 336 346 347
f 336 347 337
f 338 348 339
f 339 348 349
f 339 349 340
f 340 349 351
f 340 351 350
f 341 352 342
f 342 352 353
f 342 353 354
f 342 354 360
f 342 360 348
f 343 355 356
f 343 356 344
f 344 356 345
f 345 356 357
f 346 358 347
f 346 357 368
f 346 368 358
f 347 358 359
f 348 351 349
f 348 360 361
f 348 361 351
f 350 351 362
f 351 361 362
f 353 363 364
f 353 364 354
f 354 364 372
f 354 372 360
f 355 365 366
f 355 366 367
f 355 367 356
f 356 367 368
f 356 368 357
f 358 368 379
f 358 379 369
f 358 369 370
f 358 370 371
f 358 371 359
f 360 372 361
f 361 372 373
f 361 373 362
f 362 373 374
f 363 375 364
f 364 375 376
f 364 376 382
f 364 382 372
f 365 377 366
f 366 378 368
f 366 368 367
f 366 377 378
f 368 378 379
f 369 379 390
f 369 390 380
f 369 380 370
f 370 380 381
f 372 382 383
f 372 383 384
f 372 384 373
f 373 384 385
f 373 385 374
f 375 386 387
f 375 387 376
f 376 387 393
f 376 393 382
f 377 388 389
f 377 389 378
f 378 389 390
f 378 390 379
f 380 391 392
f 380 392 381
f 380 390 401
f 380 401 391
f 382 393 383
f 383 393 394
f 383 394 385
f 383 385 384
f 385 394 395
f 386 396 397
f 386 397 387
f 387 397 402
f 387 402 393
f 388 398 389
f 389 399 390
f 389 398 399
f 390 399 400
f 390 400 401
f 391 401 402
f 391 402 397
f 391 397 392
f 392 397 396
f 393 402 403
f 393 403 394
f 394 403 404
f 394 404 395
f 398 404 403
f 398 403 400
f 398 400 399
f 400 403 402
f 400 402 401

