# https://github.com/mikedh/trimesh
v 0.01033990 0.02538194 -0.02155630
v 0.01032775 0.02661885 -0.01970477
v 0.01033180 0.02599966 -0.01970477
v 0.01033990 0.01644425 -0.02155630
v 0.01033990 0.02538194 -0.05245171
v 0.01032573 0.02661885 -0.02773416
v 0.01027108 0.02723657 -0.02773416
v 0.01027108 0.02723657 -0.01970477
v 0.01031763 0.02661885 -0.01908760
v 0.01032573 0.02599966 -0.01908760
v 0.01032775 0.02353027 -0.01908760
v 0.01032775 0.01644425 -0.01908760
v 0.01033990 0.01644425 -0.05245171
v 0.01021642 0.02538194 -0.05306889
v 0.01002412 0.02599818 -0.05302000
v 0.01012735 0.02599966 -0.05245171
v 0.01010914 0.02785428 -0.02773416
v 0.01010914 0.02785428 -0.01970477
v 0.01025893 0.02723657 -0.01908760
v 0.00803630 0.02695135 0.00102253
v 0.00804035 0.02661885 0.00104086
v 0.00803832 0.02630260 0.00102864
v 0.01025083 0.01644425 -0.01847042
v 0.01021642 0.01644425 -0.05306889
v 0.00999173 0.02538194 -0.05348441
v 0.00995529 0.02579129 -0.05344775
v 0.00989659 0.02631590 -0.05278169
v 0.00974275 0.02856954 -0.02773416
v 0.00994315 0.02826068 -0.02773416
v 0.00994315 0.02826068 -0.01970477
v 0.01009699 0.02785428 -0.01908760
v 0.00799986 0.02734592 0.00069256
v 0.00795735 0.02718780 0.00126085
v 0.00781363 0.02723657 0.00192691
v 0.00783590 0.02661885 0.00192691
v 0.00797152 0.02661885 0.00134640
v 0.00767396 0.02661885 0.00254408
v 0.00746951 0.02625236 0.00299016
v 0.01015974 0.01644425 -0.01817711
v 0.00999173 0.01644425 -0.05348441
v 0.00968404 0.02538194 -0.05379606
v 0.00971441 0.02620359 -0.05319110
v 0.00933992 0.02579129 -0.05405881
v 0.00952615 0.02599818 -0.05363718
v 0.00930146 0.02631886 -0.05341108
v 0.00376916 0.03131232 -0.04788706
v 0.00433393 0.03126355 -0.04720878
v 0.00441490 0.03133153 -0.04689103
v 0.00454850 0.03139655 -0.04627385
v 0.00498169 0.03130197 -0.04551002
v 0.00501408 0.03134040 -0.04503339
v 0.00910106 0.02926410 -0.02773416
v 0.00943303 0.02895524 -0.02773416
v 0.00943506 0.02895820 -0.02402500
v 0.00974477 0.02856954 -0.02340782
v 0.00974477 0.02856954 -0.02032195
v 0.00974275 0.02856954 -0.01970477
v 0.00973667 0.02855919 -0.01908760
v 0.00993505 0.02825033 -0.01908760
v 0.00991481 0.02821487 -0.01865374
v 0.00785209 0.02785428 0.00069256
v 0.00777314 0.02785428 0.00130973
v 0.00764562 0.02785428 0.00192691
v 0.00748975 0.02782325 0.00250742
v 0.00763347 0.02723657 0.00254408
v 0.00749784 0.02661885 0.00305738
v 0.00735615 0.02661885 0.00336291
v 0.00686020 0.02624940 0.00419396
v 0.00990469 0.01644425 -0.01751105
v 0.01005448 0.01644425 -0.01784714
v 0.00968404 0.01644425 -0.05379606
v 0.00951805 0.01644425 -0.05395493
v 0.00937433 0.02538194 -0.05408936
v 0.00895936 0.02538194 -0.05426046
v 0.00895936 0.02590951 -0.05413214
v 0.00895936 0.02621837 -0.05378994
v 0.00201413 0.03132857 -0.04912752
v 0.00314974 0.03130345 -0.04848590
v 0.00337241 0.03137586 -0.04810705
v 0.00339873 0.03151182 -0.04750820
v 0.00399183 0.03135074 -0.04745321
v 0.00401612 0.03147488 -0.04689103
v 0.00401612 0.03153842 -0.04627385
v 0.00463352 0.03148227 -0.04503339
v 0.00502623 0.03135074 -0.04441622
v 0.00879134 0.02949463 -0.02773416
v 0.00910713 0.02926705 -0.02402500
v 0.00943506 0.02895820 -0.02032195
v 0.00943506 0.02895672 -0.01970477
v 0.00942696 0.02894785 -0.01908760
v 0.00738044 0.02873505 0.00069256
v 0.00757679 0.02842471 0.00069256
v 0.00753631 0.02836560 0.00130973
v 0.00747355 0.02826216 0.00192691
v 0.00742902 0.02818827 0.00227521
v 0.00735210 0.02800945 0.00269074
v 0.00743509 0.02759715 0.00289850
v 0.00747153 0.02723657 0.00299016
v 0.00734400 0.02723657 0.00329569
v 0.00710109 0.02723657 0.00377843
v 0.00714360 0.02661885 0.00377843
v 0.00689259 0.02661885 0.00424895
v 0.00669017 0.02661885 0.00455448
v 0.00638046 0.02661885 0.00496390
v 0.00630758 0.02622576 0.00487835
v 0.00968404 0.01644425 -0.01720552
v 0.00937433 0.01644425 -0.05408936
v 0.00915369 0.01644425 -0.05418103
v 0.00895936 0.01644425 -0.05426046
v 0.00862940 0.01644425 -0.05430324
v 0.00834196 0.02538194 -0.05433990
v 0.00834196 0.02597601 -0.05416880
v 0.00834196 0.02628487 -0.05384494
v 0.00154451 0.03138030 -0.04920085
v 0.00219632 0.03141281 -0.04878533
v 0.00277930 0.03136256 -0.04860201
v 0.00277930 0.03150443 -0.04812538
v 0.00216191 0.03153990 -0.04812538
v 0.00339873 0.03153990 -0.04689103
v 0.00401612 0.03153990 -0.04565668
v 0.00463352 0.03149409 -0.04441622
v 0.00834196 0.02973256 -0.01970477
v 0.00834196 0.02973404 -0.02402500
v 0.00834196 0.02973404 -0.02464217
v 0.00834196 0.02973108 -0.02773416
v 0.00879742 0.02949759 -0.02402500
v 0.00879742 0.02949611 -0.02032195
v 0.00910510 0.02926705 -0.02032195
v 0.00910308 0.02926558 -0.01970477
v 0.00909296 0.02925671 -0.01908760
v 0.00674685 0.02936311 0.00069256
v 0.00707275 0.02905425 0.00069256
v 0.00702822 0.02901435 0.00130973
v 0.00733793 0.02867446 0.00130973
v 0.00726910 0.02857101 0.00192691
v 0.00718004 0.02842619 0.00250742
v 0.00691891 0.02846757 0.00310626
v 0.00685616 0.02825772 0.00357678
v 0.00724886 0.02782325 0.00313070
v 0.00693105 0.02782916 0.00377843
v 0.00682174 0.02760602 0.00413285
v 0.00686425 0.02723657 0.00420007
v 0.00666790 0.02723657 0.00450560
v 0.00635819 0.02723657 0.00493334
v 0.00613147 0.02661885 0.00527554
v 0.00573067 0.02622576 0.00550775
v 0.00937433 0.01644425 -0.01683277
v 0.00954032 0.01644425 -0.01702831
v 0.00834196 0.01644425 -0.05433990
v -0.00834196 0.02538194 -0.05433990
v -0.00834196 0.02597601 -0.05416880
v 0.00030769 0.03139655 -0.04931084
v 0.00092509 0.03139655 -0.04926196
v 0.00154451 0.03152364 -0.04874255
v 0.00092509 0.03153990 -0.04874255
v 0.00401612 0.03153990 -0.04318187
v 0.00401612 0.03153251 -0.04256469
v 0.00494931 0.03001777 0.00104698
v 0.00519424 0.02996753 0.00127307
v 0.00527116 0.02997196 0.00069256
v 0.00772456 0.02992911 -0.01908760
v 0.00834196 0.02971926 -0.01908760
v 0.00879539 0.02949611 -0.01970477
v 0.00878325 0.02948872 -0.01908760
v 0.00643713 0.02955227 0.00069256
v 0.00638450 0.02952715 0.00130973
v 0.00669422 0.02932321 0.00130973
v 0.00695939 0.02894785 0.00192691
v 0.00686020 0.02884884 0.00254408
v 0.00679948 0.02878382 0.00285573
v 0.00670636 0.02867003 0.00327125
v 0.00651406 0.02851338 0.00382121
v 0.00629139 0.02831683 0.00439561
v 0.00618613 0.02817349 0.00471336
v 0.00673268 0.02801832 0.00398619
v 0.00657478 0.02782916 0.00435894
v 0.00625900 0.02785428 0.00480502
v 0.00610516 0.02723657 0.00523888
v 0.00579747 0.02723657 0.00557496
v 0.00553229 0.02661885 0.00591716
v 0.00512744 0.02622576 0.00609437
v 0.00895936 0.01644425 -0.01669834
v 0.00446753 0.02623315 0.00665044
v 0.00373273 0.02629078 0.00719428
v 0.00339873 0.02623463 0.00726150
v 0.00277930 0.02618586 0.00737760
v -0.00834196 0.01644425 -0.05433990
v -0.00895936 0.02538194 -0.05426046
v -0.00895936 0.02590951 -0.05413214
v -0.00834196 0.02628487 -0.05384494
v -0.00092509 0.03139655 -0.04926196
v -0.00030769 0.03139655 -0.04931084
v -0.00092509 0.03153990 -0.04874255
v 0.00339873 0.03153990 -0.04194752
v 0.00370641 0.03001777 0.00347290
v 0.00438251 0.03002368 0.00237299
v 0.00488453 0.03001482 0.00146250
v 0.00525294 0.02991433 0.00192691
v 0.00587034 0.02981531 0.00069256
v 0.00587034 0.02977689 0.00130973
v 0.00587034 0.02970153 0.00192691
v 0.00630556 0.02948133 0.00192691
v 0.00661527 0.02925671 0.00192691
v 0.00645940 0.02919612 0.00257464
v 0.00649584 0.02895967 0.00310626
v 0.00629341 0.02888578 0.00366233
v 0.00616791 0.02876904 0.00407174
v 0.00604645 0.02862569 0.00439561
v 0.00559909 0.02881485 0.00475614
v 0.00580557 0.02839959 0.00493946
v 0.00559909 0.02821487 0.00536720
v 0.00599990 0.02785428 0.00511666
v 0.00569018 0.02785428 0.00546497
v 0.00549586 0.02723657 0.00588661
v 0.00518614 0.02723657 0.00614936
v 0.00485012 0.02661885 0.00648545
v 0.00834196 0.01644425 -0.01666167
v 0.00154451 0.02622871 0.00787257
v 0.00092509 0.02619325 0.00791534
v 0.00454041 0.02661885 0.00669932
v 0.00405459 0.02661885 0.00701096
v 0.00374487 0.02661885 0.00720039
v 0.00339873 0.02661885 0.00734705
v 0.00277930 0.02661885 0.00759147
v 0.00234206 0.02661885 0.00775035
v 0.00197567 0.02627453 0.00782368
v -0.00895936 0.01644425 -0.05426046
v -0.00918203 0.01644425 -0.05416880
v -0.00937433 0.02538194 -0.05408936
v -0.00933992 0.02579129 -0.05405881
v -0.00895936 0.02621837 -0.05378994
v -0.00154451 0.03138030 -0.04920085
v -0.00154451 0.03152364 -0.04874255
v -0.00216191 0.03153990 -0.04812538
v 0.00216191 0.03153990 -0.04070706
v 0.00264975 0.03002516 0.00420007
v 0.00306270 0.03001629 0.00405952
v 0.00339873 0.02999856 0.00391287
v 0.00395337 0.02994979 0.00371733
v 0.00412746 0.02999561 0.00316126
v 0.00426916 0.03001482 0.00278851
v 0.00478737 0.03000299 0.00192691
v 0.00460721 0.02998378 0.00256853
v 0.00463352 0.02990989 0.00316126
v 0.00525294 0.02984192 0.00254408
v 0.00591690 0.02956113 0.00257464
v 0.00623471 0.02943700 0.00238521
v 0.00615374 0.02938380 0.00279462
v 0.00605455 0.02931139 0.00316126
v 0.00589666 0.02912223 0.00382732
v 0.00548978 0.02935868 0.00399231
v 0.00573674 0.02893160 0.00439561
v 0.00527116 0.02925967 0.00443227
v 0.00490275 0.02937937 0.00466448
v 0.00522460 0.02893898 0.00498223
v 0.00499991 0.02882519 0.00537331
v 0.00541084 0.02862717 0.00516555
v 0.00518817 0.02840846 0.00557496
v 0.00496550 0.02818974 0.00595993
v 0.00537035 0.02785428 0.00577050
v 0.00506266 0.02785428 0.00604548
v 0.00480558 0.02723657 0.00646100
v -0.00834196 0.01644425 -0.01666167
v 0.00030769 0.02618586 0.00793367
v 0.00092509 0.02661885 0.00804366
v 0.00030769 0.02661885 0.00808644
v 0.00449587 0.02723657 0.00667488
v 0.00373070 0.02700603 0.00719428
v 0.00277930 0.02723657 0.00755481
v 0.00217000 0.02727499 0.00774424
v 0.00196960 0.02709618 0.00782368
v 0.00203235 0.02661885 0.00784201
v 0.00154451 0.02661885 0.00795200
v -0.00937433 0.01644425 -0.05408936
v -0.00968404 0.02538194 -0.05379606
v -0.00995529 0.02579129 -0.05344775
v -0.00952615 0.02599818 -0.05363718
v -0.00930146 0.02631886 -0.05341108
v -0.00201413 0.03132857 -0.04912752
v -0.00219632 0.03141281 -0.04878533
v -0.00277930 0.03150443 -0.04812538
v -0.00339873 0.03151182 -0.04750820
v -0.00339873 0.03153990 -0.04689103
v 0.00030769 0.03153990 -0.04008988
v 0.00154451 0.03002221 0.00474392
v 0.00210725 0.03002664 0.00440172
v 0.00186434 0.03001777 0.00470725
v 0.00227729 0.03001038 0.00460948
v 0.00282586 0.02999413 0.00440172
v 0.00339873 0.02992172 0.00439561
v 0.00401612 0.02979758 0.00439561
v 0.00463352 0.02978724 0.00377843
v 0.00525294 0.02972517 0.00316126
v 0.00574484 0.02950350 0.00316126
v 0.00562541 0.02943848 0.00357678
v 0.00527116 0.02954045 0.00378454
v 0.00507886 0.02946656 0.00424895
v 0.00448980 0.02947099 0.00485391
v 0.00425296 0.02936607 0.00526943
v 0.00467198 0.02927001 0.00504334
v 0.00467198 0.02956705 0.00443227
v 0.00458696 0.02892273 0.00559941
v 0.00435013 0.02880007 0.00595993
v 0.00476105 0.02860205 0.00578883
v 0.00458696 0.02842619 0.00606992
v 0.00427118 0.02809073 0.00652822
v 0.00462340 0.02787202 0.00637546
v 0.00440883 0.02767843 0.00661377
v -0.00895936 0.01644425 -0.01669834
v -0.00030769 0.02618586 0.00793367
v -0.00092509 0.02619325 0.00791534
v 0.00030769 0.02723657 0.00804366
v 0.00092509 0.02723657 0.00799478
v -0.00030769 0.02661885 0.00808644
v 0.00365378 0.02741834 0.00715151
v 0.00396957 0.02722179 0.00700485
v 0.00342707 0.02722179 0.00728594
v 0.00324286 0.02771389 0.00724317
v 0.00281979 0.02789419 0.00734705
v 0.00216191 0.02785428 0.00757925
v 0.00182588 0.02750700 0.00779313
v 0.00158904 0.02727499 0.00788478
v -0.00968404 0.01644425 -0.05379606
v -0.00984801 0.01644425 -0.05363107
v -0.00999173 0.02538194 -0.05348441
v -0.01021642 0.02538194 -0.05306889
v -0.01002412 0.02599818 -0.05302000
v -0.00989659 0.02631590 -0.05278169
v -0.00971440 0.02620359 -0.05319110
v -0.00376916 0.03131232 -0.04788706
v -0.00314974 0.03130345 -0.04848590
v -0.00277930 0.03136256 -0.04860201
v -0.00337241 0.03137586 -0.04810705
v -0.00399183 0.03135074 -0.04745321
v -0.00401612 0.03147488 -0.04689103
v -0.00401612 0.03153842 -0.04627385
v -0.00401612 0.03153990 -0.04565668
v -0.00030769 0.03153990 -0.04008988
v 0.00030769 0.03002812 0.00485391
v 0.00092509 0.03002664 0.00480502
v 0.00030769 0.03000447 0.00515944
v 0.00092509 0.02999561 0.00511666
v 0.00154451 0.02997935 0.00505556
v 0.00210725 0.02996162 0.00495779
v 0.00277930 0.02987738 0.00501889
v 0.00339873 0.02975620 0.00501889
v 0.00403434 0.02955670 0.00504334
v 0.00384204 0.02945326 0.00541609
v 0.00353435 0.02932173 0.00583161
v 0.00403434 0.02922124 0.00562996
v 0.00401612 0.02889170 0.00606381
v 0.00359710 0.02870845 0.00649767
v 0.00404649 0.02848974 0.00639379
v 0.00386026 0.02829615 0.00665044
v 0.00404649 0.02787202 0.00676043
v -0.00915369 0.01644425 -0.01675944
v -0.00154451 0.02622871 0.00787257
v -0.00092509 0.02661885 0.00804366
v -0.00030769 0.02723657 0.00804366
v 0.00092509 0.02775527 0.00787257
v 0.00030769 0.02782030 0.00789701
v 0.00141496 0.02766365 0.00783590
v 0.00342707 0.02789419 0.00708429
v 0.00305055 0.02812620 0.00716373
v 0.00263963 0.02827250 0.00724928
v 0.00216191 0.02838777 0.00732261
v 0.00158904 0.02786315 0.00771980
v -0.00999173 0.01644425 -0.05348441
v -0.01011116 0.01644425 -0.05326443
v -0.01033990 0.02538194 -0.05245171
v -0.01021642 0.01644425 -0.05306889
v -0.01012735 0.02599966 -0.05245171
v -0.00501408 0.03134040 -0.04503339
v -0.00498169 0.03130197 -0.04551002
v -0.00454850 0.03139655 -0.04627385
v -0.00441490 0.03133153 -0.04689103
v -0.00433393 0.03126355 -0.04720878
v -0.00974274 0.02856954 -0.02773416
v -0.00943506 0.02895524 -0.02773416
v -0.00910106 0.02926410 -0.02773416
v -0.00463352 0.03148227 -0.04503339
v -0.00463352 0.03149409 -0.04441622
v -0.00401612 0.03153990 -0.04318187
v -0.00216191 0.03153990 -0.04070706
v -0.00154451 0.03002221 0.00474392
v -0.00092509 0.03002664 0.00480502
v -0.00030769 0.03002812 0.00485391
v -0.00030769 0.03000447 0.00515944
v 0.00030769 0.02990546 0.00563607
v 0.00092509 0.02988182 0.00563607
v 0.00154451 0.02983896 0.00563607
v 0.00216191 0.02976655 0.00563607
v 0.00277930 0.02965276 0.00563607
v 0.00335622 0.02950646 0.00562996
v 0.00312343 0.02941188 0.00595993
v 0.00336027 0.02907642 0.00622880
v 0.00318415 0.02882963 0.00660766
v 0.00339265 0.02848974 0.00676043
v -0.00937433 0.01644425 -0.01683277
v -0.00277930 0.02618586 0.00737760
v -0.00197567 0.02627453 0.00782368
v -0.00092509 0.02723657 0.00799478
v -0.00154451 0.02661885 0.00795200
v -0.00030769 0.02782030 0.00789701
v -0.00092509 0.02775527 0.00787257
v 0.00092509 0.02806413 0.00775646
v 0.00030769 0.02812915 0.00778090
v 0.00281979 0.02847644 0.00702930
v 0.00216191 0.02869663 0.00711485
v 0.00157487 0.02852373 0.00737760
v 0.00180159 0.02876460 0.00716373
v -0.01033990 0.02538194 -0.02155630
v -0.01032776 0.02661885 -0.01970477
v -0.01032573 0.02661885 -0.02773416
v -0.01027107 0.02723657 -0.02773416
v -0.01010914 0.02785428 -0.02773416
v -0.01033990 0.01644425 -0.05245171
v -0.00994315 0.02826068 -0.02773416
v -0.00502623 0.03135074 -0.04441622
v -0.00879337 0.02949611 -0.02773416
v -0.00974477 0.02856954 -0.02587652
v -0.00943506 0.02895672 -0.02711698
v -0.00910510 0.02926705 -0.02587652
v -0.00910308 0.02926558 -0.02711698
v -0.00401612 0.03153251 -0.04256469
v -0.00834196 0.02973256 -0.01970477
v -0.00772456 0.02993058 -0.01908760
v -0.00527116 0.02997196 0.00069256
v -0.00519424 0.02996753 0.00127307
v -0.00494931 0.03001777 0.00104698
v -0.00339873 0.03153990 -0.04194752
v -0.00370641 0.03001777 0.00347290
v -0.00264975 0.03002516 0.00420007
v -0.00210725 0.03002664 0.00440172
v -0.00186434 0.03001777 0.00470725
v -0.00092509 0.02999561 0.00511666
v -0.00030769 0.02990546 0.00563607
v 0.00030769 0.02966458 0.00625324
v 0.00092509 0.02963059 0.00625324
v 0.00154046 0.02954488 0.00629602
v 0.00216191 0.02952271 0.00614936
v 0.00277930 0.02945621 0.00603326
v 0.00216191 0.02932617 0.00646100
v 0.00277930 0.02922272 0.00633879
v 0.00277930 0.02891386 0.00669321
v -0.00952008 0.01644425 -0.01700387
v -0.00339873 0.02623463 0.00726150
v -0.00373273 0.02629078 0.00719428
v -0.00446753 0.02623315 0.00665044
v -0.00512744 0.02622576 0.00609437
v -0.00573067 0.02622576 0.00550775
v -0.00630758 0.02622576 0.00487835
v -0.00203235 0.02661885 0.00784201
v -0.00234206 0.02661885 0.00775035
v -0.00158904 0.02727499 0.00788478
v -0.00141496 0.02766365 0.00783590
v -0.00196960 0.02709618 0.00782368
v -0.00030769 0.02812915 0.00778090
v -0.00092509 0.02806413 0.00775646
v 0.00092509 0.02847200 0.00751815
v 0.00030769 0.02847200 0.00756703
v 0.00216191 0.02901731 0.00680320
v 0.00138864 0.02882076 0.00721261
v 0.00156677 0.02910006 0.00687653
v -0.01033990 0.01644425 -0.02155630
v -0.01033180 0.02599966 -0.01970477
v -0.01032573 0.02599966 -0.01908760
v -0.01031763 0.02661885 -0.01908760
v -0.01027107 0.02723657 -0.01970477
v -0.01010914 0.02785428 -0.01970477
v -0.00994315 0.02826068 -0.01970477
v -0.00834196 0.02973108 -0.02773416
v -0.00834196 0.02973256 -0.02711698
v -0.00834196 0.02973404 -0.02525935
v -0.00834196 0.02973404 -0.02402500
v -0.00910713 0.02926853 -0.02402500
v -0.00879742 0.02949759 -0.02464217
v -0.00974477 0.02856954 -0.02340782
v -0.00943506 0.02895967 -0.02402500
v -0.00488453 0.03001482 0.00146250
v -0.00438251 0.03002368 0.00237299
v -0.00879742 0.02949759 -0.02402500
v -0.00879539 0.02949611 -0.02032195
v -0.00879337 0.02949611 -0.01970477
v -0.00878325 0.02948872 -0.01908760
v -0.00834196 0.02971926 -0.01908760
v -0.00587034 0.02981531 0.00069256
v -0.00525294 0.02991433 0.00192691
v -0.00426916 0.03001482 0.00278851
v -0.00412746 0.02999561 0.00316126
v -0.00395337 0.02994979 0.00371733
v -0.00339873 0.02999856 0.00391287
v -0.00306270 0.03001629 0.00405952
v -0.00227729 0.03001038 0.00460948
v -0.00154451 0.02997935 0.00505556
v -0.00092509 0.02988182 0.00563607
v -0.00030769 0.02966458 0.00625324
v 0.00030769 0.02945473 0.00663821
v 0.00092509 0.02943552 0.00660766
v 0.00133196 0.02941483 0.00658322
v 0.00174491 0.02937937 0.00653433
v -0.00968404 0.01644425 -0.01720552
v -0.00374487 0.02661885 0.00720039
v -0.00405459 0.02661885 0.00701096
v -0.00454041 0.02661885 0.00669932
v -0.00485012 0.02661885 0.00648545
v -0.00277930 0.02661885 0.00759147
v -0.00339873 0.02661885 0.00734705
v -0.00553229 0.02661885 0.00591716
v -0.00613147 0.02661885 0.00527554
v -0.00638046 0.02661885 0.00496390
v -0.00686020 0.02624940 0.00419396
v -0.00217000 0.02727499 0.00774424
v -0.00277930 0.02723657 0.00755481
v -0.00182588 0.02750700 0.00779313
v -0.00158904 0.02786315 0.00771980
v -0.00030769 0.02847200 0.00756703
v -0.00092509 0.02847200 0.00751815
v -0.00157487 0.02852373 0.00737760
v 0.00092509 0.02885771 0.00724928
v 0.00030769 0.02888726 0.00727372
v 0.00092509 0.02916656 0.00691930
v -0.01032776 0.01644425 -0.01908760
v -0.01032776 0.02353027 -0.01908760
v -0.00804035 0.02661885 0.00104086
v -0.01025893 0.02723657 -0.01908760
v -0.00803630 0.02695135 0.00102253
v -0.01009699 0.02785428 -0.01908760
v -0.00993505 0.02825033 -0.01908760
v -0.00974274 0.02856954 -0.01970477
v -0.00943506 0.02895672 -0.02032195
v -0.00910510 0.02926558 -0.02032195
v -0.00478737 0.03000299 0.00192691
v -0.00910106 0.02926410 -0.01970477
v -0.00909093 0.02925671 -0.01908760
v -0.00674685 0.02936311 0.00069256
v -0.00643713 0.02955227 0.00069256
v -0.00587034 0.02977689 0.00130973
v -0.00525294 0.02984192 0.00254408
v -0.00463352 0.02990989 0.00316126
v -0.00460721 0.02998378 0.00256853
v -0.00463352 0.02978724 0.00377843
v -0.00401612 0.02979758 0.00439561
v -0.00339873 0.02992172 0.00439561
v -0.00282586 0.02999413 0.00440172
v -0.00210725 0.02996162 0.00495779
v -0.00154451 0.02983896 0.00563607
v -0.00092509 0.02963059 0.00625324
v -0.00030769 0.02945473 0.00663821
v 0.00030769 0.02919612 0.00694986
v -0.00978728 0.01644425 -0.01734606
v -0.00373070 0.02700603 0.00719428
v -0.00449587 0.02723657 0.00667488
v -0.00480558 0.02723657 0.00646100
v -0.00518614 0.02723657 0.00614936
v -0.00549586 0.02723657 0.00588661
v -0.00579747 0.02723657 0.00557496
v -0.00610516 0.02723657 0.00523888
v -0.00635819 0.02723657 0.00493334
v -0.00669017 0.02661885 0.00455448
v -0.00689259 0.02661885 0.00424895
v -0.00714360 0.02661885 0.00377843
v -0.00735615 0.02661885 0.00336291
v -0.00746951 0.02625236 0.00299016
v -0.00990469 0.01644425 -0.01751105
v -0.00216191 0.02785428 0.00757925
v -0.00281979 0.02789419 0.00734705
v -0.00324286 0.02771389 0.00724317
v -0.00365378 0.02741834 0.00715151
v -0.00342707 0.02722179 0.00728594
v -0.00216191 0.02838777 0.00732261
v -0.00030769 0.02888726 0.00727372
v -0.00092509 0.02885771 0.00724928
v -0.00138864 0.02882076 0.00721261
v -0.00180159 0.02876460 0.00716373
v -0.01025083 0.01644425 -0.01847042
v -0.00803832 0.02630260 0.00102864
v -0.00797152 0.02661885 0.00134640
v -0.00799986 0.02734592 0.00069256
v -0.00783590 0.02661885 0.00192691
v -0.00781363 0.02723657 0.00192691
v -0.00795735 0.02718780 0.00126085
v -0.00991481 0.02821487 -0.01865374
v -0.00785209 0.02785428 0.00069256
v -0.00973465 0.02855919 -0.01908760
v -0.00942696 0.02894785 -0.01908760
v -0.00943303 0.02895524 -0.01970477
v -0.00707275 0.02905425 0.00069256
v -0.00702822 0.02901435 0.00130973
v -0.00669422 0.02932321 0.00130973
v -0.00638450 0.02952715 0.00130973
v -0.00587034 0.02970153 0.00192691
v -0.00591690 0.02956113 0.00257464
v -0.00525294 0.02972517 0.00316126
v -0.00527116 0.02954045 0.00378454
v -0.00467198 0.02956705 0.00443227
v -0.00403434 0.02955670 0.00504334
v -0.00339873 0.02975620 0.00501889
v -0.00277930 0.02987738 0.00501889
v -0.00216191 0.02976655 0.00563607
v -0.00154046 0.02954488 0.00629602
v -0.00133196 0.02941483 0.00658322
v -0.00092509 0.02943552 0.00660766
v -0.00030769 0.02919612 0.00694986
v -0.00396957 0.02722179 0.00700485
v -0.00440883 0.02767843 0.00661377
v -0.00506266 0.02785428 0.00604548
v -0.00537035 0.02785428 0.00577050
v -0.00569018 0.02785428 0.00546497
v -0.00599990 0.02785428 0.00511666
v -0.00625900 0.02785428 0.00480502
v -0.00666790 0.02723657 0.00450560
v -0.00686425 0.02723657 0.00420007
v -0.00710109 0.02723657 0.00377843
v -0.00734400 0.02723657 0.00329569
v -0.00749784 0.02661885 0.00305738
v -0.00767396 0.02661885 0.00254408
v -0.01005448 0.01644425 -0.01784714
v -0.00997553 0.01644425 -0.01766993
v -0.00263963 0.02827250 0.00724928
v -0.00305055 0.02812620 0.00716373
v -0.00342707 0.02789419 0.00708429
v -0.00404649 0.02787202 0.00676043
v -0.00216191 0.02869663 0.00711485
v -0.00092509 0.02916656 0.00691930
v -0.00156677 0.02910006 0.00687653
v -0.00216191 0.02901731 0.00680320
v -0.00777314 0.02785428 0.00130973
v -0.00764562 0.02785428 0.00192691
v -0.00763347 0.02723657 0.00254408
v -0.00748975 0.02782325 0.00250742
v -0.00753631 0.02836560 0.00130973
v -0.00757679 0.02842471 0.00069256
v -0.00738044 0.02873505 0.00069256
v -0.00733793 0.02867446 0.00130973
v -0.00695939 0.02894785 0.00192691
v -0.00661527 0.02925671 0.00192691
v -0.00630556 0.02948133 0.00192691
v -0.00623471 0.02943700 0.00238521
v -0.00615374 0.02938380 0.00279462
v -0.00574484 0.02950350 0.00316126
v -0.00548978 0.02935868 0.00399231
v -0.00507886 0.02946656 0.00424895
v -0.00562541 0.02943848 0.00357678
v -0.00490275 0.02937937 0.00466448
v -0.00448980 0.02947099 0.00485391
v -0.00425296 0.02936607 0.00526943
v -0.00384204 0.02945326 0.00541609
v -0.00335622 0.02950646 0.00562996
v -0.00277930 0.02965276 0.00563607
v -0.00216191 0.02952271 0.00614936
v -0.00174491 0.02937937 0.00653433
v -0.00427118 0.02809073 0.00652822
v -0.00462340 0.02787202 0.00637546
v -0.00496550 0.02818974 0.00595993
v -0.00559909 0.02821487 0.00536720
v -0.00618613 0.02817349 0.00471336
v -0.00657478 0.02782916 0.00435894
v -0.00682174 0.02760602 0.00413285
v -0.00743509 0.02759715 0.00289850
v -0.00747153 0.02723657 0.00299016
v -0.00281979 0.02847644 0.00702930
v -0.00339265 0.02848974 0.00676043
v -0.00386026 0.02829615 0.00665044
v -0.00277930 0.02891386 0.00669321
v -0.00318415 0.02882963 0.00660766
v -0.00216191 0.02932617 0.00646100
v -0.00747355 0.02826216 0.00192691
v -0.00742902 0.02818827 0.00227521
v -0.00735210 0.02800945 0.00269074
v -0.00726910 0.02857101 0.00192691
v -0.00686020 0.02884884 0.00254408
v -0.00645940 0.02919612 0.00257464
v -0.00649584 0.02895967 0.00310626
v -0.00605455 0.02931139 0.00316126
v -0.00589666 0.02912223 0.00382732
v -0.00616791 0.02876904 0.00407174
v -0.00573674 0.02893160 0.00439561
v -0.00527116 0.02925967 0.00443227
v -0.00559909 0.02881485 0.00475614
v -0.00522460 0.02893898 0.00498223
v -0.00499991 0.02882519 0.00537331
v -0.00467198 0.02927001 0.00504334
v -0.00458696 0.02892273 0.00559941
v -0.00435013 0.02880007 0.00595993
v -0.00403434 0.02922124 0.00562996
v -0.00353435 0.02932173 0.00583161
v -0.00312343 0.02941188 0.00595993
v -0.00277930 0.02945621 0.00603326
v -0.00404649 0.02848974 0.00639379
v -0.00458696 0.02842619 0.00606992
v -0.00476105 0.02860205 0.00578883
v -0.00518817 0.02840846 0.00557496
v -0.00541084 0.02862717 0.00516555
v -0.00580557 0.02839959 0.00493946
v -0.00604645 0.02862569 0.00439561
v -0.00629139 0.02831683 0.00439561
v -0.00685616 0.02825772 0.00357678
v -0.00673268 0.02801832 0.00398619
v -0.00693105 0.02782916 0.00377843
v -0.00724886 0.02782325 0.00313070
v -0.00359710 0.02870845 0.00649767
v -0.00277930 0.02922272 0.00633879
v -0.00336027 0.02907642 0.00622880
v -0.00401612 0.02889170 0.00606381
v -0.00691891 0.02846757 0.00310626
v -0.00718004 0.02842619 0.00250742
v -0.00679948 0.02878382 0.00285573
v -0.00629341 0.02888578 0.00366233
v -0.00670636 0.02867003 0.00327125
v -0.00651406 0.02851338 0.00382121
f 1 2 3
f 1 3 4
f 1 4 13
f 1 13 5
f 1 5 2
f 2 6 7
f 2 7 8
f 2 8 9
f 2 9 10
f 2 10 3
f 2 5 6
f 3 10 11
f 3 11 12
f 3 12 4
f 4 12 23
f 4 23 39
f 4 39 70
f 4 70 69
f 4 69 106
f 4 106 148
f 4 148 147
f 4 147 182
f 4 182 217
f 4 217 263
f 4 263 309
f 4 309 356
f 4 356 399
f 4 399 446
f 4 446 502
f 4 502 551
f 4 551 565
f 4 565 619
f 4 619 618
f 4 618 576
f 4 576 523
f 4 523 465
f 4 465 417
f 4 417 371
f 4 371 369
f 4 369 368
f 4 368 324
f 4 324 323
f 4 323 274
f 4 274 228
f 4 228 227
f 4 227 187
f 4 187 149
f 4 149 110
f 4 110 109
f 4 109 108
f 4 108 107
f 4 107 72
f 4 72 71
f 4 71 40
f 4 40 24
f 4 24 13
f 5 13 24
f 5 24 14
f 5 14 15
f 5 15 16
f 5 16 17
f 5 17 7
f 5 7 6
f 7 17 18
f 7 18 8
f 8 18 31
f 8 31 19
f 8 19 9
f 9 19 20
f 9 20 21
f 9 21 10
f 10 21 11
f 11 21 12
f 12 21 22
f 12 22 23
f 14 24 40
f 14 40 25
f 14 25 26
f 14 26 15
f 15 27 16
f 15 26 27
f 16 27 28
f 16 28 29
f 16 29 17
f 17 29 30
f 17 30 18
f 18 30 31
f 19 31 32
f 19 32 20
f 20 32 33
f 20 33 34
f 20 34 35
f 20 35 36
f 20 36 21
f 21 36 22
f 22 36 35
f 22 35 37
f 22 37 38
f 22 38 23
f 23 38 39
f 25 40 71
f 25 71 41
f 25 41 26
f 26 42 27
f 26 41 43
f 26 43 44
f 26 44 42
f 27 42 45
f 27 45 46
f 27 46 47
f 27 47 48
f 27 48 49
f 27 49 50
f 27 50 51
f 27 51 52
f 27 52 53
f 27 53 28
f 28 53 54
f 28 54 55
f 28 55 29
f 29 55 56
f 29 56 30
f 30 56 57
f 30 57 58
f 30 58 59
f 30 59 31
f 31 59 60
f 31 60 61
f 31 61 32
f 32 61 62
f 32 62 33
f 33 62 34
f 34 62 63
f 34 63 64
f 34 64 65
f 34 65 37
f 34 37 35
f 37 65 66
f 37 66 38
f 38 66 67
f 38 67 68
f 38 68 69
f 38 69 70
f 38 70 39
f 41 71 72
f 41 72 73
f 41 73 43
f 42 44 45
f 43 73 74
f 43 74 75
f 43 75 76
f 43 76 45
f 43 45 44
f 45 76 77
f 45 77 78
f 45 78 46
f 46 78 79
f 46 79 80
f 46 80 81
f 46 81 47
f 47 81 48
f 48 81 82
f 48 82 49
f 49 83 84
f 49 84 51
f 49 51 50
f 49 82 83
f 51 84 85
f 51 85 86
f 51 86 52
f 52 86 126
f 52 126 87
f 52 87 53
f 53 87 54
f 54 87 88
f 54 88 56
f 54 56 55
f 56 88 89
f 56 89 57
f 57 89 58
f 58 60 59
f 58 89 90
f 58 90 91
f 58 91 60
f 60 91 92
f 60 92 93
f 60 93 61
f 61 93 62
f 62 93 94
f 62 94 63
f 63 94 95
f 63 95 64
f 64 95 96
f 64 96 97
f 64 97 65
f 65 97 98
f 65 98 66
f 66 98 99
f 66 99 67
f 67 99 100
f 67 100 101
f 67 101 68
f 68 101 102
f 68 102 103
f 68 103 104
f 68 104 105
f 68 105 106
f 68 106 69
f 72 107 73
f 73 107 108
f 73 108 74
f 74 108 109
f 74 109 110
f 74 110 111
f 74 111 75
f 75 111 112
f 75 112 113
f 75 113 76
f 76 113 114
f 76 114 77
f 77 114 115
f 77 115 116
f 77 116 78
f 78 116 79
f 79 117 80
f 79 116 117
f 80 117 118
f 80 118 119
f 80 119 83
f 80 83 82
f 80 82 81
f 83 120 121
f 83 121 84
f 83 119 120
f 84 121 85
f 85 121 122
f 85 122 123
f 85 123 124
f 85 124 125
f 85 125 86
f 86 125 126
f 87 126 127
f 87 127 128
f 87 128 88
f 88 128 89
f 89 128 129
f 89 129 90
f 90 129 130
f 90 130 131
f 90 131 132
f 90 132 91
f 91 132 133
f 91 133 134
f 91 134 93
f 91 93 92
f 93 134 94
f 94 134 135
f 94 135 95
f 95 136 137
f 95 137 138
f 95 138 96
f 95 135 136
f 96 139 97
f 96 138 139
f 97 139 140
f 97 140 141
f 97 141 99
f 97 99 98
f 99 141 100
f 100 141 142
f 100 142 102
f 100 102 101
f 102 142 143
f 102 143 103
f 103 143 144
f 103 144 104
f 104 144 145
f 104 145 105
f 105 145 146
f 105 146 147
f 105 147 148
f 105 148 106
f 110 149 111
f 111 149 187
f 111 187 150
f 111 150 151
f 111 151 112
f 112 151 192
f 112 192 152
f 112 152 153
f 112 153 113
f 113 153 114
f 114 153 154
f 114 154 115
f 115 154 117
f 115 117 116
f 117 154 118
f 118 154 155
f 118 155 193
f 118 193 234
f 118 234 283
f 118 283 337
f 118 337 383
f 118 383 431
f 118 431 384
f 118 384 338
f 118 338 284
f 118 284 235
f 118 235 194
f 118 194 156
f 118 156 120
f 118 120 119
f 120 156 121
f 121 156 157
f 121 157 158
f 121 158 159
f 121 159 160
f 121 160 161
f 121 161 122
f 122 161 162
f 122 162 163
f 122 163 127
f 122 127 126
f 122 126 123
f 123 126 124
f 124 126 125
f 127 163 128
f 128 163 129
f 129 163 130
f 130 163 164
f 130 164 131
f 131 165 166
f 131 166 167
f 131 167 133
f 131 133 132
f 131 164 165
f 133 167 168
f 133 168 134
f 134 168 135
f 135 168 169
f 135 169 136
f 136 169 170
f 136 170 137
f 137 170 171
f 137 171 138
f 138 171 172
f 138 172 173
f 138 173 174
f 138 174 175
f 138 175 140
f 138 140 139
f 140 175 141
f 141 176 177
f 141 177 143
f 141 143 142
f 141 175 176
f 143 177 144
f 144 178 145
f 144 177 178
f 145 178 179
f 145 179 180
f 145 180 146
f 146 180 181
f 146 181 147
f 147 181 183
f 147 183 184
f 147 184 185
f 147 185 186
f 147 186 182
f 150 188 189
f 150 189 151
f 150 187 227
f 150 227 188
f 151 189 190
f 151 190 191
f 151 191 192
f 152 192 193
f 152 193 155
f 152 155 153
f 153 155 154
f 156 194 157
f 157 194 195
f 157 195 196
f 157 196 197
f 157 197 158
f 158 197 159
f 159 197 198
f 159 198 199
f 159 199 160
f 160 199 161
f 161 199 162
f 162 164 163
f 162 199 165
f 162 165 164
f 165 199 200
f 165 200 166
f 166 200 201
f 166 201 202
f 166 202 167
f 167 202 203
f 167 203 168
f 168 203 169
f 169 204 170
f 169 203 204
f 170 205 206
f 170 206 171
f 170 204 205
f 171 206 207
f 171 207 172
f 172 207 173
f 173 207 174
f 174 207 208
f 174 208 209
f 174 209 210
f 174 210 211
f 174 211 212
f 174 212 177
f 174 177 176
f 174 176 175
f 177 212 178
f 178 212 213
f 178 213 179
f 179 213 214
f 179 214 180
f 180 214 215
f 180 215 216
f 180 216 183
f 180 183 181
f 182 186 218
f 182 218 219
f 182 219 217
f 183 216 184
f 184 216 220
f 184 220 221
f 184 221 222
f 184 222 223
f 184 223 224
f 184 224 225
f 184 225 226
f 184 226 185
f 185 226 186
f 186 226 218
f 188 227 228
f 188 228 229
f 188 229 230
f 188 230 189
f 189 230 231
f 189 231 190
f 190 231 232
f 190 232 191
f 191 232 233
f 191 233 193
f 191 193 192
f 193 233 234
f 194 235 195
f 195 236 237
f 195 237 238
f 195 238 239
f 195 239 240
f 195 240 241
f 195 241 196
f 195 235 236
f 196 241 242
f 196 242 197
f 197 242 198
f 198 200 199
f 198 242 243
f 198 243 244
f 198 244 245
f 198 245 200
f 200 245 201
f 201 245 246
f 201 246 247
f 201 247 202
f 202 247 203
f 203 247 204
f 204 247 248
f 204 248 205
f 205 248 249
f 205 249 206
f 206 249 250
f 206 250 207
f 207 250 251
f 207 251 252
f 207 252 209
f 207 209 208
f 209 252 253
f 209 253 254
f 209 254 255
f 209 255 256
f 209 256 257
f 209 257 211
f 209 211 210
f 211 257 256
f 211 256 258
f 211 258 259
f 211 259 260
f 211 260 213
f 211 213 212
f 213 260 214
f 214 260 261
f 214 261 215
f 215 261 262
f 215 262 216
f 216 262 267
f 216 267 220
f 217 219 264
f 217 264 310
f 217 310 263
f 218 226 265
f 218 265 219
f 219 265 266
f 219 266 264
f 220 267 268
f 220 268 221
f 221 268 222
f 222 268 223
f 223 268 224
f 224 268 269
f 224 269 225
f 225 270 271
f 225 271 272
f 225 272 226
f 225 269 270
f 226 272 273
f 226 273 265
f 228 274 229
f 229 274 323
f 229 323 275
f 229 275 230
f 230 275 276
f 230 276 277
f 230 277 278
f 230 278 231
f 231 278 279
f 231 279 232
f 232 279 280
f 232 280 233
f 233 280 281
f 233 281 234
f 234 281 282
f 234 282 283
f 235 284 285
f 235 285 286
f 235 286 236
f 236 286 287
f 236 287 288
f 236 288 237
f 237 288 289
f 237 289 238
f 238 289 290
f 238 290 239
f 239 290 291
f 239 291 292
f 239 292 244
f 239 244 240
f 240 244 243
f 240 243 241
f 241 243 242
f 244 292 293
f 244 293 245
f 245 293 246
f 246 293 294
f 246 294 248
f 246 248 247
f 248 294 295
f 248 295 249
f 249 295 251
f 249 251 250
f 251 295 296
f 251 296 297
f 251 297 254
f 251 254 253
f 251 253 252
f 254 298 299
f 254 299 300
f 254 300 256
f 254 256 255
f 254 297 301
f 254 301 298
f 256 302 303
f 256 303 304
f 256 304 258
f 256 300 302
f 258 304 259
f 259 304 303
f 259 303 305
f 259 305 306
f 259 306 307
f 259 307 261
f 259 261 260
f 261 307 308
f 261 308 262
f 262 308 267
f 263 310 311
f 263 311 309
f 264 266 314
f 264 314 310
f 265 312 266
f 265 273 313
f 265 313 312
f 266 312 359
f 266 359 314
f 267 308 315
f 267 315 316
f 267 316 268
f 268 316 315
f 268 315 317
f 268 317 269
f 269 317 315
f 269 315 318
f 269 318 319
f 269 319 320
f 269 320 321
f 269 321 270
f 270 321 271
f 271 321 322
f 271 322 273
f 271 273 272
f 273 322 313
f 275 323 324
f 275 324 325
f 275 325 276
f 276 325 326
f 276 326 327
f 276 327 328
f 276 328 329
f 276 329 277
f 277 329 278
f 278 329 328
f 278 328 330
f 278 330 331
f 278 331 279
f 279 331 332
f 279 332 280
f 280 332 281
f 281 332 333
f 281 333 282
f 282 333 330
f 282 330 334
f 282 334 335
f 282 335 336
f 282 336 283
f 283 336 337
f 284 338 387
f 284 387 339
f 284 339 340
f 284 340 285
f 285 340 341
f 285 341 342
f 285 342 287
f 285 287 286
f 287 342 343
f 287 343 288
f 288 343 344
f 288 344 289
f 289 344 345
f 289 345 290
f 290 345 346
f 290 346 291
f 291 301 292
f 291 346 347
f 291 347 301
f 292 301 296
f 292 296 293
f 293 296 294
f 294 296 295
f 296 301 297
f 298 301 347
f 298 347 299
f 299 348 349
f 299 349 350
f 299 350 303
f 299 303 302
f 299 302 300
f 299 347 348
f 303 351 352
f 303 352 353
f 303 353 305
f 303 350 351
f 305 353 306
f 306 353 354
f 306 354 355
f 306 355 308
f 306 308 307
f 308 355 315
f 309 311 357
f 309 357 356
f 310 314 311
f 311 314 358
f 311 358 357
f 312 313 360
f 312 360 361
f 312 361 404
f 312 404 359
f 313 322 362
f 313 362 360
f 314 359 358
f 315 355 363
f 315 363 318
f 318 363 364
f 318 364 319
f 319 364 365
f 319 365 320
f 320 365 366
f 320 366 367
f 320 367 321
f 321 367 362
f 321 362 322
f 324 368 325
f 325 368 369
f 325 369 326
f 326 370 327
f 326 369 371
f 326 371 417
f 326 417 370
f 327 370 372
f 327 372 328
f 328 373 374
f 328 374 375
f 328 375 376
f 328 376 377
f 328 377 330
f 328 372 378
f 328 378 379
f 328 379 380
f 328 380 373
f 330 377 334
f 330 333 331
f 331 333 332
f 334 377 376
f 334 376 335
f 335 376 375
f 335 375 336
f 336 375 381
f 336 381 382
f 336 382 337
f 337 382 383
f 338 384 385
f 338 385 386
f 338 386 387
f 339 387 388
f 339 388 341
f 339 341 340
f 341 388 437
f 341 437 389
f 341 389 342
f 342 389 390
f 342 390 343
f 343 390 391
f 343 391 344
f 344 391 345
f 345 391 392
f 345 392 393
f 345 393 346
f 346 393 394
f 346 394 347
f 347 394 348
f 348 394 395
f 348 395 349
f 349 395 396
f 349 396 351
f 349 351 350
f 351 396 397
f 351 397 352
f 352 397 398
f 352 398 354
f 352 354 353
f 354 398 364
f 354 364 363
f 354 363 355
f 356 357 400
f 356 400 399
f 357 358 401
f 357 401 400
f 358 359 402
f 358 402 403
f 358 403 401
f 359 404 405
f 359 405 402
f 360 362 406
f 360 406 407
f 360 407 361
f 361 407 458
f 361 458 404
f 362 367 406
f 364 398 408
f 364 408 365
f 365 408 409
f 365 409 366
f 366 410 367
f 366 409 411
f 366 411 410
f 367 410 406
f 370 412 413
f 370 413 414
f 370 414 415
f 370 415 416
f 370 416 372
f 370 417 465
f 370 465 412
f 372 416 418
f 372 418 378
f 373 419 381
f 373 381 375
f 373 375 374
f 373 380 420
f 373 420 419
f 378 418 421
f 378 421 422
f 378 422 379
f 379 422 423
f 379 423 424
f 379 424 380
f 380 424 420
f 381 419 382
f 382 425 383
f 382 419 426
f 382 426 427
f 382 427 428
f 382 428 429
f 382 429 430
f 382 430 425
f 383 425 431
f 384 431 432
f 384 432 433
f 384 433 434
f 384 434 385
f 385 434 435
f 385 435 436
f 385 436 388
f 385 388 386
f 386 388 387
f 388 436 437
f 389 437 497
f 389 497 438
f 389 438 390
f 390 438 439
f 390 439 391
f 391 439 440
f 391 440 392
f 392 440 441
f 392 441 393
f 393 441 442
f 393 442 395
f 393 395 394
f 395 442 443
f 395 443 444
f 395 444 397
f 395 397 396
f 397 445 409
f 397 409 408
f 397 408 398
f 397 444 445
f 399 400 447
f 399 447 448
f 399 448 449
f 399 449 450
f 399 450 451
f 399 451 452
f 399 452 446
f 400 401 447
f 401 403 453
f 401 453 454
f 401 454 448
f 401 448 447
f 402 455 403
f 402 405 456
f 402 456 455
f 403 455 457
f 403 457 453
f 404 458 459
f 404 459 405
f 405 459 456
f 406 410 460
f 406 460 407
f 407 460 461
f 407 461 517
f 407 517 458
f 409 445 462
f 409 462 411
f 410 411 463
f 410 463 460
f 411 462 464
f 411 464 463
f 412 465 466
f 412 466 413
f 413 466 467
f 413 467 468
f 413 468 469
f 413 469 415
f 413 415 414
f 415 469 470
f 415 470 416
f 416 470 471
f 416 471 418
f 418 471 478
f 418 478 421
f 419 420 472
f 419 472 473
f 419 473 474
f 419 474 475
f 419 475 426
f 420 424 423
f 420 423 476
f 420 476 477
f 420 477 473
f 420 473 472
f 421 478 479
f 421 479 422
f 422 479 476
f 422 476 423
f 425 430 480
f 425 480 481
f 425 481 432
f 425 432 431
f 426 475 482
f 426 482 483
f 426 483 484
f 426 484 485
f 426 485 486
f 426 486 427
f 427 486 487
f 427 487 428
f 428 487 429
f 429 488 480
f 429 480 430
f 429 487 488
f 432 481 489
f 432 489 490
f 432 490 491
f 432 491 492
f 432 492 493
f 432 493 433
f 433 493 494
f 433 494 435
f 433 435 434
f 435 494 495
f 435 495 436
f 436 495 496
f 436 496 437
f 437 496 497
f 438 497 549
f 438 549 498
f 438 498 439
f 439 498 499
f 439 499 500
f 439 500 440
f 440 500 501
f 440 501 441
f 441 501 442
f 442 501 443
f 443 501 462
f 443 462 445
f 443 445 444
f 446 452 502
f 448 503 504
f 448 504 505
f 448 505 506
f 448 506 449
f 448 454 507
f 448 507 508
f 448 508 503
f 449 506 509
f 449 509 450
f 450 509 451
f 451 509 510
f 451 510 452
f 452 510 511
f 452 511 512
f 452 512 502
f 453 457 454
f 454 457 513
f 454 513 514
f 454 514 507
f 455 456 515
f 455 515 457
f 456 459 516
f 456 516 515
f 457 515 513
f 458 517 518
f 458 518 459
f 459 518 519
f 459 519 516
f 460 463 520
f 460 520 461
f 461 520 521
f 461 521 572
f 461 572 517
f 462 501 464
f 463 464 500
f 463 500 522
f 463 522 520
f 464 501 500
f 465 523 466
f 466 523 524
f 466 524 467
f 467 524 525
f 467 525 468
f 468 526 469
f 468 525 527
f 468 527 526
f 469 526 528
f 469 528 470
f 470 528 471
f 471 528 529
f 471 529 585
f 471 585 530
f 471 530 478
f 473 477 474
f 474 477 482
f 474 482 475
f 476 482 477
f 476 479 531
f 476 531 532
f 476 532 483
f 476 483 482
f 478 530 479
f 479 530 531
f 480 488 533
f 480 533 481
f 481 533 489
f 483 532 484
f 484 532 534
f 484 534 535
f 484 535 485
f 485 535 536
f 485 536 537
f 485 537 486
f 486 537 487
f 487 537 538
f 487 538 488
f 488 538 539
f 488 539 540
f 488 540 541
f 488 541 533
f 489 533 541
f 489 541 490
f 490 541 540
f 490 540 491
f 491 540 542
f 491 542 543
f 491 543 544
f 491 544 492
f 492 544 545
f 492 545 493
f 493 545 494
f 494 545 546
f 494 546 495
f 495 546 547
f 495 547 496
f 496 547 548
f 496 548 497
f 497 548 549
f 498 549 604
f 498 604 550
f 498 550 499
f 499 550 522
f 499 522 500
f 502 512 551
f 503 508 552
f 503 552 504
f 504 552 505
f 505 552 553
f 505 553 554
f 505 554 506
f 506 554 555
f 506 555 509
f 507 514 552
f 507 552 508
f 509 555 556
f 509 556 557
f 509 557 510
f 510 557 558
f 510 558 559
f 510 559 511
f 511 559 560
f 511 560 512
f 512 560 561
f 512 561 562
f 512 562 563
f 512 563 564
f 512 564 565
f 512 565 551
f 513 515 514
f 514 515 566
f 514 566 567
f 514 567 568
f 514 568 569
f 514 569 570
f 514 570 552
f 515 516 566
f 516 519 571
f 516 571 566
f 517 572 573
f 517 573 518
f 518 573 574
f 518 574 519
f 519 574 575
f 519 575 571
f 520 522 550
f 520 550 521
f 521 550 604
f 521 604 572
f 523 576 577
f 523 577 525
f 523 525 524
f 525 577 578
f 525 578 527
f 526 527 579
f 526 579 528
f 527 578 580
f 527 580 581
f 527 581 582
f 527 582 579
f 528 583 529
f 528 579 584
f 528 584 583
f 529 583 585
f 530 585 586
f 530 586 587
f 530 587 531
f 531 587 532
f 532 587 534
f 534 587 586
f 534 586 535
f 535 586 536
f 536 588 589
f 536 589 590
f 536 590 591
f 536 591 537
f 536 586 588
f 537 591 538
f 538 591 592
f 538 592 539
f 539 593 594
f 539 594 540
f 539 592 593
f 540 594 542
f 542 595 596
f 542 596 543
f 542 594 595
f 543 596 597
f 543 597 598
f 543 598 544
f 544 598 599
f 544 599 545
f 545 599 546
f 546 599 547
f 547 599 600
f 547 600 601
f 547 601 548
f 548 601 602
f 548 602 603
f 548 603 549
f 549 603 604
f 552 569 605
f 552 605 553
f 552 570 569
f 553 606 554
f 553 605 569
f 553 569 606
f 554 606 607
f 554 607 555
f 555 607 556
f 556 607 608
f 556 608 609
f 556 609 557
f 557 609 558
f 558 609 610
f 558 610 611
f 558 611 559
f 559 611 612
f 559 612 560
f 560 612 561
f 561 612 613
f 561 613 614
f 561 614 562
f 562 614 563
f 563 614 615
f 563 615 616
f 563 616 564
f 564 616 617
f 564 617 577
f 564 577 576
f 564 576 618
f 564 618 619
f 564 619 565
f 566 571 620
f 566 620 567
f 567 620 621
f 567 621 568
f 568 621 622
f 568 622 569
f 569 622 623
f 569 623 606
f 571 575 624
f 571 624 620
f 572 604 573
f 573 604 625
f 573 625 574
f 574 625 602
f 574 602 626
f 574 626 575
f 575 626 627
f 575 627 624
f 577 617 580
f 577 580 578
f 579 582 628
f 579 628 584
f 580 617 581
f 581 629 628
f 581 628 582
f 581 617 630
f 581 630 631
f 581 631 629
f 583 584 632
f 583 632 633
f 583 633 634
f 583 634 585
f 584 628 632
f 585 634 586
f 586 634 588
f 588 634 589
f 589 635 636
f 589 636 590
f 589 634 635
f 590 636 637
f 590 637 638
f 590 638 591
f 591 638 592
f 592 638 639
f 592 639 593
f 593 639 640
f 593 640 641
f 593 641 594
f 594 641 595
f 595 642 643
f 595 643 596
f 595 641 644
f 595 644 642
f 596 645 646
f 596 646 597
f 596 643 645
f 597 647 648
f 597 648 649
f 597 649 598
f 597 646 647
f 598 649 650
f 598 650 599
f 599 650 600
f 600 651 601
f 600 650 651
f 601 651 652
f 601 652 602
f 602 652 626
f 602 625 603
f 603 625 604
f 606 653 654
f 606 654 607
f 606 623 653
f 607 655 608
f 607 654 655
f 608 655 656
f 608 656 609
f 609 656 610
f 610 656 657
f 610 657 611
f 611 657 658
f 611 658 659
f 611 659 612
f 612 659 613
f 613 659 614
f 614 659 615
f 615 659 660
f 615 660 661
f 615 661 616
f 616 661 630
f 616 630 617
f 620 624 662
f 620 662 621
f 621 662 663
f 621 663 664
f 621 664 622
f 622 664 623
f 623 664 653
f 624 627 665
f 624 665 666
f 624 666 662
f 626 652 627
f 627 652 667
f 627 667 665
f 628 629 668
f 628 668 632
f 629 631 669
f 629 669 668
f 630 661 660
f 630 660 631
f 631 660 670
f 631 670 669
f 632 668 635
f 632 635 634
f 632 634 633
f 635 668 671
f 635 671 636
f 636 671 672
f 636 672 637
f 637 672 673
f 637 673 639
f 637 639 638
f 639 673 640
f 640 674 675
f 640 675 644
f 640 644 641
f 640 673 674
f 642 644 675
f 642 675 676
f 642 676 677
f 642 677 678
f 642 678 679
f 642 679 645
f 642 645 643
f 645 680 681
f 645 681 682
f 645 682 683
f 645 683 647
f 645 647 646
f 645 679 680
f 647 684 685
f 647 685 686
f 647 686 687
f 647 687 648
f 647 683 684
f 648 687 688
f 648 688 649
f 649 688 650
f 650 688 689
f 650 689 651
f 651 689 652
f 652 689 667
f 653 664 690
f 653 690 691
f 653 691 655
f 653 655 654
f 655 691 685
f 655 685 692
f 655 692 693
f 655 693 656
f 656 693 682
f 656 682 694
f 656 694 680
f 656 680 695
f 656 695 657
f 657 695 680
f 657 680 696
f 657 696 677
f 657 677 697
f 657 697 698
f 657 698 699
f 657 699 658
f 658 699 659
f 659 699 700
f 659 700 660
f 660 700 701
f 660 701 670
f 662 666 663
f 663 666 702
f 663 702 664
f 664 702 690
f 665 667 703
f 665 703 666
f 666 703 688
f 666 688 704
f 666 704 705
f 666 705 702
f 667 689 688
f 667 688 703
f 668 669 671
f 669 670 698
f 669 698 706
f 669 706 707
f 669 707 671
f 670 701 698
f 671 707 672
f 672 707 708
f 672 708 673
f 673 708 674
f 674 708 709
f 674 709 675
f 675 709 676
f 676 709 677
f 677 709 710
f 677 710 711
f 677 711 697
f 677 696 680
f 677 680 678
f 678 680 679
f 680 694 682
f 680 682 681
f 682 693 692
f 682 692 685
f 682 685 684
f 682 684 683
f 685 691 690
f 685 690 702
f 685 702 705
f 685 705 686
f 686 705 687
f 687 705 704
f 687 704 688
f 697 711 698
f 698 700 699
f 698 711 710
f 698 710 706
f 698 701 700
f 706 708 707
f 706 710 708
f 708 710 709

