# https://github.com/mikedh/trimesh
v 0.01033990 0.00189974 -0.01970359
v 0.01032775 0.01644278 -0.01908640
v 0.01033990 -0.00119051 -0.01970359
v 0.01033990 0.01644278 -0.02155518
v 0.01025083 0.01644278 -0.01846920
v 0.00804237 -0.00022726 0.00105497
v 0.01032775 0.01054929 -0.01908640
v 0.01032168 -0.00180777 -0.01970359
v 0.01032371 -0.00180777 -0.02032079
v 0.01033990 -0.00119051 -0.02279568
v 0.01032573 -0.00119051 -0.01908640
v 0.01033990 0.01644278 -0.05245165
v 0.01015974 0.01644278 -0.01818199
v 0.00747760 -0.00010538 0.00300433
v 0.00785411 -0.00057128 0.00192882
v 0.00804237 -0.00037076 0.00105497
v 0.01018201 -0.00242700 -0.01970359
v 0.01019213 -0.00242700 -0.02032079
v 0.01029942 -0.00180777 -0.01908640
v 0.01032371 -0.00180777 -0.02217849
v 0.01033990 0.00066325 -0.03823781
v 0.01033990 0.00375350 -0.05245165
v 0.01021642 0.01644278 -0.05306884
v 0.01005448 0.01644278 -0.01785200
v 0.00686830 -0.00009948 0.00420206
v 0.00736424 -0.00057128 0.00335265
v 0.00749380 -0.00057128 0.00304100
v 0.00767598 -0.00057128 0.00254602
v 0.00998566 0.01644278 -0.01769312
v 0.00990469 0.01644278 -0.01750980
v 0.00773468 -0.00119051 0.00192882
v 0.00786423 -0.00119051 0.00130552
v 0.00798569 -0.00057521 0.00128107
v 0.00802415 -0.00078358 0.00088998
v 0.00997553 -0.00284964 -0.01970359
v 0.01013140 -0.00242700 -0.01908640
v 0.00997958 -0.00285751 -0.02032079
v 0.00997958 -0.00285947 -0.02155518
v 0.01019213 -0.00242700 -0.02155518
v 0.01019011 -0.00242700 -0.02217849
v 0.01030549 -0.00180777 -0.02279568
v 0.01033180 0.00066325 -0.03885500
v 0.01021642 0.00313623 -0.05245165
v 0.01021642 0.00375350 -0.05306884
v 0.00999173 0.01644278 -0.05348438
v 0.00632580 -0.00006410 0.00489259
v 0.00638450 -0.00057128 0.00495980
v 0.00669219 -0.00057128 0.00454427
v 0.00688652 -0.00057128 0.00423872
v 0.00714562 -0.00057128 0.00378041
v 0.00968404 0.01644278 -0.01720425
v 0.00698368 -0.00121803 0.00382319
v 0.00731161 -0.00121213 0.00316321
v 0.00745736 -0.00101948 0.00295545
v 0.00753833 -0.00121213 0.00257046
v 0.00746748 -0.00160136 0.00238103
v 0.00753023 -0.00172127 0.00192882
v 0.00758084 -0.00186281 0.00134829
v 0.00965773 -0.00315828 -0.01970359
v 0.00966987 -0.00316614 -0.02032079
v 0.00993910 -0.00280050 -0.01908640
v 0.00745129 -0.00216358 0.00117108
v 0.00965975 -0.00316811 -0.02093798
v 0.00997958 -0.00284964 -0.02217849
v 0.01010914 0.00011282 -0.03885500
v 0.00995529 0.00277649 -0.05290996
v 0.01006055 0.00310871 -0.05309329
v 0.00995529 0.00329743 -0.05344771
v 0.00999173 0.00375350 -0.05348438
v 0.00968404 0.01644278 -0.05379603
v 0.00574686 -0.00006410 0.00552200
v 0.00613147 -0.00057128 0.00527146
v 0.00954032 0.01644278 -0.01702704
v 0.00937433 0.01644278 -0.01683149
v 0.00631163 -0.00119051 0.00487425
v 0.00684603 -0.00103128 0.00417151
v 0.00677721 -0.00144409 0.00405540
v 0.00689664 -0.00167999 0.00364597
v 0.00739258 -0.00143230 0.00279656
v 0.00736627 -0.00202990 0.00192882
v 0.00728530 -0.00180777 0.00257046
v 0.00740878 -0.00210460 0.00158661
v 0.00934801 -0.00340204 -0.01970359
v 0.00936218 -0.00340990 -0.02032079
v 0.00682377 -0.00275922 0.00172105
v 0.00931360 -0.00338041 -0.01927583
v 0.00702214 -0.00247221 0.00192882
v 0.00935206 -0.00340007 -0.02093798
v 0.00931765 -0.00337845 -0.02132297
v 0.00994922 -0.00280640 -0.02257569
v 0.01004233 0.00016000 -0.03947220
v 0.00942089 0.00277256 -0.05353327
v 0.00983181 0.00288658 -0.05331939
v 0.00957878 -0.00008769 -0.03947220
v 0.00958688 0.00309102 -0.05369826
v 0.00933992 0.00329743 -0.05405880
v 0.00968404 0.00375350 -0.05379603
v 0.00951805 0.01644278 -0.05395492
v 0.00513959 -0.00006410 0.00610864
v 0.00552622 -0.00057128 0.00591310
v 0.00582378 -0.00057128 0.00560144
v 0.00605657 -0.00119051 0.00517980
v 0.00574686 -0.00119051 0.00552200
v 0.00918203 0.01644278 -0.01677038
v 0.00277930 0.00003419 0.00740415
v 0.00339873 -0.00006606 0.00727582
v 0.00397564 0.00001060 0.00686639
v 0.00447968 -0.00007393 0.00666473
v 0.00623066 -0.00158563 0.00477037
v 0.00664361 -0.00121803 0.00438538
v 0.00669017 -0.00185495 0.00382319
v 0.00636021 -0.00179794 0.00439150
v 0.00677923 -0.00209084 0.00343209
v 0.00701000 -0.00185495 0.00319988
v 0.00686830 -0.00220486 0.00302267
v 0.00696142 -0.00231691 0.00254602
v 0.00598370 -0.00326247 0.00192882
v 0.00567399 -0.00339811 0.00192882
v 0.00895936 -0.00353178 -0.01970359
v 0.00895936 -0.00354751 -0.02032079
v 0.00676709 -0.00270811 0.00213659
v 0.00653227 -0.00292435 0.00192882
v 0.00834196 -0.00362024 -0.02032079
v 0.00895936 -0.00013880 -0.03947220
v 0.00896745 0.00274307 -0.05371659
v 0.00876705 0.00279812 -0.05402825
v 0.00917798 0.00288658 -0.05394269
v 0.00937433 0.00375350 -0.05408936
v 0.00896745 0.00310871 -0.05412602
v 0.00895936 0.00375350 -0.05426046
v 0.00937433 0.01644278 -0.05408936
v 0.00521651 -0.00057128 0.00617586
v 0.00512744 -0.00119051 0.00610253
v 0.00543715 -0.00119051 0.00583366
v 0.00564565 -0.00163084 0.00541812
v 0.00895936 0.01644278 -0.01670316
v 0.00154451 0.00025829 0.00748970
v 0.00154451 -0.00004247 0.00788080
v 0.00199389 -0.00015453 0.00783191
v 0.00374285 -0.00019581 0.00719638
v 0.00484202 -0.00057128 0.00648752
v 0.00587237 -0.00181367 0.00501480
v 0.00609706 -0.00199845 0.00459926
v 0.00624281 -0.00219110 0.00418373
v 0.00636831 -0.00231888 0.00378041
v 0.00616791 -0.00272580 0.00345042
v 0.00652215 -0.00246435 0.00323654
v 0.00668612 -0.00262554 0.00254602
v 0.00637641 -0.00288110 0.00254602
v 0.00582986 -0.00321135 0.00253991
v 0.00551002 -0.00333520 0.00274768
v 0.00559707 -0.00336862 0.00233825
v 0.00528331 -0.00343546 0.00253991
v 0.00525294 -0.00351605 0.00192882
v 0.00463352 -0.00361238 0.00192882
v 0.00463352 -0.00362810 0.00130552
v 0.00834196 -0.00362024 -0.01970359
v 0.00626507 -0.00280443 0.00303489
v 0.00710514 -0.00363793 -0.02032079
v 0.00648774 -0.00359665 -0.02093798
v 0.00772456 -0.00363400 -0.01970359
v 0.00834196 -0.00013487 -0.03947220
v -0.00834196 0.00270179 -0.05368604
v 0.00834196 0.00270179 -0.05368604
v 0.00587034 -0.00359862 -0.02093798
v -0.00587034 -0.00359862 -0.02093798
v -0.00648774 -0.00359665 -0.02093798
v 0.00834196 0.00278435 -0.05404658
v 0.00834196 0.00313623 -0.05421769
v 0.00915369 0.01644278 -0.05418102
v 0.00895936 0.01644278 -0.05426046
v 0.00834196 0.00375350 -0.05433990
v 0.00862940 0.01644278 -0.05430323
v 0.00502218 -0.00160332 0.00601087
v 0.00473878 -0.00119051 0.00640808
v 0.00550193 -0.00204170 0.00526535
v 0.00526104 -0.00182350 0.00564422
v 0.00834196 0.01644278 -0.01666039
v 0.00092508 0.00032317 0.00748970
v 0.00092508 0.00002240 0.00792968
v 0.00092508 -0.00057128 0.00803967
v 0.00154451 -0.00057128 0.00794190
v 0.00231575 -0.00057128 0.00775857
v 0.00277930 -0.00057128 0.00759358
v 0.00339873 -0.00057128 0.00734304
v 0.00373273 -0.00057128 0.00719638
v 0.00404244 -0.00057128 0.00700694
v 0.00453231 -0.00057128 0.00669529
v 0.00442907 -0.00119051 0.00662807
v 0.00568411 -0.00224025 0.00484981
v 0.00606265 -0.00262751 0.00378041
v 0.00586022 -0.00242110 0.00438538
v 0.00592500 -0.00296563 0.00321210
v 0.00562338 -0.00278084 0.00417151
v 0.00575294 -0.00286537 0.00378041
v 0.00538857 -0.00328016 0.00316321
v 0.00497157 -0.00336469 0.00351153
v 0.00508088 -0.00339811 0.00316321
v 0.00463352 -0.00351016 0.00316321
v 0.00463352 -0.00357896 0.00254602
v 0.00401612 -0.00360058 0.00316321
v 0.00401612 -0.00363007 0.00254602
v 0.00401612 -0.00363793 0.00192882
v 0.00463352 -0.00363793 -0.00178046
v -0.00710514 -0.00363793 -0.02032079
v 0.00710514 -0.00363793 -0.01970359
v -0.00896745 0.00274307 -0.05371659
v -0.00876705 0.00279812 -0.05402825
v -0.00834196 0.00278435 -0.05404658
v -0.00957878 -0.00012897 -0.03885500
v -0.00834196 -0.00362024 -0.02032079
v -0.00834196 0.00313623 -0.05421769
v 0.00834196 0.01644278 -0.05433990
v -0.00834196 0.00375350 -0.05433990
v 0.00486024 -0.00201418 0.00587032
v 0.00434203 -0.00151879 0.00657307
v 0.00460113 -0.00176649 0.00623086
v 0.00509100 -0.00225007 0.00546089
v -0.00834196 0.01644278 -0.01666039
v 0.00030769 0.00003026 0.00795412
v 0.00030769 -0.00057128 0.00808856
v 0.00092508 -0.00119051 0.00792357
v 0.00149188 -0.00116102 0.00784413
v 0.00191697 -0.00093495 0.00781357
v 0.00277930 -0.00119051 0.00747136
v 0.00370641 -0.00088187 0.00717804
v 0.00395540 -0.00112956 0.00694583
v 0.00527319 -0.00245255 0.00503925
v 0.00545537 -0.00265306 0.00458704
v 0.00525092 -0.00289486 0.00438538
v 0.00520639 -0.00317990 0.00374375
v 0.00504445 -0.00279854 0.00481314
v 0.00480558 -0.00330375 0.00392096
v 0.00439264 -0.00337648 0.00415928
v 0.00461328 -0.00341187 0.00374375
v 0.00401612 -0.00353178 0.00378041
v 0.00339873 -0.00360451 0.00378041
v 0.00339873 -0.00363400 0.00316321
v 0.00339873 -0.00363793 0.00254602
v -0.00710514 -0.00363793 -0.01970359
v -0.00772456 -0.00363400 -0.01970359
v -0.00942089 0.00277256 -0.05353327
v -0.00917798 0.00288658 -0.05394269
v -0.00896745 0.00310871 -0.05412602
v -0.01003829 0.00019146 -0.03947220
v -0.00995529 0.00277649 -0.05290996
v -0.00931765 -0.00337845 -0.02132297
v -0.00834196 -0.00362221 -0.01970359
v -0.00895936 -0.00354947 -0.02032079
v -0.00895936 0.00375350 -0.05426046
v -0.00834196 0.01644278 -0.05433990
v 0.00444729 -0.00222255 0.00603532
v 0.00396754 -0.00175862 0.00665862
v 0.00414163 -0.00192965 0.00645085
v 0.00355662 -0.00129469 0.00711082
v 0.00483392 -0.00266289 0.00522868
v 0.00464162 -0.00244272 0.00563811
v -0.00862940 0.01644278 -0.01667872
v -0.00092509 0.00032317 0.00748970
v -0.00030769 0.00003026 0.00795412
v -0.00030769 -0.00057128 0.00808856
v 0.00030769 -0.00119051 0.00797246
v 0.00125099 -0.00150700 0.00780135
v 0.00166191 -0.00134580 0.00775246
v 0.00213761 -0.00116102 0.00769135
v 0.00277930 -0.00168392 0.00727582
v 0.00314569 -0.00154632 0.00720249
v 0.00337039 -0.00112956 0.00724526
v 0.00461328 -0.00321135 0.00437927
v 0.00442300 -0.00278871 0.00540590
v 0.00463150 -0.00290272 0.00502091
v 0.00417806 -0.00330768 0.00457482
v 0.00376714 -0.00337058 0.00475204
v 0.00398981 -0.00341580 0.00437927
v 0.00339873 -0.00352195 0.00439761
v 0.00277930 -0.00363204 0.00378041
v 0.00277930 -0.00359272 0.00439761
v 0.00216191 -0.00362221 0.00439761
v 0.00216191 -0.00363793 0.00378041
v -0.00463352 -0.00363793 -0.00178046
v -0.00983181 0.00288658 -0.05331939
v -0.00933992 0.00329743 -0.05405880
v -0.00958688 0.00309102 -0.05369826
v -0.01010914 0.00011479 -0.03885500
v -0.01021642 0.00313623 -0.05245165
v -0.01006055 0.00310871 -0.05309329
v -0.00935206 -0.00340007 -0.02093798
v -0.00997958 -0.00284964 -0.02217849
v -0.00994922 -0.00280640 -0.02257569
v -0.00463352 -0.00362810 0.00130552
v -0.00463352 -0.00361238 0.00192882
v -0.00525295 -0.00351605 0.00192882
v -0.00895936 -0.00353178 -0.01970359
v -0.00934802 -0.00340204 -0.01970359
v -0.00936219 -0.00340990 -0.02032079
v -0.00937433 0.00375350 -0.05408936
v -0.00918203 0.01644278 -0.05416880
v -0.00895936 0.01644278 -0.05426046
v 0.00372868 -0.00213409 0.00657307
v 0.00393920 -0.00238375 0.00620642
v 0.00414770 -0.00263537 0.00582143
v 0.00337039 -0.00177435 0.00697027
v -0.00895936 0.01644278 -0.01670316
v -0.00092509 0.00002240 0.00792968
v -0.00092509 -0.00057128 0.00803967
v -0.00030769 -0.00119051 0.00797246
v 0.00030769 -0.00158170 0.00783801
v 0.00092508 -0.00154238 0.00781357
v 0.00154451 -0.00226777 0.00729415
v 0.00149188 -0.00175076 0.00761192
v 0.00221454 -0.00186478 0.00737359
v 0.00245745 -0.00211050 0.00717193
v 0.00277930 -0.00199255 0.00711082
v 0.00398981 -0.00319759 0.00498425
v 0.00373475 -0.00274939 0.00596198
v 0.00397159 -0.00286144 0.00561978
v 0.00339873 -0.00329982 0.00519202
v 0.00305663 -0.00334699 0.00530201
v 0.00339873 -0.00340793 0.00488036
v 0.00282181 -0.00345511 0.00506369
v 0.00216191 -0.00354554 0.00501480
v 0.00154451 -0.00363400 0.00439761
v 0.00154451 -0.00358093 0.00501480
v -0.00216191 -0.00363793 0.00378041
v -0.00401612 -0.00363793 0.00192882
v -0.00995529 0.00329743 -0.05344771
v -0.00968404 0.00375350 -0.05379603
v -0.01033383 0.00066325 -0.03885500
v -0.01019011 -0.00242700 -0.02217849
v -0.01033788 0.00375350 -0.05245165
v -0.01021642 0.00375350 -0.05306884
v -0.00965975 -0.00316811 -0.02093798
v -0.00997958 -0.00285947 -0.02155518
v -0.00401612 -0.00363007 0.00254602
v -0.00401612 -0.00360058 0.00316321
v -0.00463352 -0.00357896 0.00254602
v -0.00463352 -0.00351016 0.00316321
v -0.00528331 -0.00343546 0.00253991
v -0.00567399 -0.00339811 0.00192882
v -0.00598370 -0.00326247 0.00192882
v -0.00931360 -0.00338041 -0.01927583
v -0.00965773 -0.00315828 -0.01970359
v -0.00966987 -0.00316614 -0.02032079
v -0.00937433 0.01644278 -0.05408936
v 0.00339873 -0.00254298 0.00636530
v 0.00339873 -0.00223435 0.00665862
v -0.00937433 0.01644278 -0.01683149
v -0.00154451 0.00026419 0.00748970
v -0.00154451 -0.00003854 0.00788080
v -0.00199592 -0.00014863 0.00783191
v -0.00154451 -0.00057128 0.00794190
v -0.00149188 -0.00116102 0.00784413
v -0.00092509 -0.00119051 0.00792357
v -0.00125099 -0.00150700 0.00780135
v -0.00092509 -0.00153845 0.00781357
v -0.00030769 -0.00157777 0.00783801
v -0.00154451 -0.00226777 0.00729415
v 0.00204450 -0.00218717 0.00723304
v 0.00154451 -0.00257640 0.00700694
v 0.00221454 -0.00240734 0.00698861
v 0.00251008 -0.00274742 0.00657307
v 0.00274084 -0.00244862 0.00676251
v 0.00339873 -0.00307571 0.00563200
v 0.00292100 -0.00266879 0.00648752
v 0.00339873 -0.00281819 0.00605365
v 0.00264368 -0.00338631 0.00540590
v 0.00282181 -0.00325067 0.00561978
v 0.00216191 -0.00330178 0.00582143
v 0.00216191 -0.00341973 0.00551589
v 0.00154451 -0.00344529 0.00555867
v -0.00154451 -0.00363400 0.00439761
v -0.00154451 -0.00358093 0.00501480
v -0.00277930 -0.00363204 0.00378041
v -0.00339873 -0.00363400 0.00316321
v -0.00339873 -0.00363793 0.00254602
v -0.00999173 0.00375350 -0.05348438
v -0.00984801 0.01644278 -0.05363104
v -0.00968404 0.01644278 -0.05379603
v -0.01033990 0.00066325 -0.03823781
v -0.01030549 -0.00180777 -0.02279568
v -0.01032371 -0.00180777 -0.02217849
v -0.01019213 -0.00242700 -0.02155518
v -0.01033788 0.01644278 -0.05245165
v -0.01021642 0.01644278 -0.05306884
v -0.01011116 0.01644278 -0.05326439
v -0.00997958 -0.00285751 -0.02032079
v -0.01019213 -0.00242700 -0.02032079
v -0.00339873 -0.00360451 0.00378041
v -0.00401612 -0.00353178 0.00378041
v -0.00461328 -0.00341187 0.00374375
v -0.00497157 -0.00336469 0.00351153
v -0.00508088 -0.00339811 0.00316321
v -0.00551003 -0.00333520 0.00274768
v -0.00559707 -0.00336862 0.00233825
v -0.00582986 -0.00321135 0.00253991
v -0.00637641 -0.00288110 0.00254602
v -0.00653227 -0.00292435 0.00192882
v -0.00682377 -0.00275922 0.00172105
v -0.00993910 -0.00280050 -0.01908640
v -0.00997553 -0.00284964 -0.01970359
v -0.00952008 0.01644278 -0.01700260
v -0.00632580 -0.00006410 0.00489259
v -0.00574686 -0.00006410 0.00552200
v -0.00513959 -0.00006410 0.00610864
v -0.00447968 -0.00007393 0.00666473
v -0.00397564 0.00001060 0.00686639
v -0.00339873 -0.00006606 0.00727582
v -0.00277930 0.00003419 0.00740415
v -0.00277930 -0.00057128 0.00759358
v -0.00231575 -0.00057128 0.00775857
v -0.00200806 -0.00057128 0.00783191
v -0.00374285 -0.00019581 0.00719638
v -0.00191697 -0.00093495 0.00781357
v -0.00166191 -0.00134580 0.00775246
v -0.00221454 -0.00186478 0.00737359
v -0.00149188 -0.00175076 0.00761192
v -0.00204450 -0.00218717 0.00723304
v -0.00221454 -0.00240734 0.00698861
v -0.00154451 -0.00257640 0.00700694
v 0.00154451 -0.00283392 0.00670140
v 0.00216191 -0.00279657 0.00663418
v 0.00274084 -0.00289289 0.00627364
v 0.00216191 -0.00305409 0.00624919
v -0.00154451 -0.00344529 0.00555867
v -0.00216191 -0.00362221 0.00439761
v -0.00216191 -0.00354554 0.00501480
v -0.00277930 -0.00359272 0.00439761
v -0.00999173 0.01644278 -0.05348438
v -0.01033990 0.00313623 -0.03823781
v -0.01033990 -0.00119051 -0.02279568
v -0.01032371 -0.00180777 -0.02032079
v -0.01033788 0.01644278 -0.02155518
v -0.01018403 -0.00242700 -0.01970359
v -0.01032168 -0.00180777 -0.01970359
v -0.00339873 -0.00352195 0.00439761
v -0.00398981 -0.00341580 0.00437927
v -0.00439264 -0.00337648 0.00415928
v -0.00480558 -0.00330375 0.00392096
v -0.00520639 -0.00317990 0.00374375
v -0.00538857 -0.00328016 0.00316321
v -0.00592500 -0.00296563 0.00321210
v -0.00626507 -0.00280443 0.00303489
v -0.00676709 -0.00270811 0.00213659
v -0.00702215 -0.00247221 0.00192882
v -0.00745129 -0.00216358 0.00117108
v -0.01013140 -0.00242700 -0.01908640
v -0.00968404 0.01644278 -0.01720425
v -0.00686830 -0.00009948 0.00420206
v -0.00638450 -0.00057128 0.00495980
v -0.00613147 -0.00057128 0.00527146
v -0.00582379 -0.00057128 0.00560144
v -0.00552622 -0.00057128 0.00591310
v -0.00521651 -0.00057128 0.00617586
v -0.00484202 -0.00057128 0.00648752
v -0.00339873 -0.00057128 0.00734304
v -0.00370641 -0.00088187 0.00717804
v -0.00277930 -0.00119051 0.00747136
v -0.00373273 -0.00057128 0.00719638
v -0.00453231 -0.00057128 0.00669529
v -0.00404244 -0.00057128 0.00700694
v -0.00213761 -0.00116102 0.00769135
v -0.00277930 -0.00168392 0.00727582
v -0.00245745 -0.00211050 0.00717193
v -0.00251008 -0.00274742 0.00657307
v -0.00216191 -0.00279460 0.00663418
v -0.00154451 -0.00283392 0.00670140
v -0.00216191 -0.00330178 0.00582143
v -0.00216191 -0.00341973 0.00551589
v -0.00282181 -0.00345511 0.00506369
v -0.01033990 0.00313623 -0.02155518
v -0.01033990 -0.00119051 -0.01970359
v -0.01033990 0.00189974 -0.01970359
v -0.01032776 0.01644278 -0.01908640
v -0.01029942 -0.00180777 -0.01908640
v -0.01032573 -0.00119051 -0.01908640
v -0.00339873 -0.00340793 0.00488036
v -0.00376714 -0.00337058 0.00475204
v -0.00417807 -0.00330768 0.00457482
v -0.00461328 -0.00321135 0.00437927
v -0.00575294 -0.00286537 0.00378041
v -0.00525092 -0.00289486 0.00438538
v -0.00562338 -0.00278084 0.00417151
v -0.00616791 -0.00272580 0.00345042
v -0.00668612 -0.00262554 0.00254602
v -0.00696142 -0.00231691 0.00254602
v -0.00736627 -0.00202990 0.00192882
v -0.00740878 -0.00210460 0.00158661
v -0.00758084 -0.00186281 0.00134829
v -0.00786424 -0.00119051 0.00130552
v -0.00978728 0.01644278 -0.01734480
v -0.00747760 -0.00010538 0.00300433
v -0.00736424 -0.00057128 0.00335265
v -0.00714562 -0.00057128 0.00378041
v -0.00688652 -0.00057128 0.00423872
v -0.00669219 -0.00057128 0.00454427
v -0.00990469 0.01644278 -0.01750980
v -0.00631163 -0.00119051 0.00487425
v -0.00605657 -0.00119051 0.00517980
v -0.00574686 -0.00119051 0.00552200
v -0.00543715 -0.00119051 0.00583366
v -0.00512744 -0.00119051 0.00610253
v -0.00473878 -0.00119051 0.00640808
v -0.00442907 -0.00119051 0.00662807
v -0.00355662 -0.00129469 0.00711082
v -0.00337039 -0.00112956 0.00724526
v -0.00395540 -0.00112956 0.00694583
v -0.00314569 -0.00154632 0.00720249
v -0.00277930 -0.00199255 0.00711082
v -0.00339873 -0.00223435 0.00665862
v -0.00274084 -0.00244862 0.00676251
v -0.00292100 -0.00266879 0.00648752
v -0.00274084 -0.00289289 0.00627364
v -0.00216191 -0.00305212 0.00624919
v -0.00282181 -0.00325067 0.00561978
v -0.00305663 -0.00334699 0.00530201
v -0.00264368 -0.00338631 0.00540590
v -0.01032776 0.01054929 -0.01908640
v -0.00804237 -0.00022726 0.00105497
v -0.01025083 0.01644278 -0.01846920
v -0.00802415 -0.00078358 0.00088998
v -0.00804237 -0.00037076 0.00105497
v -0.00339873 -0.00329982 0.00519202
v -0.00398981 -0.00319759 0.00498425
v -0.00463150 -0.00290272 0.00502091
v -0.00504445 -0.00279854 0.00481314
v -0.00545537 -0.00265306 0.00458704
v -0.00586022 -0.00242110 0.00438538
v -0.00606265 -0.00262751 0.00378041
v -0.00636831 -0.00231888 0.00378041
v -0.00677923 -0.00209084 0.00343209
v -0.00652215 -0.00246435 0.00323654
v -0.00686830 -0.00220486 0.00302267
v -0.00746748 -0.00160136 0.00238103
v -0.00753023 -0.00172127 0.00192882
v -0.00728530 -0.00180777 0.00257046
v -0.00773468 -0.00119051 0.00192882
v -0.00785411 -0.00057128 0.00192882
v -0.00798569 -0.00057521 0.00128107
v -0.00767598 -0.00057128 0.00254602
v -0.00749380 -0.00057128 0.00304100
v -0.00997553 0.01644278 -0.01766868
v -0.01005448 0.01644278 -0.01785200
v -0.00698368 -0.00121803 0.00382319
v -0.00745736 -0.00101948 0.00295545
v -0.00731161 -0.00121213 0.00316321
v -0.00684603 -0.00103128 0.00417151
v -0.00664361 -0.00121803 0.00438538
v -0.00623066 -0.00158563 0.00477037
v -0.00564565 -0.00163084 0.00541812
v -0.00502218 -0.00160332 0.00601087
v -0.00434203 -0.00151879 0.00657307
v -0.00396754 -0.00175862 0.00665862
v -0.00337039 -0.00177435 0.00697027
v -0.00372868 -0.00213409 0.00657307
v -0.00339873 -0.00254298 0.00636530
v -0.00373475 -0.00274939 0.00596198
v -0.00339873 -0.00281819 0.00605365
v -0.00339873 -0.00307571 0.00563200
v -0.00397159 -0.00286144 0.00561978
v -0.00442300 -0.00278871 0.00540590
v -0.00483392 -0.00266289 0.00522868
v -0.00527319 -0.00245255 0.00503925
v -0.00568411 -0.00224025 0.00484981
v -0.00624281 -0.00219110 0.00418373
v -0.00669017 -0.00185495 0.00382319
v -0.00689664 -0.00167999 0.00364597
v -0.00701000 -0.00185495 0.00319988
v -0.00739258 -0.00143230 0.00279656
v -0.00753833 -0.00121213 0.00257046
v -0.00677721 -0.00144409 0.00405540
v -0.00587237 -0.00181367 0.00501480
v -0.00636021 -0.00179794 0.00439150
v -0.00609706 -0.00199845 0.00459926
v -0.00550193 -0.00204170 0.00526535
v -0.00526104 -0.00182350 0.00564422
v -0.00486024 -0.00201418 0.00587032
v -0.00460113 -0.00176649 0.00623086
v -0.00414163 -0.00192965 0.00645085
v -0.00444729 -0.00222255 0.00603532
v -0.00393920 -0.00238375 0.00620642
v -0.00414770 -0.00263537 0.00582143
v -0.00464162 -0.00244272 0.00563811
v -0.00509100 -0.00225007 0.00546089
f 1 2 7
f 1 7 3
f 1 3 10
f 1 10 21
f 1 21 22
f 1 22 12
f 1 12 4
f 1 4 2
f 2 5 6
f 2 6 16
f 2 16 7
f 2 4 12
f 2 12 23
f 2 23 45
f 2 45 70
f 2 70 98
f 2 98 131
f 2 131 170
f 2 170 171
f 2 171 173
f 2 173 213
f 2 213 251
f 2 251 298
f 2 298 297
f 2 297 344
f 2 344 378
f 2 378 377
f 2 377 428
f 2 428 385
f 2 385 384
f 2 384 383
f 2 383 432
f 2 432 473
f 2 473 519
f 2 519 542
f 2 542 541
f 2 541 496
f 2 496 490
f 2 490 447
f 2 447 401
f 2 401 347
f 2 347 303
f 2 303 258
f 2 258 219
f 2 219 178
f 2 178 136
f 2 136 104
f 2 104 74
f 2 74 73
f 2 73 51
f 2 51 30
f 2 30 29
f 2 29 24
f 2 24 13
f 2 13 5
f 3 8 9
f 3 9 20
f 3 20 10
f 3 7 11
f 3 11 8
f 5 13 14
f 5 14 6
f 6 14 15
f 6 15 16
f 7 16 11
f 8 17 18
f 8 18 9
f 8 11 19
f 8 19 17
f 9 18 39
f 9 39 20
f 10 20 21
f 11 16 19
f 12 22 44
f 12 44 23
f 13 24 14
f 14 25 26
f 14 26 27
f 14 27 28
f 14 28 15
f 14 24 29
f 14 29 30
f 14 30 25
f 15 28 31
f 15 31 32
f 15 32 33
f 15 33 16
f 16 33 34
f 16 34 19
f 17 35 18
f 17 19 36
f 17 36 35
f 18 37 38
f 18 38 39
f 18 35 37
f 19 34 32
f 19 32 36
f 20 39 40
f 20 40 41
f 20 41 42
f 20 42 21
f 21 42 22
f 22 43 44
f 22 42 43
f 23 44 69
f 23 69 45
f 25 46 47
f 25 47 48
f 25 48 49
f 25 49 50
f 25 50 26
f 25 30 51
f 25 51 46
f 26 50 52
f 26 52 53
f 26 53 54
f 26 54 27
f 27 54 28
f 28 54 55
f 28 55 31
f 31 55 56
f 31 56 57
f 31 57 32
f 32 34 33
f 32 57 58
f 32 58 36
f 35 59 60
f 35 60 37
f 35 36 61
f 35 61 59
f 36 58 62
f 36 62 61
f 37 60 38
f 38 60 63
f 38 63 64
f 38 64 40
f 38 40 39
f 40 64 65
f 40 65 42
f 40 42 41
f 42 65 43
f 43 66 67
f 43 67 44
f 43 65 66
f 44 67 68
f 44 68 69
f 45 69 97
f 45 97 70
f 46 71 72
f 46 72 47
f 46 51 73
f 46 73 74
f 46 74 71
f 47 72 75
f 47 75 48
f 48 76 49
f 48 75 76
f 49 76 50
f 50 76 52
f 52 76 77
f 52 77 78
f 52 78 53
f 53 78 79
f 53 79 54
f 54 79 55
f 55 79 56
f 56 80 57
f 56 79 81
f 56 81 80
f 57 80 82
f 57 82 58
f 58 82 62
f 59 83 84
f 59 84 60
f 59 61 85
f 59 85 86
f 59 86 83
f 60 84 63
f 61 62 85
f 62 82 87
f 62 87 85
f 63 84 88
f 63 88 64
f 64 88 89
f 64 89 90
f 64 90 91
f 64 91 65
f 65 91 66
f 66 92 93
f 66 93 67
f 66 91 94
f 66 94 92
f 67 93 68
f 68 93 95
f 68 95 96
f 68 96 97
f 68 97 69
f 70 97 98
f 71 99 100
f 71 100 101
f 71 101 72
f 71 74 99
f 72 102 75
f 72 101 103
f 72 103 102
f 74 104 105
f 74 105 106
f 74 106 107
f 74 107 108
f 74 108 99
f 75 109 110
f 75 110 76
f 75 102 109
f 76 110 77
f 77 111 78
f 77 110 109
f 77 109 112
f 77 112 111
f 78 113 114
f 78 114 79
f 78 111 113
f 79 114 81
f 80 87 82
f 80 81 115
f 80 115 116
f 80 116 87
f 81 114 113
f 81 113 115
f 83 86 117
f 83 117 118
f 83 118 119
f 83 119 120
f 83 120 84
f 84 120 88
f 85 87 121
f 85 121 122
f 85 122 86
f 86 122 117
f 87 116 121
f 88 120 89
f 89 120 123
f 89 123 124
f 89 124 94
f 89 94 91
f 89 91 90
f 92 125 126
f 92 126 127
f 92 127 93
f 92 94 125
f 93 127 95
f 94 124 125
f 95 127 96
f 96 128 97
f 96 127 129
f 96 129 130
f 96 130 128
f 97 128 98
f 98 128 131
f 99 108 132
f 99 132 100
f 100 132 133
f 100 133 134
f 100 134 103
f 100 103 101
f 102 103 135
f 102 135 109
f 103 134 135
f 104 136 137
f 104 137 105
f 105 137 138
f 105 138 139
f 105 139 106
f 106 139 140
f 106 140 108
f 106 108 107
f 108 140 141
f 108 141 132
f 109 135 142
f 109 142 143
f 109 143 112
f 111 112 144
f 111 144 113
f 112 143 144
f 113 144 145
f 113 145 146
f 113 146 147
f 113 147 115
f 115 148 116
f 115 147 148
f 116 148 121
f 117 122 149
f 117 149 150
f 117 150 151
f 117 151 152
f 117 152 118
f 118 152 153
f 118 153 154
f 118 154 119
f 119 154 155
f 119 155 120
f 120 155 156
f 120 156 157
f 120 157 123
f 121 148 158
f 121 158 149
f 121 149 122
f 123 159 160
f 123 160 124
f 123 157 161
f 123 161 159
f 124 162 163
f 124 163 164
f 124 164 125
f 124 160 165
f 124 165 166
f 124 166 167
f 124 167 162
f 125 164 126
f 126 164 168
f 126 168 169
f 126 169 129
f 126 129 127
f 128 130 170
f 128 170 131
f 129 169 130
f 130 171 170
f 130 169 172
f 130 172 173
f 130 173 171
f 132 141 133
f 133 174 134
f 133 141 175
f 133 175 174
f 134 174 135
f 135 176 142
f 135 174 177
f 135 177 176
f 136 178 179
f 136 179 180
f 136 180 137
f 137 180 138
f 138 180 181
f 138 181 139
f 139 181 182
f 139 182 183
f 139 183 184
f 139 184 140
f 140 184 185
f 140 185 186
f 140 186 187
f 140 187 188
f 140 188 141
f 141 188 189
f 141 189 175
f 142 176 143
f 143 176 190
f 143 190 144
f 144 191 145
f 144 190 192
f 144 192 191
f 145 191 146
f 146 193 158
f 146 158 148
f 146 148 147
f 146 191 194
f 146 194 195
f 146 195 193
f 149 158 193
f 149 193 150
f 150 193 151
f 151 153 152
f 151 193 196
f 151 196 197
f 151 197 198
f 151 198 153
f 153 198 199
f 153 199 154
f 154 199 200
f 154 200 155
f 155 200 201
f 155 201 202
f 155 202 156
f 156 202 203
f 156 203 204
f 156 204 161
f 156 161 157
f 159 205 166
f 159 166 165
f 159 165 160
f 159 161 206
f 159 206 204
f 159 204 203
f 159 203 239
f 159 239 279
f 159 279 324
f 159 324 375
f 159 375 325
f 159 325 280
f 159 280 240
f 159 240 205
f 161 204 206
f 162 167 163
f 163 207 208
f 163 208 209
f 163 209 168
f 163 168 164
f 163 167 210
f 163 210 207
f 166 205 167
f 167 205 211
f 167 211 210
f 168 209 212
f 168 212 169
f 169 212 214
f 169 214 172
f 172 213 173
f 172 214 251
f 172 251 213
f 174 215 177
f 174 175 216
f 174 216 217
f 174 217 215
f 175 189 216
f 176 177 215
f 176 215 218
f 176 218 190
f 178 219 260
f 178 260 220
f 178 220 179
f 179 220 180
f 180 220 221
f 180 221 181
f 181 221 262
f 181 262 222
f 181 222 223
f 181 223 182
f 182 223 224
f 182 224 183
f 183 224 225
f 183 225 184
f 184 225 226
f 184 226 185
f 185 226 186
f 186 226 187
f 187 226 188
f 188 226 189
f 189 226 227
f 189 227 216
f 190 218 228
f 190 228 229
f 190 229 192
f 191 192 194
f 192 229 194
f 193 195 196
f 194 230 231
f 194 231 195
f 194 229 232
f 194 232 230
f 195 231 196
f 196 231 197
f 197 231 233
f 197 233 234
f 197 234 235
f 197 235 199
f 197 199 198
f 199 235 236
f 199 236 201
f 199 201 200
f 201 236 237
f 201 237 238
f 201 238 202
f 202 238 203
f 203 238 239
f 205 240 241
f 205 241 211
f 207 242 208
f 207 210 242
f 208 242 243
f 208 243 244
f 208 244 212
f 208 212 209
f 210 245 246
f 210 246 242
f 210 211 247
f 210 247 245
f 211 241 248
f 211 248 249
f 211 249 247
f 212 244 250
f 212 250 214
f 214 250 298
f 214 298 251
f 215 217 252
f 215 252 218
f 216 253 254
f 216 254 217
f 216 227 255
f 216 255 253
f 217 254 252
f 218 256 228
f 218 252 257
f 218 257 256
f 219 258 259
f 219 259 260
f 220 260 261
f 220 261 221
f 221 261 306
f 221 306 262
f 222 262 263
f 222 263 223
f 223 263 224
f 224 263 264
f 224 264 265
f 224 265 225
f 225 266 267
f 225 267 268
f 225 268 226
f 225 265 266
f 226 268 255
f 226 255 227
f 228 256 229
f 229 256 232
f 230 269 231
f 230 232 269
f 231 269 233
f 232 256 270
f 232 270 271
f 232 271 269
f 233 269 234
f 234 269 272
f 234 272 273
f 234 273 274
f 234 274 236
f 234 236 235
f 236 274 275
f 236 275 237
f 237 276 238
f 237 275 277
f 237 277 278
f 237 278 276
f 238 276 279
f 238 279 239
f 240 280 241
f 241 280 248
f 242 246 281
f 242 281 243
f 243 282 244
f 243 281 283
f 243 283 282
f 244 282 250
f 245 247 284
f 245 284 246
f 246 285 286
f 246 286 281
f 246 284 285
f 247 249 287
f 247 287 288
f 247 288 289
f 247 289 284
f 248 280 290
f 248 290 249
f 249 290 291
f 249 291 292
f 249 292 293
f 249 293 294
f 249 294 295
f 249 295 287
f 250 282 296
f 250 296 297
f 250 297 298
f 252 254 299
f 252 299 300
f 252 300 301
f 252 301 257
f 253 302 299
f 253 299 254
f 253 255 302
f 255 268 267
f 255 267 302
f 256 257 301
f 256 301 270
f 258 303 259
f 259 304 260
f 259 303 304
f 260 304 261
f 261 304 305
f 261 305 353
f 261 353 306
f 262 306 307
f 262 307 308
f 262 308 263
f 263 308 309
f 263 309 310
f 263 310 311
f 263 311 264
f 264 311 265
f 265 311 266
f 266 311 312
f 266 312 313
f 266 313 267
f 267 313 302
f 269 271 314
f 269 314 272
f 270 314 271
f 270 301 315
f 270 315 316
f 270 316 314
f 272 314 273
f 273 314 317
f 273 317 318
f 273 318 319
f 273 319 275
f 273 275 274
f 275 319 320
f 275 320 321
f 275 321 277
f 276 278 322
f 276 322 279
f 277 321 323
f 277 323 278
f 278 323 322
f 279 322 371
f 279 371 324
f 280 325 290
f 281 286 326
f 281 326 283
f 282 283 326
f 282 326 327
f 282 327 296
f 284 328 285
f 284 289 288
f 284 288 329
f 284 329 328
f 285 330 331
f 285 331 286
f 285 328 330
f 286 331 326
f 287 295 332
f 287 332 288
f 288 332 333
f 288 333 329
f 290 325 334
f 290 334 291
f 291 334 335
f 291 335 336
f 291 336 292
f 292 336 337
f 292 337 338
f 292 338 339
f 292 339 293
f 293 339 294
f 294 339 340
f 294 340 341
f 294 341 342
f 294 342 295
f 295 342 343
f 295 343 332
f 296 327 378
f 296 378 344
f 296 344 297
f 299 345 300
f 299 302 313
f 299 313 346
f 299 346 345
f 300 315 301
f 300 345 315
f 303 347 348
f 303 348 304
f 304 349 305
f 304 348 349
f 305 349 350
f 305 350 351
f 305 351 352
f 305 352 353
f 306 353 354
f 306 354 355
f 306 355 356
f 306 356 307
f 307 356 357
f 307 357 309
f 307 309 308
f 309 358 310
f 309 357 419
f 309 419 359
f 309 359 360
f 309 360 358
f 310 358 311
f 311 358 312
f 312 358 360
f 312 360 361
f 312 361 362
f 312 362 346
f 312 346 313
f 314 316 363
f 314 363 317
f 315 345 364
f 315 364 365
f 315 365 363
f 315 363 316
f 317 363 318
f 318 366 320
f 318 320 319
f 318 363 367
f 318 367 368
f 318 368 366
f 320 366 369
f 320 369 321
f 321 369 370
f 321 370 323
f 322 323 372
f 322 372 371
f 323 370 424
f 323 424 372
f 324 371 373
f 324 373 374
f 324 374 375
f 325 375 374
f 325 374 334
f 326 331 376
f 326 376 327
f 327 376 377
f 327 377 378
f 328 379 330
f 328 329 380
f 328 380 381
f 328 381 379
f 329 333 382
f 329 382 381
f 329 381 380
f 330 383 384
f 330 384 331
f 330 379 429
f 330 429 383
f 331 384 385
f 331 385 376
f 332 343 333
f 333 343 386
f 333 386 387
f 333 387 382
f 334 374 388
f 334 388 335
f 335 388 389
f 335 389 337
f 335 337 336
f 337 389 390
f 337 390 391
f 337 391 392
f 337 392 338
f 338 393 394
f 338 394 339
f 338 392 393
f 339 394 340
f 340 394 393
f 340 393 395
f 340 395 396
f 340 396 397
f 340 397 341
f 341 397 398
f 341 398 342
f 342 398 399
f 342 399 400
f 342 400 343
f 343 400 386
f 345 346 364
f 346 362 364
f 347 401 402
f 347 402 403
f 347 403 404
f 347 404 405
f 347 405 406
f 347 406 407
f 347 407 408
f 347 408 348
f 348 408 349
f 349 408 350
f 350 409 410
f 350 410 411
f 350 411 351
f 350 408 407
f 350 407 412
f 350 412 409
f 351 411 413
f 351 413 352
f 352 413 354
f 352 354 353
f 354 413 414
f 354 414 415
f 354 415 416
f 354 416 357
f 354 357 355
f 355 357 356
f 357 416 417
f 357 417 418
f 357 418 419
f 359 419 466
f 359 466 420
f 359 420 421
f 359 421 360
f 360 421 361
f 361 421 422
f 361 422 364
f 361 364 362
f 363 365 422
f 363 422 367
f 364 422 365
f 366 368 369
f 367 422 368
f 368 370 369
f 368 422 423
f 368 423 420
f 368 420 370
f 370 420 466
f 370 466 424
f 371 425 373
f 371 372 425
f 372 424 426
f 372 426 427
f 372 427 425
f 373 425 388
f 373 388 374
f 376 428 377
f 376 385 428
f 379 381 430
f 379 430 471
f 379 471 472
f 379 472 470
f 379 470 429
f 381 382 387
f 381 387 431
f 381 431 471
f 381 471 430
f 383 429 470
f 383 470 432
f 386 400 387
f 387 400 433
f 387 433 434
f 387 434 431
f 388 425 427
f 388 427 435
f 388 435 389
f 389 435 436
f 389 436 437
f 389 437 390
f 390 437 391
f 391 437 438
f 391 438 439
f 391 439 440
f 391 440 393
f 391 393 392
f 393 440 441
f 393 441 395
f 395 441 396
f 396 441 442
f 396 442 443
f 396 443 397
f 397 443 398
f 398 443 444
f 398 444 445
f 398 445 399
f 399 446 400
f 399 445 446
f 400 446 433
f 401 447 402
f 402 448 449
f 402 449 450
f 402 450 403
f 402 447 448
f 403 450 451
f 403 451 452
f 403 452 404
f 404 452 453
f 404 453 405
f 405 453 454
f 405 454 412
f 405 412 407
f 405 407 406
f 409 412 455
f 409 455 456
f 409 456 457
f 409 457 410
f 410 413 411
f 410 457 413
f 412 458 455
f 412 454 459
f 412 459 460
f 412 460 458
f 413 457 461
f 413 461 414
f 414 461 415
f 415 462 463
f 415 463 417
f 415 417 416
f 415 461 462
f 417 463 418
f 418 464 465
f 418 465 419
f 418 463 464
f 419 465 466
f 420 423 421
f 421 423 422
f 424 466 467
f 424 467 468
f 424 468 426
f 426 468 469
f 426 469 435
f 426 435 427
f 431 434 471
f 432 470 472
f 432 472 473
f 433 446 474
f 433 474 434
f 434 474 475
f 434 475 471
f 435 469 476
f 435 476 477
f 435 477 436
f 436 477 437
f 437 477 478
f 437 478 479
f 437 479 438
f 438 479 439
f 439 480 440
f 439 479 481
f 439 481 482
f 439 482 480
f 440 480 441
f 441 480 483
f 441 483 442
f 442 484 443
f 442 483 484
f 443 484 485
f 443 485 444
f 444 486 487
f 444 487 445
f 444 485 486
f 445 487 488
f 445 488 446
f 446 488 489
f 446 489 474
f 447 490 448
f 448 491 492
f 448 492 493
f 448 493 494
f 448 494 495
f 448 495 449
f 448 490 496
f 448 496 491
f 449 497 450
f 449 495 497
f 450 497 498
f 450 498 499
f 450 499 451
f 451 499 452
f 452 500 501
f 452 501 453
f 452 499 500
f 453 501 454
f 454 502 503
f 454 503 459
f 454 501 502
f 455 458 456
f 456 504 505
f 456 505 457
f 456 458 460
f 456 460 459
f 456 459 503
f 456 503 506
f 456 506 504
f 457 505 507
f 457 507 462
f 457 462 461
f 462 507 508
f 462 508 463
f 463 508 509
f 463 509 510
f 463 510 464
f 464 511 512
f 464 512 465
f 464 510 511
f 465 512 513
f 465 513 466
f 466 513 467
f 467 513 512
f 467 512 514
f 467 514 515
f 467 515 516
f 467 516 468
f 468 516 469
f 469 516 515
f 469 515 476
f 471 475 517
f 471 517 473
f 471 473 472
f 473 517 521
f 473 521 518
f 473 518 519
f 474 489 520
f 474 520 521
f 474 521 475
f 475 521 517
f 476 515 477
f 477 515 522
f 477 522 523
f 477 523 478
f 478 523 479
f 479 523 524
f 479 524 525
f 479 525 481
f 480 482 483
f 481 525 482
f 482 525 526
f 482 526 527
f 482 527 528
f 482 528 483
f 483 528 529
f 483 529 530
f 483 530 531
f 483 531 484
f 484 531 532
f 484 532 485
f 485 532 486
f 486 533 534
f 486 534 487
f 486 532 535
f 486 535 533
f 487 534 488
f 488 534 489
f 489 534 536
f 489 536 537
f 489 537 538
f 489 538 520
f 491 518 537
f 491 537 539
f 491 539 540
f 491 540 492
f 491 496 541
f 491 541 542
f 491 542 519
f 491 519 518
f 492 543 493
f 492 540 544
f 492 544 545
f 492 545 543
f 493 543 546
f 493 546 494
f 494 546 495
f 495 546 497
f 497 546 547
f 497 547 548
f 497 548 498
f 498 549 499
f 498 548 549
f 499 549 500
f 500 550 501
f 500 549 550
f 501 550 502
f 502 551 503
f 502 550 551
f 503 551 506
f 504 507 505
f 504 506 551
f 504 551 552
f 504 552 553
f 504 553 507
f 507 553 508
f 508 553 554
f 508 554 509
f 509 554 555
f 509 555 511
f 509 511 510
f 511 555 556
f 511 556 557
f 511 557 512
f 512 557 558
f 512 558 514
f 514 558 515
f 515 558 522
f 518 521 537
f 520 538 521
f 521 538 537
f 522 558 523
f 523 558 559
f 523 559 560
f 523 560 524
f 524 560 525
f 525 560 561
f 525 561 526
f 526 561 562
f 526 562 563
f 526 563 527
f 527 564 528
f 527 563 564
f 528 564 529
f 529 564 530
f 530 564 565
f 530 565 566
f 530 566 567
f 530 567 535
f 530 535 532
f 530 532 531
f 533 536 534
f 533 535 568
f 533 568 569
f 533 569 536
f 535 567 568
f 536 569 539
f 536 539 537
f 539 569 544
f 539 544 540
f 543 566 570
f 543 570 546
f 543 545 566
f 544 569 568
f 544 568 545
f 545 568 566
f 546 570 547
f 547 570 548
f 548 571 549
f 548 570 572
f 548 572 573
f 548 573 571
f 549 571 574
f 549 574 575
f 549 575 550
f 550 575 576
f 550 576 577
f 550 577 551
f 551 577 578
f 551 578 552
f 552 578 554
f 552 554 553
f 554 578 579
f 554 579 580
f 554 580 555
f 555 580 556
f 556 580 581
f 556 581 560
f 556 560 559
f 556 559 558
f 556 558 557
f 560 581 561
f 561 581 582
f 561 582 583
f 561 583 562
f 562 583 563
f 563 583 574
f 563 574 573
f 563 573 564
f 564 573 572
f 564 572 565
f 565 572 570
f 565 570 566
f 566 568 567
f 571 573 574
f 574 583 576
f 574 576 575
f 576 579 577
f 576 583 579
f 577 579 578
f 579 583 582
f 579 582 581
f 579 581 580

