# https://github.com/mikedh/trimesh
v 0.01034540 0.00540236 -0.01952052
v 0.01032717 0.00540236 -0.02580063
v 0.01031907 0.00540236 -0.01889020
v 0.01034540 0.00144192 -0.01952052
v 0.01034540 0.00221036 -0.03082012
v 0.01018742 0.00540236 -0.02634748
v 0.01030489 0.00283806 -0.03082012
v 0.01011450 0.00321026 -0.03144756
v 0.01006387 0.00316684 -0.03177567
v 0.01020767 0.00540236 -0.01826277
v 0.01029476 0.00144192 -0.01875205
v 0.01031907 0.00144192 -0.01889020
v 0.01034540 0.00144192 -0.03005166
v 0.01034540 0.00158227 -0.03019269
v 0.01033932 0.00144192 -0.03019269
v 0.01031502 0.00144192 -0.03067909
v 0.01031299 0.00158227 -0.03082012
v 0.01017527 0.00224952 -0.03147346
v 0.01019957 0.00283806 -0.03144756
v -0.00120344 0.00540236 -0.04022879
v 0.01006995 0.00283806 -0.03177855
v -0.00185359 0.00540236 -0.04085334
v 0.01009425 0.00540236 -0.01790300
v 0.01020767 0.00144192 -0.01826277
v 0.01028261 0.00144192 -0.03081724
v 0.01016514 0.00158227 -0.03128638
v 0.01006184 0.00248486 -0.03177279
v -0.00218778 0.00540236 -0.04110662
v 0.01008412 0.00540236 -0.01787134
v 0.01008412 0.00144192 -0.01787134
v 0.01016919 0.00144192 -0.03117413
v 0.01014286 0.00144192 -0.03125184
v -0.00273059 0.00540236 -0.04144336
v 0.00992209 0.00540236 -0.01755762
v 0.00992209 0.00144192 -0.01755762
v 0.00986741 0.00144192 -0.03135546
v -0.00973240 0.00307262 -0.04190962
v -0.00614542 0.00373871 -0.04123902
v -0.00594895 0.00398955 -0.04146927
v -0.00562084 0.00439548 -0.04182328
v -0.00520158 0.00448078 -0.04172830
v -0.00470941 0.00490803 -0.04193840
v -0.00470941 0.00522091 -0.04225212
v -0.00424154 0.00540236 -0.04220607
v -0.00397014 0.00540236 -0.04207368
v -0.00345366 0.00540236 -0.04181752
v -0.00285819 0.00540236 -0.04151532
v 0.00960815 0.00540236 -0.01708273
v 0.00960815 0.00144192 -0.01708273
v 0.00973170 0.00144192 -0.03137273
v -0.00973240 0.00271516 -0.04086773
v -0.00973240 0.00286830 -0.04149517
v -0.01012736 0.00306371 -0.04191826
v -0.00973240 0.00335022 -0.04222334
v -0.00973240 0.00366388 -0.04256009
v -0.00973240 0.00428111 -0.04319903
v -0.00973240 0.00489873 -0.04383798
v -0.00973240 0.00540236 -0.04435893
v -0.00596516 0.00540236 -0.04297742
v -0.00561274 0.00501970 -0.04245647
v -0.00540615 0.00475024 -0.04209382
v -0.00519348 0.00510809 -0.04236725
v -0.00470941 0.00540236 -0.04243345
v 0.00934283 0.00283806 -0.01676901
v 0.00919092 0.00540236 -0.01676901
v 0.00780352 0.00144192 -0.01516300
v 0.00824911 0.00144192 -0.01554292
v 0.00934283 0.00144192 -0.01676901
v 0.00931245 0.00144192 -0.03138424
v -0.01018204 0.00297725 -0.04149517
v -0.00910453 0.00144192 -0.03138424
v -0.00973240 0.00144192 -0.03137273
v -0.01014356 0.00144192 -0.03124897
v -0.01020837 0.00345878 -0.04212836
v -0.01013546 0.00366349 -0.04256009
v -0.01014153 0.00490571 -0.04382935
v -0.00998558 0.00540236 -0.04434454
v -0.00541830 0.00540236 -0.04276155
v 0.00887698 0.00540236 -0.01667403
v 0.00722021 0.00144192 -0.01496153
v -0.01033192 0.00346576 -0.04149517
v -0.01023875 0.00144192 -0.03095540
v -0.01028331 0.00144192 -0.03081724
v -0.01034002 0.00144192 -0.03019269
v -0.01021445 0.00408260 -0.04276155
v -0.01013951 0.00428460 -0.04319328
v -0.01021850 0.00470681 -0.04339475
v -0.01022053 0.00533064 -0.04402794
v -0.01019217 0.00540236 -0.04418624
v 0.00851039 0.00540236 -0.01665676
v 0.00691640 0.00144192 -0.01495865
v -0.01034610 0.00346576 -0.04086773
v -0.01033597 0.00409385 -0.04212548
v -0.01034407 0.00144192 -0.02956813
v -0.01034002 0.00472194 -0.04275292
v -0.01023470 0.00540236 -0.04402506
v -0.00847665 0.00540236 -0.01665676
v 0.00659233 0.00144192 -0.01495577
v -0.01034610 0.00472194 -0.04212548
v -0.01034205 0.00534963 -0.04338036
v -0.01034610 0.00346576 -0.02077539
v -0.01034407 0.00144192 -0.01952052
v -0.01034205 0.00540236 -0.04338036
v -0.00887768 0.00540236 -0.01667403
v -0.00722091 0.00144192 -0.01496153
v -0.00689887 0.00144192 -0.01495865
v 0.00628447 0.00144192 -0.01495577
v -0.01034610 0.00534963 -0.04275292
v -0.01034610 0.00540236 -0.02077539
v -0.01032585 0.00144192 -0.01903123
v -0.01034205 0.00540236 -0.01946583
v -0.01034407 0.00540236 -0.01952052
v -0.01034610 0.00540236 -0.04275292
v -0.00916529 0.00540236 -0.01676037
v -0.00738294 0.00144192 -0.01497017
v -0.01031977 0.00144192 -0.01889020
v -0.01031977 0.00540236 -0.01889020
v -0.00919162 0.00540236 -0.01676901
v -0.00780422 0.00144192 -0.01516300
v -0.01020837 0.00144192 -0.01826277
v -0.01020837 0.00346576 -0.01826277
v -0.01020635 0.00540236 -0.01826277
v -0.00960683 0.00540236 -0.01708273
v -0.00810196 0.00144192 -0.01541052
v -0.01008280 0.00144192 -0.01787134
v -0.01008280 0.00540236 -0.01787134
v -0.00989646 0.00540236 -0.01751733
v -0.00960683 0.00144192 -0.01708273
v -0.00934150 0.00158227 -0.01676901
v -0.00934150 0.00283806 -0.01677189
v -0.00825183 0.00144192 -0.01554580
v -0.00992279 0.00144192 -0.01755762
v -0.01007064 0.00540236 -0.01784544
v -0.00967772 0.00144192 -0.01718922
v -0.00992077 0.00540236 -0.01755762
v -0.00992279 0.00158227 -0.01755762
v -0.00934150 0.00144192 -0.01676901
f 1 2 6
f 1 6 20
f 1 20 22
f 1 22 28
f 1 28 33
f 1 33 47
f 1 47 46
f 1 46 45
f 1 45 44
f 1 44 63
f 1 63 78
f 1 78 59
f 1 59 58
f 1 58 77
f 1 77 89
f 1 89 96
f 1 96 103
f 1 103 113
f 1 113 109
f 1 109 112
f 1 112 111
f 1 111 117
f 1 117 122
f 1 122 126
f 1 126 133
f 1 133 135
f 1 135 127
f 1 127 123
f 1 123 118
f 1 118 114
f 1 114 104
f 1 104 97
f 1 97 90
f 1 90 79
f 1 79 65
f 1 65 48
f 1 48 34
f 1 34 29
f 1 29 23
f 1 23 10
f 1 10 3
f 1 3 12
f 1 12 4
f 1 4 13
f 1 13 14
f 1 14 5
f 1 5 2
f 2 5 7
f 2 7 8
f 2 8 9
f 2 9 6
f 3 10 11
f 3 11 12
f 4 12 11
f 4 11 24
f 4 24 30
f 4 30 35
f 4 35 49
f 4 49 68
f 4 68 67
f 4 67 66
f 4 66 80
f 4 80 91
f 4 91 98
f 4 98 107
f 4 107 106
f 4 106 105
f 4 105 115
f 4 115 119
f 4 119 124
f 4 124 131
f 4 131 137
f 4 137 128
f 4 128 134
f 4 134 132
f 4 132 125
f 4 125 120
f 4 120 116
f 4 116 110
f 4 110 102
f 4 102 94
f 4 94 84
f 4 84 83
f 4 83 82
f 4 82 73
f 4 73 72
f 4 72 71
f 4 71 69
f 4 69 50
f 4 50 36
f 4 36 32
f 4 32 31
f 4 31 25
f 4 25 16
f 4 16 15
f 4 15 13
f 5 14 15
f 5 15 16
f 5 16 17
f 5 17 18
f 5 18 19
f 5 19 7
f 6 9 20
f 7 19 8
f 8 19 9
f 9 19 21
f 9 21 22
f 9 22 20
f 10 23 24
f 10 24 11
f 13 15 14
f 16 25 17
f 17 25 26
f 17 26 18
f 18 27 21
f 18 21 19
f 18 26 27
f 21 27 28
f 21 28 22
f 23 29 30
f 23 30 24
f 25 31 26
f 26 31 32
f 26 32 27
f 27 32 28
f 28 32 33
f 29 34 35
f 29 35 30
f 32 36 37
f 32 37 38
f 32 38 39
f 32 39 40
f 32 40 41
f 32 41 42
f 32 42 43
f 32 43 44
f 32 44 45
f 32 45 46
f 32 46 47
f 32 47 33
f 34 48 49
f 34 49 35
f 36 50 51
f 36 51 52
f 36 52 37
f 37 52 53
f 37 53 54
f 37 54 40
f 37 40 39
f 37 39 38
f 40 54 55
f 40 55 56
f 40 56 57
f 40 57 58
f 40 58 59
f 40 59 60
f 40 60 61
f 40 61 41
f 41 61 62
f 41 62 42
f 42 62 43
f 43 62 63
f 43 63 44
f 48 64 68
f 48 68 49
f 48 65 66
f 48 66 67
f 48 67 64
f 50 69 51
f 51 70 53
f 51 53 52
f 51 69 71
f 51 71 72
f 51 72 73
f 51 73 70
f 53 74 75
f 53 75 55
f 53 55 54
f 53 70 74
f 55 75 56
f 56 75 57
f 57 75 58
f 58 75 76
f 58 76 77
f 59 78 60
f 60 62 61
f 60 78 62
f 62 78 63
f 64 67 68
f 65 79 80
f 65 80 66
f 70 81 74
f 70 73 82
f 70 82 83
f 70 83 84
f 70 84 81
f 74 81 85
f 74 85 75
f 75 85 86
f 75 86 76
f 76 87 88
f 76 88 89
f 76 89 77
f 76 86 85
f 76 85 87
f 79 90 80
f 80 90 91
f 81 92 93
f 81 93 87
f 81 87 85
f 81 84 92
f 84 94 92
f 87 93 95
f 87 95 88
f 88 95 96
f 88 96 89
f 90 97 107
f 90 107 98
f 90 98 91
f 92 99 100
f 92 100 95
f 92 95 93
f 92 94 102
f 92 102 101
f 92 101 109
f 92 109 113
f 92 113 108
f 92 108 99
f 95 100 96
f 96 100 103
f 97 104 105
f 97 105 106
f 97 106 107
f 99 108 100
f 100 108 113
f 100 113 103
f 101 102 112
f 101 112 109
f 102 110 111
f 102 111 112
f 104 114 115
f 104 115 105
f 110 116 117
f 110 117 111
f 114 118 115
f 115 118 119
f 116 120 121
f 116 121 117
f 117 121 122
f 118 123 119
f 119 123 124
f 120 125 126
f 120 126 121
f 121 126 122
f 123 127 128
f 123 128 137
f 123 137 129
f 123 129 130
f 123 130 131
f 123 131 124
f 125 132 133
f 125 133 126
f 127 134 128
f 127 135 136
f 127 136 132
f 127 132 134
f 129 131 130
f 129 137 131
f 132 136 133
f 133 136 135

