# https://github.com/mikedh/trimesh
v 0.01034540 0.02325858 -0.01951989
v 0.01031907 0.02325858 -0.01889204
v 0.01034540 0.00540236 -0.01951989
v 0.01032717 0.02325858 -0.02579835
v 0.01020565 0.02325858 -0.01826419
v 0.01020767 0.01163001 -0.01826419
v 0.01031907 0.00540236 -0.01889204
v 0.01032717 0.00540236 -0.02579835
v 0.01031299 0.02325858 -0.02642619
v 0.01008210 0.02325858 -0.01787371
v 0.01009425 0.00540236 -0.01790433
v 0.01020767 0.00540236 -0.01826419
v 0.01008412 0.00974756 -0.01787371
v 0.01018742 0.00540236 -0.02634963
v 0.00996462 0.01853759 -0.02894141
v 0.01010438 0.01790835 -0.02822551
v 0.01020970 0.01790835 -0.02768571
v 0.01027856 0.01790835 -0.02705404
v 0.01031299 0.01790835 -0.02642619
v 0.01027856 0.02325858 -0.02705404
v 0.01000311 0.02325858 -0.01772057
v 0.00992209 0.01665339 -0.01755978
v 0.01008412 0.00540236 -0.01787371
v 0.00993424 0.00540236 -0.01758275
v 0.00824506 0.01414345 -0.03256684
v 0.00877774 0.01539667 -0.03171695
v 0.00942182 0.01694004 -0.03051485
v 0.00978234 0.01853759 -0.02956925
v -0.00120344 0.00540236 -0.04022732
v -0.00056949 0.00563308 -0.03998614
v 0.00060930 0.00630601 -0.03989809
v 0.00129186 0.00689155 -0.03996700
v 0.00321396 0.00811156 -0.03939658
v 0.00384386 0.00872681 -0.03939658
v 0.00438262 0.00882469 -0.03863091
v 0.00427932 0.00906764 -0.03899843
v 0.00447579 0.00924417 -0.03880319
v 0.00501252 0.00974756 -0.03801072
v 0.00690829 0.01193589 -0.03490977
v 0.00978436 0.01916507 -0.02956925
v 0.00996462 0.02325858 -0.02894141
v 0.01004159 0.02293347 -0.02860451
v 0.01003956 0.01853759 -0.02859303
v 0.01010640 0.01853759 -0.02827911
v 0.01021172 0.01853759 -0.02768571
v 0.01021375 0.02230599 -0.02768571
v 0.01021375 0.02325858 -0.02768571
v 0.00992007 0.02325858 -0.01755978
v 0.00960815 0.01163001 -0.01708124
v 0.00992209 0.00540236 -0.01755978
v 0.00809720 0.01414345 -0.03288076
v 0.00828152 0.01476918 -0.03259746
v 0.00858533 0.01539667 -0.03208064
v 0.00878179 0.01602590 -0.03175140
v 0.00894382 0.01602590 -0.03143748
v 0.00942384 0.01728087 -0.03051868
v 0.00954942 0.01790835 -0.03019710
v -0.00185359 0.00540236 -0.04085517
v -0.00119331 0.00562784 -0.04060633
v -0.00077405 0.00575543 -0.04040343
v 0.00019004 0.00617142 -0.04012013
v -0.00001858 0.00630601 -0.04053742
v 0.00036422 0.00640564 -0.04029241
v 0.00068221 0.00687407 -0.04060250
v 0.00091108 0.00675871 -0.04020053
v 0.00110147 0.00705759 -0.04038429
v 0.00195821 0.00748582 -0.04000528
v 0.00304383 0.00826887 -0.03981386
v 0.00325042 0.00868835 -0.04003208
v 0.00366968 0.00895228 -0.03981386
v 0.00379525 0.00937177 -0.03996700
v 0.00392690 0.00914455 -0.03960713
v 0.00451427 0.00974756 -0.03886444
v 0.00481808 0.00974756 -0.03835527
v 0.00521101 0.01037505 -0.03772360
v 0.00571533 0.01100253 -0.03689285
v 0.00691032 0.01225925 -0.03491360
v 0.00759693 0.01351422 -0.03375745
v 0.00978436 0.02167676 -0.02956925
v 0.01004159 0.02325858 -0.02860451
v 0.00978234 0.02325858 -0.02956925
v 0.01007400 0.02325858 -0.02845521
v 0.01010640 0.02293347 -0.02829059
v 0.01015906 0.02325858 -0.02799964
v 0.00960613 0.02325858 -0.01708507
v 0.00960815 0.00540236 -0.01708124
v 0.00933270 0.02325858 -0.01677114
v 0.00858938 0.01602590 -0.03208064
v 0.00878179 0.02325858 -0.03175140
v 0.00894990 0.01665339 -0.03143748
v 0.00926384 0.01728087 -0.03083260
v 0.00942384 0.01790835 -0.03051868
v 0.00954942 0.02293347 -0.03019710
v -0.00218778 0.00540236 -0.04110401
v -0.00186169 0.00565231 -0.04119589
v 0.00031359 0.00673773 -0.04074032
v -0.00072747 0.00636369 -0.04111167
v -0.00001250 0.00693000 -0.04117292
v 0.00031359 0.00705759 -0.04105424
v 0.00066803 0.00751379 -0.04121503
v 0.00088475 0.00728482 -0.04082072
v 0.00133642 0.00747533 -0.04062547
v 0.00262457 0.00808010 -0.04002825
v 0.00282306 0.00849084 -0.04024264
v 0.00302357 0.00892781 -0.04045320
v 0.00320181 0.00934730 -0.04062547
v 0.00381146 0.00974756 -0.03999380
v 0.00405248 0.00974756 -0.03961096
v 0.00432186 0.00974756 -0.03917836
v 0.00252330 0.01004295 -0.04182374
v 0.00063563 0.01192366 -0.04496297
v 0.00451427 0.01037505 -0.03886444
v 0.00502062 0.01037505 -0.03803752
v 0.00552495 0.01100253 -0.03720677
v 0.00571533 0.01163001 -0.03689285
v 0.00640802 0.01225925 -0.03574818
v 0.00672196 0.01225925 -0.03522753
v 0.00691032 0.01288673 -0.03491360
v 0.00741262 0.01351422 -0.03407137
v 0.00759896 0.01414345 -0.03375745
v 0.00954739 0.02325858 -0.03019710
v 0.01010640 0.02325858 -0.02829059
v 0.00901876 0.02325858 -0.01652996
v 0.00919092 0.00540236 -0.01676732
v 0.00843140 0.02325858 -0.03234862
v 0.00858938 0.02325858 -0.03208064
v 0.00784808 0.01476918 -0.03333633
v 0.00894990 0.02325858 -0.03143748
v 0.00926384 0.01979256 -0.03083260
v 0.00926384 0.02325858 -0.03082877
v 0.00942182 0.02293347 -0.03051485
v 0.00948258 0.02325858 -0.03036172
v -0.00219791 0.00555268 -0.04129543
v -0.00273059 0.00540236 -0.04144473
v -0.00114673 0.00621687 -0.04125715
v -0.00219791 0.00587254 -0.04160935
v -0.00266173 0.00763963 -0.04360774
v -0.00315390 0.01195337 -0.04808306
v -0.00316403 0.01258785 -0.04870325
v -0.00317415 0.01322407 -0.04932344
v -0.00187587 0.00628678 -0.04181608
v -0.00095634 0.00724636 -0.04211469
v -0.00044594 0.00741940 -0.04193476
v -0.00076798 0.00827586 -0.04297224
v -0.00002668 0.00756972 -0.04179311
v -0.00004491 0.00821293 -0.04240564
v -0.00006516 0.00885790 -0.04301818
v 0.00064575 0.00815875 -0.04182757
v 0.00131211 0.00812204 -0.04123035
v 0.00197239 0.00809058 -0.04063313
v 0.00239165 0.00829334 -0.04044937
v 0.00062347 0.00880896 -0.04243627
v 0.00260432 0.00871108 -0.04063696
v 0.00236532 0.00894879 -0.04105807
v 0.00188935 0.01005344 -0.04244393
v 0.00309649 0.01037505 -0.04111933
v 0.00329903 0.01037505 -0.04080540
v 0.00361297 0.01037505 -0.04031155
v 0.00381146 0.01037505 -0.03999762
v 0.00431983 0.01037505 -0.03917836
v 0.00120476 0.01075958 -0.04364985
v 0.00072677 0.01118606 -0.04443849
v 0.00004421 0.01188346 -0.04562910
v -0.00065455 0.01273292 -0.04680822
v -0.00062012 0.01315241 -0.04684268
v -0.00009149 0.01288673 -0.04607318
v 0.00012117 0.01288673 -0.04575926
v 0.00063968 0.01225925 -0.04496680
v 0.00380740 0.01163001 -0.03999380
v 0.00639587 0.01916507 -0.03572521
v 0.00690222 0.01979256 -0.03489829
v 0.00640397 0.01602590 -0.03574052
v 0.00501859 0.01100253 -0.03803752
v 0.00521101 0.01100253 -0.03772360
v 0.00640599 0.01476918 -0.03574435
v 0.00672196 0.01288673 -0.03522753
v 0.00741059 0.01728087 -0.03407137
v 0.00741262 0.01476918 -0.03407137
v 0.00784808 0.01853759 -0.03333633
v 0.00846785 0.02325858 -0.01630026
v 0.00890331 0.00540236 -0.01668309
v 0.00818632 0.02325858 -0.03276208
v 0.00941979 0.02325858 -0.03051485
v -0.00264552 0.00573795 -0.04173951
v -0.00288655 0.00540236 -0.04152896
v -0.00162675 0.00662937 -0.04197687
v -0.00265363 0.00700516 -0.04298372
v -0.00308099 0.00751379 -0.04373025
v -0.00433268 0.01127869 -0.04812900
v -0.00435294 0.01254590 -0.04937320
v -0.00289465 0.00916203 -0.04522330
v -0.00438737 0.01444932 -0.05123760
v -0.00339087 0.01347576 -0.04969861
v -0.00318833 0.01387777 -0.04994363
v -0.00243286 0.01251444 -0.04814814
v -0.00240045 0.01123849 -0.04690776
v -0.00238830 0.01060227 -0.04629140
v -0.00237412 0.00996430 -0.04567121
v -0.00192853 0.00883692 -0.04429301
v -0.00196904 0.01074909 -0.04614975
v -0.00122977 0.01004120 -0.04497063
v -0.00124800 0.01068267 -0.04558316
v -0.00172397 0.01244976 -0.04757772
v -0.00128648 0.01196910 -0.04681205
v -0.00054923 0.01062324 -0.04501274
v -0.00057151 0.01126821 -0.04562144
v -0.00010770 0.01015307 -0.04423941
v 0.00094146 0.00927389 -0.04258175
v 0.00150857 0.00855027 -0.04144473
v 0.00123515 0.01008140 -0.04304880
v 0.00194606 0.00874254 -0.04123800
v 0.00216885 0.00851706 -0.04084369
v 0.00057081 0.01011287 -0.04364985
v -0.00012998 0.01080327 -0.04484812
v 0.00010092 0.01122101 -0.04503571
v 0.00054651 0.01076657 -0.04425473
v 0.00085234 0.01225925 -0.04463756
v 0.00238355 0.01163001 -0.04224103
v 0.00329903 0.01163001 -0.04080540
v 0.00309851 0.01288673 -0.04111933
v 0.00361297 0.01163001 -0.04030772
v -0.00059784 0.01191666 -0.04623015
v -0.00130673 0.01263504 -0.04742458
v -0.00178675 0.01309473 -0.04818642
v -0.00250780 0.01382359 -0.04935024
v -0.00118521 0.01305278 -0.04755092
v -0.00115078 0.01351422 -0.04760069
v -0.00083684 0.01351422 -0.04716043
v -0.00061810 0.01351422 -0.04684651
v -0.00039530 0.01351422 -0.04652110
v -0.00008947 0.01351422 -0.04607318
v 0.00012117 0.02167676 -0.04575926
v 0.00043511 0.01288673 -0.04528455
v 0.00063968 0.01288673 -0.04497063
v 0.00328890 0.01476918 -0.04079775
v 0.00639182 0.02042179 -0.03571755
v 0.00708450 0.02325858 -0.03456522
v 0.00238152 0.01790835 -0.04222954
v 0.00771238 0.02325858 -0.03354689
v 0.00690627 0.01790835 -0.03490595
v 0.00759693 0.02042179 -0.03375362
v 0.00809720 0.02325858 -0.03291139
v 0.00784808 0.02325858 -0.01624284
v 0.00887698 0.00540236 -0.01667544
v -0.00306478 0.00562609 -0.04185054
v -0.00306681 0.00625357 -0.04247838
v -0.00307086 0.00688106 -0.04310623
v -0.00298984 0.00540236 -0.04158255
v -0.00432256 0.01064771 -0.04750498
v -0.00559248 0.01504360 -0.05252775
v -0.00515905 0.01453672 -0.05178123
v -0.00470941 0.01434970 -0.05133331
v -0.00488157 0.01495621 -0.05197264
v -0.00245514 0.01315590 -0.04876067
v -0.00368658 0.01437242 -0.05067101
v 0.00099210 0.00970037 -0.04291864
v 0.00238355 0.01414345 -0.04224103
v 0.00186910 0.01853759 -0.04304498
v 0.00164630 0.02104927 -0.04338187
v -0.00306073 0.01429726 -0.05006613
v -0.00302022 0.01476918 -0.05011973
v -0.00248754 0.01414345 -0.04937703
v -0.00169561 0.01414345 -0.04834721
v -0.00138167 0.01414345 -0.04791844
v -0.00115280 0.01414345 -0.04760452
v -0.00192651 0.01414345 -0.04866114
v -0.00061810 0.01665339 -0.04684651
v -0.00039530 0.01665339 -0.04652110
v -0.00008947 0.01979256 -0.04607318
v 0.00012117 0.02325858 -0.04575543
v 0.00043511 0.02325858 -0.04528455
v -0.00009149 0.02104927 -0.04607318
v 0.00063968 0.02325858 -0.04497063
v 0.00638777 0.02167676 -0.03570989
v 0.00148427 0.02325858 -0.04361923
v 0.00164225 0.02167676 -0.04338187
v 0.00783998 0.02325858 -0.03333633
v 0.00784200 0.02293347 -0.03333633
v 0.00784403 0.02230599 -0.03333633
v 0.00722021 0.02325858 -0.01623901
v 0.00851039 0.00540236 -0.01665629
v -0.00345366 0.00540236 -0.04181991
v -0.00389925 0.00824090 -0.04488640
v -0.00389722 0.00887013 -0.04551425
v -0.00557830 0.01441262 -0.05189990
v -0.00596516 0.01494572 -0.05262346
v -0.00684418 0.01567633 -0.05377578
v -0.00611301 0.01556796 -0.05324747
v -0.00642492 0.01591054 -0.05366859
v -0.00514689 0.01539667 -0.05240524
v -0.00477625 0.01539667 -0.05209132
v 0.00085032 0.02325858 -0.04463756
v 0.00115210 0.02325858 -0.04415519
v -0.00446231 0.01539667 -0.05179654
v -0.00361772 0.01476918 -0.05076289
v -0.00330378 0.01476918 -0.05043365
v -0.00416660 0.01539667 -0.05148262
v -0.00385266 0.01539667 -0.05113424
v -0.00358936 0.01539667 -0.05082031
v -0.00327542 0.01539667 -0.05043748
v -0.00302225 0.01539667 -0.05012356
v -0.00270629 0.01476918 -0.04971393
v -0.00139585 0.01790835 -0.04789930
v -0.00081051 0.01918779 -0.04708769
v -0.00247336 0.01476918 -0.04940000
v -0.00220804 0.01539667 -0.04903248
v -0.00062215 0.01790835 -0.04684268
v -0.00009757 0.02325858 -0.04606936
v -0.00009352 0.02167676 -0.04607318
v -0.00408153 0.02325858 -0.01623518
v -0.00847665 0.00540236 -0.01665629
v -0.00424154 0.00540236 -0.04220657
v -0.00390127 0.00761341 -0.04425856
v -0.00536159 0.01227148 -0.04964884
v -0.00557223 0.01316115 -0.05064421
v -0.00641885 0.01514847 -0.05304840
v -0.00950758 0.01511701 -0.05433472
v -0.00784878 0.01579343 -0.05429261
v -0.00735053 0.01622516 -0.05446489
v -0.00683810 0.01505059 -0.05314794
v -0.00693330 0.01651356 -0.05435769
v -0.00627504 0.01632828 -0.05374516
v -0.00504360 0.01602590 -0.05246650
v -0.00473979 0.01602590 -0.05215257
v -0.00442585 0.01602590 -0.05182334
v -0.00416052 0.01602590 -0.05150941
v -0.00384659 0.01602590 -0.05113424
v -0.00384659 0.01916507 -0.05113424
v -0.00358936 0.01790835 -0.05082031
v -0.00384659 0.02104927 -0.05113041
v -0.00384861 0.02230599 -0.05112275
v -0.00327542 0.01790835 -0.05042600
v -0.00327745 0.01853759 -0.05042217
v -0.00303238 0.01728087 -0.05011590
v -0.00270831 0.01539667 -0.04971010
v -0.00247742 0.01602590 -0.04939235
v -0.00139788 0.01853759 -0.04789547
v -0.00063835 0.02230599 -0.04681971
v -0.00063633 0.02167676 -0.04682354
v -0.00041151 0.02325858 -0.04649813
v -0.00784878 0.02325858 -0.01623901
v -0.00887768 0.00540236 -0.01667544
v -0.00807765 0.02325858 -0.01624666
v -0.00470941 0.00540236 -0.04243244
v -0.00470941 0.00553520 -0.04256643
v -0.00470941 0.00616268 -0.04319811
v -0.00557425 0.01127869 -0.04875684
v -0.00515905 0.01012685 -0.04739779
v -0.00596516 0.01400537 -0.05168169
v -0.00558641 0.00751728 -0.04498211
v -0.00992684 0.01503836 -0.05441512
v -0.00973645 0.01539667 -0.05468310
v -0.00559046 0.00689329 -0.04435044
v -0.00560464 0.00564532 -0.04308709
v -0.00596516 0.00540236 -0.04297989
v -0.00996532 0.01567633 -0.05502382
v -0.00954607 0.01578644 -0.05495108
v -0.00835108 0.01645588 -0.05493960
v -0.00783258 0.01666038 -0.05487834
v -0.00690494 0.01693304 -0.05437301
v -0.00761181 0.01728087 -0.05496640
v -0.00627302 0.01665339 -0.05374899
v -0.00473979 0.02325858 -0.05215257
v -0.00442585 0.02325858 -0.05182334
v -0.00416052 0.01853759 -0.05150941
v -0.00430028 0.02325858 -0.05167403
v -0.00416457 0.02293347 -0.05150941
v -0.00401469 0.02325858 -0.05132182
v -0.00385064 0.02293347 -0.05111892
v -0.00303643 0.01790835 -0.05011207
v -0.00272249 0.01790835 -0.04969096
v -0.00171789 0.01979256 -0.04831276
v -0.00064240 0.02293347 -0.04681588
v -0.00077405 0.02325858 -0.04698816
v -0.00919162 0.00540236 -0.01677114
v -0.00846855 0.02325858 -0.01630026
v -0.00873388 0.02325858 -0.01638066
v -0.00528462 0.00540236 -0.04270043
v -0.00518538 0.00573620 -0.04299521
v -0.00516715 0.00761866 -0.04488257
v -0.00516512 0.00824440 -0.04551042
v -0.00541830 0.00540236 -0.04276168
v -0.00994507 0.01441786 -0.05377961
v -0.01009090 0.01503836 -0.05441512
v -0.00973240 0.00540236 -0.04435809
v -0.01004229 0.01131540 -0.05060210
v -0.01002204 0.01193589 -0.05123760
v -0.01007875 0.01567633 -0.05502382
v -0.00974658 0.01600667 -0.05511953
v -0.00910453 0.01623040 -0.05505445
v -0.00877034 0.01632828 -0.05500468
v -0.00803107 0.01687536 -0.05503913
v -0.00690494 0.01706763 -0.05437301
v -0.00757130 0.01790835 -0.05497405
v -0.00792574 0.01728087 -0.05509656
v -0.00788524 0.01790835 -0.05514250
v -0.00627302 0.01790835 -0.05374899
v -0.00504157 0.02293347 -0.05246650
v -0.00504360 0.02325858 -0.05246650
v -0.00416660 0.02325858 -0.05150941
v -0.00385266 0.02325858 -0.05111510
v -0.00373924 0.02325858 -0.05096579
v -0.00329365 0.02167676 -0.05039537
v -0.00249969 0.01979256 -0.04936172
v -0.00118926 0.02293347 -0.04755092
v -0.00240855 0.02325858 -0.04918179
v -0.00957240 0.00540236 -0.01705827
v -0.00901946 0.02325858 -0.01652996
v -0.00917137 0.02325858 -0.01663332
v -0.01015369 0.01480589 -0.05401697
v -0.01015166 0.01543862 -0.05464865
v -0.01008482 0.01441786 -0.05377961
v -0.01014356 0.00552821 -0.04446528
v -0.00998558 0.00540236 -0.04434278
v -0.01004837 0.01131540 -0.05060210
v -0.01014558 0.01602590 -0.05510039
v -0.00973240 0.01665339 -0.05529563
v -0.00852729 0.01666038 -0.05507742
v -0.00910453 0.01665339 -0.05520375
v -0.00847665 0.01728087 -0.05524587
v -0.00757130 0.01853759 -0.05497405
v -0.00757130 0.02325858 -0.05497022
v -0.00741534 0.02325858 -0.05482092
v -0.00788524 0.01853759 -0.05515015
v -0.00847665 0.01790835 -0.05531477
v -0.00724926 0.02325858 -0.05465630
v -0.00566135 0.02104927 -0.05310583
v -0.00319036 0.02325858 -0.05023075
v -0.00960683 0.00540236 -0.01708507
v -0.00933340 0.02325858 -0.01677114
v -0.01030357 0.01539667 -0.05405525
v -0.01019217 0.00540236 -0.04418582
v -0.01022255 0.00595644 -0.04465670
v -0.01022458 0.00658043 -0.04529221
v -0.01029344 0.01602590 -0.05468310
v -0.01006457 0.01255638 -0.05187311
v -0.01019622 0.01665339 -0.05515781
v -0.00910453 0.01728087 -0.05531860
v -0.00973240 0.01728087 -0.05533009
v -0.00788524 0.01979256 -0.05515015
v -0.00773536 0.02325858 -0.05506211
v -0.00847665 0.01853759 -0.05532243
v -0.00910453 0.01790835 -0.05534157
v -0.00960683 0.02325858 -0.01708507
v -0.00989646 0.00540236 -0.01751767
v -0.00946910 0.02325858 -0.01692428
v -0.01034610 0.01539667 -0.05342741
v -0.01034610 0.01665339 -0.05468310
v -0.01023470 0.00540236 -0.04402503
v -0.01034205 0.00597916 -0.04400971
v -0.01034407 0.00660664 -0.04463756
v -0.01034610 0.00786336 -0.04589325
v -0.01034610 0.00911833 -0.04714894
v -0.00997343 0.02325858 -0.05524203
v -0.01019622 0.02325858 -0.05515781
v -0.00973240 0.02325858 -0.05533009
v -0.00943062 0.02325858 -0.05533775
v -0.00910453 0.01853759 -0.05534540
v -0.00788524 0.02293347 -0.05514633
v -0.00847665 0.02042179 -0.05532243
v -0.00788726 0.02325858 -0.05514633
v -0.00992077 0.02325858 -0.01755978
v -0.00992077 0.00540236 -0.01755978
v -0.01034610 0.02325858 -0.05468310
v -0.01034205 0.00540236 -0.04338187
v -0.01034610 0.00540236 -0.04275019
v -0.00910453 0.02325858 -0.05534540
v -0.00847665 0.02325858 -0.05531860
v -0.01008280 0.02325858 -0.01787371
v -0.01007064 0.00540236 -0.01784691
v -0.01034610 0.02325858 -0.02077558
v -0.01034610 0.00540236 -0.02077558
v -0.01014153 0.02325858 -0.01806129
v -0.01020635 0.01979256 -0.01826419
v -0.01019622 0.00540236 -0.01822974
v -0.01008280 0.00540236 -0.01787371
v -0.01034407 0.02325858 -0.01951989
v -0.01034407 0.00540236 -0.01951989
v -0.01020432 0.02325858 -0.01826419
v -0.01025901 0.02325858 -0.01856663
v -0.01031774 0.02325858 -0.01889204
v -0.01031977 0.01602590 -0.01889204
v -0.01020635 0.00540236 -0.01826419
v -0.01034205 0.00540236 -0.01946629
v -0.01031977 0.00540236 -0.01889204
f 1 2 7
f 1 7 3
f 1 3 8
f 1 8 4
f 1 4 9
f 1 9 20
f 1 20 47
f 1 47 84
f 1 84 122
f 1 122 82
f 1 82 80
f 1 80 41
f 1 41 81
f 1 81 121
f 1 121 132
f 1 132 183
f 1 183 130
f 1 130 128
f 1 128 89
f 1 89 126
f 1 126 125
f 1 125 182
f 1 182 242
f 1 242 277
f 1 277 239
f 1 239 237
f 1 237 275
f 1 275 293
f 1 293 292
f 1 292 273
f 1 273 271
f 1 271 270
f 1 270 308
f 1 308 340
f 1 340 374
f 1 374 406
f 1 406 428
f 1 428 402
f 1 402 401
f 1 401 368
f 1 368 400
f 1 400 366
f 1 366 364
f 1 364 363
f 1 363 399
f 1 399 426
f 1 426 423
f 1 423 422
f 1 422 441
f 1 441 461
f 1 461 468
f 1 468 467
f 1 467 457
f 1 457 456
f 1 456 454
f 1 454 455
f 1 455 464
f 1 464 471
f 1 471 477
f 1 477 481
f 1 481 480
f 1 480 479
f 1 479 473
f 1 473 469
f 1 469 462
f 1 462 444
f 1 444 446
f 1 446 430
f 1 430 409
f 1 409 408
f 1 408 377
f 1 377 376
f 1 376 343
f 1 343 341
f 1 341 310
f 1 310 280
f 1 280 243
f 1 243 180
f 1 180 123
f 1 123 87
f 1 87 85
f 1 85 48
f 1 48 21
f 1 21 10
f 1 10 5
f 1 5 2
f 2 5 6
f 2 6 12
f 2 12 7
f 3 7 12
f 3 12 11
f 3 11 23
f 3 23 24
f 3 24 50
f 3 50 86
f 3 86 124
f 3 124 181
f 3 181 244
f 3 244 281
f 3 281 311
f 3 311 342
f 3 342 375
f 3 375 407
f 3 407 429
f 3 429 445
f 3 445 463
f 3 463 470
f 3 470 476
f 3 476 475
f 3 475 483
f 3 483 485
f 3 485 484
f 3 484 478
f 3 478 472
f 3 472 466
f 3 466 465
f 3 465 449
f 3 449 432
f 3 432 414
f 3 414 385
f 3 385 355
f 3 355 382
f 3 382 378
f 3 378 344
f 3 344 312
f 3 312 282
f 3 282 248
f 3 248 185
f 3 185 134
f 3 134 94
f 3 94 58
f 3 58 29
f 3 29 14
f 3 14 8
f 4 8 19
f 4 19 9
f 5 10 6
f 6 11 12
f 6 10 13
f 6 13 11
f 8 14 15
f 8 15 16
f 8 16 17
f 8 17 18
f 8 18 19
f 9 19 18
f 9 18 20
f 10 21 22
f 10 22 13
f 11 13 23
f 13 24 23
f 13 22 24
f 14 25 26
f 14 26 27
f 14 27 28
f 14 28 15
f 14 29 30
f 14 30 31
f 14 31 32
f 14 32 33
f 14 33 34
f 14 34 35
f 14 35 36
f 14 36 37
f 14 37 38
f 14 38 39
f 14 39 25
f 15 28 40
f 15 40 79
f 15 79 41
f 15 41 80
f 15 80 42
f 15 42 43
f 15 43 16
f 16 43 44
f 16 44 17
f 17 44 45
f 17 45 18
f 18 45 46
f 18 46 47
f 18 47 20
f 21 48 22
f 22 49 86
f 22 86 50
f 22 50 24
f 22 48 49
f 25 51 26
f 25 39 51
f 26 51 52
f 26 52 53
f 26 53 54
f 26 54 55
f 26 55 27
f 27 55 56
f 27 56 57
f 27 57 28
f 28 57 40
f 29 58 59
f 29 59 30
f 30 59 60
f 30 60 61
f 30 61 31
f 31 61 62
f 31 62 63
f 31 63 64
f 31 64 65
f 31 65 32
f 32 65 64
f 32 64 66
f 32 66 67
f 32 67 68
f 32 68 33
f 33 68 34
f 34 68 69
f 34 69 70
f 34 70 71
f 34 71 72
f 34 72 36
f 34 36 35
f 36 72 71
f 36 71 37
f 37 71 73
f 37 73 74
f 37 74 38
f 38 74 39
f 39 74 75
f 39 75 76
f 39 76 77
f 39 77 78
f 39 78 52
f 39 52 51
f 40 57 93
f 40 93 79
f 41 79 81
f 42 80 82
f 42 82 43
f 43 82 44
f 44 83 84
f 44 84 45
f 44 82 83
f 45 84 46
f 46 84 47
f 48 85 49
f 49 85 87
f 49 87 86
f 52 88 54
f 52 54 53
f 52 78 88
f 54 88 126
f 54 126 89
f 54 89 128
f 54 128 90
f 54 90 55
f 55 90 56
f 56 90 91
f 56 91 129
f 56 129 92
f 56 92 93
f 56 93 57
f 58 94 95
f 58 95 62
f 58 62 59
f 59 62 60
f 60 62 61
f 62 96 64
f 62 64 63
f 62 95 97
f 62 97 96
f 64 96 98
f 64 98 99
f 64 99 100
f 64 100 101
f 64 101 102
f 64 102 103
f 64 103 67
f 64 67 66
f 67 103 68
f 68 103 69
f 69 103 104
f 69 104 105
f 69 105 106
f 69 106 70
f 70 106 71
f 71 107 108
f 71 108 109
f 71 109 73
f 71 106 110
f 71 110 111
f 71 111 107
f 73 109 112
f 73 112 113
f 73 113 75
f 73 75 74
f 75 113 114
f 75 114 76
f 76 114 115
f 76 115 116
f 76 116 117
f 76 117 77
f 77 117 176
f 77 176 118
f 77 118 178
f 77 178 119
f 77 119 78
f 78 119 120
f 78 120 88
f 79 93 81
f 81 93 121
f 82 122 83
f 83 122 84
f 86 87 123
f 86 123 124
f 88 125 126
f 88 120 127
f 88 127 125
f 90 128 129
f 90 129 91
f 92 129 130
f 92 130 131
f 92 131 93
f 93 131 132
f 93 132 121
f 94 133 95
f 94 134 133
f 95 135 97
f 95 133 136
f 95 136 137
f 95 137 138
f 95 138 139
f 95 139 140
f 95 140 141
f 95 141 135
f 96 97 98
f 97 135 98
f 98 135 142
f 98 142 143
f 98 143 144
f 98 144 145
f 98 145 99
f 99 145 100
f 100 102 101
f 100 145 146
f 100 146 147
f 100 147 148
f 100 148 102
f 102 149 150
f 102 150 151
f 102 151 103
f 102 148 152
f 102 152 149
f 103 151 104
f 104 151 153
f 104 153 105
f 105 153 154
f 105 154 155
f 105 155 106
f 106 155 110
f 107 156 157
f 107 157 158
f 107 158 159
f 107 159 108
f 107 111 156
f 108 159 109
f 109 160 112
f 109 159 160
f 110 155 161
f 110 161 162
f 110 162 163
f 110 163 111
f 111 163 164
f 111 164 165
f 111 165 166
f 111 166 167
f 111 167 168
f 111 168 156
f 112 160 221
f 112 221 169
f 112 169 170
f 112 170 171
f 112 171 172
f 112 172 173
f 112 173 174
f 112 174 113
f 113 174 115
f 113 115 114
f 115 174 175
f 115 175 116
f 116 175 176
f 116 176 117
f 118 176 177
f 118 177 178
f 119 178 120
f 120 179 127
f 120 178 179
f 123 180 124
f 124 180 181
f 125 127 179
f 125 179 182
f 128 130 129
f 130 183 131
f 131 183 132
f 133 134 184
f 133 184 136
f 134 185 184
f 135 141 186
f 135 186 142
f 136 184 187
f 136 187 137
f 137 187 188
f 137 188 189
f 137 189 190
f 137 190 191
f 137 191 138
f 138 191 190
f 138 190 192
f 138 192 193
f 138 193 139
f 139 193 140
f 140 193 194
f 140 194 195
f 140 195 196
f 140 196 197
f 140 197 198
f 140 198 141
f 141 198 199
f 141 199 186
f 142 186 199
f 142 199 200
f 142 200 144
f 142 144 143
f 144 200 201
f 144 201 145
f 145 201 202
f 145 202 203
f 145 203 204
f 145 204 146
f 146 204 147
f 147 204 205
f 147 205 148
f 148 205 206
f 148 206 207
f 148 207 214
f 148 214 152
f 149 152 208
f 149 208 209
f 149 209 150
f 150 209 208
f 150 208 210
f 150 210 211
f 150 211 212
f 150 212 151
f 151 212 154
f 151 154 153
f 152 213 208
f 152 214 215
f 152 215 213
f 154 212 210
f 154 210 155
f 155 210 216
f 155 216 162
f 155 162 161
f 156 168 217
f 156 217 157
f 157 218 257
f 157 257 219
f 157 219 158
f 157 217 218
f 158 219 159
f 159 219 220
f 159 220 221
f 159 221 160
f 162 216 215
f 162 215 163
f 163 215 222
f 163 222 223
f 163 223 224
f 163 224 225
f 163 225 226
f 163 226 164
f 164 226 227
f 164 227 165
f 165 227 228
f 165 228 229
f 165 229 166
f 166 229 230
f 166 230 231
f 166 231 167
f 167 232 271
f 167 271 233
f 167 233 168
f 167 231 269
f 167 269 232
f 168 233 234
f 168 234 217
f 169 221 238
f 169 238 235
f 169 235 170
f 170 236 237
f 170 237 171
f 170 235 238
f 170 238 236
f 171 237 239
f 171 239 240
f 171 240 172
f 172 240 175
f 172 175 174
f 172 174 173
f 175 240 176
f 176 240 241
f 176 241 177
f 177 241 242
f 177 242 182
f 177 182 179
f 177 179 178
f 180 243 244
f 180 244 181
f 184 185 245
f 184 245 246
f 184 246 247
f 184 247 187
f 185 248 245
f 187 247 188
f 188 247 189
f 189 247 249
f 189 249 250
f 189 250 251
f 189 251 190
f 190 251 252
f 190 252 192
f 192 252 250
f 192 250 253
f 192 253 194
f 192 194 193
f 194 225 224
f 194 224 223
f 194 223 254
f 194 254 195
f 194 253 255
f 194 255 225
f 195 203 201
f 195 201 200
f 195 200 196
f 195 254 203
f 196 200 197
f 197 200 199
f 197 199 198
f 201 203 202
f 203 223 204
f 203 254 223
f 204 223 222
f 204 222 206
f 204 206 205
f 206 214 207
f 206 222 214
f 208 213 216
f 208 216 256
f 208 256 210
f 210 212 211
f 210 256 216
f 213 215 216
f 214 222 215
f 217 234 218
f 218 234 273
f 218 273 257
f 219 257 220
f 220 257 258
f 220 258 221
f 221 258 259
f 221 259 238
f 225 255 260
f 225 260 261
f 225 261 262
f 225 262 227
f 225 227 226
f 227 263 264
f 227 264 265
f 227 265 228
f 227 262 266
f 227 266 263
f 228 265 267
f 228 267 229
f 229 267 268
f 229 268 230
f 230 268 269
f 230 269 231
f 232 270 271
f 232 269 272
f 232 272 270
f 233 271 273
f 233 273 234
f 236 274 237
f 236 238 274
f 237 274 275
f 238 259 276
f 238 276 274
f 239 277 278
f 239 278 240
f 240 278 279
f 240 279 241
f 241 279 242
f 242 279 278
f 242 278 277
f 243 280 281
f 243 281 244
f 245 248 282
f 245 282 283
f 245 283 284
f 245 284 246
f 246 284 247
f 247 284 249
f 249 284 283
f 249 283 285
f 249 285 250
f 250 285 286
f 250 286 287
f 250 287 288
f 250 288 253
f 250 252 251
f 253 288 289
f 253 289 290
f 253 290 291
f 253 291 255
f 255 291 260
f 257 273 258
f 258 273 292
f 258 292 293
f 258 293 259
f 259 293 276
f 260 291 294
f 260 294 295
f 260 295 296
f 260 296 261
f 261 296 297
f 261 297 298
f 261 298 299
f 261 299 300
f 261 300 301
f 261 301 302
f 261 302 266
f 261 266 262
f 263 303 304
f 263 304 264
f 263 266 305
f 263 305 306
f 263 306 303
f 264 304 307
f 264 307 265
f 265 307 267
f 266 302 305
f 267 307 308
f 267 308 309
f 267 309 272
f 267 272 269
f 267 269 268
f 270 272 309
f 270 309 308
f 274 276 275
f 275 276 293
f 280 310 281
f 281 310 311
f 282 312 313
f 282 313 283
f 283 313 314
f 283 314 285
f 285 314 315
f 285 315 286
f 286 315 316
f 286 316 287
f 287 317 318
f 287 318 319
f 287 319 288
f 287 316 320
f 287 320 317
f 288 319 289
f 289 319 321
f 289 321 322
f 289 322 290
f 290 322 291
f 291 322 294
f 294 322 323
f 294 323 324
f 294 324 325
f 294 325 297
f 294 297 296
f 294 296 295
f 297 325 298
f 298 325 326
f 298 326 299
f 299 326 327
f 299 327 300
f 300 327 328
f 300 328 329
f 300 329 301
f 301 329 330
f 301 330 331
f 301 331 332
f 301 332 333
f 301 333 334
f 301 334 335
f 301 335 302
f 302 335 336
f 302 336 305
f 303 306 337
f 303 337 304
f 304 338 339
f 304 339 308
f 304 308 307
f 304 337 338
f 305 336 306
f 306 336 337
f 308 339 338
f 308 338 340
f 310 341 311
f 311 341 343
f 311 343 342
f 312 344 345
f 312 345 346
f 312 346 347
f 312 347 348
f 312 348 313
f 313 348 314
f 314 347 315
f 314 348 347
f 315 347 349
f 315 349 316
f 316 349 347
f 316 347 350
f 316 350 320
f 317 351 352
f 317 352 318
f 317 320 350
f 317 350 353
f 317 353 354
f 317 354 355
f 317 355 351
f 318 352 356
f 318 356 319
f 319 356 357
f 319 357 358
f 319 358 359
f 319 359 321
f 321 360 322
f 321 359 361
f 321 361 360
f 322 360 362
f 322 362 324
f 322 324 323
f 324 363 364
f 324 364 325
f 324 362 397
f 324 397 363
f 325 364 365
f 325 365 326
f 326 365 328
f 326 328 327
f 328 365 366
f 328 366 330
f 328 330 329
f 330 366 367
f 330 367 368
f 330 368 331
f 331 368 369
f 331 369 333
f 331 333 332
f 333 369 334
f 334 369 370
f 334 370 336
f 334 336 335
f 336 370 371
f 336 371 372
f 336 372 338
f 336 338 337
f 338 372 373
f 338 373 340
f 340 373 374
f 342 343 376
f 342 376 377
f 342 377 375
f 344 378 379
f 344 379 345
f 345 379 350
f 345 350 346
f 346 350 380
f 346 380 381
f 346 381 347
f 347 381 380
f 347 380 350
f 350 379 382
f 350 382 353
f 351 383 387
f 351 387 386
f 351 386 415
f 351 415 436
f 351 436 412
f 351 412 384
f 351 384 388
f 351 388 356
f 351 356 352
f 351 355 383
f 353 382 354
f 354 382 355
f 355 385 386
f 355 386 387
f 355 387 383
f 356 388 389
f 356 389 390
f 356 390 391
f 356 391 357
f 357 391 358
f 358 391 392
f 358 392 359
f 359 392 361
f 360 393 397
f 360 397 362
f 360 361 394
f 360 394 421
f 360 421 393
f 361 392 395
f 361 395 396
f 361 396 394
f 363 398 399
f 363 397 398
f 364 366 365
f 366 400 367
f 367 400 368
f 368 401 369
f 369 401 402
f 369 402 370
f 370 402 403
f 370 403 404
f 370 404 371
f 371 404 372
f 372 405 374
f 372 374 373
f 372 404 428
f 372 428 406
f 372 406 405
f 374 405 406
f 375 377 408
f 375 408 409
f 375 409 407
f 378 382 379
f 384 410 411
f 384 411 388
f 384 412 413
f 384 413 410
f 385 414 415
f 385 415 386
f 388 416 417
f 388 417 389
f 388 411 416
f 389 418 390
f 389 417 419
f 389 419 418
f 390 418 392
f 390 392 391
f 392 418 419
f 392 419 420
f 392 420 395
f 393 421 422
f 393 422 423
f 393 423 397
f 394 396 424
f 394 424 440
f 394 440 421
f 395 420 425
f 395 425 396
f 396 425 442
f 396 442 424
f 397 423 426
f 397 426 427
f 397 427 399
f 397 399 398
f 399 427 426
f 402 428 403
f 403 428 404
f 407 409 429
f 409 430 429
f 410 431 411
f 410 413 432
f 410 432 433
f 410 433 434
f 410 434 431
f 411 431 435
f 411 435 416
f 412 436 413
f 413 414 432
f 413 436 415
f 413 415 414
f 416 437 417
f 416 435 437
f 417 438 420
f 417 420 419
f 417 437 439
f 417 439 438
f 420 438 425
f 421 440 422
f 422 440 441
f 424 442 460
f 424 460 440
f 425 438 443
f 425 443 442
f 429 444 445
f 429 430 446
f 429 446 444
f 431 447 448
f 431 448 435
f 431 434 433
f 431 433 449
f 431 449 450
f 431 450 451
f 431 451 452
f 431 452 453
f 431 453 447
f 432 449 433
f 435 448 437
f 437 454 439
f 437 448 464
f 437 464 455
f 437 455 454
f 438 439 443
f 439 456 457
f 439 457 458
f 439 458 443
f 439 454 456
f 440 459 441
f 440 460 459
f 441 459 461
f 442 443 458
f 442 458 467
f 442 467 460
f 444 462 445
f 445 462 463
f 447 453 452
f 447 452 466
f 447 466 472
f 447 472 471
f 447 471 464
f 447 464 448
f 449 465 450
f 450 465 451
f 451 465 466
f 451 466 452
f 457 467 458
f 459 460 468
f 459 468 461
f 460 467 468
f 462 469 470
f 462 470 463
f 469 473 474
f 469 474 475
f 469 475 476
f 469 476 470
f 471 472 478
f 471 478 477
f 473 479 474
f 474 479 480
f 474 480 481
f 474 481 482
f 474 482 485
f 474 485 483
f 474 483 475
f 477 484 482
f 477 482 481
f 477 478 484
f 482 484 485

