# https://github.com/mikedh/trimesh
v 0.01034540 0.02607402 -0.01951947
v 0.01033325 0.02670181 -0.02014680
v 0.01033325 0.02670181 -0.01951947
v 0.01031704 0.02607402 -0.01889214
v 0.01031907 0.02419064 -0.01889214
v 0.01034540 0.02325924 -0.01951947
v 0.01033527 0.02607402 -0.02579274
v 0.01033122 0.02670181 -0.02768093
v 0.01026236 0.02732961 -0.02768093
v 0.01026236 0.02732961 -0.01951947
v 0.01030489 0.02670181 -0.01889214
v 0.00807087 0.02670181 0.00057361
v 0.01031907 0.02325924 -0.01889214
v 0.01032717 0.02325924 -0.02579274
v 0.01032717 0.02670181 -0.02830825
v 0.01025831 0.02732961 -0.02830825
v 0.01012261 0.02784048 -0.02830825
v 0.01012463 0.02784579 -0.02768093
v 0.01012463 0.02784579 -0.01951947
v 0.01011045 0.02780992 -0.01889214
v 0.01023400 0.02732961 -0.01889214
v 0.00794733 0.02732961 0.00120093
v 0.00799796 0.02670181 0.00120093
v 0.00763541 0.02627598 0.00246180
v 0.01020565 0.02325924 -0.01826482
v 0.01031299 0.02325924 -0.02642006
v 0.01028059 0.02670181 -0.02893558
v 0.01027856 0.02325924 -0.02705360
v 0.01020970 0.02732961 -0.02893558
v 0.01009830 0.02777737 -0.02893558
v 0.00999501 0.02815404 -0.02830825
v 0.00999703 0.02816002 -0.02768093
v 0.00999703 0.02816002 -0.01951947
v 0.00998083 0.02812415 -0.01889214
v 0.00775694 0.02795740 0.00120093
v 0.00763541 0.02797334 0.00180342
v 0.00782580 0.02732961 0.00182826
v 0.00788859 0.02670181 0.00182826
v 0.00756857 0.02634241 0.00285931
v 0.00705210 0.02626202 0.00371645
v 0.01008210 0.02325924 -0.01787352
v 0.01021375 0.02325924 -0.02768093
v 0.01015906 0.02325924 -0.02799148
v 0.01010640 0.02325924 -0.02828962
v 0.01007400 0.02325924 -0.02845111
v 0.01004159 0.02325924 -0.02860018
v 0.00996462 0.02325924 -0.02893558
v 0.01014286 0.02670181 -0.02953185
v 0.01010640 0.02732961 -0.02942626
v 0.01006590 0.02769433 -0.02930825
v 0.00996665 0.02809160 -0.02893558
v 0.00972158 0.02858586 -0.02830825
v 0.00972765 0.02858586 -0.02768093
v 0.00962233 0.02863967 -0.02896042
v 0.00973170 0.02858586 -0.02328964
v 0.00973170 0.02858586 -0.02077412
v 0.00972765 0.02858586 -0.01951947
v 0.00969525 0.02858586 -0.01889214
v 0.00758073 0.02834471 0.00120093
v 0.00754832 0.02829488 0.00157981
v 0.00749971 0.02819390 0.00199596
v 0.00758680 0.02777471 0.00230652
v 0.00763744 0.02734621 0.00249285
v 0.00772453 0.02670181 0.00246180
v 0.00758073 0.02670181 0.00288416
v 0.00744300 0.02670181 0.00320093
v 0.00719388 0.02670181 0.00371645
v 0.00695488 0.02633111 0.00410775
v 0.00660651 0.02622216 0.00432514
v 0.00659233 0.02609528 0.00371645
v 0.00992007 0.02325924 -0.01756296
v 0.00978234 0.02325924 -0.02956291
v 0.01003551 0.02670181 -0.02984862
v 0.00999703 0.02732961 -0.02974303
v 0.00987956 0.02792551 -0.02953806
v 0.00956562 0.02847757 -0.02956291
v 0.00944410 0.02892666 -0.02876788
v 0.00946030 0.02894327 -0.02830825
v 0.00946233 0.02894659 -0.02768093
v 0.00946638 0.02894991 -0.02328964
v 0.00940561 0.02888481 -0.02918402
v 0.00946638 0.02894925 -0.02077412
v 0.00946435 0.02894726 -0.01951947
v 0.00944612 0.02892799 -0.01889214
v 0.00739642 0.02871474 0.00057361
v 0.00761516 0.02840051 0.00057361
v 0.00735793 0.02865827 0.00120093
v 0.00732148 0.02853670 0.00180342
v 0.00708450 0.02860645 0.00243695
v 0.00699134 0.02839320 0.00308912
v 0.00743895 0.02797334 0.00249285
v 0.00751794 0.02756677 0.00272888
v 0.00756047 0.02714824 0.00283447
v 0.00742680 0.02734621 0.00306428
v 0.00708450 0.02737611 0.00377235
v 0.00694678 0.02719741 0.00409533
v 0.00697311 0.02670181 0.00413881
v 0.00677664 0.02670181 0.00444937
v 0.00646271 0.02670181 0.00489657
v 0.00640599 0.02627996 0.00482204
v 0.00600091 0.02618961 0.00500837
v 0.00596446 0.02605675 0.00434378
v 0.00960613 0.02325924 -0.01708470
v 0.00954739 0.02325924 -0.03019023
v 0.00948258 0.02325924 -0.03035793
v 0.00941979 0.02325924 -0.03050700
v 0.00926384 0.02325924 -0.03082377
v 0.00910180 0.02325924 -0.03114054
v 0.00894990 0.02325924 -0.03143246
v 0.00886281 0.02325924 -0.03159395
v 0.00878179 0.02325924 -0.03174302
v 0.00868255 0.02325924 -0.03191693
v 0.00843140 0.02325924 -0.03234550
v 0.00983500 0.02670181 -0.03019023
v 0.00975398 0.02732961 -0.03019023
v 0.00955954 0.02792286 -0.03018402
v 0.00947650 0.02835135 -0.02996663
v 0.00932257 0.02879114 -0.02956291
v 0.00877369 0.02951792 -0.02830825
v 0.00910383 0.02924753 -0.02830825
v 0.00915851 0.02913593 -0.02896042
v 0.00910383 0.02925351 -0.02768093
v 0.00910383 0.02925949 -0.02391076
v 0.00910383 0.02925883 -0.02014680
v 0.00900864 0.02908411 -0.02956291
v 0.00872305 0.02948869 -0.02893558
v 0.00946435 0.02894925 -0.02014680
v 0.00910383 0.02925551 -0.01951947
v 0.00910383 0.02922030 -0.01889214
v 0.00708248 0.02907414 0.00057361
v 0.00704400 0.02903694 0.00120093
v 0.00697918 0.02897317 0.00182826
v 0.00693057 0.02892400 0.00220714
v 0.00684753 0.02883033 0.00262950
v 0.00675031 0.02870677 0.00308912
v 0.00692045 0.02829355 0.00343074
v 0.00721615 0.02795740 0.00308912
v 0.00699741 0.02795740 0.00356738
v 0.00690019 0.02761593 0.00402080
v 0.00676652 0.02737611 0.00431893
v 0.00642220 0.02732961 0.00484067
v 0.00620953 0.02670181 0.00520713
v 0.00589559 0.02670181 0.00555495
v 0.00581660 0.02627730 0.00546800
v 0.00538317 0.02618828 0.00564812
v 0.00533658 0.02605475 0.00497110
v 0.00933270 0.02325924 -0.01677414
v 0.00828354 0.02325924 -0.03259395
v 0.00796353 0.02325924 -0.03312811
v 0.00783998 0.02325924 -0.03333307
v 0.00739844 0.02325924 -0.03405357
v 0.00245646 0.02325924 -0.04204732
v 0.00148427 0.02325924 -0.04361874
v 0.00124527 0.02325924 -0.04400384
v 0.00084627 0.02419064 -0.04463737
v 0.00063765 0.02481843 -0.04496656
v 0.00083817 0.02544622 -0.04463737
v 0.00063158 0.02577573 -0.04495414
v 0.00944005 0.02769100 -0.03053184
v 0.00007864 0.02591391 -0.04568706
v 0.00910383 0.02858453 -0.03019023
v 0.00888509 0.02897915 -0.02999769
v 0.00840912 0.02965012 -0.02893558
v 0.00845975 0.02967603 -0.02830825
v 0.00877774 0.02952058 -0.02768093
v 0.00878382 0.02952323 -0.02516541
v 0.00878382 0.02952456 -0.02391076
v 0.00878382 0.02952323 -0.02014680
v 0.00849418 0.02941760 -0.02961259
v 0.00829569 0.02959365 -0.02943247
v 0.00877976 0.02952191 -0.01951947
v 0.00875343 0.02950596 -0.01889214
v 0.00671183 0.02938837 0.00057361
v 0.00666727 0.02935051 0.00120093
v 0.00654575 0.02932526 0.00183447
v 0.00625004 0.02951194 0.00205186
v 0.00662069 0.02911135 0.00243695
v 0.00643638 0.02904159 0.00308912
v 0.00633713 0.02895324 0.00349906
v 0.00656803 0.02855796 0.00367297
v 0.00637966 0.02840383 0.00419471
v 0.00624599 0.02821516 0.00461086
v 0.00650524 0.02798663 0.00438104
v 0.00682120 0.02795740 0.00388415
v 0.00635131 0.02779663 0.00474750
v 0.00616700 0.02732961 0.00515123
v 0.00585306 0.02732961 0.00550526
v 0.00560394 0.02670181 0.00586551
v 0.00520493 0.02627730 0.00607048
v 0.00473099 0.02619891 0.00625681
v 0.00408083 0.02606804 0.00622576
v 0.00470871 0.02605475 0.00559843
v 0.00901876 0.02325924 -0.01653191
v 0.00085032 0.02325924 -0.04463737
v 0.00063563 0.02544622 -0.04496035
v 0.00063968 0.02419064 -0.04496656
v 0.00043511 0.02481843 -0.04528333
v 0.00043309 0.02544622 -0.04527712
v 0.00011915 0.02544622 -0.04574296
v -0.00010972 0.02544622 -0.04605973
v -0.00122369 0.02583884 -0.04750693
v -0.00310326 0.02584748 -0.05002244
v -0.00179891 0.02591790 -0.04820257
v -0.00367848 0.02592122 -0.05071809
v -0.00425167 0.02594647 -0.05141374
v -0.00405925 0.02608598 -0.05092306
v 0.00784808 0.02986005 -0.02893558
v 0.00784808 0.02990988 -0.02830825
v 0.00784808 0.02991519 -0.02768093
v 0.00846380 0.02967869 -0.02768093
v 0.00846988 0.02967935 -0.02516541
v 0.00846988 0.02968068 -0.02391076
v 0.00846988 0.02968002 -0.02014680
v 0.00813164 0.02951725 -0.02984862
v 0.00789264 0.02967404 -0.02961259
v 0.00846583 0.02967869 -0.01951947
v 0.00843950 0.02966474 -0.01889214
v 0.00639789 0.02959830 0.00057361
v 0.00635333 0.02957306 0.00120093
v 0.00630675 0.02954582 0.00162950
v 0.00585711 0.02963086 0.00246180
v 0.00574571 0.02957904 0.00295248
v 0.00617105 0.02946012 0.00246180
v 0.00601104 0.02965743 0.00183447
v 0.00595838 0.02938372 0.00313260
v 0.00598674 0.02912198 0.00371024
v 0.00579027 0.02901768 0.00421956
v 0.00620953 0.02882236 0.00391521
v 0.00601914 0.02864366 0.00441210
v 0.00563432 0.02888348 0.00463570
v 0.00582673 0.02846495 0.00486551
v 0.00564849 0.02826764 0.00528166
v 0.00600294 0.02803247 0.00501458
v 0.00575989 0.02784911 0.00540589
v 0.00555128 0.02732961 0.00582203
v 0.00529000 0.02670181 0.00613880
v 0.00453655 0.02629458 0.00663569
v 0.00403222 0.02625405 0.00684687
v 0.00345296 0.02612916 0.00685308
v 0.00282509 0.02606007 0.00685308
v 0.00846785 0.02325924 -0.01630209
v 0.00063968 0.02325924 -0.04496656
v 0.00012117 0.02481843 -0.04574917
v 0.00043511 0.02325924 -0.04528333
v 0.00012117 0.02325924 -0.04575538
v -0.00010162 0.02419064 -0.04606594
v -0.00064443 0.02325924 -0.04681128
v -0.00119331 0.02356218 -0.04754419
v -0.00228905 0.02356218 -0.04901623
v -0.00307086 0.02356218 -0.05006592
v -0.00363189 0.02544622 -0.05078641
v -0.00386482 0.02544622 -0.05109697
v -0.00417875 0.02544622 -0.05150691
v -0.00442585 0.02544622 -0.05182368
v -0.00483498 0.02594979 -0.05204728
v -0.00465877 0.02610258 -0.05159386
v 0.00722021 0.02997033 -0.02893558
v 0.00722021 0.02982019 -0.02956291
v 0.00722021 0.03001816 -0.02830825
v 0.00722021 0.03002281 -0.02768093
v 0.00784808 0.02991718 -0.02453808
v 0.00784808 0.02991718 -0.02391076
v 0.00784808 0.02991519 -0.01951947
v -0.00528665 0.02610458 -0.05222119
v -0.00717027 0.02610458 -0.05410317
v -0.00780220 0.02609860 -0.05473671
v -0.00847665 0.02632779 -0.05468081
v 0.00596446 0.02979229 0.00057361
v 0.00596446 0.02975243 0.00120093
v 0.00533658 0.02983414 0.00246180
v 0.00538722 0.02968334 0.00313260
v 0.00563027 0.02951725 0.00336863
v 0.00551279 0.02945149 0.00371645
v 0.00535076 0.02923823 0.00436241
v 0.00516847 0.02900572 0.00497110
v 0.00502467 0.02890075 0.00528787
v 0.00551482 0.02863901 0.00503322
v 0.00517860 0.02858586 0.00543073
v 0.00500442 0.02824639 0.00589657
v 0.00539127 0.02804775 0.00564812
v 0.00513607 0.02782719 0.00600837
v 0.00523734 0.02732961 0.00609532
v 0.00491125 0.02670181 0.00645557
v 0.00459731 0.02670181 0.00667917
v 0.00379120 0.02636898 0.00718228
v 0.00345296 0.02629591 0.00725681
v 0.00282509 0.02622681 0.00738724
v 0.00156934 0.02611720 0.00748041
v 0.00094146 0.02607335 0.00748041
v 0.00784808 0.02325924 -0.01623998
v 0.00031359 0.02606007 0.00748041
v -0.00009757 0.02325924 -0.04606594
v -0.00025960 0.02325924 -0.04628954
v -0.00174017 0.02325924 -0.04828332
v -0.00330378 0.02325924 -0.05038269
v -0.00346581 0.02325924 -0.05060008
v -0.00385671 0.02419064 -0.05110939
v -0.00385469 0.02356218 -0.05111561
v -0.00442585 0.02325924 -0.05182368
v -0.00473979 0.02325924 -0.05215287
v -0.00504360 0.02325924 -0.05246342
v -0.00504562 0.02356218 -0.05246342
v -0.00505373 0.02544622 -0.05245721
v -0.00385266 0.02325924 -0.05111561
v -0.00401469 0.02325924 -0.05132057
v -0.00416660 0.02325924 -0.05150691
v -0.00662341 0.02544622 -0.05402864
v -0.00734648 0.02594979 -0.05455658
v 0.00659233 0.02999358 -0.02893558
v 0.00659233 0.03004075 -0.02830825
v 0.00659233 0.03004540 -0.02768093
v 0.00722021 0.03002348 -0.02516541
v 0.00722021 0.03002348 -0.02391076
v 0.00722021 0.03002281 -0.01951947
v 0.00533658 0.02996967 0.00057361
v 0.00533658 0.02995106 0.00120093
v -0.00798043 0.02593982 -0.05509074
v -0.00847665 0.02603482 -0.05515286
v -0.00910453 0.02604014 -0.05517149
v -0.00910453 0.02633244 -0.05468081
v 0.00533658 0.02990722 0.00182826
v 0.00470871 0.02990988 0.00308912
v 0.00470871 0.02978565 0.00371645
v 0.00519886 0.02960760 0.00371645
v 0.00506923 0.02954981 0.00408291
v 0.00488289 0.02945879 0.00450527
v 0.00468845 0.02931530 0.00494626
v 0.00470871 0.02899974 0.00541831
v 0.00435426 0.02887086 0.00588414
v 0.00476137 0.02863103 0.00575992
v 0.00458516 0.02845233 0.00606427
v 0.00429755 0.02815404 0.00648041
v 0.00472896 0.02799062 0.00624439
v 0.00445553 0.02773551 0.00657979
v 0.00485049 0.02732961 0.00641209
v 0.00410514 0.02670181 0.00698973
v 0.00453655 0.02732961 0.00663569
v 0.00377500 0.02704129 0.00717606
v 0.00379120 0.02670181 0.00718228
v 0.00345296 0.02670181 0.00733755
v 0.00282509 0.02670181 0.00759221
v 0.00202100 0.02634174 0.00782823
v 0.00156934 0.02628395 0.00788414
v 0.00094146 0.02624010 0.00793383
v 0.00031359 0.02622681 0.00795867
v -0.00784878 0.02325924 -0.01623998
v -0.00031429 0.02606007 0.00748041
v -0.00373924 0.02325924 -0.05096654
v -0.00520563 0.02325924 -0.05262492
v -0.00725129 0.02544622 -0.05465596
v -0.00757535 0.02544622 -0.05496652
v -0.00659303 0.02999358 -0.02893558
v -0.00659303 0.03004075 -0.02830825
v -0.00659303 0.03004540 -0.02768093
v 0.00659233 0.03004540 -0.01951947
v 0.00470871 0.03003477 0.00057361
v 0.00470871 0.03003078 0.00120093
v 0.00470871 0.03001550 0.00182826
v 0.00470871 0.02997963 0.00246180
v -0.00788929 0.02544622 -0.05514043
v -0.00847665 0.02544622 -0.05531434
v -0.00910453 0.02544622 -0.05534540
v -0.00973240 0.02603615 -0.05516528
v -0.00973240 0.02631916 -0.05468081
v 0.00408083 0.03000687 0.00308912
v 0.00408083 0.02993645 0.00371645
v 0.00408083 0.02980159 0.00434378
v 0.00468845 0.02961823 0.00431272
v 0.00446566 0.02955778 0.00472266
v 0.00422261 0.02945082 0.00513880
v 0.00407881 0.02922096 0.00559843
v 0.00393500 0.02899177 0.00602079
v 0.00358461 0.02878117 0.00643694
v 0.00411729 0.02861642 0.00625060
v 0.00388032 0.02836198 0.00661085
v 0.00408488 0.02795009 0.00670402
v 0.00368183 0.02745982 0.00712637
v 0.00402412 0.02728244 0.00697110
v 0.00346511 0.02728244 0.00726302
v 0.00282509 0.02732961 0.00752389
v 0.00237950 0.02670181 0.00775370
v 0.00206556 0.02670181 0.00784066
v 0.00156934 0.02670181 0.00795867
v 0.00094146 0.02670181 0.00805805
v 0.00031359 0.02670181 0.00810774
v -0.00031429 0.02622681 0.00795867
v -0.00807765 0.02325924 -0.01624619
v -0.00094216 0.02607335 0.00748041
v -0.00846855 0.02325924 -0.01630209
v -0.00724926 0.02325924 -0.05465596
v -0.00724926 0.02481843 -0.05465596
v -0.00757332 0.02481843 -0.05496652
v -0.00788726 0.02356218 -0.05514664
v -0.00722091 0.02997033 -0.02893558
v -0.00722091 0.03001816 -0.02830825
v -0.00722091 0.03002281 -0.02768093
v -0.00722091 0.03002348 -0.02391076
v -0.00659303 0.03004540 -0.01951947
v 0.00408083 0.03004540 0.00120093
v 0.00408083 0.03004341 0.00182826
v 0.00408083 0.03003543 0.00246180
v -0.00819107 0.02325924 -0.05523360
v -0.00847665 0.02325924 -0.05531434
v -0.00880274 0.02325924 -0.05533298
v -0.00973240 0.02544622 -0.05533298
v -0.00910453 0.02325924 -0.05534540
v -0.01014558 0.02594182 -0.05510317
v -0.01019622 0.02603283 -0.05468081
v -0.00872173 0.02948869 -0.02893558
v -0.00840779 0.02965012 -0.02893558
v -0.00784878 0.02985939 -0.02893558
v 0.00345296 0.03001085 0.00371645
v 0.00345296 0.02992914 0.00434378
v 0.00345296 0.02976439 0.00497110
v 0.00404033 0.02961093 0.00494626
v 0.00380335 0.02954250 0.00531272
v 0.00345296 0.02941760 0.00573508
v 0.00340638 0.02907149 0.00622576
v 0.00316535 0.02891338 0.00655495
v 0.00346511 0.02797401 0.00703942
v 0.00340638 0.02857722 0.00669159
v 0.00304990 0.02819457 0.00713258
v 0.00326460 0.02777604 0.00722575
v 0.00283521 0.02797401 0.00731271
v 0.00219721 0.02795740 0.00753631
v 0.00219721 0.02734621 0.00772886
v 0.00198657 0.02714824 0.00782202
v 0.00159364 0.02734621 0.00787793
v 0.00094146 0.02732961 0.00798351
v -0.00031429 0.02670181 0.00810152
v 0.00031359 0.02732961 0.00803320
v -0.00031429 0.02732961 0.00803320
v -0.00094216 0.02624010 0.00793383
v -0.00157004 0.02611720 0.00748041
v -0.00282578 0.02606007 0.00685308
v -0.00873388 0.02325924 -0.01638284
v -0.00741534 0.02325924 -0.05481745
v -0.00757130 0.02325924 -0.05496652
v -0.00788726 0.02325924 -0.05514664
v -0.00784878 0.02990988 -0.02830825
v -0.00784878 0.02991452 -0.02768093
v -0.00784878 0.02991519 -0.02705360
v -0.00784878 0.02991652 -0.02579274
v -0.00784878 0.02991718 -0.02453808
v -0.00784878 0.02991718 -0.02391076
v -0.00722091 0.03002281 -0.01951947
v -0.00470941 0.03003477 0.00057361
v -0.00408153 0.03004540 0.00120093
v 0.00345296 0.03004540 0.00246180
v 0.00345296 0.03003942 0.00308912
v -0.01019622 0.02544622 -0.05515907
v -0.00973240 0.02325924 -0.05533298
v -0.01034610 0.02544622 -0.05468081
v -0.01025698 0.02732961 -0.02830825
v -0.01012331 0.02783915 -0.02830825
v -0.00999571 0.02815338 -0.02830825
v -0.00972228 0.02858586 -0.02830825
v -0.00946100 0.02894327 -0.02830825
v -0.00944480 0.02892666 -0.02876167
v -0.00910453 0.02924753 -0.02830825
v -0.00877439 0.02951792 -0.02830825
v -0.00846045 0.02967603 -0.02830825
v 0.00282509 0.03003875 0.00371645
v 0.00219721 0.03003078 0.00434378
v 0.00282509 0.03000022 0.00434378
v 0.00282509 0.02988596 0.00497110
v 0.00282306 0.02965344 0.00562949
v 0.00345296 0.02959299 0.00541831
v 0.00302965 0.02949799 0.00585930
v 0.00282509 0.02898047 0.00662948
v 0.00283521 0.02856593 0.00696489
v 0.00282306 0.02932327 0.00618849
v 0.00263267 0.02834338 0.00721954
v 0.00159364 0.02794943 0.00769159
v 0.00140123 0.02773419 0.00783444
v 0.00182049 0.02756677 0.00777855
v 0.00219721 0.02844037 0.00728165
v 0.00094146 0.02781258 0.00785929
v -0.00094216 0.02670181 0.00805805
v 0.00031359 0.02787303 0.00788414
v -0.00094216 0.02732961 0.00798351
v -0.00031429 0.02787303 0.00788414
v -0.00094216 0.02781191 0.00785929
v -0.00157004 0.02628395 0.00788414
v -0.00282578 0.02622681 0.00738724
v -0.00345366 0.02612916 0.00685308
v -0.00408153 0.02606804 0.00622576
v -0.00901946 0.02325924 -0.01653191
v -0.00846653 0.02967869 -0.02768093
v -0.00846855 0.02967935 -0.02642006
v -0.00847058 0.02968068 -0.02391076
v -0.00847058 0.02968002 -0.02014680
v -0.00784878 0.02991519 -0.01951947
v -0.00533728 0.02996967 0.00057361
v -0.00470941 0.03003078 0.00120093
v -0.00408153 0.03004341 0.00182826
v -0.00345366 0.03004540 0.00246180
v 0.00219721 0.03004540 0.00371645
v -0.01019622 0.02325924 -0.05515907
v -0.01034610 0.02544622 -0.02077412
v -0.01034407 0.02607402 -0.02768093
v -0.01033192 0.02670181 -0.02768093
v -0.01026103 0.02732961 -0.02768093
v -0.01034610 0.02325924 -0.05468081
v -0.01012533 0.02784513 -0.02768093
v -0.00999773 0.02815936 -0.02768093
v -0.00972835 0.02858586 -0.02768093
v -0.00946302 0.02894659 -0.02768093
v -0.00910453 0.02925418 -0.02768093
v -0.00878046 0.02952124 -0.02768093
v 0.00156934 0.03004008 0.00434378
v 0.00094146 0.03001550 0.00497110
v 0.00156934 0.02999424 0.00497110
v 0.00219721 0.02995704 0.00497110
v 0.00156934 0.02985540 0.00559843
v 0.00219721 0.02978099 0.00559843
v 0.00219721 0.02959565 0.00603321
v 0.00261039 0.02955246 0.00595247
v 0.00219721 0.02939834 0.00634998
v 0.00219721 0.02908411 0.00674128
v 0.00219721 0.02875460 0.00705184
v 0.00152275 0.02861509 0.00733134
v 0.00094146 0.02812614 0.00773507
v 0.00170099 0.02884429 0.00712637
v 0.00031359 0.02818726 0.00775991
v -0.00157004 0.02670181 0.00795867
v -0.00202170 0.02634241 0.00782823
v -0.00140193 0.02773419 0.00783444
v -0.00159434 0.02734621 0.00787793
v -0.00031429 0.02818726 0.00775991
v -0.00094216 0.02812614 0.00773507
v -0.00345366 0.02629591 0.00725681
v -0.00403292 0.02625405 0.00684687
v -0.00473169 0.02619891 0.00625681
v -0.00538387 0.02618828 0.00564812
v -0.00470941 0.02605475 0.00559843
v -0.00933340 0.02325924 -0.01677414
v -0.00917137 0.02325924 -0.01663750
v -0.00878249 0.02952257 -0.02642006
v -0.00878452 0.02952323 -0.02516541
v -0.00878452 0.02952390 -0.02453808
v -0.00878452 0.02952390 -0.02391076
v -0.00878452 0.02952323 -0.02014680
v -0.00846653 0.02967869 -0.01951947
v -0.00843817 0.02966407 -0.01889214
v -0.00596516 0.02979162 0.00057361
v -0.00533728 0.02995106 0.00120093
v -0.00470941 0.03001484 0.00182826
v -0.00408153 0.03003543 0.00246180
v -0.00345366 0.03003942 0.00308912
v -0.00219791 0.03004540 0.00371645
v 0.00031359 0.03004540 0.00434378
v 0.00094146 0.03004473 0.00434378
v -0.01034610 0.02325924 -0.02077412
v -0.01034407 0.02607402 -0.01951947
v -0.01033192 0.02670181 -0.01951947
v -0.01026103 0.02732961 -0.01951947
v -0.01012533 0.02784513 -0.01951947
v -0.00973038 0.02858586 -0.02579274
v -0.00999773 0.02815936 -0.01951947
v -0.00973240 0.02858586 -0.02328964
v -0.00946505 0.02894726 -0.02705360
v -0.00946708 0.02895058 -0.02391076
v -0.00910453 0.02925551 -0.02705360
v 0.00031359 0.03002414 0.00497110
v 0.00031359 0.02992050 0.00559843
v 0.00094146 0.02989725 0.00559843
v 0.00094146 0.02966739 0.00618849
v 0.00156934 0.02964215 0.00613259
v 0.00156934 0.02946676 0.00644315
v 0.00152275 0.02910670 0.00689035
v 0.00128173 0.02890673 0.00717606
v 0.00094146 0.02858586 0.00744314
v 0.00031359 0.02858586 0.00749904
v -0.00198727 0.02714824 0.00782202
v -0.00206423 0.02670181 0.00784066
v -0.00238020 0.02670181 0.00775370
v -0.00282578 0.02670181 0.00759221
v -0.00379190 0.02636898 0.00718228
v -0.00159434 0.02794943 0.00769159
v -0.00219791 0.02795740 0.00753631
v -0.00182119 0.02756677 0.00777855
v -0.00031429 0.02858586 0.00749904
v -0.00094216 0.02858586 0.00744314
v -0.00152345 0.02861509 0.00733134
v -0.00453725 0.02629458 0.00663569
v -0.00520563 0.02627730 0.00607048
v -0.00581730 0.02627730 0.00546800
v -0.00600161 0.02619028 0.00500837
v -0.00596516 0.02605675 0.00434378
v -0.00533728 0.02605475 0.00497110
v -0.00946910 0.02325924 -0.01692321
v -0.00910453 0.02925684 -0.02642006
v -0.00910453 0.02926082 -0.02391076
v -0.00910453 0.02925617 -0.02014680
v -0.00910453 0.02925418 -0.01951947
v -0.00878046 0.02952124 -0.01951947
v -0.00875211 0.02950596 -0.01889214
v -0.00639657 0.02959830 0.00057361
v -0.00596516 0.02975243 0.00120093
v -0.00533728 0.02990722 0.00182826
v -0.00470941 0.02997963 0.00246180
v -0.00408153 0.03000687 0.00308912
v -0.00345366 0.03001085 0.00371645
v -0.00282578 0.03003875 0.00371645
v -0.00157004 0.03004008 0.00434378
v -0.00094216 0.03004473 0.00434378
v -0.00031429 0.03004540 0.00434378
v -0.01034407 0.02325924 -0.01951947
v -0.01031774 0.02607402 -0.01889214
v -0.01030559 0.02670181 -0.01889214
v -0.01023470 0.02732961 -0.01889214
v -0.01011115 0.02780925 -0.01889214
v -0.00998153 0.02812282 -0.01889214
v -0.00969392 0.02858586 -0.01889214
v -0.00972835 0.02858586 -0.01951947
v -0.00973038 0.02858586 -0.02077412
v -0.00946708 0.02894991 -0.02328964
v -0.00031429 0.03002414 0.00497110
v -0.00031429 0.02992050 0.00559843
v 0.00031764 0.02965477 0.00628166
v 0.00053031 0.02952257 0.00653010
v 0.00094146 0.02950663 0.00650526
v 0.00094146 0.02892799 0.00719470
v 0.00094146 0.02922096 0.00685308
v 0.00031359 0.02895855 0.00722575
v -0.00219791 0.02734621 0.00772886
v -0.00282578 0.02732961 0.00752389
v -0.00377570 0.02704062 0.00717606
v -0.00345366 0.02670181 0.00733755
v -0.00379190 0.02670181 0.00718228
v -0.00410584 0.02670181 0.00698973
v -0.00459599 0.02670181 0.00667917
v -0.00490992 0.02670181 0.00645557
v -0.00219791 0.02844037 0.00728165
v -0.00263135 0.02834338 0.00721954
v -0.00283591 0.02797401 0.00731271
v -0.00031429 0.02895855 0.00722575
v -0.00094216 0.02892799 0.00719470
v -0.00128243 0.02890673 0.00717606
v -0.00170169 0.02884429 0.00712637
v -0.00529070 0.02670181 0.00613880
v -0.00560464 0.02670181 0.00586551
v -0.00589629 0.02670181 0.00555495
v -0.00640669 0.02627996 0.00482204
v -0.00660721 0.02622216 0.00432514
v -0.00659303 0.02609528 0.00371645
v -0.00960683 0.02325924 -0.01708470
v -0.00946505 0.02894726 -0.02077412
v -0.00946302 0.02894593 -0.01951947
v -0.00944480 0.02892733 -0.01889214
v -0.00910453 0.02921963 -0.01889214
v -0.00671050 0.02938771 0.00057361
v -0.00635201 0.02957306 0.00120093
v -0.00630745 0.02954516 0.00162950
v -0.00600972 0.02965743 0.00183447
v -0.00533728 0.02983414 0.00246180
v -0.00470941 0.02990988 0.00308912
v -0.00408153 0.02993645 0.00371645
v -0.00345366 0.02992914 0.00434378
v -0.00282578 0.03000022 0.00434378
v -0.00219791 0.03003078 0.00434378
v -0.00094216 0.03001550 0.00497110
v -0.01031774 0.02325924 -0.01889214
v -0.00807157 0.02670181 0.00057361
v -0.00794600 0.02732961 0.00120093
v -0.00775561 0.02795740 0.00120093
v -0.00757940 0.02834404 0.00120093
v -0.00761586 0.02839985 0.00057361
v -0.00942454 0.02890607 -0.01856295
v -0.00739712 0.02871408 0.00057361
v -0.00157004 0.02999424 0.00497110
v -0.00094216 0.02989725 0.00559843
v -0.00031834 0.02965477 0.00628166
v 0.00011105 0.02953320 0.00654874
v 0.00031764 0.02932061 0.00679718
v -0.00326327 0.02777604 0.00722575
v -0.00368253 0.02745915 0.00712637
v -0.00346581 0.02728178 0.00726302
v -0.00402280 0.02728178 0.00697110
v -0.00453522 0.02732961 0.00663569
v -0.00484916 0.02732961 0.00641209
v -0.00523601 0.02732961 0.00609532
v -0.00219791 0.02875460 0.00705184
v -0.00305060 0.02819457 0.00713258
v -0.00283591 0.02856593 0.00696489
v -0.00011175 0.02953320 0.00654874
v -0.00031834 0.02932061 0.00679718
v -0.00094216 0.02922096 0.00685308
v -0.00152345 0.02910670 0.00689035
v -0.00219791 0.02908411 0.00674128
v -0.00555197 0.02732961 0.00582203
v -0.00585376 0.02732961 0.00550526
v -0.00621023 0.02670181 0.00520713
v -0.00646341 0.02670181 0.00489036
v -0.00695558 0.02633111 0.00410775
v -0.00705280 0.02626202 0.00371645
v -0.00999976 0.02325924 -0.01771203
v -0.00992077 0.02325924 -0.01756296
v -0.00975873 0.02325924 -0.01731451
v -0.00704470 0.02903628 0.00120093
v -0.00708318 0.02907414 0.00057361
v -0.00666595 0.02935051 0.00120093
v -0.00625074 0.02951127 0.00205186
v -0.00585781 0.02963086 0.00246180
v -0.00574641 0.02957904 0.00295248
v -0.00538792 0.02968334 0.00313260
v -0.00470941 0.02978565 0.00371645
v -0.00408153 0.02980093 0.00434378
v -0.00345366 0.02976439 0.00497110
v -0.00282578 0.02988596 0.00497110
v -0.00219791 0.02995704 0.00497110
v -0.01020432 0.02325924 -0.01826482
v -0.00763611 0.02627598 0.00246180
v -0.00799866 0.02670181 0.00120093
v -0.00788929 0.02670181 0.00182826
v -0.00782650 0.02732961 0.00182826
v -0.00763611 0.02797334 0.00180342
v -0.00754902 0.02829488 0.00157981
v -0.00735863 0.02865827 0.00120093
v -0.00157004 0.02985540 0.00559843
v -0.00094216 0.02966739 0.00618849
v -0.00053100 0.02952257 0.00653010
v -0.00346581 0.02797401 0.00703942
v -0.00408558 0.02794943 0.00670402
v -0.00445623 0.02773485 0.00657979
v -0.00513677 0.02782719 0.00600837
v -0.00282578 0.02898047 0.00662948
v -0.00340707 0.02857722 0.00669159
v -0.00387899 0.02836198 0.00661085
v -0.00316605 0.02891338 0.00655495
v -0.00094216 0.02950663 0.00650526
v -0.00157004 0.02946676 0.00644315
v -0.00219791 0.02939768 0.00634998
v -0.00576059 0.02784845 0.00540589
v -0.00616770 0.02732961 0.00515123
v -0.00642087 0.02732961 0.00484067
v -0.00677734 0.02670181 0.00444937
v -0.00697381 0.02670181 0.00413881
v -0.00719457 0.02670181 0.00371645
v -0.00756927 0.02634241 0.00285931
v -0.01008280 0.02325924 -0.01787352
v -0.00697988 0.02897250 0.00182826
v -0.00654645 0.02932526 0.00183447
v -0.00693127 0.02892334 0.00220714
v -0.00662139 0.02911135 0.00243074
v -0.00617175 0.02946012 0.00246180
v -0.00595908 0.02938372 0.00313260
v -0.00563097 0.02951725 0.00336863
v -0.00519955 0.02960760 0.00371645
v -0.00506993 0.02954981 0.00408291
v -0.00468915 0.02961757 0.00431272
v -0.00446636 0.02955778 0.00472266
v -0.00404103 0.02961093 0.00494626
v -0.00380405 0.02954250 0.00531272
v -0.00345366 0.02959299 0.00541831
v -0.00282173 0.02965278 0.00562949
v -0.00219791 0.02978099 0.00559843
v -0.00772523 0.02670181 0.00246180
v -0.00763814 0.02734555 0.00249285
v -0.00758750 0.02777471 0.00230652
v -0.00750041 0.02819324 0.00199596
v -0.00732015 0.02853670 0.00180342
v -0.00157004 0.02964215 0.00613259
v -0.00429825 0.02815404 0.00648041
v -0.00472966 0.02799062 0.00624439
v -0.00500512 0.02824572 0.00589657
v -0.00539197 0.02804709 0.00564812
v -0.00282173 0.02932327 0.00618849
v -0.00358531 0.02878051 0.00643694
v -0.00411799 0.02861642 0.00625060
v -0.00458586 0.02845233 0.00606427
v -0.00303035 0.02949799 0.00585930
v -0.00340707 0.02907082 0.00622576
v -0.00393570 0.02899177 0.00602079
v -0.00219791 0.02959565 0.00603321
v -0.00261109 0.02955246 0.00595247
v -0.00564919 0.02826764 0.00528166
v -0.00600364 0.02803181 0.00501458
v -0.00634998 0.02779597 0.00474750
v -0.00690089 0.02761527 0.00402080
v -0.00676519 0.02737545 0.00431893
v -0.00694748 0.02719608 0.00409533
v -0.00708318 0.02737545 0.00377235
v -0.00742750 0.02734555 0.00306428
v -0.00756117 0.02714692 0.00283447
v -0.00744167 0.02670181 0.00319471
v -0.00758143 0.02670181 0.00288416
v -0.00708520 0.02860645 0.00243074
v -0.00684823 0.02882967 0.00262329
v -0.00643505 0.02904093 0.00308912
v -0.00633783 0.02895257 0.00349906
v -0.00598744 0.02912198 0.00371024
v -0.00551349 0.02945149 0.00371645
v -0.00535146 0.02923823 0.00436241
v -0.00488359 0.02945879 0.00450527
v -0.00468915 0.02931463 0.00494626
v -0.00422331 0.02945016 0.00513880
v -0.00407951 0.02922096 0.00559843
v -0.00345366 0.02941760 0.00573508
v -0.00751864 0.02756544 0.00272267
v -0.00743762 0.02797334 0.00249285
v -0.00692115 0.02829355 0.00343074
v -0.00699204 0.02839254 0.00308912
v -0.00476207 0.02863103 0.00575992
v -0.00502537 0.02890075 0.00528787
v -0.00517930 0.02858586 0.00543073
v -0.00435496 0.02887086 0.00588414
v -0.00551349 0.02863901 0.00503322
v -0.00563502 0.02888348 0.00463570
v -0.00582743 0.02846495 0.00486551
v -0.00624669 0.02821516 0.00461086
v -0.00650391 0.02798663 0.00437483
v -0.00682190 0.02795740 0.00388415
v -0.00699811 0.02795740 0.00356738
v -0.00674899 0.02870677 0.00308912
v -0.00656873 0.02855796 0.00367297
v -0.00621023 0.02882236 0.00391521
v -0.00579097 0.02901768 0.00421956
v -0.00516917 0.02900572 0.00497110
v -0.00470941 0.02899974 0.00541831
v -0.00721685 0.02795740 0.00308912
v -0.00638036 0.02840317 0.00419471
v -0.00601782 0.02864366 0.00441210
f 1 2 3
f 1 3 11
f 1 11 4
f 1 4 5
f 1 5 13
f 1 13 6
f 1 6 7
f 1 7 8
f 1 8 2
f 2 8 9
f 2 9 10
f 2 10 3
f 3 10 21
f 3 21 11
f 4 11 12
f 4 12 5
f 5 12 13
f 6 13 25
f 6 25 41
f 6 41 71
f 6 71 103
f 6 103 147
f 6 147 193
f 6 193 241
f 6 241 290
f 6 290 346
f 6 346 387
f 6 387 389
f 6 389 436
f 6 436 488
f 6 488 538
f 6 538 537
f 6 537 592
f 6 592 648
f 6 648 700
f 6 700 699
f 6 699 698
f 6 698 742
f 6 742 713
f 6 713 664
f 6 664 609
f 6 609 554
f 6 554 504
f 6 504 499
f 6 499 452
f 6 452 406
f 6 406 404
f 6 404 403
f 6 403 402
f 6 402 439
f 6 439 438
f 6 438 437
f 6 437 390
f 6 390 349
f 6 349 301
f 6 301 300
f 6 300 299
f 6 299 306
f 6 306 305
f 6 305 304
f 6 304 348
f 6 348 296
f 6 296 295
f 6 295 294
f 6 294 247
f 6 247 293
f 6 293 292
f 6 292 245
f 6 245 244
f 6 244 242
f 6 242 194
f 6 194 154
f 6 154 153
f 6 153 152
f 6 152 151
f 6 151 150
f 6 150 149
f 6 149 148
f 6 148 113
f 6 113 112
f 6 112 111
f 6 111 110
f 6 110 109
f 6 109 108
f 6 108 107
f 6 107 106
f 6 106 105
f 6 105 104
f 6 104 72
f 6 72 47
f 6 47 46
f 6 46 45
f 6 45 44
f 6 44 43
f 6 43 42
f 6 42 28
f 6 28 26
f 6 26 14
f 6 14 7
f 7 14 8
f 8 14 15
f 8 15 16
f 8 16 9
f 9 16 17
f 9 17 18
f 9 18 19
f 9 19 10
f 10 19 20
f 10 20 21
f 11 21 22
f 11 22 12
f 12 22 23
f 12 23 13
f 13 23 24
f 13 24 25
f 14 26 15
f 15 27 16
f 15 26 28
f 15 28 27
f 16 27 29
f 16 29 30
f 16 30 17
f 17 30 31
f 17 31 32
f 17 32 18
f 18 32 33
f 18 33 19
f 19 33 20
f 20 33 34
f 20 34 35
f 20 35 22
f 20 22 21
f 22 35 36
f 22 36 37
f 22 37 38
f 22 38 23
f 23 38 24
f 24 38 39
f 24 39 40
f 24 40 41
f 24 41 25
f 27 28 42
f 27 42 43
f 27 43 44
f 27 44 45
f 27 45 46
f 27 46 47
f 27 47 48
f 27 48 49
f 27 49 29
f 29 49 50
f 29 50 30
f 30 50 51
f 30 51 31
f 31 52 53
f 31 53 32
f 31 51 54
f 31 54 52
f 32 53 55
f 32 55 56
f 32 56 33
f 33 56 57
f 33 57 58
f 33 58 34
f 34 58 59
f 34 59 35
f 35 59 60
f 35 60 36
f 36 60 61
f 36 61 62
f 36 62 37
f 37 62 63
f 37 63 64
f 37 64 38
f 38 64 39
f 39 65 66
f 39 66 67
f 39 67 68
f 39 68 40
f 39 64 65
f 40 68 69
f 40 69 70
f 40 70 71
f 40 71 41
f 47 72 48
f 48 72 73
f 48 73 49
f 49 73 74
f 49 74 50
f 50 74 75
f 50 75 51
f 51 75 76
f 51 76 54
f 52 54 77
f 52 77 78
f 52 78 53
f 53 78 79
f 53 79 80
f 53 80 55
f 54 76 81
f 54 81 77
f 55 80 56
f 56 82 83
f 56 83 57
f 56 80 82
f 57 83 84
f 57 84 58
f 58 84 85
f 58 85 86
f 58 86 59
f 59 86 85
f 59 85 87
f 59 87 60
f 60 87 88
f 60 88 61
f 61 89 90
f 61 90 91
f 61 91 62
f 61 88 89
f 62 91 92
f 62 92 63
f 63 92 93
f 63 93 64
f 64 93 65
f 65 93 66
f 66 93 94
f 66 94 95
f 66 95 67
f 67 95 96
f 67 96 97
f 67 97 68
f 68 97 98
f 68 98 99
f 68 99 100
f 68 100 69
f 69 100 101
f 69 101 70
f 70 101 102
f 70 102 103
f 70 103 71
f 72 104 73
f 73 104 105
f 73 105 106
f 73 106 107
f 73 107 108
f 73 108 109
f 73 109 110
f 73 110 111
f 73 111 112
f 73 112 113
f 73 113 114
f 73 114 115
f 73 115 74
f 74 115 116
f 74 116 75
f 75 116 117
f 75 117 76
f 76 118 81
f 76 117 118
f 77 119 120
f 77 120 78
f 77 81 121
f 77 121 119
f 78 120 122
f 78 122 79
f 79 122 123
f 79 123 80
f 80 123 124
f 80 124 82
f 81 118 125
f 81 125 126
f 81 126 121
f 82 124 127
f 82 127 83
f 83 128 84
f 83 127 124
f 83 124 128
f 84 128 129
f 84 129 130
f 84 130 131
f 84 131 85
f 85 131 87
f 87 131 132
f 87 132 88
f 88 132 133
f 88 133 89
f 89 133 134
f 89 134 90
f 90 134 135
f 90 135 136
f 90 136 91
f 91 136 137
f 91 137 92
f 92 137 138
f 92 138 139
f 92 139 94
f 92 94 93
f 94 139 95
f 95 139 96
f 96 139 140
f 96 140 141
f 96 141 98
f 96 98 97
f 98 141 99
f 99 141 142
f 99 142 100
f 100 142 143
f 100 143 144
f 100 144 101
f 101 144 145
f 101 145 102
f 102 145 146
f 102 146 147
f 102 147 103
f 113 148 114
f 114 148 149
f 114 149 150
f 114 150 151
f 114 151 152
f 114 152 153
f 114 153 154
f 114 154 155
f 114 155 156
f 114 156 157
f 114 157 158
f 114 158 115
f 115 159 116
f 115 158 159
f 116 159 160
f 116 160 117
f 117 161 162
f 117 162 118
f 117 160 161
f 118 162 125
f 119 121 126
f 119 126 163
f 119 163 164
f 119 164 210
f 119 210 165
f 119 165 122
f 119 122 120
f 122 165 166
f 122 166 123
f 123 167 124
f 123 166 167
f 124 167 168
f 124 168 128
f 125 162 169
f 125 169 126
f 126 169 170
f 126 170 163
f 128 171 129
f 128 168 171
f 129 171 172
f 129 172 173
f 129 173 130
f 130 173 131
f 131 173 174
f 131 174 132
f 132 174 175
f 132 175 133
f 133 176 177
f 133 177 178
f 133 178 134
f 133 175 176
f 134 178 179
f 134 179 135
f 135 179 136
f 136 179 180
f 136 180 181
f 136 181 182
f 136 182 183
f 136 183 184
f 136 184 138
f 136 138 137
f 138 184 139
f 139 184 183
f 139 183 185
f 139 185 140
f 140 185 141
f 141 185 186
f 141 186 142
f 142 186 187
f 142 187 143
f 143 187 188
f 143 188 144
f 144 188 189
f 144 189 145
f 145 189 190
f 145 190 191
f 145 191 192
f 145 192 146
f 146 192 147
f 147 192 191
f 147 191 193
f 154 194 155
f 155 194 156
f 156 195 157
f 156 194 196
f 156 196 197
f 156 197 198
f 156 198 195
f 157 195 158
f 158 195 198
f 158 198 199
f 158 199 160
f 158 160 159
f 160 199 200
f 160 200 201
f 160 201 202
f 160 202 203
f 160 203 162
f 160 162 161
f 162 203 204
f 162 204 205
f 162 205 206
f 162 206 169
f 163 207 208
f 163 208 164
f 163 170 207
f 164 208 209
f 164 209 210
f 165 210 166
f 166 210 211
f 166 211 212
f 166 212 167
f 167 212 213
f 167 213 168
f 168 213 216
f 168 216 171
f 169 206 214
f 169 214 170
f 170 214 215
f 170 215 207
f 171 216 217
f 171 217 172
f 172 217 218
f 172 218 173
f 173 218 219
f 173 219 174
f 174 219 220
f 174 220 176
f 174 176 175
f 176 221 222
f 176 222 223
f 176 223 177
f 176 220 224
f 176 224 221
f 177 223 178
f 178 225 179
f 178 223 225
f 179 225 226
f 179 226 227
f 179 227 228
f 179 228 180
f 180 228 181
f 181 228 229
f 181 229 182
f 182 229 230
f 182 230 231
f 182 231 232
f 182 232 233
f 182 233 185
f 182 185 183
f 185 233 234
f 185 234 186
f 186 234 187
f 187 234 235
f 187 235 188
f 188 235 282
f 188 282 236
f 188 236 189
f 189 236 237
f 189 237 190
f 190 237 238
f 190 238 239
f 190 239 191
f 191 239 240
f 191 240 193
f 193 240 241
f 194 242 196
f 196 242 244
f 196 244 197
f 197 243 199
f 197 199 198
f 197 244 245
f 197 245 243
f 199 243 200
f 200 243 246
f 200 246 247
f 200 247 248
f 200 248 249
f 200 249 250
f 200 250 251
f 200 251 201
f 201 251 202
f 202 251 252
f 202 252 253
f 202 253 254
f 202 254 204
f 202 204 203
f 204 254 205
f 205 254 255
f 205 255 256
f 205 256 206
f 206 256 214
f 207 257 208
f 207 215 258
f 207 258 257
f 208 259 209
f 208 257 259
f 209 211 210
f 209 259 260
f 209 260 261
f 209 261 212
f 209 212 211
f 212 261 262
f 212 262 213
f 213 263 216
f 213 262 263
f 214 256 264
f 214 264 265
f 214 265 266
f 214 266 215
f 215 266 267
f 215 267 258
f 216 263 217
f 217 263 268
f 217 268 218
f 218 268 269
f 218 269 219
f 219 269 220
f 220 269 224
f 221 224 270
f 221 270 222
f 222 271 272
f 222 272 225
f 222 225 223
f 222 270 271
f 224 269 270
f 225 272 226
f 226 273 227
f 226 272 273
f 227 273 274
f 227 274 230
f 227 230 228
f 228 230 229
f 230 274 275
f 230 275 276
f 230 276 277
f 230 277 232
f 230 232 231
f 232 276 278
f 232 278 279
f 232 279 280
f 232 280 234
f 232 234 233
f 232 277 276
f 234 280 281
f 234 281 235
f 235 281 282
f 236 282 283
f 236 283 237
f 237 283 284
f 237 284 285
f 237 285 286
f 237 286 238
f 238 286 239
f 239 286 287
f 239 287 288
f 239 288 240
f 240 288 289
f 240 289 241
f 241 289 291
f 241 291 290
f 243 245 292
f 243 292 246
f 246 292 293
f 246 293 247
f 247 294 249
f 247 249 248
f 249 294 295
f 249 295 250
f 250 295 296
f 250 296 297
f 250 297 251
f 251 297 252
f 252 297 253
f 253 297 298
f 253 298 254
f 254 299 300
f 254 300 301
f 254 301 302
f 254 302 303
f 254 303 255
f 254 298 304
f 254 304 305
f 254 305 306
f 254 306 299
f 255 264 256
f 255 303 307
f 255 307 350
f 255 350 308
f 255 308 265
f 255 265 264
f 257 309 259
f 257 258 267
f 257 267 309
f 259 310 311
f 259 311 260
f 259 309 310
f 260 311 312
f 260 312 261
f 261 312 313
f 261 313 262
f 262 313 314
f 262 314 263
f 263 314 315
f 263 315 316
f 263 316 268
f 265 308 266
f 266 308 317
f 266 317 267
f 267 317 318
f 267 318 319
f 267 319 320
f 267 320 309
f 268 316 269
f 269 316 321
f 269 321 270
f 270 321 322
f 270 322 323
f 270 323 271
f 271 323 324
f 271 324 272
f 272 324 325
f 272 325 273
f 273 325 274
f 274 326 275
f 274 325 326
f 275 326 327
f 275 327 276
f 276 328 329
f 276 329 330
f 276 330 279
f 276 279 278
f 276 327 328
f 279 330 331
f 279 331 332
f 279 332 333
f 279 333 281
f 279 281 280
f 281 333 334
f 281 334 335
f 281 335 282
f 282 335 283
f 283 335 337
f 283 337 284
f 284 336 285
f 284 337 338
f 284 338 336
f 285 339 340
f 285 340 341
f 285 341 342
f 285 342 286
f 285 336 339
f 286 342 287
f 287 342 343
f 287 343 288
f 288 343 344
f 288 344 289
f 289 344 345
f 289 345 291
f 290 291 347
f 290 347 346
f 291 345 386
f 291 386 347
f 296 348 297
f 297 348 298
f 298 348 304
f 301 349 350
f 301 350 307
f 301 307 302
f 302 307 303
f 308 350 351
f 308 351 317
f 309 352 353
f 309 353 310
f 309 320 352
f 310 353 354
f 310 354 311
f 311 354 398
f 311 398 448
f 311 448 497
f 311 497 551
f 311 551 608
f 311 608 552
f 311 552 498
f 311 498 449
f 311 449 399
f 311 399 355
f 311 355 313
f 311 313 312
f 313 355 314
f 314 355 356
f 314 356 357
f 314 357 315
f 315 357 358
f 315 358 316
f 316 358 359
f 316 359 321
f 317 351 360
f 317 360 361
f 317 361 318
f 318 361 362
f 318 362 319
f 319 362 363
f 319 363 320
f 320 363 364
f 320 364 352
f 321 359 322
f 322 365 366
f 322 366 323
f 322 359 365
f 323 366 367
f 323 367 368
f 323 368 325
f 323 325 324
f 325 368 369
f 325 369 326
f 326 369 327
f 327 370 328
f 327 369 370
f 328 371 329
f 328 370 371
f 329 372 373
f 329 373 374
f 329 374 331
f 329 331 330
f 329 371 372
f 331 374 375
f 331 375 332
f 332 375 376
f 332 376 334
f 332 334 333
f 334 376 377
f 334 377 378
f 334 378 337
f 334 337 335
f 336 338 339
f 337 378 338
f 338 379 380
f 338 380 341
f 338 341 340
f 338 340 339
f 338 378 377
f 338 377 379
f 341 381 342
f 341 380 381
f 342 381 382
f 342 382 383
f 342 383 384
f 342 384 343
f 343 384 344
f 344 384 385
f 344 385 345
f 345 385 386
f 346 347 387
f 347 386 388
f 347 388 389
f 347 389 387
f 349 390 391
f 349 391 350
f 350 391 392
f 350 392 351
f 351 392 393
f 351 393 360
f 352 394 395
f 352 395 353
f 352 364 394
f 353 395 396
f 353 396 354
f 354 396 397
f 354 397 398
f 355 399 356
f 356 399 400
f 356 400 357
f 357 400 401
f 357 401 358
f 358 401 365
f 358 365 359
f 360 393 361
f 361 402 403
f 361 403 404
f 361 404 362
f 361 393 402
f 362 405 363
f 362 404 406
f 362 406 452
f 362 452 405
f 363 405 407
f 363 407 364
f 364 407 408
f 364 408 409
f 364 409 410
f 364 410 411
f 364 411 394
f 365 412 366
f 365 401 450
f 365 450 412
f 366 412 413
f 366 413 367
f 367 413 414
f 367 414 415
f 367 415 369
f 367 369 368
f 369 415 416
f 369 416 370
f 370 416 371
f 371 416 417
f 371 417 372
f 372 417 418
f 372 418 419
f 372 419 373
f 373 419 375
f 373 375 374
f 375 420 376
f 375 419 421
f 375 421 422
f 375 422 420
f 376 420 377
f 377 420 423
f 377 423 379
f 379 423 380
f 380 423 424
f 380 424 425
f 380 425 426
f 380 426 381
f 381 426 427
f 381 427 382
f 382 427 383
f 383 427 428
f 383 428 429
f 383 429 384
f 384 429 431
f 384 431 385
f 385 430 386
f 385 431 432
f 385 432 430
f 386 430 433
f 386 433 388
f 388 433 434
f 388 434 435
f 388 435 389
f 389 435 436
f 390 437 391
f 391 437 392
f 392 437 438
f 392 438 393
f 393 438 439
f 393 439 402
f 394 411 440
f 394 440 395
f 395 440 441
f 395 441 396
f 396 441 442
f 396 442 443
f 396 443 444
f 396 444 397
f 397 444 445
f 397 445 446
f 397 446 398
f 398 446 447
f 398 447 448
f 399 449 400
f 400 449 450
f 400 450 401
f 405 451 407
f 405 452 499
f 405 499 451
f 407 451 453
f 407 453 408
f 408 453 454
f 408 454 455
f 408 455 456
f 408 456 457
f 408 457 458
f 408 458 459
f 408 459 460
f 408 460 461
f 408 461 409
f 409 461 410
f 410 461 462
f 410 462 440
f 410 440 411
f 412 450 463
f 412 463 464
f 412 464 465
f 412 465 413
f 413 465 514
f 413 514 466
f 413 466 414
f 414 466 467
f 414 467 468
f 414 468 416
f 414 416 415
f 416 468 469
f 416 469 417
f 417 469 418
f 418 469 419
f 419 470 471
f 419 471 421
f 419 469 472
f 419 472 470
f 420 422 423
f 421 471 473
f 421 473 422
f 422 473 424
f 422 424 423
f 424 473 425
f 425 474 475
f 425 475 476
f 425 476 426
f 425 473 477
f 425 477 474
f 426 476 427
f 427 476 428
f 428 476 475
f 428 475 429
f 429 475 478
f 429 478 431
f 430 479 433
f 430 432 479
f 431 478 480
f 431 480 482
f 431 482 432
f 432 481 479
f 432 482 483
f 432 483 481
f 433 479 484
f 433 484 434
f 434 484 485
f 434 485 486
f 434 486 435
f 435 486 487
f 435 487 488
f 435 488 436
f 440 462 489
f 440 489 441
f 441 489 490
f 441 490 442
f 442 490 443
f 443 490 491
f 443 491 444
f 444 491 445
f 445 491 492
f 445 492 493
f 445 493 446
f 446 493 494
f 446 494 495
f 446 495 447
f 447 495 496
f 447 496 448
f 448 496 497
f 449 498 450
f 450 498 463
f 451 499 504
f 451 504 453
f 453 500 555
f 453 555 501
f 453 501 502
f 453 502 503
f 453 503 454
f 453 504 554
f 453 554 500
f 454 503 455
f 455 503 505
f 455 505 506
f 455 506 456
f 456 506 507
f 456 507 457
f 457 507 458
f 458 460 459
f 458 507 508
f 458 508 509
f 458 509 460
f 460 509 510
f 460 510 461
f 461 510 462
f 462 510 489
f 463 498 511
f 463 511 464
f 464 511 512
f 464 512 513
f 464 513 465
f 465 513 514
f 466 514 515
f 466 515 516
f 466 516 467
f 467 517 518
f 467 518 469
f 467 469 468
f 467 516 517
f 469 518 519
f 469 519 472
f 470 519 520
f 470 520 521
f 470 521 471
f 470 472 519
f 471 521 473
f 473 521 477
f 474 477 522
f 474 522 523
f 474 523 475
f 475 523 478
f 477 521 524
f 477 524 522
f 478 523 525
f 478 525 480
f 479 481 526
f 479 526 527
f 479 527 484
f 480 525 530
f 480 530 482
f 481 483 528
f 481 528 529
f 481 529 526
f 482 530 531
f 482 531 483
f 483 531 528
f 484 527 485
f 485 532 486
f 485 527 532
f 486 533 534
f 486 534 487
f 486 532 533
f 487 535 536
f 487 536 537
f 487 537 538
f 487 538 488
f 487 534 535
f 489 510 539
f 489 539 540
f 489 540 490
f 490 540 541
f 490 541 491
f 491 541 542
f 491 542 543
f 491 543 492
f 492 543 544
f 492 544 493
f 493 544 545
f 493 545 546
f 493 546 547
f 493 547 494
f 494 547 548
f 494 548 495
f 495 548 549
f 495 549 496
f 496 549 550
f 496 550 497
f 497 550 551
f 498 552 553
f 498 553 511
f 500 554 609
f 500 609 555
f 501 555 556
f 501 556 502
f 502 556 557
f 502 557 503
f 503 557 558
f 503 558 505
f 505 558 560
f 505 560 506
f 506 559 507
f 506 560 561
f 506 561 559
f 507 562 508
f 507 559 563
f 507 563 562
f 508 562 509
f 509 562 564
f 509 564 539
f 509 539 510
f 511 553 565
f 511 565 512
f 512 565 566
f 512 566 513
f 513 566 567
f 513 567 514
f 514 567 515
f 515 567 568
f 515 568 569
f 515 569 516
f 516 569 517
f 517 569 570
f 517 570 519
f 517 519 518
f 519 570 520
f 520 571 572
f 520 572 524
f 520 524 521
f 520 570 571
f 522 573 523
f 522 524 572
f 522 572 573
f 523 573 525
f 525 573 574
f 525 574 583
f 525 583 530
f 526 529 575
f 526 575 576
f 526 576 527
f 527 576 577
f 527 577 578
f 527 578 579
f 527 579 532
f 528 531 580
f 528 580 581
f 528 581 582
f 528 582 529
f 529 582 575
f 530 583 584
f 530 584 531
f 531 584 585
f 531 585 580
f 532 579 586
f 532 586 533
f 533 586 534
f 534 586 587
f 534 587 535
f 535 587 588
f 535 588 589
f 535 589 590
f 535 590 591
f 535 591 536
f 536 591 537
f 537 591 590
f 537 590 592
f 539 593 540
f 539 564 593
f 540 593 594
f 540 594 541
f 541 594 542
f 542 594 543
f 543 595 596
f 543 596 597
f 543 597 544
f 543 594 595
f 544 597 545
f 545 597 598
f 545 598 599
f 545 599 546
f 546 599 600
f 546 600 547
f 547 600 601
f 547 601 602
f 547 602 548
f 548 602 603
f 548 603 549
f 549 603 604
f 549 604 550
f 550 604 605
f 550 605 551
f 551 605 606
f 551 606 607
f 551 607 608
f 552 608 619
f 552 619 565
f 552 565 553
f 555 609 664
f 555 664 610
f 555 610 611
f 555 611 556
f 556 611 612
f 556 612 557
f 557 612 613
f 557 613 558
f 558 613 560
f 559 561 563
f 560 613 614
f 560 614 615
f 560 615 616
f 560 616 617
f 560 617 561
f 561 617 618
f 561 618 563
f 562 593 564
f 562 563 593
f 563 618 594
f 563 594 593
f 565 619 620
f 565 620 566
f 566 620 674
f 566 674 621
f 566 621 567
f 567 621 568
f 568 621 622
f 568 622 623
f 568 623 569
f 569 623 570
f 570 623 571
f 571 623 625
f 571 625 572
f 572 624 573
f 572 625 624
f 573 624 574
f 574 624 626
f 574 626 638
f 574 638 583
f 575 582 627
f 575 627 577
f 575 577 576
f 577 627 628
f 577 628 578
f 578 628 629
f 578 629 630
f 578 630 579
f 579 630 631
f 579 631 632
f 579 632 633
f 579 633 634
f 579 634 586
f 580 585 635
f 580 635 581
f 581 627 582
f 581 635 636
f 581 636 637
f 581 637 628
f 581 628 627
f 583 638 639
f 583 639 584
f 584 639 640
f 584 640 585
f 585 640 641
f 585 641 635
f 586 634 642
f 586 642 587
f 587 642 643
f 587 643 588
f 588 643 644
f 588 644 645
f 588 645 589
f 589 645 646
f 589 646 647
f 589 647 590
f 590 647 648
f 590 648 592
f 594 618 595
f 595 618 649
f 595 649 650
f 595 650 596
f 596 650 651
f 596 651 652
f 596 652 597
f 597 652 598
f 598 652 653
f 598 653 599
f 599 653 654
f 599 654 600
f 600 654 655
f 600 655 656
f 600 656 657
f 600 657 601
f 601 657 658
f 601 658 602
f 602 658 603
f 603 658 659
f 603 659 604
f 604 659 660
f 604 660 661
f 604 661 662
f 604 662 605
f 605 662 606
f 606 662 663
f 606 663 619
f 606 619 607
f 607 619 608
f 610 665 611
f 610 664 665
f 611 665 666
f 611 666 612
f 612 666 613
f 613 666 667
f 613 667 614
f 614 667 668
f 614 668 669
f 614 669 615
f 615 670 651
f 615 651 616
f 615 669 671
f 615 671 670
f 616 651 650
f 616 650 649
f 616 649 617
f 617 649 618
f 619 663 620
f 620 663 672
f 620 672 673
f 620 673 674
f 621 674 687
f 621 687 675
f 621 675 622
f 622 675 676
f 622 676 625
f 622 625 623
f 624 625 626
f 625 676 626
f 626 676 675
f 626 675 687
f 626 687 638
f 628 637 677
f 628 677 678
f 628 678 679
f 628 679 629
f 629 631 630
f 629 679 678
f 629 678 680
f 629 680 681
f 629 681 633
f 629 633 632
f 629 632 631
f 633 681 682
f 633 682 634
f 634 682 683
f 634 683 642
f 635 641 684
f 635 684 636
f 636 685 637
f 636 684 686
f 636 686 685
f 637 685 677
f 638 687 688
f 638 688 689
f 638 689 639
f 639 689 640
f 640 689 732
f 640 732 690
f 640 690 691
f 640 691 641
f 641 691 684
f 642 683 692
f 642 692 643
f 643 692 693
f 643 693 644
f 644 693 694
f 644 694 645
f 645 694 695
f 645 695 696
f 645 696 646
f 646 696 697
f 646 697 647
f 647 697 698
f 647 698 699
f 647 699 700
f 647 700 648
f 651 670 671
f 651 671 701
f 651 701 702
f 651 702 652
f 652 702 653
f 653 702 701
f 653 701 703
f 653 703 654
f 654 703 655
f 655 704 656
f 655 703 704
f 656 704 705
f 656 705 657
f 657 705 706
f 657 706 707
f 657 707 708
f 657 708 658
f 658 708 659
f 659 708 709
f 659 709 660
f 660 709 710
f 660 710 711
f 660 711 712
f 660 712 661
f 661 712 672
f 661 672 662
f 662 672 663
f 664 713 714
f 664 714 715
f 664 715 665
f 665 715 666
f 666 715 716
f 666 716 717
f 666 717 718
f 666 718 667
f 667 718 719
f 667 719 668
f 668 719 720
f 668 720 671
f 668 671 669
f 671 720 701
f 672 712 673
f 673 721 722
f 673 722 674
f 673 712 721
f 674 723 687
f 674 722 723
f 677 685 724
f 677 724 678
f 678 724 725
f 678 725 726
f 678 726 680
f 680 726 681
f 681 726 682
f 682 726 727
f 682 727 683
f 683 727 692
f 684 691 728
f 684 728 686
f 685 686 729
f 685 729 730
f 685 730 724
f 686 728 731
f 686 731 729
f 687 723 688
f 688 723 689
f 689 723 732
f 690 732 733
f 690 733 691
f 691 733 734
f 691 734 728
f 692 727 735
f 692 735 693
f 693 735 736
f 693 736 694
f 694 736 737
f 694 737 695
f 695 737 738
f 695 738 696
f 696 738 739
f 696 739 740
f 696 740 741
f 696 741 697
f 697 741 714
f 697 714 742
f 697 742 698
f 701 720 743
f 701 743 703
f 703 743 744
f 703 744 704
f 704 745 746
f 704 746 747
f 704 747 706
f 704 706 705
f 704 744 745
f 706 748 749
f 706 749 707
f 706 747 748
f 707 749 750
f 707 750 708
f 708 750 751
f 708 751 752
f 708 752 709
f 709 752 753
f 709 753 754
f 709 754 710
f 710 754 755
f 710 755 756
f 710 756 757
f 710 757 711
f 711 757 758
f 711 758 721
f 711 721 712
f 713 742 714
f 714 741 716
f 714 716 715
f 716 741 759
f 716 759 717
f 717 759 760
f 717 760 761
f 717 761 718
f 718 761 762
f 718 762 719
f 719 762 763
f 719 763 720
f 720 763 743
f 721 758 764
f 721 764 722
f 722 764 732
f 722 732 723
f 724 730 725
f 725 730 765
f 725 765 726
f 726 765 766
f 726 766 727
f 727 767 768
f 727 768 735
f 727 766 767
f 728 734 769
f 728 769 731
f 729 731 730
f 730 731 770
f 730 770 771
f 730 771 772
f 730 772 765
f 731 769 773
f 731 773 774
f 731 774 775
f 731 775 770
f 732 764 733
f 733 764 776
f 733 776 734
f 734 776 777
f 734 777 773
f 734 773 769
f 735 778 779
f 735 779 780
f 735 780 736
f 735 768 778
f 736 780 737
f 737 780 781
f 737 781 782
f 737 782 783
f 737 783 738
f 738 783 739
f 739 783 740
f 740 783 784
f 740 784 785
f 740 785 786
f 740 786 787
f 740 787 741
f 741 787 788
f 741 788 759
f 743 763 745
f 743 745 744
f 745 789 790
f 745 790 791
f 745 791 746
f 745 763 789
f 746 791 747
f 747 791 748
f 748 792 793
f 748 793 749
f 748 791 792
f 749 793 794
f 749 794 751
f 749 751 750
f 751 794 795
f 751 795 796
f 751 796 753
f 751 753 752
f 753 796 797
f 753 797 798
f 753 798 755
f 753 755 754
f 755 799 800
f 755 800 773
f 755 773 756
f 755 798 799
f 756 773 757
f 757 773 777
f 757 777 776
f 757 776 758
f 758 776 764
f 759 788 786
f 759 786 760
f 760 786 801
f 760 801 761
f 761 801 802
f 761 802 762
f 762 802 803
f 762 803 804
f 762 804 789
f 762 789 763
f 765 772 767
f 765 767 766
f 767 805 806
f 767 806 807
f 767 807 778
f 767 778 768
f 767 772 805
f 770 775 808
f 770 808 771
f 771 808 772
f 772 808 805
f 773 800 774
f 774 800 775
f 775 800 799
f 775 799 808
f 778 807 806
f 778 806 809
f 778 809 810
f 778 810 811
f 778 811 812
f 778 812 779
f 779 812 780
f 780 812 813
f 780 813 781
f 781 814 815
f 781 815 801
f 781 801 785
f 781 785 784
f 781 784 783
f 781 783 782
f 781 813 814
f 785 801 786
f 786 788 787
f 789 804 790
f 790 804 816
f 790 816 792
f 790 792 791
f 792 816 803
f 792 803 817
f 792 817 818
f 792 818 819
f 792 819 793
f 793 819 794
f 794 819 795
f 795 810 820
f 795 820 796
f 795 819 810
f 796 820 797
f 797 820 806
f 797 806 821
f 797 821 798
f 798 821 799
f 799 821 808
f 801 815 822
f 801 822 802
f 802 822 803
f 803 815 814
f 803 814 812
f 803 812 823
f 803 823 817
f 803 816 804
f 803 822 815
f 805 808 806
f 806 808 821
f 806 820 810
f 806 810 809
f 810 819 818
f 810 818 824
f 810 824 812
f 810 812 811
f 812 824 823
f 812 814 813
f 817 823 818
f 818 823 824

