# https://github.com/mikedh/trimesh
v 0.01020677 0.02325858 -0.02772577
v 0.01020476 0.01853759 -0.02772577
v 0.01010819 0.02325858 -0.02829087
v -0.01034610 0.02325858 -0.02772577
v 0.01020275 0.01790835 -0.02772577
v 0.01010618 0.01853759 -0.02828005
v 0.01004180 0.02293347 -0.02860451
v 0.01007399 0.02325858 -0.02845310
v -0.01034610 0.00540236 -0.02772577
v -0.01034610 0.02325858 -0.05468566
v 0.01011624 0.01732631 -0.02772577
v 0.01008405 0.01750809 -0.02811241
v 0.01010417 0.01790835 -0.02822598
v 0.01003979 0.01853759 -0.02859370
v 0.01004180 0.02325858 -0.02860451
v 0.00996535 0.01916507 -0.02893979
v -0.00126469 0.00540236 -0.02772577
v -0.01034610 0.00540236 -0.04275366
v -0.01019722 0.02325858 -0.05515884
v -0.01034610 0.01665339 -0.05468566
v 0.00995730 0.01705190 -0.02772577
v 0.00819896 0.01376940 -0.03207894
v 0.00819494 0.01377290 -0.03248451
v 0.00881861 0.01503311 -0.03128942
v 0.00916062 0.01602590 -0.03082436
v 0.00942215 0.01694004 -0.03051612
v 0.00996334 0.01853759 -0.02893979
v 0.00996535 0.01979256 -0.02893979
v 0.01000156 0.02325858 -0.02877756
v 0.00978428 0.01916507 -0.02956708
v -0.00103736 0.00553345 -0.02772577
v -0.00110777 0.00540236 -0.02958871
v -0.00008174 0.00570999 -0.03521808
v -0.00062292 0.00566279 -0.02983205
v -0.01034610 0.00786336 -0.04589281
v -0.01034409 0.00660664 -0.04463553
v -0.01034208 0.00540236 -0.04338095
v -0.00973249 0.02325858 -0.05533188
v -0.01019722 0.01665339 -0.05515884
v -0.01029379 0.01602590 -0.05468566
v -0.01030184 0.01539667 -0.05405567
v -0.01034610 0.01163001 -0.04966195
v 0.00583305 0.01158981 -0.02772577
v 0.00627364 0.01195162 -0.02865589
v 0.00691139 0.01193764 -0.03236013
v 0.00721316 0.01225925 -0.03270622
v 0.00749080 0.01263154 -0.03270622
v 0.00798571 0.01345479 -0.03207894
v 0.00770405 0.01294616 -0.03270622
v 0.00752097 0.01261057 -0.03333622
v 0.00824523 0.01414345 -0.03256563
v 0.00853494 0.01476918 -0.03207894
v 0.00888500 0.01539667 -0.03140027
v 0.00726547 0.01225925 -0.03396351
v 0.00696571 0.01184850 -0.03459079
v 0.00690938 0.01193589 -0.03490985
v 0.00877837 0.01539667 -0.03171392
v 0.00894334 0.01602590 -0.03143542
v 0.00895139 0.01665339 -0.03143542
v 0.00942417 0.01728087 -0.03051883
v 0.00954890 0.01790835 -0.03019437
v 0.00978227 0.01853759 -0.02956708
v 0.00978428 0.02167676 -0.02956708
v 0.00996334 0.02325858 -0.02893979
v -0.00072351 0.00572397 -0.02772577
v -0.00064304 0.00567328 -0.02941566
v -0.00066517 0.00568726 -0.02893979
v -0.00050020 0.00540236 -0.03711076
v -0.00001132 0.00566979 -0.03691609
v 0.00033471 0.00583409 -0.03773265
v 0.00085980 0.00614870 -0.03773265
v 0.00117365 0.00634272 -0.03773265
v 0.00156796 0.00658742 -0.03773265
v -0.01034208 0.00597916 -0.04400824
v -0.01023545 0.00540236 -0.04402446
v -0.00910480 0.02325858 -0.05534540
v -0.00973249 0.01728087 -0.05533188
v -0.00973249 0.01665339 -0.05529673
v -0.01014492 0.01602590 -0.05509935
v -0.01015095 0.01543862 -0.05465051
v -0.01015498 0.01480589 -0.05401782
v -0.01029782 0.01476918 -0.05342838
v 0.00541056 0.01106720 -0.02772577
v 0.00565601 0.01131015 -0.02796641
v 0.00635411 0.01184850 -0.02956708
v 0.00694157 0.01190268 -0.03270622
v 0.00699387 0.01183976 -0.03333622
v 0.00729364 0.01225925 -0.03333622
v 0.00702003 0.01178732 -0.03396351
v 0.00809837 0.01414345 -0.03287927
v 0.00680275 0.01153388 -0.03459079
v 0.00565601 0.01005344 -0.03679982
v 0.00501222 0.00974756 -0.03801384
v 0.00481908 0.00974756 -0.03835993
v 0.00521139 0.01037505 -0.03772724
v 0.00571636 0.01100253 -0.03689716
v 0.00691139 0.01225925 -0.03491255
v 0.00759742 0.01351422 -0.03375531
v 0.00828145 0.01476918 -0.03259807
v 0.00858523 0.01539667 -0.03207894
v 0.00878239 0.01602590 -0.03174907
v 0.00878239 0.02325858 -0.03174907
v 0.00894937 0.02325858 -0.03143542
v 0.00926322 0.01853759 -0.03083247
v 0.00926322 0.01728087 -0.03083247
v 0.00926322 0.02230599 -0.03082977
v 0.00942215 0.02167676 -0.03051612
v 0.00954890 0.02325858 -0.03019437
v 0.00978227 0.02325858 -0.02956708
v -0.00033925 0.00597566 -0.02772577
v 0.00188583 0.00691951 -0.03551010
v 0.00199045 0.00685134 -0.03773265
v -0.00043984 0.00540236 -0.03787595
v 0.00002087 0.00565231 -0.03773265
v 0.00035684 0.00582185 -0.03835993
v 0.00086986 0.00613472 -0.03835993
v -0.01029379 0.01414345 -0.05280110
v -0.01022338 0.00595644 -0.04465986
v -0.01019320 0.00540236 -0.04418669
v -0.00847711 0.02325858 -0.05531836
v -0.00847711 0.02230599 -0.05532107
v -0.00910480 0.01853759 -0.05534540
v -0.00910480 0.01790835 -0.05534269
v -0.00910480 0.01728087 -0.05531836
v -0.00847711 0.01728087 -0.05524536
v -0.00910480 0.01665339 -0.05520480
v -0.00974657 0.01600667 -0.05512098
v -0.01007853 0.01567633 -0.05502635
v -0.01009060 0.01503836 -0.05441528
v -0.01014291 0.00552821 -0.04446518
v 0.00505648 0.01065121 -0.02772577
v 0.00573849 0.01121402 -0.02893979
v 0.00672630 0.01152514 -0.03333622
v 0.00677458 0.01147271 -0.03396351
v 0.00628370 0.01131190 -0.03173555
v 0.00631186 0.01127869 -0.03207894
v 0.00648890 0.01108293 -0.03459079
v 0.00623944 0.01074035 -0.03521808
v 0.00644666 0.01105497 -0.03521808
v 0.00567411 0.01003421 -0.03647536
v 0.00511080 0.00933856 -0.03710265
v 0.00508062 0.00936303 -0.03758664
v 0.00516110 0.00974756 -0.03770020
v 0.00447506 0.00924417 -0.03880607
v 0.00451530 0.00974756 -0.03886825
v 0.00502027 0.01037505 -0.03804088
v 0.00552524 0.01100253 -0.03721081
v 0.00571435 0.01225925 -0.03689446
v 0.00690535 0.01853759 -0.03490173
v 0.00740831 0.01916507 -0.03406895
v 0.00640843 0.01225925 -0.03574803
v 0.00691139 0.01288673 -0.03491255
v 0.00741234 0.01351422 -0.03406895
v 0.00784689 0.01414345 -0.03333622
v 0.00809837 0.01476918 -0.03291171
v 0.00858926 0.01602590 -0.03207894
v 0.00858926 0.02325858 -0.03207894
v 0.00926322 0.02325858 -0.03082706
v 0.00933967 0.02325858 -0.03067565
v 0.00942014 0.02325858 -0.03051342
v 0.00942215 0.02230599 -0.03051342
v 0.00948251 0.02325858 -0.03035930
v -0.00031310 0.00599314 -0.02772577
v 0.00230430 0.00706109 -0.03773265
v 0.00275495 0.00737396 -0.03773265
v 0.00303660 0.00762390 -0.03710265
v 0.00128228 0.00690029 -0.03019437
v 0.00135069 0.00685134 -0.03145165
v 0.00037897 0.00645633 -0.02772577
v 0.00118371 0.00633922 -0.03835993
v 0.00197435 0.00686008 -0.03835993
v -0.00040363 0.00540236 -0.03835993
v 0.00004300 0.00564007 -0.03835993
v 0.00003294 0.00564532 -0.03880607
v 0.00081956 0.00615744 -0.03898722
v -0.00998598 0.00540236 -0.04434351
v -0.00788563 0.02325858 -0.05514532
v -0.00788563 0.02293347 -0.05514802
v -0.00788563 0.01853759 -0.05515072
v -0.00847711 0.01853759 -0.05532107
v -0.00847711 0.01790835 -0.05531566
v -0.00792587 0.01728087 -0.05509935
v -0.00803048 0.01687536 -0.05503986
v -0.00910480 0.01623040 -0.05505609
v -0.00996586 0.01567633 -0.05502635
v -0.00992764 0.01503836 -0.05441528
v -0.01008456 0.01441786 -0.05378259
v -0.01006444 0.01255638 -0.05187638
v -0.01004835 0.01131540 -0.05060558
v 0.00443080 0.00998178 -0.02772577
v 0.00556346 0.01078405 -0.03019437
v 0.00636216 0.01122451 -0.03270622
v 0.00646074 0.01112838 -0.03396351
v 0.00641245 0.01117557 -0.03333622
v 0.00620121 0.01076832 -0.03459079
v 0.00567612 0.01003246 -0.03596704
v 0.00509068 0.00936827 -0.03647536
v 0.00476476 0.00902394 -0.03710265
v 0.00446701 0.00874429 -0.03773265
v 0.00444086 0.00876351 -0.03821393
v 0.00438252 0.00882469 -0.03863302
v 0.00427991 0.00906764 -0.03900345
v 0.00379506 0.00937177 -0.03997142
v 0.00482512 0.01037505 -0.03835993
v 0.00432216 0.00974756 -0.03918190
v 0.00552323 0.01225925 -0.03720810
v 0.00759340 0.02293347 -0.03374449
v 0.00784086 0.02325858 -0.03333622
v 0.00809837 0.02293347 -0.03291171
v 0.00784689 0.01979256 -0.03333622
v 0.00741234 0.01539667 -0.03406895
v 0.00828346 0.01539667 -0.03259807
v 0.00828346 0.02325858 -0.03259807
v 0.00228820 0.00707332 -0.03835993
v 0.00273684 0.00738794 -0.03835993
v 0.00306879 0.00760118 -0.03773265
v 0.00350133 0.00798571 -0.03716214
v 0.00339873 0.00796648 -0.03647536
v 0.00186169 0.00756447 -0.02772577
v 0.00152169 0.00729880 -0.02772577
v 0.00114548 0.00700516 -0.02772577
v 0.00085175 0.00678493 -0.02772577
v -0.00048410 0.00540236 -0.03901426
v -0.00026280 0.00551597 -0.03900345
v -0.00002339 0.00567678 -0.03922516
v 0.00027033 0.00581486 -0.03900345
v 0.00113341 0.00638117 -0.03898722
v 0.00192205 0.00689329 -0.03878173
v 0.00072702 0.00622036 -0.03948202
v -0.00973249 0.00540236 -0.04435703
v -0.00757179 0.02325858 -0.05497227
v -0.00756977 0.02104927 -0.05497227
v -0.00756977 0.01853759 -0.05497227
v -0.00757179 0.01790835 -0.05497227
v -0.00788563 0.01790835 -0.05514261
v -0.00761202 0.01728087 -0.05496416
v -0.00783332 0.01666038 -0.05487764
v -0.00835238 0.01645588 -0.05493982
v -0.00877084 0.01632828 -0.05500472
v -0.00973652 0.01539667 -0.05468296
v -0.00954740 0.01578644 -0.05495064
v -0.00735048 0.01622516 -0.05446395
v -0.00784942 0.01579343 -0.05429361
v -0.00950717 0.01511701 -0.05433417
v -0.00596634 0.00540236 -0.04297808
v -0.00994575 0.01441786 -0.05378259
v -0.01004231 0.01131540 -0.05060558
v 0.00415518 0.00968813 -0.02772577
v 0.00524962 0.01044846 -0.03019437
v 0.00561175 0.01073161 -0.03082436
v 0.00567210 0.01066519 -0.03161928
v 0.00611269 0.01086095 -0.03333622
v 0.00615695 0.01081376 -0.03396351
v 0.00570831 0.01063023 -0.03207894
v 0.00562583 0.01008665 -0.03521808
v 0.00564796 0.01006218 -0.03554795
v 0.00504843 0.00940673 -0.03584807
v 0.00502630 0.00942945 -0.03551280
v 0.00466015 0.00900472 -0.03641588
v 0.00376287 0.00880721 -0.03115963
v 0.00382524 0.00875302 -0.03207894
v 0.00425980 0.00892082 -0.03396351
v 0.00430003 0.00888411 -0.03459079
v 0.00433826 0.00885265 -0.03521808
v 0.00439459 0.00880546 -0.03616713
v 0.00445092 0.00876002 -0.03710265
v 0.00376690 0.00817623 -0.03741089
v 0.00408879 0.00842967 -0.03773265
v 0.00377696 0.00816749 -0.03809496
v 0.00373270 0.00820769 -0.03851405
v 0.00332631 0.00801717 -0.03898722
v 0.00364015 0.00829858 -0.03898722
v 0.00397412 0.00861145 -0.03898722
v 0.00384335 0.00872681 -0.03940091
v 0.00392784 0.00914455 -0.03961181
v 0.00381116 0.00974756 -0.03999575
v 0.00405258 0.00974756 -0.03961451
v 0.00367033 0.00895228 -0.03981730
v 0.00320358 0.00934730 -0.04062845
v 0.00252358 0.01004295 -0.04182625
v 0.00063448 0.01192366 -0.04496269
v 0.00520737 0.01288673 -0.03771642
v 0.00381116 0.01037505 -0.04000116
v 0.00431411 0.01225925 -0.03917108
v 0.00759139 0.02325858 -0.03374179
v 0.00520536 0.01351422 -0.03771372
v 0.00678062 0.02325858 -0.03505585
v 0.00739825 0.02325858 -0.03405544
v 0.00809636 0.02325858 -0.03291171
v 0.00818689 0.02325858 -0.03276030
v 0.00305068 0.00761516 -0.03835993
v 0.00345305 0.00790706 -0.03773265
v 0.00401838 0.00840345 -0.03716214
v 0.00332429 0.00802591 -0.03521808
v 0.00215944 0.00780568 -0.02772577
v -0.00062091 0.00540236 -0.03932791
v -0.00075168 0.00540236 -0.03961451
v -0.00044387 0.00556841 -0.03961451
v -0.00013002 0.00573970 -0.03961451
v 0.00184761 0.00694923 -0.03920083
v 0.00161021 0.00672375 -0.03898993
v 0.00262619 0.00746485 -0.03898722
v 0.00036489 0.00605781 -0.03966048
v 0.00060832 0.00630601 -0.03990112
v -0.00724989 0.02325858 -0.05465863
v -0.00690386 0.01706763 -0.05437473
v -0.00690386 0.01693304 -0.05437473
v -0.00693202 0.01651356 -0.05435580
v -0.00642504 0.01591054 -0.05366903
v -0.00611321 0.01556796 -0.05324993
v -0.00684350 0.01567633 -0.05377718
v -0.00683747 0.01505059 -0.05314719
v -0.00684149 0.01442660 -0.05251719
v -0.00559214 0.00689329 -0.04435162
v -0.00560421 0.00564532 -0.04308623
v -0.00541913 0.00540236 -0.04276177
v -0.01002220 0.01193589 -0.05124098
v 0.00386145 0.00937701 -0.02772577
v 0.00575257 0.01058304 -0.03270622
v 0.00579885 0.01053760 -0.03333622
v 0.00558157 0.01013209 -0.03459079
v 0.00502228 0.01006218 -0.03114611
v 0.00382122 0.00933506 -0.02772577
v 0.00323779 0.00875128 -0.02772577
v 0.00374074 0.00882818 -0.03082436
v 0.00508867 0.00999401 -0.03207894
v 0.00436843 0.00945916 -0.03069457
v 0.00392986 0.00926690 -0.02893979
v 0.00361400 0.00895228 -0.02893979
v 0.00287364 0.00841743 -0.02772577
v 0.00386749 0.00871807 -0.03270622
v 0.00255980 0.00813428 -0.02772577
v 0.00259601 0.00810457 -0.02831250
v 0.00306276 0.00823915 -0.03082436
v 0.00348926 0.00840345 -0.03270622
v 0.00398619 0.00862543 -0.03459079
v 0.00363814 0.00828110 -0.03521808
v 0.00377494 0.00816924 -0.03773265
v 0.00349530 0.00797348 -0.03832749
v 0.00294003 0.00770256 -0.03898722
v 0.00253767 0.00752777 -0.03933602
v 0.00321364 0.00811156 -0.03940091
v 0.00304264 0.00826887 -0.03982000
v 0.00325187 0.00868835 -0.04003631
v 0.00309696 0.01037505 -0.04112325
v 0.00330015 0.01037505 -0.04080960
v 0.00361400 0.01037505 -0.04031480
v 0.00302453 0.00892781 -0.04045540
v 0.00188986 0.01005344 -0.04244542
v 0.00120584 0.01075958 -0.04365133
v 0.00004300 0.01188346 -0.04563054
v -0.00065511 0.01273292 -0.04680940
v -0.00062091 0.01315241 -0.04684456
v -0.00009180 0.01288673 -0.04607396
v 0.00012146 0.01288673 -0.04576032
v 0.00063850 0.01225925 -0.04496810
v 0.00380713 0.01163001 -0.03999575
v 0.00361400 0.01100253 -0.04031210
v 0.00309897 0.01351422 -0.04112055
v 0.00309696 0.01414345 -0.04111784
v 0.00359187 0.01790835 -0.04027425
v 0.00307684 0.01979256 -0.04108540
v 0.00326394 0.02167676 -0.04076094
v 0.00325992 0.02293347 -0.04075282
v 0.00359187 0.02325858 -0.04021206
v 0.00309897 0.00820769 -0.03145165
v 0.00219364 0.00783365 -0.02772577
v -0.00057061 0.00563308 -0.03999034
v -0.00120233 0.00540236 -0.04023098
v 0.00018986 0.00617142 -0.04012283
v -0.00001937 0.00630601 -0.04054193
v 0.00036489 0.00640564 -0.04029588
v 0.00091211 0.00675871 -0.04020665
v 0.00129033 0.00689155 -0.03997142
v -0.00627617 0.01853759 -0.05374473
v -0.00504291 0.02325858 -0.05246582
v -0.00627415 0.01790835 -0.05374744
v -0.00627415 0.01665339 -0.05374744
v -0.00627617 0.01632828 -0.05374744
v -0.00514753 0.01539667 -0.05240363
v -0.00488197 0.01495621 -0.05197102
v -0.00559415 0.01504360 -0.05252530
v -0.00596634 0.01494572 -0.05262264
v -0.00641901 0.01514847 -0.05304714
v -0.00596634 0.01149892 -0.04916444
v -0.00558410 0.00814477 -0.04561161
v -0.00558611 0.00751728 -0.04498162
v -0.00538291 0.00540236 -0.04274555
v 0.00352950 0.00904142 -0.02772577
v 0.00356974 0.00899773 -0.02831250
v 0.00195826 0.00748582 -0.04000927
v 0.00262418 0.00808010 -0.04003361
v 0.00282335 0.00849084 -0.04024450
v 0.00260607 0.00871108 -0.04064197
v 0.00330015 0.01100253 -0.04080960
v 0.00186974 0.01163001 -0.04304567
v 0.00135471 0.01225925 -0.04385141
v 0.00309897 0.01288673 -0.04112325
v 0.00257187 0.00936827 -0.04124222
v 0.00054595 0.01076657 -0.04425429
v 0.00010134 0.01122101 -0.04503840
v 0.00072702 0.01118606 -0.04443815
v -0.00059677 0.01191666 -0.04623349
v -0.00130694 0.01263504 -0.04742588
v -0.00250801 0.01382359 -0.04935101
v -0.00118623 0.01305278 -0.04755296
v -0.00115002 0.01351422 -0.04760163
v -0.00061688 0.01351422 -0.04684996
v -0.00083617 0.01351422 -0.04716361
v -0.00008978 0.01351422 -0.04607396
v 0.00012146 0.02167676 -0.04576032
v 0.00043530 0.01288673 -0.04528444
v 0.00063850 0.01288673 -0.04497080
v 0.00186974 0.01853759 -0.04304567
v 0.00124607 0.02325858 -0.04400283
v 0.00164240 0.02167676 -0.04338095
v 0.00206086 0.01979256 -0.04272662
v 0.00280725 0.02167676 -0.04149908
v 0.00307281 0.02104927 -0.04107728
v -0.00077381 0.00575543 -0.04040673
v -0.00029298 0.00596343 -0.04026613
v -0.00185416 0.00540236 -0.04085827
v -0.00119227 0.00562784 -0.04060952
v 0.00031258 0.00673773 -0.04074201
v 0.00068276 0.00687407 -0.04060411
v -0.00186221 0.00565231 -0.04119896
v -0.00072753 0.00636369 -0.04111514
v -0.00022458 0.00654372 -0.04093668
v 0.00110122 0.00705759 -0.04039051
v -0.00565853 0.02042179 -0.05310933
v -0.00473913 0.02325858 -0.05215218
v -0.00504291 0.02293347 -0.05246852
v -0.00596634 0.01665339 -0.05342838
v -0.00504291 0.01602590 -0.05246852
v -0.00446149 0.01539667 -0.05179797
v -0.00477534 0.01539667 -0.05208999
v -0.00438706 0.01444932 -0.05123558
v -0.00368694 0.01437242 -0.05067048
v -0.00318800 0.01387777 -0.04994585
v -0.00557806 0.01441262 -0.05190072
v -0.00470895 0.01434970 -0.05133292
v -0.00515960 0.01453672 -0.05177905
v -0.00470895 0.01339886 -0.05041091
v -0.00434280 0.01191142 -0.04875076
v -0.00433274 0.01127869 -0.04812887
v -0.00596634 0.01463285 -0.05231170
v -0.00557202 0.01190618 -0.04938616
v -0.00537487 0.00788084 -0.04524659
v -0.00470895 0.00540236 -0.04243461
v -0.00518575 0.00573620 -0.04299430
v 0.00133660 0.00747533 -0.04062845
v 0.00239080 0.00829334 -0.04045270
v 0.00153376 0.00789657 -0.04084205
v 0.00216950 0.00851706 -0.04084746
v 0.00135471 0.02042179 -0.04385141
v 0.00059826 0.00945916 -0.04304297
v 0.00064655 0.00815875 -0.04182625
v -0.00057061 0.01126821 -0.04562242
v -0.00128682 0.01196910 -0.04681211
v -0.00172540 0.01244976 -0.04757729
v -0.00245570 0.01315590 -0.04876157
v -0.00178777 0.01309473 -0.04818565
v -0.00305925 0.01429726 -0.05006752
v -0.00302102 0.01476918 -0.05011889
v -0.00248789 0.01414345 -0.04937804
v -0.00192659 0.01414345 -0.04865883
v -0.00138138 0.01414345 -0.04791798
v -0.00115203 0.01414345 -0.04760433
v -0.00061688 0.01602590 -0.04684726
v -0.00008978 0.02042179 -0.04607396
v -0.00009180 0.02167676 -0.04607396
v 0.00012146 0.02325858 -0.04575491
v 0.00043530 0.02325858 -0.04528444
v 0.00053388 0.02325858 -0.04513303
v 0.00063850 0.02325858 -0.04497080
v 0.00074110 0.02325858 -0.04480857
v 0.00115353 0.02230599 -0.04415965
v 0.00099459 0.02325858 -0.04440570
v -0.00218812 0.00540236 -0.04110973
v -0.00001333 0.00693000 -0.04117733
v 0.00031258 0.00705759 -0.04105836
v 0.00066666 0.00751379 -0.04121788
v 0.00088394 0.00728482 -0.04082583
v -0.00219818 0.00555268 -0.04129900
v -0.00265286 0.00700516 -0.04298348
v -0.00267096 0.00827411 -0.04422725
v -0.00316386 0.01258785 -0.04870479
v -0.00317392 0.01322407 -0.04932397
v -0.00165901 0.00604208 -0.04143960
v -0.00565853 0.01728087 -0.05310933
v -0.00504090 0.02230599 -0.05246852
v -0.00473913 0.02293347 -0.05215488
v -0.00442528 0.02325858 -0.05182501
v -0.00504090 0.01665339 -0.05246852
v -0.00473913 0.01602590 -0.05215218
v -0.00442528 0.01602590 -0.05182501
v -0.00416777 0.01539667 -0.05148433
v -0.00330469 0.01476918 -0.05043254
v -0.00360647 0.01372920 -0.05007293
v -0.00243357 0.01251444 -0.04814780
v -0.00470895 0.01054983 -0.04760163
v -0.00515356 0.01200930 -0.04928341
v -0.00432268 0.01064771 -0.04750429
v -0.00389617 0.00887013 -0.04551427
v -0.00389818 0.00824090 -0.04488698
v -0.00394445 0.01330972 -0.04987014
v -0.00470895 0.01403683 -0.05103009
v -0.00435285 0.01254590 -0.04937264
v -0.00356019 0.01118955 -0.04758541
v -0.00308942 0.00814651 -0.04435162
v -0.00308138 0.00751379 -0.04372974
v -0.00307132 0.00688106 -0.04310516
v -0.00470895 0.00929661 -0.04634435
v -0.00470895 0.00772877 -0.04477072
v -0.00414362 0.00540236 -0.04215882
v 0.00108513 0.00770430 -0.04104754
v -0.00008576 0.00950461 -0.04362970
v -0.00052635 0.00997828 -0.04440029
v -0.00050422 0.00933506 -0.04378652
v -0.00081002 0.01020375 -0.04481939
v -0.00126671 0.01132589 -0.04619834
v -0.00201511 0.01267524 -0.04799639
v -0.00170528 0.01180655 -0.04696352
v -0.00385392 0.01539667 -0.05113283
v -0.00358836 0.01539667 -0.05081919
v -0.00327451 0.01539667 -0.05043795
v -0.00302102 0.01539667 -0.05012430
v -0.00270718 0.01476918 -0.04971332
v -0.00247179 0.01476918 -0.04939968
v -0.00139546 0.01790835 -0.04789905
v -0.00040564 0.02167676 -0.04650928
v -0.00062493 0.01853759 -0.04683915
v -0.00061890 0.01665339 -0.04684726
v -0.00009783 0.02325858 -0.04606856
v -0.00009381 0.02230599 -0.04607126
v -0.00273132 0.00540236 -0.04144501
v -0.00002943 0.00756972 -0.04179110
v -0.00195475 0.01011112 -0.04553049
v -0.00196883 0.01074909 -0.04614967
v -0.00122848 0.01004120 -0.04497080
v 0.00031258 0.00737221 -0.04135308
v -0.00004754 0.00821293 -0.04240487
v -0.00006765 0.00885790 -0.04301864
v -0.00283795 0.00540236 -0.04150719
v -0.00264682 0.00573795 -0.04173972
v -0.00314173 0.01131889 -0.04746103
v -0.00240138 0.01123849 -0.04690945
v -0.00473913 0.01790835 -0.05215488
v -0.00430055 0.02325858 -0.05167360
v -0.00416575 0.02293347 -0.05151137
v -0.00416374 0.02230599 -0.05151137
v -0.00416173 0.02167676 -0.05151137
v -0.00416173 0.01602590 -0.05151137
v -0.00198292 0.01138881 -0.04676885
v -0.00306729 0.00625357 -0.04247787
v -0.00306528 0.00562609 -0.04185058
v -0.00345357 0.00615569 -0.04257521
v -0.00345357 0.00584283 -0.04226156
v -0.00390220 0.00698593 -0.04362970
v -0.00345357 0.00540236 -0.04181813
v -0.00124860 0.01068267 -0.04558457
v -0.00384789 0.01602590 -0.05113283
v -0.00358836 0.01728087 -0.05081919
v -0.00384789 0.01979256 -0.05113283
v -0.00384789 0.02104927 -0.05113013
v -0.00302505 0.01602590 -0.05012160
v -0.00270718 0.01539667 -0.04971062
v -0.00384789 0.02230599 -0.05112472
v -0.00193866 0.01728087 -0.04864531
v -0.00063901 0.02230599 -0.04682022
v -0.00041168 0.02325858 -0.04649847
v -0.00285806 0.00540236 -0.04151801
v -0.00416777 0.02325858 -0.05151137
v -0.00303309 0.01728087 -0.05011619
v -0.00328256 0.01979256 -0.05041091
v -0.00304114 0.01853759 -0.05010808
v -0.00271925 0.01728087 -0.04969710
v -0.00249191 0.01853759 -0.04937264
v -0.00140753 0.02042179 -0.04788553
v -0.00401487 0.02325858 -0.05132210
v -0.00385392 0.02325858 -0.05111661
v -0.00373925 0.02325858 -0.05096519
v -0.00064103 0.02293347 -0.04681481
v -0.00064304 0.02325858 -0.04681211
v -0.00346564 0.02325858 -0.05060018
v -0.00276150 0.02293347 -0.04966195
v -0.00077381 0.02325858 -0.04698786
v -0.00276552 0.02325858 -0.04966195
f 1 2 3
f 1 3 8
f 1 8 15
f 1 15 29
f 1 29 64
f 1 64 109
f 1 109 108
f 1 108 162
f 1 162 160
f 1 160 159
f 1 159 158
f 1 158 103
f 1 103 102
f 1 102 157
f 1 157 213
f 1 213 290
f 1 290 289
f 1 289 208
f 1 208 285
f 1 285 288
f 1 288 287
f 1 287 365
f 1 365 415
f 1 415 478
f 1 478 476
f 1 476 475
f 1 475 474
f 1 474 473
f 1 473 472
f 1 472 534
f 1 534 571
f 1 571 584
f 1 584 587
f 1 587 588
f 1 588 585
f 1 585 582
f 1 582 581
f 1 581 580
f 1 580 573
f 1 573 549
f 1 549 493
f 1 493 431
f 1 431 376
f 1 376 305
f 1 305 231
f 1 231 177
f 1 177 120
f 1 120 76
f 1 76 38
f 1 38 19
f 1 19 10
f 1 10 4
f 1 4 9
f 1 9 17
f 1 17 31
f 1 31 65
f 1 65 110
f 1 110 163
f 1 163 169
f 1 169 222
f 1 222 221
f 1 221 220
f 1 220 219
f 1 219 295
f 1 295 367
f 1 367 332
f 1 332 330
f 1 330 324
f 1 324 389
f 1 389 323
f 1 323 318
f 1 318 248
f 1 248 190
f 1 190 131
f 1 131 83
f 1 83 43
f 1 43 21
f 1 21 11
f 1 11 5
f 1 5 2
f 2 5 6
f 2 6 3
f 3 6 7
f 3 7 8
f 4 10 20
f 4 20 42
f 4 42 35
f 4 35 18
f 4 18 9
f 5 11 12
f 5 12 13
f 5 13 6
f 6 13 14
f 6 14 7
f 7 15 8
f 7 14 16
f 7 16 28
f 7 28 15
f 9 18 37
f 9 37 75
f 9 75 119
f 9 119 176
f 9 176 230
f 9 230 245
f 9 245 316
f 9 316 388
f 9 388 449
f 9 449 515
f 9 515 560
f 9 560 572
f 9 572 544
f 9 544 536
f 9 536 479
f 9 479 422
f 9 422 369
f 9 369 297
f 9 297 296
f 9 296 223
f 9 223 172
f 9 172 113
f 9 113 68
f 9 68 32
f 9 32 17
f 10 19 39
f 10 39 20
f 11 21 22
f 11 22 23
f 11 23 24
f 11 24 12
f 12 24 25
f 12 25 26
f 12 26 13
f 13 27 14
f 13 26 27
f 14 27 16
f 15 28 29
f 16 27 62
f 16 62 30
f 16 30 63
f 16 63 28
f 17 32 33
f 17 33 34
f 17 34 31
f 18 35 36
f 18 36 37
f 19 38 77
f 19 77 39
f 20 39 40
f 20 40 41
f 20 41 42
f 21 43 44
f 21 44 45
f 21 45 46
f 21 46 47
f 21 47 48
f 21 48 22
f 22 48 47
f 22 47 49
f 22 49 50
f 22 50 23
f 23 51 52
f 23 52 53
f 23 53 24
f 23 50 54
f 23 54 55
f 23 55 56
f 23 56 51
f 24 53 25
f 25 53 26
f 26 53 57
f 26 57 58
f 26 58 59
f 26 59 60
f 26 60 61
f 26 61 62
f 26 62 27
f 28 63 64
f 28 64 29
f 30 62 61
f 30 61 108
f 30 108 63
f 31 34 66
f 31 66 67
f 31 67 65
f 32 68 69
f 32 69 33
f 33 69 70
f 33 70 71
f 33 71 34
f 34 71 72
f 34 72 73
f 34 73 66
f 35 42 41
f 35 41 36
f 36 74 37
f 36 41 74
f 37 74 75
f 38 76 122
f 38 122 77
f 39 78 79
f 39 79 40
f 39 77 78
f 40 79 80
f 40 80 41
f 41 80 81
f 41 81 82
f 41 82 74
f 43 83 84
f 43 84 45
f 43 45 85
f 43 85 44
f 44 85 45
f 45 86 46
f 45 84 86
f 46 86 87
f 46 87 47
f 47 87 88
f 47 88 49
f 49 88 50
f 50 88 89
f 50 89 54
f 51 90 57
f 51 57 52
f 51 56 90
f 52 57 53
f 54 89 91
f 54 91 55
f 55 91 92
f 55 92 56
f 56 92 93
f 56 93 94
f 56 94 95
f 56 95 96
f 56 96 97
f 56 97 98
f 56 98 99
f 56 99 90
f 57 90 99
f 57 99 100
f 57 100 101
f 57 101 58
f 58 101 59
f 59 101 102
f 59 102 103
f 59 103 104
f 59 104 105
f 59 105 60
f 60 105 104
f 60 104 106
f 60 106 107
f 60 107 108
f 60 108 61
f 63 108 109
f 63 109 64
f 65 67 111
f 65 111 110
f 66 73 112
f 66 112 67
f 67 112 111
f 68 113 114
f 68 114 69
f 69 114 70
f 70 114 173
f 70 173 115
f 70 115 71
f 71 115 116
f 71 116 72
f 72 116 73
f 73 116 112
f 74 82 117
f 74 117 75
f 75 118 119
f 75 117 118
f 76 120 121
f 76 121 180
f 76 180 122
f 77 122 123
f 77 123 124
f 77 124 78
f 78 125 126
f 78 126 127
f 78 127 128
f 78 128 79
f 78 124 125
f 79 128 80
f 80 129 81
f 80 128 129
f 81 117 82
f 81 129 130
f 81 130 119
f 81 119 118
f 81 118 117
f 83 131 132
f 83 132 84
f 84 132 86
f 86 132 87
f 87 133 134
f 87 134 89
f 87 89 88
f 87 132 135
f 87 135 136
f 87 136 133
f 89 134 137
f 89 137 138
f 89 138 139
f 89 139 91
f 91 139 92
f 92 139 140
f 92 140 141
f 92 141 142
f 92 142 143
f 92 143 93
f 93 143 144
f 93 144 94
f 94 144 145
f 94 145 95
f 95 145 146
f 95 146 147
f 95 147 96
f 96 147 206
f 96 206 148
f 96 148 149
f 96 149 150
f 96 150 151
f 96 151 97
f 97 152 211
f 97 211 153
f 97 153 154
f 97 154 98
f 97 151 152
f 98 154 99
f 99 154 155
f 99 155 101
f 99 101 100
f 101 155 156
f 101 156 157
f 101 157 102
f 103 158 106
f 103 106 104
f 106 158 159
f 106 159 107
f 107 159 160
f 107 160 161
f 107 161 108
f 108 161 162
f 110 111 163
f 111 112 164
f 111 164 165
f 111 165 166
f 111 166 167
f 111 167 168
f 111 168 169
f 111 169 163
f 112 116 170
f 112 170 171
f 112 171 164
f 113 172 114
f 114 172 173
f 115 173 174
f 115 174 116
f 116 174 175
f 116 175 170
f 119 130 176
f 120 177 178
f 120 178 121
f 121 178 179
f 121 179 180
f 122 180 123
f 123 180 181
f 123 181 124
f 124 181 125
f 125 181 182
f 125 182 183
f 125 183 126
f 126 183 184
f 126 184 127
f 127 184 185
f 127 185 128
f 128 185 186
f 128 186 129
f 129 186 246
f 129 246 187
f 129 187 130
f 130 187 188
f 130 188 189
f 130 189 176
f 131 190 191
f 131 191 192
f 131 192 136
f 131 136 135
f 131 135 132
f 133 192 134
f 133 136 192
f 134 193 137
f 134 192 194
f 134 194 193
f 137 195 196
f 137 196 138
f 137 193 195
f 138 196 140
f 138 140 139
f 140 196 141
f 141 196 197
f 141 197 198
f 141 198 199
f 141 199 200
f 141 200 142
f 142 200 201
f 142 201 144
f 142 144 143
f 144 201 202
f 144 202 203
f 144 203 145
f 145 204 146
f 145 203 205
f 145 205 204
f 146 204 206
f 146 206 147
f 148 206 149
f 149 206 207
f 149 207 208
f 149 208 150
f 150 152 151
f 150 208 209
f 150 209 152
f 152 209 210
f 152 210 211
f 153 211 210
f 153 210 154
f 154 210 209
f 154 209 155
f 155 209 213
f 155 213 212
f 155 212 156
f 156 212 213
f 156 213 157
f 160 162 161
f 164 171 214
f 164 214 165
f 165 214 215
f 165 215 291
f 165 291 216
f 165 216 166
f 166 216 217
f 166 217 218
f 166 218 219
f 166 219 220
f 166 220 221
f 166 221 222
f 166 222 167
f 167 222 168
f 168 222 169
f 170 175 171
f 171 175 214
f 172 223 174
f 172 174 173
f 174 223 224
f 174 224 225
f 174 225 226
f 174 226 175
f 175 227 228
f 175 228 215
f 175 215 214
f 175 226 225
f 175 225 229
f 175 229 227
f 176 189 230
f 177 231 178
f 178 231 179
f 179 231 232
f 179 232 233
f 179 233 234
f 179 234 235
f 179 235 181
f 179 181 180
f 181 235 182
f 182 235 236
f 182 236 183
f 183 236 237
f 183 237 238
f 183 238 239
f 183 239 184
f 184 239 185
f 185 240 186
f 185 239 238
f 185 238 241
f 185 241 242
f 185 242 243
f 185 243 240
f 186 240 244
f 186 244 245
f 186 245 246
f 187 246 317
f 187 317 247
f 187 247 189
f 187 189 188
f 189 247 230
f 190 248 249
f 190 249 191
f 191 249 250
f 191 250 192
f 192 250 251
f 192 251 194
f 193 252 253
f 193 253 195
f 193 194 254
f 193 254 252
f 194 251 254
f 195 255 256
f 195 256 196
f 195 253 321
f 195 321 255
f 196 257 197
f 196 256 258
f 196 258 257
f 197 259 198
f 197 257 260
f 197 260 261
f 197 261 262
f 197 262 263
f 197 263 259
f 198 259 264
f 198 264 265
f 198 265 266
f 198 266 199
f 199 267 268
f 199 268 269
f 199 269 200
f 199 266 267
f 200 269 270
f 200 270 201
f 201 270 271
f 201 271 272
f 201 272 273
f 201 273 274
f 201 274 202
f 202 274 275
f 202 275 203
f 203 276 277
f 203 277 205
f 203 275 278
f 203 278 279
f 203 279 280
f 203 280 281
f 203 281 276
f 204 205 282
f 204 282 206
f 205 277 283
f 205 283 284
f 205 284 282
f 206 282 207
f 207 285 208
f 207 282 286
f 207 286 284
f 207 284 287
f 207 287 288
f 207 288 285
f 208 289 209
f 209 289 290
f 209 290 213
f 215 228 291
f 216 292 267
f 216 267 217
f 216 291 269
f 216 269 292
f 217 267 218
f 218 267 293
f 218 293 294
f 218 294 219
f 219 294 295
f 223 296 225
f 223 225 224
f 225 296 297
f 225 297 298
f 225 298 299
f 225 299 229
f 227 229 300
f 227 300 301
f 227 301 228
f 228 302 291
f 228 301 300
f 228 300 302
f 229 299 303
f 229 303 304
f 229 304 300
f 230 247 245
f 231 305 306
f 231 306 232
f 232 306 307
f 232 307 233
f 233 307 234
f 234 307 236
f 234 236 235
f 236 307 308
f 236 308 237
f 237 242 238
f 237 308 242
f 238 242 241
f 240 243 244
f 242 308 309
f 242 309 310
f 242 310 311
f 242 311 243
f 243 311 244
f 244 311 312
f 244 312 313
f 244 313 314
f 244 314 315
f 244 315 245
f 245 315 316
f 245 247 317
f 245 317 246
f 248 318 251
f 248 251 249
f 249 251 250
f 251 318 254
f 252 254 319
f 252 319 253
f 253 319 320
f 253 320 321
f 254 322 319
f 254 318 323
f 254 323 322
f 255 258 256
f 255 321 258
f 257 258 324
f 257 324 325
f 257 325 260
f 258 321 326
f 258 326 327
f 258 327 328
f 258 328 329
f 258 329 324
f 259 263 264
f 260 325 330
f 260 330 261
f 261 331 262
f 261 330 332
f 261 332 331
f 262 331 263
f 263 331 332
f 263 332 333
f 263 333 264
f 264 333 334
f 264 334 335
f 264 335 336
f 264 336 265
f 265 336 266
f 266 337 294
f 266 294 293
f 266 293 267
f 266 336 335
f 266 335 337
f 267 292 338
f 267 338 268
f 268 338 269
f 269 291 339
f 269 339 270
f 269 338 292
f 270 340 271
f 270 339 291
f 270 291 340
f 271 340 341
f 271 341 342
f 271 342 272
f 272 342 273
f 273 342 274
f 274 342 343
f 274 343 344
f 274 344 278
f 274 278 275
f 276 281 345
f 276 345 346
f 276 346 347
f 276 347 277
f 277 347 283
f 278 344 279
f 279 344 348
f 279 348 349
f 279 349 280
f 280 349 350
f 280 350 351
f 280 351 281
f 281 351 352
f 281 352 353
f 281 353 354
f 281 354 355
f 281 355 356
f 281 356 345
f 282 284 286
f 283 357 284
f 283 347 358
f 283 358 359
f 283 359 360
f 283 360 357
f 284 361 287
f 284 357 360
f 284 360 361
f 287 361 362
f 287 362 363
f 287 363 364
f 287 364 365
f 291 302 340
f 294 337 335
f 294 335 366
f 294 366 295
f 295 366 334
f 295 334 333
f 295 333 367
f 297 368 298
f 297 369 368
f 298 368 299
f 299 368 304
f 299 304 303
f 300 304 341
f 300 341 340
f 300 340 302
f 304 368 370
f 304 370 371
f 304 371 372
f 304 372 373
f 304 373 374
f 304 374 341
f 305 375 306
f 305 376 375
f 306 375 377
f 306 377 378
f 306 378 307
f 307 378 379
f 307 379 308
f 308 379 309
f 309 379 380
f 309 380 310
f 310 380 381
f 310 381 382
f 310 382 311
f 311 382 383
f 311 383 384
f 311 384 312
f 312 384 385
f 312 385 386
f 312 386 387
f 312 387 313
f 313 387 314
f 314 387 388
f 314 388 316
f 314 316 315
f 319 322 320
f 320 322 326
f 320 326 321
f 322 327 326
f 322 323 328
f 322 328 327
f 323 389 328
f 324 329 390
f 324 390 389
f 324 330 325
f 328 389 390
f 328 390 329
f 332 367 333
f 334 366 335
f 341 374 342
f 342 374 343
f 343 374 391
f 343 391 392
f 343 392 344
f 344 392 393
f 344 393 394
f 344 394 348
f 345 356 346
f 346 395 347
f 346 356 396
f 346 396 397
f 346 397 455
f 346 455 395
f 347 395 398
f 347 398 359
f 347 359 358
f 348 394 399
f 348 399 349
f 349 400 401
f 349 401 350
f 349 399 394
f 349 394 400
f 350 401 402
f 350 402 351
f 351 402 401
f 351 401 403
f 351 403 404
f 351 404 405
f 351 405 406
f 351 406 352
f 352 406 407
f 352 407 353
f 353 408 354
f 353 407 409
f 353 409 408
f 354 408 355
f 355 408 410
f 355 410 470
f 355 470 411
f 355 411 473
f 355 473 412
f 355 412 356
f 356 412 413
f 356 413 397
f 356 397 396
f 359 398 414
f 359 414 415
f 359 415 360
f 360 415 416
f 360 416 417
f 360 417 362
f 360 362 361
f 362 417 416
f 362 416 418
f 362 418 419
f 362 419 364
f 362 364 363
f 364 419 418
f 364 418 415
f 364 415 365
f 368 369 420
f 368 420 421
f 368 421 370
f 369 422 423
f 369 423 420
f 370 421 371
f 371 424 425
f 371 425 372
f 371 421 420
f 371 420 423
f 371 423 422
f 371 422 426
f 371 426 427
f 371 427 428
f 371 428 424
f 372 425 373
f 373 425 374
f 374 425 429
f 374 429 391
f 375 430 377
f 375 376 430
f 376 431 492
f 376 492 432
f 376 432 430
f 377 430 490
f 377 490 433
f 377 433 378
f 378 433 434
f 378 434 379
f 379 434 435
f 379 435 436
f 379 436 380
f 380 436 381
f 381 437 382
f 381 436 438
f 381 438 439
f 381 439 437
f 382 440 383
f 382 437 441
f 382 441 442
f 382 442 443
f 382 443 444
f 382 444 445
f 382 445 440
f 383 440 446
f 383 446 384
f 384 446 447
f 384 447 385
f 385 447 386
f 386 448 387
f 386 447 448
f 387 448 449
f 387 449 450
f 387 450 388
f 388 450 449
f 391 429 392
f 392 429 425
f 392 425 451
f 392 451 452
f 392 452 393
f 393 452 394
f 394 452 453
f 394 453 454
f 394 454 400
f 395 455 414
f 395 414 398
f 397 413 475
f 397 475 455
f 400 456 401
f 400 454 456
f 401 456 403
f 403 456 457
f 403 457 458
f 403 458 459
f 403 459 404
f 404 460 461
f 404 461 439
f 404 439 462
f 404 462 405
f 404 459 460
f 405 439 438
f 405 438 463
f 405 463 464
f 405 464 465
f 405 465 407
f 405 407 406
f 405 462 439
f 407 466 467
f 407 467 468
f 407 468 409
f 407 465 466
f 408 469 470
f 408 470 410
f 408 409 469
f 409 468 469
f 411 470 471
f 411 471 472
f 411 472 473
f 412 473 474
f 412 474 413
f 413 474 475
f 414 455 476
f 414 476 477
f 414 477 415
f 415 418 416
f 415 477 478
f 422 479 426
f 424 428 480
f 424 480 425
f 425 480 481
f 425 481 482
f 425 482 483
f 425 483 451
f 426 479 484
f 426 484 485
f 426 485 486
f 426 486 487
f 426 487 488
f 426 488 489
f 426 489 427
f 427 489 480
f 427 480 428
f 430 432 491
f 430 491 494
f 430 494 490
f 431 493 492
f 432 492 491
f 433 490 494
f 433 494 434
f 434 494 495
f 434 495 435
f 435 495 496
f 435 496 497
f 435 497 498
f 435 498 463
f 435 463 436
f 436 463 438
f 437 439 499
f 437 499 441
f 439 461 500
f 439 500 488
f 439 488 499
f 440 501 502
f 440 502 447
f 440 447 446
f 440 445 503
f 440 503 504
f 440 504 505
f 440 505 501
f 441 499 506
f 441 506 507
f 441 507 442
f 442 507 443
f 443 508 444
f 443 507 508
f 444 508 509
f 444 509 486
f 444 486 510
f 444 510 445
f 445 510 511
f 445 511 512
f 445 512 503
f 447 502 501
f 447 501 513
f 447 513 514
f 447 514 449
f 447 449 448
f 449 514 515
f 451 483 482
f 451 482 516
f 451 516 456
f 451 456 453
f 451 453 452
f 453 456 454
f 455 475 476
f 456 516 457
f 457 516 482
f 457 482 517
f 457 517 458
f 458 517 459
f 459 517 518
f 459 518 519
f 459 519 520
f 459 520 521
f 459 521 523
f 459 523 460
f 460 522 461
f 460 523 522
f 461 522 500
f 463 498 464
f 464 498 497
f 464 497 524
f 464 524 525
f 464 525 526
f 464 526 527
f 464 527 528
f 464 528 466
f 464 466 465
f 466 528 529
f 466 529 467
f 467 529 530
f 467 530 531
f 467 531 468
f 468 531 532
f 468 532 533
f 468 533 469
f 469 533 471
f 469 471 470
f 471 534 535
f 471 535 472
f 471 533 531
f 471 531 534
f 472 535 534
f 476 478 477
f 479 536 484
f 480 537 481
f 480 489 538
f 480 538 539
f 480 539 540
f 480 540 537
f 481 537 541
f 481 541 482
f 482 541 542
f 482 542 543
f 482 543 517
f 484 536 544
f 484 544 545
f 484 545 512
f 484 512 485
f 485 512 511
f 485 511 510
f 485 510 486
f 486 509 546
f 486 546 487
f 487 546 509
f 487 509 506
f 487 506 499
f 487 499 488
f 488 500 547
f 488 547 489
f 489 547 538
f 491 492 548
f 491 548 494
f 492 493 496
f 492 496 548
f 493 549 550
f 493 550 551
f 493 551 552
f 493 552 553
f 493 553 496
f 494 548 496
f 494 496 495
f 496 553 525
f 496 525 524
f 496 524 497
f 500 522 523
f 500 523 540
f 500 540 554
f 500 554 539
f 500 539 547
f 501 505 513
f 503 512 504
f 504 512 555
f 504 555 556
f 504 556 505
f 505 556 557
f 505 557 558
f 505 558 559
f 505 559 513
f 506 509 508
f 506 508 507
f 512 545 555
f 513 559 515
f 513 515 514
f 515 559 558
f 515 558 560
f 517 543 518
f 518 543 542
f 518 542 519
f 519 542 537
f 519 537 540
f 519 540 561
f 519 561 521
f 519 521 520
f 521 561 523
f 523 561 540
f 525 553 562
f 525 562 564
f 525 564 563
f 525 563 526
f 526 563 564
f 526 564 565
f 526 565 527
f 527 566 567
f 527 567 528
f 527 565 568
f 527 568 566
f 528 567 529
f 529 567 569
f 529 569 570
f 529 570 530
f 530 570 531
f 531 570 571
f 531 571 534
f 531 533 532
f 537 542 541
f 538 547 539
f 539 554 540
f 544 572 545
f 545 572 555
f 549 573 550
f 550 573 568
f 550 568 565
f 550 565 551
f 551 565 552
f 552 565 564
f 552 564 562
f 552 562 553
f 555 572 556
f 556 560 558
f 556 558 557
f 556 572 560
f 566 574 567
f 566 568 574
f 567 574 575
f 567 575 576
f 567 576 577
f 567 577 578
f 567 578 579
f 567 579 570
f 567 570 569
f 568 573 580
f 568 580 581
f 568 581 582
f 568 582 575
f 568 575 574
f 570 583 571
f 570 579 583
f 571 583 584
f 575 585 576
f 575 582 585
f 576 585 578
f 576 578 577
f 578 585 586
f 578 586 587
f 578 587 579
f 579 587 583
f 583 587 584
f 585 588 586
f 586 588 587

