# https://github.com/mikedh/trimesh
v 0.01034540 0.02325858 -0.01951872
v 0.01034540 0.00540236 -0.01951872
v 0.01032717 0.02325858 -0.02579792
v 0.01031907 0.02325858 -0.01889012
v 0.01031907 0.00540236 -0.01889012
v 0.01032717 0.00540236 -0.02579792
v 0.01031299 0.02325858 -0.02642539
v 0.01020565 0.02325858 -0.01826265
v 0.01020767 0.01163001 -0.01826265
v 0.01020767 0.00540236 -0.01826265
v 0.01018742 0.00540236 -0.02634668
v 0.01020362 0.01795205 -0.02772306
v 0.01020970 0.01790835 -0.02768146
v 0.01027856 0.01790835 -0.02705399
v 0.01031299 0.01790835 -0.02642539
v 0.01027856 0.02325858 -0.02705399
v 0.01008210 0.02325858 -0.01787245
v 0.01008412 0.00974756 -0.01787020
v 0.01008412 0.00540236 -0.01787020
v 0.01011450 0.01732631 -0.02772306
v 0.01020160 0.01790835 -0.02772306
v 0.00973170 0.00540236 -0.02661543
v 0.01020565 0.01853759 -0.02772306
v 0.01021172 0.01853759 -0.02768146
v 0.01021375 0.02230599 -0.02768146
v 0.01021375 0.02325858 -0.02768146
v 0.00992007 0.02325858 -0.01755871
v 0.00992209 0.01539667 -0.01755646
v 0.00992209 0.00540236 -0.01755646
v 0.00995855 0.01705190 -0.02772306
v 0.00186302 0.00756447 -0.02772306
v 0.00219316 0.00783365 -0.02772306
v 0.00255976 0.00813428 -0.02772306
v 0.00287369 0.00841743 -0.02772306
v 0.00319371 0.00871108 -0.02772306
v 0.00321599 0.00873205 -0.02772306
v 0.00323624 0.00875128 -0.02772306
v 0.00352992 0.00904142 -0.02772306
v 0.00386209 0.00937701 -0.02772306
v 0.00415577 0.00968813 -0.02772306
v 0.00505708 0.01065121 -0.02772306
v 0.00540545 0.01106021 -0.02772306
v 0.00583281 0.01158981 -0.02772306
v -0.00126420 0.00540236 -0.02772306
v -0.00103736 0.00553345 -0.02772306
v -0.00101710 0.00554569 -0.02772306
v -0.00072342 0.00572397 -0.02772306
v -0.00033859 0.00597566 -0.02772306
v 0.00038043 0.00645633 -0.02772306
v 0.00085234 0.00678493 -0.02772306
v 0.00114603 0.00700516 -0.02772306
v 0.00152275 0.00729880 -0.02772306
v 0.01020565 0.02325858 -0.02772306
v 0.00992007 0.02167676 -0.01755759
v 0.00960613 0.02325858 -0.01708417
v 0.00960613 0.02167676 -0.01708193
v 0.00960815 0.01539667 -0.01708193
v 0.00963448 0.00540236 -0.01712128
v -0.01034610 0.00540236 -0.02772306
v -0.01034610 0.02325858 -0.02772306
v 0.00933270 0.02325858 -0.01677044
v 0.00960815 0.00540236 -0.01708193
v -0.01034610 0.00540236 -0.02077478
v -0.01034610 0.02325858 -0.02077478
v 0.00901876 0.02325858 -0.01652755
v 0.00922535 0.00540236 -0.01679405
v -0.01034407 0.00540236 -0.01951872
v -0.01034407 0.02325858 -0.01951872
v 0.00846785 0.02325858 -0.01629815
v 0.00919092 0.00540236 -0.01676819
v -0.01034205 0.00540236 -0.01946586
v -0.01031977 0.01602590 -0.01889012
v -0.01031774 0.02325858 -0.01889012
v 0.00784808 0.02325858 -0.01623968
v 0.00887698 0.00540236 -0.01667373
v 0.00890331 0.00540236 -0.01668160
v -0.01031977 0.00540236 -0.01889012
v -0.01020635 0.01979256 -0.01826265
v -0.01020432 0.02325858 -0.01826265
v 0.00847595 0.00540236 -0.01665462
v 0.00722021 0.02325858 -0.01623855
v -0.01020635 0.00540236 -0.01826265
v -0.01014153 0.02325858 -0.01806137
v -0.01019622 0.00540236 -0.01823004
v -0.01008280 0.01602590 -0.01787132
v -0.01008280 0.02230599 -0.01787245
v -0.01008280 0.02325858 -0.01787357
v -0.00408153 0.02325858 -0.01623518
v -0.00847665 0.00540236 -0.01665462
v -0.01008280 0.00540236 -0.01787132
v -0.01007064 0.00540236 -0.01784546
v -0.00999976 0.02325858 -0.01771052
v -0.00596516 0.02325858 -0.01623630
v -0.00744572 0.02325858 -0.01623743
v -0.00784878 0.02325858 -0.01623968
v -0.00807765 0.02325858 -0.01624642
v -0.00887768 0.00540236 -0.01667373
v -0.00992077 0.00540236 -0.01755759
v -0.00992077 0.01790835 -0.01755759
v -0.00992077 0.02325858 -0.01755871
v -0.00846855 0.02325858 -0.01629815
v -0.00919162 0.00540236 -0.01676819
v -0.00989646 0.00540236 -0.01751823
v -0.00960683 0.01916507 -0.01708193
v -0.00960683 0.02230599 -0.01708305
v -0.00960683 0.02293347 -0.01708417
v -0.00960683 0.02325858 -0.01708530
v -0.00873388 0.02325858 -0.01637799
v -0.00901946 0.02325858 -0.01652755
v -0.00917137 0.02325858 -0.01663325
v -0.00960683 0.00540236 -0.01708193
v -0.00946910 0.02325858 -0.01692225
v -0.00933340 0.02325858 -0.01677044
f 1 2 6
f 1 6 3
f 1 3 7
f 1 7 16
f 1 16 26
f 1 26 53
f 1 53 60
f 1 60 64
f 1 64 68
f 1 68 73
f 1 73 79
f 1 79 83
f 1 83 87
f 1 87 92
f 1 92 100
f 1 100 107
f 1 107 112
f 1 112 113
f 1 113 110
f 1 110 109
f 1 109 108
f 1 108 101
f 1 101 96
f 1 96 95
f 1 95 94
f 1 94 93
f 1 93 88
f 1 88 81
f 1 81 74
f 1 74 69
f 1 69 65
f 1 65 61
f 1 61 55
f 1 55 27
f 1 27 17
f 1 17 8
f 1 8 4
f 1 4 5
f 1 5 2
f 2 5 10
f 2 10 19
f 2 19 29
f 2 29 58
f 2 58 62
f 2 62 66
f 2 66 70
f 2 70 76
f 2 76 75
f 2 75 80
f 2 80 89
f 2 89 97
f 2 97 102
f 2 102 111
f 2 111 103
f 2 103 98
f 2 98 91
f 2 91 90
f 2 90 84
f 2 84 82
f 2 82 77
f 2 77 71
f 2 71 67
f 2 67 63
f 2 63 59
f 2 59 44
f 2 44 22
f 2 22 11
f 2 11 6
f 3 6 15
f 3 15 7
f 4 8 9
f 4 9 10
f 4 10 5
f 6 11 12
f 6 12 13
f 6 13 14
f 6 14 15
f 7 15 14
f 7 14 16
f 8 17 18
f 8 18 9
f 9 18 19
f 9 19 10
f 11 20 21
f 11 21 12
f 11 22 20
f 12 21 20
f 12 20 30
f 12 30 43
f 12 43 42
f 12 42 41
f 12 41 40
f 12 40 39
f 12 39 38
f 12 38 37
f 12 37 36
f 12 36 35
f 12 35 34
f 12 34 33
f 12 33 32
f 12 32 31
f 12 31 52
f 12 52 51
f 12 51 50
f 12 50 49
f 12 49 48
f 12 48 47
f 12 47 46
f 12 46 45
f 12 45 44
f 12 44 59
f 12 59 60
f 12 60 53
f 12 53 23
f 12 23 13
f 13 23 24
f 13 24 14
f 14 24 25
f 14 25 26
f 14 26 16
f 17 27 28
f 17 28 18
f 18 28 29
f 18 29 19
f 20 22 30
f 22 31 32
f 22 32 33
f 22 33 34
f 22 34 35
f 22 35 36
f 22 36 37
f 22 37 38
f 22 38 39
f 22 39 40
f 22 40 41
f 22 41 42
f 22 42 43
f 22 43 30
f 22 44 45
f 22 45 46
f 22 46 47
f 22 47 48
f 22 48 49
f 22 49 50
f 22 50 51
f 22 51 52
f 22 52 31
f 23 53 26
f 23 26 25
f 23 25 24
f 27 54 28
f 27 55 56
f 27 56 54
f 28 54 56
f 28 56 57
f 28 57 58
f 28 58 29
f 55 61 56
f 56 61 57
f 57 61 62
f 57 62 58
f 59 63 64
f 59 64 60
f 61 65 62
f 62 65 66
f 63 67 68
f 63 68 64
f 65 69 70
f 65 70 66
f 67 71 68
f 68 71 72
f 68 72 73
f 69 74 75
f 69 75 76
f 69 76 70
f 71 77 72
f 72 77 82
f 72 82 78
f 72 78 73
f 73 78 79
f 74 80 75
f 74 81 80
f 78 83 79
f 78 82 84
f 78 84 85
f 78 85 86
f 78 86 87
f 78 87 83
f 80 81 88
f 80 88 89
f 84 90 85
f 85 91 86
f 85 90 91
f 86 91 92
f 86 92 87
f 88 93 89
f 89 93 94
f 89 94 95
f 89 95 96
f 89 96 97
f 91 98 99
f 91 99 92
f 92 99 100
f 96 101 97
f 97 101 102
f 98 103 99
f 99 103 104
f 99 104 100
f 100 104 105
f 100 105 106
f 100 106 107
f 101 108 102
f 102 108 109
f 102 109 110
f 102 110 111
f 103 111 104
f 104 111 112
f 104 112 105
f 105 112 106
f 106 112 107
f 110 113 111
f 111 113 112

