# https://github.com/mikedh/trimesh
v 0.01034540 0.00144104 -0.01951733
v 0.01031907 0.00144104 -0.01888720
v 0.01034540 -0.00093014 -0.01951733
v 0.01034540 0.00144104 -0.03005165
v 0.01029477 0.00144104 -0.01874803
v 0.00771247 0.00017279 0.00183353
v 0.00799804 -0.00030224 0.00120340
v 0.00807095 -0.00030224 0.00057714
v 0.01031907 -0.00093014 -0.01888720
v 0.01033932 -0.00155754 -0.01951733
v 0.01034135 -0.00155754 -0.02014359
v 0.01034540 -0.00093014 -0.02328262
v 0.01034540 0.00095356 -0.02956456
v 0.01032312 0.00095356 -0.03019082
v 0.01033932 0.00144104 -0.03019082
v 0.01020768 0.00144104 -0.01826094
v 0.00722031 0.00029080 0.00245979
v 0.00763550 0.00012399 0.00245979
v 0.00788867 -0.00030224 0.00183353
v 0.00794741 -0.00093014 0.00120340
v 0.01030692 -0.00155754 -0.01888720
v 0.01025831 -0.00218594 -0.01951733
v 0.01027046 -0.00218594 -0.02014359
v 0.01034135 -0.00155754 -0.02265636
v 0.01033325 0.00032566 -0.02830817
v 0.01031705 0.00032566 -0.02893443
v 0.01020768 0.00027188 -0.02961095
v 0.01017325 0.00043919 -0.03019082
v 0.01011654 0.00056666 -0.03059287
v 0.01018337 0.00097248 -0.03080935
v 0.01031502 0.00144104 -0.03067791
v 0.01008413 0.00144104 -0.01786663
v 0.00659246 0.00030474 0.00371618
v 0.00705221 0.00013793 0.00371618
v 0.00724664 0.00017279 0.00307445
v 0.00756867 0.00005777 0.00285797
v 0.00772462 -0.00030224 0.00245979
v 0.00782589 -0.00093014 0.00183353
v 0.00775905 -0.00155754 0.00120340
v 0.01016920 -0.00224171 -0.01883694
v 0.01008616 -0.00256388 -0.01901477
v 0.01011451 -0.00261367 -0.01951733
v 0.01012464 -0.00263110 -0.02014359
v 0.01027046 -0.00218594 -0.02202623
v 0.01024413 -0.00218594 -0.02265636
v 0.01016717 -0.00010058 -0.02893443
v 0.01011654 -0.00004929 -0.02943699
v 0.00973172 0.00002889 -0.02984290
v 0.00973172 0.00023155 -0.03019082
v 0.00973172 0.00052832 -0.03063539
v 0.00973172 0.00084152 -0.03094852
v 0.01010439 0.00119406 -0.03118820
v 0.01016920 0.00144104 -0.03117660
v 0.01028262 0.00144104 -0.03081708
v 0.00992211 0.00144104 -0.01755350
v 0.00596460 0.00034309 0.00434244
v 0.00600106 0.00021014 0.00500736
v 0.00660664 0.00017777 0.00433084
v 0.00695499 0.00006872 0.00411049
v 0.00758082 -0.00030224 0.00288503
v 0.00719398 -0.00030224 0.00371618
v 0.00744310 -0.00030224 0.00319816
v 0.00756057 -0.00074839 0.00283864
v 0.00763753 -0.00094707 0.00249458
v 0.00758690 -0.00137480 0.00230902
v 0.00763550 -0.00157348 0.00180647
v 0.00754842 -0.00189515 0.00158225
v 0.00758285 -0.00194843 0.00120340
v 0.00987957 -0.00292787 -0.01951733
v 0.00989983 -0.00294530 -0.02014359
v 0.00990185 -0.00294530 -0.02077371
v 0.01012464 -0.00263110 -0.02202623
v 0.01009628 -0.00257782 -0.02265636
v 0.01006185 -0.00251607 -0.02298882
v 0.00947653 -0.00315543 -0.02237802
v 0.00910387 0.00002291 -0.02984676
v 0.00910387 0.00022408 -0.03019082
v 0.00910387 0.00052683 -0.03063925
v 0.00910387 0.00083953 -0.03095239
v 0.00973172 0.00115522 -0.03121913
v 0.00973172 0.00144104 -0.03137376
v 0.00986742 0.00144104 -0.03135443
v 0.01014287 0.00144104 -0.03125005
v 0.00960818 0.00144104 -0.01707800
v 0.00533675 0.00034508 0.00497257
v 0.00538333 0.00021163 0.00564522
v 0.00934286 0.00144104 -0.01676487
v 0.00824918 0.00144104 -0.01553941
v 0.00581676 0.00012300 0.00546739
v 0.00640613 0.00012001 0.00482180
v 0.00646284 -0.00030224 0.00489525
v 0.00677676 -0.00030224 0.00445068
v 0.00697322 -0.00030224 0.00413755
v 0.00694689 -0.00079819 0.00409503
v 0.00708461 -0.00097645 0.00377417
v 0.00751804 -0.00116666 0.00272653
v 0.00742690 -0.00094707 0.00306286
v 0.00749981 -0.00179357 0.00199976
v 0.00743702 -0.00157348 0.00249458
v 0.00732158 -0.00213714 0.00180647
v 0.00698132 -0.00257682 0.00183353
v 0.00956565 -0.00324107 -0.01951733
v 0.00958590 -0.00325900 -0.02014359
v 0.00958793 -0.00325950 -0.02077371
v 0.00988565 -0.00294530 -0.02139997
v 0.00984514 -0.00294530 -0.02202623
v -0.00938539 -0.00315593 -0.02237802
v 0.00953122 -0.00318929 -0.02202623
v 0.00847602 -0.00362648 -0.02014359
v 0.00659246 -0.00360357 -0.02077371
v 0.00596460 -0.00351145 -0.02139997
v -0.00910590 0.00002291 -0.02984676
v -0.00910590 0.00022408 -0.03019082
v -0.00910590 0.00052683 -0.03063925
v -0.00910590 0.00083953 -0.03095239
v 0.00910387 0.00115373 -0.03121913
v 0.00910387 0.00144104 -0.03138535
v 0.00470890 0.00034508 0.00559883
v 0.00408105 0.00033213 0.00622895
v 0.00473118 0.00020117 0.00625988
v 0.00520511 0.00012300 0.00607046
v 0.00780361 0.00144104 -0.01516056
v 0.00560410 -0.00030224 0.00586943
v 0.00589574 -0.00030224 0.00555630
v 0.00620967 -0.00030224 0.00520838
v 0.00642031 -0.00093014 0.00484113
v 0.00690031 -0.00121596 0.00401771
v 0.00676664 -0.00097645 0.00431924
v 0.00699752 -0.00155754 0.00357314
v 0.00721626 -0.00155754 0.00308992
v 0.00692056 -0.00189365 0.00343011
v 0.00699145 -0.00199324 0.00308992
v 0.00708461 -0.00220686 0.00243660
v 0.00693069 -0.00252454 0.00220851
v 0.00655195 -0.00292887 0.00184899
v 0.00631701 -0.00315144 0.00164797
v 0.00910387 -0.00347112 -0.01951733
v 0.00910387 -0.00350548 -0.02014359
v 0.00957172 -0.00323410 -0.02139997
v -0.00947856 -0.00315593 -0.02237802
v 0.00722031 -0.00364141 -0.01951733
v 0.00659246 -0.00364540 -0.02014359
v 0.00596460 -0.00362150 -0.02077371
v 0.00847602 -0.00360706 -0.01951733
v 0.00533675 -0.00350996 0.00183353
v 0.00470890 -0.00361552 0.00183353
v 0.00408105 -0.00364341 0.00183353
v 0.00408105 -0.00364540 0.00120340
v -0.00596461 -0.00351145 -0.02139997
v -0.00973375 0.00002889 -0.02984290
v -0.00973375 0.00023155 -0.03019082
v -0.00973375 0.00052832 -0.03063539
v -0.00973375 0.00084152 -0.03094852
v -0.00973375 0.00115522 -0.03121913
v -0.00910590 0.00115373 -0.03121913
v -0.00910590 0.00144104 -0.03138535
v 0.00282534 0.00033960 0.00685521
v 0.00345319 0.00027088 0.00685521
v 0.00403244 0.00014640 0.00685135
v 0.00453675 0.00010507 0.00663873
v 0.00529017 -0.00030224 0.00614004
v 0.00722031 0.00144104 -0.01495567
v 0.00555144 -0.00093014 0.00581918
v 0.00585321 -0.00093014 0.00550605
v 0.00523751 -0.00093014 0.00609752
v 0.00616714 -0.00093014 0.00515426
v 0.00634942 -0.00139671 0.00474835
v 0.00682132 -0.00155754 0.00388627
v 0.00650537 -0.00158692 0.00438110
v 0.00624613 -0.00181548 0.00461304
v 0.00637980 -0.00200370 0.00419167
v 0.00656815 -0.00215806 0.00367365
v 0.00633727 -0.00255292 0.00349969
v 0.00675043 -0.00230694 0.00308992
v 0.00684765 -0.00242993 0.00262989
v 0.00643651 -0.00264156 0.00308992
v 0.00662081 -0.00271176 0.00243660
v 0.00625018 -0.00311161 0.00206548
v 0.00585726 -0.00323111 0.00245979
v 0.00600916 -0.00326298 0.00184899
v -0.00953324 -0.00318929 -0.02202623
v -0.00984717 -0.00294480 -0.02202623
v -0.01009831 -0.00257732 -0.02265636
v -0.01006185 -0.00251607 -0.02298882
v -0.01011654 -0.00004929 -0.02943699
v -0.00659246 -0.00360357 -0.02077371
v -0.00847804 -0.00362648 -0.02014359
v 0.00659246 -0.00364540 -0.01951733
v -0.00659246 -0.00364540 -0.02014359
v -0.00596461 -0.00362150 -0.02077371
v 0.00533675 -0.00343427 0.00245979
v 0.00470890 -0.00350996 0.00308992
v 0.00470890 -0.00358017 0.00245979
v 0.00408105 -0.00360706 0.00308992
v 0.00408105 -0.00363544 0.00245979
v 0.00345319 -0.00363992 0.00308992
v 0.00345319 -0.00364540 0.00245979
v -0.01011654 0.00056666 -0.03059287
v -0.01010439 0.00119406 -0.03118820
v -0.00973375 0.00144104 -0.03137376
v 0.00031190 0.00034010 0.00748534
v 0.00093975 0.00032665 0.00748534
v 0.00156963 0.00028333 0.00748534
v 0.00282534 0.00017279 0.00738483
v 0.00345319 0.00010407 0.00726112
v 0.00379142 0.00003138 0.00718381
v 0.00459751 -0.00030224 0.00667739
v 0.00491143 -0.00030224 0.00645317
v -0.00689828 0.00144104 -0.01495567
v 0.00513624 -0.00142758 0.00600860
v 0.00576005 -0.00144899 0.00540553
v 0.00485067 -0.00093014 0.00641065
v 0.00600309 -0.00163224 0.00501509
v 0.00564865 -0.00186776 0.00528183
v 0.00582688 -0.00206494 0.00486432
v 0.00563448 -0.00248371 0.00463624
v 0.00601726 -0.00224370 0.00441589
v 0.00620967 -0.00242246 0.00391720
v 0.00579043 -0.00261766 0.00421873
v 0.00598688 -0.00272222 0.00371231
v 0.00595853 -0.00298364 0.00313244
v 0.00617119 -0.00306032 0.00245979
v 0.00574587 -0.00317883 0.00295075
v 0.00538738 -0.00328340 0.00313244
v -0.00910590 -0.00350548 -0.02014359
v -0.00957172 -0.00323410 -0.02139997
v -0.01012464 -0.00263060 -0.02202623
v -0.00958793 -0.00325900 -0.02077371
v -0.00988768 -0.00294480 -0.02139997
v -0.01024414 -0.00218594 -0.02265636
v -0.01016920 -0.00010058 -0.02893443
v -0.01020768 0.00027188 -0.02961095
v -0.01017325 0.00043919 -0.03019082
v -0.00847804 -0.00360706 -0.01951733
v -0.00722234 -0.00364141 -0.01951733
v -0.00408105 -0.00364540 0.00120340
v -0.00408105 -0.00364341 0.00183353
v -0.00470890 -0.00361552 0.00183353
v -0.00533675 -0.00350946 0.00183353
v -0.00659246 -0.00364540 -0.01951733
v 0.00470890 -0.00338597 0.00371618
v 0.00408105 -0.00353685 0.00371618
v 0.00345319 -0.00361104 0.00371618
v 0.00282534 -0.00363893 0.00371618
v 0.00219749 -0.00364540 0.00371618
v 0.00282534 -0.00364540 0.00308992
v -0.01032312 0.00095356 -0.03019082
v -0.01018337 0.00097248 -0.03080935
v -0.01014287 0.00144104 -0.03125005
v -0.00031393 0.00034010 0.00748534
v 0.00031190 0.00017329 0.00795697
v 0.00093975 0.00015984 0.00793377
v 0.00156963 0.00011652 0.00788352
v 0.00202128 0.00005827 0.00782940
v 0.00379142 -0.00030224 0.00718381
v 0.00410535 -0.00030224 0.00699438
v 0.00282534 -0.00030224 0.00759745
v 0.00345319 -0.00030224 0.00733844
v 0.00377522 -0.00064184 0.00717608
v 0.00453472 -0.00093014 0.00663873
v -0.00722234 0.00144104 -0.01495954
v 0.00500460 -0.00184635 0.00590036
v 0.00539144 -0.00164767 0.00565295
v 0.00445573 -0.00133546 0.00658461
v 0.00472915 -0.00159091 0.00624442
v 0.00517878 -0.00218594 0.00543260
v 0.00502485 -0.00250064 0.00528570
v 0.00551498 -0.00223872 0.00503442
v 0.00535093 -0.00283824 0.00436177
v 0.00516865 -0.00260570 0.00497257
v 0.00551296 -0.00305186 0.00371618
v 0.00563043 -0.00311758 0.00337212
v 0.00519903 -0.00320771 0.00371618
v -0.00910590 -0.00347162 -0.01951733
v -0.00956767 -0.00324157 -0.01951733
v -0.00958793 -0.00325900 -0.02014359
v -0.01027046 -0.00218594 -0.02202623
v -0.00990185 -0.00294480 -0.02077371
v -0.01012464 -0.00263060 -0.02014359
v -0.01034135 -0.00155754 -0.02265636
v -0.01031097 -0.00155754 -0.02328262
v -0.01031705 0.00032566 -0.02893443
v -0.00345319 -0.00364540 0.00245979
v -0.00345319 -0.00363992 0.00308992
v -0.00408105 -0.00363544 0.00245979
v -0.00408105 -0.00360706 0.00308992
v -0.00470890 -0.00357967 0.00245979
v -0.00470890 -0.00350996 0.00308992
v -0.00533675 -0.00343427 0.00245979
v -0.00601119 -0.00326298 0.00184513
v 0.00506941 -0.00314995 0.00408729
v 0.00468865 -0.00321817 0.00431538
v 0.00408105 -0.00340141 0.00434244
v 0.00345319 -0.00352938 0.00434244
v 0.00282534 -0.00360058 0.00434244
v 0.00219749 -0.00363046 0.00434244
v 0.00156963 -0.00364042 0.00434244
v -0.00219749 -0.00364540 0.00371618
v -0.01034540 0.00095356 -0.02956456
v -0.01033933 0.00144104 -0.03019082
v -0.01028262 0.00144104 -0.03081708
v -0.00282534 0.00033960 0.00685521
v -0.00094178 0.00032665 0.00748534
v -0.00031393 0.00017329 0.00795697
v -0.00738234 0.00144104 -0.01496727
v 0.00031190 -0.00030224 0.00810773
v 0.00093975 -0.00030224 0.00805748
v 0.00156963 -0.00030224 0.00795697
v 0.00206584 -0.00030224 0.00784100
v 0.00237977 -0.00030224 0.00775981
v 0.00282534 -0.00093014 0.00752786
v 0.00346534 -0.00088284 0.00726499
v 0.00368205 -0.00106010 0.00712969
v 0.00402231 -0.00088284 0.00697119
v 0.00429776 -0.00175423 0.00648023
v 0.00458535 -0.00205249 0.00606272
v 0.00435447 -0.00247076 0.00588490
v 0.00476156 -0.00223125 0.00576119
v 0.00408510 -0.00155008 0.00670831
v 0.00470890 -0.00259973 0.00542100
v 0.00468865 -0.00291542 0.00494937
v 0.00488308 -0.00305883 0.00450480
v -0.00631701 -0.00315144 0.00164797
v -0.00988160 -0.00292737 -0.01951733
v -0.00698132 -0.00257682 0.00183353
v -0.00990185 -0.00294480 -0.02014359
v -0.01027046 -0.00218594 -0.02014359
v -0.01011451 -0.00261317 -0.01951733
v -0.01025831 -0.00218594 -0.01951733
v -0.01034540 -0.00093014 -0.02328262
v -0.01033325 0.00032566 -0.02830817
v -0.01034135 -0.00155754 -0.02014359
v -0.00282534 -0.00364540 0.00308992
v -0.00282534 -0.00363893 0.00371618
v -0.00345319 -0.00361104 0.00371618
v -0.00408105 -0.00353685 0.00371618
v -0.00470890 -0.00338548 0.00371618
v -0.00585726 -0.00323111 0.00245979
v -0.00538739 -0.00328340 0.00313244
v 0.00446586 -0.00315792 0.00472515
v 0.00404054 -0.00321120 0.00494937
v 0.00345319 -0.00336456 0.00497257
v 0.00282534 -0.00348606 0.00497257
v 0.00219749 -0.00355726 0.00497257
v 0.00156963 -0.00358216 0.00497257
v -0.00156963 -0.00364042 0.00434244
v -0.01034540 0.00144104 -0.02956456
v -0.00408105 0.00033163 0.00622895
v -0.00345319 0.00027088 0.00685521
v -0.00156963 0.00028831 0.00748534
v -0.00780361 0.00144104 -0.01516056
v -0.00094178 0.00015984 0.00793377
v -0.00031393 -0.00030224 0.00810387
v -0.00031393 -0.00093014 0.00803815
v 0.00031190 -0.00093014 0.00803815
v 0.00093975 -0.00093014 0.00798790
v 0.00159394 -0.00094707 0.00787965
v 0.00198685 -0.00074889 0.00782167
v 0.00219749 -0.00094707 0.00773275
v 0.00219749 -0.00155754 0.00753560
v 0.00283547 -0.00157447 0.00731524
v 0.00326281 -0.00137630 0.00722633
v 0.00346534 -0.00157447 0.00703691
v 0.00387851 -0.00196237 0.00660780
v 0.00411750 -0.00221681 0.00625215
v 0.00358484 -0.00238113 0.00644157
v 0.00393522 -0.00259176 0.00602020
v 0.00407902 -0.00282131 0.00559883
v 0.00422282 -0.00305086 0.00514266
v -0.00625018 -0.00311161 0.00206548
v -0.00655398 -0.00292887 0.00184513
v -0.01008616 -0.00256388 -0.01901477
v -0.00758487 -0.00194793 0.00120340
v -0.00693069 -0.00252404 0.00220851
v -0.00732158 -0.00213665 0.00180647
v -0.01033933 -0.00155754 -0.01951733
v -0.01016920 -0.00224121 -0.01883694
v -0.01030692 -0.00155754 -0.01888720
v -0.01034540 -0.00093014 -0.01951733
v -0.00219749 -0.00363046 0.00434244
v -0.00282534 -0.00360058 0.00434244
v -0.00345319 -0.00352938 0.00434244
v -0.00408105 -0.00340141 0.00434244
v -0.00519903 -0.00320771 0.00371618
v -0.00468865 -0.00321817 0.00431538
v -0.00506941 -0.00314995 0.00408729
v -0.00574587 -0.00317883 0.00295075
v -0.00563043 -0.00311758 0.00337212
v 0.00380357 -0.00314248 0.00531276
v 0.00345319 -0.00319277 0.00542100
v 0.00282129 -0.00325302 0.00562975
v 0.00219749 -0.00338199 0.00559883
v -0.00156963 -0.00358216 0.00497257
v 0.00156963 -0.00340639 0.00559883
v -0.01034540 0.00144104 -0.01951733
v -0.00470890 0.00034508 0.00559883
v -0.00538334 0.00021163 0.00564522
v -0.00473118 0.00020117 0.00625988
v -0.00403244 0.00014590 0.00685135
v -0.00345319 0.00010407 0.00726112
v -0.00282534 0.00017279 0.00738483
v -0.00156963 0.00012150 0.00788738
v -0.00810133 0.00144104 -0.01540797
v -0.00094178 -0.00030224 0.00805748
v -0.00094178 -0.00093014 0.00798790
v -0.00094178 -0.00141912 0.00786419
v -0.00031393 -0.00147439 0.00788738
v 0.00031190 -0.00147439 0.00788738
v 0.00093975 -0.00141912 0.00786419
v 0.00140153 -0.00133447 0.00783326
v 0.00182077 -0.00116716 0.00778301
v 0.00159394 -0.00154958 0.00769409
v 0.00219749 -0.00204254 0.00728432
v 0.00263091 -0.00194345 0.00721860
v 0.00305015 -0.00179456 0.00713355
v 0.00340661 -0.00217748 0.00669285
v 0.00316559 -0.00251359 0.00655755
v 0.00345319 -0.00301750 0.00573413
v 0.00340661 -0.00267143 0.00622895
v -0.00617119 -0.00306032 0.00245979
v -0.00662081 -0.00271176 0.00243660
v -0.00776108 -0.00155754 0.00120340
v -0.00754842 -0.00189465 0.00157839
v -0.00643651 -0.00264106 0.00308992
v -0.00684765 -0.00242993 0.00262989
v -0.00708462 -0.00220686 0.00243660
v -0.00749981 -0.00179307 0.00199976
v -0.01031907 -0.00093014 -0.01888720
v -0.00794741 -0.00093014 0.00120340
v -0.00799804 -0.00030224 0.00120340
v -0.00807095 -0.00030224 0.00057714
v -0.01032515 0.00144104 -0.01903023
v -0.00219749 -0.00355726 0.00497257
v -0.00282534 -0.00348606 0.00497257
v -0.00345319 -0.00336406 0.00497257
v -0.00404054 -0.00321120 0.00494937
v -0.00446586 -0.00315792 0.00472129
v -0.00551296 -0.00305136 0.00371618
v -0.00488510 -0.00305883 0.00450480
v -0.00535093 -0.00283824 0.00436177
v -0.00595853 -0.00298364 0.00313244
v -0.00598689 -0.00272172 0.00371231
v 0.00302990 -0.00309816 0.00585784
v 0.00261065 -0.00315244 0.00595448
v 0.00219749 -0.00319626 0.00603953
v -0.00156963 -0.00340639 0.00559883
v 0.00156963 -0.00320572 0.00607046
v -0.00156963 -0.00320622 0.00607046
v -0.00533675 0.00034508 0.00497257
v -0.00825121 0.00144104 -0.01553941
v -0.00520713 0.00012300 0.00607046
v -0.00596461 0.00034309 0.00434244
v -0.00600106 0.00021014 0.00500736
v -0.00581676 0.00012300 0.00546739
v -0.00453675 0.00010507 0.00663873
v -0.00379142 0.00003088 0.00718381
v -0.00202938 0.00006474 0.00783713
v -0.00156963 -0.00030224 0.00796083
v -0.00159394 -0.00094707 0.00787965
v -0.00140153 -0.00133447 0.00783326
v -0.00094178 -0.00173282 0.00771342
v 0.00093975 -0.00173282 0.00771342
v 0.00153318 -0.00221632 0.00733457
v 0.00171748 -0.00244636 0.00712582
v 0.00219749 -0.00235624 0.00705624
v 0.00283547 -0.00216602 0.00696732
v 0.00282534 -0.00258081 0.00662713
v 0.00282129 -0.00292339 0.00619029
v -0.00763551 -0.00157348 0.00180647
v -0.00782589 -0.00093014 0.00183353
v -0.00633727 -0.00255292 0.00349969
v -0.00675044 -0.00230644 0.00308992
v -0.00699145 -0.00199274 0.00308992
v -0.00743905 -0.00157348 0.00249458
v -0.00758690 -0.00137430 0.00230902
v -0.01031907 0.00144104 -0.01888720
v -0.00788867 -0.00030224 0.00183353
v -0.00763551 0.00012399 0.00245979
v -0.00771449 0.00017279 0.00183353
v -0.00219749 -0.00338149 0.00559883
v -0.00282331 -0.00325302 0.00562975
v -0.00345319 -0.00319277 0.00542100
v -0.00380358 -0.00314248 0.00531276
v -0.00422282 -0.00305036 0.00514266
v -0.00468865 -0.00291492 0.00494937
v -0.00579043 -0.00261766 0.00421873
v -0.00516865 -0.00260570 0.00497257
v -0.00563448 -0.00248371 0.00463624
v 0.00219749 -0.00299957 0.00635266
v 0.00156963 -0.00303144 0.00638745
v -0.00219749 -0.00319626 0.00603953
v -0.00156963 -0.00303144 0.00638745
v -0.00934286 0.00144104 -0.01676487
v -0.00560410 -0.00030224 0.00586943
v -0.00529017 -0.00030224 0.00614004
v -0.00659246 0.00030474 0.00371618
v -0.00960818 0.00144104 -0.01708187
v -0.00992211 0.00144104 -0.01755350
v -0.00660664 0.00017777 0.00432698
v -0.00640613 0.00012001 0.00482180
v -0.00589574 -0.00030224 0.00555630
v -0.00491143 -0.00030224 0.00645317
v -0.00459751 -0.00030224 0.00667739
v -0.00410535 -0.00030224 0.00699052
v -0.00379142 -0.00030224 0.00718381
v -0.00345319 -0.00030224 0.00733457
v -0.00282534 -0.00030224 0.00759745
v -0.00238584 -0.00030224 0.00775595
v -0.00206989 -0.00030224 0.00784486
v -0.00198685 -0.00074839 0.00782167
v -0.00182078 -0.00116666 0.00778301
v -0.00219749 -0.00155754 0.00753560
v -0.00159394 -0.00154908 0.00769409
v -0.00153318 -0.00221632 0.00733457
v -0.00130026 -0.00251110 0.00717994
v 0.00130026 -0.00251110 0.00717994
v 0.00219749 -0.00268587 0.00674310
v -0.00763753 -0.00094608 0.00249458
v -0.00772462 -0.00030224 0.00245979
v -0.00620967 -0.00242197 0.00391720
v -0.00656816 -0.00215806 0.00367365
v -0.00692056 -0.00189365 0.00343011
v -0.00751804 -0.00116567 0.00272653
v -0.00721626 -0.00155754 0.00308992
v -0.01020768 0.00144104 -0.01826094
v -0.00757070 0.00005777 0.00285797
v -0.00705424 0.00013793 0.00371618
v -0.00722234 0.00029080 0.00245979
v -0.00261065 -0.00315244 0.00595448
v -0.00302990 -0.00309816 0.00585784
v -0.00345319 -0.00301750 0.00573413
v -0.00407902 -0.00282131 0.00559883
v -0.00470890 -0.00259973 0.00542100
v -0.00502485 -0.00250064 0.00528570
v -0.00551498 -0.00223872 0.00503442
v -0.00564865 -0.00186726 0.00528183
v -0.00582688 -0.00206494 0.00486432
v -0.00624613 -0.00181498 0.00461304
v -0.00601929 -0.00224370 0.00441589
v -0.00219749 -0.00299957 0.00635266
v -0.00585321 -0.00093014 0.00550605
v -0.00555144 -0.00093014 0.00581918
v -0.00523751 -0.00093014 0.00609752
v -0.01008413 0.00144104 -0.01787049
v -0.00695499 0.00006872 0.00411049
v -0.00646284 -0.00030224 0.00489525
v -0.00620967 -0.00030224 0.00520838
v -0.00485067 -0.00093014 0.00641065
v -0.00453675 -0.00093014 0.00663873
v -0.00377522 -0.00064084 0.00717608
v -0.00282534 -0.00093014 0.00752786
v -0.00219749 -0.00094707 0.00773275
v -0.00283547 -0.00157398 0.00731524
v -0.00263293 -0.00194295 0.00721860
v -0.00219749 -0.00204204 0.00728432
v -0.00171748 -0.00244587 0.00712582
v -0.00219749 -0.00268537 0.00674310
v -0.00756057 -0.00074740 0.00283864
v -0.00758082 -0.00030224 0.00288503
v -0.00637980 -0.00200370 0.00419167
v -0.00682132 -0.00155754 0.00388627
v -0.00699753 -0.00155754 0.00356928
v -0.00742690 -0.00094608 0.00306286
v -0.00690031 -0.00121496 0.00401771
v -0.00744310 -0.00030224 0.00319816
v -0.00719398 -0.00030224 0.00371618
v -0.00282331 -0.00292339 0.00619029
v -0.00316560 -0.00251359 0.00655755
v -0.00340661 -0.00267093 0.00622895
v -0.00393522 -0.00259176 0.00602020
v -0.00435447 -0.00247076 0.00588490
v -0.00476156 -0.00223125 0.00576119
v -0.00500460 -0.00184585 0.00590036
v -0.00517878 -0.00218594 0.00543260
v -0.00539144 -0.00164717 0.00565295
v -0.00576005 -0.00144899 0.00540553
v -0.00600309 -0.00163174 0.00501509
v -0.00635144 -0.00139621 0.00474835
v -0.00650537 -0.00158642 0.00437723
v -0.00282534 -0.00258081 0.00662713
v -0.00616714 -0.00093014 0.00515426
v -0.00513625 -0.00142708 0.00600860
v -0.00697322 -0.00030224 0.00413755
v -0.00677676 -0.00030224 0.00445068
v -0.00642233 -0.00093014 0.00484113
v -0.00445573 -0.00133497 0.00658461
v -0.00402434 -0.00088234 0.00697119
v -0.00368206 -0.00105961 0.00712969
v -0.00346535 -0.00088234 0.00726499
v -0.00326484 -0.00137580 0.00722633
v -0.00305015 -0.00179456 0.00713355
v -0.00283547 -0.00216602 0.00696732
v -0.00219749 -0.00235574 0.00705624
v -0.00708462 -0.00097595 0.00377417
v -0.00676664 -0.00097595 0.00431924
v -0.00694689 -0.00079669 0.00409503
v -0.00358484 -0.00238064 0.00644157
v -0.00340661 -0.00217698 0.00669285
v -0.00411750 -0.00221632 0.00625215
v -0.00458738 -0.00205200 0.00606272
v -0.00429776 -0.00175373 0.00648023
v -0.00473118 -0.00159041 0.00624442
v -0.00408712 -0.00154958 0.00670831
v -0.00346535 -0.00157398 0.00703691
v -0.00388054 -0.00196237 0.00660780
f 1 2 9
f 1 9 3
f 1 3 12
f 1 12 13
f 1 13 4
f 1 4 15
f 1 15 31
f 1 31 54
f 1 54 53
f 1 53 83
f 1 83 82
f 1 82 81
f 1 81 117
f 1 117 156
f 1 156 200
f 1 200 249
f 1 249 301
f 1 301 300
f 1 300 347
f 1 347 395
f 1 395 432
f 1 432 476
f 1 476 525
f 1 525 544
f 1 544 498
f 1 498 497
f 1 497 493
f 1 493 450
f 1 450 403
f 1 403 351
f 1 351 305
f 1 305 261
f 1 261 209
f 1 209 162
f 1 162 122
f 1 122 88
f 1 88 87
f 1 87 84
f 1 84 55
f 1 55 32
f 1 32 16
f 1 16 5
f 1 5 2
f 2 5 6
f 2 6 7
f 2 7 8
f 2 8 9
f 3 9 10
f 3 10 11
f 3 11 24
f 3 24 12
f 4 13 14
f 4 14 15
f 5 16 6
f 6 17 18
f 6 18 7
f 6 16 17
f 7 18 19
f 7 19 20
f 7 20 21
f 7 21 8
f 8 21 9
f 9 21 10
f 10 22 23
f 10 23 11
f 10 21 22
f 11 23 44
f 11 44 24
f 12 24 13
f 13 25 26
f 13 26 14
f 13 24 25
f 14 26 27
f 14 27 28
f 14 28 29
f 14 29 30
f 14 30 31
f 14 31 15
f 16 32 17
f 17 33 34
f 17 34 35
f 17 35 18
f 17 32 33
f 18 35 34
f 18 34 36
f 18 36 19
f 19 36 37
f 19 37 38
f 19 38 20
f 20 38 39
f 20 39 40
f 20 40 21
f 21 40 22
f 22 40 41
f 22 41 42
f 22 42 43
f 22 43 23
f 23 43 72
f 23 72 44
f 24 44 45
f 24 45 26
f 24 26 25
f 26 46 27
f 26 45 46
f 27 46 47
f 27 47 28
f 28 47 29
f 29 47 48
f 29 48 49
f 29 49 50
f 29 50 51
f 29 51 52
f 29 52 30
f 30 52 53
f 30 53 54
f 30 54 31
f 32 55 33
f 33 56 57
f 33 57 58
f 33 58 34
f 33 55 56
f 34 58 59
f 34 59 36
f 36 60 37
f 36 59 61
f 36 61 62
f 36 62 60
f 37 60 63
f 37 63 64
f 37 64 38
f 38 64 65
f 38 65 66
f 38 66 39
f 39 66 67
f 39 67 68
f 39 68 41
f 39 41 40
f 41 69 42
f 41 68 69
f 42 69 70
f 42 70 43
f 43 70 71
f 43 71 72
f 44 72 45
f 45 72 73
f 45 73 46
f 46 73 47
f 47 73 74
f 47 74 75
f 47 75 48
f 48 76 49
f 48 75 76
f 49 77 50
f 49 76 77
f 50 77 78
f 50 78 79
f 50 79 51
f 51 79 80
f 51 80 52
f 52 80 81
f 52 81 82
f 52 82 83
f 52 83 53
f 55 84 56
f 56 85 86
f 56 86 57
f 56 84 87
f 56 87 88
f 56 88 85
f 57 89 90
f 57 90 58
f 57 86 89
f 58 90 59
f 59 90 91
f 59 91 92
f 59 92 93
f 59 93 61
f 60 62 63
f 61 93 94
f 61 94 95
f 61 95 62
f 62 95 63
f 63 96 64
f 63 95 97
f 63 97 96
f 64 96 65
f 65 98 66
f 65 96 99
f 65 99 98
f 66 98 67
f 67 98 100
f 67 100 68
f 68 100 101
f 68 101 69
f 69 102 103
f 69 103 70
f 69 101 102
f 70 103 104
f 70 104 71
f 71 104 105
f 71 105 72
f 72 106 73
f 72 105 106
f 73 106 75
f 73 75 74
f 75 107 76
f 75 106 108
f 75 108 109
f 75 109 110
f 75 110 111
f 75 111 107
f 76 112 113
f 76 113 77
f 76 107 140
f 76 140 112
f 77 113 114
f 77 114 78
f 78 114 115
f 78 115 79
f 79 115 155
f 79 155 116
f 79 116 80
f 80 116 117
f 80 117 81
f 85 118 86
f 85 88 118
f 86 118 119
f 86 119 120
f 86 120 121
f 86 121 89
f 88 122 118
f 89 121 123
f 89 123 124
f 89 124 90
f 90 124 125
f 90 125 91
f 91 126 92
f 91 125 166
f 91 166 126
f 92 126 94
f 92 94 93
f 94 127 95
f 94 126 128
f 94 128 127
f 95 127 97
f 96 97 127
f 96 127 129
f 96 129 130
f 96 130 99
f 98 99 131
f 98 131 132
f 98 132 133
f 98 133 100
f 99 130 131
f 100 133 134
f 100 134 101
f 101 134 135
f 101 135 136
f 101 136 102
f 102 137 138
f 102 138 103
f 102 136 137
f 103 138 104
f 104 138 139
f 104 139 106
f 104 106 105
f 106 139 108
f 107 111 149
f 107 149 140
f 108 139 138
f 108 138 109
f 109 141 142
f 109 142 143
f 109 143 110
f 109 138 144
f 109 144 145
f 109 145 146
f 109 146 147
f 109 147 148
f 109 148 141
f 110 143 111
f 111 143 190
f 111 190 149
f 112 150 151
f 112 151 113
f 112 140 150
f 113 151 152
f 113 152 114
f 114 152 115
f 115 152 153
f 115 153 154
f 115 154 155
f 116 155 156
f 116 156 117
f 118 122 119
f 119 122 157
f 119 157 158
f 119 158 120
f 120 158 159
f 120 159 160
f 120 160 121
f 121 160 161
f 121 161 123
f 122 162 157
f 123 163 164
f 123 164 124
f 123 161 165
f 123 165 163
f 124 164 125
f 125 164 166
f 126 166 167
f 126 167 128
f 127 168 129
f 127 128 167
f 127 167 169
f 127 169 168
f 129 168 131
f 129 131 130
f 131 168 170
f 131 170 171
f 131 171 172
f 131 172 173
f 131 173 174
f 131 174 132
f 132 174 175
f 132 175 133
f 133 175 134
f 134 175 176
f 134 176 177
f 134 177 135
f 135 177 178
f 135 178 136
f 136 178 179
f 136 179 180
f 136 180 137
f 137 180 145
f 137 145 138
f 138 145 144
f 140 181 182
f 140 182 183
f 140 183 184
f 140 184 185
f 140 185 150
f 140 149 186
f 140 186 187
f 140 187 181
f 141 188 142
f 141 148 188
f 142 188 148
f 142 148 197
f 142 197 246
f 142 246 245
f 142 245 298
f 142 298 333
f 142 333 283
f 142 283 236
f 142 236 240
f 142 240 189
f 142 189 190
f 142 190 143
f 145 180 191
f 145 191 192
f 145 192 193
f 145 193 146
f 146 193 194
f 146 194 195
f 146 195 147
f 147 195 196
f 147 196 197
f 147 197 148
f 149 190 186
f 150 185 198
f 150 198 151
f 151 198 152
f 152 198 153
f 153 199 154
f 153 198 199
f 154 200 156
f 154 156 155
f 154 199 200
f 157 201 202
f 157 202 203
f 157 203 158
f 157 162 201
f 158 203 204
f 158 204 205
f 158 205 159
f 159 205 160
f 160 205 206
f 160 206 207
f 160 207 208
f 160 208 161
f 161 208 165
f 162 209 250
f 162 250 201
f 163 165 210
f 163 210 211
f 163 211 164
f 164 211 166
f 165 208 212
f 165 212 210
f 166 211 167
f 167 170 169
f 167 211 213
f 167 213 170
f 168 169 170
f 170 213 214
f 170 214 215
f 170 215 216
f 170 216 217
f 170 217 171
f 171 218 172
f 171 217 218
f 172 218 173
f 173 218 219
f 173 219 220
f 173 220 221
f 173 221 176
f 173 176 175
f 173 175 174
f 176 221 222
f 176 222 177
f 177 222 178
f 178 222 223
f 178 223 179
f 179 223 224
f 179 224 191
f 179 191 180
f 181 187 225
f 181 225 226
f 181 226 182
f 182 227 183
f 182 226 228
f 182 228 229
f 182 229 227
f 183 230 231
f 183 231 185
f 183 185 184
f 183 227 230
f 185 231 232
f 185 232 233
f 185 233 198
f 186 190 187
f 187 234 225
f 187 190 189
f 187 189 235
f 187 235 236
f 187 236 237
f 187 237 238
f 187 238 239
f 187 239 234
f 189 240 235
f 191 224 241
f 191 241 192
f 192 241 242
f 192 242 194
f 192 194 193
f 194 242 243
f 194 243 196
f 194 196 195
f 196 243 244
f 196 244 245
f 196 245 246
f 196 246 197
f 198 233 247
f 198 247 248
f 198 248 199
f 199 248 249
f 199 249 200
f 201 250 304
f 201 304 251
f 201 251 202
f 202 251 252
f 202 252 203
f 203 252 253
f 203 253 204
f 204 253 254
f 204 254 205
f 205 254 206
f 206 255 256
f 206 256 207
f 206 254 257
f 206 257 258
f 206 258 255
f 207 256 259
f 207 259 260
f 207 260 208
f 208 260 212
f 209 261 250
f 210 262 263
f 210 263 211
f 210 212 264
f 210 264 265
f 210 265 262
f 211 214 213
f 211 263 214
f 212 260 264
f 214 263 262
f 214 262 266
f 214 266 267
f 214 267 268
f 214 268 216
f 214 216 215
f 216 269 219
f 216 219 218
f 216 218 217
f 216 268 267
f 216 267 270
f 216 270 269
f 219 271 220
f 219 269 271
f 220 272 221
f 220 271 272
f 221 272 223
f 221 223 222
f 223 272 224
f 224 272 273
f 224 273 241
f 225 234 239
f 225 239 274
f 225 274 275
f 225 275 276
f 225 276 228
f 225 228 226
f 227 277 230
f 227 229 278
f 227 278 326
f 227 326 279
f 227 279 327
f 227 327 277
f 228 276 326
f 228 326 278
f 228 278 229
f 230 277 280
f 230 280 281
f 230 281 282
f 230 282 231
f 231 282 232
f 232 247 233
f 232 282 247
f 235 240 236
f 236 283 237
f 237 283 284
f 237 284 285
f 237 285 238
f 238 285 286
f 238 286 287
f 238 287 239
f 239 287 288
f 239 288 289
f 239 289 290
f 239 290 274
f 241 273 291
f 241 291 292
f 241 292 293
f 241 293 242
f 242 293 294
f 242 294 243
f 243 294 295
f 243 295 296
f 243 296 244
f 244 296 297
f 244 297 245
f 245 297 346
f 245 346 298
f 247 282 299
f 247 299 300
f 247 300 301
f 247 301 248
f 248 301 249
f 250 302 303
f 250 303 304
f 250 261 305
f 250 305 302
f 251 304 306
f 251 306 252
f 252 306 307
f 252 307 253
f 253 307 254
f 254 307 308
f 254 308 309
f 254 309 310
f 254 310 257
f 255 259 256
f 255 258 259
f 257 311 259
f 257 259 258
f 257 310 311
f 259 311 312
f 259 312 313
f 259 313 314
f 259 314 260
f 260 314 264
f 262 265 315
f 262 315 316
f 262 316 317
f 262 317 318
f 262 318 267
f 262 267 266
f 264 315 265
f 264 314 313
f 264 313 319
f 264 319 315
f 267 318 317
f 267 317 320
f 267 320 321
f 267 321 270
f 269 270 322
f 269 322 291
f 269 291 271
f 270 321 322
f 271 291 272
f 272 291 273
f 274 290 323
f 274 323 275
f 275 324 326
f 275 326 276
f 275 323 325
f 275 325 324
f 277 327 332
f 277 332 280
f 279 326 328
f 279 328 329
f 279 329 327
f 280 330 299
f 280 299 331
f 280 331 282
f 280 282 281
f 280 332 379
f 280 379 330
f 282 331 299
f 283 333 284
f 284 333 298
f 284 298 334
f 284 334 335
f 284 335 286
f 284 286 285
f 286 335 336
f 286 336 288
f 286 288 287
f 288 336 337
f 288 337 289
f 289 338 290
f 289 337 339
f 289 339 338
f 290 338 323
f 291 322 340
f 291 340 292
f 292 340 293
f 293 340 341
f 293 341 342
f 293 342 294
f 294 342 343
f 294 343 344
f 294 344 295
f 295 344 296
f 296 344 345
f 296 345 297
f 297 345 393
f 297 393 346
f 298 346 334
f 299 347 300
f 299 330 379
f 299 379 395
f 299 395 347
f 302 348 349
f 302 349 350
f 302 350 303
f 302 305 351
f 302 351 348
f 303 350 352
f 303 352 304
f 304 352 353
f 304 353 306
f 306 353 354
f 306 354 355
f 306 355 356
f 306 356 307
f 307 356 308
f 308 356 357
f 308 357 358
f 308 358 309
f 309 358 310
f 310 358 359
f 310 359 311
f 311 359 360
f 311 360 361
f 311 361 362
f 311 362 313
f 311 313 312
f 313 363 319
f 313 362 363
f 315 319 364
f 315 364 316
f 316 364 365
f 316 365 317
f 317 365 366
f 317 366 367
f 317 367 368
f 317 368 320
f 319 363 364
f 320 369 321
f 320 368 369
f 321 340 322
f 321 369 340
f 323 338 370
f 323 370 371
f 323 371 325
f 324 372 328
f 324 328 326
f 324 325 373
f 324 373 372
f 325 371 374
f 325 374 375
f 325 375 373
f 327 329 376
f 327 376 332
f 328 372 329
f 329 372 377
f 329 377 378
f 329 378 376
f 332 376 379
f 334 346 380
f 334 380 335
f 335 380 381
f 335 381 382
f 335 382 336
f 336 382 383
f 336 383 337
f 337 384 339
f 337 383 385
f 337 385 386
f 337 386 384
f 338 339 387
f 338 387 370
f 339 384 388
f 339 388 387
f 340 369 389
f 340 389 341
f 341 389 342
f 342 389 390
f 342 390 391
f 342 391 343
f 343 391 392
f 343 392 344
f 344 392 345
f 345 392 394
f 345 394 446
f 345 446 393
f 346 393 380
f 348 396 397
f 348 397 398
f 348 398 349
f 348 351 396
f 349 399 400
f 349 400 401
f 349 401 350
f 349 398 399
f 350 401 402
f 350 402 352
f 351 403 396
f 352 402 404
f 352 404 353
f 353 404 354
f 354 404 405
f 354 405 406
f 354 406 407
f 354 407 408
f 354 408 355
f 355 408 409
f 355 409 356
f 356 409 410
f 356 410 357
f 357 410 411
f 357 411 358
f 358 411 359
f 359 411 360
f 360 411 410
f 360 410 412
f 360 412 413
f 360 413 414
f 360 414 361
f 361 414 415
f 361 415 362
f 362 415 363
f 363 415 364
f 364 366 365
f 364 415 416
f 364 416 366
f 366 416 417
f 366 417 367
f 367 418 368
f 367 417 419
f 367 419 418
f 368 418 389
f 368 389 369
f 370 387 420
f 370 420 421
f 370 421 371
f 371 421 374
f 372 373 422
f 372 422 377
f 373 375 423
f 373 423 422
f 374 421 424
f 374 424 425
f 374 425 426
f 374 426 375
f 375 426 427
f 375 427 423
f 376 378 428
f 376 428 379
f 377 422 429
f 377 429 378
f 378 429 430
f 378 430 431
f 378 431 428
f 379 428 432
f 379 432 395
f 380 393 433
f 380 433 381
f 381 433 434
f 381 434 382
f 382 434 435
f 382 435 383
f 383 435 436
f 383 436 437
f 383 437 385
f 384 386 388
f 385 437 386
f 386 438 388
f 386 437 439
f 386 439 440
f 386 440 438
f 387 388 441
f 387 441 420
f 388 438 442
f 388 442 441
f 389 418 443
f 389 443 390
f 390 443 391
f 391 443 444
f 391 444 445
f 391 445 392
f 392 445 394
f 393 446 480
f 393 480 433
f 394 445 447
f 394 447 448
f 394 448 446
f 396 449 397
f 396 403 450
f 396 450 449
f 397 451 398
f 397 449 452
f 397 452 453
f 397 453 454
f 397 454 451
f 398 455 399
f 398 451 455
f 399 455 400
f 400 455 456
f 400 456 457
f 400 457 401
f 401 457 402
f 402 457 404
f 404 457 458
f 404 458 405
f 405 458 459
f 405 459 460
f 405 460 406
f 406 460 461
f 406 461 407
f 407 461 462
f 407 462 408
f 408 462 409
f 409 462 410
f 410 462 412
f 412 462 463
f 412 463 413
f 413 463 464
f 413 464 465
f 413 465 414
f 414 465 466
f 414 466 415
f 415 466 416
f 416 466 417
f 417 467 468
f 417 468 443
f 417 443 419
f 417 466 465
f 417 465 467
f 418 419 443
f 420 441 424
f 420 424 421
f 422 423 469
f 422 469 470
f 422 470 429
f 423 427 469
f 424 441 471
f 424 471 425
f 425 471 472
f 425 472 473
f 425 473 426
f 426 473 427
f 427 473 474
f 427 474 475
f 427 475 469
f 428 476 432
f 428 431 476
f 429 470 477
f 429 477 430
f 430 477 478
f 430 478 479
f 430 479 476
f 430 476 431
f 433 480 434
f 434 480 481
f 434 481 435
f 435 481 482
f 435 482 483
f 435 483 436
f 436 483 437
f 437 483 484
f 437 484 485
f 437 485 439
f 438 440 486
f 438 486 442
f 439 485 487
f 439 487 440
f 440 487 488
f 440 488 486
f 441 442 471
f 442 486 471
f 443 468 489
f 443 489 444
f 444 489 445
f 445 489 490
f 445 490 447
f 446 448 491
f 446 491 480
f 447 490 448
f 448 490 492
f 448 492 491
f 449 450 452
f 450 493 452
f 451 494 495
f 451 495 455
f 451 454 494
f 452 496 453
f 452 493 497
f 452 497 498
f 452 498 496
f 453 496 499
f 453 499 500
f 453 500 454
f 454 500 501
f 454 501 494
f 455 495 502
f 455 502 503
f 455 503 456
f 456 503 504
f 456 504 505
f 456 505 506
f 456 506 507
f 456 507 457
f 457 507 508
f 457 508 509
f 457 509 458
f 458 509 510
f 458 510 459
f 459 510 511
f 459 511 460
f 460 511 512
f 460 512 513
f 460 513 461
f 461 513 514
f 461 514 515
f 461 515 516
f 461 516 462
f 462 516 463
f 463 516 464
f 464 516 517
f 464 517 465
f 465 517 467
f 467 489 468
f 467 517 489
f 469 475 470
f 470 475 518
f 470 518 519
f 470 519 477
f 471 486 520
f 471 520 521
f 471 521 522
f 471 522 472
f 472 522 473
f 473 522 474
f 474 523 475
f 474 522 524
f 474 524 523
f 475 523 518
f 476 479 525
f 477 519 526
f 477 526 478
f 478 526 527
f 478 527 528
f 478 528 479
f 479 528 525
f 480 491 481
f 481 491 529
f 481 529 530
f 481 530 482
f 482 530 483
f 483 530 531
f 483 531 532
f 483 532 484
f 484 532 533
f 484 533 485
f 485 533 534
f 485 534 487
f 486 488 520
f 487 534 488
f 488 534 535
f 488 535 536
f 488 536 537
f 488 537 538
f 488 538 539
f 488 539 520
f 489 517 516
f 489 516 490
f 490 516 515
f 490 515 492
f 491 492 540
f 491 540 529
f 492 515 540
f 494 501 541
f 494 541 542
f 494 542 543
f 494 543 495
f 495 543 502
f 496 528 527
f 496 527 499
f 496 498 544
f 496 544 528
f 499 527 545
f 499 545 500
f 500 546 547
f 500 547 501
f 500 545 546
f 501 547 541
f 502 548 549
f 502 549 503
f 502 543 548
f 503 550 504
f 503 549 550
f 504 550 505
f 505 550 506
f 506 550 507
f 507 550 551
f 507 551 508
f 508 510 509
f 508 551 552
f 508 552 510
f 510 552 511
f 511 552 512
f 512 552 551
f 512 551 553
f 512 553 554
f 512 554 555
f 512 555 513
f 513 555 514
f 514 555 556
f 514 556 515
f 515 556 557
f 515 557 540
f 518 523 558
f 518 558 519
f 519 558 559
f 519 559 526
f 520 539 560
f 520 560 521
f 521 560 522
f 522 560 538
f 522 538 561
f 522 561 562
f 522 562 524
f 523 563 558
f 523 524 562
f 523 562 564
f 523 564 563
f 525 528 544
f 526 559 565
f 526 565 566
f 526 566 545
f 526 545 527
f 529 540 530
f 530 540 567
f 530 567 568
f 530 568 569
f 530 569 531
f 531 569 570
f 531 570 532
f 532 570 571
f 532 571 533
f 533 571 534
f 534 571 572
f 534 572 573
f 534 573 574
f 534 574 536
f 534 536 535
f 536 574 573
f 536 573 575
f 536 575 576
f 536 576 577
f 536 577 538
f 536 538 537
f 538 577 578
f 538 578 579
f 538 579 561
f 538 560 539
f 540 557 580
f 540 580 567
f 541 547 581
f 541 581 576
f 541 576 542
f 542 582 543
f 542 576 582
f 543 582 548
f 545 566 583
f 545 583 584
f 545 584 546
f 546 584 585
f 546 585 547
f 547 585 581
f 548 586 549
f 548 582 586
f 549 586 587
f 549 587 550
f 550 587 588
f 550 588 589
f 550 589 551
f 551 589 588
f 551 588 590
f 551 590 553
f 553 590 591
f 553 591 554
f 554 591 592
f 554 592 593
f 554 593 555
f 555 593 556
f 556 593 557
f 557 593 580
f 558 563 594
f 558 594 565
f 558 565 559
f 561 564 562
f 561 579 564
f 563 564 594
f 564 579 578
f 564 578 595
f 564 595 596
f 564 596 594
f 565 594 566
f 566 594 596
f 566 596 583
f 567 580 568
f 568 597 570
f 568 570 569
f 568 580 593
f 568 593 592
f 568 592 598
f 568 598 597
f 570 597 571
f 571 597 599
f 571 599 600
f 571 600 572
f 572 600 573
f 573 600 601
f 573 601 602
f 573 602 582
f 573 582 575
f 575 582 576
f 576 581 578
f 576 578 577
f 578 585 595
f 578 581 585
f 582 602 586
f 583 596 584
f 584 596 585
f 585 596 595
f 586 602 601
f 586 601 603
f 586 603 588
f 586 588 587
f 588 604 590
f 588 603 604
f 590 604 591
f 591 598 592
f 591 604 605
f 591 605 598
f 597 598 605
f 597 605 599
f 599 605 600
f 600 605 601
f 601 605 603
f 603 605 604

