# https://github.com/mikedh/trimesh
v 0.00973240 0.00336425 -0.04223987
v 0.00971823 0.00336425 -0.04223366
v 0.00614542 0.00374033 -0.04123987
v 0.00562084 0.00439587 -0.04182372
v 0.00973240 0.00366459 -0.04255664
v 0.01013546 0.00366459 -0.04255664
v 0.01018812 0.00336425 -0.04207838
v 0.00922200 0.00336425 -0.04201005
v 0.00752472 0.00336425 -0.04122124
v 0.00679152 0.00336425 -0.04086720
v 0.00659303 0.00341909 -0.04086720
v 0.00594895 0.00361758 -0.04090447
v 0.00572818 0.00380563 -0.04114049
v 0.00973240 0.00396755 -0.04287341
v 0.00538184 0.00423394 -0.04150695
v 0.00520158 0.00448206 -0.04172434
v 0.00519348 0.00510886 -0.04236409
v 0.00559856 0.00626846 -0.04371812
v 0.00950758 0.01511952 -0.05433298
v 0.00992684 0.01504117 -0.05441373
v 0.00994507 0.01441958 -0.05378019
v 0.00996532 0.01379800 -0.05314665
v 0.01002204 0.01193586 -0.05123983
v 0.01004229 0.01131427 -0.05060008
v 0.01014153 0.00490776 -0.04382992
v 0.01021445 0.00408508 -0.04276160
v 0.01020837 0.00346088 -0.04212807
v 0.01004837 0.01131427 -0.05060008
v 0.01005647 0.01193586 -0.05123983
v 0.01007672 0.01379800 -0.05314665
v 0.01008482 0.01441958 -0.05378019
v 0.01009090 0.01504117 -0.05441373
v 0.01033192 0.00346610 -0.04149453
v 0.01029952 0.00336425 -0.04149453
v 0.00666797 0.00336425 -0.04079267
v 0.00596516 0.00336425 -0.04027714
v 0.00533728 0.00371422 -0.04068708
v 0.00501119 0.00377690 -0.04056286
v 0.00365215 0.00436192 -0.04063118
v 0.00438129 0.00440371 -0.04119018
v 0.00470941 0.00433319 -0.04128335
v 0.00307086 0.00500701 -0.04121503
v 0.00390735 0.00510625 -0.04174298
v 0.00470941 0.00491038 -0.04193552
v 0.00470941 0.00522117 -0.04225229
v 0.00558438 0.00814627 -0.04561252
v 0.00559046 0.00689527 -0.04435166
v 0.00684823 0.01380322 -0.05188579
v 0.00683810 0.01505162 -0.05314665
v 0.00722091 0.01560007 -0.05385472
v 0.00784878 0.01579595 -0.05428950
v 0.00910453 0.01552433 -0.05454416
v 0.00973645 0.01539897 -0.05468081
v 0.00996532 0.01567842 -0.05502242
v 0.01021850 0.00470927 -0.04339514
v 0.01015369 0.01480612 -0.05401621
v 0.01007875 0.01567842 -0.05502242
v 0.01015166 0.01544076 -0.05464975
v 0.01034610 0.00346610 -0.04086720
v 0.01030559 0.00336425 -0.04137652
v 0.01030357 0.01539897 -0.05405348
v 0.01034002 0.00472233 -0.04274918
v 0.00594085 0.00336425 -0.04025851
v -0.00973170 0.00336425 -0.02761260
v 0.00323289 0.00444810 -0.04046348
v 0.00237007 0.00495739 -0.04067466
v 0.00284604 0.00486859 -0.04087341
v 0.00396203 0.00449511 -0.04105354
v 0.00265160 0.00510886 -0.04109080
v 0.00285819 0.00536742 -0.04147590
v 0.00306478 0.00562598 -0.04184856
v 0.00345366 0.00521594 -0.04162496
v 0.00345366 0.00615616 -0.04257527
v 0.00411394 0.00599423 -0.04273676
v 0.00431648 0.00876525 -0.04561874
v 0.00536159 0.01227015 -0.04964977
v 0.00596516 0.01243991 -0.05010940
v 0.00642290 0.01452405 -0.05241995
v 0.00641885 0.01515086 -0.05304727
v 0.00684418 0.01567842 -0.05377398
v 0.00735053 0.01622688 -0.05446342
v 0.00910453 0.01623211 -0.05505347
v 0.00974658 0.01601011 -0.05512180
v 0.00954607 0.01578812 -0.05494789
v 0.00877034 0.01633135 -0.05500379
v 0.00973240 0.01665520 -0.05529571
v 0.01014558 0.01602839 -0.05509696
v 0.01029344 0.01602839 -0.05468081
v 0.01034407 0.00336425 -0.03134551
v 0.01031572 0.00336425 -0.04086720
v 0.01034205 0.00535175 -0.04337651
v 0.01034407 0.00660798 -0.04463737
v 0.01034610 0.00786421 -0.04589203
v 0.01034610 0.00346610 -0.02077412
v 0.01034610 0.01665520 -0.05468081
v 0.01034610 0.01288651 -0.05091685
v 0.01034610 0.00849102 -0.04651935
v -0.01017122 0.00336425 -0.02687969
v -0.00447579 0.00924580 -0.03879889
v -0.00379525 0.00937116 -0.03996659
v -0.00366968 0.00895329 -0.03981131
v -0.00325042 0.00868951 -0.04003491
v -0.00304383 0.00826902 -0.03981752
v -0.00262457 0.00808098 -0.04002870
v -0.00068221 0.00687438 -0.04060012
v 0.00001858 0.00630502 -0.04053801
v 0.00119331 0.00562859 -0.04060633
v 0.00162067 0.00553457 -0.04083615
v 0.00186169 0.00565210 -0.04119639
v 0.00219791 0.00555285 -0.04129577
v 0.00264552 0.00573829 -0.04173677
v 0.00306681 0.00625279 -0.04247589
v 0.00389722 0.00886972 -0.04551314
v 0.00390127 0.00761349 -0.04425849
v 0.00515297 0.01200898 -0.04928332
v 0.00557830 0.01441436 -0.05189821
v 0.00557425 0.01378755 -0.05127088
v 0.00596516 0.01432034 -0.05199759
v 0.00596516 0.01494976 -0.05262492
v 0.00559248 0.01504639 -0.05252554
v 0.00611301 0.01556873 -0.05324603
v 0.00693330 0.01651678 -0.05435783
v 0.00783258 0.01666304 -0.05487335
v 0.00835108 0.01645932 -0.05493546
v 0.00642492 0.01591348 -0.05366839
v 0.00803107 0.01687458 -0.05503484
v 0.00910453 0.01665520 -0.05520254
v 0.01019622 0.01665520 -0.05515907
v 0.00847665 0.01727940 -0.05524602
v 0.00910453 0.01727940 -0.05531434
v 0.00973240 0.01727940 -0.05533298
v 0.01034407 0.00336425 -0.01951947
v 0.01034610 0.02544358 -0.02077412
v 0.01034610 0.02544358 -0.05468081
v -0.01028059 0.02669981 -0.02893558
v -0.01014286 0.02669981 -0.02953185
v -0.01003551 0.02669981 -0.02984862
v -0.00942182 0.01693988 -0.03051321
v -0.00877774 0.01539897 -0.03171196
v -0.00690829 0.01193586 -0.03490450
v -0.00501252 0.00974725 -0.03801007
v -0.00481808 0.00974725 -0.03835790
v -0.01022388 0.00336425 -0.02657534
v -0.00451427 0.00974725 -0.03886721
v -0.00405248 0.00974725 -0.03961255
v -0.00381146 0.00974725 -0.03999143
v -0.00063563 0.01192280 -0.04496035
v -0.00252330 0.01004237 -0.04182372
v -0.00320181 0.00934766 -0.04062497
v -0.00302357 0.00892979 -0.04045106
v -0.00260432 0.00871040 -0.04063739
v -0.00282306 0.00849102 -0.04023988
v -0.00239165 0.00829253 -0.04044485
v -0.00133642 0.00747507 -0.04062497
v -0.00088475 0.00728441 -0.04082373
v -0.00066803 0.00751424 -0.04121503
v 0.00002668 0.00756909 -0.04179266
v -0.00031359 0.00705981 -0.04105354
v 0.00001250 0.00692922 -0.04117155
v -0.00031359 0.00673857 -0.04073677
v 0.00072747 0.00636509 -0.04110944
v 0.00267185 0.00827425 -0.04422744
v 0.00266173 0.00763960 -0.04360632
v 0.00265363 0.00700496 -0.04298521
v 0.00094419 0.00660798 -0.04149453
v 0.00145661 0.00643561 -0.04167465
v 0.00157004 0.00767878 -0.04294173
v 0.00238830 0.01060127 -0.04628954
v 0.00317415 0.01322342 -0.04932058
v 0.00307086 0.00688221 -0.04310322
v 0.00432256 0.01064829 -0.04750071
v 0.00433268 0.01128032 -0.04812804
v 0.00470941 0.01307717 -0.05009698
v 0.00515905 0.01453972 -0.05178020
v 0.00470941 0.01435168 -0.05133300
v 0.00438737 0.01445092 -0.05123362
v 0.00488157 0.01495759 -0.05197274
v 0.00690494 0.01693204 -0.05437025
v 0.00761181 0.01727940 -0.05496031
v 0.00627504 0.01633135 -0.05374292
v 0.00514689 0.01539897 -0.05240131
v 0.00792574 0.01727940 -0.05509696
v 0.01019622 0.02544358 -0.05515907
v 0.00847665 0.01790882 -0.05531434
v 0.00910453 0.01790882 -0.05533919
v 0.00910453 0.01853563 -0.05534540
v 0.00973240 0.02544358 -0.05533298
v 0.01034407 0.02607300 -0.01951947
v 0.01031977 0.00336425 -0.01889214
v 0.01014558 0.02593980 -0.05510317
v 0.01019622 0.02603121 -0.05468081
v 0.01025698 0.02732923 -0.02830825
v 0.01026103 0.02732923 -0.02768093
v 0.01033192 0.02669981 -0.02768093
v 0.01034407 0.02607300 -0.02768093
v -0.01032717 0.02669981 -0.02830825
v -0.01025831 0.02732923 -0.02830825
v -0.01020970 0.02732923 -0.02893558
v -0.01010640 0.02732923 -0.02942626
v -0.01032717 0.00336425 -0.02589832
v -0.00999703 0.02732923 -0.02974303
v -0.00975398 0.02732923 -0.03019023
v -0.00983500 0.02669981 -0.03019023
v -0.00691032 0.01225971 -0.03491071
v -0.00828152 0.01477216 -0.03259395
v -0.00878179 0.01602839 -0.03174302
v -0.00894382 0.01602839 -0.03143246
v -0.00858533 0.01539897 -0.03207221
v -0.00571533 0.01100348 -0.03689207
v -0.00521101 0.01037406 -0.03772436
v -0.00431983 0.01037406 -0.03917777
v -0.00405045 0.01037406 -0.03961255
v -0.00381146 0.01037406 -0.03999764
v -0.00329903 0.01037406 -0.04080509
v -0.00004421 0.01188362 -0.04563116
v -0.00063968 0.01225971 -0.04496656
v 0.00009149 0.01288651 -0.04607215
v 0.00062012 0.01315291 -0.04684233
v 0.00065455 0.01273242 -0.04680506
v -0.00072677 0.01118630 -0.04443862
v -0.00188935 0.01005282 -0.04244484
v -0.00257191 0.00936855 -0.04123987
v -0.00170504 0.00897680 -0.04165602
v -0.00216885 0.00851714 -0.04084236
v -0.00197239 0.00809143 -0.04063118
v -0.00078753 0.01053076 -0.04383613
v -0.00150857 0.00855109 -0.04144484
v -0.00094146 0.00927453 -0.04258148
v -0.00059714 0.00945996 -0.04304111
v -0.00088880 0.00853542 -0.04196037
v -0.00062347 0.00880965 -0.04243241
v -0.00064575 0.00815933 -0.04182372
v 0.00057151 0.01126726 -0.04562495
v -0.00031359 0.00802091 -0.04195416
v 0.00121559 0.00940250 -0.04435166
v 0.00076798 0.00827686 -0.04297278
v 0.00044594 0.00742022 -0.04193552
v 0.00006516 0.00885927 -0.04301626
v 0.00050467 0.00933460 -0.04378645
v 0.00148699 0.01156760 -0.04658146
v 0.00245514 0.01315552 -0.04876158
v 0.00243286 0.01251565 -0.04814667
v 0.00359341 0.01309545 -0.04945102
v 0.00345366 0.01058560 -0.04693550
v 0.00308909 0.00814627 -0.04435166
v 0.00117306 0.00749074 -0.04249453
v 0.00157004 0.00960622 -0.04478644
v 0.00241665 0.01187579 -0.04752556
v 0.00318833 0.01387896 -0.04994170
v 0.00360556 0.01373009 -0.05007213
v 0.00390532 0.01077104 -0.04738270
v 0.00391343 0.01140568 -0.04800382
v 0.00368658 0.01437518 -0.05066840
v 0.00477625 0.01539897 -0.05209076
v 0.00690494 0.01706785 -0.05437025
v 0.00757130 0.01790882 -0.05497273
v 0.00627302 0.01665520 -0.05374913
v 0.00788524 0.01790882 -0.05514043
v 0.00504360 0.01602839 -0.05246342
v 0.00473979 0.01602839 -0.05215287
v 0.00446231 0.01539897 -0.05179883
v 0.00847665 0.01853563 -0.05532055
v 0.00910453 0.02544358 -0.05534540
v 0.00973240 0.02603382 -0.05516528
v 0.01033192 0.02669981 -0.01951947
v 0.01031774 0.02607300 -0.01889214
v 0.01031977 0.01602839 -0.01889214
v 0.00807157 0.02669981 0.00057361
v 0.00799866 0.02669981 0.00120093
v 0.00788929 0.02669981 0.00182826
v 0.01020837 0.00336425 -0.01826482
v 0.00973240 0.02631850 -0.05468081
v 0.00877439 0.02951783 -0.02830825
v 0.00910453 0.02924622 -0.02830825
v 0.00944480 0.02892498 -0.02876167
v 0.00946100 0.02894326 -0.02830825
v 0.00972228 0.02858546 -0.02830825
v 0.00999571 0.02815191 -0.02830825
v 0.01012331 0.02783851 -0.02830825
v 0.01012533 0.02784373 -0.02768093
v 0.01026103 0.02732923 -0.01951947
v -0.01033122 0.02669981 -0.02768093
v -0.01032920 0.00336425 -0.02579274
v -0.01012261 0.02783851 -0.02830825
v -0.01009830 0.02777583 -0.02893558
v -0.01026236 0.02732923 -0.02768093
v -0.01006590 0.02769487 -0.02930825
v -0.00955954 0.02792208 -0.03018402
v -0.00987956 0.02792470 -0.02953806
v -0.00944005 0.02768964 -0.03053184
v -0.00063158 0.02577265 -0.04495414
v -0.00552495 0.01100348 -0.03720883
v -0.00083817 0.02544358 -0.04463737
v -0.00063765 0.02481677 -0.04496656
v -0.00084627 0.02418996 -0.04463737
v -0.00258204 0.01602839 -0.04192310
v -0.00309851 0.01351593 -0.04111565
v -0.00329903 0.01163029 -0.04080509
v -0.00238355 0.01163029 -0.04223987
v -0.00115413 0.01225971 -0.04416533
v -0.00085234 0.01225971 -0.04463737
v -0.00010092 0.01122286 -0.04503489
v 0.00118521 0.01305366 -0.04755040
v 0.00250780 0.01382412 -0.04935164
v 0.00130673 0.01263579 -0.04742618
v 0.00059784 0.01191757 -0.04623364
v -0.00043511 0.01288651 -0.04528333
v -0.00012117 0.01288651 -0.04575538
v 0.00008947 0.01351593 -0.04607215
v 0.00061810 0.01351593 -0.04684854
v 0.00083684 0.01351593 -0.04715910
v 0.00115078 0.01351593 -0.04760009
v -0.00032371 0.01099303 -0.04464358
v -0.00054651 0.01076581 -0.04425228
v -0.00057081 0.01011289 -0.04364980
v 0.00012998 0.01080238 -0.04484855
v 0.00082874 0.01084939 -0.04543240
v 0.00128648 0.01196981 -0.04681128
v 0.00172397 0.01245036 -0.04757525
v 0.00178675 0.01309545 -0.04818394
v 0.00306073 0.01429683 -0.05006592
v 0.00725129 0.02544358 -0.05465596
v 0.00757535 0.02544358 -0.05496652
v 0.00757130 0.02293373 -0.05497273
v 0.00627302 0.01790882 -0.05374913
v 0.00788524 0.01853563 -0.05514664
v 0.00565730 0.01853563 -0.05310939
v 0.00442585 0.01602839 -0.05182368
v 0.00473979 0.02293373 -0.05215287
v 0.00416660 0.01539897 -0.05148206
v 0.00330378 0.01477216 -0.05043238
v 0.00847665 0.02293373 -0.05532055
v 0.00847665 0.02544358 -0.05531434
v 0.00847665 0.02603382 -0.05515286
v 0.00910453 0.02603905 -0.05517149
v 0.00910453 0.02633156 -0.05468081
v 0.01030559 0.02669981 -0.01889214
v 0.00794600 0.02732923 0.00120093
v 0.00782650 0.02732923 0.00182826
v 0.00772523 0.02669981 0.00246180
v 0.01008280 0.00336425 -0.01787352
v 0.00756927 0.02634201 0.00285931
v 0.00659303 0.02999317 -0.02893558
v 0.00722091 0.02996966 -0.02893558
v 0.00784878 0.02985997 -0.02893558
v 0.00840779 0.02964842 -0.02893558
v 0.00872173 0.02948649 -0.02893558
v 0.00846045 0.02967454 -0.02830825
v 0.00878046 0.02952045 -0.02768093
v 0.00910453 0.02925405 -0.02768093
v 0.00946302 0.02894587 -0.02768093
v 0.00972835 0.02858546 -0.02768093
v 0.00999773 0.02815714 -0.02768093
v 0.01012533 0.02784373 -0.01951947
v 0.01011115 0.02780717 -0.01889214
v 0.01023470 0.02732923 -0.01889214
v -0.01034540 0.00336425 -0.01951947
v -0.01033527 0.02607300 -0.02579274
v -0.01034540 0.02607300 -0.01951947
v -0.01033325 0.02669981 -0.02014680
v -0.00999501 0.02815453 -0.02830825
v -0.01012463 0.02784373 -0.02768093
v -0.00996665 0.02808923 -0.02893558
v -0.01026236 0.02732923 -0.01951947
v -0.00947650 0.02835040 -0.02996663
v -0.00007864 0.02591107 -0.04568706
v -0.00956562 0.02847577 -0.02956291
v -0.00011915 0.02544358 -0.04574296
v -0.00043309 0.02544358 -0.04527712
v -0.00063563 0.02544358 -0.04496035
v -0.00043511 0.02481677 -0.04528333
v -0.00063968 0.02418996 -0.04496656
v -0.00115413 0.02230431 -0.04415911
v -0.00258406 0.01539897 -0.04192310
v -0.00238355 0.01539897 -0.04223987
v -0.00115413 0.02042128 -0.04416533
v -0.00085234 0.02230431 -0.04463737
v 0.00248754 0.01414274 -0.04937648
v 0.00302022 0.01477216 -0.05011561
v 0.00008947 0.01979186 -0.04607215
v 0.00061810 0.01665520 -0.04684854
v 0.00138167 0.01414274 -0.04791686
v 0.00169561 0.01414274 -0.04834543
v 0.00192651 0.01414274 -0.04865599
v 0.00115483 0.01477216 -0.04760009
v 0.00734648 0.02594764 -0.05455658
v 0.00662341 0.02544358 -0.05402864
v 0.00798043 0.02593719 -0.05509074
v 0.00788929 0.02544358 -0.05514043
v 0.00788726 0.02356054 -0.05514664
v 0.00788524 0.02293373 -0.05514664
v 0.00565730 0.02042128 -0.05310939
v 0.00385266 0.01539897 -0.05113424
v 0.00384659 0.01602839 -0.05113424
v 0.00442585 0.02544358 -0.05182368
v 0.00847665 0.02632633 -0.05468081
v -0.00659233 0.02999317 -0.02893558
v 0.00775561 0.02795604 0.00120093
v 0.00763611 0.02797171 0.00180342
v 0.00758750 0.02777322 0.00230652
v 0.00763814 0.02734490 0.00249285
v 0.00756117 0.02714641 0.00283447
v 0.00758143 0.02669981 0.00288416
v 0.00992077 0.00336425 -0.01756296
v 0.00695558 0.02632895 0.00410775
v 0.00744167 0.02669981 0.00319471
v 0.00719457 0.02669981 0.00371645
v 0.00659303 0.03004018 -0.02830825
v 0.00722091 0.03001667 -0.02830825
v 0.00784878 0.02990959 -0.02830825
v 0.00784878 0.02991481 -0.02768093
v 0.00846653 0.02967715 -0.02768093
v 0.00878249 0.02952306 -0.02579274
v 0.00878452 0.02952306 -0.02516541
v 0.00946505 0.02894587 -0.02705360
v 0.00910453 0.02925666 -0.02642006
v 0.00946505 0.02894848 -0.02579274
v 0.00946708 0.02894848 -0.02391076
v 0.00973038 0.02858546 -0.02579274
v 0.00973240 0.02858546 -0.02328964
v 0.00999773 0.02815714 -0.01951947
v 0.00998153 0.02812319 -0.01889214
v -0.01031907 0.00336425 -0.01889214
v -0.01031907 0.02418996 -0.01889214
v -0.01031704 0.02607300 -0.01889214
v -0.01033325 0.02669981 -0.01951947
v -0.00972158 0.02858546 -0.02830825
v -0.00962233 0.02863769 -0.02896042
v -0.00999703 0.02815975 -0.02768093
v -0.00972765 0.02858546 -0.02768093
v -0.01012463 0.02784373 -0.01951947
v -0.01023400 0.02732923 -0.01889214
v -0.01011045 0.02780978 -0.01889214
v -0.00932257 0.02878917 -0.02956291
v -0.00888509 0.02897721 -0.02999769
v -0.00910383 0.02858285 -0.03019023
v 0.00179891 0.02591630 -0.04820257
v 0.00122369 0.02583795 -0.04750693
v 0.00010972 0.02544358 -0.04605973
v -0.00940561 0.02888319 -0.02918402
v -0.00012117 0.02481677 -0.04574917
v -0.00012117 0.02293373 -0.04575538
v 0.00270629 0.01477216 -0.04971188
v 0.00302225 0.01539897 -0.05012182
v 0.00358936 0.01539897 -0.05081747
v 0.00009149 0.02104808 -0.04607215
v 0.00062215 0.01790882 -0.04684233
v 0.00084899 0.01727940 -0.04715910
v 0.00009352 0.02167750 -0.04607215
v 0.00009554 0.02230431 -0.04607215
v 0.00010162 0.02418996 -0.04606594
v 0.00116293 0.01727940 -0.04758767
v 0.00193258 0.01602839 -0.04864978
v 0.00247539 0.01539897 -0.04939512
v 0.00717027 0.02610173 -0.05410317
v 0.00780220 0.02609650 -0.05473671
v 0.00483498 0.02594764 -0.05204728
v 0.00505373 0.02544358 -0.05245721
v 0.00384659 0.01916505 -0.05113424
v 0.00384659 0.02104808 -0.05112803
v 0.00384861 0.02167750 -0.05112803
v 0.00384861 0.02230431 -0.05112182
v 0.00385469 0.02356054 -0.05111561
v 0.00417875 0.02544358 -0.05150691
v 0.00310326 0.02584578 -0.05002244
v 0.00367848 0.02591891 -0.05071809
v 0.00425167 0.02594503 -0.05141374
v -0.00789264 0.02967454 -0.02961259
v -0.00784808 0.02985997 -0.02893558
v -0.00722021 0.02981818 -0.02956291
v -0.00722021 0.02996966 -0.02893558
v -0.00659233 0.03004018 -0.02830825
v 0.00757940 0.02834257 0.00120093
v 0.00754902 0.02829295 0.00157981
v 0.00750041 0.02819109 0.00199596
v 0.00743762 0.02797171 0.00249285
v 0.00751864 0.02756428 0.00272267
v 0.00742750 0.02734490 0.00306428
v 0.00987013 0.00336425 -0.01748221
v 0.00697381 0.02669981 0.00413881
v 0.00677734 0.02669981 0.00444937
v 0.00646341 0.02669981 0.00489036
v 0.00640669 0.02627932 0.00482204
v 0.00960683 0.00336425 -0.01708470
v 0.00708318 0.02737363 0.00377235
v 0.00694748 0.02719603 0.00409533
v 0.00659303 0.03004540 -0.02768093
v 0.00722091 0.03002189 -0.02768093
v 0.00784878 0.02991742 -0.02391076
v 0.00846855 0.02967976 -0.02579274
v 0.00910453 0.02925928 -0.02453808
v 0.00847058 0.02967976 -0.02453808
v 0.00878452 0.02952306 -0.02014680
v 0.00946708 0.02894848 -0.02328964
v 0.00973038 0.02858546 -0.02077412
v 0.00972835 0.02858546 -0.01951947
v 0.00969392 0.02858546 -0.01889214
v 0.00761586 0.02840003 0.00057361
v -0.01022590 0.00336425 -0.01836420
v -0.00788859 0.02669981 0.00182826
v -0.00799796 0.02669981 0.00120093
v -0.00807087 0.02669981 0.00057361
v -0.01030489 0.02669981 -0.01889214
v -0.00946030 0.02894326 -0.02830825
v -0.00944410 0.02892498 -0.02876788
v -0.00999703 0.02815975 -0.01951947
v -0.00973170 0.02858546 -0.02328964
v -0.00946233 0.02894587 -0.02768093
v -0.00946638 0.02894848 -0.02328964
v -0.00794733 0.02732923 0.00120093
v -0.00998083 0.02812319 -0.01889214
v -0.00775694 0.02795604 0.00120093
v -0.00900864 0.02908168 -0.02956291
v -0.00849418 0.02941598 -0.02961259
v -0.00813164 0.02951783 -0.02984862
v 0.00405925 0.02608345 -0.05092306
v 0.00363189 0.02544358 -0.05078641
v 0.00228500 0.02293373 -0.04902245
v 0.00118521 0.02230431 -0.04755661
v 0.00140800 0.02042128 -0.04788581
v -0.00915851 0.02913653 -0.02896042
v -0.00872305 0.02948911 -0.02893558
v 0.00302630 0.01602839 -0.05012182
v 0.00271236 0.01602839 -0.04970567
v 0.00327542 0.01790882 -0.05042617
v 0.00063633 0.02167750 -0.04682370
v 0.00170979 0.01790882 -0.04832680
v 0.00248552 0.01727940 -0.04938269
v 0.00465877 0.02610173 -0.05159386
v 0.00303238 0.01727940 -0.05011561
v 0.00385671 0.02418996 -0.05110939
v 0.00386482 0.02544358 -0.05109697
v -0.00829569 0.02959357 -0.02943247
v -0.00840912 0.02964842 -0.02893558
v -0.00784808 0.02990959 -0.02830825
v -0.00722021 0.03001667 -0.02830825
v -0.00659233 0.03004540 -0.02768093
v 0.00739712 0.02871343 0.00057361
v 0.00735863 0.02865597 0.00120093
v 0.00732015 0.02853584 0.00180342
v 0.00708520 0.02860635 0.00243074
v 0.00699204 0.02839219 0.00308912
v 0.00692115 0.02829295 0.00343074
v 0.00721685 0.02795604 0.00308912
v 0.00699811 0.02795604 0.00356738
v 0.00690089 0.02761390 0.00402080
v 0.00642087 0.02732923 0.00484067
v 0.00621023 0.02669981 0.00520713
v 0.00589629 0.02669981 0.00555495
v 0.00581730 0.02627671 0.00546800
v 0.00932935 0.00336425 -0.01677414
v 0.00956429 0.00336425 -0.01703501
v 0.00676519 0.02737363 0.00431893
v 0.00659303 0.03004540 -0.01951947
v 0.00722091 0.03002189 -0.01951947
v 0.00784878 0.02991481 -0.01951947
v 0.00847058 0.02967976 -0.02014680
v 0.00910453 0.02925928 -0.02391076
v 0.00878046 0.02952045 -0.01951947
v 0.00910453 0.02925405 -0.01951947
v 0.00946505 0.02894587 -0.02077412
v 0.00946302 0.02894587 -0.01951947
v 0.00944480 0.02892759 -0.01889214
v -0.01020767 0.00336425 -0.01826482
v -0.00772453 0.02669981 0.00246180
v -0.00782580 0.02732923 0.00182826
v -0.00910383 0.02924622 -0.02830825
v -0.00910383 0.02925144 -0.02768093
v -0.00877369 0.02951783 -0.02830825
v -0.00969525 0.02858546 -0.01889214
v -0.00972765 0.02858546 -0.01951947
v -0.00973170 0.02858546 -0.02077412
v -0.00910383 0.02925928 -0.02391076
v -0.00946638 0.02894848 -0.02077412
v -0.00758073 0.02834257 0.00120093
v -0.00763541 0.02797171 0.00180342
v -0.00754832 0.02829295 0.00157981
v 0.00328960 0.02104808 -0.05040132
v 0.00271439 0.01665520 -0.04969946
v -0.00845975 0.02967454 -0.02830825
v -0.00784808 0.02991481 -0.02768093
v -0.00722021 0.03002189 -0.02768093
v -0.00659233 0.03004540 -0.01951947
v 0.00708318 0.02907385 0.00057361
v 0.00704470 0.02903467 0.00120093
v 0.00697988 0.02897199 0.00182826
v 0.00693127 0.02892237 0.00220714
v 0.00684823 0.02882835 0.00262329
v 0.00674899 0.02870560 0.00308912
v 0.00633783 0.02895109 0.00349906
v 0.00656873 0.02855673 0.00367297
v 0.00638036 0.02840264 0.00419471
v 0.00624669 0.02821460 0.00461086
v 0.00682190 0.02795604 0.00388415
v 0.00650391 0.02798477 0.00437483
v 0.00634998 0.02779411 0.00474750
v 0.00616770 0.02732923 0.00515123
v 0.00585376 0.02732923 0.00550526
v 0.00560464 0.02669981 0.00586551
v 0.00520563 0.02627671 0.00607048
v 0.00927669 0.00336425 -0.01673066
v 0.00453725 0.02629238 0.00663569
v 0.00408153 0.03004540 0.00120093
v 0.00470941 0.03003495 0.00057361
v 0.00470941 0.03002973 0.00120093
v 0.00533728 0.02996966 0.00057361
v 0.00843817 0.02966409 -0.01889214
v 0.00846653 0.02967715 -0.01951947
v 0.00596516 0.02979206 0.00057361
v 0.00875211 0.02950478 -0.01889214
v 0.00910453 0.02921749 -0.01889214
v -0.01008412 0.00336425 -0.01787352
v -0.00756857 0.02633939 0.00285931
v -0.00758073 0.02669981 0.00288416
v -0.00756047 0.02714641 0.00283447
v -0.00763744 0.02734490 0.00249285
v -0.00758680 0.02777322 0.00230652
v -0.00877774 0.02952045 -0.02768093
v -0.00878382 0.02952306 -0.02516541
v -0.00878179 0.02952306 -0.02579274
v -0.00944612 0.02892759 -0.01889214
v -0.00761516 0.02840003 0.00057361
v -0.00739642 0.02871343 0.00057361
v -0.00946435 0.02894587 -0.01951947
v -0.00910383 0.02925928 -0.02014680
v -0.00946435 0.02894848 -0.02014680
v -0.00735793 0.02865858 0.00120093
v -0.00749971 0.02819370 0.00199596
v -0.00732148 0.02853584 0.00180342
v -0.00846380 0.02967715 -0.02768093
v -0.00846988 0.02967976 -0.02516541
v -0.00784808 0.02991742 -0.02391076
v -0.00722021 0.03002189 -0.01951947
v -0.00470871 0.03003495 0.00057361
v -0.00408083 0.03004540 0.00120093
v 0.00671050 0.02938725 0.00057361
v 0.00666595 0.02935069 0.00120093
v 0.00654645 0.02932457 0.00183447
v 0.00625074 0.02951000 0.00205186
v 0.00662139 0.02911041 0.00243074
v 0.00643505 0.02903989 0.00308912
v 0.00595908 0.02938203 0.00313260
v 0.00598744 0.02912086 0.00371024
v 0.00579097 0.02901639 0.00421956
v 0.00621023 0.02882051 0.00391521
v 0.00601782 0.02864291 0.00441210
v 0.00563502 0.02888319 0.00463570
v 0.00582743 0.02846271 0.00486551
v 0.00564919 0.02826683 0.00528166
v 0.00600364 0.02803178 0.00501458
v 0.00576059 0.02784896 0.00540589
v 0.00555197 0.02732923 0.00582203
v 0.00529070 0.02669981 0.00613880
v 0.00901339 0.00336425 -0.01654433
v 0.00490992 0.02669981 0.00645557
v 0.00459599 0.02669981 0.00667917
v 0.00379190 0.02636812 0.00718228
v 0.00345366 0.03004540 0.00246180
v 0.00408153 0.03004279 0.00182826
v 0.00408153 0.03003495 0.00246180
v 0.00470941 0.03001406 0.00182826
v 0.00533728 0.02994877 0.00120093
v 0.00639657 0.02959618 0.00057361
v 0.00596516 0.02975028 0.00120093
v -0.00992209 0.00336425 -0.01755675
v -0.00695488 0.02632895 0.00410775
v -0.00719388 0.02669981 0.00371645
v -0.00744300 0.02669981 0.00320093
v -0.00751794 0.02756689 0.00272888
v -0.00742680 0.02734490 0.00306428
v -0.00743895 0.02797171 0.00249285
v -0.00878382 0.02952306 -0.02014680
v -0.00910383 0.02922010 -0.01889214
v -0.00910383 0.02925405 -0.01951947
v -0.00708248 0.02907385 0.00057361
v -0.00704400 0.02903467 0.00120093
v -0.00697918 0.02897199 0.00182826
v -0.00692045 0.02829295 0.00343074
v -0.00699134 0.02839219 0.00308912
v -0.00708450 0.02860635 0.00243695
v -0.00693057 0.02892237 0.00220714
v -0.00846988 0.02967976 -0.02014680
v -0.00784808 0.02991481 -0.01951947
v -0.00533658 0.02996966 0.00057361
v -0.00470871 0.03002973 0.00120093
v -0.00408083 0.03004279 0.00182826
v -0.00345296 0.03004540 0.00246180
v 0.00635201 0.02957268 0.00120093
v 0.00630745 0.02954395 0.00162950
v 0.00600972 0.02965626 0.00183447
v 0.00585781 0.02963014 0.00246180
v 0.00617175 0.02946038 0.00246180
v 0.00563097 0.02951522 0.00336863
v 0.00574641 0.02957790 0.00295248
v 0.00551349 0.02944993 0.00371645
v 0.00535146 0.02923838 0.00436241
v 0.00516917 0.02900333 0.00497110
v 0.00502537 0.02889886 0.00528787
v 0.00551349 0.02863769 0.00503322
v 0.00517930 0.02858546 0.00543073
v 0.00500512 0.02824594 0.00589657
v 0.00539197 0.02804745 0.00564812
v 0.00513677 0.02782545 0.00600837
v 0.00523601 0.02732923 0.00609532
v 0.00892427 0.00336425 -0.01650085
v 0.00484916 0.02732923 0.00641209
v 0.00410584 0.02669981 0.00698973
v 0.00453522 0.02732923 0.00663569
v 0.00377570 0.02703933 0.00717606
v 0.00379190 0.02669981 0.00718228
v 0.00345366 0.02669981 0.00733755
v 0.00282578 0.02669981 0.00759221
v 0.00202170 0.02633939 0.00782823
v 0.00345366 0.02629499 0.00725681
v 0.00219791 0.03004540 0.00371645
v 0.00345366 0.03003756 0.00308912
v 0.00345366 0.03001145 0.00371645
v 0.00408153 0.03000622 0.00308912
v 0.00470941 0.02998011 0.00246180
v 0.00533728 0.02990698 0.00182826
v 0.00533728 0.02983385 0.00246180
v -0.00965879 0.00336425 -0.01715923
v -0.00640599 0.02627932 0.00482204
v -0.00646271 0.02669981 0.00489657
v -0.00677664 0.02669981 0.00444937
v -0.00697311 0.02669981 0.00413881
v -0.00960815 0.00336425 -0.01708470
v -0.00694678 0.02719603 0.00409533
v -0.00708450 0.02737363 0.00377235
v -0.00690019 0.02761390 0.00402080
v -0.00699741 0.02795604 0.00356738
v -0.00721615 0.02795604 0.00308912
v -0.00877976 0.02952045 -0.01951947
v -0.00875343 0.02950478 -0.01889214
v -0.00671183 0.02938725 0.00057361
v -0.00666727 0.02935069 0.00120093
v -0.00654575 0.02932457 0.00183447
v -0.00682120 0.02795604 0.00388415
v -0.00650524 0.02798477 0.00438104
v -0.00624599 0.02821460 0.00461086
v -0.00637966 0.02840264 0.00419471
v -0.00656803 0.02855673 0.00367297
v -0.00633713 0.02895109 0.00349906
v -0.00675031 0.02870560 0.00308912
v -0.00684753 0.02882835 0.00262950
v -0.00643638 0.02903989 0.00308912
v -0.00662069 0.02911041 0.00243695
v -0.00625004 0.02951000 0.00205186
v -0.00846583 0.02967715 -0.01951947
v -0.00843950 0.02966409 -0.01889214
v -0.00596446 0.02979206 0.00057361
v -0.00533658 0.02995138 0.00120093
v -0.00470871 0.03001406 0.00182826
v -0.00408083 0.03003495 0.00246180
v -0.00345296 0.03003756 0.00308912
v -0.00219721 0.03004540 0.00371645
v 0.00519955 0.02960663 0.00371645
v 0.00506993 0.02954917 0.00408291
v 0.00538792 0.02968237 0.00313260
v 0.00488359 0.02945777 0.00450527
v 0.00468915 0.02931412 0.00494626
v 0.00470941 0.02899810 0.00541831
v 0.00435496 0.02887013 0.00588414
v 0.00476207 0.02862986 0.00575992
v 0.00458586 0.02845226 0.00606427
v 0.00429825 0.02815191 0.00648041
v 0.00472966 0.02798999 0.00624439
v 0.00445623 0.02773404 0.00657979
v 0.00847463 0.00336425 -0.01636421
v 0.00402280 0.02727961 0.00697110
v 0.00368253 0.02745720 0.00712637
v 0.00346581 0.02727961 0.00726302
v 0.00282578 0.02732923 0.00752389
v 0.00238020 0.02669981 0.00775370
v 0.00206423 0.02669981 0.00784066
v 0.00157004 0.02669981 0.00795867
v 0.00094216 0.02669981 0.00805805
v 0.00157004 0.02628194 0.00788414
v 0.00282578 0.03003756 0.00371645
v 0.00031429 0.03004540 0.00434378
v 0.00157004 0.03004018 0.00434378
v 0.00408153 0.02993571 0.00371645
v 0.00219791 0.03002973 0.00434378
v 0.00282578 0.02999839 0.00434378
v 0.00345366 0.02992787 0.00434378
v 0.00470941 0.02990959 0.00308912
v 0.00470941 0.02978423 0.00371645
v -0.00581660 0.02627671 0.00546800
v -0.00589559 0.02669981 0.00555495
v -0.00620953 0.02669981 0.00520713
v -0.00933067 0.00336425 -0.01676793
v -0.00642220 0.02732923 0.00484067
v -0.00676652 0.02737363 0.00431893
v -0.00635131 0.02779672 0.00474750
v -0.00639789 0.02959618 0.00057361
v -0.00635333 0.02957268 0.00120093
v -0.00630675 0.02954395 0.00162950
v -0.00563432 0.02888319 0.00463570
v -0.00601914 0.02864291 0.00441210
v -0.00600294 0.02803178 0.00501458
v -0.00564849 0.02826683 0.00528166
v -0.00582673 0.02846532 0.00486551
v -0.00620953 0.02882051 0.00391521
v -0.00595838 0.02938203 0.00313260
v -0.00579027 0.02901639 0.00421956
v -0.00598674 0.02912086 0.00371024
v -0.00617105 0.02946038 0.00246180
v -0.00601104 0.02965626 0.00183447
v -0.00585711 0.02963014 0.00246180
v -0.00596446 0.02975028 0.00120093
v -0.00533658 0.02990698 0.00182826
v -0.00470871 0.02998011 0.00246180
v -0.00408083 0.03000622 0.00308912
v -0.00345296 0.03001145 0.00371645
v -0.00282509 0.03003756 0.00371645
v -0.00156934 0.03004018 0.00434378
v -0.00031359 0.03004540 0.00434378
v 0.00468915 0.02961708 0.00431272
v 0.00446636 0.02955701 0.00472266
v 0.00422331 0.02944993 0.00513880
v 0.00407951 0.02922010 0.00559843
v 0.00393570 0.02899027 0.00602079
v 0.00358531 0.02877872 0.00643694
v 0.00411799 0.02861419 0.00625060
v 0.00387899 0.02836085 0.00661085
v 0.00408558 0.02794820 0.00670402
v 0.00835310 0.00336425 -0.01635178
v 0.00094216 0.02623754 0.00793383
v 0.00326327 0.02777583 0.00722575
v 0.00346581 0.02797432 0.00703942
v 0.00219791 0.02795604 0.00753631
v 0.00219791 0.02734490 0.00772886
v 0.00283591 0.02797432 0.00731271
v 0.00198727 0.02714641 0.00782202
v 0.00159434 0.02734490 0.00787793
v 0.00094216 0.02732923 0.00798351
v 0.00031429 0.02732923 0.00803320
v 0.00031429 0.02669981 0.00810152
v 0.00031429 0.03002189 0.00497110
v 0.00094216 0.03001406 0.00497110
v 0.00408153 0.02979990 0.00434378
v 0.00157004 0.02999317 0.00497110
v 0.00219791 0.02995660 0.00497110
v 0.00282578 0.02988609 0.00497110
v 0.00345366 0.02976334 0.00497110
v -0.00520493 0.02627671 0.00607048
v -0.00560394 0.02669981 0.00586551
v -0.00585306 0.02732923 0.00550526
v -0.00616700 0.02732923 0.00515123
v -0.00901674 0.00336425 -0.01654433
v -0.00453655 0.02629238 0.00663569
v -0.00575989 0.02784896 0.00540589
v -0.00535076 0.02923838 0.00436241
v -0.00551482 0.02863769 0.00503322
v -0.00502467 0.02889886 0.00528787
v -0.00516847 0.02900594 0.00497110
v -0.00539127 0.02804745 0.00564812
v -0.00500442 0.02824594 0.00589657
v -0.00517860 0.02858546 0.00543073
v -0.00563027 0.02951783 0.00336863
v -0.00574571 0.02957790 0.00295248
v -0.00551279 0.02944993 0.00371645
v -0.00533658 0.02983385 0.00246180
v -0.00470871 0.02990959 0.00308912
v -0.00408083 0.02993571 0.00371645
v -0.00345296 0.02992787 0.00434378
v -0.00282509 0.02999839 0.00434378
v -0.00219721 0.03002973 0.00434378
v -0.00094146 0.03001406 0.00497110
v -0.00031359 0.03002189 0.00497110
v 0.00404103 0.02960924 0.00494626
v 0.00380405 0.02954134 0.00531272
v 0.00345366 0.02941598 0.00573508
v 0.00340707 0.02907123 0.00622576
v 0.00316605 0.02891192 0.00655495
v 0.00340707 0.02857501 0.00669159
v 0.00305060 0.02819370 0.00713258
v 0.00784878 0.00336425 -0.01633315
v 0.00031429 0.02622448 0.00795867
v 0.00159434 0.02794820 0.00769159
v 0.00140193 0.02773404 0.00783444
v 0.00182119 0.02756689 0.00777855
v 0.00263135 0.02834257 0.00721954
v 0.00219791 0.02843920 0.00728165
v 0.00094216 0.02781239 0.00785929
v -0.00031359 0.02732923 0.00803320
v -0.00031359 0.02669981 0.00810774
v 0.00031429 0.02787246 0.00788414
v 0.00031429 0.02992004 0.00559843
v 0.00094216 0.02989653 0.00559843
v 0.00157004 0.02985474 0.00559843
v 0.00219791 0.02977901 0.00559843
v 0.00282173 0.02965103 0.00562949
v 0.00345366 0.02959096 0.00541831
v -0.00529000 0.02669981 0.00613880
v -0.00555128 0.02732923 0.00582203
v -0.00847393 0.00336425 -0.01636421
v -0.00202100 0.02633939 0.00782823
v -0.00345296 0.02629499 0.00725681
v -0.00379120 0.02636812 0.00718228
v -0.00459731 0.02669981 0.00667917
v -0.00491125 0.02669981 0.00645557
v -0.00513607 0.02782545 0.00600837
v -0.00488289 0.02945777 0.00450527
v -0.00506923 0.02954917 0.00408291
v -0.00476137 0.02862986 0.00575992
v -0.00435426 0.02887013 0.00588414
v -0.00470871 0.02899810 0.00541831
v -0.00468845 0.02931412 0.00494626
v -0.00472896 0.02798999 0.00624439
v -0.00429755 0.02815191 0.00648041
v -0.00458516 0.02845226 0.00606427
v -0.00538722 0.02968237 0.00313260
v -0.00519886 0.02960663 0.00371645
v -0.00470871 0.02978423 0.00371645
v -0.00408083 0.02979990 0.00434378
v -0.00345296 0.02976334 0.00497110
v -0.00282509 0.02988609 0.00497110
v -0.00219721 0.02995660 0.00497110
v -0.00156934 0.02999317 0.00497110
v -0.00031359 0.02992004 0.00559843
v 0.00303035 0.02949694 0.00585930
v 0.00282578 0.02897982 0.00662948
v 0.00283591 0.02856456 0.00696489
v 0.00282173 0.02932196 0.00618849
v -0.00784808 0.00336425 -0.01633315
v -0.00031359 0.02622448 0.00795867
v 0.00094216 0.02812580 0.00773507
v 0.00219791 0.02875261 0.00705184
v 0.00170169 0.02884402 0.00712637
v 0.00152345 0.02861419 0.00733134
v -0.00094146 0.02732923 0.00798351
v -0.00031359 0.02787246 0.00788414
v -0.00094146 0.02781239 0.00785929
v -0.00094146 0.02669981 0.00805805
v -0.00094146 0.02623754 0.00793383
v 0.00031429 0.02818587 0.00775991
v 0.00031834 0.02965364 0.00628166
v 0.00094216 0.02966670 0.00618849
v 0.00157004 0.02964058 0.00613259
v 0.00219791 0.02959357 0.00603321
v 0.00261109 0.02955179 0.00595247
v -0.00523734 0.02732923 0.00609532
v -0.00156934 0.02628194 0.00788414
v -0.00156934 0.02669981 0.00795867
v -0.00206556 0.02669981 0.00784066
v -0.00237950 0.02669981 0.00775370
v -0.00282509 0.02669981 0.00759221
v -0.00345296 0.02669981 0.00733755
v -0.00379120 0.02669981 0.00718228
v -0.00410514 0.02669981 0.00698973
v -0.00453655 0.02732923 0.00663569
v -0.00377500 0.02703933 0.00717606
v -0.00485049 0.02732923 0.00641209
v -0.00445553 0.02773404 0.00657979
v -0.00446566 0.02955701 0.00472266
v -0.00468845 0.02961708 0.00431272
v -0.00411729 0.02861680 0.00625060
v -0.00358461 0.02877872 0.00643694
v -0.00393500 0.02899027 0.00602079
v -0.00407881 0.02922010 0.00559843
v -0.00422261 0.02944993 0.00513880
v -0.00408488 0.02794820 0.00670402
v -0.00388032 0.02836085 0.00661085
v -0.00404033 0.02960924 0.00494626
v -0.00380335 0.02954134 0.00531272
v -0.00345296 0.02959096 0.00541831
v -0.00282306 0.02965103 0.00562949
v -0.00219721 0.02978162 0.00559843
v -0.00156934 0.02985474 0.00559843
v -0.00094146 0.02989653 0.00559843
v -0.00094146 0.02966670 0.00618849
v -0.00031764 0.02965364 0.00628166
v 0.00219791 0.02939770 0.00634998
v 0.00219791 0.02908168 0.00674128
v 0.00094216 0.02858546 0.00744314
v 0.00128243 0.02890670 0.00717606
v -0.00140123 0.02773404 0.00783444
v -0.00159364 0.02734490 0.00787793
v -0.00031359 0.02818587 0.00775991
v -0.00094146 0.02812580 0.00773507
v 0.00031429 0.02858546 0.00749904
v 0.00011175 0.02953089 0.00654874
v 0.00053100 0.02952306 0.00653010
v 0.00094216 0.02950478 0.00650526
v 0.00157004 0.02946560 0.00644315
v -0.00198657 0.02714641 0.00782202
v -0.00219721 0.02734490 0.00772886
v -0.00282509 0.02732923 0.00752389
v -0.00402412 0.02728222 0.00697110
v -0.00368183 0.02745981 0.00712637
v -0.00346511 0.02728222 0.00726302
v -0.00316535 0.02891192 0.00655495
v -0.00345296 0.02941598 0.00573508
v -0.00340638 0.02907123 0.00622576
v -0.00346511 0.02797432 0.00703942
v -0.00340638 0.02857501 0.00669159
v -0.00304990 0.02819370 0.00713258
v -0.00302965 0.02949694 0.00585930
v -0.00261039 0.02955179 0.00595247
v -0.00219721 0.02959357 0.00603321
v -0.00156934 0.02964058 0.00613259
v -0.00094146 0.02950478 0.00650526
v -0.00053031 0.02952306 0.00653010
v -0.00011105 0.02953089 0.00654874
v 0.00152345 0.02910519 0.00689035
v 0.00094216 0.02892759 0.00719470
v 0.00094216 0.02922010 0.00685308
v -0.00159364 0.02794820 0.00769159
v -0.00219721 0.02795604 0.00753631
v -0.00182049 0.02756689 0.00777855
v -0.00031359 0.02858546 0.00749904
v -0.00094146 0.02858546 0.00744314
v -0.00152275 0.02861419 0.00733134
v -0.00219721 0.02843920 0.00728165
v 0.00031429 0.02895632 0.00722575
v 0.00031834 0.02931935 0.00679718
v -0.00283521 0.02797432 0.00731271
v -0.00326460 0.02777583 0.00722575
v -0.00282306 0.02932196 0.00618849
v -0.00283521 0.02856456 0.00696489
v -0.00282509 0.02897982 0.00662948
v -0.00263267 0.02834257 0.00721954
v -0.00219721 0.02939770 0.00634998
v -0.00156934 0.02946560 0.00644315
v -0.00094146 0.02922010 0.00685308
v -0.00031764 0.02931935 0.00679718
v -0.00031359 0.02895632 0.00722575
v -0.00094146 0.02892759 0.00719470
v -0.00128173 0.02890670 0.00717606
v -0.00170099 0.02884402 0.00712637
v -0.00219721 0.02875261 0.00705184
v -0.00219721 0.02908429 0.00674128
v -0.00152275 0.02910519 0.00689035
f 1 2 3
f 1 3 4
f 1 4 5
f 1 5 6
f 1 6 7
f 1 7 34
f 1 34 60
f 1 60 90
f 1 90 89
f 1 89 132
f 1 132 189
f 1 189 271
f 1 271 341
f 1 341 404
f 1 404 479
f 1 479 484
f 1 484 552
f 1 552 551
f 1 551 601
f 1 601 654
f 1 654 705
f 1 705 769
f 1 769 827
f 1 827 878
f 1 878 926
f 1 926 897
f 1 897 850
f 1 850 791
f 1 791 727
f 1 727 722
f 1 722 665
f 1 665 612
f 1 612 564
f 1 564 499
f 1 499 423
f 1 423 357
f 1 357 283
f 1 283 200
f 1 200 143
f 1 143 98
f 1 98 64
f 1 64 63
f 1 63 36
f 1 36 35
f 1 35 10
f 1 10 9
f 1 9 8
f 1 8 2
f 2 8 3
f 3 8 9
f 3 9 10
f 3 10 11
f 3 11 12
f 3 12 13
f 3 13 4
f 4 14 5
f 4 13 15
f 4 15 16
f 4 16 17
f 4 17 18
f 4 18 19
f 4 19 20
f 4 20 21
f 4 21 22
f 4 22 23
f 4 23 14
f 5 14 24
f 5 24 28
f 5 28 6
f 6 25 26
f 6 26 27
f 6 27 7
f 6 28 29
f 6 29 30
f 6 30 31
f 6 31 32
f 6 32 25
f 7 33 34
f 7 27 33
f 10 35 11
f 11 35 12
f 12 35 36
f 12 36 37
f 12 37 13
f 13 37 38
f 13 38 39
f 13 39 40
f 13 40 41
f 13 41 15
f 14 23 24
f 15 41 16
f 16 41 42
f 16 42 43
f 16 43 44
f 16 44 17
f 17 45 46
f 17 46 47
f 17 47 18
f 17 44 45
f 18 47 19
f 19 48 49
f 19 49 50
f 19 50 51
f 19 51 52
f 19 52 53
f 19 53 20
f 19 47 48
f 20 53 54
f 20 54 57
f 20 57 32
f 20 32 31
f 20 31 30
f 20 30 22
f 20 22 21
f 22 30 29
f 22 29 23
f 23 29 28
f 23 28 24
f 25 55 26
f 25 32 56
f 25 56 55
f 26 55 33
f 26 33 27
f 32 57 58
f 32 58 56
f 33 59 60
f 33 60 34
f 33 55 61
f 33 61 62
f 33 62 59
f 36 63 37
f 37 63 64
f 37 64 38
f 38 65 39
f 38 64 65
f 39 66 67
f 39 67 68
f 39 68 40
f 39 65 66
f 40 68 42
f 40 42 41
f 42 68 67
f 42 67 69
f 42 69 70
f 42 70 71
f 42 71 72
f 42 72 43
f 43 72 71
f 43 71 73
f 43 73 45
f 43 45 44
f 45 73 74
f 45 74 75
f 45 75 76
f 45 76 46
f 46 76 77
f 46 77 49
f 46 49 47
f 47 49 48
f 49 77 78
f 49 78 79
f 49 79 80
f 49 80 50
f 50 80 51
f 51 81 54
f 51 54 52
f 51 80 81
f 52 54 53
f 54 82 83
f 54 83 57
f 54 81 84
f 54 84 85
f 54 85 82
f 55 56 61
f 56 58 61
f 57 83 86
f 57 86 87
f 57 87 58
f 58 88 61
f 58 87 88
f 59 89 90
f 59 90 60
f 59 62 91
f 59 91 92
f 59 92 93
f 59 93 97
f 59 97 96
f 59 96 95
f 59 95 134
f 59 134 133
f 59 133 94
f 59 94 132
f 59 132 89
f 61 88 95
f 61 95 96
f 61 96 97
f 61 97 93
f 61 93 92
f 61 92 91
f 61 91 62
f 64 98 99
f 64 99 100
f 64 100 101
f 64 101 102
f 64 102 103
f 64 103 104
f 64 104 105
f 64 105 106
f 64 106 107
f 64 107 66
f 64 66 65
f 66 107 108
f 66 108 109
f 66 109 69
f 66 69 67
f 69 109 110
f 69 110 70
f 70 110 111
f 70 111 71
f 71 111 112
f 71 112 113
f 71 113 73
f 73 113 114
f 73 114 74
f 74 114 75
f 75 114 76
f 76 115 116
f 76 116 117
f 76 117 118
f 76 118 77
f 76 114 113
f 76 113 115
f 77 118 78
f 78 118 79
f 79 119 80
f 79 118 119
f 80 119 120
f 80 120 121
f 80 121 81
f 81 122 123
f 81 123 124
f 81 124 85
f 81 85 84
f 81 121 125
f 81 125 122
f 82 85 126
f 82 126 83
f 83 126 127
f 83 127 86
f 85 124 123
f 85 123 126
f 86 128 87
f 86 127 129
f 86 129 130
f 86 130 131
f 86 131 128
f 87 128 88
f 88 128 95
f 94 133 188
f 94 188 132
f 95 128 183
f 95 183 134
f 98 135 136
f 98 136 137
f 98 137 138
f 98 138 139
f 98 139 140
f 98 140 141
f 98 141 142
f 98 142 99
f 98 143 135
f 99 142 144
f 99 144 100
f 100 145 146
f 100 146 147
f 100 147 148
f 100 148 149
f 100 149 101
f 100 144 145
f 101 149 102
f 102 149 150
f 102 150 151
f 102 151 152
f 102 152 104
f 102 104 103
f 104 152 153
f 104 153 154
f 104 154 105
f 105 154 155
f 105 155 156
f 105 156 157
f 105 157 158
f 105 158 159
f 105 159 160
f 105 160 106
f 106 160 159
f 106 159 161
f 106 161 109
f 106 109 107
f 107 109 108
f 109 162 163
f 109 163 164
f 109 164 110
f 109 161 159
f 109 159 165
f 109 165 166
f 109 166 167
f 109 167 168
f 109 168 169
f 109 169 162
f 110 164 111
f 111 164 170
f 111 170 112
f 112 170 113
f 113 170 171
f 113 171 116
f 113 116 115
f 116 171 172
f 116 172 120
f 116 120 119
f 116 119 118
f 116 118 117
f 120 173 174
f 120 174 175
f 120 175 176
f 120 176 177
f 120 177 121
f 120 172 173
f 121 177 125
f 122 178 179
f 122 179 123
f 122 125 180
f 122 180 178
f 123 179 126
f 125 177 181
f 125 181 180
f 126 182 129
f 126 129 127
f 126 179 182
f 128 131 187
f 128 187 183
f 129 184 130
f 129 182 184
f 130 184 185
f 130 185 131
f 131 185 186
f 131 186 263
f 131 263 187
f 132 188 267
f 132 267 189
f 133 134 195
f 133 195 188
f 134 183 190
f 134 190 191
f 134 191 192
f 134 192 193
f 134 193 194
f 134 194 195
f 135 196 197
f 135 197 198
f 135 198 199
f 135 199 136
f 135 143 200
f 135 200 196
f 136 199 137
f 137 201 202
f 137 202 203
f 137 203 204
f 137 204 205
f 137 205 206
f 137 206 207
f 137 207 138
f 137 199 201
f 138 207 139
f 139 207 206
f 139 206 208
f 139 208 205
f 139 205 140
f 140 205 204
f 140 204 209
f 140 209 210
f 140 210 142
f 140 142 141
f 142 210 144
f 144 210 203
f 144 203 211
f 144 211 212
f 144 212 145
f 145 212 213
f 145 213 214
f 145 214 146
f 146 214 147
f 147 215 148
f 147 214 216
f 147 216 217
f 147 217 218
f 147 218 219
f 147 219 215
f 148 215 220
f 148 220 221
f 148 221 149
f 149 221 222
f 149 222 150
f 150 222 151
f 151 223 224
f 151 224 225
f 151 225 153
f 151 153 152
f 151 222 221
f 151 221 226
f 151 226 223
f 153 225 154
f 154 156 155
f 154 225 227
f 154 227 228
f 154 228 229
f 154 229 230
f 154 230 231
f 154 231 232
f 154 232 156
f 156 232 233
f 156 233 234
f 156 234 157
f 157 235 236
f 157 236 237
f 157 237 159
f 157 159 158
f 157 234 238
f 157 238 239
f 157 239 240
f 157 240 241
f 157 241 242
f 157 242 235
f 159 237 165
f 162 169 243
f 162 243 244
f 162 244 163
f 163 245 164
f 163 244 245
f 164 245 170
f 165 237 246
f 165 246 166
f 166 246 167
f 167 246 247
f 167 247 168
f 168 248 169
f 168 247 248
f 169 248 242
f 169 242 241
f 169 241 249
f 169 249 250
f 169 250 243
f 170 245 172
f 170 172 171
f 172 245 173
f 173 251 252
f 173 252 175
f 173 175 174
f 173 245 251
f 175 252 244
f 175 244 243
f 175 243 250
f 175 250 176
f 176 250 249
f 176 249 177
f 177 249 253
f 177 253 254
f 177 254 181
f 178 255 324
f 178 324 256
f 178 256 179
f 178 180 257
f 178 257 325
f 178 325 255
f 179 256 258
f 179 258 182
f 180 259 260
f 180 260 257
f 180 181 254
f 180 254 261
f 180 261 259
f 182 258 184
f 183 187 190
f 184 258 326
f 184 326 262
f 184 262 186
f 184 186 185
f 186 262 332
f 186 332 263
f 187 263 264
f 187 264 190
f 188 265 337
f 188 337 266
f 188 266 267
f 188 195 194
f 188 194 265
f 189 267 268
f 189 268 269
f 189 269 270
f 189 270 271
f 190 264 272
f 190 272 191
f 191 272 273
f 191 273 274
f 191 274 275
f 191 275 276
f 191 276 277
f 191 277 278
f 191 278 279
f 191 279 192
f 192 279 193
f 193 279 280
f 193 280 354
f 193 354 281
f 193 281 265
f 193 265 194
f 196 282 286
f 196 286 197
f 196 200 283
f 196 283 282
f 197 284 285
f 197 285 198
f 197 286 284
f 198 285 287
f 198 287 199
f 199 287 201
f 201 288 202
f 201 287 289
f 201 289 288
f 202 288 290
f 202 290 291
f 202 291 203
f 203 210 292
f 203 292 209
f 203 209 204
f 203 291 293
f 203 293 294
f 203 294 295
f 203 295 296
f 203 296 297
f 203 297 213
f 203 213 212
f 203 212 211
f 205 208 206
f 209 292 210
f 213 297 298
f 213 298 214
f 214 298 375
f 214 375 299
f 214 299 300
f 214 300 301
f 214 301 216
f 215 302 220
f 215 219 303
f 215 303 304
f 215 304 305
f 215 305 306
f 215 306 302
f 216 301 307
f 216 307 308
f 216 308 217
f 217 308 309
f 217 309 310
f 217 310 218
f 218 310 311
f 218 311 312
f 218 312 219
f 219 312 303
f 220 302 313
f 220 313 221
f 221 313 314
f 221 314 226
f 223 227 225
f 223 225 224
f 223 226 228
f 223 228 227
f 226 314 315
f 226 315 228
f 228 315 229
f 229 231 230
f 229 315 316
f 229 316 231
f 231 316 232
f 232 316 233
f 233 317 238
f 233 238 234
f 233 316 306
f 233 306 318
f 233 318 317
f 235 247 236
f 235 242 248
f 235 248 247
f 236 247 246
f 236 246 237
f 238 317 239
f 239 317 318
f 239 318 240
f 240 318 241
f 241 318 319
f 241 319 305
f 241 305 249
f 244 252 245
f 245 252 251
f 249 305 320
f 249 320 304
f 249 304 253
f 253 304 321
f 253 321 254
f 254 321 261
f 255 322 323
f 255 323 324
f 255 325 322
f 256 324 391
f 256 391 326
f 256 326 258
f 257 327 392
f 257 392 325
f 257 260 327
f 259 261 260
f 260 261 328
f 260 328 395
f 260 395 329
f 260 329 392
f 260 392 327
f 261 330 328
f 261 321 331
f 261 331 330
f 262 326 391
f 262 391 332
f 263 332 333
f 263 333 334
f 263 334 335
f 263 335 264
f 264 335 336
f 264 336 272
f 265 281 356
f 265 356 337
f 266 337 268
f 266 268 267
f 268 338 269
f 268 337 338
f 269 338 270
f 270 338 339
f 270 339 340
f 270 340 271
f 271 340 342
f 271 342 341
f 272 336 343
f 272 343 344
f 272 344 345
f 272 345 346
f 272 346 347
f 272 347 273
f 273 347 346
f 273 346 348
f 273 348 412
f 273 412 349
f 273 349 350
f 273 350 274
f 274 276 275
f 274 350 276
f 276 350 351
f 276 351 352
f 276 352 277
f 277 352 278
f 278 352 353
f 278 353 280
f 278 280 279
f 280 353 421
f 280 421 354
f 281 354 355
f 281 355 356
f 282 283 357
f 282 357 358
f 282 358 359
f 282 359 360
f 282 360 286
f 284 361 285
f 284 286 362
f 284 362 429
f 284 429 361
f 285 363 287
f 285 361 363
f 286 360 426
f 286 426 364
f 286 364 431
f 286 431 362
f 287 363 289
f 288 289 365
f 288 365 366
f 288 366 290
f 289 363 367
f 289 367 365
f 290 366 291
f 291 366 368
f 291 368 369
f 291 369 370
f 291 370 293
f 293 370 294
f 294 370 369
f 294 369 371
f 294 371 372
f 294 372 373
f 294 373 297
f 294 297 296
f 294 296 295
f 297 373 372
f 297 372 374
f 297 374 298
f 298 374 375
f 299 375 376
f 299 376 300
f 300 376 377
f 300 377 301
f 301 377 371
f 301 371 307
f 302 316 315
f 302 315 313
f 302 306 316
f 303 312 304
f 304 320 305
f 304 312 378
f 304 378 379
f 304 379 321
f 305 319 318
f 305 318 306
f 307 371 380
f 307 380 309
f 307 309 308
f 309 380 381
f 309 381 310
f 310 381 311
f 311 381 312
f 312 382 383
f 312 383 384
f 312 384 378
f 312 381 385
f 312 385 382
f 313 315 314
f 321 379 331
f 322 386 323
f 322 325 387
f 322 387 457
f 322 457 386
f 323 386 388
f 323 388 389
f 323 389 390
f 323 390 324
f 324 390 391
f 325 392 387
f 328 330 393
f 328 393 394
f 328 394 459
f 328 459 395
f 329 395 392
f 330 331 393
f 331 379 393
f 332 391 390
f 332 390 333
f 333 390 389
f 333 389 388
f 333 388 334
f 334 388 396
f 334 396 335
f 335 396 336
f 336 396 397
f 336 397 343
f 337 356 338
f 338 398 399
f 338 399 339
f 338 356 355
f 338 355 398
f 339 400 401
f 339 401 340
f 339 399 400
f 340 401 402
f 340 402 403
f 340 403 342
f 341 342 405
f 341 405 404
f 342 403 406
f 342 406 407
f 342 407 405
f 343 397 472
f 343 472 408
f 343 408 409
f 343 409 344
f 344 409 410
f 344 410 345
f 345 410 346
f 346 410 348
f 348 410 411
f 348 411 412
f 349 412 490
f 349 490 413
f 349 413 414
f 349 414 350
f 350 415 351
f 350 414 416
f 350 416 417
f 350 417 415
f 351 415 352
f 352 415 417
f 352 417 418
f 352 418 419
f 352 419 353
f 353 419 420
f 353 420 421
f 354 421 355
f 355 421 422
f 355 422 398
f 357 423 424
f 357 424 359
f 357 359 358
f 359 424 425
f 359 425 503
f 359 503 426
f 359 426 360
f 361 427 428
f 361 428 363
f 361 429 430
f 361 430 427
f 362 431 506
f 362 506 429
f 363 428 367
f 364 426 503
f 364 503 432
f 364 432 433
f 364 433 431
f 365 367 434
f 365 434 435
f 365 435 436
f 365 436 366
f 366 437 438
f 366 438 439
f 366 439 368
f 366 436 435
f 366 435 437
f 367 428 440
f 367 440 434
f 368 439 441
f 368 441 371
f 368 371 369
f 371 377 372
f 371 441 442
f 371 442 380
f 372 377 374
f 374 377 375
f 375 377 376
f 378 384 379
f 379 384 443
f 379 443 444
f 379 444 445
f 379 445 393
f 380 442 446
f 380 446 381
f 381 447 448
f 381 448 382
f 381 382 385
f 381 446 449
f 381 449 450
f 381 450 441
f 381 441 451
f 381 451 447
f 382 448 452
f 382 452 383
f 383 452 453
f 383 453 454
f 383 454 443
f 383 443 384
f 386 455 456
f 386 456 388
f 386 457 529
f 386 529 455
f 387 392 458
f 387 458 457
f 388 456 396
f 392 395 458
f 393 445 394
f 394 445 444
f 394 444 459
f 395 459 460
f 395 460 461
f 395 461 462
f 395 462 463
f 395 463 464
f 395 464 465
f 395 465 466
f 395 466 467
f 395 467 457
f 395 457 458
f 396 456 468
f 396 468 469
f 396 469 470
f 396 470 471
f 396 471 397
f 397 471 536
f 397 536 472
f 398 473 474
f 398 474 399
f 398 422 473
f 399 474 475
f 399 475 400
f 400 475 476
f 400 476 477
f 400 477 401
f 401 477 402
f 402 477 478
f 402 478 407
f 402 407 406
f 402 406 403
f 404 405 479
f 405 407 480
f 405 480 481
f 405 481 482
f 405 482 483
f 405 483 484
f 405 484 479
f 407 485 486
f 407 486 480
f 407 478 485
f 408 472 537
f 408 537 487
f 408 487 488
f 408 488 409
f 409 488 411
f 409 411 410
f 411 488 489
f 411 489 490
f 411 490 412
f 413 490 414
f 414 491 416
f 414 490 492
f 414 492 557
f 414 557 493
f 414 493 558
f 414 558 491
f 416 491 417
f 417 491 418
f 418 491 558
f 418 558 494
f 418 494 420
f 418 420 419
f 420 494 495
f 420 495 421
f 421 495 496
f 421 496 497
f 421 497 422
f 422 497 498
f 422 498 473
f 423 499 500
f 423 500 501
f 423 501 502
f 423 502 424
f 424 502 425
f 425 502 503
f 427 504 505
f 427 505 428
f 427 430 504
f 428 505 440
f 429 506 572
f 429 572 507
f 429 507 430
f 430 508 504
f 430 507 509
f 430 509 508
f 431 433 506
f 432 503 510
f 432 510 433
f 433 511 506
f 433 510 512
f 433 512 511
f 434 440 513
f 434 513 435
f 435 513 514
f 435 514 515
f 435 515 516
f 435 516 467
f 435 467 466
f 435 466 437
f 437 466 465
f 437 465 438
f 438 465 517
f 438 517 439
f 439 518 519
f 439 519 520
f 439 520 451
f 439 451 441
f 439 517 518
f 440 505 521
f 440 521 522
f 440 522 513
f 441 450 449
f 441 449 446
f 441 446 442
f 443 523 444
f 443 454 524
f 443 524 523
f 444 523 525
f 444 525 461
f 444 461 460
f 444 460 459
f 447 526 448
f 447 451 526
f 448 526 452
f 451 520 526
f 452 526 527
f 452 527 453
f 453 527 454
f 454 527 520
f 454 520 528
f 454 528 524
f 455 529 515
f 455 515 456
f 456 515 468
f 457 467 529
f 461 525 462
f 462 525 463
f 463 525 530
f 463 530 531
f 463 531 464
f 464 531 532
f 464 532 465
f 465 532 517
f 467 516 529
f 468 515 533
f 468 533 469
f 469 533 534
f 469 534 535
f 469 535 471
f 469 471 470
f 471 535 536
f 472 536 582
f 472 582 537
f 473 498 538
f 473 538 539
f 473 539 474
f 474 540 475
f 474 539 540
f 475 541 542
f 475 542 543
f 475 543 476
f 475 540 541
f 476 543 544
f 476 544 477
f 477 544 545
f 477 545 546
f 477 546 478
f 478 546 485
f 480 486 481
f 481 547 482
f 481 486 547
f 482 547 548
f 482 548 483
f 483 548 549
f 483 549 550
f 483 550 551
f 483 551 552
f 483 552 484
f 485 546 486
f 486 546 553
f 486 553 547
f 487 537 583
f 487 583 635
f 487 635 687
f 487 687 756
f 487 756 817
f 487 817 780
f 487 780 715
f 487 715 658
f 487 658 603
f 487 603 554
f 487 554 555
f 487 555 488
f 488 555 489
f 489 555 556
f 489 556 557
f 489 557 492
f 489 492 490
f 493 557 608
f 493 608 559
f 493 559 560
f 493 560 558
f 494 561 495
f 494 558 560
f 494 560 562
f 494 562 561
f 495 561 562
f 495 562 496
f 496 562 563
f 496 563 497
f 497 563 538
f 497 538 498
f 499 564 500
f 500 565 566
f 500 566 510
f 500 510 501
f 500 564 565
f 501 510 502
f 502 510 503
f 504 567 505
f 504 508 568
f 504 568 567
f 505 567 569
f 505 569 521
f 506 511 570
f 506 570 571
f 506 571 572
f 507 572 574
f 507 574 509
f 508 509 573
f 508 573 568
f 509 574 625
f 509 625 573
f 510 566 512
f 511 512 575
f 511 575 570
f 512 566 576
f 512 576 577
f 512 577 575
f 513 522 514
f 514 522 533
f 514 533 515
f 515 529 516
f 517 532 531
f 517 531 518
f 518 531 578
f 518 578 519
f 519 578 528
f 519 528 520
f 520 527 526
f 521 569 522
f 522 534 533
f 522 569 534
f 523 524 530
f 523 530 525
f 524 528 579
f 524 579 530
f 528 578 579
f 530 578 531
f 530 579 578
f 534 569 580
f 534 580 535
f 535 580 581
f 535 581 582
f 535 582 536
f 537 582 633
f 537 633 583
f 538 584 585
f 538 585 539
f 538 563 584
f 539 585 586
f 539 586 540
f 540 586 587
f 540 587 541
f 541 587 588
f 541 588 542
f 542 588 589
f 542 589 543
f 543 590 591
f 543 591 592
f 543 592 593
f 543 593 594
f 543 594 545
f 543 545 544
f 543 589 590
f 545 594 546
f 546 594 595
f 546 595 596
f 546 596 547
f 546 547 553
f 547 596 597
f 547 597 548
f 548 597 598
f 548 598 549
f 549 598 599
f 549 599 550
f 550 599 600
f 550 600 551
f 551 600 602
f 551 602 601
f 554 603 604
f 554 604 555
f 555 604 605
f 555 605 606
f 555 606 556
f 556 607 608
f 556 608 557
f 556 606 609
f 556 609 607
f 559 608 607
f 559 607 610
f 559 610 611
f 559 611 560
f 560 611 563
f 560 563 562
f 563 611 584
f 564 612 613
f 564 613 565
f 565 613 614
f 565 614 615
f 565 615 616
f 565 616 566
f 566 616 617
f 566 617 576
f 567 568 618
f 567 618 569
f 568 573 619
f 568 619 620
f 568 620 618
f 569 618 630
f 569 630 580
f 570 621 571
f 570 575 622
f 570 622 623
f 570 623 621
f 571 621 624
f 571 624 572
f 572 624 574
f 573 625 672
f 573 672 619
f 574 624 626
f 574 626 625
f 575 577 627
f 575 627 623
f 575 623 622
f 576 617 628
f 576 628 577
f 577 628 629
f 577 629 627
f 580 630 581
f 581 630 631
f 581 631 632
f 581 632 582
f 582 632 633
f 583 633 634
f 583 634 635
f 584 636 585
f 584 611 636
f 585 637 586
f 585 636 637
f 586 638 587
f 586 637 638
f 587 638 639
f 587 639 640
f 587 640 641
f 587 641 588
f 588 641 590
f 588 590 589
f 590 641 642
f 590 642 643
f 590 643 644
f 590 644 645
f 590 645 591
f 591 645 592
f 592 645 646
f 592 646 593
f 593 595 594
f 593 646 647
f 593 647 648
f 593 648 649
f 593 649 650
f 593 650 596
f 593 596 595
f 596 650 651
f 596 651 597
f 597 651 598
f 598 651 652
f 598 652 599
f 599 652 653
f 599 653 600
f 600 653 602
f 601 602 654
f 602 653 655
f 602 655 656
f 602 656 657
f 602 657 654
f 603 658 659
f 603 659 604
f 604 659 605
f 605 659 660
f 605 660 661
f 605 661 606
f 606 661 662
f 606 662 609
f 607 609 663
f 607 663 610
f 609 662 720
f 609 720 664
f 609 664 663
f 610 663 636
f 610 636 611
f 612 665 666
f 612 666 613
f 613 666 667
f 613 667 668
f 613 668 614
f 614 668 615
f 615 669 616
f 615 668 670
f 615 670 669
f 616 669 617
f 617 669 671
f 617 671 628
f 618 620 630
f 619 672 682
f 619 682 631
f 619 631 620
f 620 631 630
f 621 673 674
f 621 674 624
f 621 623 675
f 621 675 673
f 623 627 676
f 623 676 675
f 624 674 625
f 624 625 626
f 625 674 672
f 627 629 677
f 627 677 676
f 628 671 678
f 628 678 679
f 628 679 680
f 628 680 629
f 629 680 681
f 629 681 677
f 631 682 632
f 632 682 683
f 632 683 633
f 633 683 684
f 633 684 685
f 633 685 634
f 634 685 686
f 634 686 635
f 635 686 687
f 636 663 688
f 636 688 637
f 637 688 689
f 637 689 639
f 637 639 638
f 639 689 690
f 639 690 691
f 639 691 692
f 639 692 640
f 640 692 641
f 641 692 642
f 642 693 643
f 642 692 694
f 642 694 693
f 643 693 695
f 643 695 644
f 644 695 696
f 644 696 647
f 644 647 645
f 645 647 646
f 647 697 698
f 647 698 699
f 647 699 649
f 647 649 648
f 647 696 697
f 649 651 650
f 649 699 698
f 649 698 700
f 649 700 701
f 649 701 702
f 649 702 651
f 651 702 703
f 651 703 652
f 652 703 704
f 652 704 653
f 653 704 655
f 654 657 705
f 655 704 706
f 655 706 708
f 655 708 656
f 656 707 657
f 656 708 709
f 656 709 707
f 657 710 711
f 657 711 712
f 657 712 713
f 657 713 714
f 657 714 705
f 657 707 710
f 658 715 779
f 658 779 716
f 658 716 660
f 658 660 659
f 660 716 717
f 660 717 718
f 660 718 661
f 661 718 719
f 661 719 662
f 662 719 720
f 663 664 688
f 664 720 721
f 664 721 690
f 664 690 689
f 664 689 688
f 665 722 666
f 666 723 724
f 666 724 725
f 666 725 726
f 666 726 667
f 666 722 727
f 666 727 723
f 667 726 728
f 667 728 729
f 667 729 668
f 668 729 670
f 669 670 730
f 669 730 731
f 669 731 732
f 669 732 671
f 670 729 730
f 671 732 678
f 672 674 733
f 672 733 749
f 672 749 682
f 673 734 733
f 673 733 674
f 673 675 735
f 673 735 734
f 675 676 735
f 676 677 736
f 676 736 735
f 677 681 737
f 677 737 736
f 678 731 738
f 678 738 739
f 678 739 740
f 678 740 741
f 678 741 742
f 678 742 743
f 678 743 744
f 678 744 679
f 678 732 731
f 679 744 745
f 679 745 680
f 680 745 681
f 681 745 746
f 681 746 747
f 681 747 748
f 681 748 737
f 682 749 683
f 683 749 750
f 683 750 751
f 683 751 752
f 683 752 684
f 684 752 753
f 684 753 685
f 685 753 754
f 685 754 686
f 686 754 687
f 687 754 755
f 687 755 815
f 687 815 756
f 690 721 691
f 691 721 694
f 691 694 692
f 693 757 758
f 693 758 695
f 693 694 757
f 694 721 759
f 694 759 757
f 695 758 696
f 696 760 697
f 696 758 760
f 697 760 761
f 697 761 698
f 698 762 763
f 698 763 764
f 698 764 701
f 698 701 700
f 698 761 762
f 701 765 766
f 701 766 767
f 701 767 703
f 701 703 702
f 701 764 765
f 703 767 768
f 703 768 706
f 703 706 704
f 705 714 713
f 705 713 769
f 706 768 708
f 707 709 710
f 708 768 770
f 708 770 709
f 709 770 771
f 709 771 772
f 709 772 773
f 709 773 712
f 709 712 711
f 709 711 710
f 712 773 774
f 712 774 713
f 713 774 775
f 713 775 776
f 713 776 777
f 713 777 778
f 713 778 769
f 715 780 781
f 715 781 779
f 716 779 717
f 717 782 718
f 717 779 783
f 717 783 784
f 717 784 785
f 717 785 782
f 718 782 786
f 718 786 719
f 719 786 720
f 720 786 721
f 721 786 787
f 721 787 759
f 723 788 789
f 723 789 790
f 723 790 724
f 723 727 791
f 723 791 788
f 724 792 725
f 724 790 792
f 725 792 728
f 725 728 726
f 728 730 729
f 728 792 793
f 728 793 730
f 730 738 731
f 730 793 794
f 730 794 739
f 730 739 738
f 733 734 750
f 733 750 749
f 734 735 795
f 734 795 750
f 735 736 796
f 735 796 795
f 736 737 748
f 736 748 797
f 736 797 796
f 739 794 740
f 740 798 799
f 740 799 741
f 740 794 800
f 740 800 801
f 740 801 802
f 740 802 798
f 741 803 742
f 741 799 803
f 742 803 743
f 743 804 746
f 743 746 745
f 743 745 744
f 743 803 805
f 743 805 806
f 743 806 804
f 746 807 747
f 746 804 807
f 747 807 748
f 748 808 797
f 748 807 809
f 748 809 808
f 750 795 751
f 751 795 810
f 751 810 752
f 752 810 811
f 752 811 812
f 752 812 753
f 753 812 813
f 753 813 754
f 754 813 814
f 754 814 755
f 755 814 815
f 756 815 816
f 756 816 817
f 757 787 758
f 757 759 787
f 758 787 818
f 758 818 819
f 758 819 760
f 760 819 761
f 761 819 820
f 761 820 762
f 762 820 821
f 762 821 763
f 763 822 823
f 763 823 824
f 763 824 765
f 763 765 764
f 763 821 822
f 765 824 825
f 765 825 766
f 766 825 826
f 766 826 768
f 766 768 767
f 768 826 771
f 768 771 770
f 769 778 828
f 769 828 827
f 771 829 773
f 771 773 772
f 771 826 830
f 771 830 829
f 773 831 832
f 773 832 774
f 773 829 833
f 773 833 831
f 774 834 775
f 774 832 834
f 775 834 776
f 776 834 835
f 776 835 836
f 776 836 777
f 777 836 837
f 777 837 838
f 777 838 828
f 777 828 778
f 779 781 783
f 780 817 870
f 780 870 839
f 780 839 781
f 781 839 840
f 781 840 783
f 782 787 786
f 782 785 841
f 782 841 787
f 783 840 842
f 783 842 784
f 784 842 843
f 784 843 844
f 784 844 785
f 785 844 845
f 785 845 841
f 787 841 818
f 788 846 847
f 788 847 789
f 788 791 846
f 789 848 790
f 789 847 848
f 790 848 849
f 790 849 792
f 791 850 851
f 791 851 846
f 792 849 794
f 792 794 793
f 794 849 852
f 794 852 800
f 795 796 810
f 796 797 808
f 796 808 810
f 798 853 805
f 798 805 803
f 798 803 799
f 798 802 801
f 798 801 854
f 798 854 855
f 798 855 856
f 798 856 853
f 800 852 801
f 801 855 854
f 801 852 857
f 801 857 858
f 801 858 859
f 801 859 855
f 804 806 860
f 804 860 861
f 804 861 807
f 805 862 806
f 805 853 862
f 806 862 860
f 807 861 809
f 808 809 863
f 808 863 810
f 809 861 863
f 810 863 811
f 811 863 864
f 811 864 812
f 812 864 865
f 812 865 813
f 813 865 814
f 814 865 866
f 814 866 867
f 814 867 868
f 814 868 815
f 815 868 816
f 816 868 869
f 816 869 870
f 816 870 817
f 818 841 819
f 819 871 872
f 819 872 820
f 819 841 871
f 820 872 821
f 821 873 822
f 821 872 873
f 822 873 874
f 822 874 875
f 822 875 823
f 823 875 825
f 823 825 824
f 825 830 826
f 825 875 876
f 825 876 877
f 825 877 830
f 827 828 879
f 827 879 878
f 828 838 879
f 829 830 877
f 829 877 833
f 831 880 881
f 831 881 882
f 831 882 832
f 831 833 883
f 831 883 884
f 831 884 880
f 832 882 834
f 833 877 883
f 834 882 835
f 835 881 836
f 835 882 881
f 836 881 885
f 836 885 837
f 837 886 887
f 837 887 838
f 837 885 888
f 837 888 933
f 837 933 886
f 838 887 879
f 839 889 840
f 839 870 921
f 839 921 889
f 840 889 842
f 841 845 871
f 842 889 890
f 842 890 843
f 843 890 891
f 843 891 844
f 844 891 892
f 844 892 893
f 844 893 845
f 845 893 894
f 845 894 872
f 845 872 871
f 846 851 895
f 846 895 847
f 847 895 943
f 847 943 896
f 847 896 848
f 848 852 849
f 848 896 852
f 850 897 898
f 850 898 899
f 850 899 900
f 850 900 851
f 851 900 901
f 851 901 902
f 851 902 895
f 852 896 903
f 852 903 857
f 853 856 904
f 853 904 905
f 853 905 862
f 855 859 858
f 855 858 906
f 855 906 907
f 855 907 908
f 855 908 909
f 855 909 856
f 856 909 904
f 857 903 858
f 858 903 910
f 858 910 911
f 858 911 912
f 858 912 906
f 860 913 861
f 860 862 905
f 860 905 914
f 860 914 913
f 861 913 863
f 863 913 915
f 863 915 864
f 864 915 865
f 865 915 916
f 865 916 866
f 866 916 917
f 866 917 918
f 866 918 919
f 866 919 867
f 867 919 920
f 867 920 868
f 868 920 869
f 869 920 921
f 869 921 870
f 872 894 922
f 872 922 873
f 873 922 874
f 874 922 875
f 875 923 924
f 875 924 876
f 875 922 925
f 875 925 923
f 876 924 877
f 877 924 883
f 878 879 927
f 878 927 926
f 879 887 927
f 880 884 928
f 880 928 881
f 881 928 885
f 883 924 929
f 883 929 884
f 884 929 930
f 884 930 931
f 884 931 928
f 885 928 937
f 885 937 888
f 886 932 935
f 886 935 887
f 886 933 934
f 886 934 932
f 887 935 936
f 887 936 927
f 888 937 980
f 888 980 933
f 889 921 973
f 889 973 938
f 889 938 939
f 889 939 890
f 890 939 891
f 891 939 940
f 891 940 892
f 892 940 941
f 892 941 893
f 893 941 942
f 893 942 922
f 893 922 894
f 895 902 943
f 896 943 903
f 897 926 927
f 897 927 936
f 897 936 944
f 897 944 898
f 898 944 935
f 898 935 945
f 898 945 946
f 898 946 947
f 898 947 948
f 898 948 900
f 898 900 899
f 900 948 949
f 900 949 950
f 900 950 951
f 900 951 901
f 901 952 954
f 901 954 902
f 901 951 953
f 901 953 952
f 902 954 943
f 903 943 954
f 903 954 955
f 903 955 910
f 904 909 956
f 904 956 905
f 905 957 915
f 905 915 914
f 905 956 957
f 906 912 907
f 907 912 958
f 907 958 959
f 907 959 960
f 907 960 961
f 907 961 908
f 908 962 909
f 908 961 962
f 909 962 956
f 910 955 911
f 911 955 963
f 911 963 964
f 911 964 912
f 912 964 958
f 913 914 915
f 915 957 916
f 916 956 965
f 916 965 917
f 916 957 956
f 917 965 966
f 917 966 967
f 917 967 968
f 917 968 918
f 918 968 969
f 918 969 970
f 918 970 919
f 919 970 971
f 919 971 920
f 920 971 921
f 921 971 972
f 921 972 973
f 922 942 974
f 922 974 925
f 923 975 929
f 923 929 924
f 923 925 974
f 923 974 975
f 928 931 976
f 928 976 937
f 929 975 930
f 930 975 977
f 930 977 931
f 931 977 976
f 932 945 935
f 932 934 978
f 932 978 979
f 932 979 945
f 933 980 981
f 933 981 934
f 934 981 978
f 935 944 936
f 937 976 982
f 937 982 1012
f 937 1012 980
f 938 973 1005
f 938 1005 983
f 938 983 984
f 938 984 939
f 939 984 985
f 939 985 940
f 940 985 986
f 940 986 941
f 941 986 974
f 941 974 942
f 945 979 987
f 945 987 946
f 946 987 947
f 947 987 988
f 947 988 989
f 947 989 948
f 948 989 953
f 948 953 949
f 949 953 950
f 950 953 951
f 952 953 990
f 952 990 955
f 952 955 954
f 953 991 990
f 953 989 992
f 953 992 991
f 955 990 991
f 955 991 963
f 956 962 966
f 956 966 965
f 958 964 959
f 959 964 993
f 959 993 960
f 960 994 961
f 960 993 995
f 960 995 994
f 961 994 966
f 961 966 962
f 963 991 996
f 963 996 964
f 964 997 993
f 964 996 998
f 964 998 997
f 966 994 999
f 966 999 967
f 967 999 968
f 968 999 1000
f 968 1000 969
f 969 1000 1001
f 969 1001 1002
f 969 1002 970
f 970 1002 972
f 970 972 971
f 972 1003 1004
f 972 1004 973
f 972 1002 1003
f 973 1004 1005
f 974 986 975
f 975 986 1006
f 975 1006 977
f 976 977 1007
f 976 1007 982
f 977 1006 986
f 977 986 1008
f 977 1008 1007
f 978 981 1009
f 978 1009 1010
f 978 1010 1011
f 978 1011 979
f 979 1011 987
f 980 1012 1013
f 980 1013 981
f 981 1013 1014
f 981 1014 1015
f 981 1015 1009
f 982 1007 1016
f 982 1016 1028
f 982 1028 1012
f 983 1005 1028
f 983 1028 1016
f 983 1016 1017
f 983 1017 984
f 984 1017 1008
f 984 1008 985
f 985 1008 986
f 987 1011 988
f 988 1011 1010
f 988 1010 989
f 989 1018 1019
f 989 1019 992
f 989 1010 1018
f 991 992 1019
f 991 1019 996
f 993 1020 999
f 993 999 995
f 993 997 1021
f 993 1021 1022
f 993 1022 1020
f 994 995 999
f 996 1019 998
f 997 998 1023
f 997 1023 1021
f 998 1019 1018
f 998 1018 1023
f 999 1020 1024
f 999 1024 1000
f 1000 1024 1001
f 1001 1024 1025
f 1001 1025 1002
f 1002 1025 1003
f 1003 1025 1026
f 1003 1026 1004
f 1004 1026 1027
f 1004 1027 1005
f 1005 1027 1028
f 1007 1008 1016
f 1008 1017 1016
f 1009 1015 1010
f 1010 1015 1023
f 1010 1023 1018
f 1012 1028 1029
f 1012 1029 1013
f 1013 1029 1030
f 1013 1030 1014
f 1014 1030 1031
f 1014 1031 1015
f 1015 1031 1032
f 1015 1032 1023
f 1020 1022 1024
f 1021 1032 1022
f 1021 1023 1032
f 1022 1032 1033
f 1022 1033 1024
f 1024 1033 1025
f 1025 1033 1034
f 1025 1034 1030
f 1025 1030 1026
f 1026 1030 1029
f 1026 1029 1028
f 1026 1028 1027
f 1030 1034 1033
f 1030 1033 1031
f 1031 1033 1032

